%TF.GenerationSoftware,KiCad,Pcbnew,9.0.5-9.0.5~ubuntu24.04.1*%
%TF.CreationDate,2025-12-04T16:19:15-08:00*%
%TF.ProjectId,Motor_Joint_Splitter_V2,4d6f746f-725f-44a6-9f69-6e745f53706c,rev?*%
%TF.SameCoordinates,Original*%
%TF.FileFunction,Legend,Bot*%
%TF.FilePolarity,Positive*%
%FSLAX46Y46*%
G04 Gerber Fmt 4.6, Leading zero omitted, Abs format (unit mm)*
G04 Created by KiCad (PCBNEW 9.0.5-9.0.5~ubuntu24.04.1) date 2025-12-04 16:19:15*
%MOMM*%
%LPD*%
G01*
G04 APERTURE LIST*
%ADD10C,0.150000*%
%ADD11C,0.508000*%
%ADD12C,0.120000*%
G04 APERTURE END LIST*
D10*
X194296820Y-78461905D02*
X193296820Y-78461905D01*
X193296820Y-78461905D02*
X193296820Y-78700000D01*
X193296820Y-78700000D02*
X193344439Y-78842857D01*
X193344439Y-78842857D02*
X193439677Y-78938095D01*
X193439677Y-78938095D02*
X193534915Y-78985714D01*
X193534915Y-78985714D02*
X193725391Y-79033333D01*
X193725391Y-79033333D02*
X193868248Y-79033333D01*
X193868248Y-79033333D02*
X194058724Y-78985714D01*
X194058724Y-78985714D02*
X194153962Y-78938095D01*
X194153962Y-78938095D02*
X194249201Y-78842857D01*
X194249201Y-78842857D02*
X194296820Y-78700000D01*
X194296820Y-78700000D02*
X194296820Y-78461905D01*
X193296820Y-79938095D02*
X193296820Y-79461905D01*
X193296820Y-79461905D02*
X193773010Y-79414286D01*
X193773010Y-79414286D02*
X193725391Y-79461905D01*
X193725391Y-79461905D02*
X193677772Y-79557143D01*
X193677772Y-79557143D02*
X193677772Y-79795238D01*
X193677772Y-79795238D02*
X193725391Y-79890476D01*
X193725391Y-79890476D02*
X193773010Y-79938095D01*
X193773010Y-79938095D02*
X193868248Y-79985714D01*
X193868248Y-79985714D02*
X194106343Y-79985714D01*
X194106343Y-79985714D02*
X194201581Y-79938095D01*
X194201581Y-79938095D02*
X194249201Y-79890476D01*
X194249201Y-79890476D02*
X194296820Y-79795238D01*
X194296820Y-79795238D02*
X194296820Y-79557143D01*
X194296820Y-79557143D02*
X194249201Y-79461905D01*
X194249201Y-79461905D02*
X194201581Y-79414286D01*
X197258094Y-80854819D02*
X197258094Y-79854819D01*
X197258094Y-79854819D02*
X197019999Y-79854819D01*
X197019999Y-79854819D02*
X196877142Y-79902438D01*
X196877142Y-79902438D02*
X196781904Y-79997676D01*
X196781904Y-79997676D02*
X196734285Y-80092914D01*
X196734285Y-80092914D02*
X196686666Y-80283390D01*
X196686666Y-80283390D02*
X196686666Y-80426247D01*
X196686666Y-80426247D02*
X196734285Y-80616723D01*
X196734285Y-80616723D02*
X196781904Y-80711961D01*
X196781904Y-80711961D02*
X196877142Y-80807200D01*
X196877142Y-80807200D02*
X197019999Y-80854819D01*
X197019999Y-80854819D02*
X197258094Y-80854819D01*
X196353332Y-79854819D02*
X195686666Y-79854819D01*
X195686666Y-79854819D02*
X196115237Y-80854819D01*
D11*
%TO.C,J2*%
X218204000Y-84294050D02*
G75*
G02*
X217442000Y-84294050I-381000J0D01*
G01*
X217442000Y-84294050D02*
G75*
G02*
X218204000Y-84294050I381000J0D01*
G01*
D12*
%TO.C,D6*%
X202240000Y-75490000D02*
X202240000Y-76900000D01*
X204560000Y-75500000D02*
X204560000Y-76900000D01*
X202290000Y-75120000D02*
X201960000Y-75360000D01*
X201960000Y-74880000D01*
X202290000Y-75120000D01*
G36*
X202290000Y-75120000D02*
G01*
X201960000Y-75360000D01*
X201960000Y-74880000D01*
X202290000Y-75120000D01*
G37*
%TO.C,D5*%
X190840000Y-76900000D02*
X190840000Y-75500000D01*
X193160000Y-76910000D02*
X193160000Y-75500000D01*
X193440000Y-77520000D02*
X193110000Y-77280000D01*
X193440000Y-77040000D01*
X193440000Y-77520000D01*
G36*
X193440000Y-77520000D02*
G01*
X193110000Y-77280000D01*
X193440000Y-77040000D01*
X193440000Y-77520000D01*
G37*
%TO.C,D7*%
X196890000Y-83560000D02*
X198300000Y-83560000D01*
X196900000Y-81240000D02*
X198300000Y-81240000D01*
X196760000Y-83840000D02*
X196280000Y-83840000D01*
X196520000Y-83510000D01*
X196760000Y-83840000D01*
G36*
X196760000Y-83840000D02*
G01*
X196280000Y-83840000D01*
X196520000Y-83510000D01*
X196760000Y-83840000D01*
G37*
%TD*%
M02*
