%TF.GenerationSoftware,KiCad,Pcbnew,9.0.5*%
%TF.CreationDate,2026-04-07T14:40:45-07:00*%
%TF.ProjectId,Motor_Joint_Splitter_V3,4d6f746f-725f-44a6-9f69-6e745f53706c,rev?*%
%TF.SameCoordinates,Original*%
%TF.FileFunction,Paste,Top*%
%TF.FilePolarity,Positive*%
%FSLAX46Y46*%
G04 Gerber Fmt 4.6, Leading zero omitted, Abs format (unit mm)*
G04 Created by KiCad (PCBNEW 9.0.5) date 2026-04-07 14:40:45*
%MOMM*%
%LPD*%
G01*
G04 APERTURE LIST*
G04 Aperture macros list*
%AMRoundRect*
0 Rectangle with rounded corners*
0 $1 Rounding radius*
0 $2 $3 $4 $5 $6 $7 $8 $9 X,Y pos of 4 corners*
0 Add a 4 corners polygon primitive as box body*
4,1,4,$2,$3,$4,$5,$6,$7,$8,$9,$2,$3,0*
0 Add four circle primitives for the rounded corners*
1,1,$1+$1,$2,$3*
1,1,$1+$1,$4,$5*
1,1,$1+$1,$6,$7*
1,1,$1+$1,$8,$9*
0 Add four rect primitives between the rounded corners*
20,1,$1+$1,$2,$3,$4,$5,0*
20,1,$1+$1,$4,$5,$6,$7,0*
20,1,$1+$1,$6,$7,$8,$9,0*
20,1,$1+$1,$8,$9,$2,$3,0*%
G04 Aperture macros list end*
%ADD10RoundRect,0.100000X0.225000X0.100000X-0.225000X0.100000X-0.225000X-0.100000X0.225000X-0.100000X0*%
%ADD11RoundRect,0.225000X-0.225000X-0.250000X0.225000X-0.250000X0.225000X0.250000X-0.225000X0.250000X0*%
%ADD12RoundRect,0.140000X-0.140000X-0.170000X0.140000X-0.170000X0.140000X0.170000X-0.140000X0.170000X0*%
%ADD13RoundRect,0.112500X-0.187500X-0.112500X0.187500X-0.112500X0.187500X0.112500X-0.187500X0.112500X0*%
%ADD14RoundRect,0.248780X-0.451220X0.261220X-0.451220X-0.261220X0.451220X-0.261220X0.451220X0.261220X0*%
%ADD15RoundRect,0.140000X-0.170000X0.140000X-0.170000X-0.140000X0.170000X-0.140000X0.170000X0.140000X0*%
%ADD16R,1.422400X0.355600*%
G04 APERTURE END LIST*
D10*
%TO.C,D7*%
X198100000Y-85750000D03*
X198100000Y-85100000D03*
X198100000Y-84450000D03*
X196200000Y-84450000D03*
X196200000Y-85100000D03*
X196200000Y-85750000D03*
%TD*%
%TO.C,D6*%
X203100000Y-85750000D03*
X203100000Y-85100000D03*
X203100000Y-84450000D03*
X201200000Y-84450000D03*
X201200000Y-85100000D03*
X201200000Y-85750000D03*
%TD*%
%TO.C,D5*%
X193050000Y-85750000D03*
X193050000Y-85100000D03*
X193050000Y-84450000D03*
X191150000Y-84450000D03*
X191150000Y-85100000D03*
X191150000Y-85750000D03*
%TD*%
D11*
%TO.C,C2*%
X201620000Y-74900000D03*
X203180000Y-74900000D03*
%TD*%
D12*
%TO.C,C4*%
X193100000Y-72900000D03*
X194100000Y-72900000D03*
%TD*%
D13*
%TO.C,D4*%
X188750000Y-89000000D03*
X186650000Y-89000000D03*
%TD*%
D14*
%TO.C,R19*%
X191500000Y-88090000D03*
X191500000Y-89910000D03*
%TD*%
D15*
%TO.C,C1*%
X189900000Y-89000000D03*
X189900000Y-88000000D03*
%TD*%
D14*
%TO.C,R13*%
X194000000Y-88090000D03*
X194000000Y-89910000D03*
%TD*%
%TO.C,R17*%
X199000000Y-88090000D03*
X199000000Y-89910000D03*
%TD*%
%TO.C,R15*%
X201500000Y-88090000D03*
X201500000Y-89910000D03*
%TD*%
%TO.C,R14*%
X196500000Y-88090000D03*
X196500000Y-89910000D03*
%TD*%
D16*
%TO.C,U2*%
X194405200Y-75129000D03*
X194405200Y-75764000D03*
X194405200Y-76424400D03*
X194405200Y-77084800D03*
X194405200Y-77719800D03*
X194405200Y-78380200D03*
X194405200Y-79015200D03*
X194405200Y-79675600D03*
X194405200Y-80336000D03*
X194405200Y-80971000D03*
X200094800Y-80971000D03*
X200094800Y-80336000D03*
X200094800Y-79675600D03*
X200094800Y-79015200D03*
X200094800Y-78380200D03*
X200094800Y-77719800D03*
X200094800Y-77084800D03*
X200094800Y-76424400D03*
X200094800Y-75764000D03*
X200094800Y-75129000D03*
%TD*%
D12*
%TO.C,C3*%
X200300000Y-72700000D03*
X201300000Y-72700000D03*
%TD*%
D14*
%TO.C,R16*%
X204000000Y-88090000D03*
X204000000Y-89910000D03*
%TD*%
M02*
