%TF.GenerationSoftware,KiCad,Pcbnew,9.0.5*%
%TF.CreationDate,2026-04-07T14:40:45-07:00*%
%TF.ProjectId,Motor_Joint_Splitter_V3,4d6f746f-725f-44a6-9f69-6e745f53706c,rev?*%
%TF.SameCoordinates,Original*%
%TF.FileFunction,Soldermask,Top*%
%TF.FilePolarity,Negative*%
%FSLAX46Y46*%
G04 Gerber Fmt 4.6, Leading zero omitted, Abs format (unit mm)*
G04 Created by KiCad (PCBNEW 9.0.5) date 2026-04-07 14:40:45*
%MOMM*%
%LPD*%
G01*
G04 APERTURE LIST*
G04 Aperture macros list*
%AMRoundRect*
0 Rectangle with rounded corners*
0 $1 Rounding radius*
0 $2 $3 $4 $5 $6 $7 $8 $9 X,Y pos of 4 corners*
0 Add a 4 corners polygon primitive as box body*
4,1,4,$2,$3,$4,$5,$6,$7,$8,$9,$2,$3,0*
0 Add four circle primitives for the rounded corners*
1,1,$1+$1,$2,$3*
1,1,$1+$1,$4,$5*
1,1,$1+$1,$6,$7*
1,1,$1+$1,$8,$9*
0 Add four rect primitives between the rounded corners*
20,1,$1+$1,$2,$3,$4,$5,0*
20,1,$1+$1,$4,$5,$6,$7,0*
20,1,$1+$1,$6,$7,$8,$9,0*
20,1,$1+$1,$8,$9,$2,$3,0*%
G04 Aperture macros list end*
%ADD10RoundRect,0.100000X0.225000X0.100000X-0.225000X0.100000X-0.225000X-0.100000X0.225000X-0.100000X0*%
%ADD11RoundRect,0.244000X-0.244000X-0.269000X0.244000X-0.269000X0.244000X0.269000X-0.244000X0.269000X0*%
%ADD12RoundRect,0.159000X-0.159000X-0.189000X0.159000X-0.189000X0.159000X0.189000X-0.159000X0.189000X0*%
%ADD13C,2.000000*%
%ADD14RoundRect,0.131500X-0.206500X-0.131500X0.206500X-0.131500X0.206500X0.131500X-0.206500X0.131500X0*%
%ADD15RoundRect,0.102000X0.729000X0.729000X-0.729000X0.729000X-0.729000X-0.729000X0.729000X-0.729000X0*%
%ADD16C,1.662000*%
%ADD17C,2.260600*%
%ADD18R,1.700000X1.700000*%
%ADD19C,1.700000*%
%ADD20RoundRect,0.267317X-0.470683X0.280683X-0.470683X-0.280683X0.470683X-0.280683X0.470683X0.280683X0*%
%ADD21RoundRect,0.159000X-0.189000X0.159000X-0.189000X-0.159000X0.189000X-0.159000X0.189000X0.159000X0*%
%ADD22C,3.600000*%
%ADD23C,5.600000*%
%ADD24C,3.200000*%
%ADD25RoundRect,0.102000X-0.634000X-0.634000X0.634000X-0.634000X0.634000X0.634000X-0.634000X0.634000X0*%
%ADD26C,1.472000*%
%ADD27RoundRect,0.102000X-0.711200X-0.177800X0.711200X-0.177800X0.711200X0.177800X-0.711200X0.177800X0*%
%ADD28C,5.700000*%
%ADD29RoundRect,0.650000X0.650000X0.650000X-0.650000X0.650000X-0.650000X-0.650000X0.650000X-0.650000X0*%
%ADD30C,2.600000*%
G04 APERTURE END LIST*
D10*
%TO.C,D7*%
X198100000Y-85750000D03*
X198100000Y-85100000D03*
X198100000Y-84450000D03*
X196200000Y-84450000D03*
X196200000Y-85100000D03*
X196200000Y-85750000D03*
%TD*%
%TO.C,D6*%
X203100000Y-85750000D03*
X203100000Y-85100000D03*
X203100000Y-84450000D03*
X201200000Y-84450000D03*
X201200000Y-85100000D03*
X201200000Y-85750000D03*
%TD*%
%TO.C,D5*%
X193050000Y-85750000D03*
X193050000Y-85100000D03*
X193050000Y-84450000D03*
X191150000Y-84450000D03*
X191150000Y-85100000D03*
X191150000Y-85750000D03*
%TD*%
D11*
%TO.C,C2*%
X201620000Y-74900000D03*
X203180000Y-74900000D03*
%TD*%
D12*
%TO.C,C4*%
X193100000Y-72900000D03*
X194100000Y-72900000D03*
%TD*%
D13*
%TO.C,TP1*%
X183980000Y-92500000D03*
X186520000Y-92500000D03*
%TD*%
D14*
%TO.C,D4*%
X188750000Y-89000000D03*
X186650000Y-89000000D03*
%TD*%
D15*
%TO.C,J4*%
X220672500Y-66490000D03*
D16*
X219172500Y-68490000D03*
X217672500Y-66490000D03*
X216172500Y-68490000D03*
X214672500Y-66490000D03*
X213172500Y-68490000D03*
X211672500Y-66490000D03*
X210172500Y-68490000D03*
%TD*%
D17*
%TO.C,J2*%
X219299600Y-89594050D03*
X215339600Y-89594050D03*
X211379601Y-89594050D03*
%TD*%
D18*
%TO.C,J9*%
X190635000Y-79580000D03*
D19*
X190635000Y-77040000D03*
X190635000Y-74500000D03*
X190635000Y-71960000D03*
X190635000Y-69420000D03*
%TD*%
D20*
%TO.C,R19*%
X191500000Y-88090000D03*
X191500000Y-89910000D03*
%TD*%
D13*
%TO.C,TP3*%
X183980000Y-100500000D03*
X186520000Y-100500000D03*
%TD*%
D21*
%TO.C,C1*%
X189900000Y-89000000D03*
X189900000Y-88000000D03*
%TD*%
D20*
%TO.C,R13*%
X194000000Y-88090000D03*
X194000000Y-89910000D03*
%TD*%
D22*
%TO.C,H3*%
X226500000Y-63500000D03*
D23*
X226500000Y-63500000D03*
%TD*%
D20*
%TO.C,R17*%
X199000000Y-88090000D03*
X199000000Y-89910000D03*
%TD*%
D24*
%TO.C,J7*%
X191840000Y-102090000D03*
X203270000Y-102090000D03*
D25*
X193110000Y-95740000D03*
D26*
X194380000Y-93200000D03*
X195650000Y-95740000D03*
X196920000Y-93200000D03*
X198190000Y-95740000D03*
X199460000Y-93200000D03*
X200730000Y-95740000D03*
X202000000Y-93200000D03*
%TD*%
D20*
%TO.C,R15*%
X201500000Y-88090000D03*
X201500000Y-89910000D03*
%TD*%
%TO.C,R14*%
X196500000Y-88090000D03*
X196500000Y-89910000D03*
%TD*%
D22*
%TO.C,H1*%
X183500000Y-106500000D03*
D23*
X183500000Y-106500000D03*
%TD*%
D27*
%TO.C,U2*%
X194405200Y-75129000D03*
X194405200Y-75764000D03*
X194405200Y-76424400D03*
X194405200Y-77084800D03*
X194405200Y-77719800D03*
X194405200Y-78380200D03*
X194405200Y-79015200D03*
X194405200Y-79675600D03*
X194405200Y-80336000D03*
X194405200Y-80971000D03*
X200094800Y-80971000D03*
X200094800Y-80336000D03*
X200094800Y-79675600D03*
X200094800Y-79015200D03*
X200094800Y-78380200D03*
X200094800Y-77719800D03*
X200094800Y-77084800D03*
X200094800Y-76424400D03*
X200094800Y-75764000D03*
X200094800Y-75129000D03*
%TD*%
D22*
%TO.C,H2*%
X226500000Y-106500000D03*
D23*
X226500000Y-106500000D03*
%TD*%
D12*
%TO.C,C3*%
X200300000Y-72700000D03*
X201300000Y-72700000D03*
%TD*%
D20*
%TO.C,R16*%
X204000000Y-88090000D03*
X204000000Y-89910000D03*
%TD*%
D13*
%TO.C,TP2*%
X186500000Y-96500000D03*
X183960000Y-96500000D03*
%TD*%
D22*
%TO.C,H4*%
X183500000Y-63500000D03*
D28*
X183500000Y-63500000D03*
%TD*%
D18*
%TO.C,J1*%
X194500000Y-70500000D03*
D19*
X197040000Y-70500000D03*
X199580000Y-70500000D03*
X202120000Y-70500000D03*
X204660000Y-70500000D03*
%TD*%
D29*
%TO.C,JP1*%
X210185000Y-79121000D03*
D30*
X205105000Y-79121000D03*
%TD*%
M02*
