%TF.GenerationSoftware,KiCad,Pcbnew,9.0.5*%
%TF.CreationDate,2026-04-07T14:40:45-07:00*%
%TF.ProjectId,Motor_Joint_Splitter_V3,4d6f746f-725f-44a6-9f69-6e745f53706c,rev?*%
%TF.SameCoordinates,Original*%
%TF.FileFunction,Legend,Top*%
%TF.FilePolarity,Positive*%
%FSLAX46Y46*%
G04 Gerber Fmt 4.6, Leading zero omitted, Abs format (unit mm)*
G04 Created by KiCad (PCBNEW 9.0.5) date 2026-04-07 14:40:45*
%MOMM*%
%LPD*%
G01*
G04 APERTURE LIST*
%ADD10C,0.150000*%
%ADD11C,0.200000*%
%ADD12C,0.120000*%
%ADD13C,0.127000*%
%ADD14C,0.300000*%
%ADD15C,0.152400*%
%ADD16C,0.508000*%
%ADD17C,0.400000*%
G04 APERTURE END LIST*
D10*
X191461905Y-83254819D02*
X191461905Y-82254819D01*
X191461905Y-82254819D02*
X191700000Y-82254819D01*
X191700000Y-82254819D02*
X191842857Y-82302438D01*
X191842857Y-82302438D02*
X191938095Y-82397676D01*
X191938095Y-82397676D02*
X191985714Y-82492914D01*
X191985714Y-82492914D02*
X192033333Y-82683390D01*
X192033333Y-82683390D02*
X192033333Y-82826247D01*
X192033333Y-82826247D02*
X191985714Y-83016723D01*
X191985714Y-83016723D02*
X191938095Y-83111961D01*
X191938095Y-83111961D02*
X191842857Y-83207200D01*
X191842857Y-83207200D02*
X191700000Y-83254819D01*
X191700000Y-83254819D02*
X191461905Y-83254819D01*
X192938095Y-82254819D02*
X192461905Y-82254819D01*
X192461905Y-82254819D02*
X192414286Y-82731009D01*
X192414286Y-82731009D02*
X192461905Y-82683390D01*
X192461905Y-82683390D02*
X192557143Y-82635771D01*
X192557143Y-82635771D02*
X192795238Y-82635771D01*
X192795238Y-82635771D02*
X192890476Y-82683390D01*
X192890476Y-82683390D02*
X192938095Y-82731009D01*
X192938095Y-82731009D02*
X192985714Y-82826247D01*
X192985714Y-82826247D02*
X192985714Y-83064342D01*
X192985714Y-83064342D02*
X192938095Y-83159580D01*
X192938095Y-83159580D02*
X192890476Y-83207200D01*
X192890476Y-83207200D02*
X192795238Y-83254819D01*
X192795238Y-83254819D02*
X192557143Y-83254819D01*
X192557143Y-83254819D02*
X192461905Y-83207200D01*
X192461905Y-83207200D02*
X192414286Y-83159580D01*
X196161905Y-83254819D02*
X196161905Y-82254819D01*
X196161905Y-82254819D02*
X196400000Y-82254819D01*
X196400000Y-82254819D02*
X196542857Y-82302438D01*
X196542857Y-82302438D02*
X196638095Y-82397676D01*
X196638095Y-82397676D02*
X196685714Y-82492914D01*
X196685714Y-82492914D02*
X196733333Y-82683390D01*
X196733333Y-82683390D02*
X196733333Y-82826247D01*
X196733333Y-82826247D02*
X196685714Y-83016723D01*
X196685714Y-83016723D02*
X196638095Y-83111961D01*
X196638095Y-83111961D02*
X196542857Y-83207200D01*
X196542857Y-83207200D02*
X196400000Y-83254819D01*
X196400000Y-83254819D02*
X196161905Y-83254819D01*
X197066667Y-82254819D02*
X197733333Y-82254819D01*
X197733333Y-82254819D02*
X197304762Y-83254819D01*
D11*
X216500000Y-85175000D02*
X216500000Y-87575000D01*
X216870013Y-87204987D02*
X216500000Y-87575000D01*
X216500000Y-87575000D02*
X216145021Y-87220021D01*
D10*
X181260588Y-77917438D02*
X181165350Y-77869819D01*
X181165350Y-77869819D02*
X181022493Y-77869819D01*
X181022493Y-77869819D02*
X180879636Y-77917438D01*
X180879636Y-77917438D02*
X180784398Y-78012676D01*
X180784398Y-78012676D02*
X180736779Y-78107914D01*
X180736779Y-78107914D02*
X180689160Y-78298390D01*
X180689160Y-78298390D02*
X180689160Y-78441247D01*
X180689160Y-78441247D02*
X180736779Y-78631723D01*
X180736779Y-78631723D02*
X180784398Y-78726961D01*
X180784398Y-78726961D02*
X180879636Y-78822200D01*
X180879636Y-78822200D02*
X181022493Y-78869819D01*
X181022493Y-78869819D02*
X181117731Y-78869819D01*
X181117731Y-78869819D02*
X181260588Y-78822200D01*
X181260588Y-78822200D02*
X181308207Y-78774580D01*
X181308207Y-78774580D02*
X181308207Y-78441247D01*
X181308207Y-78441247D02*
X181117731Y-78441247D01*
X181736779Y-78869819D02*
X181736779Y-77869819D01*
X181736779Y-77869819D02*
X182308207Y-78869819D01*
X182308207Y-78869819D02*
X182308207Y-77869819D01*
X182784398Y-78869819D02*
X182784398Y-77869819D01*
X182784398Y-77869819D02*
X183022493Y-77869819D01*
X183022493Y-77869819D02*
X183165350Y-77917438D01*
X183165350Y-77917438D02*
X183260588Y-78012676D01*
X183260588Y-78012676D02*
X183308207Y-78107914D01*
X183308207Y-78107914D02*
X183355826Y-78298390D01*
X183355826Y-78298390D02*
X183355826Y-78441247D01*
X183355826Y-78441247D02*
X183308207Y-78631723D01*
X183308207Y-78631723D02*
X183260588Y-78726961D01*
X183260588Y-78726961D02*
X183165350Y-78822200D01*
X183165350Y-78822200D02*
X183022493Y-78869819D01*
X183022493Y-78869819D02*
X182784398Y-78869819D01*
D11*
X192308887Y-60788720D02*
X191094601Y-60788720D01*
X191094601Y-60788720D02*
X190951744Y-60860149D01*
X190951744Y-60860149D02*
X190880316Y-60931578D01*
X190880316Y-60931578D02*
X190808887Y-61074435D01*
X190808887Y-61074435D02*
X190808887Y-61360149D01*
X190808887Y-61360149D02*
X190880316Y-61503006D01*
X190880316Y-61503006D02*
X190951744Y-61574435D01*
X190951744Y-61574435D02*
X191094601Y-61645863D01*
X191094601Y-61645863D02*
X192308887Y-61645863D01*
X190880316Y-62288721D02*
X190808887Y-62503007D01*
X190808887Y-62503007D02*
X190808887Y-62860149D01*
X190808887Y-62860149D02*
X190880316Y-63003007D01*
X190880316Y-63003007D02*
X190951744Y-63074435D01*
X190951744Y-63074435D02*
X191094601Y-63145864D01*
X191094601Y-63145864D02*
X191237458Y-63145864D01*
X191237458Y-63145864D02*
X191380316Y-63074435D01*
X191380316Y-63074435D02*
X191451744Y-63003007D01*
X191451744Y-63003007D02*
X191523173Y-62860149D01*
X191523173Y-62860149D02*
X191594601Y-62574435D01*
X191594601Y-62574435D02*
X191666030Y-62431578D01*
X191666030Y-62431578D02*
X191737458Y-62360149D01*
X191737458Y-62360149D02*
X191880316Y-62288721D01*
X191880316Y-62288721D02*
X192023173Y-62288721D01*
X192023173Y-62288721D02*
X192166030Y-62360149D01*
X192166030Y-62360149D02*
X192237458Y-62431578D01*
X192237458Y-62431578D02*
X192308887Y-62574435D01*
X192308887Y-62574435D02*
X192308887Y-62931578D01*
X192308887Y-62931578D02*
X192237458Y-63145864D01*
X190808887Y-63788720D02*
X192308887Y-63788720D01*
X192308887Y-63788720D02*
X191237458Y-64288720D01*
X191237458Y-64288720D02*
X192308887Y-64788720D01*
X192308887Y-64788720D02*
X190808887Y-64788720D01*
X189179685Y-60788720D02*
X189179685Y-61288720D01*
X188393971Y-61503006D02*
X188393971Y-60788720D01*
X188393971Y-60788720D02*
X189893971Y-60788720D01*
X189893971Y-60788720D02*
X189893971Y-61503006D01*
X188393971Y-62145863D02*
X189893971Y-62145863D01*
X189893971Y-62145863D02*
X188393971Y-63003006D01*
X188393971Y-63003006D02*
X189893971Y-63003006D01*
X188536828Y-64574435D02*
X188465400Y-64503007D01*
X188465400Y-64503007D02*
X188393971Y-64288721D01*
X188393971Y-64288721D02*
X188393971Y-64145864D01*
X188393971Y-64145864D02*
X188465400Y-63931578D01*
X188465400Y-63931578D02*
X188608257Y-63788721D01*
X188608257Y-63788721D02*
X188751114Y-63717292D01*
X188751114Y-63717292D02*
X189036828Y-63645864D01*
X189036828Y-63645864D02*
X189251114Y-63645864D01*
X189251114Y-63645864D02*
X189536828Y-63717292D01*
X189536828Y-63717292D02*
X189679685Y-63788721D01*
X189679685Y-63788721D02*
X189822542Y-63931578D01*
X189822542Y-63931578D02*
X189893971Y-64145864D01*
X189893971Y-64145864D02*
X189893971Y-64288721D01*
X189893971Y-64288721D02*
X189822542Y-64503007D01*
X189822542Y-64503007D02*
X189751114Y-64574435D01*
D10*
X181119942Y-92134398D02*
X181119942Y-92848684D01*
X180691371Y-91991541D02*
X182191371Y-92491541D01*
X182191371Y-92491541D02*
X180691371Y-92991541D01*
X182119942Y-99491541D02*
X182191371Y-99348684D01*
X182191371Y-99348684D02*
X182191371Y-99134398D01*
X182191371Y-99134398D02*
X182119942Y-98920112D01*
X182119942Y-98920112D02*
X181977085Y-98777255D01*
X181977085Y-98777255D02*
X181834228Y-98705826D01*
X181834228Y-98705826D02*
X181548514Y-98634398D01*
X181548514Y-98634398D02*
X181334228Y-98634398D01*
X181334228Y-98634398D02*
X181048514Y-98705826D01*
X181048514Y-98705826D02*
X180905657Y-98777255D01*
X180905657Y-98777255D02*
X180762800Y-98920112D01*
X180762800Y-98920112D02*
X180691371Y-99134398D01*
X180691371Y-99134398D02*
X180691371Y-99277255D01*
X180691371Y-99277255D02*
X180762800Y-99491541D01*
X180762800Y-99491541D02*
X180834228Y-99562969D01*
X180834228Y-99562969D02*
X181334228Y-99562969D01*
X181334228Y-99562969D02*
X181334228Y-99277255D01*
X180691371Y-100205826D02*
X182191371Y-100205826D01*
X182191371Y-100205826D02*
X180691371Y-101062969D01*
X180691371Y-101062969D02*
X182191371Y-101062969D01*
X180691371Y-101777255D02*
X182191371Y-101777255D01*
X182191371Y-101777255D02*
X182191371Y-102134398D01*
X182191371Y-102134398D02*
X182119942Y-102348684D01*
X182119942Y-102348684D02*
X181977085Y-102491541D01*
X181977085Y-102491541D02*
X181834228Y-102562970D01*
X181834228Y-102562970D02*
X181548514Y-102634398D01*
X181548514Y-102634398D02*
X181334228Y-102634398D01*
X181334228Y-102634398D02*
X181048514Y-102562970D01*
X181048514Y-102562970D02*
X180905657Y-102491541D01*
X180905657Y-102491541D02*
X180762800Y-102348684D01*
X180762800Y-102348684D02*
X180691371Y-102134398D01*
X180691371Y-102134398D02*
X180691371Y-101777255D01*
X181253990Y-68170112D02*
X181206371Y-68312969D01*
X181206371Y-68312969D02*
X181158752Y-68360588D01*
X181158752Y-68360588D02*
X181063514Y-68408207D01*
X181063514Y-68408207D02*
X180920657Y-68408207D01*
X180920657Y-68408207D02*
X180825419Y-68360588D01*
X180825419Y-68360588D02*
X180777800Y-68312969D01*
X180777800Y-68312969D02*
X180730180Y-68217731D01*
X180730180Y-68217731D02*
X180730180Y-67836779D01*
X180730180Y-67836779D02*
X181730180Y-67836779D01*
X181730180Y-67836779D02*
X181730180Y-68170112D01*
X181730180Y-68170112D02*
X181682561Y-68265350D01*
X181682561Y-68265350D02*
X181634942Y-68312969D01*
X181634942Y-68312969D02*
X181539704Y-68360588D01*
X181539704Y-68360588D02*
X181444466Y-68360588D01*
X181444466Y-68360588D02*
X181349228Y-68312969D01*
X181349228Y-68312969D02*
X181301609Y-68265350D01*
X181301609Y-68265350D02*
X181253990Y-68170112D01*
X181253990Y-68170112D02*
X181253990Y-67836779D01*
X196182561Y-61160588D02*
X196230180Y-61065350D01*
X196230180Y-61065350D02*
X196230180Y-60922493D01*
X196230180Y-60922493D02*
X196182561Y-60779636D01*
X196182561Y-60779636D02*
X196087323Y-60684398D01*
X196087323Y-60684398D02*
X195992085Y-60636779D01*
X195992085Y-60636779D02*
X195801609Y-60589160D01*
X195801609Y-60589160D02*
X195658752Y-60589160D01*
X195658752Y-60589160D02*
X195468276Y-60636779D01*
X195468276Y-60636779D02*
X195373038Y-60684398D01*
X195373038Y-60684398D02*
X195277800Y-60779636D01*
X195277800Y-60779636D02*
X195230180Y-60922493D01*
X195230180Y-60922493D02*
X195230180Y-61017731D01*
X195230180Y-61017731D02*
X195277800Y-61160588D01*
X195277800Y-61160588D02*
X195325419Y-61208207D01*
X195325419Y-61208207D02*
X195658752Y-61208207D01*
X195658752Y-61208207D02*
X195658752Y-61017731D01*
X195230180Y-61636779D02*
X196230180Y-61636779D01*
X196230180Y-61636779D02*
X195230180Y-62208207D01*
X195230180Y-62208207D02*
X196230180Y-62208207D01*
X195230180Y-62684398D02*
X196230180Y-62684398D01*
X196230180Y-62684398D02*
X196230180Y-62922493D01*
X196230180Y-62922493D02*
X196182561Y-63065350D01*
X196182561Y-63065350D02*
X196087323Y-63160588D01*
X196087323Y-63160588D02*
X195992085Y-63208207D01*
X195992085Y-63208207D02*
X195801609Y-63255826D01*
X195801609Y-63255826D02*
X195658752Y-63255826D01*
X195658752Y-63255826D02*
X195468276Y-63208207D01*
X195468276Y-63208207D02*
X195373038Y-63160588D01*
X195373038Y-63160588D02*
X195277800Y-63065350D01*
X195277800Y-63065350D02*
X195230180Y-62922493D01*
X195230180Y-62922493D02*
X195230180Y-62684398D01*
X198163220Y-60630180D02*
X198163220Y-61630180D01*
X180730180Y-75836779D02*
X181730180Y-75836779D01*
D11*
X180917292Y-83219684D02*
X181131578Y-83291112D01*
X181131578Y-83291112D02*
X181488720Y-83291112D01*
X181488720Y-83291112D02*
X181631578Y-83219684D01*
X181631578Y-83219684D02*
X181703006Y-83148255D01*
X181703006Y-83148255D02*
X181774435Y-83005398D01*
X181774435Y-83005398D02*
X181774435Y-82862541D01*
X181774435Y-82862541D02*
X181703006Y-82719684D01*
X181703006Y-82719684D02*
X181631578Y-82648255D01*
X181631578Y-82648255D02*
X181488720Y-82576826D01*
X181488720Y-82576826D02*
X181203006Y-82505398D01*
X181203006Y-82505398D02*
X181060149Y-82433969D01*
X181060149Y-82433969D02*
X180988720Y-82362541D01*
X180988720Y-82362541D02*
X180917292Y-82219684D01*
X180917292Y-82219684D02*
X180917292Y-82076826D01*
X180917292Y-82076826D02*
X180988720Y-81933969D01*
X180988720Y-81933969D02*
X181060149Y-81862541D01*
X181060149Y-81862541D02*
X181203006Y-81791112D01*
X181203006Y-81791112D02*
X181560149Y-81791112D01*
X181560149Y-81791112D02*
X181774435Y-81862541D01*
X182417291Y-82505398D02*
X182917291Y-82505398D01*
X183131577Y-83291112D02*
X182417291Y-83291112D01*
X182417291Y-83291112D02*
X182417291Y-81791112D01*
X182417291Y-81791112D02*
X183131577Y-81791112D01*
X183703006Y-82862541D02*
X184417292Y-82862541D01*
X183560149Y-83291112D02*
X184060149Y-81791112D01*
X184060149Y-81791112D02*
X184560149Y-83291112D01*
X180988720Y-84920314D02*
X181488720Y-84920314D01*
X181703006Y-85706028D02*
X180988720Y-85706028D01*
X180988720Y-85706028D02*
X180988720Y-84206028D01*
X180988720Y-84206028D02*
X181703006Y-84206028D01*
X182345863Y-85706028D02*
X182345863Y-84206028D01*
X182345863Y-84206028D02*
X183203006Y-85706028D01*
X183203006Y-85706028D02*
X183203006Y-84206028D01*
X184774435Y-85563171D02*
X184703007Y-85634600D01*
X184703007Y-85634600D02*
X184488721Y-85706028D01*
X184488721Y-85706028D02*
X184345864Y-85706028D01*
X184345864Y-85706028D02*
X184131578Y-85634600D01*
X184131578Y-85634600D02*
X183988721Y-85491742D01*
X183988721Y-85491742D02*
X183917292Y-85348885D01*
X183917292Y-85348885D02*
X183845864Y-85063171D01*
X183845864Y-85063171D02*
X183845864Y-84848885D01*
X183845864Y-84848885D02*
X183917292Y-84563171D01*
X183917292Y-84563171D02*
X183988721Y-84420314D01*
X183988721Y-84420314D02*
X184131578Y-84277457D01*
X184131578Y-84277457D02*
X184345864Y-84206028D01*
X184345864Y-84206028D02*
X184488721Y-84206028D01*
X184488721Y-84206028D02*
X184703007Y-84277457D01*
X184703007Y-84277457D02*
X184774435Y-84348885D01*
D10*
X181211133Y-70236779D02*
X181211133Y-70998684D01*
X180830180Y-70617731D02*
X181592085Y-70617731D01*
D11*
X208688720Y-69991112D02*
X208688720Y-71205398D01*
X208688720Y-71205398D02*
X208760149Y-71348255D01*
X208760149Y-71348255D02*
X208831578Y-71419684D01*
X208831578Y-71419684D02*
X208974435Y-71491112D01*
X208974435Y-71491112D02*
X209260149Y-71491112D01*
X209260149Y-71491112D02*
X209403006Y-71419684D01*
X209403006Y-71419684D02*
X209474435Y-71348255D01*
X209474435Y-71348255D02*
X209545863Y-71205398D01*
X209545863Y-71205398D02*
X209545863Y-69991112D01*
X210188721Y-71419684D02*
X210403007Y-71491112D01*
X210403007Y-71491112D02*
X210760149Y-71491112D01*
X210760149Y-71491112D02*
X210903007Y-71419684D01*
X210903007Y-71419684D02*
X210974435Y-71348255D01*
X210974435Y-71348255D02*
X211045864Y-71205398D01*
X211045864Y-71205398D02*
X211045864Y-71062541D01*
X211045864Y-71062541D02*
X210974435Y-70919684D01*
X210974435Y-70919684D02*
X210903007Y-70848255D01*
X210903007Y-70848255D02*
X210760149Y-70776826D01*
X210760149Y-70776826D02*
X210474435Y-70705398D01*
X210474435Y-70705398D02*
X210331578Y-70633969D01*
X210331578Y-70633969D02*
X210260149Y-70562541D01*
X210260149Y-70562541D02*
X210188721Y-70419684D01*
X210188721Y-70419684D02*
X210188721Y-70276826D01*
X210188721Y-70276826D02*
X210260149Y-70133969D01*
X210260149Y-70133969D02*
X210331578Y-70062541D01*
X210331578Y-70062541D02*
X210474435Y-69991112D01*
X210474435Y-69991112D02*
X210831578Y-69991112D01*
X210831578Y-69991112D02*
X211045864Y-70062541D01*
X211688720Y-71491112D02*
X211688720Y-69991112D01*
X211688720Y-69991112D02*
X212188720Y-71062541D01*
X212188720Y-71062541D02*
X212688720Y-69991112D01*
X212688720Y-69991112D02*
X212688720Y-71491112D01*
X208688720Y-73906028D02*
X208688720Y-72406028D01*
X208688720Y-72406028D02*
X209260149Y-72406028D01*
X209260149Y-72406028D02*
X209403006Y-72477457D01*
X209403006Y-72477457D02*
X209474435Y-72548885D01*
X209474435Y-72548885D02*
X209545863Y-72691742D01*
X209545863Y-72691742D02*
X209545863Y-72906028D01*
X209545863Y-72906028D02*
X209474435Y-73048885D01*
X209474435Y-73048885D02*
X209403006Y-73120314D01*
X209403006Y-73120314D02*
X209260149Y-73191742D01*
X209260149Y-73191742D02*
X208688720Y-73191742D01*
X210045863Y-72406028D02*
X210403006Y-73906028D01*
X210403006Y-73906028D02*
X210688720Y-72834600D01*
X210688720Y-72834600D02*
X210974435Y-73906028D01*
X210974435Y-73906028D02*
X211331578Y-72406028D01*
X212760149Y-73906028D02*
X212260149Y-73191742D01*
X211903006Y-73906028D02*
X211903006Y-72406028D01*
X211903006Y-72406028D02*
X212474435Y-72406028D01*
X212474435Y-72406028D02*
X212617292Y-72477457D01*
X212617292Y-72477457D02*
X212688721Y-72548885D01*
X212688721Y-72548885D02*
X212760149Y-72691742D01*
X212760149Y-72691742D02*
X212760149Y-72906028D01*
X212760149Y-72906028D02*
X212688721Y-73048885D01*
X212688721Y-73048885D02*
X212617292Y-73120314D01*
X212617292Y-73120314D02*
X212474435Y-73191742D01*
X212474435Y-73191742D02*
X211903006Y-73191742D01*
D10*
X201010839Y-61015895D02*
X200534649Y-61015895D01*
X201106077Y-60730180D02*
X200772744Y-61730180D01*
X200772744Y-61730180D02*
X200439411Y-60730180D01*
X205829887Y-61153990D02*
X205687030Y-61106371D01*
X205687030Y-61106371D02*
X205639411Y-61058752D01*
X205639411Y-61058752D02*
X205591792Y-60963514D01*
X205591792Y-60963514D02*
X205591792Y-60820657D01*
X205591792Y-60820657D02*
X205639411Y-60725419D01*
X205639411Y-60725419D02*
X205687030Y-60677800D01*
X205687030Y-60677800D02*
X205782268Y-60630180D01*
X205782268Y-60630180D02*
X206163220Y-60630180D01*
X206163220Y-60630180D02*
X206163220Y-61630180D01*
X206163220Y-61630180D02*
X205829887Y-61630180D01*
X205829887Y-61630180D02*
X205734649Y-61582561D01*
X205734649Y-61582561D02*
X205687030Y-61534942D01*
X205687030Y-61534942D02*
X205639411Y-61439704D01*
X205639411Y-61439704D02*
X205639411Y-61344466D01*
X205639411Y-61344466D02*
X205687030Y-61249228D01*
X205687030Y-61249228D02*
X205734649Y-61201609D01*
X205734649Y-61201609D02*
X205829887Y-61153990D01*
X205829887Y-61153990D02*
X206163220Y-61153990D01*
X181115895Y-72989160D02*
X181115895Y-73465350D01*
X180830180Y-72893922D02*
X181830180Y-73227255D01*
X181830180Y-73227255D02*
X180830180Y-73560588D01*
X181477085Y-96705826D02*
X181405657Y-96920112D01*
X181405657Y-96920112D02*
X181334228Y-96991541D01*
X181334228Y-96991541D02*
X181191371Y-97062969D01*
X181191371Y-97062969D02*
X180977085Y-97062969D01*
X180977085Y-97062969D02*
X180834228Y-96991541D01*
X180834228Y-96991541D02*
X180762800Y-96920112D01*
X180762800Y-96920112D02*
X180691371Y-96777255D01*
X180691371Y-96777255D02*
X180691371Y-96205826D01*
X180691371Y-96205826D02*
X182191371Y-96205826D01*
X182191371Y-96205826D02*
X182191371Y-96705826D01*
X182191371Y-96705826D02*
X182119942Y-96848684D01*
X182119942Y-96848684D02*
X182048514Y-96920112D01*
X182048514Y-96920112D02*
X181905657Y-96991541D01*
X181905657Y-96991541D02*
X181762800Y-96991541D01*
X181762800Y-96991541D02*
X181619942Y-96920112D01*
X181619942Y-96920112D02*
X181548514Y-96848684D01*
X181548514Y-96848684D02*
X181477085Y-96705826D01*
X181477085Y-96705826D02*
X181477085Y-96205826D01*
D11*
X215323255Y-83514286D02*
X215394684Y-83585714D01*
X215394684Y-83585714D02*
X215466112Y-83800000D01*
X215466112Y-83800000D02*
X215466112Y-83942857D01*
X215466112Y-83942857D02*
X215394684Y-84157143D01*
X215394684Y-84157143D02*
X215251826Y-84300000D01*
X215251826Y-84300000D02*
X215108969Y-84371429D01*
X215108969Y-84371429D02*
X214823255Y-84442857D01*
X214823255Y-84442857D02*
X214608969Y-84442857D01*
X214608969Y-84442857D02*
X214323255Y-84371429D01*
X214323255Y-84371429D02*
X214180398Y-84300000D01*
X214180398Y-84300000D02*
X214037541Y-84157143D01*
X214037541Y-84157143D02*
X213966112Y-83942857D01*
X213966112Y-83942857D02*
X213966112Y-83800000D01*
X213966112Y-83800000D02*
X214037541Y-83585714D01*
X214037541Y-83585714D02*
X214108969Y-83514286D01*
X215037541Y-82942857D02*
X215037541Y-82228572D01*
X215466112Y-83085714D02*
X213966112Y-82585714D01*
X213966112Y-82585714D02*
X215466112Y-82085714D01*
X213966112Y-81585715D02*
X215180398Y-81585715D01*
X215180398Y-81585715D02*
X215323255Y-81514286D01*
X215323255Y-81514286D02*
X215394684Y-81442858D01*
X215394684Y-81442858D02*
X215466112Y-81300000D01*
X215466112Y-81300000D02*
X215466112Y-81014286D01*
X215466112Y-81014286D02*
X215394684Y-80871429D01*
X215394684Y-80871429D02*
X215323255Y-80800000D01*
X215323255Y-80800000D02*
X215180398Y-80728572D01*
X215180398Y-80728572D02*
X213966112Y-80728572D01*
X213966112Y-80228571D02*
X213966112Y-79371429D01*
X215466112Y-79800000D02*
X213966112Y-79800000D01*
X215466112Y-78871429D02*
X213966112Y-78871429D01*
X213966112Y-77871428D02*
X213966112Y-77585714D01*
X213966112Y-77585714D02*
X214037541Y-77442857D01*
X214037541Y-77442857D02*
X214180398Y-77300000D01*
X214180398Y-77300000D02*
X214466112Y-77228571D01*
X214466112Y-77228571D02*
X214966112Y-77228571D01*
X214966112Y-77228571D02*
X215251826Y-77300000D01*
X215251826Y-77300000D02*
X215394684Y-77442857D01*
X215394684Y-77442857D02*
X215466112Y-77585714D01*
X215466112Y-77585714D02*
X215466112Y-77871428D01*
X215466112Y-77871428D02*
X215394684Y-78014286D01*
X215394684Y-78014286D02*
X215251826Y-78157143D01*
X215251826Y-78157143D02*
X214966112Y-78228571D01*
X214966112Y-78228571D02*
X214466112Y-78228571D01*
X214466112Y-78228571D02*
X214180398Y-78157143D01*
X214180398Y-78157143D02*
X214037541Y-78014286D01*
X214037541Y-78014286D02*
X213966112Y-77871428D01*
X215466112Y-76585714D02*
X213966112Y-76585714D01*
X213966112Y-76585714D02*
X215466112Y-75728571D01*
X215466112Y-75728571D02*
X213966112Y-75728571D01*
X216523885Y-84514284D02*
X216452457Y-84442856D01*
X216452457Y-84442856D02*
X216381028Y-84299999D01*
X216381028Y-84299999D02*
X216381028Y-83942856D01*
X216381028Y-83942856D02*
X216452457Y-83799999D01*
X216452457Y-83799999D02*
X216523885Y-83728570D01*
X216523885Y-83728570D02*
X216666742Y-83657141D01*
X216666742Y-83657141D02*
X216809600Y-83657141D01*
X216809600Y-83657141D02*
X217023885Y-83728570D01*
X217023885Y-83728570D02*
X217881028Y-84585713D01*
X217881028Y-84585713D02*
X217881028Y-83657141D01*
X216381028Y-82299999D02*
X216381028Y-83014285D01*
X216381028Y-83014285D02*
X217095314Y-83085713D01*
X217095314Y-83085713D02*
X217023885Y-83014285D01*
X217023885Y-83014285D02*
X216952457Y-82871428D01*
X216952457Y-82871428D02*
X216952457Y-82514285D01*
X216952457Y-82514285D02*
X217023885Y-82371428D01*
X217023885Y-82371428D02*
X217095314Y-82299999D01*
X217095314Y-82299999D02*
X217238171Y-82228570D01*
X217238171Y-82228570D02*
X217595314Y-82228570D01*
X217595314Y-82228570D02*
X217738171Y-82299999D01*
X217738171Y-82299999D02*
X217809600Y-82371428D01*
X217809600Y-82371428D02*
X217881028Y-82514285D01*
X217881028Y-82514285D02*
X217881028Y-82871428D01*
X217881028Y-82871428D02*
X217809600Y-83014285D01*
X217809600Y-83014285D02*
X217738171Y-83085713D01*
X216381028Y-81299999D02*
X216381028Y-81157142D01*
X216381028Y-81157142D02*
X216452457Y-81014285D01*
X216452457Y-81014285D02*
X216523885Y-80942857D01*
X216523885Y-80942857D02*
X216666742Y-80871428D01*
X216666742Y-80871428D02*
X216952457Y-80799999D01*
X216952457Y-80799999D02*
X217309600Y-80799999D01*
X217309600Y-80799999D02*
X217595314Y-80871428D01*
X217595314Y-80871428D02*
X217738171Y-80942857D01*
X217738171Y-80942857D02*
X217809600Y-81014285D01*
X217809600Y-81014285D02*
X217881028Y-81157142D01*
X217881028Y-81157142D02*
X217881028Y-81299999D01*
X217881028Y-81299999D02*
X217809600Y-81442857D01*
X217809600Y-81442857D02*
X217738171Y-81514285D01*
X217738171Y-81514285D02*
X217595314Y-81585714D01*
X217595314Y-81585714D02*
X217309600Y-81657142D01*
X217309600Y-81657142D02*
X216952457Y-81657142D01*
X216952457Y-81657142D02*
X216666742Y-81585714D01*
X216666742Y-81585714D02*
X216523885Y-81514285D01*
X216523885Y-81514285D02*
X216452457Y-81442857D01*
X216452457Y-81442857D02*
X216381028Y-81299999D01*
X216381028Y-80371428D02*
X217881028Y-79871428D01*
X217881028Y-79871428D02*
X216381028Y-79371428D01*
X217452457Y-77800000D02*
X217452457Y-77085715D01*
X217881028Y-77942857D02*
X216381028Y-77442857D01*
X216381028Y-77442857D02*
X217881028Y-76942857D01*
X217738171Y-75585715D02*
X217809600Y-75657143D01*
X217809600Y-75657143D02*
X217881028Y-75871429D01*
X217881028Y-75871429D02*
X217881028Y-76014286D01*
X217881028Y-76014286D02*
X217809600Y-76228572D01*
X217809600Y-76228572D02*
X217666742Y-76371429D01*
X217666742Y-76371429D02*
X217523885Y-76442858D01*
X217523885Y-76442858D02*
X217238171Y-76514286D01*
X217238171Y-76514286D02*
X217023885Y-76514286D01*
X217023885Y-76514286D02*
X216738171Y-76442858D01*
X216738171Y-76442858D02*
X216595314Y-76371429D01*
X216595314Y-76371429D02*
X216452457Y-76228572D01*
X216452457Y-76228572D02*
X216381028Y-76014286D01*
X216381028Y-76014286D02*
X216381028Y-75871429D01*
X216381028Y-75871429D02*
X216452457Y-75657143D01*
X216452457Y-75657143D02*
X216523885Y-75585715D01*
D10*
X224849931Y-94628572D02*
X223849931Y-94628572D01*
X223849931Y-94628572D02*
X224564216Y-94295239D01*
X224564216Y-94295239D02*
X223849931Y-93961906D01*
X223849931Y-93961906D02*
X224849931Y-93961906D01*
X224849931Y-93342858D02*
X224802312Y-93438096D01*
X224802312Y-93438096D02*
X224754692Y-93485715D01*
X224754692Y-93485715D02*
X224659454Y-93533334D01*
X224659454Y-93533334D02*
X224373740Y-93533334D01*
X224373740Y-93533334D02*
X224278502Y-93485715D01*
X224278502Y-93485715D02*
X224230883Y-93438096D01*
X224230883Y-93438096D02*
X224183264Y-93342858D01*
X224183264Y-93342858D02*
X224183264Y-93200001D01*
X224183264Y-93200001D02*
X224230883Y-93104763D01*
X224230883Y-93104763D02*
X224278502Y-93057144D01*
X224278502Y-93057144D02*
X224373740Y-93009525D01*
X224373740Y-93009525D02*
X224659454Y-93009525D01*
X224659454Y-93009525D02*
X224754692Y-93057144D01*
X224754692Y-93057144D02*
X224802312Y-93104763D01*
X224802312Y-93104763D02*
X224849931Y-93200001D01*
X224849931Y-93200001D02*
X224849931Y-93342858D01*
X224183264Y-92723810D02*
X224183264Y-92342858D01*
X223849931Y-92580953D02*
X224707073Y-92580953D01*
X224707073Y-92580953D02*
X224802312Y-92533334D01*
X224802312Y-92533334D02*
X224849931Y-92438096D01*
X224849931Y-92438096D02*
X224849931Y-92342858D01*
X224849931Y-91866667D02*
X224802312Y-91961905D01*
X224802312Y-91961905D02*
X224754692Y-92009524D01*
X224754692Y-92009524D02*
X224659454Y-92057143D01*
X224659454Y-92057143D02*
X224373740Y-92057143D01*
X224373740Y-92057143D02*
X224278502Y-92009524D01*
X224278502Y-92009524D02*
X224230883Y-91961905D01*
X224230883Y-91961905D02*
X224183264Y-91866667D01*
X224183264Y-91866667D02*
X224183264Y-91723810D01*
X224183264Y-91723810D02*
X224230883Y-91628572D01*
X224230883Y-91628572D02*
X224278502Y-91580953D01*
X224278502Y-91580953D02*
X224373740Y-91533334D01*
X224373740Y-91533334D02*
X224659454Y-91533334D01*
X224659454Y-91533334D02*
X224754692Y-91580953D01*
X224754692Y-91580953D02*
X224802312Y-91628572D01*
X224802312Y-91628572D02*
X224849931Y-91723810D01*
X224849931Y-91723810D02*
X224849931Y-91866667D01*
X224849931Y-91104762D02*
X224183264Y-91104762D01*
X224373740Y-91104762D02*
X224278502Y-91057143D01*
X224278502Y-91057143D02*
X224230883Y-91009524D01*
X224230883Y-91009524D02*
X224183264Y-90914286D01*
X224183264Y-90914286D02*
X224183264Y-90819048D01*
X223849931Y-89438095D02*
X224564216Y-89438095D01*
X224564216Y-89438095D02*
X224707073Y-89485714D01*
X224707073Y-89485714D02*
X224802312Y-89580952D01*
X224802312Y-89580952D02*
X224849931Y-89723809D01*
X224849931Y-89723809D02*
X224849931Y-89819047D01*
X224849931Y-88819047D02*
X224802312Y-88914285D01*
X224802312Y-88914285D02*
X224754692Y-88961904D01*
X224754692Y-88961904D02*
X224659454Y-89009523D01*
X224659454Y-89009523D02*
X224373740Y-89009523D01*
X224373740Y-89009523D02*
X224278502Y-88961904D01*
X224278502Y-88961904D02*
X224230883Y-88914285D01*
X224230883Y-88914285D02*
X224183264Y-88819047D01*
X224183264Y-88819047D02*
X224183264Y-88676190D01*
X224183264Y-88676190D02*
X224230883Y-88580952D01*
X224230883Y-88580952D02*
X224278502Y-88533333D01*
X224278502Y-88533333D02*
X224373740Y-88485714D01*
X224373740Y-88485714D02*
X224659454Y-88485714D01*
X224659454Y-88485714D02*
X224754692Y-88533333D01*
X224754692Y-88533333D02*
X224802312Y-88580952D01*
X224802312Y-88580952D02*
X224849931Y-88676190D01*
X224849931Y-88676190D02*
X224849931Y-88819047D01*
X224849931Y-88057142D02*
X224183264Y-88057142D01*
X223849931Y-88057142D02*
X223897550Y-88104761D01*
X223897550Y-88104761D02*
X223945169Y-88057142D01*
X223945169Y-88057142D02*
X223897550Y-88009523D01*
X223897550Y-88009523D02*
X223849931Y-88057142D01*
X223849931Y-88057142D02*
X223945169Y-88057142D01*
X224183264Y-87580952D02*
X224849931Y-87580952D01*
X224278502Y-87580952D02*
X224230883Y-87533333D01*
X224230883Y-87533333D02*
X224183264Y-87438095D01*
X224183264Y-87438095D02*
X224183264Y-87295238D01*
X224183264Y-87295238D02*
X224230883Y-87200000D01*
X224230883Y-87200000D02*
X224326121Y-87152381D01*
X224326121Y-87152381D02*
X224849931Y-87152381D01*
X224183264Y-86819047D02*
X224183264Y-86438095D01*
X223849931Y-86676190D02*
X224707073Y-86676190D01*
X224707073Y-86676190D02*
X224802312Y-86628571D01*
X224802312Y-86628571D02*
X224849931Y-86533333D01*
X224849931Y-86533333D02*
X224849931Y-86438095D01*
X224802312Y-85390475D02*
X224849931Y-85247618D01*
X224849931Y-85247618D02*
X224849931Y-85009523D01*
X224849931Y-85009523D02*
X224802312Y-84914285D01*
X224802312Y-84914285D02*
X224754692Y-84866666D01*
X224754692Y-84866666D02*
X224659454Y-84819047D01*
X224659454Y-84819047D02*
X224564216Y-84819047D01*
X224564216Y-84819047D02*
X224468978Y-84866666D01*
X224468978Y-84866666D02*
X224421359Y-84914285D01*
X224421359Y-84914285D02*
X224373740Y-85009523D01*
X224373740Y-85009523D02*
X224326121Y-85199999D01*
X224326121Y-85199999D02*
X224278502Y-85295237D01*
X224278502Y-85295237D02*
X224230883Y-85342856D01*
X224230883Y-85342856D02*
X224135645Y-85390475D01*
X224135645Y-85390475D02*
X224040407Y-85390475D01*
X224040407Y-85390475D02*
X223945169Y-85342856D01*
X223945169Y-85342856D02*
X223897550Y-85295237D01*
X223897550Y-85295237D02*
X223849931Y-85199999D01*
X223849931Y-85199999D02*
X223849931Y-84961904D01*
X223849931Y-84961904D02*
X223897550Y-84819047D01*
X224183264Y-84390475D02*
X225183264Y-84390475D01*
X224230883Y-84390475D02*
X224183264Y-84295237D01*
X224183264Y-84295237D02*
X224183264Y-84104761D01*
X224183264Y-84104761D02*
X224230883Y-84009523D01*
X224230883Y-84009523D02*
X224278502Y-83961904D01*
X224278502Y-83961904D02*
X224373740Y-83914285D01*
X224373740Y-83914285D02*
X224659454Y-83914285D01*
X224659454Y-83914285D02*
X224754692Y-83961904D01*
X224754692Y-83961904D02*
X224802312Y-84009523D01*
X224802312Y-84009523D02*
X224849931Y-84104761D01*
X224849931Y-84104761D02*
X224849931Y-84295237D01*
X224849931Y-84295237D02*
X224802312Y-84390475D01*
X224849931Y-83342856D02*
X224802312Y-83438094D01*
X224802312Y-83438094D02*
X224707073Y-83485713D01*
X224707073Y-83485713D02*
X223849931Y-83485713D01*
X224849931Y-82961903D02*
X224183264Y-82961903D01*
X223849931Y-82961903D02*
X223897550Y-83009522D01*
X223897550Y-83009522D02*
X223945169Y-82961903D01*
X223945169Y-82961903D02*
X223897550Y-82914284D01*
X223897550Y-82914284D02*
X223849931Y-82961903D01*
X223849931Y-82961903D02*
X223945169Y-82961903D01*
X224183264Y-82628570D02*
X224183264Y-82247618D01*
X223849931Y-82485713D02*
X224707073Y-82485713D01*
X224707073Y-82485713D02*
X224802312Y-82438094D01*
X224802312Y-82438094D02*
X224849931Y-82342856D01*
X224849931Y-82342856D02*
X224849931Y-82247618D01*
X224183264Y-82057141D02*
X224183264Y-81676189D01*
X223849931Y-81914284D02*
X224707073Y-81914284D01*
X224707073Y-81914284D02*
X224802312Y-81866665D01*
X224802312Y-81866665D02*
X224849931Y-81771427D01*
X224849931Y-81771427D02*
X224849931Y-81676189D01*
X224802312Y-80961903D02*
X224849931Y-81057141D01*
X224849931Y-81057141D02*
X224849931Y-81247617D01*
X224849931Y-81247617D02*
X224802312Y-81342855D01*
X224802312Y-81342855D02*
X224707073Y-81390474D01*
X224707073Y-81390474D02*
X224326121Y-81390474D01*
X224326121Y-81390474D02*
X224230883Y-81342855D01*
X224230883Y-81342855D02*
X224183264Y-81247617D01*
X224183264Y-81247617D02*
X224183264Y-81057141D01*
X224183264Y-81057141D02*
X224230883Y-80961903D01*
X224230883Y-80961903D02*
X224326121Y-80914284D01*
X224326121Y-80914284D02*
X224421359Y-80914284D01*
X224421359Y-80914284D02*
X224516597Y-81390474D01*
X224849931Y-80485712D02*
X224183264Y-80485712D01*
X224373740Y-80485712D02*
X224278502Y-80438093D01*
X224278502Y-80438093D02*
X224230883Y-80390474D01*
X224230883Y-80390474D02*
X224183264Y-80295236D01*
X224183264Y-80295236D02*
X224183264Y-80199998D01*
X223849931Y-79247616D02*
X224849931Y-78914283D01*
X224849931Y-78914283D02*
X223849931Y-78580950D01*
X223849931Y-78342854D02*
X223849931Y-77723807D01*
X223849931Y-77723807D02*
X224230883Y-78057140D01*
X224230883Y-78057140D02*
X224230883Y-77914283D01*
X224230883Y-77914283D02*
X224278502Y-77819045D01*
X224278502Y-77819045D02*
X224326121Y-77771426D01*
X224326121Y-77771426D02*
X224421359Y-77723807D01*
X224421359Y-77723807D02*
X224659454Y-77723807D01*
X224659454Y-77723807D02*
X224754692Y-77771426D01*
X224754692Y-77771426D02*
X224802312Y-77819045D01*
X224802312Y-77819045D02*
X224849931Y-77914283D01*
X224849931Y-77914283D02*
X224849931Y-78199997D01*
X224849931Y-78199997D02*
X224802312Y-78295235D01*
X224802312Y-78295235D02*
X224754692Y-78342854D01*
X225936065Y-96390476D02*
X225983684Y-96247619D01*
X225983684Y-96247619D02*
X226031303Y-96200000D01*
X226031303Y-96200000D02*
X226126541Y-96152381D01*
X226126541Y-96152381D02*
X226269398Y-96152381D01*
X226269398Y-96152381D02*
X226364636Y-96200000D01*
X226364636Y-96200000D02*
X226412256Y-96247619D01*
X226412256Y-96247619D02*
X226459875Y-96342857D01*
X226459875Y-96342857D02*
X226459875Y-96723809D01*
X226459875Y-96723809D02*
X225459875Y-96723809D01*
X225459875Y-96723809D02*
X225459875Y-96390476D01*
X225459875Y-96390476D02*
X225507494Y-96295238D01*
X225507494Y-96295238D02*
X225555113Y-96247619D01*
X225555113Y-96247619D02*
X225650351Y-96200000D01*
X225650351Y-96200000D02*
X225745589Y-96200000D01*
X225745589Y-96200000D02*
X225840827Y-96247619D01*
X225840827Y-96247619D02*
X225888446Y-96295238D01*
X225888446Y-96295238D02*
X225936065Y-96390476D01*
X225936065Y-96390476D02*
X225936065Y-96723809D01*
X226459875Y-95723809D02*
X225793208Y-95723809D01*
X225459875Y-95723809D02*
X225507494Y-95771428D01*
X225507494Y-95771428D02*
X225555113Y-95723809D01*
X225555113Y-95723809D02*
X225507494Y-95676190D01*
X225507494Y-95676190D02*
X225459875Y-95723809D01*
X225459875Y-95723809D02*
X225555113Y-95723809D01*
X226459875Y-95104762D02*
X226412256Y-95200000D01*
X226412256Y-95200000D02*
X226364636Y-95247619D01*
X226364636Y-95247619D02*
X226269398Y-95295238D01*
X226269398Y-95295238D02*
X225983684Y-95295238D01*
X225983684Y-95295238D02*
X225888446Y-95247619D01*
X225888446Y-95247619D02*
X225840827Y-95200000D01*
X225840827Y-95200000D02*
X225793208Y-95104762D01*
X225793208Y-95104762D02*
X225793208Y-94961905D01*
X225793208Y-94961905D02*
X225840827Y-94866667D01*
X225840827Y-94866667D02*
X225888446Y-94819048D01*
X225888446Y-94819048D02*
X225983684Y-94771429D01*
X225983684Y-94771429D02*
X226269398Y-94771429D01*
X226269398Y-94771429D02*
X226364636Y-94819048D01*
X226364636Y-94819048D02*
X226412256Y-94866667D01*
X226412256Y-94866667D02*
X226459875Y-94961905D01*
X226459875Y-94961905D02*
X226459875Y-95104762D01*
X226459875Y-94342857D02*
X225793208Y-94342857D01*
X225888446Y-94342857D02*
X225840827Y-94295238D01*
X225840827Y-94295238D02*
X225793208Y-94200000D01*
X225793208Y-94200000D02*
X225793208Y-94057143D01*
X225793208Y-94057143D02*
X225840827Y-93961905D01*
X225840827Y-93961905D02*
X225936065Y-93914286D01*
X225936065Y-93914286D02*
X226459875Y-93914286D01*
X225936065Y-93914286D02*
X225840827Y-93866667D01*
X225840827Y-93866667D02*
X225793208Y-93771429D01*
X225793208Y-93771429D02*
X225793208Y-93628572D01*
X225793208Y-93628572D02*
X225840827Y-93533333D01*
X225840827Y-93533333D02*
X225936065Y-93485714D01*
X225936065Y-93485714D02*
X226459875Y-93485714D01*
X226459875Y-93009524D02*
X225793208Y-93009524D01*
X225459875Y-93009524D02*
X225507494Y-93057143D01*
X225507494Y-93057143D02*
X225555113Y-93009524D01*
X225555113Y-93009524D02*
X225507494Y-92961905D01*
X225507494Y-92961905D02*
X225459875Y-93009524D01*
X225459875Y-93009524D02*
X225555113Y-93009524D01*
X226459875Y-92533334D02*
X225793208Y-92533334D01*
X225888446Y-92533334D02*
X225840827Y-92485715D01*
X225840827Y-92485715D02*
X225793208Y-92390477D01*
X225793208Y-92390477D02*
X225793208Y-92247620D01*
X225793208Y-92247620D02*
X225840827Y-92152382D01*
X225840827Y-92152382D02*
X225936065Y-92104763D01*
X225936065Y-92104763D02*
X226459875Y-92104763D01*
X225936065Y-92104763D02*
X225840827Y-92057144D01*
X225840827Y-92057144D02*
X225793208Y-91961906D01*
X225793208Y-91961906D02*
X225793208Y-91819049D01*
X225793208Y-91819049D02*
X225840827Y-91723810D01*
X225840827Y-91723810D02*
X225936065Y-91676191D01*
X225936065Y-91676191D02*
X226459875Y-91676191D01*
X226412256Y-90819049D02*
X226459875Y-90914287D01*
X226459875Y-90914287D02*
X226459875Y-91104763D01*
X226459875Y-91104763D02*
X226412256Y-91200001D01*
X226412256Y-91200001D02*
X226317017Y-91247620D01*
X226317017Y-91247620D02*
X225936065Y-91247620D01*
X225936065Y-91247620D02*
X225840827Y-91200001D01*
X225840827Y-91200001D02*
X225793208Y-91104763D01*
X225793208Y-91104763D02*
X225793208Y-90914287D01*
X225793208Y-90914287D02*
X225840827Y-90819049D01*
X225840827Y-90819049D02*
X225936065Y-90771430D01*
X225936065Y-90771430D02*
X226031303Y-90771430D01*
X226031303Y-90771430D02*
X226126541Y-91247620D01*
X225793208Y-90485715D02*
X225793208Y-90104763D01*
X225459875Y-90342858D02*
X226317017Y-90342858D01*
X226317017Y-90342858D02*
X226412256Y-90295239D01*
X226412256Y-90295239D02*
X226459875Y-90200001D01*
X226459875Y-90200001D02*
X226459875Y-90104763D01*
X226459875Y-89771429D02*
X225793208Y-89771429D01*
X225459875Y-89771429D02*
X225507494Y-89819048D01*
X225507494Y-89819048D02*
X225555113Y-89771429D01*
X225555113Y-89771429D02*
X225507494Y-89723810D01*
X225507494Y-89723810D02*
X225459875Y-89771429D01*
X225459875Y-89771429D02*
X225555113Y-89771429D01*
X226412256Y-88866668D02*
X226459875Y-88961906D01*
X226459875Y-88961906D02*
X226459875Y-89152382D01*
X226459875Y-89152382D02*
X226412256Y-89247620D01*
X226412256Y-89247620D02*
X226364636Y-89295239D01*
X226364636Y-89295239D02*
X226269398Y-89342858D01*
X226269398Y-89342858D02*
X225983684Y-89342858D01*
X225983684Y-89342858D02*
X225888446Y-89295239D01*
X225888446Y-89295239D02*
X225840827Y-89247620D01*
X225840827Y-89247620D02*
X225793208Y-89152382D01*
X225793208Y-89152382D02*
X225793208Y-88961906D01*
X225793208Y-88961906D02*
X225840827Y-88866668D01*
X226459875Y-87676191D02*
X225459875Y-87676191D01*
X225459875Y-87676191D02*
X226174160Y-87342858D01*
X226174160Y-87342858D02*
X225459875Y-87009525D01*
X225459875Y-87009525D02*
X226459875Y-87009525D01*
X226459875Y-86533334D02*
X225793208Y-86533334D01*
X225459875Y-86533334D02*
X225507494Y-86580953D01*
X225507494Y-86580953D02*
X225555113Y-86533334D01*
X225555113Y-86533334D02*
X225507494Y-86485715D01*
X225507494Y-86485715D02*
X225459875Y-86533334D01*
X225459875Y-86533334D02*
X225555113Y-86533334D01*
X226459875Y-85914287D02*
X226412256Y-86009525D01*
X226412256Y-86009525D02*
X226317017Y-86057144D01*
X226317017Y-86057144D02*
X225459875Y-86057144D01*
X226459875Y-85390477D02*
X226412256Y-85485715D01*
X226412256Y-85485715D02*
X226317017Y-85533334D01*
X226317017Y-85533334D02*
X225459875Y-85533334D01*
X226459875Y-85009524D02*
X225793208Y-85009524D01*
X225459875Y-85009524D02*
X225507494Y-85057143D01*
X225507494Y-85057143D02*
X225555113Y-85009524D01*
X225555113Y-85009524D02*
X225507494Y-84961905D01*
X225507494Y-84961905D02*
X225459875Y-85009524D01*
X225459875Y-85009524D02*
X225555113Y-85009524D01*
X226412256Y-84580953D02*
X226459875Y-84485715D01*
X226459875Y-84485715D02*
X226459875Y-84295239D01*
X226459875Y-84295239D02*
X226412256Y-84200001D01*
X226412256Y-84200001D02*
X226317017Y-84152382D01*
X226317017Y-84152382D02*
X226269398Y-84152382D01*
X226269398Y-84152382D02*
X226174160Y-84200001D01*
X226174160Y-84200001D02*
X226126541Y-84295239D01*
X226126541Y-84295239D02*
X226126541Y-84438096D01*
X226126541Y-84438096D02*
X226078922Y-84533334D01*
X226078922Y-84533334D02*
X225983684Y-84580953D01*
X225983684Y-84580953D02*
X225936065Y-84580953D01*
X225936065Y-84580953D02*
X225840827Y-84533334D01*
X225840827Y-84533334D02*
X225793208Y-84438096D01*
X225793208Y-84438096D02*
X225793208Y-84295239D01*
X225793208Y-84295239D02*
X225840827Y-84200001D01*
X225793208Y-83819048D02*
X226459875Y-83580953D01*
X225793208Y-83342858D02*
X226459875Y-83580953D01*
X226459875Y-83580953D02*
X226697970Y-83676191D01*
X226697970Y-83676191D02*
X226745589Y-83723810D01*
X226745589Y-83723810D02*
X226793208Y-83819048D01*
X226412256Y-83009524D02*
X226459875Y-82914286D01*
X226459875Y-82914286D02*
X226459875Y-82723810D01*
X226459875Y-82723810D02*
X226412256Y-82628572D01*
X226412256Y-82628572D02*
X226317017Y-82580953D01*
X226317017Y-82580953D02*
X226269398Y-82580953D01*
X226269398Y-82580953D02*
X226174160Y-82628572D01*
X226174160Y-82628572D02*
X226126541Y-82723810D01*
X226126541Y-82723810D02*
X226126541Y-82866667D01*
X226126541Y-82866667D02*
X226078922Y-82961905D01*
X226078922Y-82961905D02*
X225983684Y-83009524D01*
X225983684Y-83009524D02*
X225936065Y-83009524D01*
X225936065Y-83009524D02*
X225840827Y-82961905D01*
X225840827Y-82961905D02*
X225793208Y-82866667D01*
X225793208Y-82866667D02*
X225793208Y-82723810D01*
X225793208Y-82723810D02*
X225840827Y-82628572D01*
X225793208Y-82295238D02*
X225793208Y-81914286D01*
X225459875Y-82152381D02*
X226317017Y-82152381D01*
X226317017Y-82152381D02*
X226412256Y-82104762D01*
X226412256Y-82104762D02*
X226459875Y-82009524D01*
X226459875Y-82009524D02*
X226459875Y-81914286D01*
X226412256Y-81200000D02*
X226459875Y-81295238D01*
X226459875Y-81295238D02*
X226459875Y-81485714D01*
X226459875Y-81485714D02*
X226412256Y-81580952D01*
X226412256Y-81580952D02*
X226317017Y-81628571D01*
X226317017Y-81628571D02*
X225936065Y-81628571D01*
X225936065Y-81628571D02*
X225840827Y-81580952D01*
X225840827Y-81580952D02*
X225793208Y-81485714D01*
X225793208Y-81485714D02*
X225793208Y-81295238D01*
X225793208Y-81295238D02*
X225840827Y-81200000D01*
X225840827Y-81200000D02*
X225936065Y-81152381D01*
X225936065Y-81152381D02*
X226031303Y-81152381D01*
X226031303Y-81152381D02*
X226126541Y-81628571D01*
X226459875Y-80723809D02*
X225793208Y-80723809D01*
X225888446Y-80723809D02*
X225840827Y-80676190D01*
X225840827Y-80676190D02*
X225793208Y-80580952D01*
X225793208Y-80580952D02*
X225793208Y-80438095D01*
X225793208Y-80438095D02*
X225840827Y-80342857D01*
X225840827Y-80342857D02*
X225936065Y-80295238D01*
X225936065Y-80295238D02*
X226459875Y-80295238D01*
X225936065Y-80295238D02*
X225840827Y-80247619D01*
X225840827Y-80247619D02*
X225793208Y-80152381D01*
X225793208Y-80152381D02*
X225793208Y-80009524D01*
X225793208Y-80009524D02*
X225840827Y-79914285D01*
X225840827Y-79914285D02*
X225936065Y-79866666D01*
X225936065Y-79866666D02*
X226459875Y-79866666D01*
X226412256Y-79438095D02*
X226459875Y-79342857D01*
X226459875Y-79342857D02*
X226459875Y-79152381D01*
X226459875Y-79152381D02*
X226412256Y-79057143D01*
X226412256Y-79057143D02*
X226317017Y-79009524D01*
X226317017Y-79009524D02*
X226269398Y-79009524D01*
X226269398Y-79009524D02*
X226174160Y-79057143D01*
X226174160Y-79057143D02*
X226126541Y-79152381D01*
X226126541Y-79152381D02*
X226126541Y-79295238D01*
X226126541Y-79295238D02*
X226078922Y-79390476D01*
X226078922Y-79390476D02*
X225983684Y-79438095D01*
X225983684Y-79438095D02*
X225936065Y-79438095D01*
X225936065Y-79438095D02*
X225840827Y-79390476D01*
X225840827Y-79390476D02*
X225793208Y-79295238D01*
X225793208Y-79295238D02*
X225793208Y-79152381D01*
X225793208Y-79152381D02*
X225840827Y-79057143D01*
X226459875Y-77342857D02*
X226459875Y-77819047D01*
X226459875Y-77819047D02*
X225459875Y-77819047D01*
X226459875Y-76580952D02*
X225936065Y-76580952D01*
X225936065Y-76580952D02*
X225840827Y-76628571D01*
X225840827Y-76628571D02*
X225793208Y-76723809D01*
X225793208Y-76723809D02*
X225793208Y-76914285D01*
X225793208Y-76914285D02*
X225840827Y-77009523D01*
X226412256Y-76580952D02*
X226459875Y-76676190D01*
X226459875Y-76676190D02*
X226459875Y-76914285D01*
X226459875Y-76914285D02*
X226412256Y-77009523D01*
X226412256Y-77009523D02*
X226317017Y-77057142D01*
X226317017Y-77057142D02*
X226221779Y-77057142D01*
X226221779Y-77057142D02*
X226126541Y-77009523D01*
X226126541Y-77009523D02*
X226078922Y-76914285D01*
X226078922Y-76914285D02*
X226078922Y-76676190D01*
X226078922Y-76676190D02*
X226031303Y-76580952D01*
X226459875Y-76104761D02*
X225459875Y-76104761D01*
X225840827Y-76104761D02*
X225793208Y-76009523D01*
X225793208Y-76009523D02*
X225793208Y-75819047D01*
X225793208Y-75819047D02*
X225840827Y-75723809D01*
X225840827Y-75723809D02*
X225888446Y-75676190D01*
X225888446Y-75676190D02*
X225983684Y-75628571D01*
X225983684Y-75628571D02*
X226269398Y-75628571D01*
X226269398Y-75628571D02*
X226364636Y-75676190D01*
X226364636Y-75676190D02*
X226412256Y-75723809D01*
X226412256Y-75723809D02*
X226459875Y-75819047D01*
X226459875Y-75819047D02*
X226459875Y-76009523D01*
X226459875Y-76009523D02*
X226412256Y-76104761D01*
X227069819Y-93390476D02*
X227784104Y-93390476D01*
X227784104Y-93390476D02*
X227926961Y-93438095D01*
X227926961Y-93438095D02*
X228022200Y-93533333D01*
X228022200Y-93533333D02*
X228069819Y-93676190D01*
X228069819Y-93676190D02*
X228069819Y-93771428D01*
X227784104Y-92961904D02*
X227784104Y-92485714D01*
X228069819Y-93057142D02*
X227069819Y-92723809D01*
X227069819Y-92723809D02*
X228069819Y-92390476D01*
X228022200Y-92009523D02*
X228069819Y-92009523D01*
X228069819Y-92009523D02*
X228165057Y-92057142D01*
X228165057Y-92057142D02*
X228212676Y-92104761D01*
X228069819Y-90247619D02*
X227593628Y-90580952D01*
X228069819Y-90819047D02*
X227069819Y-90819047D01*
X227069819Y-90819047D02*
X227069819Y-90438095D01*
X227069819Y-90438095D02*
X227117438Y-90342857D01*
X227117438Y-90342857D02*
X227165057Y-90295238D01*
X227165057Y-90295238D02*
X227260295Y-90247619D01*
X227260295Y-90247619D02*
X227403152Y-90247619D01*
X227403152Y-90247619D02*
X227498390Y-90295238D01*
X227498390Y-90295238D02*
X227546009Y-90342857D01*
X227546009Y-90342857D02*
X227593628Y-90438095D01*
X227593628Y-90438095D02*
X227593628Y-90819047D01*
X227546009Y-89485714D02*
X227546009Y-89819047D01*
X228069819Y-89819047D02*
X227069819Y-89819047D01*
X227069819Y-89819047D02*
X227069819Y-89342857D01*
X227688866Y-88199999D02*
X227688866Y-87438095D01*
X227784104Y-86247618D02*
X227784104Y-85771428D01*
X228069819Y-86342856D02*
X227069819Y-86009523D01*
X227069819Y-86009523D02*
X228069819Y-85676190D01*
X227403152Y-85342856D02*
X228403152Y-85342856D01*
X227450771Y-85342856D02*
X227403152Y-85247618D01*
X227403152Y-85247618D02*
X227403152Y-85057142D01*
X227403152Y-85057142D02*
X227450771Y-84961904D01*
X227450771Y-84961904D02*
X227498390Y-84914285D01*
X227498390Y-84914285D02*
X227593628Y-84866666D01*
X227593628Y-84866666D02*
X227879342Y-84866666D01*
X227879342Y-84866666D02*
X227974580Y-84914285D01*
X227974580Y-84914285D02*
X228022200Y-84961904D01*
X228022200Y-84961904D02*
X228069819Y-85057142D01*
X228069819Y-85057142D02*
X228069819Y-85247618D01*
X228069819Y-85247618D02*
X228022200Y-85342856D01*
X228069819Y-84438094D02*
X227403152Y-84438094D01*
X227593628Y-84438094D02*
X227498390Y-84390475D01*
X227498390Y-84390475D02*
X227450771Y-84342856D01*
X227450771Y-84342856D02*
X227403152Y-84247618D01*
X227403152Y-84247618D02*
X227403152Y-84152380D01*
X228069819Y-83819046D02*
X227403152Y-83819046D01*
X227069819Y-83819046D02*
X227117438Y-83866665D01*
X227117438Y-83866665D02*
X227165057Y-83819046D01*
X227165057Y-83819046D02*
X227117438Y-83771427D01*
X227117438Y-83771427D02*
X227069819Y-83819046D01*
X227069819Y-83819046D02*
X227165057Y-83819046D01*
X228069819Y-83199999D02*
X228022200Y-83295237D01*
X228022200Y-83295237D02*
X227926961Y-83342856D01*
X227926961Y-83342856D02*
X227069819Y-83342856D01*
X227165057Y-82104760D02*
X227117438Y-82057141D01*
X227117438Y-82057141D02*
X227069819Y-81961903D01*
X227069819Y-81961903D02*
X227069819Y-81723808D01*
X227069819Y-81723808D02*
X227117438Y-81628570D01*
X227117438Y-81628570D02*
X227165057Y-81580951D01*
X227165057Y-81580951D02*
X227260295Y-81533332D01*
X227260295Y-81533332D02*
X227355533Y-81533332D01*
X227355533Y-81533332D02*
X227498390Y-81580951D01*
X227498390Y-81580951D02*
X228069819Y-82152379D01*
X228069819Y-82152379D02*
X228069819Y-81533332D01*
X227069819Y-80914284D02*
X227069819Y-80819046D01*
X227069819Y-80819046D02*
X227117438Y-80723808D01*
X227117438Y-80723808D02*
X227165057Y-80676189D01*
X227165057Y-80676189D02*
X227260295Y-80628570D01*
X227260295Y-80628570D02*
X227450771Y-80580951D01*
X227450771Y-80580951D02*
X227688866Y-80580951D01*
X227688866Y-80580951D02*
X227879342Y-80628570D01*
X227879342Y-80628570D02*
X227974580Y-80676189D01*
X227974580Y-80676189D02*
X228022200Y-80723808D01*
X228022200Y-80723808D02*
X228069819Y-80819046D01*
X228069819Y-80819046D02*
X228069819Y-80914284D01*
X228069819Y-80914284D02*
X228022200Y-81009522D01*
X228022200Y-81009522D02*
X227974580Y-81057141D01*
X227974580Y-81057141D02*
X227879342Y-81104760D01*
X227879342Y-81104760D02*
X227688866Y-81152379D01*
X227688866Y-81152379D02*
X227450771Y-81152379D01*
X227450771Y-81152379D02*
X227260295Y-81104760D01*
X227260295Y-81104760D02*
X227165057Y-81057141D01*
X227165057Y-81057141D02*
X227117438Y-81009522D01*
X227117438Y-81009522D02*
X227069819Y-80914284D01*
X227165057Y-80199998D02*
X227117438Y-80152379D01*
X227117438Y-80152379D02*
X227069819Y-80057141D01*
X227069819Y-80057141D02*
X227069819Y-79819046D01*
X227069819Y-79819046D02*
X227117438Y-79723808D01*
X227117438Y-79723808D02*
X227165057Y-79676189D01*
X227165057Y-79676189D02*
X227260295Y-79628570D01*
X227260295Y-79628570D02*
X227355533Y-79628570D01*
X227355533Y-79628570D02*
X227498390Y-79676189D01*
X227498390Y-79676189D02*
X228069819Y-80247617D01*
X228069819Y-80247617D02*
X228069819Y-79628570D01*
X227069819Y-78771427D02*
X227069819Y-78961903D01*
X227069819Y-78961903D02*
X227117438Y-79057141D01*
X227117438Y-79057141D02*
X227165057Y-79104760D01*
X227165057Y-79104760D02*
X227307914Y-79199998D01*
X227307914Y-79199998D02*
X227498390Y-79247617D01*
X227498390Y-79247617D02*
X227879342Y-79247617D01*
X227879342Y-79247617D02*
X227974580Y-79199998D01*
X227974580Y-79199998D02*
X228022200Y-79152379D01*
X228022200Y-79152379D02*
X228069819Y-79057141D01*
X228069819Y-79057141D02*
X228069819Y-78866665D01*
X228069819Y-78866665D02*
X228022200Y-78771427D01*
X228022200Y-78771427D02*
X227974580Y-78723808D01*
X227974580Y-78723808D02*
X227879342Y-78676189D01*
X227879342Y-78676189D02*
X227641247Y-78676189D01*
X227641247Y-78676189D02*
X227546009Y-78723808D01*
X227546009Y-78723808D02*
X227498390Y-78771427D01*
X227498390Y-78771427D02*
X227450771Y-78866665D01*
X227450771Y-78866665D02*
X227450771Y-79057141D01*
X227450771Y-79057141D02*
X227498390Y-79152379D01*
X227498390Y-79152379D02*
X227546009Y-79199998D01*
X227546009Y-79199998D02*
X227641247Y-79247617D01*
X201361905Y-83154819D02*
X201361905Y-82154819D01*
X201361905Y-82154819D02*
X201600000Y-82154819D01*
X201600000Y-82154819D02*
X201742857Y-82202438D01*
X201742857Y-82202438D02*
X201838095Y-82297676D01*
X201838095Y-82297676D02*
X201885714Y-82392914D01*
X201885714Y-82392914D02*
X201933333Y-82583390D01*
X201933333Y-82583390D02*
X201933333Y-82726247D01*
X201933333Y-82726247D02*
X201885714Y-82916723D01*
X201885714Y-82916723D02*
X201838095Y-83011961D01*
X201838095Y-83011961D02*
X201742857Y-83107200D01*
X201742857Y-83107200D02*
X201600000Y-83154819D01*
X201600000Y-83154819D02*
X201361905Y-83154819D01*
X202790476Y-82154819D02*
X202600000Y-82154819D01*
X202600000Y-82154819D02*
X202504762Y-82202438D01*
X202504762Y-82202438D02*
X202457143Y-82250057D01*
X202457143Y-82250057D02*
X202361905Y-82392914D01*
X202361905Y-82392914D02*
X202314286Y-82583390D01*
X202314286Y-82583390D02*
X202314286Y-82964342D01*
X202314286Y-82964342D02*
X202361905Y-83059580D01*
X202361905Y-83059580D02*
X202409524Y-83107200D01*
X202409524Y-83107200D02*
X202504762Y-83154819D01*
X202504762Y-83154819D02*
X202695238Y-83154819D01*
X202695238Y-83154819D02*
X202790476Y-83107200D01*
X202790476Y-83107200D02*
X202838095Y-83059580D01*
X202838095Y-83059580D02*
X202885714Y-82964342D01*
X202885714Y-82964342D02*
X202885714Y-82726247D01*
X202885714Y-82726247D02*
X202838095Y-82631009D01*
X202838095Y-82631009D02*
X202790476Y-82583390D01*
X202790476Y-82583390D02*
X202695238Y-82535771D01*
X202695238Y-82535771D02*
X202504762Y-82535771D01*
X202504762Y-82535771D02*
X202409524Y-82583390D01*
X202409524Y-82583390D02*
X202361905Y-82631009D01*
X202361905Y-82631009D02*
X202314286Y-82726247D01*
X203763220Y-61111133D02*
X203001316Y-61111133D01*
X203382268Y-60730180D02*
X203382268Y-61492085D01*
X196559160Y-79101983D02*
X197889393Y-79101983D01*
X197889393Y-79101983D02*
X198045891Y-79023734D01*
X198045891Y-79023734D02*
X198124140Y-78945485D01*
X198124140Y-78945485D02*
X198202388Y-78788987D01*
X198202388Y-78788987D02*
X198202388Y-78475991D01*
X198202388Y-78475991D02*
X198124140Y-78319493D01*
X198124140Y-78319493D02*
X198045891Y-78241244D01*
X198045891Y-78241244D02*
X197889393Y-78162995D01*
X197889393Y-78162995D02*
X196559160Y-78162995D01*
X196715658Y-77458755D02*
X196637409Y-77380506D01*
X196637409Y-77380506D02*
X196559160Y-77224008D01*
X196559160Y-77224008D02*
X196559160Y-76832763D01*
X196559160Y-76832763D02*
X196637409Y-76676265D01*
X196637409Y-76676265D02*
X196715658Y-76598016D01*
X196715658Y-76598016D02*
X196872156Y-76519767D01*
X196872156Y-76519767D02*
X197028654Y-76519767D01*
X197028654Y-76519767D02*
X197263401Y-76598016D01*
X197263401Y-76598016D02*
X198202388Y-77537004D01*
X198202388Y-77537004D02*
X198202388Y-76519767D01*
X206811666Y-81075819D02*
X206811666Y-81790104D01*
X206811666Y-81790104D02*
X206764047Y-81932961D01*
X206764047Y-81932961D02*
X206668809Y-82028200D01*
X206668809Y-82028200D02*
X206525952Y-82075819D01*
X206525952Y-82075819D02*
X206430714Y-82075819D01*
X207287857Y-82075819D02*
X207287857Y-81075819D01*
X207287857Y-81075819D02*
X207668809Y-81075819D01*
X207668809Y-81075819D02*
X207764047Y-81123438D01*
X207764047Y-81123438D02*
X207811666Y-81171057D01*
X207811666Y-81171057D02*
X207859285Y-81266295D01*
X207859285Y-81266295D02*
X207859285Y-81409152D01*
X207859285Y-81409152D02*
X207811666Y-81504390D01*
X207811666Y-81504390D02*
X207764047Y-81552009D01*
X207764047Y-81552009D02*
X207668809Y-81599628D01*
X207668809Y-81599628D02*
X207287857Y-81599628D01*
X208811666Y-82075819D02*
X208240238Y-82075819D01*
X208525952Y-82075819D02*
X208525952Y-81075819D01*
X208525952Y-81075819D02*
X208430714Y-81218676D01*
X208430714Y-81218676D02*
X208335476Y-81313914D01*
X208335476Y-81313914D02*
X208240238Y-81361533D01*
D12*
%TO.C,D7*%
X197860000Y-86260000D02*
X196450000Y-86260000D01*
X197850000Y-83940000D02*
X196450000Y-83940000D01*
X198470000Y-86540000D02*
X197990000Y-86540000D01*
X198230000Y-86210000D01*
X198470000Y-86540000D01*
G36*
X198470000Y-86540000D02*
G01*
X197990000Y-86540000D01*
X198230000Y-86210000D01*
X198470000Y-86540000D01*
G37*
%TO.C,D6*%
X202860000Y-86260000D02*
X201450000Y-86260000D01*
X202850000Y-83940000D02*
X201450000Y-83940000D01*
X203470000Y-86540000D02*
X202990000Y-86540000D01*
X203230000Y-86210000D01*
X203470000Y-86540000D01*
G36*
X203470000Y-86540000D02*
G01*
X202990000Y-86540000D01*
X203230000Y-86210000D01*
X203470000Y-86540000D01*
G37*
%TO.C,D5*%
X192810000Y-86260000D02*
X191400000Y-86260000D01*
X192800000Y-83940000D02*
X191400000Y-83940000D01*
X193420000Y-86540000D02*
X192940000Y-86540000D01*
X193180000Y-86210000D01*
X193420000Y-86540000D01*
G36*
X193420000Y-86540000D02*
G01*
X192940000Y-86540000D01*
X193180000Y-86210000D01*
X193420000Y-86540000D01*
G37*
%TO.C,TP1*%
X182780000Y-91300000D02*
X182780000Y-93700000D01*
X182780000Y-93700000D02*
X187680000Y-93700000D01*
X187680000Y-91300000D02*
X182780000Y-91300000D01*
X187680000Y-93700000D02*
X187680000Y-91300000D01*
D10*
%TO.C,D4*%
X186090000Y-89850000D02*
X188750000Y-89850000D01*
X186090000Y-88150000D02*
X188750000Y-88150000D01*
X186090000Y-88150000D02*
X186090000Y-89850000D01*
D13*
%TO.C,J4*%
X208172500Y-60290000D02*
X222672500Y-60290000D01*
X208172500Y-68740000D02*
X208172500Y-60290000D01*
X222672500Y-60290000D02*
X222672500Y-68740000D01*
D14*
X223572500Y-66490000D02*
G75*
G02*
X223272500Y-66490000I-150000J0D01*
G01*
X223272500Y-66490000D02*
G75*
G02*
X223572500Y-66490000I150000J0D01*
G01*
D15*
%TO.C,J2*%
X209345200Y-94877250D02*
X209345200Y-109863250D01*
X209345200Y-109863250D02*
X221334000Y-109863250D01*
X221334000Y-94877250D02*
X209345200Y-94877250D01*
X221334000Y-109863250D02*
X221334000Y-94877250D01*
D16*
X222604000Y-89594050D02*
G75*
G02*
X221842000Y-89594050I-381000J0D01*
G01*
X221842000Y-89594050D02*
G75*
G02*
X222604000Y-89594050I381000J0D01*
G01*
D12*
%TO.C,J9*%
X180485000Y-68990000D02*
X186485000Y-68990000D01*
X180485000Y-69850000D02*
X180485000Y-68990000D01*
X180485000Y-71530000D02*
X186485000Y-71530000D01*
X180485000Y-72390000D02*
X180485000Y-71530000D01*
X180485000Y-74070000D02*
X186485000Y-74070000D01*
X180485000Y-74930000D02*
X180485000Y-74070000D01*
X180485000Y-76610000D02*
X186485000Y-76610000D01*
X180485000Y-77470000D02*
X180485000Y-76610000D01*
X186485000Y-68040000D02*
X186485000Y-80960000D01*
X186485000Y-69850000D02*
X180485000Y-69850000D01*
X186485000Y-72390000D02*
X180485000Y-72390000D01*
X186485000Y-74930000D02*
X180485000Y-74930000D01*
X186485000Y-77470000D02*
X180485000Y-77470000D01*
X186485000Y-80960000D02*
X189245000Y-80960000D01*
X189245000Y-68040000D02*
X186485000Y-68040000D01*
X189245000Y-70690000D02*
X186485000Y-70690000D01*
X189245000Y-73230000D02*
X186485000Y-73230000D01*
X189245000Y-75770000D02*
X186485000Y-75770000D01*
X189245000Y-78310000D02*
X186485000Y-78310000D01*
X189245000Y-80960000D02*
X189245000Y-68040000D01*
X189475000Y-79150000D02*
X189245000Y-79150000D01*
X189475000Y-80010000D02*
X189245000Y-80010000D01*
X189557642Y-68990000D02*
X189245000Y-68990000D01*
X189557642Y-69850000D02*
X189245000Y-69850000D01*
X189557642Y-71530000D02*
X189245000Y-71530000D01*
X189557642Y-72390000D02*
X189245000Y-72390000D01*
X189557642Y-74070000D02*
X189245000Y-74070000D01*
X189557642Y-74930000D02*
X189245000Y-74930000D01*
X189557642Y-76610000D02*
X189245000Y-76610000D01*
X189557642Y-77470000D02*
X189245000Y-77470000D01*
X191905000Y-79580000D02*
X191905000Y-80850000D01*
X191905000Y-80850000D02*
X190635000Y-80850000D01*
X186485000Y-80010000D02*
X180485000Y-80010000D01*
X180485000Y-79150000D01*
X186485000Y-79150000D01*
X186485000Y-80010000D01*
G36*
X186485000Y-80010000D02*
G01*
X180485000Y-80010000D01*
X180485000Y-79150000D01*
X186485000Y-79150000D01*
X186485000Y-80010000D01*
G37*
%TO.C,TP3*%
X182780000Y-99300000D02*
X182780000Y-101700000D01*
X182780000Y-101700000D02*
X187680000Y-101700000D01*
X187680000Y-99300000D02*
X182780000Y-99300000D01*
X187680000Y-101700000D02*
X187680000Y-99300000D01*
D13*
%TO.C,J7*%
X189905000Y-91970000D02*
X205205000Y-91970000D01*
X189905000Y-109710000D02*
X189905000Y-91970000D01*
X205205000Y-91970000D02*
X205205000Y-109710000D01*
X205205000Y-109710000D02*
X189905000Y-109710000D01*
D17*
X188865000Y-95740000D02*
G75*
G02*
X188465000Y-95740000I-200000J0D01*
G01*
X188465000Y-95740000D02*
G75*
G02*
X188865000Y-95740000I200000J0D01*
G01*
D15*
%TO.C,U2*%
X195395800Y-81301200D02*
X199104200Y-81301200D01*
X196945200Y-74798800D02*
X195395800Y-74798800D01*
X197554800Y-74798800D02*
X196945200Y-74798800D01*
X199104200Y-74798800D02*
X197554800Y-74798800D01*
X197554800Y-74798800D02*
G75*
G02*
X196945200Y-74798800I-304800J0D01*
G01*
D12*
%TO.C,TP2*%
X182800000Y-95300000D02*
X182800000Y-97700000D01*
X182800000Y-97700000D02*
X187700000Y-97700000D01*
X187700000Y-95300000D02*
X182800000Y-95300000D01*
X187700000Y-97700000D02*
X187700000Y-95300000D01*
%TO.C,J1*%
X193120000Y-66350000D02*
X193120000Y-69110000D01*
X193120000Y-69110000D02*
X206040000Y-69110000D01*
X193230000Y-71770000D02*
X193230000Y-70500000D01*
X194070000Y-69340000D02*
X194070000Y-69110000D01*
X194500000Y-71770000D02*
X193230000Y-71770000D01*
X194930000Y-69340000D02*
X194930000Y-69110000D01*
X195770000Y-69110000D02*
X195770000Y-66350000D01*
X196610000Y-60350000D02*
X197470000Y-60350000D01*
X196610000Y-66350000D02*
X196610000Y-60350000D01*
X196610000Y-69422642D02*
X196610000Y-69110000D01*
X197470000Y-60350000D02*
X197470000Y-66350000D01*
X197470000Y-69422642D02*
X197470000Y-69110000D01*
X198310000Y-69110000D02*
X198310000Y-66350000D01*
X199150000Y-60350000D02*
X200010000Y-60350000D01*
X199150000Y-66350000D02*
X199150000Y-60350000D01*
X199150000Y-69422642D02*
X199150000Y-69110000D01*
X200010000Y-60350000D02*
X200010000Y-66350000D01*
X200010000Y-69422642D02*
X200010000Y-69110000D01*
X200850000Y-69110000D02*
X200850000Y-66350000D01*
X201690000Y-60350000D02*
X202550000Y-60350000D01*
X201690000Y-66350000D02*
X201690000Y-60350000D01*
X201690000Y-69422642D02*
X201690000Y-69110000D01*
X202550000Y-60350000D02*
X202550000Y-66350000D01*
X202550000Y-69422642D02*
X202550000Y-69110000D01*
X203390000Y-69110000D02*
X203390000Y-66350000D01*
X204230000Y-60350000D02*
X205090000Y-60350000D01*
X204230000Y-66350000D02*
X204230000Y-60350000D01*
X204230000Y-69422642D02*
X204230000Y-69110000D01*
X205090000Y-60350000D02*
X205090000Y-66350000D01*
X205090000Y-69422642D02*
X205090000Y-69110000D01*
X206040000Y-66350000D02*
X193120000Y-66350000D01*
X206040000Y-69110000D02*
X206040000Y-66350000D01*
X194070000Y-66350000D02*
X194930000Y-66350000D01*
X194930000Y-60350000D01*
X194070000Y-60350000D01*
X194070000Y-66350000D01*
G36*
X194070000Y-66350000D02*
G01*
X194930000Y-66350000D01*
X194930000Y-60350000D01*
X194070000Y-60350000D01*
X194070000Y-66350000D01*
G37*
%TO.C,JP1*%
X203585000Y-77621000D02*
X203585000Y-80621000D01*
X203585000Y-77621000D02*
X211685000Y-77621000D01*
X211685000Y-80621000D02*
X203585000Y-80621000D01*
X211685000Y-80621000D02*
X211685000Y-77621000D01*
%TD*%
M02*
