M48
; DRILL file {KiCad 9.0.5} date 2026-04-07T14:41:09-0700
; FORMAT={-:-/ absolute / metric / decimal}
; #@! TF.CreationDate,2026-04-07T14:41:09-07:00
; #@! TF.GenerationSoftware,Kicad,Pcbnew,9.0.5
; #@! TF.FileFunction,Plated,1,2,PTH
FMAT,2
METRIC
; #@! TA.AperFunction,Plated,PTH,ViaDrill
T1C0.300
; #@! TA.AperFunction,Plated,PTH,ComponentDrill
T2C0.760
; #@! TA.AperFunction,Plated,PTH,ComponentDrill
T3C0.950
; #@! TA.AperFunction,Plated,PTH,ComponentDrill
T4C1.000
; #@! TA.AperFunction,Plated,PTH,ComponentDrill
T5C1.300
; #@! TA.AperFunction,Plated,PTH,ComponentDrill
T6C1.753
; #@! TA.AperFunction,Plated,PTH,ComponentDrill
T7C3.200
%
G90
G05
T1
X183.896Y-98.425
X184.023Y-94.488
X185.293Y-94.488
X185.293Y-98.425
X185.42Y-82.55
X185.42Y-85.09
X185.42Y-87.63
X185.42Y-90.17
X186.0Y-67.0
X186.563Y-94.488
X186.563Y-98.425
X187.96Y-82.55
X187.96Y-85.09
X187.96Y-87.63
X187.96Y-104.14
X187.96Y-106.68
X188.0Y-67.0
X190.0Y-67.0
X190.0Y-90.75
X190.5Y-104.14
X190.5Y-106.68
X191.008Y-91.059
X191.643Y-92.456
X192.0Y-67.0
X192.2Y-83.4
X192.659Y-78.994
X192.7Y-77.7
X193.04Y-75.819
X193.04Y-99.06
X193.04Y-104.14
X193.04Y-106.68
X193.4Y-86.3
X193.4Y-91.1
X194.0Y-81.7
X194.056Y-73.914
X194.31Y-94.615
X194.437Y-84.201
X194.58Y-91.44
X194.945Y-86.106
X195.58Y-99.06
X195.58Y-101.6
X195.58Y-104.14
X195.58Y-106.68
X195.849Y-75.931
X196.2Y-71.8
X196.469Y-74.041
X196.85Y-94.615
X197.37Y-91.44
X197.39Y-75.774
X197.612Y-73.152
X198.12Y-99.06
X198.12Y-101.6
X198.12Y-104.14
X198.12Y-106.68
X198.2Y-83.4
X198.4Y-86.3
X198.501Y-80.391
X198.755Y-77.851
X198.798Y-79.648
X198.882Y-75.819
X199.39Y-94.615
X199.74Y-91.44
X200.025Y-86.614
X200.1Y-81.7
X200.66Y-99.06
X200.66Y-101.6
X200.66Y-104.14
X200.66Y-106.68
X201.493Y-78.456
X202.057Y-94.615
X202.565Y-91.44
X202.6Y-76.2
X203.2Y-96.52
X203.2Y-99.06
X203.2Y-106.68
X203.4Y-86.614
X203.6Y-72.5
X203.708Y-83.617
X204.8Y-76.2
X205.7Y-72.5
X205.74Y-81.28
X205.74Y-83.82
X205.74Y-86.36
X205.74Y-88.9
X205.74Y-91.44
X205.74Y-93.98
X205.74Y-96.52
X205.74Y-99.06
X205.74Y-101.6
X205.74Y-104.14
X205.74Y-106.68
X206.375Y-70.358
X208.28Y-76.2
X208.28Y-78.74
X208.28Y-81.28
X208.28Y-83.82
X208.28Y-86.36
X208.28Y-88.9
X208.28Y-91.44
X208.28Y-93.98
X208.28Y-96.52
X208.28Y-99.06
X208.28Y-101.6
X208.28Y-104.14
X208.28Y-106.68
X212.09Y-76.2
X212.09Y-78.74
X212.09Y-81.28
X212.09Y-83.82
X212.09Y-86.36
X212.09Y-92.075
X212.09Y-93.98
X215.9Y-64.77
X215.9Y-69.85
X215.9Y-71.12
X215.9Y-73.66
X215.9Y-76.2
X215.9Y-78.74
X215.9Y-81.28
X215.9Y-83.82
X215.9Y-86.36
X215.9Y-92.075
X215.9Y-93.98
X219.075Y-64.77
X219.075Y-69.85
X219.075Y-71.12
X219.075Y-73.66
X219.075Y-76.2
X219.075Y-78.74
X219.075Y-81.28
X219.075Y-83.82
X219.075Y-86.36
X219.075Y-92.075
X219.075Y-93.98
X222.25Y-64.77
X222.25Y-69.85
X222.25Y-71.12
X222.25Y-73.66
X222.25Y-76.2
X222.25Y-78.74
X222.25Y-81.28
X222.25Y-83.82
X222.25Y-86.36
X222.25Y-92.075
X222.25Y-93.98
T2
X193.11Y-95.74
X194.38Y-93.2
X195.65Y-95.74
X196.92Y-93.2
X198.19Y-95.74
X199.46Y-93.2
X200.73Y-95.74
X202.0Y-93.2
T3
X210.172Y-68.49
X211.672Y-66.49
X213.172Y-68.49
X214.672Y-66.49
X216.172Y-68.49
X217.672Y-66.49
X219.172Y-68.49
X220.672Y-66.49
T4
X183.96Y-96.5
X183.98Y-92.5
X183.98Y-100.5
X186.5Y-96.5
X186.52Y-92.5
X186.52Y-100.5
X190.635Y-69.42
X190.635Y-71.96
X190.635Y-74.5
X190.635Y-77.04
X190.635Y-79.58
X194.5Y-70.5
X197.04Y-70.5
X199.58Y-70.5
X202.12Y-70.5
X204.66Y-70.5
T5
X205.105Y-79.121
X210.185Y-79.121
T6
X211.38Y-89.594
X215.34Y-89.594
X219.3Y-89.594
T7
X183.5Y-63.5
X183.5Y-106.5
X226.5Y-63.5
X226.5Y-106.5
M30
