%TF.GenerationSoftware,KiCad,Pcbnew,9.0.5*%
%TF.CreationDate,2026-04-07T14:40:45-07:00*%
%TF.ProjectId,Motor_Joint_Splitter_V3,4d6f746f-725f-44a6-9f69-6e745f53706c,rev?*%
%TF.SameCoordinates,Original*%
%TF.FileFunction,Copper,L1,Top*%
%TF.FilePolarity,Positive*%
%FSLAX46Y46*%
G04 Gerber Fmt 4.6, Leading zero omitted, Abs format (unit mm)*
G04 Created by KiCad (PCBNEW 9.0.5) date 2026-04-07 14:40:45*
%MOMM*%
%LPD*%
G01*
G04 APERTURE LIST*
G04 Aperture macros list*
%AMRoundRect*
0 Rectangle with rounded corners*
0 $1 Rounding radius*
0 $2 $3 $4 $5 $6 $7 $8 $9 X,Y pos of 4 corners*
0 Add a 4 corners polygon primitive as box body*
4,1,4,$2,$3,$4,$5,$6,$7,$8,$9,$2,$3,0*
0 Add four circle primitives for the rounded corners*
1,1,$1+$1,$2,$3*
1,1,$1+$1,$4,$5*
1,1,$1+$1,$6,$7*
1,1,$1+$1,$8,$9*
0 Add four rect primitives between the rounded corners*
20,1,$1+$1,$2,$3,$4,$5,0*
20,1,$1+$1,$4,$5,$6,$7,0*
20,1,$1+$1,$6,$7,$8,$9,0*
20,1,$1+$1,$8,$9,$2,$3,0*%
G04 Aperture macros list end*
%TA.AperFunction,SMDPad,CuDef*%
%ADD10RoundRect,0.100000X0.225000X0.100000X-0.225000X0.100000X-0.225000X-0.100000X0.225000X-0.100000X0*%
%TD*%
%TA.AperFunction,SMDPad,CuDef*%
%ADD11RoundRect,0.225000X-0.225000X-0.250000X0.225000X-0.250000X0.225000X0.250000X-0.225000X0.250000X0*%
%TD*%
%TA.AperFunction,SMDPad,CuDef*%
%ADD12RoundRect,0.140000X-0.140000X-0.170000X0.140000X-0.170000X0.140000X0.170000X-0.140000X0.170000X0*%
%TD*%
%TA.AperFunction,ComponentPad*%
%ADD13C,2.000000*%
%TD*%
%TA.AperFunction,SMDPad,CuDef*%
%ADD14RoundRect,0.112500X-0.187500X-0.112500X0.187500X-0.112500X0.187500X0.112500X-0.187500X0.112500X0*%
%TD*%
%TA.AperFunction,ComponentPad*%
%ADD15R,1.458000X1.458000*%
%TD*%
%TA.AperFunction,ComponentPad*%
%ADD16C,1.458000*%
%TD*%
%TA.AperFunction,ComponentPad*%
%ADD17C,2.260600*%
%TD*%
%TA.AperFunction,ComponentPad*%
%ADD18R,1.700000X1.700000*%
%TD*%
%TA.AperFunction,ComponentPad*%
%ADD19C,1.700000*%
%TD*%
%TA.AperFunction,SMDPad,CuDef*%
%ADD20RoundRect,0.248780X-0.451220X0.261220X-0.451220X-0.261220X0.451220X-0.261220X0.451220X0.261220X0*%
%TD*%
%TA.AperFunction,SMDPad,CuDef*%
%ADD21RoundRect,0.140000X-0.170000X0.140000X-0.170000X-0.140000X0.170000X-0.140000X0.170000X0.140000X0*%
%TD*%
%TA.AperFunction,ComponentPad*%
%ADD22C,3.600000*%
%TD*%
%TA.AperFunction,ConnectorPad*%
%ADD23C,5.600000*%
%TD*%
%TA.AperFunction,ComponentPad*%
%ADD24R,1.268000X1.268000*%
%TD*%
%TA.AperFunction,ComponentPad*%
%ADD25C,1.268000*%
%TD*%
%TA.AperFunction,SMDPad,CuDef*%
%ADD26R,1.422400X0.355600*%
%TD*%
%TA.AperFunction,ConnectorPad*%
%ADD27C,5.700000*%
%TD*%
%TA.AperFunction,ComponentPad*%
%ADD28RoundRect,0.650000X0.650000X0.650000X-0.650000X0.650000X-0.650000X-0.650000X0.650000X-0.650000X0*%
%TD*%
%TA.AperFunction,ComponentPad*%
%ADD29C,2.600000*%
%TD*%
%TA.AperFunction,ViaPad*%
%ADD30C,0.600000*%
%TD*%
%TA.AperFunction,Conductor*%
%ADD31C,0.200000*%
%TD*%
%TA.AperFunction,Conductor*%
%ADD32C,0.500000*%
%TD*%
G04 APERTURE END LIST*
D10*
%TO.P,D7,1,A*%
%TO.N,GND*%
X198100000Y-85750000D03*
%TO.P,D7,2,K*%
%TO.N,+5V*%
X198100000Y-85100000D03*
%TO.P,D7,3,A*%
%TO.N,/SEA_I_Out*%
X198100000Y-84450000D03*
%TO.P,D7,4,A*%
%TO.N,GND*%
X196200000Y-84450000D03*
%TO.P,D7,5,K*%
%TO.N,+5V*%
X196200000Y-85100000D03*
%TO.P,D7,6,A*%
%TO.N,/C_I_Out*%
X196200000Y-85750000D03*
%TD*%
%TO.P,D6,1,A*%
%TO.N,GND*%
X203100000Y-85750000D03*
%TO.P,D6,2,K*%
%TO.N,+5V*%
X203100000Y-85100000D03*
%TO.P,D6,3,A*%
%TO.N,/SEA_B_Out*%
X203100000Y-84450000D03*
%TO.P,D6,4,A*%
%TO.N,GND*%
X201200000Y-84450000D03*
%TO.P,D6,5,K*%
%TO.N,+5V*%
X201200000Y-85100000D03*
%TO.P,D6,6,K*%
%TO.N,/SEA_A_Out*%
X201200000Y-85750000D03*
%TD*%
%TO.P,D5,1,A*%
%TO.N,GND*%
X193050000Y-85750000D03*
%TO.P,D5,2,K*%
%TO.N,+5V*%
X193050000Y-85100000D03*
%TO.P,D5,3,K*%
%TO.N,/C_B_Out*%
X193050000Y-84450000D03*
%TO.P,D5,4,A*%
%TO.N,GND*%
X191150000Y-84450000D03*
%TO.P,D5,5,K*%
%TO.N,+5V*%
X191150000Y-85100000D03*
%TO.P,D5,6,K*%
%TO.N,/C_A_Out*%
X191150000Y-85750000D03*
%TD*%
D11*
%TO.P,C2,1*%
%TO.N,+5V*%
X201620000Y-74900000D03*
%TO.P,C2,2*%
%TO.N,GND*%
X203180000Y-74900000D03*
%TD*%
D12*
%TO.P,C4,1*%
%TO.N,+5V*%
X193100000Y-72900000D03*
%TO.P,C4,2*%
%TO.N,GND*%
X194100000Y-72900000D03*
%TD*%
D13*
%TO.P,TP1,1,1*%
%TO.N,/C_A_Out_2*%
X183980000Y-92500000D03*
X186520000Y-92500000D03*
%TD*%
D14*
%TO.P,D4,2*%
%TO.N,+5V*%
X188750000Y-89000000D03*
%TO.P,D4,1*%
%TO.N,GND*%
X186650000Y-89000000D03*
%TD*%
D15*
%TO.P,J4,1,1*%
%TO.N,/Sin*%
X220672500Y-66490000D03*
D16*
%TO.P,J4,2,2*%
%TO.N,GND_M*%
X219172500Y-68490000D03*
%TO.P,J4,3,3*%
%TO.N,/Cos*%
X217672500Y-66490000D03*
%TO.P,J4,4,4*%
%TO.N,GND_M*%
X216172500Y-68490000D03*
%TO.P,J4,5,5*%
X214672500Y-66490000D03*
%TO.P,J4,6,6*%
X213172500Y-68490000D03*
%TO.P,J4,7,7*%
X211672500Y-66490000D03*
%TO.P,J4,8,8*%
X210172500Y-68490000D03*
%TD*%
D17*
%TO.P,J2,1,1*%
%TO.N,/Sin*%
X219299600Y-89594050D03*
%TO.P,J2,2,2*%
%TO.N,/Cos*%
X215339600Y-89594050D03*
%TO.P,J2,3,3*%
%TO.N,GND_M*%
X211379601Y-89594050D03*
%TD*%
D18*
%TO.P,J9,1,Pin_1*%
%TO.N,GND*%
X190635000Y-79580000D03*
D19*
%TO.P,J9,2,Pin_2*%
%TO.N,/SEA_I*%
X190635000Y-77040000D03*
%TO.P,J9,3,Pin_3*%
%TO.N,/SEA_A*%
X190635000Y-74500000D03*
%TO.P,J9,4,Pin_4*%
%TO.N,+5V*%
X190635000Y-71960000D03*
%TO.P,J9,5,Pin_5*%
%TO.N,/SEA_B*%
X190635000Y-69420000D03*
%TD*%
D20*
%TO.P,R19,1*%
%TO.N,/C_A_Out*%
X191500000Y-88090000D03*
%TO.P,R19,2*%
%TO.N,/C_A_Out_2*%
X191500000Y-89910000D03*
%TD*%
D13*
%TO.P,TP3,1,1*%
%TO.N,GND*%
X183980000Y-100500000D03*
X186520000Y-100500000D03*
%TD*%
D21*
%TO.P,C1,2*%
%TO.N,+5V*%
X189900000Y-89000000D03*
%TO.P,C1,1*%
%TO.N,GND*%
X189900000Y-88000000D03*
%TD*%
D20*
%TO.P,R13,1*%
%TO.N,/C_B_Out*%
X194000000Y-88090000D03*
%TO.P,R13,2*%
%TO.N,/C_B_Out_2*%
X194000000Y-89910000D03*
%TD*%
D22*
%TO.P,H3,1,1*%
%TO.N,GND_M*%
X226500000Y-63500000D03*
D23*
X226500000Y-63500000D03*
%TD*%
D20*
%TO.P,R17,1*%
%TO.N,/SEA_I_Out*%
X199000000Y-88090000D03*
%TO.P,R17,2*%
%TO.N,/SEA_I_Out_2*%
X199000000Y-89910000D03*
%TD*%
D24*
%TO.P,J7,1*%
%TO.N,+5V*%
X193110000Y-95740000D03*
D25*
%TO.P,J7,2*%
%TO.N,/C_A_Out_2*%
X194380000Y-93200000D03*
%TO.P,J7,3*%
%TO.N,/C_B_Out_2*%
X195650000Y-95740000D03*
%TO.P,J7,4*%
%TO.N,/C_I_Out_2*%
X196920000Y-93200000D03*
%TO.P,J7,5*%
%TO.N,/SEA_I_Out_2*%
X198190000Y-95740000D03*
%TO.P,J7,6*%
%TO.N,/SEA_A_Out_2*%
X199460000Y-93200000D03*
%TO.P,J7,7*%
%TO.N,/SEA_B_Out_2*%
X200730000Y-95740000D03*
%TO.P,J7,8*%
%TO.N,GND*%
X202000000Y-93200000D03*
%TD*%
D20*
%TO.P,R15,1*%
%TO.N,/SEA_A_Out*%
X201500000Y-88090000D03*
%TO.P,R15,2*%
%TO.N,/SEA_A_Out_2*%
X201500000Y-89910000D03*
%TD*%
%TO.P,R14,1*%
%TO.N,/C_I_Out*%
X196500000Y-88090000D03*
%TO.P,R14,2*%
%TO.N,/C_I_Out_2*%
X196500000Y-89910000D03*
%TD*%
D22*
%TO.P,H1,1,1*%
%TO.N,GND*%
X183500000Y-106500000D03*
D23*
X183500000Y-106500000D03*
%TD*%
D26*
%TO.P,U2,1,~OE1*%
%TO.N,GND*%
X194405200Y-75129000D03*
%TO.P,U2,2,I0*%
%TO.N,/SEA_B*%
X194405200Y-75764000D03*
%TO.P,U2,3,O4*%
%TO.N,/C_I_Out*%
X194405200Y-76424400D03*
%TO.P,U2,4,I1*%
%TO.N,/SEA_A*%
X194405200Y-77084800D03*
%TO.P,U2,5,O5*%
%TO.N,/C_B_Out*%
X194405200Y-77719800D03*
%TO.P,U2,6,I2*%
%TO.N,/SEA_I*%
X194405200Y-78380200D03*
%TO.P,U2,7,O6*%
%TO.N,/C_A_Out*%
X194405200Y-79015200D03*
%TO.P,U2,8,I3*%
%TO.N,GND*%
X194405200Y-79675600D03*
%TO.P,U2,9,O7*%
%TO.N,unconnected-(U2-O7-Pad9)*%
X194405200Y-80336000D03*
%TO.P,U2,10,GND*%
%TO.N,GND*%
X194405200Y-80971000D03*
%TO.P,U2,11,I7*%
X200094800Y-80971000D03*
%TO.P,U2,12,O3*%
%TO.N,unconnected-(U2-O3-Pad12)*%
X200094800Y-80336000D03*
%TO.P,U2,13,I6*%
%TO.N,/C_A*%
X200094800Y-79675600D03*
%TO.P,U2,14,O2*%
%TO.N,/SEA_I_Out*%
X200094800Y-79015200D03*
%TO.P,U2,15,I5*%
%TO.N,/C_B*%
X200094800Y-78380200D03*
%TO.P,U2,16,O1*%
%TO.N,/SEA_A_Out*%
X200094800Y-77719800D03*
%TO.P,U2,17,I4*%
%TO.N,/C_I*%
X200094800Y-77084800D03*
%TO.P,U2,18,O0*%
%TO.N,/SEA_B_Out*%
X200094800Y-76424400D03*
%TO.P,U2,19,~OE2*%
%TO.N,GND*%
X200094800Y-75764000D03*
%TO.P,U2,20,VCC*%
%TO.N,+5V*%
X200094800Y-75129000D03*
%TD*%
D22*
%TO.P,H2,1,1*%
%TO.N,GND_M*%
X226500000Y-106500000D03*
D23*
X226500000Y-106500000D03*
%TD*%
D12*
%TO.P,C3,1*%
%TO.N,+5V*%
X200300000Y-72700000D03*
%TO.P,C3,2*%
%TO.N,GND*%
X201300000Y-72700000D03*
%TD*%
D20*
%TO.P,R16,1*%
%TO.N,/SEA_B_Out*%
X204000000Y-88090000D03*
%TO.P,R16,2*%
%TO.N,/SEA_B_Out_2*%
X204000000Y-89910000D03*
%TD*%
D13*
%TO.P,TP2,1,1*%
%TO.N,/C_B_Out_2*%
X186500000Y-96500000D03*
X183960000Y-96500000D03*
%TD*%
D22*
%TO.P,H4,1,1*%
%TO.N,GND*%
X183500000Y-63500000D03*
D27*
X183500000Y-63500000D03*
%TD*%
D18*
%TO.P,J1,1,Pin_1*%
%TO.N,GND*%
X194500000Y-70500000D03*
D19*
%TO.P,J1,2,Pin_2*%
%TO.N,/C_I*%
X197040000Y-70500000D03*
%TO.P,J1,3,Pin_3*%
%TO.N,/C_A*%
X199580000Y-70500000D03*
%TO.P,J1,4,Pin_4*%
%TO.N,+5V*%
X202120000Y-70500000D03*
%TO.P,J1,5,Pin_5*%
%TO.N,/C_B*%
X204660000Y-70500000D03*
%TD*%
D28*
%TO.P,JP1,1,A*%
%TO.N,GND_M*%
X210185000Y-79121000D03*
D29*
%TO.P,JP1,2,B*%
%TO.N,GND*%
X205105000Y-79121000D03*
%TD*%
D30*
%TO.N,GND*%
X202600000Y-76200000D03*
X194580000Y-91440000D03*
X197370000Y-91440000D03*
X199740000Y-91440000D03*
X192700000Y-77700000D03*
X205700000Y-72500000D03*
X204800000Y-76200000D03*
X200660000Y-106680000D03*
X198120000Y-99060000D03*
X185420000Y-85090000D03*
X190500000Y-106680000D03*
X198755000Y-77851000D03*
X195580000Y-106680000D03*
X193400000Y-86300000D03*
X205740000Y-86360000D03*
X185420000Y-90170000D03*
X187960000Y-104140000D03*
X203200000Y-106680000D03*
X194310000Y-94615000D03*
X186563000Y-98425000D03*
X196850000Y-94615000D03*
X198200000Y-83400000D03*
X184023000Y-94488000D03*
X200660000Y-101600000D03*
X198120000Y-106680000D03*
X194945000Y-86106000D03*
X205740000Y-81280000D03*
X200100000Y-81700000D03*
X198400000Y-86300000D03*
X191643000Y-92456000D03*
X205740000Y-93980000D03*
X195580000Y-99060000D03*
X183896000Y-98425000D03*
X193040000Y-104140000D03*
X186000000Y-67000000D03*
X195849335Y-75930665D03*
X193040000Y-106680000D03*
X200660000Y-99060000D03*
X187960000Y-106680000D03*
X192659000Y-78994000D03*
X203400000Y-86614000D03*
X190000000Y-67000000D03*
X192200000Y-83400000D03*
X186563000Y-94488000D03*
X203708000Y-83616800D03*
X191008000Y-91059000D03*
X185293000Y-94488000D03*
X193040000Y-99060000D03*
X205740000Y-88900000D03*
X203200000Y-96520000D03*
X203600000Y-72500000D03*
X192000000Y-67000000D03*
X205740000Y-106680000D03*
X185420000Y-82550000D03*
X185293000Y-98425000D03*
X195580000Y-104140000D03*
X203200000Y-99060000D03*
X199390000Y-94615000D03*
X205740000Y-99060000D03*
X195580000Y-101600000D03*
X187960000Y-85090000D03*
X198501000Y-80391000D03*
X190500000Y-104140000D03*
X194000000Y-81700000D03*
X185420000Y-87630000D03*
X202565000Y-91440000D03*
X205740000Y-91440000D03*
X205740000Y-101600000D03*
X196200000Y-71800000D03*
X200025000Y-86614000D03*
X200660000Y-104140000D03*
X198120000Y-104140000D03*
X206375000Y-70358000D03*
X197390108Y-75774378D03*
X187960000Y-87630000D03*
X205740000Y-96520000D03*
X205740000Y-83820000D03*
X187960000Y-82550000D03*
X202057000Y-94615000D03*
X198120000Y-101600000D03*
X196469000Y-74041000D03*
X188000000Y-67000000D03*
X205740000Y-104140000D03*
X194437000Y-84201000D03*
%TO.N,/C_I*%
X198882000Y-75819000D03*
%TO.N,/C_A*%
X198798114Y-79648216D03*
X197612000Y-73152000D03*
%TO.N,+5V*%
X194056000Y-73914000D03*
%TO.N,/C_B*%
X201492661Y-78456190D03*
%TO.N,/SEA_B*%
X193040000Y-75819000D03*
%TO.N,/C_A_Out_2*%
X190000000Y-90750000D03*
%TO.N,/C_B_Out_2*%
X193400000Y-91100000D03*
%TO.N,GND_M*%
X222250000Y-76200000D03*
X219075000Y-73660000D03*
X215900000Y-64770000D03*
X219075000Y-78740000D03*
X219075000Y-92075000D03*
X208280000Y-81280000D03*
X208280000Y-99060000D03*
X219075000Y-76200000D03*
X215900000Y-78740000D03*
X212090000Y-86360000D03*
X219075000Y-83820000D03*
X215900000Y-76200000D03*
X208280000Y-104140000D03*
X212090000Y-93980000D03*
X212090000Y-92075000D03*
X219075000Y-86360000D03*
X208280000Y-83820000D03*
X208280000Y-96520000D03*
X222250000Y-78740000D03*
X215900000Y-86360000D03*
X215900000Y-71120000D03*
X219075000Y-93980000D03*
X215900000Y-81280000D03*
X208280000Y-78740000D03*
X222250000Y-64770000D03*
X219075000Y-69850000D03*
X222250000Y-69850000D03*
X215900000Y-93980000D03*
X215900000Y-73660000D03*
X222250000Y-81280000D03*
X212090000Y-83820000D03*
X222250000Y-71120000D03*
X222250000Y-92075000D03*
X208280000Y-76200000D03*
X215900000Y-92075000D03*
X222250000Y-83820000D03*
X208280000Y-91440000D03*
X208280000Y-93980000D03*
X222250000Y-93980000D03*
X208280000Y-101600000D03*
X222250000Y-73660000D03*
X219075000Y-71120000D03*
X208280000Y-88900000D03*
X222250000Y-86360000D03*
X212090000Y-76200000D03*
X208280000Y-106680000D03*
X219075000Y-64770000D03*
X212090000Y-78740000D03*
X208280000Y-86360000D03*
X215900000Y-83820000D03*
X219075000Y-81280000D03*
X215900000Y-69850000D03*
X212090000Y-81280000D03*
%TD*%
D31*
%TO.N,GND*%
X202164000Y-75764000D02*
X202600000Y-76200000D01*
X200094800Y-75764000D02*
X202164000Y-75764000D01*
%TO.N,+5V*%
X201391000Y-75129000D02*
X201620000Y-74900000D01*
X200094800Y-75129000D02*
X201391000Y-75129000D01*
%TO.N,/C_A_Out*%
X193587300Y-79015200D02*
X194405200Y-79015200D01*
X192800000Y-79802500D02*
X193587300Y-79015200D01*
X192800000Y-81300000D02*
X192800000Y-79802500D01*
X190123000Y-83977000D02*
X192800000Y-81300000D01*
X190123000Y-84967870D02*
X190123000Y-83977000D01*
%TO.N,+5V*%
X200300000Y-72320000D02*
X202120000Y-70500000D01*
X200300000Y-72700000D02*
X200300000Y-72320000D01*
X200094800Y-72905200D02*
X200300000Y-72700000D01*
X200094800Y-75129000D02*
X200094800Y-72905200D01*
X188750000Y-91380000D02*
X188750000Y-89000000D01*
X193110000Y-95740000D02*
X188750000Y-91380000D01*
X192032840Y-89000000D02*
X192059840Y-89027000D01*
X189900000Y-89000000D02*
X192032840Y-89000000D01*
X188750000Y-89000000D02*
X189900000Y-89000000D01*
X193100000Y-72958000D02*
X194056000Y-73914000D01*
X193100000Y-72900000D02*
X193100000Y-72958000D01*
X191575000Y-72900000D02*
X193100000Y-72900000D01*
X190635000Y-71960000D02*
X191575000Y-72900000D01*
%TO.N,GND*%
X203600000Y-72500000D02*
X205700000Y-72500000D01*
X199081000Y-80971000D02*
X198501000Y-80391000D01*
X202824999Y-85750000D02*
X203100000Y-85750000D01*
X201200000Y-84450000D02*
X201524999Y-84450000D01*
X193494000Y-79675600D02*
X193393000Y-79776600D01*
X195261200Y-75129000D02*
X195849335Y-75717135D01*
X193393000Y-79776600D02*
X193393000Y-80814800D01*
X200094800Y-81694800D02*
X200100000Y-81700000D01*
X193549200Y-80971000D02*
X194405200Y-80971000D01*
X198197114Y-80087114D02*
X198197114Y-78408886D01*
X194405200Y-79675600D02*
X193494000Y-79675600D01*
X200094800Y-80971000D02*
X200094800Y-81694800D01*
X196524999Y-84450000D02*
X197824999Y-85750000D01*
X203100000Y-86314000D02*
X203400000Y-86614000D01*
X198755000Y-77851000D02*
X198481000Y-77577000D01*
X192774999Y-85750000D02*
X193050000Y-85750000D01*
X201524999Y-84450000D02*
X202824999Y-85750000D01*
X191150000Y-84450000D02*
X191474999Y-84450000D01*
X198481000Y-77577000D02*
X198481000Y-76865270D01*
X196200000Y-84450000D02*
X196524999Y-84450000D01*
X198197114Y-78408886D02*
X198755000Y-77851000D01*
X194405200Y-80971000D02*
X194405200Y-81294800D01*
X197824999Y-85750000D02*
X198100000Y-85750000D01*
X194405200Y-75129000D02*
X195261200Y-75129000D01*
X195849335Y-75717135D02*
X195849335Y-75930665D01*
X193050000Y-85750000D02*
X193050000Y-85950000D01*
X198481000Y-76865270D02*
X197390108Y-75774378D01*
X191474999Y-84450000D02*
X192774999Y-85750000D01*
X200094800Y-80971000D02*
X199081000Y-80971000D01*
X194405200Y-81294800D02*
X194000000Y-81700000D01*
X198400000Y-86050000D02*
X198100000Y-85750000D01*
X193050000Y-85950000D02*
X193400000Y-86300000D01*
X203100000Y-85750000D02*
X203100000Y-86314000D01*
X193393000Y-80814800D02*
X193549200Y-80971000D01*
X198400000Y-86300000D02*
X198400000Y-86050000D01*
X198501000Y-80391000D02*
X198197114Y-80087114D01*
%TO.N,/C_I*%
X198882000Y-76702600D02*
X199264200Y-77084800D01*
X200090600Y-77089000D02*
X200094800Y-77084800D01*
X199264200Y-77084800D02*
X200094800Y-77084800D01*
X198882000Y-75819000D02*
X198882000Y-76702600D01*
%TO.N,/C_A*%
X198798114Y-79648216D02*
X200067416Y-79648216D01*
X199580000Y-70500000D02*
X197993000Y-72087000D01*
X197993000Y-72771000D02*
X197612000Y-73152000D01*
X197993000Y-72087000D02*
X197993000Y-72771000D01*
X200067416Y-79648216D02*
X200094800Y-79675600D01*
X200048200Y-79629000D02*
X200094800Y-79675600D01*
X200141400Y-79629000D02*
X200094800Y-79675600D01*
X200014400Y-79756000D02*
X200094800Y-79675600D01*
%TO.N,+5V*%
X200100000Y-75123800D02*
X200094800Y-75129000D01*
X202775001Y-85100000D02*
X203100000Y-85100000D01*
X191150000Y-85100000D02*
X190825001Y-85100000D01*
X195574000Y-84181130D02*
X195806130Y-83949000D01*
X190756130Y-83949000D02*
X191654130Y-83949000D01*
X202059840Y-89027000D02*
X197059840Y-89027000D01*
X190825001Y-85100000D02*
X190524000Y-84798999D01*
X200094800Y-75129000D02*
X195896200Y-75129000D01*
X197501000Y-86076001D02*
X197501000Y-88585840D01*
X196200000Y-85100000D02*
X196524999Y-85100000D01*
X194681200Y-73914000D02*
X194056000Y-73914000D01*
X197501000Y-88585840D02*
X197059840Y-89027000D01*
X191474999Y-85100000D02*
X191150000Y-85100000D01*
X190524000Y-84181130D02*
X190756130Y-83949000D01*
X196524999Y-85100000D02*
X197501000Y-86076001D01*
X200875001Y-85100000D02*
X200574000Y-84798999D01*
X192805130Y-85100000D02*
X193050000Y-85100000D01*
X200806130Y-83949000D02*
X201624001Y-83949000D01*
X202120000Y-70500000D02*
X201923000Y-70500000D01*
X201524999Y-85100000D02*
X202501000Y-86076001D01*
X200132800Y-75091000D02*
X200094800Y-75129000D01*
X197855130Y-85100000D02*
X198100000Y-85100000D01*
X196704130Y-83949000D02*
X196704130Y-83203870D01*
X192059840Y-89027000D02*
X192501000Y-88585840D01*
X200574000Y-84798999D02*
X200574000Y-84181130D01*
X201624001Y-83949000D02*
X202775001Y-85100000D01*
X201200000Y-85100000D02*
X201524999Y-85100000D01*
X197104000Y-82804000D02*
X197084000Y-82784000D01*
X190524000Y-84798999D02*
X190524000Y-84181130D01*
X197084000Y-82784000D02*
X197084000Y-76316800D01*
X195806130Y-83949000D02*
X196704130Y-83949000D01*
X200574000Y-84181130D02*
X200806130Y-83949000D01*
X196704130Y-83203870D02*
X197104000Y-82804000D01*
X201200000Y-85100000D02*
X200875001Y-85100000D01*
X195574000Y-84798999D02*
X195574000Y-84181130D01*
X192501000Y-86126001D02*
X191474999Y-85100000D01*
X202501000Y-86076001D02*
X202501000Y-88585840D01*
X197084000Y-76316800D02*
X195896200Y-75129000D01*
X192501000Y-88585840D02*
X192501000Y-86126001D01*
X196200000Y-85100000D02*
X195875001Y-85100000D01*
X195896200Y-75129000D02*
X194681200Y-73914000D01*
X191654130Y-83949000D02*
X192805130Y-85100000D01*
X195875001Y-85100000D02*
X195574000Y-84798999D01*
X202501000Y-88585840D02*
X202059840Y-89027000D01*
X196704130Y-83949000D02*
X197855130Y-85100000D01*
X200100000Y-72520000D02*
X200100000Y-72800000D01*
X197059840Y-89027000D02*
X192059840Y-89027000D01*
%TO.N,/C_B*%
X200116000Y-78359000D02*
X200094800Y-78380200D01*
X200094800Y-78380200D02*
X201416671Y-78380200D01*
X201416671Y-78380200D02*
X201492661Y-78456190D01*
D32*
%TO.N,/Sin*%
X220672500Y-88221150D02*
X220672500Y-66490000D01*
X219299600Y-89594050D02*
X220672500Y-88221150D01*
D31*
%TO.N,/SEA_A*%
X190635000Y-74500000D02*
X193219800Y-77084800D01*
X193219800Y-77084800D02*
X194405200Y-77084800D01*
%TO.N,/SEA_I*%
X191975200Y-78380200D02*
X194405200Y-78380200D01*
X190635000Y-77040000D02*
X191975200Y-78380200D01*
%TO.N,/SEA_B*%
X193040000Y-75819000D02*
X194350200Y-75819000D01*
X194350200Y-75819000D02*
X194405200Y-75764000D01*
%TO.N,/SEA_B_Out*%
X203100000Y-84450000D02*
X203344870Y-84450000D01*
X203100000Y-84450000D02*
X203100000Y-78646486D01*
X203344870Y-84450000D02*
X204000000Y-85105130D01*
X204000000Y-85105130D02*
X204000000Y-88090000D01*
X200251400Y-76581000D02*
X200094800Y-76424400D01*
X200877914Y-76424400D02*
X200094800Y-76424400D01*
X203100000Y-78646486D02*
X200877914Y-76424400D01*
%TO.N,/C_I_Out*%
X196500000Y-86050000D02*
X196500000Y-88090000D01*
X194405200Y-76424400D02*
X195316400Y-76424400D01*
X195316400Y-76424400D02*
X196342000Y-77450000D01*
X196200000Y-85750000D02*
X196500000Y-86050000D01*
X196342000Y-82846030D02*
X195173000Y-84015030D01*
X195173000Y-84967870D02*
X195955130Y-85750000D01*
X195955130Y-85750000D02*
X196200000Y-85750000D01*
X196342000Y-77450000D02*
X196342000Y-82846030D01*
X195875001Y-85750000D02*
X196200000Y-85750000D01*
X195173000Y-84015030D02*
X195173000Y-84967870D01*
%TO.N,/C_B_Out*%
X193050000Y-84450000D02*
X193374999Y-84450000D01*
X195707000Y-78191000D02*
X195235800Y-77719800D01*
X194000000Y-85075001D02*
X194000000Y-88090000D01*
X195235800Y-77719800D02*
X194405200Y-77719800D01*
X193374999Y-84450000D02*
X194000000Y-85075001D01*
X193050000Y-84450000D02*
X195707000Y-81793000D01*
X195707000Y-81793000D02*
X195707000Y-78191000D01*
%TO.N,/C_A_Out*%
X191150000Y-85750000D02*
X191500000Y-86100000D01*
X190905130Y-85750000D02*
X190123000Y-84967870D01*
X191150000Y-85750000D02*
X190905130Y-85750000D01*
X191500000Y-86100000D02*
X191500000Y-88090000D01*
%TO.N,/SEA_I_Out*%
X200808200Y-79015200D02*
X201295000Y-79502000D01*
X201295000Y-81407000D02*
X198252000Y-84450000D01*
X198100000Y-84450000D02*
X198424999Y-84450000D01*
X201295000Y-79502000D02*
X201295000Y-81407000D01*
X200094800Y-79015200D02*
X200808200Y-79015200D01*
X199000000Y-85025001D02*
X199000000Y-88090000D01*
X198424999Y-84450000D02*
X199000000Y-85025001D01*
X198252000Y-84450000D02*
X198100000Y-84450000D01*
%TO.N,/SEA_A_Out*%
X200875001Y-85750000D02*
X200152000Y-85026999D01*
X201200000Y-85750000D02*
X201500000Y-86050000D01*
X202093661Y-78207247D02*
X201606214Y-77719800D01*
X201606214Y-77719800D02*
X200094800Y-77719800D01*
X200640030Y-83548000D02*
X200152000Y-84036030D01*
X201500000Y-86050000D02*
X201500000Y-88090000D01*
X200152000Y-85026999D02*
X200152000Y-84036030D01*
X201273943Y-83548000D02*
X202093661Y-82728282D01*
X201200000Y-85750000D02*
X200875001Y-85750000D01*
X201273943Y-83548000D02*
X200640030Y-83548000D01*
X202093661Y-82728282D02*
X202093661Y-78207247D01*
%TO.N,/SEA_I_Out_2*%
X198190000Y-90720000D02*
X198190000Y-95740000D01*
X199000000Y-89910000D02*
X198190000Y-90720000D01*
%TO.N,/C_A_Out_2*%
X191500000Y-90320000D02*
X194380000Y-93200000D01*
X191390000Y-89800000D02*
X191500000Y-89910000D01*
X191500000Y-89910000D02*
X190840000Y-89910000D01*
X190840000Y-89910000D02*
X190000000Y-90750000D01*
X191500000Y-89910000D02*
X191500000Y-90320000D01*
%TO.N,/C_B_Out_2*%
X195650000Y-91560000D02*
X195650000Y-95740000D01*
X194000000Y-89910000D02*
X194000000Y-90500000D01*
X194000000Y-89910000D02*
X195650000Y-91560000D01*
X194000000Y-90500000D02*
X193400000Y-91100000D01*
%TO.N,/SEA_A_Out_2*%
X201500000Y-89910000D02*
X201500000Y-91160000D01*
X201500000Y-91160000D02*
X199460000Y-93200000D01*
%TO.N,/C_I_Out_2*%
X196500000Y-89910000D02*
X196500000Y-92780000D01*
X196500000Y-92780000D02*
X196920000Y-93200000D01*
%TO.N,/SEA_B_Out_2*%
X204000000Y-94250000D02*
X204000000Y-89910000D01*
X200730000Y-95740000D02*
X202510000Y-95740000D01*
X202510000Y-95740000D02*
X204000000Y-94250000D01*
%TD*%
%TA.AperFunction,Conductor*%
%TO.N,GND_M*%
G36*
X229442539Y-60520185D02*
G01*
X229488294Y-60572989D01*
X229499500Y-60624500D01*
X229499500Y-109375500D01*
X229479815Y-109442539D01*
X229427011Y-109488294D01*
X229375500Y-109499500D01*
X208110889Y-109499500D01*
X208043850Y-109479815D01*
X207998095Y-109427011D01*
X207986893Y-109376443D01*
X207846112Y-90863676D01*
X207835451Y-89461814D01*
X207835394Y-89454384D01*
X207770502Y-80920998D01*
X207758332Y-79320581D01*
X207751331Y-78400011D01*
X208385000Y-78400011D01*
X208385000Y-78871000D01*
X209584999Y-78871000D01*
X209559979Y-78931402D01*
X209535000Y-79056981D01*
X209535000Y-79185019D01*
X209559979Y-79310598D01*
X209584999Y-79371000D01*
X208385001Y-79371000D01*
X208385001Y-79841988D01*
X208391147Y-79930559D01*
X208391148Y-79930568D01*
X208439941Y-80138017D01*
X208439946Y-80138032D01*
X208526028Y-80332990D01*
X208646474Y-80508820D01*
X208797179Y-80659525D01*
X208973009Y-80779971D01*
X209167967Y-80866053D01*
X209167982Y-80866058D01*
X209375429Y-80914850D01*
X209375444Y-80914852D01*
X209464011Y-80920999D01*
X209934999Y-80920999D01*
X209935000Y-80920998D01*
X209935000Y-79721001D01*
X209995402Y-79746021D01*
X210120981Y-79771000D01*
X210249019Y-79771000D01*
X210374598Y-79746021D01*
X210435000Y-79721001D01*
X210435000Y-80920999D01*
X210905988Y-80920999D01*
X210994559Y-80914852D01*
X210994568Y-80914851D01*
X211202017Y-80866058D01*
X211202032Y-80866053D01*
X211396990Y-80779971D01*
X211572820Y-80659525D01*
X211723525Y-80508820D01*
X211843971Y-80332990D01*
X211930053Y-80138032D01*
X211930058Y-80138017D01*
X211978850Y-79930570D01*
X211978852Y-79930555D01*
X211985000Y-79841988D01*
X211985000Y-79371000D01*
X210785001Y-79371000D01*
X210810021Y-79310598D01*
X210835000Y-79185019D01*
X210835000Y-79056981D01*
X210810021Y-78931402D01*
X210785001Y-78871000D01*
X211984999Y-78871000D01*
X211984999Y-78400011D01*
X211978852Y-78311440D01*
X211978851Y-78311431D01*
X211930058Y-78103982D01*
X211930053Y-78103967D01*
X211843971Y-77909009D01*
X211723525Y-77733179D01*
X211572820Y-77582474D01*
X211396990Y-77462028D01*
X211202032Y-77375946D01*
X211202017Y-77375941D01*
X210994570Y-77327149D01*
X210994555Y-77327147D01*
X210905989Y-77321000D01*
X210435000Y-77321000D01*
X210435000Y-78520998D01*
X210374598Y-78495979D01*
X210249019Y-78471000D01*
X210120981Y-78471000D01*
X209995402Y-78495979D01*
X209935000Y-78520998D01*
X209935000Y-77321000D01*
X209464012Y-77321000D01*
X209375440Y-77327147D01*
X209375431Y-77327148D01*
X209167982Y-77375941D01*
X209167967Y-77375946D01*
X208973009Y-77462028D01*
X208797179Y-77582474D01*
X208646474Y-77733179D01*
X208526028Y-77909009D01*
X208439946Y-78103967D01*
X208439941Y-78103982D01*
X208391149Y-78311429D01*
X208391147Y-78311444D01*
X208385000Y-78400011D01*
X207751331Y-78400011D01*
X207751322Y-78398810D01*
X207683440Y-69472327D01*
X207677981Y-68754457D01*
X207675234Y-68393270D01*
X208943500Y-68393270D01*
X208943500Y-68586729D01*
X208973761Y-68777791D01*
X209033542Y-68961776D01*
X209121365Y-69134136D01*
X209143855Y-69165089D01*
X209143856Y-69165090D01*
X209709949Y-68598996D01*
X209729870Y-68673343D01*
X209792405Y-68781657D01*
X209880843Y-68870095D01*
X209989157Y-68932630D01*
X210063502Y-68952550D01*
X209497409Y-69518643D01*
X209497409Y-69518644D01*
X209528363Y-69541134D01*
X209700723Y-69628957D01*
X209884708Y-69688738D01*
X210075771Y-69719000D01*
X210269229Y-69719000D01*
X210460291Y-69688738D01*
X210644276Y-69628957D01*
X210816638Y-69541132D01*
X210816645Y-69541128D01*
X210847589Y-69518644D01*
X210847590Y-69518643D01*
X210281497Y-68952550D01*
X210355843Y-68932630D01*
X210464157Y-68870095D01*
X210552595Y-68781657D01*
X210615130Y-68673343D01*
X210635050Y-68598997D01*
X211201143Y-69165090D01*
X211201144Y-69165089D01*
X211223628Y-69134145D01*
X211223632Y-69134138D01*
X211311457Y-68961776D01*
X211371238Y-68777791D01*
X211401500Y-68586729D01*
X211401500Y-68393270D01*
X211371238Y-68202208D01*
X211311457Y-68018223D01*
X211231642Y-67861579D01*
X211218746Y-67792910D01*
X211245022Y-67728169D01*
X211302129Y-67687912D01*
X211371934Y-67684920D01*
X211380447Y-67687354D01*
X211384701Y-67688736D01*
X211384707Y-67688737D01*
X211575771Y-67719000D01*
X211769229Y-67719000D01*
X211960292Y-67688737D01*
X211964548Y-67687355D01*
X212034389Y-67685356D01*
X212094224Y-67721434D01*
X212125055Y-67784133D01*
X212117094Y-67853548D01*
X212113357Y-67861579D01*
X212033543Y-68018223D01*
X211973761Y-68202208D01*
X211943500Y-68393270D01*
X211943500Y-68586729D01*
X211973761Y-68777791D01*
X212033542Y-68961776D01*
X212121365Y-69134136D01*
X212143855Y-69165089D01*
X212143856Y-69165090D01*
X212709949Y-68598996D01*
X212729870Y-68673343D01*
X212792405Y-68781657D01*
X212880843Y-68870095D01*
X212989157Y-68932630D01*
X213063502Y-68952550D01*
X212497409Y-69518643D01*
X212497409Y-69518644D01*
X212528363Y-69541134D01*
X212700723Y-69628957D01*
X212884708Y-69688738D01*
X213075771Y-69719000D01*
X213269229Y-69719000D01*
X213460291Y-69688738D01*
X213644276Y-69628957D01*
X213816638Y-69541132D01*
X213816645Y-69541128D01*
X213847589Y-69518644D01*
X213847590Y-69518643D01*
X213281497Y-68952550D01*
X213355843Y-68932630D01*
X213464157Y-68870095D01*
X213552595Y-68781657D01*
X213615130Y-68673343D01*
X213635050Y-68598997D01*
X214201143Y-69165090D01*
X214201144Y-69165089D01*
X214223628Y-69134145D01*
X214223632Y-69134138D01*
X214311457Y-68961776D01*
X214371238Y-68777791D01*
X214401500Y-68586729D01*
X214401500Y-68393270D01*
X214371238Y-68202208D01*
X214311457Y-68018223D01*
X214231642Y-67861579D01*
X214218746Y-67792910D01*
X214245022Y-67728169D01*
X214302129Y-67687912D01*
X214371934Y-67684920D01*
X214380447Y-67687354D01*
X214384701Y-67688736D01*
X214384707Y-67688737D01*
X214575771Y-67719000D01*
X214769229Y-67719000D01*
X214960292Y-67688737D01*
X214964548Y-67687355D01*
X215034389Y-67685356D01*
X215094224Y-67721434D01*
X215125055Y-67784133D01*
X215117094Y-67853548D01*
X215113357Y-67861579D01*
X215033543Y-68018223D01*
X214973761Y-68202208D01*
X214943500Y-68393270D01*
X214943500Y-68586729D01*
X214973761Y-68777791D01*
X215033542Y-68961776D01*
X215121365Y-69134136D01*
X215143855Y-69165089D01*
X215143856Y-69165090D01*
X215709949Y-68598996D01*
X215729870Y-68673343D01*
X215792405Y-68781657D01*
X215880843Y-68870095D01*
X215989157Y-68932630D01*
X216063502Y-68952550D01*
X215497409Y-69518643D01*
X215497409Y-69518644D01*
X215528363Y-69541134D01*
X215700723Y-69628957D01*
X215884708Y-69688738D01*
X216075771Y-69719000D01*
X216269229Y-69719000D01*
X216460291Y-69688738D01*
X216644276Y-69628957D01*
X216816638Y-69541132D01*
X216816645Y-69541128D01*
X216847589Y-69518644D01*
X216847590Y-69518643D01*
X216281497Y-68952550D01*
X216355843Y-68932630D01*
X216464157Y-68870095D01*
X216552595Y-68781657D01*
X216615130Y-68673343D01*
X216635050Y-68598997D01*
X217201143Y-69165090D01*
X217201144Y-69165089D01*
X217223628Y-69134145D01*
X217223632Y-69134138D01*
X217311457Y-68961776D01*
X217371238Y-68777791D01*
X217401500Y-68586729D01*
X217401500Y-68393274D01*
X217396010Y-68358618D01*
X217404963Y-68289324D01*
X217449958Y-68235871D01*
X217516709Y-68215230D01*
X217534668Y-68216278D01*
X217539304Y-68216888D01*
X217559143Y-68219500D01*
X217559150Y-68219500D01*
X217785850Y-68219500D01*
X217785857Y-68219500D01*
X217810329Y-68216278D01*
X217879364Y-68227043D01*
X217931620Y-68273423D01*
X217950506Y-68340691D01*
X217948989Y-68358612D01*
X217943500Y-68393273D01*
X217943500Y-68586729D01*
X217973761Y-68777791D01*
X218033542Y-68961776D01*
X218121365Y-69134136D01*
X218143855Y-69165089D01*
X218143856Y-69165090D01*
X218709949Y-68598996D01*
X218729870Y-68673343D01*
X218792405Y-68781657D01*
X218880843Y-68870095D01*
X218989157Y-68932630D01*
X219063501Y-68952550D01*
X218497409Y-69518643D01*
X218497409Y-69518644D01*
X218528363Y-69541134D01*
X218700723Y-69628957D01*
X218884708Y-69688738D01*
X219075771Y-69719000D01*
X219269218Y-69719000D01*
X219278598Y-69717514D01*
X219347891Y-69726467D01*
X219401345Y-69771461D01*
X219421987Y-69838212D01*
X219422000Y-69839987D01*
X219422000Y-87339250D01*
X219402315Y-87406289D01*
X219349511Y-87452044D01*
X219298000Y-87463250D01*
X219159932Y-87463250D01*
X218896340Y-87497953D01*
X218883010Y-87499709D01*
X218613207Y-87572002D01*
X218613197Y-87572005D01*
X218355152Y-87678891D01*
X218355141Y-87678896D01*
X218113246Y-87818556D01*
X217891652Y-87988590D01*
X217891645Y-87988596D01*
X217694146Y-88186095D01*
X217694140Y-88186102D01*
X217524108Y-88407693D01*
X217426987Y-88575911D01*
X217376420Y-88624126D01*
X217307812Y-88637348D01*
X217242948Y-88611380D01*
X217212213Y-88575911D01*
X217115097Y-88407701D01*
X216955489Y-88199695D01*
X216945059Y-88186102D01*
X216945053Y-88186095D01*
X216747554Y-87988596D01*
X216747547Y-87988590D01*
X216525953Y-87818556D01*
X216525952Y-87818555D01*
X216525949Y-87818553D01*
X216429505Y-87762871D01*
X216284058Y-87678896D01*
X216284047Y-87678891D01*
X216026002Y-87572005D01*
X216025995Y-87572003D01*
X216025993Y-87572002D01*
X215756190Y-87499709D01*
X215709909Y-87493615D01*
X215479267Y-87463250D01*
X215479260Y-87463250D01*
X215199940Y-87463250D01*
X215199932Y-87463250D01*
X214936340Y-87497953D01*
X214923010Y-87499709D01*
X214653207Y-87572002D01*
X214653197Y-87572005D01*
X214395152Y-87678891D01*
X214395141Y-87678896D01*
X214153246Y-87818556D01*
X213931652Y-87988590D01*
X213931645Y-87988596D01*
X213734146Y-88186095D01*
X213734140Y-88186102D01*
X213564106Y-88407696D01*
X213424446Y-88649591D01*
X213424441Y-88649602D01*
X213317555Y-88907647D01*
X213317552Y-88907657D01*
X213283218Y-89035796D01*
X213245260Y-89177457D01*
X213245258Y-89177468D01*
X213229327Y-89298468D01*
X213201060Y-89362365D01*
X213142735Y-89400835D01*
X213072870Y-89401666D01*
X213013647Y-89364593D01*
X212983915Y-89301679D01*
X212969757Y-89212286D01*
X212969756Y-89212282D01*
X212890460Y-88968234D01*
X212773957Y-88739586D01*
X212695543Y-88631660D01*
X212695543Y-88631659D01*
X212152991Y-89174211D01*
X212060268Y-89035441D01*
X211938210Y-88913383D01*
X211799438Y-88820658D01*
X212341990Y-88278106D01*
X212234064Y-88199693D01*
X212005416Y-88083190D01*
X211761367Y-88003894D01*
X211507907Y-87963750D01*
X211251295Y-87963750D01*
X210997836Y-88003894D01*
X210997833Y-88003894D01*
X210753785Y-88083190D01*
X210525134Y-88199695D01*
X210417211Y-88278105D01*
X210417210Y-88278106D01*
X210959763Y-88820659D01*
X210820992Y-88913383D01*
X210698934Y-89035441D01*
X210606210Y-89174212D01*
X210063657Y-88631659D01*
X210063656Y-88631660D01*
X209985246Y-88739583D01*
X209868741Y-88968234D01*
X209789445Y-89212282D01*
X209789445Y-89212285D01*
X209749301Y-89465743D01*
X209749301Y-89722356D01*
X209789445Y-89975814D01*
X209789445Y-89975817D01*
X209868741Y-90219865D01*
X209985244Y-90448513D01*
X210063657Y-90556438D01*
X210063657Y-90556439D01*
X210606209Y-90013886D01*
X210698934Y-90152659D01*
X210820992Y-90274717D01*
X210959763Y-90367440D01*
X210417210Y-90909992D01*
X210525137Y-90988406D01*
X210753785Y-91104909D01*
X210997834Y-91184205D01*
X211251295Y-91224350D01*
X211507907Y-91224350D01*
X211761365Y-91184205D01*
X211761368Y-91184205D01*
X212005416Y-91104909D01*
X212234056Y-90988410D01*
X212234062Y-90988406D01*
X212341989Y-90909992D01*
X212341990Y-90909992D01*
X211799438Y-90367440D01*
X211938210Y-90274717D01*
X212060268Y-90152659D01*
X212152991Y-90013887D01*
X212695543Y-90556439D01*
X212695543Y-90556438D01*
X212773957Y-90448511D01*
X212773961Y-90448505D01*
X212890460Y-90219865D01*
X212969754Y-89975821D01*
X212983914Y-89886420D01*
X213013843Y-89823285D01*
X213073155Y-89786353D01*
X213143017Y-89787351D01*
X213201250Y-89825960D01*
X213229327Y-89889631D01*
X213236960Y-89947604D01*
X213245259Y-90010640D01*
X213316018Y-90274717D01*
X213317552Y-90280442D01*
X213317555Y-90280452D01*
X213424441Y-90538497D01*
X213424446Y-90538508D01*
X213508421Y-90683955D01*
X213564103Y-90780399D01*
X213564105Y-90780402D01*
X213564106Y-90780403D01*
X213734140Y-91001997D01*
X213734146Y-91002004D01*
X213931645Y-91199503D01*
X213931651Y-91199508D01*
X214153251Y-91369547D01*
X214308719Y-91459307D01*
X214395141Y-91509203D01*
X214395146Y-91509205D01*
X214395149Y-91509207D01*
X214653207Y-91616098D01*
X214923010Y-91688391D01*
X215199940Y-91724850D01*
X215199947Y-91724850D01*
X215479253Y-91724850D01*
X215479260Y-91724850D01*
X215756190Y-91688391D01*
X216025993Y-91616098D01*
X216284051Y-91509207D01*
X216525949Y-91369547D01*
X216747549Y-91199508D01*
X216945058Y-91001999D01*
X217115097Y-90780399D01*
X217212213Y-90612188D01*
X217262780Y-90563973D01*
X217331387Y-90550751D01*
X217396252Y-90576719D01*
X217426986Y-90612188D01*
X217524103Y-90780399D01*
X217524105Y-90780402D01*
X217524106Y-90780403D01*
X217694140Y-91001997D01*
X217694146Y-91002004D01*
X217891645Y-91199503D01*
X217891651Y-91199508D01*
X218113251Y-91369547D01*
X218268719Y-91459307D01*
X218355141Y-91509203D01*
X218355146Y-91509205D01*
X218355149Y-91509207D01*
X218613207Y-91616098D01*
X218883010Y-91688391D01*
X219159940Y-91724850D01*
X219159947Y-91724850D01*
X219439253Y-91724850D01*
X219439260Y-91724850D01*
X219716190Y-91688391D01*
X219985993Y-91616098D01*
X220244051Y-91509207D01*
X220485949Y-91369547D01*
X220707549Y-91199508D01*
X220905058Y-91001999D01*
X221075097Y-90780399D01*
X221214757Y-90538501D01*
X221321648Y-90280443D01*
X221393941Y-90010640D01*
X221430400Y-89733710D01*
X221430400Y-89454390D01*
X221412476Y-89318252D01*
X221423241Y-89249220D01*
X221447728Y-89214394D01*
X221626328Y-89035796D01*
X221742024Y-88876555D01*
X221831384Y-88701176D01*
X221892209Y-88513976D01*
X221909042Y-88407696D01*
X221923000Y-88319571D01*
X221923000Y-68143602D01*
X221942685Y-68076563D01*
X221968640Y-68047500D01*
X221968800Y-68047370D01*
X222112609Y-67930109D01*
X222241198Y-67772407D01*
X222335409Y-67592049D01*
X222391386Y-67396418D01*
X222402000Y-67277037D01*
X222401999Y-65702964D01*
X222391386Y-65583582D01*
X222335409Y-65387951D01*
X222241198Y-65207593D01*
X222189184Y-65143803D01*
X222112609Y-65049890D01*
X221954909Y-64921304D01*
X221954910Y-64921304D01*
X221954907Y-64921302D01*
X221774549Y-64827091D01*
X221774548Y-64827090D01*
X221774545Y-64827089D01*
X221645243Y-64790092D01*
X221578918Y-64771114D01*
X221578915Y-64771113D01*
X221578913Y-64771113D01*
X221512602Y-64765217D01*
X221459537Y-64760500D01*
X221459532Y-64760500D01*
X219885471Y-64760500D01*
X219885465Y-64760500D01*
X219885464Y-64760501D01*
X219873816Y-64761536D01*
X219766084Y-64771113D01*
X219570454Y-64827089D01*
X219480272Y-64874196D01*
X219390093Y-64921302D01*
X219390091Y-64921303D01*
X219390090Y-64921304D01*
X219232390Y-65049890D01*
X219103803Y-65207591D01*
X219090086Y-65233850D01*
X219041597Y-65284155D01*
X218973609Y-65300260D01*
X218907707Y-65277051D01*
X218892498Y-65264115D01*
X218815290Y-65186907D01*
X218815283Y-65186901D01*
X218635428Y-65048894D01*
X218635426Y-65048893D01*
X218635420Y-65048888D01*
X218439080Y-64935530D01*
X218439076Y-64935528D01*
X218229624Y-64848770D01*
X218010631Y-64790091D01*
X217785867Y-64760501D01*
X217785862Y-64760500D01*
X217785857Y-64760500D01*
X217559143Y-64760500D01*
X217559137Y-64760500D01*
X217559132Y-64760501D01*
X217334368Y-64790091D01*
X217115375Y-64848770D01*
X216905923Y-64935528D01*
X216905919Y-64935530D01*
X216709580Y-65048888D01*
X216709571Y-65048894D01*
X216529716Y-65186901D01*
X216529709Y-65186907D01*
X216369407Y-65347209D01*
X216369401Y-65347216D01*
X216231394Y-65527071D01*
X216231388Y-65527080D01*
X216118030Y-65723419D01*
X216118028Y-65723423D01*
X216031270Y-65932877D01*
X216024132Y-65959515D01*
X215987766Y-66019174D01*
X215924919Y-66049702D01*
X215855543Y-66041406D01*
X215801666Y-65996920D01*
X215793873Y-65983714D01*
X215723634Y-65845863D01*
X215701143Y-65814909D01*
X215135050Y-66381001D01*
X215115130Y-66306657D01*
X215052595Y-66198343D01*
X214964157Y-66109905D01*
X214855843Y-66047370D01*
X214781497Y-66027449D01*
X215347590Y-65461356D01*
X215347589Y-65461355D01*
X215316636Y-65438865D01*
X215144276Y-65351042D01*
X214960291Y-65291261D01*
X214769229Y-65261000D01*
X214575771Y-65261000D01*
X214384708Y-65291261D01*
X214200723Y-65351042D01*
X214028360Y-65438867D01*
X213997409Y-65461354D01*
X213997408Y-65461355D01*
X214563503Y-66027449D01*
X214489157Y-66047370D01*
X214380843Y-66109905D01*
X214292405Y-66198343D01*
X214229870Y-66306657D01*
X214209949Y-66381002D01*
X213643855Y-65814908D01*
X213643854Y-65814909D01*
X213621367Y-65845860D01*
X213533542Y-66018223D01*
X213473761Y-66202208D01*
X213443500Y-66393270D01*
X213443500Y-66586729D01*
X213473761Y-66777791D01*
X213533542Y-66961776D01*
X213613357Y-67118420D01*
X213626253Y-67187089D01*
X213599977Y-67251830D01*
X213542870Y-67292087D01*
X213473065Y-67295079D01*
X213464560Y-67292648D01*
X213460297Y-67291263D01*
X213460292Y-67291262D01*
X213269229Y-67261000D01*
X213075771Y-67261000D01*
X212884707Y-67291262D01*
X212884696Y-67291264D01*
X212880435Y-67292649D01*
X212810594Y-67294639D01*
X212750764Y-67258553D01*
X212719941Y-67195850D01*
X212727912Y-67126436D01*
X212731642Y-67118420D01*
X212811457Y-66961776D01*
X212871238Y-66777791D01*
X212901500Y-66586729D01*
X212901500Y-66393270D01*
X212871238Y-66202208D01*
X212811457Y-66018223D01*
X212723634Y-65845863D01*
X212701143Y-65814909D01*
X212135050Y-66381001D01*
X212115130Y-66306657D01*
X212052595Y-66198343D01*
X211964157Y-66109905D01*
X211855843Y-66047370D01*
X211781497Y-66027449D01*
X212347590Y-65461356D01*
X212347589Y-65461355D01*
X212316636Y-65438865D01*
X212144276Y-65351042D01*
X211960291Y-65291261D01*
X211769229Y-65261000D01*
X211575771Y-65261000D01*
X211384708Y-65291261D01*
X211200723Y-65351042D01*
X211028360Y-65438867D01*
X210997409Y-65461354D01*
X210997408Y-65461355D01*
X211563503Y-66027449D01*
X211489157Y-66047370D01*
X211380843Y-66109905D01*
X211292405Y-66198343D01*
X211229870Y-66306657D01*
X211209949Y-66381002D01*
X210643855Y-65814908D01*
X210643854Y-65814909D01*
X210621367Y-65845860D01*
X210533542Y-66018223D01*
X210473761Y-66202208D01*
X210443500Y-66393270D01*
X210443500Y-66586729D01*
X210473761Y-66777791D01*
X210533542Y-66961776D01*
X210613357Y-67118420D01*
X210626253Y-67187089D01*
X210599977Y-67251830D01*
X210542870Y-67292087D01*
X210473065Y-67295079D01*
X210464560Y-67292648D01*
X210460297Y-67291263D01*
X210460292Y-67291262D01*
X210269229Y-67261000D01*
X210075771Y-67261000D01*
X209884708Y-67291261D01*
X209700723Y-67351042D01*
X209528360Y-67438867D01*
X209497409Y-67461354D01*
X209497408Y-67461355D01*
X210063502Y-68027449D01*
X209989157Y-68047370D01*
X209880843Y-68109905D01*
X209792405Y-68198343D01*
X209729870Y-68306657D01*
X209709949Y-68381002D01*
X209143855Y-67814908D01*
X209143854Y-67814909D01*
X209121367Y-67845860D01*
X209033542Y-68018223D01*
X208973761Y-68202208D01*
X208943500Y-68393270D01*
X207675234Y-68393270D01*
X207667976Y-67438867D01*
X207653305Y-65509558D01*
X207616163Y-60625443D01*
X207635337Y-60558256D01*
X207687791Y-60512101D01*
X207740159Y-60500500D01*
X229375500Y-60500500D01*
X229442539Y-60520185D01*
G37*
%TD.AperFunction*%
%TD*%
%TA.AperFunction,Conductor*%
%TO.N,GND*%
G36*
X206553991Y-60520185D02*
G01*
X206599746Y-60572989D01*
X206609469Y-60629879D01*
X206610828Y-60629938D01*
X206610691Y-60633101D01*
X206659701Y-67077701D01*
X206669763Y-68400916D01*
X206742239Y-77931640D01*
X206723065Y-77998827D01*
X206670611Y-78044982D01*
X206601530Y-78055452D01*
X206564112Y-78038706D01*
X206542277Y-78037275D01*
X205706041Y-78873511D01*
X205681022Y-78813110D01*
X205609888Y-78706649D01*
X205519351Y-78616112D01*
X205412890Y-78544978D01*
X205352488Y-78519958D01*
X206188723Y-77683721D01*
X206107172Y-77621145D01*
X206107171Y-77621144D01*
X205902828Y-77503165D01*
X205902819Y-77503160D01*
X205684836Y-77412870D01*
X205684838Y-77412870D01*
X205456914Y-77351799D01*
X205222985Y-77321000D01*
X204987014Y-77321000D01*
X204753085Y-77351799D01*
X204525162Y-77412870D01*
X204307180Y-77503160D01*
X204307171Y-77503165D01*
X204102828Y-77621144D01*
X204102818Y-77621150D01*
X204021275Y-77683720D01*
X204021275Y-77683721D01*
X204857512Y-78519958D01*
X204797110Y-78544978D01*
X204690649Y-78616112D01*
X204600112Y-78706649D01*
X204528978Y-78813110D01*
X204503958Y-78873511D01*
X203667721Y-78037275D01*
X203667720Y-78037275D01*
X203605150Y-78118818D01*
X203605143Y-78118829D01*
X203541107Y-78229742D01*
X203490539Y-78277957D01*
X203421932Y-78291179D01*
X203357067Y-78265211D01*
X203346039Y-78255422D01*
X201312534Y-76221917D01*
X201279049Y-76160594D01*
X201284033Y-76090902D01*
X201284034Y-76090900D01*
X201299598Y-76049172D01*
X201305999Y-75989644D01*
X201306000Y-75989627D01*
X201306000Y-75941800D01*
X201301381Y-75937181D01*
X201276455Y-75891533D01*
X201273044Y-75899003D01*
X201252611Y-75912133D01*
X201234836Y-75928684D01*
X201222220Y-75931665D01*
X201214266Y-75936777D01*
X201179331Y-75941800D01*
X201009256Y-75941800D01*
X200954796Y-75929201D01*
X200907393Y-75906027D01*
X200861935Y-75899403D01*
X200798437Y-75870260D01*
X200760773Y-75811411D01*
X200760904Y-75741542D01*
X200798788Y-75682835D01*
X200842301Y-75658511D01*
X200851934Y-75655453D01*
X200907393Y-75647373D01*
X200962930Y-75620222D01*
X200971656Y-75617453D01*
X200997799Y-75616884D01*
X201023583Y-75612482D01*
X201032566Y-75616127D01*
X201041509Y-75615933D01*
X201060022Y-75627269D01*
X201084657Y-75637267D01*
X201104765Y-75652697D01*
X201104771Y-75652700D01*
X201226783Y-75703239D01*
X201235557Y-75710310D01*
X201246370Y-75713485D01*
X201262273Y-75731839D01*
X201281187Y-75747080D01*
X201284746Y-75757773D01*
X201292125Y-75766289D01*
X201293834Y-75778175D01*
X201314752Y-75750233D01*
X201380216Y-75725816D01*
X201389062Y-75725500D01*
X201882713Y-75725500D01*
X201882720Y-75725500D01*
X201995236Y-75710687D01*
X202135233Y-75652698D01*
X202217102Y-75589877D01*
X202282269Y-75564684D01*
X202350714Y-75578722D01*
X202380268Y-75600573D01*
X202502267Y-75722572D01*
X202502271Y-75722575D01*
X202646507Y-75811542D01*
X202646518Y-75811547D01*
X202807393Y-75864855D01*
X202906683Y-75874999D01*
X203430000Y-75874999D01*
X203453308Y-75874999D01*
X203453322Y-75874998D01*
X203552607Y-75864855D01*
X203713481Y-75811547D01*
X203713492Y-75811542D01*
X203857728Y-75722575D01*
X203857732Y-75722572D01*
X203977572Y-75602732D01*
X203977575Y-75602728D01*
X204066542Y-75458492D01*
X204066547Y-75458481D01*
X204119855Y-75297606D01*
X204129999Y-75198322D01*
X204130000Y-75198309D01*
X204130000Y-75150000D01*
X203430000Y-75150000D01*
X203430000Y-75874999D01*
X202906683Y-75874999D01*
X202930000Y-75874998D01*
X202930000Y-74650000D01*
X203430000Y-74650000D01*
X204129999Y-74650000D01*
X204129999Y-74601692D01*
X204129998Y-74601677D01*
X204119855Y-74502392D01*
X204066547Y-74341518D01*
X204066542Y-74341507D01*
X203977575Y-74197271D01*
X203977572Y-74197267D01*
X203857732Y-74077427D01*
X203857728Y-74077424D01*
X203713492Y-73988457D01*
X203713481Y-73988452D01*
X203552606Y-73935144D01*
X203453322Y-73925000D01*
X203430000Y-73925000D01*
X203430000Y-74650000D01*
X202930000Y-74650000D01*
X202930000Y-73924999D01*
X202906693Y-73925000D01*
X202906674Y-73925001D01*
X202807392Y-73935144D01*
X202646518Y-73988452D01*
X202646507Y-73988457D01*
X202502271Y-74077424D01*
X202380267Y-74199427D01*
X202318943Y-74232911D01*
X202249252Y-74227926D01*
X202217102Y-74210122D01*
X202135233Y-74147302D01*
X202135229Y-74147300D01*
X202030075Y-74103744D01*
X201995236Y-74089313D01*
X201981171Y-74087461D01*
X201882727Y-74074500D01*
X201882720Y-74074500D01*
X201357280Y-74074500D01*
X201357272Y-74074500D01*
X201244764Y-74089313D01*
X201244763Y-74089313D01*
X201104770Y-74147300D01*
X201104767Y-74147301D01*
X201104767Y-74147302D01*
X200984549Y-74239549D01*
X200906314Y-74341507D01*
X200892300Y-74359770D01*
X200834313Y-74499763D01*
X200832210Y-74507614D01*
X200829313Y-74506837D01*
X200820798Y-74525482D01*
X200806967Y-74556765D01*
X200806316Y-74557194D01*
X200805993Y-74557903D01*
X200777202Y-74576405D01*
X200748650Y-74595246D01*
X200747653Y-74595395D01*
X200747215Y-74595677D01*
X200712280Y-74600700D01*
X200669300Y-74600700D01*
X200602261Y-74581015D01*
X200556506Y-74528211D01*
X200545300Y-74476700D01*
X200545300Y-73459759D01*
X200564985Y-73392720D01*
X200617789Y-73346965D01*
X200686947Y-73337021D01*
X200750503Y-73366046D01*
X200756985Y-73372081D01*
X200764625Y-73379721D01*
X200903804Y-73462031D01*
X201050000Y-73504504D01*
X201050000Y-73504503D01*
X201550000Y-73504503D01*
X201696195Y-73462031D01*
X201835374Y-73379721D01*
X201835383Y-73379714D01*
X201949714Y-73265383D01*
X201949721Y-73265374D01*
X202032031Y-73126195D01*
X202032033Y-73126190D01*
X202077144Y-72970918D01*
X202077145Y-72970912D01*
X202078790Y-72950000D01*
X201550000Y-72950000D01*
X201550000Y-73504503D01*
X201050000Y-73504503D01*
X201050000Y-72824000D01*
X201069685Y-72756961D01*
X201122489Y-72711206D01*
X201174000Y-72700000D01*
X201300000Y-72700000D01*
X201300000Y-72574000D01*
X201319685Y-72506961D01*
X201372489Y-72461206D01*
X201424000Y-72450000D01*
X202078790Y-72450000D01*
X202077145Y-72429089D01*
X202032031Y-72273804D01*
X201949721Y-72134625D01*
X201949714Y-72134616D01*
X201835383Y-72020285D01*
X201835374Y-72020278D01*
X201696195Y-71937968D01*
X201696190Y-71937966D01*
X201605365Y-71911579D01*
X201601362Y-71909022D01*
X201596625Y-71908684D01*
X201572198Y-71890398D01*
X201546479Y-71873973D01*
X201544493Y-71869657D01*
X201540692Y-71866812D01*
X201530028Y-71838222D01*
X201517273Y-71810500D01*
X201517935Y-71805797D01*
X201516276Y-71801348D01*
X201522761Y-71771535D01*
X201527019Y-71741314D01*
X201530398Y-71736431D01*
X201531129Y-71733075D01*
X201552274Y-71704828D01*
X201594410Y-71662692D01*
X201655731Y-71629209D01*
X201720407Y-71632445D01*
X201838881Y-71670940D01*
X202025514Y-71700500D01*
X202025519Y-71700500D01*
X202214486Y-71700500D01*
X202401118Y-71670940D01*
X202426496Y-71662694D01*
X202580832Y-71612547D01*
X202749199Y-71526760D01*
X202902073Y-71415690D01*
X203035690Y-71282073D01*
X203146760Y-71129199D01*
X203232547Y-70960832D01*
X203272069Y-70839195D01*
X203311507Y-70781521D01*
X203375866Y-70754323D01*
X203444712Y-70766238D01*
X203496188Y-70813482D01*
X203507931Y-70839196D01*
X203547454Y-70960836D01*
X203589987Y-71044310D01*
X203633240Y-71129199D01*
X203744310Y-71282073D01*
X203877927Y-71415690D01*
X204030801Y-71526760D01*
X204110347Y-71567290D01*
X204199163Y-71612545D01*
X204199165Y-71612545D01*
X204199168Y-71612547D01*
X204295497Y-71643846D01*
X204378881Y-71670940D01*
X204565514Y-71700500D01*
X204565519Y-71700500D01*
X204754486Y-71700500D01*
X204941118Y-71670940D01*
X204966496Y-71662694D01*
X205120832Y-71612547D01*
X205289199Y-71526760D01*
X205442073Y-71415690D01*
X205575690Y-71282073D01*
X205686760Y-71129199D01*
X205772547Y-70960832D01*
X205830940Y-70781118D01*
X205843133Y-70704134D01*
X205860500Y-70594486D01*
X205860500Y-70405513D01*
X205830940Y-70218881D01*
X205772545Y-70039163D01*
X205686759Y-69870800D01*
X205661024Y-69835379D01*
X205575690Y-69717927D01*
X205442073Y-69584310D01*
X205289199Y-69473240D01*
X205120836Y-69387454D01*
X204941118Y-69329059D01*
X204754486Y-69299500D01*
X204754481Y-69299500D01*
X204565519Y-69299500D01*
X204565514Y-69299500D01*
X204378881Y-69329059D01*
X204199163Y-69387454D01*
X204030800Y-69473240D01*
X203974038Y-69514481D01*
X203877927Y-69584310D01*
X203877925Y-69584312D01*
X203877924Y-69584312D01*
X203744312Y-69717924D01*
X203744312Y-69717925D01*
X203744310Y-69717927D01*
X203727834Y-69740604D01*
X203633240Y-69870800D01*
X203547454Y-70039163D01*
X203507931Y-70160803D01*
X203468493Y-70218478D01*
X203404134Y-70245676D01*
X203335288Y-70233761D01*
X203283812Y-70186516D01*
X203272069Y-70160803D01*
X203232545Y-70039163D01*
X203146759Y-69870800D01*
X203121024Y-69835379D01*
X203035690Y-69717927D01*
X202902073Y-69584310D01*
X202749199Y-69473240D01*
X202580836Y-69387454D01*
X202401118Y-69329059D01*
X202214486Y-69299500D01*
X202214481Y-69299500D01*
X202025519Y-69299500D01*
X202025514Y-69299500D01*
X201838881Y-69329059D01*
X201659163Y-69387454D01*
X201490800Y-69473240D01*
X201434038Y-69514481D01*
X201337927Y-69584310D01*
X201337925Y-69584312D01*
X201337924Y-69584312D01*
X201204312Y-69717924D01*
X201204312Y-69717925D01*
X201204310Y-69717927D01*
X201187834Y-69740604D01*
X201093240Y-69870800D01*
X201007454Y-70039163D01*
X200967931Y-70160803D01*
X200928493Y-70218478D01*
X200864134Y-70245676D01*
X200795288Y-70233761D01*
X200743812Y-70186516D01*
X200732069Y-70160803D01*
X200692545Y-70039163D01*
X200606759Y-69870800D01*
X200581024Y-69835379D01*
X200495690Y-69717927D01*
X200362073Y-69584310D01*
X200209199Y-69473240D01*
X200040836Y-69387454D01*
X199861118Y-69329059D01*
X199674486Y-69299500D01*
X199674481Y-69299500D01*
X199485519Y-69299500D01*
X199485514Y-69299500D01*
X199298881Y-69329059D01*
X199119163Y-69387454D01*
X198950800Y-69473240D01*
X198894038Y-69514481D01*
X198797927Y-69584310D01*
X198797925Y-69584312D01*
X198797924Y-69584312D01*
X198664312Y-69717924D01*
X198664312Y-69717925D01*
X198664310Y-69717927D01*
X198647834Y-69740604D01*
X198553240Y-69870800D01*
X198467454Y-70039163D01*
X198427931Y-70160803D01*
X198388493Y-70218478D01*
X198324134Y-70245676D01*
X198255288Y-70233761D01*
X198203812Y-70186516D01*
X198192069Y-70160803D01*
X198152545Y-70039163D01*
X198066759Y-69870800D01*
X198041024Y-69835379D01*
X197955690Y-69717927D01*
X197822073Y-69584310D01*
X197669199Y-69473240D01*
X197500836Y-69387454D01*
X197321118Y-69329059D01*
X197134486Y-69299500D01*
X197134481Y-69299500D01*
X196945519Y-69299500D01*
X196945514Y-69299500D01*
X196758881Y-69329059D01*
X196579163Y-69387454D01*
X196410800Y-69473240D01*
X196354038Y-69514481D01*
X196257927Y-69584310D01*
X196257925Y-69584312D01*
X196257924Y-69584312D01*
X196124311Y-69717925D01*
X196074318Y-69786735D01*
X196018987Y-69829400D01*
X195949374Y-69835379D01*
X195887579Y-69802773D01*
X195853222Y-69741934D01*
X195850000Y-69713849D01*
X195850000Y-69602172D01*
X195849999Y-69602155D01*
X195843598Y-69542627D01*
X195843596Y-69542620D01*
X195793354Y-69407913D01*
X195793350Y-69407906D01*
X195707190Y-69292812D01*
X195707187Y-69292809D01*
X195592093Y-69206649D01*
X195592086Y-69206645D01*
X195457379Y-69156403D01*
X195457372Y-69156401D01*
X195397844Y-69150000D01*
X194750000Y-69150000D01*
X194750000Y-70066988D01*
X194692993Y-70034075D01*
X194565826Y-70000000D01*
X194434174Y-70000000D01*
X194307007Y-70034075D01*
X194250000Y-70066988D01*
X194250000Y-69150000D01*
X193602155Y-69150000D01*
X193542627Y-69156401D01*
X193542620Y-69156403D01*
X193407913Y-69206645D01*
X193407906Y-69206649D01*
X193292812Y-69292809D01*
X193292809Y-69292812D01*
X193206649Y-69407906D01*
X193206645Y-69407913D01*
X193156403Y-69542620D01*
X193156401Y-69542627D01*
X193150000Y-69602155D01*
X193150000Y-70250000D01*
X194066988Y-70250000D01*
X194034075Y-70307007D01*
X194000000Y-70434174D01*
X194000000Y-70565826D01*
X194034075Y-70692993D01*
X194066988Y-70750000D01*
X193150000Y-70750000D01*
X193150000Y-71397844D01*
X193156401Y-71457372D01*
X193156403Y-71457379D01*
X193206645Y-71592086D01*
X193206649Y-71592093D01*
X193292809Y-71707187D01*
X193292812Y-71707190D01*
X193407906Y-71793350D01*
X193407913Y-71793354D01*
X193542620Y-71843596D01*
X193542627Y-71843598D01*
X193602155Y-71849999D01*
X193602172Y-71850000D01*
X193823730Y-71850000D01*
X193890769Y-71869685D01*
X193936524Y-71922489D01*
X193946468Y-71991647D01*
X193917443Y-72055203D01*
X193858665Y-72092977D01*
X193858325Y-72093077D01*
X193703803Y-72137969D01*
X193564627Y-72220277D01*
X193564616Y-72220286D01*
X193542824Y-72242077D01*
X193481500Y-72275560D01*
X193411814Y-72270575D01*
X193345340Y-72245782D01*
X193345336Y-72245781D01*
X193345335Y-72245781D01*
X193286915Y-72239500D01*
X193286905Y-72239500D01*
X192913088Y-72239500D01*
X192913081Y-72239501D01*
X192854664Y-72245780D01*
X192722514Y-72295069D01*
X192722512Y-72295070D01*
X192609598Y-72379595D01*
X192609596Y-72379597D01*
X192594464Y-72399812D01*
X192538530Y-72441683D01*
X192495198Y-72449500D01*
X191908904Y-72449500D01*
X191841865Y-72429815D01*
X191796110Y-72377011D01*
X191786166Y-72307853D01*
X191790973Y-72287181D01*
X191805940Y-72241118D01*
X191835500Y-72054486D01*
X191835500Y-71865513D01*
X191805940Y-71678881D01*
X191747545Y-71499163D01*
X191661759Y-71330800D01*
X191550690Y-71177927D01*
X191417073Y-71044310D01*
X191264199Y-70933240D01*
X191095836Y-70847454D01*
X191021472Y-70823291D01*
X190974195Y-70807930D01*
X190916521Y-70768493D01*
X190889323Y-70704134D01*
X190901238Y-70635288D01*
X190948482Y-70583812D01*
X190974194Y-70572069D01*
X191095832Y-70532547D01*
X191264199Y-70446760D01*
X191417073Y-70335690D01*
X191550690Y-70202073D01*
X191661760Y-70049199D01*
X191747547Y-69880832D01*
X191805940Y-69701118D01*
X191825210Y-69579453D01*
X191835500Y-69514486D01*
X191835500Y-69325513D01*
X191805940Y-69138881D01*
X191747545Y-68959163D01*
X191661759Y-68790800D01*
X191550690Y-68637927D01*
X191417073Y-68504310D01*
X191264199Y-68393240D01*
X191095836Y-68307454D01*
X190916118Y-68249059D01*
X190729486Y-68219500D01*
X190729481Y-68219500D01*
X190540519Y-68219500D01*
X190540514Y-68219500D01*
X190353881Y-68249059D01*
X190174163Y-68307454D01*
X190005800Y-68393240D01*
X189918579Y-68456610D01*
X189852927Y-68504310D01*
X189852925Y-68504312D01*
X189852924Y-68504312D01*
X189719312Y-68637924D01*
X189719312Y-68637925D01*
X189719310Y-68637927D01*
X189703529Y-68659648D01*
X189608240Y-68790800D01*
X189522454Y-68959163D01*
X189464059Y-69138881D01*
X189434500Y-69325513D01*
X189434500Y-69514486D01*
X189464059Y-69701118D01*
X189522454Y-69880836D01*
X189583172Y-70000000D01*
X189608240Y-70049199D01*
X189719310Y-70202073D01*
X189852927Y-70335690D01*
X190005801Y-70446760D01*
X190085347Y-70487290D01*
X190174163Y-70532545D01*
X190174165Y-70532545D01*
X190174168Y-70532547D01*
X190263734Y-70561649D01*
X190295803Y-70572069D01*
X190353478Y-70611507D01*
X190380676Y-70675866D01*
X190368761Y-70744712D01*
X190321516Y-70796188D01*
X190295803Y-70807931D01*
X190174163Y-70847454D01*
X190005800Y-70933240D01*
X189960814Y-70965925D01*
X189852927Y-71044310D01*
X189852925Y-71044312D01*
X189852924Y-71044312D01*
X189719312Y-71177924D01*
X189719312Y-71177925D01*
X189719310Y-71177927D01*
X189689388Y-71219111D01*
X189608240Y-71330800D01*
X189522454Y-71499163D01*
X189464059Y-71678881D01*
X189434500Y-71865513D01*
X189434500Y-72054486D01*
X189464059Y-72241118D01*
X189522454Y-72420836D01*
X189600496Y-72574000D01*
X189608240Y-72589199D01*
X189719310Y-72742073D01*
X189852927Y-72875690D01*
X190005801Y-72986760D01*
X190082814Y-73026000D01*
X190174163Y-73072545D01*
X190174165Y-73072545D01*
X190174168Y-73072547D01*
X190189446Y-73077511D01*
X190295803Y-73112069D01*
X190353478Y-73151507D01*
X190380676Y-73215866D01*
X190368761Y-73284712D01*
X190321516Y-73336188D01*
X190295803Y-73347931D01*
X190174163Y-73387454D01*
X190005800Y-73473240D01*
X189918579Y-73536610D01*
X189852927Y-73584310D01*
X189852925Y-73584312D01*
X189852924Y-73584312D01*
X189719312Y-73717924D01*
X189719312Y-73717925D01*
X189719310Y-73717927D01*
X189676027Y-73777501D01*
X189608240Y-73870800D01*
X189522454Y-74039163D01*
X189464059Y-74218881D01*
X189434500Y-74405513D01*
X189434500Y-74594486D01*
X189464059Y-74781118D01*
X189522454Y-74960836D01*
X189555449Y-75025591D01*
X189608240Y-75129199D01*
X189719310Y-75282073D01*
X189852927Y-75415690D01*
X190005801Y-75526760D01*
X190058064Y-75553389D01*
X190174163Y-75612545D01*
X190174165Y-75612545D01*
X190174168Y-75612547D01*
X190225593Y-75629256D01*
X190295803Y-75652069D01*
X190353478Y-75691507D01*
X190380676Y-75755866D01*
X190368761Y-75824712D01*
X190321516Y-75876188D01*
X190295803Y-75887931D01*
X190174163Y-75927454D01*
X190005800Y-76013240D01*
X189936056Y-76063913D01*
X189852927Y-76124310D01*
X189852925Y-76124312D01*
X189852924Y-76124312D01*
X189719312Y-76257924D01*
X189719312Y-76257925D01*
X189719310Y-76257927D01*
X189678973Y-76313446D01*
X189608240Y-76410800D01*
X189522454Y-76579163D01*
X189464059Y-76758881D01*
X189434500Y-76945513D01*
X189434500Y-77134486D01*
X189464059Y-77321118D01*
X189522454Y-77500836D01*
X189592296Y-77637907D01*
X189608240Y-77669199D01*
X189719310Y-77822073D01*
X189852927Y-77955690D01*
X189912528Y-77998993D01*
X189921735Y-78005682D01*
X189964400Y-78061013D01*
X189970379Y-78130626D01*
X189937773Y-78192421D01*
X189876934Y-78226778D01*
X189848849Y-78230000D01*
X189737155Y-78230000D01*
X189677627Y-78236401D01*
X189677620Y-78236403D01*
X189542913Y-78286645D01*
X189542906Y-78286649D01*
X189427812Y-78372809D01*
X189427809Y-78372812D01*
X189341649Y-78487906D01*
X189341645Y-78487913D01*
X189291403Y-78622620D01*
X189291401Y-78622627D01*
X189285000Y-78682155D01*
X189285000Y-79330000D01*
X190201988Y-79330000D01*
X190169075Y-79387007D01*
X190135000Y-79514174D01*
X190135000Y-79645826D01*
X190169075Y-79772993D01*
X190201988Y-79830000D01*
X189285000Y-79830000D01*
X189285000Y-80477844D01*
X189291401Y-80537372D01*
X189291403Y-80537379D01*
X189341645Y-80672086D01*
X189341649Y-80672093D01*
X189427809Y-80787187D01*
X189427812Y-80787190D01*
X189542906Y-80873350D01*
X189542913Y-80873354D01*
X189677620Y-80923596D01*
X189677627Y-80923598D01*
X189737155Y-80929999D01*
X189737172Y-80930000D01*
X190385000Y-80930000D01*
X190385000Y-80013012D01*
X190442007Y-80045925D01*
X190569174Y-80080000D01*
X190700826Y-80080000D01*
X190827993Y-80045925D01*
X190885000Y-80013012D01*
X190885000Y-80930000D01*
X191532828Y-80930000D01*
X191532844Y-80929999D01*
X191592372Y-80923598D01*
X191592379Y-80923596D01*
X191727086Y-80873354D01*
X191727093Y-80873350D01*
X191842187Y-80787190D01*
X191842190Y-80787187D01*
X191928350Y-80672093D01*
X191928354Y-80672086D01*
X191978596Y-80537379D01*
X191978598Y-80537372D01*
X191984999Y-80477844D01*
X191985000Y-80477827D01*
X191985000Y-79830000D01*
X191068012Y-79830000D01*
X191100925Y-79772993D01*
X191135000Y-79645826D01*
X191135000Y-79514174D01*
X191100925Y-79387007D01*
X191068012Y-79330000D01*
X191985000Y-79330000D01*
X191985000Y-78954700D01*
X192004685Y-78887661D01*
X192057489Y-78841906D01*
X192109000Y-78830700D01*
X192835335Y-78830700D01*
X192902374Y-78850385D01*
X192948129Y-78903189D01*
X192958073Y-78972347D01*
X192929048Y-79035903D01*
X192923016Y-79042381D01*
X192439513Y-79525883D01*
X192439509Y-79525889D01*
X192380201Y-79628612D01*
X192380200Y-79628617D01*
X192349500Y-79743191D01*
X192349500Y-81062034D01*
X192329815Y-81129073D01*
X192313181Y-81149715D01*
X189762513Y-83700383D01*
X189762509Y-83700389D01*
X189703201Y-83803112D01*
X189703200Y-83803117D01*
X189700765Y-83812205D01*
X189672500Y-83917691D01*
X189672500Y-85027179D01*
X189677496Y-85045823D01*
X189688344Y-85086308D01*
X189688344Y-85086310D01*
X189703199Y-85141754D01*
X189703201Y-85141757D01*
X189762511Y-85244484D01*
X189762513Y-85244486D01*
X190470597Y-85952571D01*
X190499957Y-85999297D01*
X190522206Y-86062880D01*
X190522207Y-86062882D01*
X190602850Y-86172150D01*
X190712118Y-86252793D01*
X190754845Y-86267744D01*
X190840299Y-86297646D01*
X190870730Y-86300500D01*
X190870734Y-86300500D01*
X190925500Y-86300500D01*
X190992539Y-86320185D01*
X191038294Y-86372989D01*
X191049500Y-86424500D01*
X191049500Y-87115489D01*
X191029815Y-87182528D01*
X190977011Y-87228283D01*
X190941686Y-87238428D01*
X190919421Y-87241359D01*
X190892337Y-87244925D01*
X190892336Y-87244925D01*
X190892333Y-87244926D01*
X190746558Y-87305307D01*
X190746557Y-87305307D01*
X190702323Y-87339250D01*
X190648284Y-87380715D01*
X190583117Y-87405909D01*
X190514672Y-87391871D01*
X190485118Y-87370020D01*
X190465383Y-87350285D01*
X190465374Y-87350278D01*
X190326195Y-87267968D01*
X190326190Y-87267966D01*
X190170918Y-87222855D01*
X190170912Y-87222854D01*
X190150000Y-87221209D01*
X190150000Y-87876000D01*
X190130315Y-87943039D01*
X190077511Y-87988794D01*
X190026000Y-88000000D01*
X189900000Y-88000000D01*
X189900000Y-88126000D01*
X189880315Y-88193039D01*
X189827511Y-88238794D01*
X189776000Y-88250000D01*
X189095495Y-88250000D01*
X189100116Y-88265905D01*
X189099917Y-88335775D01*
X189061975Y-88394445D01*
X188998336Y-88423288D01*
X188981040Y-88424500D01*
X188506724Y-88424500D01*
X188475450Y-88427432D01*
X188475448Y-88427432D01*
X188343714Y-88473529D01*
X188343705Y-88473534D01*
X188231411Y-88556410D01*
X188231410Y-88556411D01*
X188148534Y-88668705D01*
X188148529Y-88668714D01*
X188102432Y-88800448D01*
X188102432Y-88800450D01*
X188099500Y-88831723D01*
X188099500Y-89168276D01*
X188102432Y-89199549D01*
X188102432Y-89199551D01*
X188148529Y-89331285D01*
X188148534Y-89331294D01*
X188168011Y-89357684D01*
X188231411Y-89443589D01*
X188249132Y-89456668D01*
X188291384Y-89512313D01*
X188299500Y-89556438D01*
X188299500Y-91439308D01*
X188317341Y-91505892D01*
X188330201Y-91553888D01*
X188359856Y-91605250D01*
X188389511Y-91656614D01*
X188389513Y-91656616D01*
X192089181Y-95356284D01*
X192122666Y-95417607D01*
X192125500Y-95443965D01*
X192125500Y-96407260D01*
X192135426Y-96475391D01*
X192186803Y-96580485D01*
X192269514Y-96663196D01*
X192269515Y-96663196D01*
X192269517Y-96663198D01*
X192374607Y-96714573D01*
X192408673Y-96719536D01*
X192442739Y-96724500D01*
X192442740Y-96724500D01*
X193777261Y-96724500D01*
X193799971Y-96721191D01*
X193845393Y-96714573D01*
X193950483Y-96663198D01*
X194033198Y-96580483D01*
X194084573Y-96475393D01*
X194094500Y-96407260D01*
X194094500Y-95072740D01*
X194084573Y-95004607D01*
X194033198Y-94899517D01*
X194033196Y-94899515D01*
X194033196Y-94899514D01*
X193950485Y-94816803D01*
X193845391Y-94765426D01*
X193777261Y-94755500D01*
X193777260Y-94755500D01*
X192813965Y-94755500D01*
X192746926Y-94735815D01*
X192726284Y-94719181D01*
X189502303Y-91495200D01*
X189468818Y-91433877D01*
X189473802Y-91364185D01*
X189515674Y-91308252D01*
X189581138Y-91283835D01*
X189649411Y-91298687D01*
X189658875Y-91304417D01*
X189691866Y-91326461D01*
X189691872Y-91326464D01*
X189691873Y-91326465D01*
X189810256Y-91375501D01*
X189810260Y-91375501D01*
X189810261Y-91375502D01*
X189935928Y-91400500D01*
X189935931Y-91400500D01*
X190064071Y-91400500D01*
X190148615Y-91383682D01*
X190189744Y-91375501D01*
X190308127Y-91326465D01*
X190414669Y-91255276D01*
X190505276Y-91164669D01*
X190576465Y-91058127D01*
X190625501Y-90939744D01*
X190650273Y-90815209D01*
X190682658Y-90753299D01*
X190743374Y-90718725D01*
X190813143Y-90722464D01*
X190819342Y-90724840D01*
X190847741Y-90736603D01*
X190892337Y-90755075D01*
X191009502Y-90770500D01*
X191262035Y-90770500D01*
X191329074Y-90790185D01*
X191349716Y-90806819D01*
X193390182Y-92847285D01*
X193423667Y-92908608D01*
X193424118Y-92959157D01*
X193395500Y-93103030D01*
X193395500Y-93296969D01*
X193433331Y-93487160D01*
X193433333Y-93487168D01*
X193507545Y-93666333D01*
X193615288Y-93827581D01*
X193615291Y-93827585D01*
X193752414Y-93964708D01*
X193752418Y-93964711D01*
X193913664Y-94072453D01*
X194092832Y-94146667D01*
X194283030Y-94184499D01*
X194283034Y-94184500D01*
X194283035Y-94184500D01*
X194476966Y-94184500D01*
X194476967Y-94184499D01*
X194667168Y-94146667D01*
X194846336Y-94072453D01*
X195006609Y-93965360D01*
X195073286Y-93944483D01*
X195140667Y-93962967D01*
X195187357Y-94014946D01*
X195199500Y-94068463D01*
X195199500Y-94790686D01*
X195179815Y-94857725D01*
X195144391Y-94893788D01*
X195022418Y-94975288D01*
X195022414Y-94975291D01*
X194885291Y-95112414D01*
X194885288Y-95112418D01*
X194777545Y-95273666D01*
X194703333Y-95452831D01*
X194703331Y-95452839D01*
X194665500Y-95643030D01*
X194665500Y-95836969D01*
X194703331Y-96027160D01*
X194703333Y-96027168D01*
X194777545Y-96206333D01*
X194885288Y-96367581D01*
X194885291Y-96367585D01*
X195022414Y-96504708D01*
X195022418Y-96504711D01*
X195183664Y-96612453D01*
X195362832Y-96686667D01*
X195503128Y-96714573D01*
X195553030Y-96724499D01*
X195553034Y-96724500D01*
X195553035Y-96724500D01*
X195746966Y-96724500D01*
X195746967Y-96724499D01*
X195937168Y-96686667D01*
X196116336Y-96612453D01*
X196277582Y-96504711D01*
X196414711Y-96367582D01*
X196522453Y-96206336D01*
X196596667Y-96027168D01*
X196634500Y-95836965D01*
X196634500Y-95643035D01*
X196596667Y-95452832D01*
X196522453Y-95273664D01*
X196414711Y-95112418D01*
X196414708Y-95112414D01*
X196277585Y-94975291D01*
X196277581Y-94975288D01*
X196155609Y-94893788D01*
X196110804Y-94840175D01*
X196100500Y-94790686D01*
X196100500Y-94068463D01*
X196120185Y-94001424D01*
X196172989Y-93955669D01*
X196242147Y-93945725D01*
X196293390Y-93965360D01*
X196453664Y-94072453D01*
X196632832Y-94146667D01*
X196823030Y-94184499D01*
X196823034Y-94184500D01*
X196823035Y-94184500D01*
X197016966Y-94184500D01*
X197016967Y-94184499D01*
X197207168Y-94146667D01*
X197386336Y-94072453D01*
X197546609Y-93965360D01*
X197613286Y-93944483D01*
X197680667Y-93962967D01*
X197727357Y-94014946D01*
X197739500Y-94068463D01*
X197739500Y-94790686D01*
X197719815Y-94857725D01*
X197684391Y-94893788D01*
X197562418Y-94975288D01*
X197562414Y-94975291D01*
X197425291Y-95112414D01*
X197425288Y-95112418D01*
X197317545Y-95273666D01*
X197243333Y-95452831D01*
X197243331Y-95452839D01*
X197205500Y-95643030D01*
X197205500Y-95836969D01*
X197243331Y-96027160D01*
X197243333Y-96027168D01*
X197317545Y-96206333D01*
X197425288Y-96367581D01*
X197425291Y-96367585D01*
X197562414Y-96504708D01*
X197562418Y-96504711D01*
X197723664Y-96612453D01*
X197902832Y-96686667D01*
X198043128Y-96714573D01*
X198093030Y-96724499D01*
X198093034Y-96724500D01*
X198093035Y-96724500D01*
X198286966Y-96724500D01*
X198286967Y-96724499D01*
X198477168Y-96686667D01*
X198656336Y-96612453D01*
X198817582Y-96504711D01*
X198954711Y-96367582D01*
X199062453Y-96206336D01*
X199136667Y-96027168D01*
X199174500Y-95836965D01*
X199174500Y-95643035D01*
X199136667Y-95452832D01*
X199062453Y-95273664D01*
X198954711Y-95112418D01*
X198954708Y-95112414D01*
X198817585Y-94975291D01*
X198817581Y-94975288D01*
X198695609Y-94893788D01*
X198650804Y-94840175D01*
X198640500Y-94790686D01*
X198640500Y-94068463D01*
X198660185Y-94001424D01*
X198712989Y-93955669D01*
X198782147Y-93945725D01*
X198833390Y-93965360D01*
X198993664Y-94072453D01*
X199172832Y-94146667D01*
X199363030Y-94184499D01*
X199363034Y-94184500D01*
X199363035Y-94184500D01*
X199556966Y-94184500D01*
X199556967Y-94184499D01*
X199747168Y-94146667D01*
X199926336Y-94072453D01*
X200087582Y-93964711D01*
X200224711Y-93827582D01*
X200332453Y-93666336D01*
X200406667Y-93487168D01*
X200444500Y-93296965D01*
X200444500Y-93103035D01*
X200415881Y-92959155D01*
X200422108Y-92889565D01*
X200449814Y-92847287D01*
X200828343Y-92468759D01*
X200889663Y-92435276D01*
X200959355Y-92440260D01*
X201015288Y-92482132D01*
X201039705Y-92547596D01*
X201026506Y-92612736D01*
X200949083Y-92764687D01*
X200893921Y-92934459D01*
X200866000Y-93110747D01*
X200866000Y-93289252D01*
X200893921Y-93465540D01*
X200949083Y-93635312D01*
X201030112Y-93794341D01*
X201039367Y-93807077D01*
X201620000Y-93226445D01*
X201620000Y-93250028D01*
X201645896Y-93346675D01*
X201695924Y-93433325D01*
X201766675Y-93504076D01*
X201853325Y-93554104D01*
X201949972Y-93580000D01*
X201973554Y-93580000D01*
X201392921Y-94160631D01*
X201405652Y-94169882D01*
X201564690Y-94250917D01*
X201734459Y-94306078D01*
X201910748Y-94334000D01*
X202089252Y-94334000D01*
X202265540Y-94306078D01*
X202435309Y-94250917D01*
X202594345Y-94169884D01*
X202607078Y-94160631D01*
X202026447Y-93580000D01*
X202050028Y-93580000D01*
X202146675Y-93554104D01*
X202233325Y-93504076D01*
X202304076Y-93433325D01*
X202354104Y-93346675D01*
X202380000Y-93250028D01*
X202380000Y-93226446D01*
X202960631Y-93807078D01*
X202969884Y-93794345D01*
X203050917Y-93635309D01*
X203106078Y-93465540D01*
X203134000Y-93289252D01*
X203134000Y-93110747D01*
X203106078Y-92934459D01*
X203050917Y-92764690D01*
X202969882Y-92605652D01*
X202960631Y-92592921D01*
X202380000Y-93173552D01*
X202380000Y-93149972D01*
X202354104Y-93053325D01*
X202304076Y-92966675D01*
X202233325Y-92895924D01*
X202146675Y-92845896D01*
X202050028Y-92820000D01*
X202026446Y-92820000D01*
X202607078Y-92239367D01*
X202594341Y-92230112D01*
X202435312Y-92149083D01*
X202265540Y-92093921D01*
X202089252Y-92066000D01*
X201910748Y-92066000D01*
X201734459Y-92093921D01*
X201564690Y-92149082D01*
X201412739Y-92226506D01*
X201344069Y-92239402D01*
X201279329Y-92213126D01*
X201239072Y-92156019D01*
X201236080Y-92086213D01*
X201268763Y-92028340D01*
X201489181Y-91807922D01*
X201860490Y-91436614D01*
X201919799Y-91333887D01*
X201926285Y-91309675D01*
X201926286Y-91309675D01*
X201926286Y-91309671D01*
X201950500Y-91219309D01*
X201950500Y-90884510D01*
X201970185Y-90817471D01*
X202022989Y-90771716D01*
X202058311Y-90761572D01*
X202107663Y-90755075D01*
X202253441Y-90694692D01*
X202253442Y-90694692D01*
X202253442Y-90694691D01*
X202253446Y-90694690D01*
X202378631Y-90598631D01*
X202474690Y-90473446D01*
X202535075Y-90327663D01*
X202550500Y-90210498D01*
X202550500Y-89609502D01*
X202549782Y-89604052D01*
X202547123Y-89583853D01*
X202535075Y-89492337D01*
X202477896Y-89354295D01*
X202470428Y-89284828D01*
X202501703Y-89222349D01*
X202504744Y-89219197D01*
X202861489Y-88862454D01*
X202907898Y-88782069D01*
X202958462Y-88733856D01*
X203027069Y-88720632D01*
X203091934Y-88746599D01*
X203113660Y-88768585D01*
X203118582Y-88775000D01*
X203121369Y-88778631D01*
X203246554Y-88874690D01*
X203246557Y-88874691D01*
X203246558Y-88874692D01*
X203272503Y-88885439D01*
X203326907Y-88929280D01*
X203348972Y-88995574D01*
X203331693Y-89063273D01*
X203280556Y-89110884D01*
X203272503Y-89114561D01*
X203246558Y-89125307D01*
X203246557Y-89125307D01*
X203121369Y-89221369D01*
X203025307Y-89346557D01*
X203025307Y-89346558D01*
X202964926Y-89492333D01*
X202964925Y-89492337D01*
X202949500Y-89609494D01*
X202949500Y-90210505D01*
X202964925Y-90327662D01*
X202964926Y-90327666D01*
X203025307Y-90473441D01*
X203025307Y-90473442D01*
X203025309Y-90473445D01*
X203025310Y-90473446D01*
X203121369Y-90598631D01*
X203246554Y-90694690D01*
X203246557Y-90694691D01*
X203246558Y-90694692D01*
X203259600Y-90700094D01*
X203392337Y-90755075D01*
X203441686Y-90761571D01*
X203505581Y-90789837D01*
X203544053Y-90848161D01*
X203549500Y-90884510D01*
X203549500Y-94012035D01*
X203529815Y-94079074D01*
X203513181Y-94099716D01*
X202359716Y-95253181D01*
X202298393Y-95286666D01*
X202272035Y-95289500D01*
X201679314Y-95289500D01*
X201612275Y-95269815D01*
X201576212Y-95234391D01*
X201494711Y-95112418D01*
X201494708Y-95112414D01*
X201357585Y-94975291D01*
X201357581Y-94975288D01*
X201196333Y-94867545D01*
X201017168Y-94793333D01*
X201017160Y-94793331D01*
X200826969Y-94755500D01*
X200826965Y-94755500D01*
X200633035Y-94755500D01*
X200633030Y-94755500D01*
X200442839Y-94793331D01*
X200442831Y-94793333D01*
X200263666Y-94867545D01*
X200102418Y-94975288D01*
X200102414Y-94975291D01*
X199965291Y-95112414D01*
X199965288Y-95112418D01*
X199857545Y-95273666D01*
X199783333Y-95452831D01*
X199783331Y-95452839D01*
X199745500Y-95643030D01*
X199745500Y-95836969D01*
X199783331Y-96027160D01*
X199783333Y-96027168D01*
X199857545Y-96206333D01*
X199965288Y-96367581D01*
X199965291Y-96367585D01*
X200102414Y-96504708D01*
X200102418Y-96504711D01*
X200263664Y-96612453D01*
X200442832Y-96686667D01*
X200583128Y-96714573D01*
X200633030Y-96724499D01*
X200633034Y-96724500D01*
X200633035Y-96724500D01*
X200826966Y-96724500D01*
X200826967Y-96724499D01*
X201017168Y-96686667D01*
X201196336Y-96612453D01*
X201357582Y-96504711D01*
X201494711Y-96367582D01*
X201537962Y-96302851D01*
X201576212Y-96245609D01*
X201629825Y-96200804D01*
X201679314Y-96190500D01*
X202569308Y-96190500D01*
X202569309Y-96190500D01*
X202659673Y-96166286D01*
X202683887Y-96159799D01*
X202786614Y-96100489D01*
X204360489Y-94526614D01*
X204419799Y-94423887D01*
X204431424Y-94380500D01*
X204450500Y-94309309D01*
X204450500Y-90884510D01*
X204470185Y-90817471D01*
X204522989Y-90771716D01*
X204558311Y-90761572D01*
X204607663Y-90755075D01*
X204753441Y-90694692D01*
X204753442Y-90694692D01*
X204753442Y-90694691D01*
X204753446Y-90694690D01*
X204878631Y-90598631D01*
X204974690Y-90473446D01*
X205035075Y-90327663D01*
X205050500Y-90210498D01*
X205050500Y-89609502D01*
X205049782Y-89604052D01*
X205047123Y-89583853D01*
X205035075Y-89492337D01*
X205004882Y-89419445D01*
X204974692Y-89346558D01*
X204974692Y-89346557D01*
X204962980Y-89331294D01*
X204878631Y-89221369D01*
X204753446Y-89125310D01*
X204727496Y-89114561D01*
X204673093Y-89070722D01*
X204651027Y-89004428D01*
X204668305Y-88936728D01*
X204719442Y-88889117D01*
X204727495Y-88885439D01*
X204753446Y-88874690D01*
X204878631Y-88778631D01*
X204974690Y-88653446D01*
X205035075Y-88507663D01*
X205050500Y-88390498D01*
X205050500Y-87789502D01*
X205035075Y-87672337D01*
X205004882Y-87599445D01*
X204974692Y-87526558D01*
X204974692Y-87526557D01*
X204974690Y-87526554D01*
X204878631Y-87401369D01*
X204753446Y-87305310D01*
X204753443Y-87305309D01*
X204753441Y-87305307D01*
X204607666Y-87244926D01*
X204607664Y-87244925D01*
X204607663Y-87244925D01*
X204572688Y-87240320D01*
X204558314Y-87238428D01*
X204494418Y-87210161D01*
X204455947Y-87151836D01*
X204450500Y-87115489D01*
X204450500Y-85045823D01*
X204450500Y-85045821D01*
X204419799Y-84931244D01*
X204419799Y-84931243D01*
X204419799Y-84931242D01*
X204360492Y-84828519D01*
X204360488Y-84828514D01*
X203779402Y-84247429D01*
X203750041Y-84200701D01*
X203749732Y-84199819D01*
X203727793Y-84137118D01*
X203647150Y-84027850D01*
X203647146Y-84027847D01*
X203600866Y-83993690D01*
X203558615Y-83938042D01*
X203550500Y-83893920D01*
X203550500Y-80329434D01*
X203570185Y-80262395D01*
X203622989Y-80216640D01*
X203663179Y-80209265D01*
X204503958Y-79368487D01*
X204528978Y-79428890D01*
X204600112Y-79535351D01*
X204690649Y-79625888D01*
X204797110Y-79697022D01*
X204857511Y-79722041D01*
X204021275Y-80558277D01*
X204102827Y-80620854D01*
X204102828Y-80620855D01*
X204307171Y-80738834D01*
X204307180Y-80738839D01*
X204525163Y-80829129D01*
X204525161Y-80829129D01*
X204753085Y-80890200D01*
X204987014Y-80920999D01*
X204987029Y-80921000D01*
X205222971Y-80921000D01*
X205222985Y-80920999D01*
X205456914Y-80890200D01*
X205684837Y-80829129D01*
X205902819Y-80738839D01*
X205902828Y-80738834D01*
X206107181Y-80620850D01*
X206188723Y-80558279D01*
X206188723Y-80558276D01*
X205352487Y-79722041D01*
X205412890Y-79697022D01*
X205519351Y-79625888D01*
X205609888Y-79535351D01*
X205681022Y-79428890D01*
X205706041Y-79368488D01*
X206542276Y-80204723D01*
X206546170Y-80204468D01*
X206594194Y-80169402D01*
X206663940Y-80165248D01*
X206724860Y-80199461D01*
X206757613Y-80261179D01*
X206760137Y-80285149D01*
X206829980Y-89469460D01*
X206830958Y-89598062D01*
X206981349Y-109374557D01*
X206962175Y-109441744D01*
X206909721Y-109487899D01*
X206857353Y-109499500D01*
X180624500Y-109499500D01*
X180557461Y-109479815D01*
X180511706Y-109427011D01*
X180500500Y-109375500D01*
X180500500Y-100381947D01*
X182480000Y-100381947D01*
X182480000Y-100618052D01*
X182516934Y-100851247D01*
X182589897Y-101075802D01*
X182697087Y-101286174D01*
X182757338Y-101369104D01*
X182757340Y-101369105D01*
X183497037Y-100629408D01*
X183514075Y-100692993D01*
X183579901Y-100807007D01*
X183672993Y-100900099D01*
X183787007Y-100965925D01*
X183850590Y-100982962D01*
X183110893Y-101722658D01*
X183193828Y-101782914D01*
X183404197Y-101890102D01*
X183628752Y-101963065D01*
X183628751Y-101963065D01*
X183861948Y-102000000D01*
X184098052Y-102000000D01*
X184331247Y-101963065D01*
X184555802Y-101890102D01*
X184766163Y-101782918D01*
X184766169Y-101782914D01*
X184849104Y-101722658D01*
X184849105Y-101722658D01*
X184109408Y-100982962D01*
X184172993Y-100965925D01*
X184287007Y-100900099D01*
X184380099Y-100807007D01*
X184445925Y-100692993D01*
X184462962Y-100629409D01*
X185202657Y-101369104D01*
X185240275Y-101366144D01*
X185259735Y-101366144D01*
X185297340Y-101369104D01*
X186037037Y-100629408D01*
X186054075Y-100692993D01*
X186119901Y-100807007D01*
X186212993Y-100900099D01*
X186327007Y-100965925D01*
X186390590Y-100982962D01*
X185650893Y-101722658D01*
X185733828Y-101782914D01*
X185944197Y-101890102D01*
X186168752Y-101963065D01*
X186168751Y-101963065D01*
X186401948Y-102000000D01*
X186638052Y-102000000D01*
X186835600Y-101968711D01*
X189989500Y-101968711D01*
X189989500Y-102211288D01*
X190021161Y-102451785D01*
X190083947Y-102686104D01*
X190176773Y-102910205D01*
X190176776Y-102910212D01*
X190298064Y-103120289D01*
X190298066Y-103120292D01*
X190298067Y-103120293D01*
X190445733Y-103312736D01*
X190445739Y-103312743D01*
X190617256Y-103484260D01*
X190617262Y-103484265D01*
X190809711Y-103631936D01*
X191019788Y-103753224D01*
X191243900Y-103846054D01*
X191478211Y-103908838D01*
X191658586Y-103932584D01*
X191718711Y-103940500D01*
X191718712Y-103940500D01*
X191961289Y-103940500D01*
X192009388Y-103934167D01*
X192201789Y-103908838D01*
X192436100Y-103846054D01*
X192660212Y-103753224D01*
X192870289Y-103631936D01*
X193062738Y-103484265D01*
X193234265Y-103312738D01*
X193381936Y-103120289D01*
X193503224Y-102910212D01*
X193596054Y-102686100D01*
X193658838Y-102451789D01*
X193690500Y-102211288D01*
X193690500Y-101968712D01*
X193690500Y-101968711D01*
X201419500Y-101968711D01*
X201419500Y-102211288D01*
X201451161Y-102451785D01*
X201513947Y-102686104D01*
X201606773Y-102910205D01*
X201606776Y-102910212D01*
X201728064Y-103120289D01*
X201728066Y-103120292D01*
X201728067Y-103120293D01*
X201875733Y-103312736D01*
X201875739Y-103312743D01*
X202047256Y-103484260D01*
X202047262Y-103484265D01*
X202239711Y-103631936D01*
X202449788Y-103753224D01*
X202673900Y-103846054D01*
X202908211Y-103908838D01*
X203088586Y-103932584D01*
X203148711Y-103940500D01*
X203148712Y-103940500D01*
X203391289Y-103940500D01*
X203439388Y-103934167D01*
X203631789Y-103908838D01*
X203866100Y-103846054D01*
X204090212Y-103753224D01*
X204300289Y-103631936D01*
X204492738Y-103484265D01*
X204664265Y-103312738D01*
X204811936Y-103120289D01*
X204933224Y-102910212D01*
X205026054Y-102686100D01*
X205088838Y-102451789D01*
X205120500Y-102211288D01*
X205120500Y-101968712D01*
X205088838Y-101728211D01*
X205026054Y-101493900D01*
X204933224Y-101269788D01*
X204811936Y-101059711D01*
X204664265Y-100867262D01*
X204664260Y-100867256D01*
X204492743Y-100695739D01*
X204492736Y-100695733D01*
X204300293Y-100548067D01*
X204300292Y-100548066D01*
X204300289Y-100548064D01*
X204090212Y-100426776D01*
X204090205Y-100426773D01*
X203866104Y-100333947D01*
X203631785Y-100271161D01*
X203391289Y-100239500D01*
X203391288Y-100239500D01*
X203148712Y-100239500D01*
X203148711Y-100239500D01*
X202908214Y-100271161D01*
X202673895Y-100333947D01*
X202449794Y-100426773D01*
X202449785Y-100426777D01*
X202239706Y-100548067D01*
X202047263Y-100695733D01*
X202047256Y-100695739D01*
X201875739Y-100867256D01*
X201875733Y-100867263D01*
X201728067Y-101059706D01*
X201606777Y-101269785D01*
X201606773Y-101269794D01*
X201513947Y-101493895D01*
X201451161Y-101728214D01*
X201419500Y-101968711D01*
X193690500Y-101968711D01*
X193658838Y-101728211D01*
X193596054Y-101493900D01*
X193503224Y-101269788D01*
X193381936Y-101059711D01*
X193234265Y-100867262D01*
X193234260Y-100867256D01*
X193062743Y-100695739D01*
X193062736Y-100695733D01*
X192870293Y-100548067D01*
X192870292Y-100548066D01*
X192870289Y-100548064D01*
X192660212Y-100426776D01*
X192660205Y-100426773D01*
X192436104Y-100333947D01*
X192201785Y-100271161D01*
X191961289Y-100239500D01*
X191961288Y-100239500D01*
X191718712Y-100239500D01*
X191718711Y-100239500D01*
X191478214Y-100271161D01*
X191243895Y-100333947D01*
X191019794Y-100426773D01*
X191019785Y-100426777D01*
X190809706Y-100548067D01*
X190617263Y-100695733D01*
X190617256Y-100695739D01*
X190445739Y-100867256D01*
X190445733Y-100867263D01*
X190298067Y-101059706D01*
X190176777Y-101269785D01*
X190176773Y-101269794D01*
X190083947Y-101493895D01*
X190021161Y-101728214D01*
X189989500Y-101968711D01*
X186835600Y-101968711D01*
X186871247Y-101963065D01*
X187095802Y-101890102D01*
X187166329Y-101854168D01*
X187306163Y-101782918D01*
X187306169Y-101782914D01*
X187389104Y-101722658D01*
X187389105Y-101722658D01*
X186649408Y-100982962D01*
X186712993Y-100965925D01*
X186827007Y-100900099D01*
X186920099Y-100807007D01*
X186985925Y-100692993D01*
X187002962Y-100629409D01*
X187742658Y-101369105D01*
X187742658Y-101369104D01*
X187802914Y-101286169D01*
X187802918Y-101286163D01*
X187910102Y-101075802D01*
X187983065Y-100851247D01*
X188020000Y-100618052D01*
X188020000Y-100381947D01*
X187983065Y-100148752D01*
X187910102Y-99924197D01*
X187802914Y-99713828D01*
X187742658Y-99630894D01*
X187742658Y-99630893D01*
X187002962Y-100370590D01*
X186985925Y-100307007D01*
X186920099Y-100192993D01*
X186827007Y-100099901D01*
X186712993Y-100034075D01*
X186649409Y-100017037D01*
X187389105Y-99277340D01*
X187389104Y-99277338D01*
X187306174Y-99217087D01*
X187095802Y-99109897D01*
X186871247Y-99036934D01*
X186871248Y-99036934D01*
X186638052Y-99000000D01*
X186401948Y-99000000D01*
X186168752Y-99036934D01*
X185944197Y-99109897D01*
X185733830Y-99217084D01*
X185650894Y-99277340D01*
X186390591Y-100017037D01*
X186327007Y-100034075D01*
X186212993Y-100099901D01*
X186119901Y-100192993D01*
X186054075Y-100307007D01*
X186037037Y-100370591D01*
X185297340Y-99630894D01*
X185259733Y-99633854D01*
X185240276Y-99633854D01*
X185202658Y-99630893D01*
X184462962Y-100370590D01*
X184445925Y-100307007D01*
X184380099Y-100192993D01*
X184287007Y-100099901D01*
X184172993Y-100034075D01*
X184109409Y-100017037D01*
X184849105Y-99277340D01*
X184849104Y-99277339D01*
X184766174Y-99217087D01*
X184555802Y-99109897D01*
X184331247Y-99036934D01*
X184331248Y-99036934D01*
X184098052Y-99000000D01*
X183861948Y-99000000D01*
X183628752Y-99036934D01*
X183404197Y-99109897D01*
X183193830Y-99217084D01*
X183110894Y-99277340D01*
X183850591Y-100017037D01*
X183787007Y-100034075D01*
X183672993Y-100099901D01*
X183579901Y-100192993D01*
X183514075Y-100307007D01*
X183497037Y-100370591D01*
X182757340Y-99630894D01*
X182697084Y-99713830D01*
X182589897Y-99924197D01*
X182516934Y-100148752D01*
X182480000Y-100381947D01*
X180500500Y-100381947D01*
X180500500Y-96393713D01*
X182609500Y-96393713D01*
X182609500Y-96606286D01*
X182642753Y-96816239D01*
X182708444Y-97018414D01*
X182804951Y-97207820D01*
X182929890Y-97379786D01*
X183080213Y-97530109D01*
X183252179Y-97655048D01*
X183252181Y-97655049D01*
X183252184Y-97655051D01*
X183441588Y-97751557D01*
X183643757Y-97817246D01*
X183853713Y-97850500D01*
X183853714Y-97850500D01*
X184066286Y-97850500D01*
X184066287Y-97850500D01*
X184276243Y-97817246D01*
X184478412Y-97751557D01*
X184667816Y-97655051D01*
X184689789Y-97639086D01*
X184839786Y-97530109D01*
X184839788Y-97530106D01*
X184839792Y-97530104D01*
X184990104Y-97379792D01*
X184990106Y-97379788D01*
X184990109Y-97379786D01*
X185115048Y-97207820D01*
X185115047Y-97207820D01*
X185115051Y-97207816D01*
X185119514Y-97199054D01*
X185167488Y-97148259D01*
X185235308Y-97131463D01*
X185301444Y-97153999D01*
X185340486Y-97199056D01*
X185344951Y-97207820D01*
X185469890Y-97379786D01*
X185620213Y-97530109D01*
X185792179Y-97655048D01*
X185792181Y-97655049D01*
X185792184Y-97655051D01*
X185981588Y-97751557D01*
X186183757Y-97817246D01*
X186393713Y-97850500D01*
X186393714Y-97850500D01*
X186606286Y-97850500D01*
X186606287Y-97850500D01*
X186816243Y-97817246D01*
X187018412Y-97751557D01*
X187207816Y-97655051D01*
X187229789Y-97639086D01*
X187379786Y-97530109D01*
X187379788Y-97530106D01*
X187379792Y-97530104D01*
X187530104Y-97379792D01*
X187530106Y-97379788D01*
X187530109Y-97379786D01*
X187655048Y-97207820D01*
X187655047Y-97207820D01*
X187655051Y-97207816D01*
X187751557Y-97018412D01*
X187817246Y-96816243D01*
X187850500Y-96606287D01*
X187850500Y-96393713D01*
X187817246Y-96183757D01*
X187751557Y-95981588D01*
X187655051Y-95792184D01*
X187655049Y-95792181D01*
X187655048Y-95792179D01*
X187530109Y-95620213D01*
X187379786Y-95469890D01*
X187207820Y-95344951D01*
X187018414Y-95248444D01*
X187018413Y-95248443D01*
X187018412Y-95248443D01*
X186816243Y-95182754D01*
X186816241Y-95182753D01*
X186816240Y-95182753D01*
X186654957Y-95157208D01*
X186606287Y-95149500D01*
X186393713Y-95149500D01*
X186345042Y-95157208D01*
X186183760Y-95182753D01*
X185981585Y-95248444D01*
X185792179Y-95344951D01*
X185620213Y-95469890D01*
X185469890Y-95620213D01*
X185344949Y-95792182D01*
X185340484Y-95800946D01*
X185292509Y-95851742D01*
X185224688Y-95868536D01*
X185158553Y-95845998D01*
X185119516Y-95800946D01*
X185115050Y-95792182D01*
X184990109Y-95620213D01*
X184839786Y-95469890D01*
X184667820Y-95344951D01*
X184478414Y-95248444D01*
X184478413Y-95248443D01*
X184478412Y-95248443D01*
X184276243Y-95182754D01*
X184276241Y-95182753D01*
X184276240Y-95182753D01*
X184114957Y-95157208D01*
X184066287Y-95149500D01*
X183853713Y-95149500D01*
X183805042Y-95157208D01*
X183643760Y-95182753D01*
X183441585Y-95248444D01*
X183252179Y-95344951D01*
X183080213Y-95469890D01*
X182929890Y-95620213D01*
X182804951Y-95792179D01*
X182708444Y-95981585D01*
X182642753Y-96183760D01*
X182609500Y-96393713D01*
X180500500Y-96393713D01*
X180500500Y-92393713D01*
X182629500Y-92393713D01*
X182629500Y-92606287D01*
X182662754Y-92816243D01*
X182709189Y-92959156D01*
X182728444Y-93018414D01*
X182824951Y-93207820D01*
X182949890Y-93379786D01*
X183100213Y-93530109D01*
X183272179Y-93655048D01*
X183272181Y-93655049D01*
X183272184Y-93655051D01*
X183461588Y-93751557D01*
X183663757Y-93817246D01*
X183873713Y-93850500D01*
X183873714Y-93850500D01*
X184086286Y-93850500D01*
X184086287Y-93850500D01*
X184296243Y-93817246D01*
X184498412Y-93751557D01*
X184687816Y-93655051D01*
X184827516Y-93553554D01*
X184859786Y-93530109D01*
X184859788Y-93530106D01*
X184859792Y-93530104D01*
X185010104Y-93379792D01*
X185010106Y-93379788D01*
X185010109Y-93379786D01*
X185135048Y-93207820D01*
X185135047Y-93207820D01*
X185135051Y-93207816D01*
X185139514Y-93199054D01*
X185187488Y-93148259D01*
X185255308Y-93131463D01*
X185321444Y-93153999D01*
X185360486Y-93199056D01*
X185364951Y-93207820D01*
X185489890Y-93379786D01*
X185640213Y-93530109D01*
X185812179Y-93655048D01*
X185812181Y-93655049D01*
X185812184Y-93655051D01*
X186001588Y-93751557D01*
X186203757Y-93817246D01*
X186413713Y-93850500D01*
X186413714Y-93850500D01*
X186626286Y-93850500D01*
X186626287Y-93850500D01*
X186836243Y-93817246D01*
X187038412Y-93751557D01*
X187227816Y-93655051D01*
X187367516Y-93553554D01*
X187399786Y-93530109D01*
X187399788Y-93530106D01*
X187399792Y-93530104D01*
X187550104Y-93379792D01*
X187550106Y-93379788D01*
X187550109Y-93379786D01*
X187675048Y-93207820D01*
X187675047Y-93207820D01*
X187675051Y-93207816D01*
X187771557Y-93018412D01*
X187837246Y-92816243D01*
X187870500Y-92606287D01*
X187870500Y-92393713D01*
X187837246Y-92183757D01*
X187771557Y-91981588D01*
X187675051Y-91792184D01*
X187675049Y-91792181D01*
X187675048Y-91792179D01*
X187550109Y-91620213D01*
X187399786Y-91469890D01*
X187227820Y-91344951D01*
X187038414Y-91248444D01*
X187038413Y-91248443D01*
X187038412Y-91248443D01*
X186836243Y-91182754D01*
X186836241Y-91182753D01*
X186836240Y-91182753D01*
X186674957Y-91157208D01*
X186626287Y-91149500D01*
X186413713Y-91149500D01*
X186365042Y-91157208D01*
X186203760Y-91182753D01*
X186001585Y-91248444D01*
X185812179Y-91344951D01*
X185640213Y-91469890D01*
X185489890Y-91620213D01*
X185364949Y-91792182D01*
X185360484Y-91800946D01*
X185312509Y-91851742D01*
X185244688Y-91868536D01*
X185178553Y-91845998D01*
X185139516Y-91800946D01*
X185135050Y-91792182D01*
X185010109Y-91620213D01*
X184859786Y-91469890D01*
X184687820Y-91344951D01*
X184498414Y-91248444D01*
X184498413Y-91248443D01*
X184498412Y-91248443D01*
X184296243Y-91182754D01*
X184296241Y-91182753D01*
X184296240Y-91182753D01*
X184134957Y-91157208D01*
X184086287Y-91149500D01*
X183873713Y-91149500D01*
X183825042Y-91157208D01*
X183663760Y-91182753D01*
X183461585Y-91248444D01*
X183272179Y-91344951D01*
X183100213Y-91469890D01*
X182949890Y-91620213D01*
X182824951Y-91792179D01*
X182728444Y-91981585D01*
X182662753Y-92183760D01*
X182651734Y-92253331D01*
X182629500Y-92393713D01*
X180500500Y-92393713D01*
X180500500Y-89225001D01*
X185857358Y-89225001D01*
X185895906Y-89357681D01*
X185895907Y-89357684D01*
X185974682Y-89490885D01*
X185974688Y-89490894D01*
X186084105Y-89600311D01*
X186084114Y-89600317D01*
X186217315Y-89679092D01*
X186217318Y-89679093D01*
X186365915Y-89722265D01*
X186365927Y-89722267D01*
X186400646Y-89724999D01*
X186875000Y-89724999D01*
X186899342Y-89724999D01*
X186899363Y-89724998D01*
X186934078Y-89722266D01*
X187082681Y-89679093D01*
X187082684Y-89679092D01*
X187215885Y-89600317D01*
X187215894Y-89600311D01*
X187325311Y-89490894D01*
X187325317Y-89490885D01*
X187404092Y-89357684D01*
X187404093Y-89357681D01*
X187442641Y-89225001D01*
X187442640Y-89225000D01*
X186875000Y-89225000D01*
X186875000Y-89724999D01*
X186400646Y-89724999D01*
X186425000Y-89724998D01*
X186425000Y-89225000D01*
X185857360Y-89225000D01*
X185857358Y-89225001D01*
X180500500Y-89225001D01*
X180500500Y-88774998D01*
X185857358Y-88774998D01*
X185857360Y-88775000D01*
X186425000Y-88775000D01*
X186875000Y-88775000D01*
X187442641Y-88775000D01*
X187442641Y-88774999D01*
X187404093Y-88642318D01*
X187404092Y-88642315D01*
X187325317Y-88509114D01*
X187325311Y-88509105D01*
X187215894Y-88399688D01*
X187215885Y-88399682D01*
X187082684Y-88320907D01*
X187082681Y-88320906D01*
X186934084Y-88277734D01*
X186934073Y-88277732D01*
X186899359Y-88275000D01*
X186875000Y-88275000D01*
X186875000Y-88775000D01*
X186425000Y-88775000D01*
X186425000Y-88274999D01*
X186400647Y-88275000D01*
X186365921Y-88277733D01*
X186217318Y-88320906D01*
X186217315Y-88320907D01*
X186084114Y-88399682D01*
X186084105Y-88399688D01*
X185974688Y-88509105D01*
X185974682Y-88509114D01*
X185895907Y-88642315D01*
X185895906Y-88642318D01*
X185857358Y-88774998D01*
X180500500Y-88774998D01*
X180500500Y-87750000D01*
X189095496Y-87750000D01*
X189650000Y-87750000D01*
X189650000Y-87221210D01*
X189649999Y-87221209D01*
X189629087Y-87222854D01*
X189629081Y-87222855D01*
X189473809Y-87267966D01*
X189473804Y-87267968D01*
X189334625Y-87350278D01*
X189334616Y-87350285D01*
X189220285Y-87464616D01*
X189220278Y-87464625D01*
X189137968Y-87603804D01*
X189095496Y-87750000D01*
X180500500Y-87750000D01*
X180500500Y-60624500D01*
X180520185Y-60557461D01*
X180572989Y-60511706D01*
X180624500Y-60500500D01*
X206486952Y-60500500D01*
X206553991Y-60520185D01*
G37*
%TD.AperFunction*%
%TA.AperFunction,Conductor*%
G36*
X200392797Y-89497185D02*
G01*
X200438552Y-89549989D01*
X200448731Y-89605443D01*
X200449500Y-89605443D01*
X200449500Y-90210505D01*
X200464925Y-90327662D01*
X200464926Y-90327666D01*
X200525307Y-90473441D01*
X200525307Y-90473442D01*
X200525309Y-90473445D01*
X200525310Y-90473446D01*
X200621369Y-90598631D01*
X200746554Y-90694690D01*
X200746557Y-90694691D01*
X200746558Y-90694692D01*
X200759600Y-90700094D01*
X200892337Y-90755075D01*
X200941686Y-90761571D01*
X200942385Y-90761881D01*
X200943147Y-90761772D01*
X200974314Y-90776005D01*
X201005581Y-90789837D01*
X201006003Y-90790477D01*
X201006703Y-90790797D01*
X201025212Y-90819598D01*
X201044053Y-90848161D01*
X201044200Y-90849144D01*
X201044477Y-90849575D01*
X201049500Y-90884510D01*
X201049500Y-90922034D01*
X201029815Y-90989073D01*
X201013181Y-91009715D01*
X199812713Y-92210182D01*
X199751390Y-92243667D01*
X199700841Y-92244118D01*
X199556969Y-92215500D01*
X199556965Y-92215500D01*
X199363035Y-92215500D01*
X199363030Y-92215500D01*
X199172839Y-92253331D01*
X199172831Y-92253333D01*
X198993665Y-92327545D01*
X198833391Y-92434638D01*
X198766713Y-92455516D01*
X198699333Y-92437031D01*
X198652643Y-92385052D01*
X198640500Y-92331536D01*
X198640500Y-90957965D01*
X198649144Y-90928524D01*
X198655668Y-90898538D01*
X198659422Y-90893522D01*
X198660185Y-90890926D01*
X198676819Y-90870284D01*
X198740284Y-90806819D01*
X198801607Y-90773334D01*
X198827965Y-90770500D01*
X199490491Y-90770500D01*
X199490498Y-90770500D01*
X199607663Y-90755075D01*
X199753441Y-90694692D01*
X199753442Y-90694692D01*
X199753442Y-90694691D01*
X199753446Y-90694690D01*
X199878631Y-90598631D01*
X199974690Y-90473446D01*
X200035075Y-90327663D01*
X200050500Y-90210498D01*
X200050500Y-89609502D01*
X200050500Y-89605443D01*
X200051437Y-89605443D01*
X200053368Y-89596817D01*
X200051504Y-89583853D01*
X200060854Y-89563377D01*
X200065772Y-89541415D01*
X200075087Y-89532211D01*
X200080529Y-89520297D01*
X200099466Y-89508126D01*
X200115476Y-89492310D01*
X200129627Y-89488743D01*
X200139307Y-89482523D01*
X200174242Y-89477500D01*
X200325758Y-89477500D01*
X200392797Y-89497185D01*
G37*
%TD.AperFunction*%
%TA.AperFunction,Conductor*%
G36*
X194338334Y-90901283D02*
G01*
X194382681Y-90929784D01*
X195163181Y-91710284D01*
X195196666Y-91771607D01*
X195199500Y-91797965D01*
X195199500Y-92331536D01*
X195179815Y-92398575D01*
X195127011Y-92444330D01*
X195057853Y-92454274D01*
X195006609Y-92434638D01*
X194846334Y-92327545D01*
X194667168Y-92253333D01*
X194667160Y-92253331D01*
X194476969Y-92215500D01*
X194476965Y-92215500D01*
X194283035Y-92215500D01*
X194283030Y-92215500D01*
X194139157Y-92244118D01*
X194069565Y-92237891D01*
X194027285Y-92210182D01*
X193686348Y-91869245D01*
X193652863Y-91807922D01*
X193657847Y-91738230D01*
X193699719Y-91682297D01*
X193705139Y-91678462D01*
X193792314Y-91620213D01*
X193814669Y-91605276D01*
X193905276Y-91514669D01*
X193976465Y-91408127D01*
X194025501Y-91289744D01*
X194044666Y-91193397D01*
X194050500Y-91164071D01*
X194050500Y-91137965D01*
X194059144Y-91108524D01*
X194065668Y-91078538D01*
X194069422Y-91073522D01*
X194070185Y-91070926D01*
X194086819Y-91050284D01*
X194207319Y-90929784D01*
X194268642Y-90896299D01*
X194338334Y-90901283D01*
G37*
%TD.AperFunction*%
%TA.AperFunction,Conductor*%
G36*
X197892797Y-89497185D02*
G01*
X197938552Y-89549989D01*
X197948731Y-89605443D01*
X197949500Y-89605443D01*
X197949500Y-90210500D01*
X197954652Y-90249636D01*
X197943886Y-90318671D01*
X197919395Y-90353500D01*
X197829514Y-90443382D01*
X197829509Y-90443389D01*
X197770201Y-90546112D01*
X197770200Y-90546117D01*
X197739500Y-90660691D01*
X197739500Y-92331536D01*
X197719815Y-92398575D01*
X197667011Y-92444330D01*
X197597853Y-92454274D01*
X197546609Y-92434638D01*
X197386334Y-92327545D01*
X197207168Y-92253333D01*
X197207160Y-92253331D01*
X197050309Y-92222131D01*
X196988398Y-92189746D01*
X196953824Y-92129030D01*
X196950500Y-92100514D01*
X196950500Y-90884510D01*
X196970185Y-90817471D01*
X197022989Y-90771716D01*
X197058311Y-90761572D01*
X197107663Y-90755075D01*
X197253441Y-90694692D01*
X197253442Y-90694692D01*
X197253442Y-90694691D01*
X197253446Y-90694690D01*
X197378631Y-90598631D01*
X197474690Y-90473446D01*
X197535075Y-90327663D01*
X197550500Y-90210498D01*
X197550500Y-89609502D01*
X197550500Y-89605443D01*
X197551437Y-89605443D01*
X197553368Y-89596817D01*
X197551504Y-89583853D01*
X197560854Y-89563377D01*
X197565772Y-89541415D01*
X197575087Y-89532211D01*
X197580529Y-89520297D01*
X197599466Y-89508126D01*
X197615476Y-89492310D01*
X197629627Y-89488743D01*
X197639307Y-89482523D01*
X197674242Y-89477500D01*
X197825758Y-89477500D01*
X197892797Y-89497185D01*
G37*
%TD.AperFunction*%
%TA.AperFunction,Conductor*%
G36*
X195810834Y-82428782D02*
G01*
X195866767Y-82470654D01*
X195891184Y-82536118D01*
X195891500Y-82544964D01*
X195891500Y-82608064D01*
X195871815Y-82675103D01*
X195855181Y-82695745D01*
X194812513Y-83738413D01*
X194812509Y-83738419D01*
X194753201Y-83841142D01*
X194753200Y-83841147D01*
X194748969Y-83856937D01*
X194722500Y-83955721D01*
X194722500Y-85027179D01*
X194727496Y-85045823D01*
X194738344Y-85086308D01*
X194738344Y-85086310D01*
X194753199Y-85141754D01*
X194753201Y-85141757D01*
X194812511Y-85244484D01*
X195418271Y-85850245D01*
X195450363Y-85905830D01*
X195455202Y-85923886D01*
X195514512Y-86026613D01*
X195598387Y-86110488D01*
X195598391Y-86110492D01*
X195604833Y-86115435D01*
X195603479Y-86117198D01*
X195629353Y-86140313D01*
X195652847Y-86172147D01*
X195652848Y-86172148D01*
X195652850Y-86172150D01*
X195762118Y-86252793D01*
X195804845Y-86267744D01*
X195890299Y-86297646D01*
X195920730Y-86300500D01*
X195920734Y-86300500D01*
X195925500Y-86300500D01*
X195992539Y-86320185D01*
X196038294Y-86372989D01*
X196049500Y-86424500D01*
X196049500Y-87115489D01*
X196029815Y-87182528D01*
X195977011Y-87228283D01*
X195941686Y-87238428D01*
X195919421Y-87241359D01*
X195892337Y-87244925D01*
X195892336Y-87244925D01*
X195892333Y-87244926D01*
X195746558Y-87305307D01*
X195746557Y-87305307D01*
X195621369Y-87401369D01*
X195525307Y-87526557D01*
X195525307Y-87526558D01*
X195464926Y-87672333D01*
X195464925Y-87672337D01*
X195449500Y-87789494D01*
X195449500Y-88390505D01*
X195455532Y-88436314D01*
X195452896Y-88453215D01*
X195455331Y-88470147D01*
X195447625Y-88487020D01*
X195444767Y-88505349D01*
X195433412Y-88518142D01*
X195426306Y-88533703D01*
X195410699Y-88543732D01*
X195398387Y-88557605D01*
X195381621Y-88562419D01*
X195367528Y-88571477D01*
X195332593Y-88576500D01*
X195167407Y-88576500D01*
X195100368Y-88556815D01*
X195054613Y-88504011D01*
X195044468Y-88436314D01*
X195045638Y-88427432D01*
X195050500Y-88390498D01*
X195050500Y-87789502D01*
X195035075Y-87672337D01*
X195004882Y-87599445D01*
X194974692Y-87526558D01*
X194974692Y-87526557D01*
X194974690Y-87526554D01*
X194878631Y-87401369D01*
X194753446Y-87305310D01*
X194753443Y-87305309D01*
X194753441Y-87305307D01*
X194607666Y-87244926D01*
X194607664Y-87244925D01*
X194607663Y-87244925D01*
X194572688Y-87240320D01*
X194558314Y-87238428D01*
X194494418Y-87210161D01*
X194455947Y-87151836D01*
X194450500Y-87115489D01*
X194450500Y-85015694D01*
X194450500Y-85015692D01*
X194419799Y-84901115D01*
X194419799Y-84901114D01*
X194360489Y-84798387D01*
X193937283Y-84375181D01*
X193903798Y-84313858D01*
X193908782Y-84244166D01*
X193937283Y-84199819D01*
X194850283Y-83286819D01*
X195679820Y-82457281D01*
X195741142Y-82423798D01*
X195810834Y-82428782D01*
G37*
%TD.AperFunction*%
%TA.AperFunction,Conductor*%
G36*
X199597391Y-83809915D02*
G01*
X199629411Y-83812205D01*
X199631856Y-83814035D01*
X199634889Y-83814398D01*
X199659650Y-83834842D01*
X199685344Y-83854077D01*
X199686411Y-83856937D01*
X199688767Y-83858883D01*
X199698544Y-83889467D01*
X199709761Y-83919541D01*
X199709392Y-83923402D01*
X199710042Y-83925435D01*
X199705852Y-83960478D01*
X199705713Y-83960997D01*
X199701500Y-83976721D01*
X199701500Y-85086308D01*
X199716358Y-85141759D01*
X199732199Y-85200883D01*
X199732201Y-85200886D01*
X199791511Y-85303613D01*
X199791513Y-85303615D01*
X200598384Y-86110488D01*
X200604835Y-86115438D01*
X200603490Y-86117190D01*
X200629357Y-86140318D01*
X200652850Y-86172150D01*
X200762118Y-86252793D01*
X200804845Y-86267744D01*
X200890299Y-86297646D01*
X200920730Y-86300500D01*
X200920734Y-86300500D01*
X200925500Y-86300500D01*
X200992539Y-86320185D01*
X201038294Y-86372989D01*
X201049500Y-86424500D01*
X201049500Y-87115489D01*
X201029815Y-87182528D01*
X200977011Y-87228283D01*
X200941686Y-87238428D01*
X200919421Y-87241359D01*
X200892337Y-87244925D01*
X200892336Y-87244925D01*
X200892333Y-87244926D01*
X200746558Y-87305307D01*
X200746557Y-87305307D01*
X200621369Y-87401369D01*
X200525307Y-87526557D01*
X200525307Y-87526558D01*
X200464926Y-87672333D01*
X200464925Y-87672337D01*
X200449500Y-87789494D01*
X200449500Y-88390505D01*
X200455532Y-88436314D01*
X200452896Y-88453215D01*
X200455331Y-88470147D01*
X200447625Y-88487020D01*
X200444767Y-88505349D01*
X200433412Y-88518142D01*
X200426306Y-88533703D01*
X200410699Y-88543732D01*
X200398387Y-88557605D01*
X200381621Y-88562419D01*
X200367528Y-88571477D01*
X200332593Y-88576500D01*
X200167407Y-88576500D01*
X200100368Y-88556815D01*
X200054613Y-88504011D01*
X200044468Y-88436314D01*
X200045638Y-88427432D01*
X200050500Y-88390498D01*
X200050500Y-87789502D01*
X200035075Y-87672337D01*
X200004882Y-87599445D01*
X199974692Y-87526558D01*
X199974692Y-87526557D01*
X199974690Y-87526554D01*
X199878631Y-87401369D01*
X199753446Y-87305310D01*
X199753443Y-87305309D01*
X199753441Y-87305307D01*
X199607666Y-87244926D01*
X199607664Y-87244925D01*
X199607663Y-87244925D01*
X199572688Y-87240320D01*
X199558314Y-87238428D01*
X199494418Y-87210161D01*
X199455947Y-87151836D01*
X199450500Y-87115489D01*
X199450500Y-84965693D01*
X199424805Y-84869799D01*
X199424805Y-84869798D01*
X199423463Y-84864792D01*
X199419799Y-84851114D01*
X199360489Y-84748387D01*
X199063283Y-84451181D01*
X199029798Y-84389858D01*
X199034782Y-84320166D01*
X199063283Y-84275819D01*
X199498396Y-83840706D01*
X199501077Y-83839241D01*
X199502667Y-83836634D01*
X199531543Y-83822606D01*
X199559719Y-83807221D01*
X199562765Y-83807438D01*
X199565513Y-83806104D01*
X199597391Y-83809915D01*
G37*
%TD.AperFunction*%
%TA.AperFunction,Conductor*%
G36*
X193193039Y-85769685D02*
G01*
X193238794Y-85822489D01*
X193248738Y-85891647D01*
X193219713Y-85955203D01*
X193164589Y-85990628D01*
X193241588Y-86441587D01*
X193250000Y-86449999D01*
X193314323Y-86449999D01*
X193409315Y-86437493D01*
X193478350Y-86448259D01*
X193530606Y-86494639D01*
X193549500Y-86560432D01*
X193549500Y-87115489D01*
X193529815Y-87182528D01*
X193477011Y-87228283D01*
X193441686Y-87238428D01*
X193419421Y-87241359D01*
X193392337Y-87244925D01*
X193392336Y-87244925D01*
X193392333Y-87244926D01*
X193246558Y-87305307D01*
X193246557Y-87305307D01*
X193150987Y-87378642D01*
X193085817Y-87403836D01*
X193017372Y-87389798D01*
X192967383Y-87340984D01*
X192951500Y-87280266D01*
X192951500Y-86066694D01*
X192951500Y-86066692D01*
X192920799Y-85952115D01*
X192911494Y-85935999D01*
X192895022Y-85868100D01*
X192917875Y-85802073D01*
X192972796Y-85758882D01*
X193018882Y-85750000D01*
X193126000Y-85750000D01*
X193193039Y-85769685D01*
G37*
%TD.AperFunction*%
%TA.AperFunction,Conductor*%
G36*
X198243039Y-85769685D02*
G01*
X198288794Y-85822489D01*
X198298738Y-85891647D01*
X198269713Y-85955203D01*
X198210935Y-85992977D01*
X198194440Y-85995348D01*
X198289579Y-86439578D01*
X198300000Y-86449999D01*
X198364324Y-86449999D01*
X198409316Y-86444076D01*
X198478351Y-86454842D01*
X198530606Y-86501222D01*
X198549500Y-86567015D01*
X198549500Y-87115489D01*
X198529815Y-87182528D01*
X198477011Y-87228283D01*
X198441686Y-87238428D01*
X198419421Y-87241359D01*
X198392337Y-87244925D01*
X198392336Y-87244925D01*
X198392333Y-87244926D01*
X198246558Y-87305307D01*
X198246557Y-87305307D01*
X198150987Y-87378642D01*
X198085817Y-87403836D01*
X198017372Y-87389798D01*
X197967383Y-87340984D01*
X197951500Y-87280266D01*
X197951500Y-86016694D01*
X197951499Y-86016690D01*
X197945145Y-85992977D01*
X197926633Y-85923886D01*
X197921866Y-85906096D01*
X197923527Y-85836248D01*
X197962687Y-85778384D01*
X198026915Y-85750877D01*
X198041640Y-85750000D01*
X198176000Y-85750000D01*
X198243039Y-85769685D01*
G37*
%TD.AperFunction*%
%TA.AperFunction,Conductor*%
G36*
X203243039Y-85769685D02*
G01*
X203288794Y-85822489D01*
X203300000Y-85874000D01*
X203300000Y-86449999D01*
X203364324Y-86449999D01*
X203409316Y-86444076D01*
X203478351Y-86454842D01*
X203530606Y-86501222D01*
X203549500Y-86567015D01*
X203549500Y-87115489D01*
X203529815Y-87182528D01*
X203477011Y-87228283D01*
X203441686Y-87238428D01*
X203419421Y-87241359D01*
X203392337Y-87244925D01*
X203392336Y-87244925D01*
X203392333Y-87244926D01*
X203246558Y-87305307D01*
X203246557Y-87305307D01*
X203150987Y-87378642D01*
X203085817Y-87403836D01*
X203017372Y-87389798D01*
X202967383Y-87340984D01*
X202951500Y-87280266D01*
X202951500Y-86016694D01*
X202951499Y-86016690D01*
X202945145Y-85992977D01*
X202926633Y-85923886D01*
X202921866Y-85906096D01*
X202923527Y-85836248D01*
X202962687Y-85778384D01*
X203026915Y-85750877D01*
X203041640Y-85750000D01*
X203176000Y-85750000D01*
X203243039Y-85769685D01*
G37*
%TD.AperFunction*%
%TA.AperFunction,Conductor*%
G36*
X194526039Y-80883985D02*
G01*
X194571794Y-80936789D01*
X194583000Y-80988300D01*
X194583000Y-81648800D01*
X194914734Y-81648800D01*
X194981773Y-81668485D01*
X195027528Y-81721289D01*
X195037472Y-81790447D01*
X195008447Y-81854003D01*
X195002415Y-81860481D01*
X192999716Y-83863181D01*
X192938393Y-83896666D01*
X192912035Y-83899500D01*
X192770730Y-83899500D01*
X192740300Y-83902353D01*
X192740298Y-83902353D01*
X192612119Y-83947206D01*
X192612113Y-83947209D01*
X192512319Y-84020861D01*
X192446690Y-84044832D01*
X192378520Y-84029516D01*
X192351005Y-84008772D01*
X191930746Y-83588513D01*
X191930744Y-83588511D01*
X191879380Y-83558856D01*
X191828018Y-83529201D01*
X191815910Y-83525957D01*
X191803803Y-83522713D01*
X191803800Y-83522712D01*
X191765608Y-83512478D01*
X191713439Y-83498500D01*
X191713438Y-83498500D01*
X191537965Y-83498500D01*
X191470926Y-83478815D01*
X191425171Y-83426011D01*
X191415227Y-83356853D01*
X191444252Y-83293297D01*
X191450284Y-83286819D01*
X192195424Y-82541679D01*
X193160490Y-81576614D01*
X193172313Y-81556134D01*
X193222876Y-81507919D01*
X193291482Y-81494693D01*
X193354012Y-81518866D01*
X193451906Y-81592150D01*
X193451913Y-81592154D01*
X193586620Y-81642396D01*
X193586627Y-81642398D01*
X193646155Y-81648799D01*
X193646172Y-81648800D01*
X194227400Y-81648800D01*
X194227400Y-80988300D01*
X194229950Y-80979614D01*
X194228662Y-80970653D01*
X194239640Y-80946612D01*
X194247085Y-80921261D01*
X194253925Y-80915333D01*
X194257687Y-80907097D01*
X194279921Y-80892807D01*
X194299889Y-80875506D01*
X194310403Y-80873218D01*
X194316465Y-80869323D01*
X194351400Y-80864300D01*
X194459000Y-80864300D01*
X194526039Y-80883985D01*
G37*
%TD.AperFunction*%
%TA.AperFunction,Conductor*%
G36*
X198182340Y-75599185D02*
G01*
X198228095Y-75651989D01*
X198238039Y-75721147D01*
X198236918Y-75727692D01*
X198231500Y-75754928D01*
X198231500Y-75754931D01*
X198231500Y-75883069D01*
X198231500Y-75883071D01*
X198231499Y-75883071D01*
X198256497Y-76008738D01*
X198256499Y-76008744D01*
X198305533Y-76127124D01*
X198305538Y-76127133D01*
X198376723Y-76233668D01*
X198376725Y-76233671D01*
X198395179Y-76252124D01*
X198428666Y-76313446D01*
X198431500Y-76339807D01*
X198431500Y-76761909D01*
X198448540Y-76825503D01*
X198462199Y-76876484D01*
X198462200Y-76876485D01*
X198462201Y-76876487D01*
X198521511Y-76979214D01*
X198521513Y-76979216D01*
X198993333Y-77451036D01*
X198991672Y-77452696D01*
X199025784Y-77499398D01*
X199033100Y-77541362D01*
X199033100Y-77930860D01*
X199043025Y-77998988D01*
X199045870Y-78008192D01*
X199043619Y-78008887D01*
X199053096Y-78064425D01*
X199045123Y-78091577D01*
X199045870Y-78091808D01*
X199043025Y-78101011D01*
X199033100Y-78169139D01*
X199033100Y-78591260D01*
X199043027Y-78659398D01*
X199043554Y-78661103D01*
X199044313Y-78668228D01*
X199044415Y-78668922D01*
X199044388Y-78668925D01*
X199048608Y-78708490D01*
X199046895Y-78728093D01*
X199043027Y-78736007D01*
X199033100Y-78804140D01*
X199033100Y-78886027D01*
X199032630Y-78891408D01*
X199021794Y-78919119D01*
X199013415Y-78947657D01*
X199009212Y-78951298D01*
X199007186Y-78956481D01*
X198983086Y-78973937D01*
X198960611Y-78993412D01*
X198955106Y-78994203D01*
X198950601Y-78997467D01*
X198920895Y-78999122D01*
X198891453Y-79003356D01*
X198884912Y-79002236D01*
X198862185Y-78997716D01*
X198862183Y-78997716D01*
X198734045Y-78997716D01*
X198734043Y-78997716D01*
X198608375Y-79022713D01*
X198608369Y-79022715D01*
X198489989Y-79071749D01*
X198489980Y-79071754D01*
X198383445Y-79142939D01*
X198383441Y-79142942D01*
X198292840Y-79233543D01*
X198292837Y-79233547D01*
X198221652Y-79340082D01*
X198221647Y-79340091D01*
X198172613Y-79458471D01*
X198172611Y-79458477D01*
X198147614Y-79584144D01*
X198147614Y-79584147D01*
X198147614Y-79712285D01*
X198147614Y-79712287D01*
X198147613Y-79712287D01*
X198172611Y-79837954D01*
X198172613Y-79837960D01*
X198221647Y-79956340D01*
X198221652Y-79956349D01*
X198292837Y-80062884D01*
X198292840Y-80062888D01*
X198383441Y-80153489D01*
X198383445Y-80153492D01*
X198489980Y-80224677D01*
X198489986Y-80224680D01*
X198489987Y-80224681D01*
X198608370Y-80273717D01*
X198608374Y-80273717D01*
X198608375Y-80273718D01*
X198734042Y-80298716D01*
X198734045Y-80298716D01*
X198862185Y-80298716D01*
X198868248Y-80298119D01*
X198868467Y-80300344D01*
X198928070Y-80305660D01*
X198983260Y-80348507D01*
X199006524Y-80414389D01*
X198990476Y-80482391D01*
X198981971Y-80495373D01*
X198940249Y-80551106D01*
X198940245Y-80551113D01*
X198890003Y-80685820D01*
X198890001Y-80685827D01*
X198883600Y-80745355D01*
X198883600Y-80793200D01*
X199128387Y-80793200D01*
X199182846Y-80805798D01*
X199282207Y-80854373D01*
X199316273Y-80859336D01*
X199350339Y-80864300D01*
X199970800Y-80864300D01*
X200034606Y-80881976D01*
X200212406Y-80988676D01*
X200213745Y-80990128D01*
X200215639Y-80990685D01*
X200237310Y-81015695D01*
X200259760Y-81040051D01*
X200260101Y-81041996D01*
X200261394Y-81043489D01*
X200272600Y-81095000D01*
X200272600Y-81662046D01*
X200290152Y-81694190D01*
X200285168Y-81763882D01*
X200256667Y-81808229D01*
X198201716Y-83863181D01*
X198140393Y-83896666D01*
X198114035Y-83899500D01*
X197820730Y-83899500D01*
X197790300Y-83902353D01*
X197790298Y-83902353D01*
X197662119Y-83947206D01*
X197662113Y-83947209D01*
X197562319Y-84020861D01*
X197496690Y-84044832D01*
X197428520Y-84029516D01*
X197401005Y-84008772D01*
X197319818Y-83927585D01*
X197190949Y-83798715D01*
X197157464Y-83737392D01*
X197154630Y-83711034D01*
X197154630Y-83441835D01*
X197174315Y-83374796D01*
X197190949Y-83354154D01*
X197258284Y-83286819D01*
X197464490Y-83080614D01*
X197523799Y-82977886D01*
X197554499Y-82863309D01*
X197554499Y-82744690D01*
X197538725Y-82685818D01*
X197534500Y-82653726D01*
X197534500Y-81196644D01*
X198883600Y-81196644D01*
X198890001Y-81256172D01*
X198890003Y-81256179D01*
X198940245Y-81390886D01*
X198940249Y-81390893D01*
X199026409Y-81505987D01*
X199026412Y-81505990D01*
X199141506Y-81592150D01*
X199141513Y-81592154D01*
X199276220Y-81642396D01*
X199276227Y-81642398D01*
X199335755Y-81648799D01*
X199335772Y-81648800D01*
X199917000Y-81648800D01*
X199917000Y-81148800D01*
X198883600Y-81148800D01*
X198883600Y-81196644D01*
X197534500Y-81196644D01*
X197534500Y-76257493D01*
X197534500Y-76257491D01*
X197505105Y-76147787D01*
X197505105Y-76147786D01*
X197505105Y-76147785D01*
X197503800Y-76142915D01*
X197503799Y-76142913D01*
X197494683Y-76127124D01*
X197444489Y-76040186D01*
X197195484Y-75791181D01*
X197161999Y-75729858D01*
X197166983Y-75660166D01*
X197208855Y-75604233D01*
X197274319Y-75579816D01*
X197283165Y-75579500D01*
X198115301Y-75579500D01*
X198182340Y-75599185D01*
G37*
%TD.AperFunction*%
%TA.AperFunction,Conductor*%
G36*
X191914752Y-76429729D02*
G01*
X191954165Y-76456268D01*
X192943186Y-77445289D01*
X193045913Y-77504599D01*
X193045914Y-77504599D01*
X193045915Y-77504600D01*
X193053782Y-77506707D01*
X193063492Y-77509309D01*
X193160491Y-77535300D01*
X193229394Y-77535300D01*
X193239167Y-77536870D01*
X193262130Y-77547817D01*
X193286539Y-77554985D01*
X193293137Y-77562600D01*
X193302236Y-77566938D01*
X193315637Y-77588565D01*
X193332294Y-77607789D01*
X193334861Y-77619592D01*
X193339037Y-77626331D01*
X193338846Y-77637907D01*
X193343500Y-77659300D01*
X193343500Y-77805700D01*
X193323815Y-77872739D01*
X193271011Y-77918494D01*
X193219500Y-77929700D01*
X192213165Y-77929700D01*
X192146126Y-77910015D01*
X192125484Y-77893381D01*
X191797694Y-77565591D01*
X191764209Y-77504268D01*
X191767444Y-77439593D01*
X191805940Y-77321118D01*
X191823222Y-77212003D01*
X191835500Y-77134486D01*
X191835500Y-76945513D01*
X191805940Y-76758881D01*
X191794157Y-76722619D01*
X191748552Y-76582263D01*
X191746557Y-76512427D01*
X191782637Y-76452594D01*
X191845338Y-76421765D01*
X191914752Y-76429729D01*
G37*
%TD.AperFunction*%
%TA.AperFunction,Conductor*%
G36*
X195711987Y-75581890D02*
G01*
X196597181Y-76467084D01*
X196630666Y-76528407D01*
X196633500Y-76554765D01*
X196633500Y-76805035D01*
X196613815Y-76872074D01*
X196561011Y-76917829D01*
X196491853Y-76927773D01*
X196428297Y-76898748D01*
X196421819Y-76892716D01*
X195593016Y-76063913D01*
X195593014Y-76063911D01*
X195528898Y-76026893D01*
X195520615Y-76018206D01*
X195509697Y-76013220D01*
X195496951Y-75993387D01*
X195480684Y-75976326D01*
X195477468Y-75963070D01*
X195471923Y-75954442D01*
X195466900Y-75919507D01*
X195466900Y-75714195D01*
X195486585Y-75647156D01*
X195491634Y-75639883D01*
X195525040Y-75595259D01*
X195580974Y-75553389D01*
X195650666Y-75548405D01*
X195711987Y-75581890D01*
G37*
%TD.AperFunction*%
%TA.AperFunction,Conductor*%
G36*
X191495855Y-73345184D02*
G01*
X191515691Y-73350500D01*
X192495198Y-73350500D01*
X192562237Y-73370185D01*
X192594464Y-73400188D01*
X192609597Y-73420403D01*
X192722511Y-73504929D01*
X192754462Y-73516846D01*
X192854664Y-73554219D01*
X192880049Y-73556948D01*
X192913085Y-73560500D01*
X193014034Y-73560499D01*
X193081072Y-73580183D01*
X193101715Y-73596818D01*
X193369181Y-73864284D01*
X193402666Y-73925607D01*
X193405500Y-73951965D01*
X193405500Y-73978069D01*
X193405500Y-73978071D01*
X193405499Y-73978071D01*
X193430497Y-74103738D01*
X193430499Y-74103744D01*
X193479533Y-74222124D01*
X193479538Y-74222133D01*
X193539781Y-74312292D01*
X193560659Y-74378969D01*
X193542175Y-74446350D01*
X193490196Y-74493040D01*
X193480014Y-74497364D01*
X193451915Y-74507844D01*
X193451906Y-74507849D01*
X193336812Y-74594009D01*
X193336809Y-74594012D01*
X193250649Y-74709106D01*
X193250645Y-74709113D01*
X193200403Y-74843820D01*
X193200401Y-74843827D01*
X193194000Y-74903355D01*
X193194000Y-74934442D01*
X193279032Y-74951200D01*
X194281200Y-74951200D01*
X194348239Y-74970885D01*
X194393994Y-75023689D01*
X194405200Y-75075200D01*
X194405200Y-75111700D01*
X194385515Y-75178739D01*
X194332711Y-75224494D01*
X194281200Y-75235700D01*
X193660739Y-75235700D01*
X193592607Y-75245626D01*
X193592606Y-75245626D01*
X193518155Y-75282023D01*
X193449282Y-75293781D01*
X193394805Y-75273724D01*
X193348132Y-75242538D01*
X193348124Y-75242533D01*
X193233230Y-75194943D01*
X193229744Y-75193499D01*
X193104069Y-75168500D01*
X192975931Y-75168500D01*
X192975929Y-75168500D01*
X192850261Y-75193497D01*
X192850255Y-75193499D01*
X192731875Y-75242533D01*
X192731866Y-75242538D01*
X192625331Y-75313723D01*
X192625327Y-75313726D01*
X192534726Y-75404327D01*
X192534723Y-75404331D01*
X192475156Y-75493480D01*
X192421544Y-75538285D01*
X192352219Y-75546992D01*
X192289191Y-75516837D01*
X192284373Y-75512270D01*
X191797694Y-75025591D01*
X191764209Y-74964268D01*
X191767444Y-74899593D01*
X191805940Y-74781118D01*
X191822193Y-74678500D01*
X191835500Y-74594486D01*
X191835500Y-74405513D01*
X191805940Y-74218881D01*
X191747545Y-74039163D01*
X191661759Y-73870800D01*
X191657025Y-73864284D01*
X191550690Y-73717927D01*
X191417073Y-73584310D01*
X191411393Y-73580183D01*
X191390876Y-73565276D01*
X191348210Y-73509946D01*
X191342232Y-73440333D01*
X191374839Y-73378538D01*
X191435678Y-73344181D01*
X191495855Y-73345184D01*
G37*
%TD.AperFunction*%
%TA.AperFunction,Conductor*%
G36*
X194750000Y-71850000D02*
G01*
X195397828Y-71850000D01*
X195397844Y-71849999D01*
X195457372Y-71843598D01*
X195457379Y-71843596D01*
X195592086Y-71793354D01*
X195592093Y-71793350D01*
X195707187Y-71707190D01*
X195707190Y-71707187D01*
X195793350Y-71592093D01*
X195793354Y-71592086D01*
X195843596Y-71457379D01*
X195843598Y-71457372D01*
X195849999Y-71397844D01*
X195850000Y-71397827D01*
X195850000Y-71286150D01*
X195869685Y-71219111D01*
X195922489Y-71173356D01*
X195991647Y-71163412D01*
X196055203Y-71192437D01*
X196074317Y-71213264D01*
X196124310Y-71282073D01*
X196257927Y-71415690D01*
X196410801Y-71526760D01*
X196490347Y-71567290D01*
X196579163Y-71612545D01*
X196579165Y-71612545D01*
X196579168Y-71612547D01*
X196675497Y-71643846D01*
X196758881Y-71670940D01*
X196945514Y-71700500D01*
X196945519Y-71700500D01*
X197134486Y-71700500D01*
X197321118Y-71670940D01*
X197346496Y-71662694D01*
X197498674Y-71613247D01*
X197568512Y-71611252D01*
X197628345Y-71647332D01*
X197659174Y-71710033D01*
X197651210Y-71779447D01*
X197635367Y-71806664D01*
X197632510Y-71810386D01*
X197573201Y-71913112D01*
X197573200Y-71913117D01*
X197542500Y-72027691D01*
X197542500Y-72400816D01*
X197522815Y-72467855D01*
X197470011Y-72513610D01*
X197442694Y-72522433D01*
X197422258Y-72526498D01*
X197422257Y-72526498D01*
X197303875Y-72575533D01*
X197303866Y-72575538D01*
X197197331Y-72646723D01*
X197197327Y-72646726D01*
X197106726Y-72737327D01*
X197106723Y-72737331D01*
X197035538Y-72843866D01*
X197035533Y-72843875D01*
X196986499Y-72962255D01*
X196986497Y-72962261D01*
X196961500Y-73087928D01*
X196961500Y-73087931D01*
X196961500Y-73216069D01*
X196961500Y-73216071D01*
X196961499Y-73216071D01*
X196986497Y-73341738D01*
X196986499Y-73341744D01*
X197035533Y-73460124D01*
X197035538Y-73460133D01*
X197106723Y-73566668D01*
X197106726Y-73566672D01*
X197197327Y-73657273D01*
X197197331Y-73657276D01*
X197303866Y-73728461D01*
X197303872Y-73728464D01*
X197303873Y-73728465D01*
X197422256Y-73777501D01*
X197422260Y-73777501D01*
X197422261Y-73777502D01*
X197547928Y-73802500D01*
X197547931Y-73802500D01*
X197676071Y-73802500D01*
X197760615Y-73785682D01*
X197801744Y-73777501D01*
X197920127Y-73728465D01*
X198026669Y-73657276D01*
X198117276Y-73566669D01*
X198188465Y-73460127D01*
X198237501Y-73341744D01*
X198252691Y-73265383D01*
X198262500Y-73216071D01*
X198262500Y-73189965D01*
X198282185Y-73122926D01*
X198298819Y-73102284D01*
X198323592Y-73077511D01*
X198353489Y-73047614D01*
X198396056Y-72973886D01*
X198412799Y-72944886D01*
X198443500Y-72830309D01*
X198443500Y-72324964D01*
X198463185Y-72257925D01*
X198479815Y-72237287D01*
X199054407Y-71662694D01*
X199115730Y-71629210D01*
X199180407Y-71632445D01*
X199298881Y-71670940D01*
X199485514Y-71700500D01*
X199485519Y-71700500D01*
X199674486Y-71700500D01*
X199861118Y-71670940D01*
X199886496Y-71662694D01*
X200037733Y-71613553D01*
X200107571Y-71611559D01*
X200167404Y-71647639D01*
X200198233Y-71710339D01*
X200190269Y-71779754D01*
X200163730Y-71819166D01*
X199939513Y-72043383D01*
X199939509Y-72043389D01*
X199913617Y-72088234D01*
X199868233Y-72133618D01*
X199823387Y-72159510D01*
X199739510Y-72243387D01*
X199702291Y-72307853D01*
X199680201Y-72346114D01*
X199649500Y-72460691D01*
X199649500Y-72460693D01*
X199649500Y-72810159D01*
X199645276Y-72842248D01*
X199644300Y-72845889D01*
X199644300Y-74476700D01*
X199624615Y-74543739D01*
X199571811Y-74589494D01*
X199520300Y-74600700D01*
X199350339Y-74600700D01*
X199282208Y-74610626D01*
X199217662Y-74642181D01*
X199183637Y-74658815D01*
X199169142Y-74665901D01*
X199114682Y-74678500D01*
X196134165Y-74678500D01*
X196067126Y-74658815D01*
X196046484Y-74642181D01*
X194957816Y-73553513D01*
X194957814Y-73553511D01*
X194872347Y-73504166D01*
X194824133Y-73453599D01*
X194810911Y-73384992D01*
X194827619Y-73333656D01*
X194832031Y-73326195D01*
X194832033Y-73326190D01*
X194877144Y-73170918D01*
X194877145Y-73170912D01*
X194878790Y-73150000D01*
X194224000Y-73150000D01*
X194156961Y-73130315D01*
X194111206Y-73077511D01*
X194100000Y-73026000D01*
X194100000Y-72774000D01*
X194119685Y-72706961D01*
X194172489Y-72661206D01*
X194224000Y-72650000D01*
X194878790Y-72650000D01*
X194877145Y-72629089D01*
X194832031Y-72473804D01*
X194749721Y-72334625D01*
X194749714Y-72334616D01*
X194635383Y-72220285D01*
X194635374Y-72220278D01*
X194496196Y-72137969D01*
X194340909Y-72092854D01*
X194304630Y-72089999D01*
X194304390Y-72089990D01*
X194304353Y-72089977D01*
X194302210Y-72089809D01*
X194302252Y-72089269D01*
X194238178Y-72067679D01*
X194194539Y-72013114D01*
X194187328Y-71943617D01*
X194218834Y-71881254D01*
X194221594Y-71878404D01*
X194250000Y-71849998D01*
X194250000Y-70933012D01*
X194307007Y-70965925D01*
X194434174Y-71000000D01*
X194565826Y-71000000D01*
X194692993Y-70965925D01*
X194750000Y-70933012D01*
X194750000Y-71850000D01*
G37*
%TD.AperFunction*%
%TD*%
M02*
