%TF.GenerationSoftware,KiCad,Pcbnew,8.0.5*%
%TF.CreationDate,2024-09-21T15:40:57-07:00*%
%TF.ProjectId,Power_PCB,506f7765-725f-4504-9342-2e6b69636164,rev?*%
%TF.SameCoordinates,Original*%
%TF.FileFunction,Legend,Top*%
%TF.FilePolarity,Positive*%
%FSLAX46Y46*%
G04 Gerber Fmt 4.6, Leading zero omitted, Abs format (unit mm)*
G04 Created by KiCad (PCBNEW 8.0.5) date 2024-09-21 15:40:57*
%MOMM*%
%LPD*%
G01*
G04 APERTURE LIST*
%ADD10C,0.150000*%
%ADD11C,0.120000*%
%ADD12C,0.127000*%
%ADD13C,0.200000*%
G04 APERTURE END LIST*
D10*
X105738095Y-41954819D02*
X105738095Y-40954819D01*
X105738095Y-41431009D02*
X106309523Y-41431009D01*
X106309523Y-41954819D02*
X106309523Y-40954819D01*
X107214285Y-41288152D02*
X107214285Y-41954819D01*
X106976190Y-40907200D02*
X106738095Y-41621485D01*
X106738095Y-41621485D02*
X107357142Y-41621485D01*
X57761905Y-80454819D02*
X57761905Y-79454819D01*
X57761905Y-79454819D02*
X58000000Y-79454819D01*
X58000000Y-79454819D02*
X58142857Y-79502438D01*
X58142857Y-79502438D02*
X58238095Y-79597676D01*
X58238095Y-79597676D02*
X58285714Y-79692914D01*
X58285714Y-79692914D02*
X58333333Y-79883390D01*
X58333333Y-79883390D02*
X58333333Y-80026247D01*
X58333333Y-80026247D02*
X58285714Y-80216723D01*
X58285714Y-80216723D02*
X58238095Y-80311961D01*
X58238095Y-80311961D02*
X58142857Y-80407200D01*
X58142857Y-80407200D02*
X58000000Y-80454819D01*
X58000000Y-80454819D02*
X57761905Y-80454819D01*
X59238095Y-79454819D02*
X58761905Y-79454819D01*
X58761905Y-79454819D02*
X58714286Y-79931009D01*
X58714286Y-79931009D02*
X58761905Y-79883390D01*
X58761905Y-79883390D02*
X58857143Y-79835771D01*
X58857143Y-79835771D02*
X59095238Y-79835771D01*
X59095238Y-79835771D02*
X59190476Y-79883390D01*
X59190476Y-79883390D02*
X59238095Y-79931009D01*
X59238095Y-79931009D02*
X59285714Y-80026247D01*
X59285714Y-80026247D02*
X59285714Y-80264342D01*
X59285714Y-80264342D02*
X59238095Y-80359580D01*
X59238095Y-80359580D02*
X59190476Y-80407200D01*
X59190476Y-80407200D02*
X59095238Y-80454819D01*
X59095238Y-80454819D02*
X58857143Y-80454819D01*
X58857143Y-80454819D02*
X58761905Y-80407200D01*
X58761905Y-80407200D02*
X58714286Y-80359580D01*
X90954819Y-52309523D02*
X91669104Y-52309523D01*
X91669104Y-52309523D02*
X91811961Y-52357142D01*
X91811961Y-52357142D02*
X91907200Y-52452380D01*
X91907200Y-52452380D02*
X91954819Y-52595237D01*
X91954819Y-52595237D02*
X91954819Y-52690475D01*
X91954819Y-51309523D02*
X91954819Y-51880951D01*
X91954819Y-51595237D02*
X90954819Y-51595237D01*
X90954819Y-51595237D02*
X91097676Y-51690475D01*
X91097676Y-51690475D02*
X91192914Y-51785713D01*
X91192914Y-51785713D02*
X91240533Y-51880951D01*
X91954819Y-50357142D02*
X91954819Y-50928570D01*
X91954819Y-50642856D02*
X90954819Y-50642856D01*
X90954819Y-50642856D02*
X91097676Y-50738094D01*
X91097676Y-50738094D02*
X91192914Y-50833332D01*
X91192914Y-50833332D02*
X91240533Y-50928570D01*
X95614700Y-45571428D02*
X95614700Y-44428571D01*
X96186128Y-44999999D02*
X95043271Y-44999999D01*
X95614700Y-58571428D02*
X95614700Y-57428571D01*
X165604819Y-51800594D02*
X164604819Y-51800594D01*
X164604819Y-51800594D02*
X164604819Y-51562499D01*
X164604819Y-51562499D02*
X164652438Y-51419642D01*
X164652438Y-51419642D02*
X164747676Y-51324404D01*
X164747676Y-51324404D02*
X164842914Y-51276785D01*
X164842914Y-51276785D02*
X165033390Y-51229166D01*
X165033390Y-51229166D02*
X165176247Y-51229166D01*
X165176247Y-51229166D02*
X165366723Y-51276785D01*
X165366723Y-51276785D02*
X165461961Y-51324404D01*
X165461961Y-51324404D02*
X165557200Y-51419642D01*
X165557200Y-51419642D02*
X165604819Y-51562499D01*
X165604819Y-51562499D02*
X165604819Y-51800594D01*
X164700057Y-50848213D02*
X164652438Y-50800594D01*
X164652438Y-50800594D02*
X164604819Y-50705356D01*
X164604819Y-50705356D02*
X164604819Y-50467261D01*
X164604819Y-50467261D02*
X164652438Y-50372023D01*
X164652438Y-50372023D02*
X164700057Y-50324404D01*
X164700057Y-50324404D02*
X164795295Y-50276785D01*
X164795295Y-50276785D02*
X164890533Y-50276785D01*
X164890533Y-50276785D02*
X165033390Y-50324404D01*
X165033390Y-50324404D02*
X165604819Y-50895832D01*
X165604819Y-50895832D02*
X165604819Y-50276785D01*
X162804819Y-69579166D02*
X162328628Y-69912499D01*
X162804819Y-70150594D02*
X161804819Y-70150594D01*
X161804819Y-70150594D02*
X161804819Y-69769642D01*
X161804819Y-69769642D02*
X161852438Y-69674404D01*
X161852438Y-69674404D02*
X161900057Y-69626785D01*
X161900057Y-69626785D02*
X161995295Y-69579166D01*
X161995295Y-69579166D02*
X162138152Y-69579166D01*
X162138152Y-69579166D02*
X162233390Y-69626785D01*
X162233390Y-69626785D02*
X162281009Y-69674404D01*
X162281009Y-69674404D02*
X162328628Y-69769642D01*
X162328628Y-69769642D02*
X162328628Y-70150594D01*
X162804819Y-68626785D02*
X162804819Y-69198213D01*
X162804819Y-68912499D02*
X161804819Y-68912499D01*
X161804819Y-68912499D02*
X161947676Y-69007737D01*
X161947676Y-69007737D02*
X162042914Y-69102975D01*
X162042914Y-69102975D02*
X162090533Y-69198213D01*
X152542200Y-47686904D02*
X152589819Y-47544047D01*
X152589819Y-47544047D02*
X152589819Y-47305952D01*
X152589819Y-47305952D02*
X152542200Y-47210714D01*
X152542200Y-47210714D02*
X152494580Y-47163095D01*
X152494580Y-47163095D02*
X152399342Y-47115476D01*
X152399342Y-47115476D02*
X152304104Y-47115476D01*
X152304104Y-47115476D02*
X152208866Y-47163095D01*
X152208866Y-47163095D02*
X152161247Y-47210714D01*
X152161247Y-47210714D02*
X152113628Y-47305952D01*
X152113628Y-47305952D02*
X152066009Y-47496428D01*
X152066009Y-47496428D02*
X152018390Y-47591666D01*
X152018390Y-47591666D02*
X151970771Y-47639285D01*
X151970771Y-47639285D02*
X151875533Y-47686904D01*
X151875533Y-47686904D02*
X151780295Y-47686904D01*
X151780295Y-47686904D02*
X151685057Y-47639285D01*
X151685057Y-47639285D02*
X151637438Y-47591666D01*
X151637438Y-47591666D02*
X151589819Y-47496428D01*
X151589819Y-47496428D02*
X151589819Y-47258333D01*
X151589819Y-47258333D02*
X151637438Y-47115476D01*
X152589819Y-46163095D02*
X152589819Y-46734523D01*
X152589819Y-46448809D02*
X151589819Y-46448809D01*
X151589819Y-46448809D02*
X151732676Y-46544047D01*
X151732676Y-46544047D02*
X151827914Y-46639285D01*
X151827914Y-46639285D02*
X151875533Y-46734523D01*
X118920833Y-78804819D02*
X118587500Y-78328628D01*
X118349405Y-78804819D02*
X118349405Y-77804819D01*
X118349405Y-77804819D02*
X118730357Y-77804819D01*
X118730357Y-77804819D02*
X118825595Y-77852438D01*
X118825595Y-77852438D02*
X118873214Y-77900057D01*
X118873214Y-77900057D02*
X118920833Y-77995295D01*
X118920833Y-77995295D02*
X118920833Y-78138152D01*
X118920833Y-78138152D02*
X118873214Y-78233390D01*
X118873214Y-78233390D02*
X118825595Y-78281009D01*
X118825595Y-78281009D02*
X118730357Y-78328628D01*
X118730357Y-78328628D02*
X118349405Y-78328628D01*
X119254167Y-77804819D02*
X119873214Y-77804819D01*
X119873214Y-77804819D02*
X119539881Y-78185771D01*
X119539881Y-78185771D02*
X119682738Y-78185771D01*
X119682738Y-78185771D02*
X119777976Y-78233390D01*
X119777976Y-78233390D02*
X119825595Y-78281009D01*
X119825595Y-78281009D02*
X119873214Y-78376247D01*
X119873214Y-78376247D02*
X119873214Y-78614342D01*
X119873214Y-78614342D02*
X119825595Y-78709580D01*
X119825595Y-78709580D02*
X119777976Y-78757200D01*
X119777976Y-78757200D02*
X119682738Y-78804819D01*
X119682738Y-78804819D02*
X119397024Y-78804819D01*
X119397024Y-78804819D02*
X119301786Y-78757200D01*
X119301786Y-78757200D02*
X119254167Y-78709580D01*
X151154819Y-72333333D02*
X151869104Y-72333333D01*
X151869104Y-72333333D02*
X152011961Y-72380952D01*
X152011961Y-72380952D02*
X152107200Y-72476190D01*
X152107200Y-72476190D02*
X152154819Y-72619047D01*
X152154819Y-72619047D02*
X152154819Y-72714285D01*
X151250057Y-71904761D02*
X151202438Y-71857142D01*
X151202438Y-71857142D02*
X151154819Y-71761904D01*
X151154819Y-71761904D02*
X151154819Y-71523809D01*
X151154819Y-71523809D02*
X151202438Y-71428571D01*
X151202438Y-71428571D02*
X151250057Y-71380952D01*
X151250057Y-71380952D02*
X151345295Y-71333333D01*
X151345295Y-71333333D02*
X151440533Y-71333333D01*
X151440533Y-71333333D02*
X151583390Y-71380952D01*
X151583390Y-71380952D02*
X152154819Y-71952380D01*
X152154819Y-71952380D02*
X152154819Y-71333333D01*
X105663095Y-58272200D02*
X105805952Y-58319819D01*
X105805952Y-58319819D02*
X106044047Y-58319819D01*
X106044047Y-58319819D02*
X106139285Y-58272200D01*
X106139285Y-58272200D02*
X106186904Y-58224580D01*
X106186904Y-58224580D02*
X106234523Y-58129342D01*
X106234523Y-58129342D02*
X106234523Y-58034104D01*
X106234523Y-58034104D02*
X106186904Y-57938866D01*
X106186904Y-57938866D02*
X106139285Y-57891247D01*
X106139285Y-57891247D02*
X106044047Y-57843628D01*
X106044047Y-57843628D02*
X105853571Y-57796009D01*
X105853571Y-57796009D02*
X105758333Y-57748390D01*
X105758333Y-57748390D02*
X105710714Y-57700771D01*
X105710714Y-57700771D02*
X105663095Y-57605533D01*
X105663095Y-57605533D02*
X105663095Y-57510295D01*
X105663095Y-57510295D02*
X105710714Y-57415057D01*
X105710714Y-57415057D02*
X105758333Y-57367438D01*
X105758333Y-57367438D02*
X105853571Y-57319819D01*
X105853571Y-57319819D02*
X106091666Y-57319819D01*
X106091666Y-57319819D02*
X106234523Y-57367438D01*
X106567857Y-57319819D02*
X107186904Y-57319819D01*
X107186904Y-57319819D02*
X106853571Y-57700771D01*
X106853571Y-57700771D02*
X106996428Y-57700771D01*
X106996428Y-57700771D02*
X107091666Y-57748390D01*
X107091666Y-57748390D02*
X107139285Y-57796009D01*
X107139285Y-57796009D02*
X107186904Y-57891247D01*
X107186904Y-57891247D02*
X107186904Y-58129342D01*
X107186904Y-58129342D02*
X107139285Y-58224580D01*
X107139285Y-58224580D02*
X107091666Y-58272200D01*
X107091666Y-58272200D02*
X106996428Y-58319819D01*
X106996428Y-58319819D02*
X106710714Y-58319819D01*
X106710714Y-58319819D02*
X106615476Y-58272200D01*
X106615476Y-58272200D02*
X106567857Y-58224580D01*
X104454819Y-51833333D02*
X105169104Y-51833333D01*
X105169104Y-51833333D02*
X105311961Y-51880952D01*
X105311961Y-51880952D02*
X105407200Y-51976190D01*
X105407200Y-51976190D02*
X105454819Y-52119047D01*
X105454819Y-52119047D02*
X105454819Y-52214285D01*
X104454819Y-50928571D02*
X104454819Y-51119047D01*
X104454819Y-51119047D02*
X104502438Y-51214285D01*
X104502438Y-51214285D02*
X104550057Y-51261904D01*
X104550057Y-51261904D02*
X104692914Y-51357142D01*
X104692914Y-51357142D02*
X104883390Y-51404761D01*
X104883390Y-51404761D02*
X105264342Y-51404761D01*
X105264342Y-51404761D02*
X105359580Y-51357142D01*
X105359580Y-51357142D02*
X105407200Y-51309523D01*
X105407200Y-51309523D02*
X105454819Y-51214285D01*
X105454819Y-51214285D02*
X105454819Y-51023809D01*
X105454819Y-51023809D02*
X105407200Y-50928571D01*
X105407200Y-50928571D02*
X105359580Y-50880952D01*
X105359580Y-50880952D02*
X105264342Y-50833333D01*
X105264342Y-50833333D02*
X105026247Y-50833333D01*
X105026247Y-50833333D02*
X104931009Y-50880952D01*
X104931009Y-50880952D02*
X104883390Y-50928571D01*
X104883390Y-50928571D02*
X104835771Y-51023809D01*
X104835771Y-51023809D02*
X104835771Y-51214285D01*
X104835771Y-51214285D02*
X104883390Y-51309523D01*
X104883390Y-51309523D02*
X104931009Y-51357142D01*
X104931009Y-51357142D02*
X105026247Y-51404761D01*
X109114700Y-58571428D02*
X109114700Y-57428571D01*
X109114700Y-45571428D02*
X109114700Y-44428571D01*
X109686128Y-44999999D02*
X108543271Y-44999999D01*
X151154819Y-51833333D02*
X151869104Y-51833333D01*
X151869104Y-51833333D02*
X152011961Y-51880952D01*
X152011961Y-51880952D02*
X152107200Y-51976190D01*
X152107200Y-51976190D02*
X152154819Y-52119047D01*
X152154819Y-52119047D02*
X152154819Y-52214285D01*
X152154819Y-50833333D02*
X152154819Y-51404761D01*
X152154819Y-51119047D02*
X151154819Y-51119047D01*
X151154819Y-51119047D02*
X151297676Y-51214285D01*
X151297676Y-51214285D02*
X151392914Y-51309523D01*
X151392914Y-51309523D02*
X151440533Y-51404761D01*
X56954819Y-51833333D02*
X57669104Y-51833333D01*
X57669104Y-51833333D02*
X57811961Y-51880952D01*
X57811961Y-51880952D02*
X57907200Y-51976190D01*
X57907200Y-51976190D02*
X57954819Y-52119047D01*
X57954819Y-52119047D02*
X57954819Y-52214285D01*
X56954819Y-50880952D02*
X56954819Y-51357142D01*
X56954819Y-51357142D02*
X57431009Y-51404761D01*
X57431009Y-51404761D02*
X57383390Y-51357142D01*
X57383390Y-51357142D02*
X57335771Y-51261904D01*
X57335771Y-51261904D02*
X57335771Y-51023809D01*
X57335771Y-51023809D02*
X57383390Y-50928571D01*
X57383390Y-50928571D02*
X57431009Y-50880952D01*
X57431009Y-50880952D02*
X57526247Y-50833333D01*
X57526247Y-50833333D02*
X57764342Y-50833333D01*
X57764342Y-50833333D02*
X57859580Y-50880952D01*
X57859580Y-50880952D02*
X57907200Y-50928571D01*
X57907200Y-50928571D02*
X57954819Y-51023809D01*
X57954819Y-51023809D02*
X57954819Y-51261904D01*
X57954819Y-51261904D02*
X57907200Y-51357142D01*
X57907200Y-51357142D02*
X57859580Y-51404761D01*
X61614700Y-58571428D02*
X61614700Y-57428571D01*
X61614700Y-45571428D02*
X61614700Y-44428571D01*
X62186128Y-44999999D02*
X61043271Y-44999999D01*
X165238095Y-74754819D02*
X165238095Y-73754819D01*
X165238095Y-74231009D02*
X165809523Y-74231009D01*
X165809523Y-74754819D02*
X165809523Y-73754819D01*
X166190476Y-73754819D02*
X166809523Y-73754819D01*
X166809523Y-73754819D02*
X166476190Y-74135771D01*
X166476190Y-74135771D02*
X166619047Y-74135771D01*
X166619047Y-74135771D02*
X166714285Y-74183390D01*
X166714285Y-74183390D02*
X166761904Y-74231009D01*
X166761904Y-74231009D02*
X166809523Y-74326247D01*
X166809523Y-74326247D02*
X166809523Y-74564342D01*
X166809523Y-74564342D02*
X166761904Y-74659580D01*
X166761904Y-74659580D02*
X166714285Y-74707200D01*
X166714285Y-74707200D02*
X166619047Y-74754819D01*
X166619047Y-74754819D02*
X166333333Y-74754819D01*
X166333333Y-74754819D02*
X166238095Y-74707200D01*
X166238095Y-74707200D02*
X166190476Y-74659580D01*
X35738095Y-41954819D02*
X35738095Y-40954819D01*
X35738095Y-41431009D02*
X36309523Y-41431009D01*
X36309523Y-41954819D02*
X36309523Y-40954819D01*
X37261904Y-40954819D02*
X36785714Y-40954819D01*
X36785714Y-40954819D02*
X36738095Y-41431009D01*
X36738095Y-41431009D02*
X36785714Y-41383390D01*
X36785714Y-41383390D02*
X36880952Y-41335771D01*
X36880952Y-41335771D02*
X37119047Y-41335771D01*
X37119047Y-41335771D02*
X37214285Y-41383390D01*
X37214285Y-41383390D02*
X37261904Y-41431009D01*
X37261904Y-41431009D02*
X37309523Y-41526247D01*
X37309523Y-41526247D02*
X37309523Y-41764342D01*
X37309523Y-41764342D02*
X37261904Y-41859580D01*
X37261904Y-41859580D02*
X37214285Y-41907200D01*
X37214285Y-41907200D02*
X37119047Y-41954819D01*
X37119047Y-41954819D02*
X36880952Y-41954819D01*
X36880952Y-41954819D02*
X36785714Y-41907200D01*
X36785714Y-41907200D02*
X36738095Y-41859580D01*
X84833333Y-78804819D02*
X84500000Y-78328628D01*
X84261905Y-78804819D02*
X84261905Y-77804819D01*
X84261905Y-77804819D02*
X84642857Y-77804819D01*
X84642857Y-77804819D02*
X84738095Y-77852438D01*
X84738095Y-77852438D02*
X84785714Y-77900057D01*
X84785714Y-77900057D02*
X84833333Y-77995295D01*
X84833333Y-77995295D02*
X84833333Y-78138152D01*
X84833333Y-78138152D02*
X84785714Y-78233390D01*
X84785714Y-78233390D02*
X84738095Y-78281009D01*
X84738095Y-78281009D02*
X84642857Y-78328628D01*
X84642857Y-78328628D02*
X84261905Y-78328628D01*
X85690476Y-78138152D02*
X85690476Y-78804819D01*
X85452381Y-77757200D02*
X85214286Y-78471485D01*
X85214286Y-78471485D02*
X85833333Y-78471485D01*
X31238095Y-74754819D02*
X31238095Y-73754819D01*
X31238095Y-74231009D02*
X31809523Y-74231009D01*
X31809523Y-74754819D02*
X31809523Y-73754819D01*
X32238095Y-73850057D02*
X32285714Y-73802438D01*
X32285714Y-73802438D02*
X32380952Y-73754819D01*
X32380952Y-73754819D02*
X32619047Y-73754819D01*
X32619047Y-73754819D02*
X32714285Y-73802438D01*
X32714285Y-73802438D02*
X32761904Y-73850057D01*
X32761904Y-73850057D02*
X32809523Y-73945295D01*
X32809523Y-73945295D02*
X32809523Y-74040533D01*
X32809523Y-74040533D02*
X32761904Y-74183390D01*
X32761904Y-74183390D02*
X32190476Y-74754819D01*
X32190476Y-74754819D02*
X32809523Y-74754819D01*
X101238095Y-74754819D02*
X101238095Y-73754819D01*
X101238095Y-74231009D02*
X101809523Y-74231009D01*
X101809523Y-74754819D02*
X101809523Y-73754819D01*
X102714285Y-73754819D02*
X102523809Y-73754819D01*
X102523809Y-73754819D02*
X102428571Y-73802438D01*
X102428571Y-73802438D02*
X102380952Y-73850057D01*
X102380952Y-73850057D02*
X102285714Y-73992914D01*
X102285714Y-73992914D02*
X102238095Y-74183390D01*
X102238095Y-74183390D02*
X102238095Y-74564342D01*
X102238095Y-74564342D02*
X102285714Y-74659580D01*
X102285714Y-74659580D02*
X102333333Y-74707200D01*
X102333333Y-74707200D02*
X102428571Y-74754819D01*
X102428571Y-74754819D02*
X102619047Y-74754819D01*
X102619047Y-74754819D02*
X102714285Y-74707200D01*
X102714285Y-74707200D02*
X102761904Y-74659580D01*
X102761904Y-74659580D02*
X102809523Y-74564342D01*
X102809523Y-74564342D02*
X102809523Y-74326247D01*
X102809523Y-74326247D02*
X102761904Y-74231009D01*
X102761904Y-74231009D02*
X102714285Y-74183390D01*
X102714285Y-74183390D02*
X102619047Y-74135771D01*
X102619047Y-74135771D02*
X102428571Y-74135771D01*
X102428571Y-74135771D02*
X102333333Y-74183390D01*
X102333333Y-74183390D02*
X102285714Y-74231009D01*
X102285714Y-74231009D02*
X102238095Y-74326247D01*
X46454819Y-51833333D02*
X47169104Y-51833333D01*
X47169104Y-51833333D02*
X47311961Y-51880952D01*
X47311961Y-51880952D02*
X47407200Y-51976190D01*
X47407200Y-51976190D02*
X47454819Y-52119047D01*
X47454819Y-52119047D02*
X47454819Y-52214285D01*
X46788152Y-50928571D02*
X47454819Y-50928571D01*
X46407200Y-51166666D02*
X47121485Y-51404761D01*
X47121485Y-51404761D02*
X47121485Y-50785714D01*
X51114700Y-58571428D02*
X51114700Y-57428571D01*
X51114700Y-45571428D02*
X51114700Y-44428571D01*
X51686128Y-44999999D02*
X50543271Y-44999999D01*
X114454819Y-51833333D02*
X115169104Y-51833333D01*
X115169104Y-51833333D02*
X115311961Y-51880952D01*
X115311961Y-51880952D02*
X115407200Y-51976190D01*
X115407200Y-51976190D02*
X115454819Y-52119047D01*
X115454819Y-52119047D02*
X115454819Y-52214285D01*
X114454819Y-51452380D02*
X114454819Y-50785714D01*
X114454819Y-50785714D02*
X115454819Y-51214285D01*
X119114700Y-45571428D02*
X119114700Y-44428571D01*
X119686128Y-44999999D02*
X118543271Y-44999999D01*
X119114700Y-58571428D02*
X119114700Y-57428571D01*
X125761905Y-80454819D02*
X125761905Y-79454819D01*
X125761905Y-79454819D02*
X126000000Y-79454819D01*
X126000000Y-79454819D02*
X126142857Y-79502438D01*
X126142857Y-79502438D02*
X126238095Y-79597676D01*
X126238095Y-79597676D02*
X126285714Y-79692914D01*
X126285714Y-79692914D02*
X126333333Y-79883390D01*
X126333333Y-79883390D02*
X126333333Y-80026247D01*
X126333333Y-80026247D02*
X126285714Y-80216723D01*
X126285714Y-80216723D02*
X126238095Y-80311961D01*
X126238095Y-80311961D02*
X126142857Y-80407200D01*
X126142857Y-80407200D02*
X126000000Y-80454819D01*
X126000000Y-80454819D02*
X125761905Y-80454819D01*
X126666667Y-79454819D02*
X127285714Y-79454819D01*
X127285714Y-79454819D02*
X126952381Y-79835771D01*
X126952381Y-79835771D02*
X127095238Y-79835771D01*
X127095238Y-79835771D02*
X127190476Y-79883390D01*
X127190476Y-79883390D02*
X127238095Y-79931009D01*
X127238095Y-79931009D02*
X127285714Y-80026247D01*
X127285714Y-80026247D02*
X127285714Y-80264342D01*
X127285714Y-80264342D02*
X127238095Y-80359580D01*
X127238095Y-80359580D02*
X127190476Y-80407200D01*
X127190476Y-80407200D02*
X127095238Y-80454819D01*
X127095238Y-80454819D02*
X126809524Y-80454819D01*
X126809524Y-80454819D02*
X126714286Y-80407200D01*
X126714286Y-80407200D02*
X126666667Y-80359580D01*
X91261905Y-80454819D02*
X91261905Y-79454819D01*
X91261905Y-79454819D02*
X91500000Y-79454819D01*
X91500000Y-79454819D02*
X91642857Y-79502438D01*
X91642857Y-79502438D02*
X91738095Y-79597676D01*
X91738095Y-79597676D02*
X91785714Y-79692914D01*
X91785714Y-79692914D02*
X91833333Y-79883390D01*
X91833333Y-79883390D02*
X91833333Y-80026247D01*
X91833333Y-80026247D02*
X91785714Y-80216723D01*
X91785714Y-80216723D02*
X91738095Y-80311961D01*
X91738095Y-80311961D02*
X91642857Y-80407200D01*
X91642857Y-80407200D02*
X91500000Y-80454819D01*
X91500000Y-80454819D02*
X91261905Y-80454819D01*
X92690476Y-79788152D02*
X92690476Y-80454819D01*
X92452381Y-79407200D02*
X92214286Y-80121485D01*
X92214286Y-80121485D02*
X92833333Y-80121485D01*
X37663095Y-58272200D02*
X37805952Y-58319819D01*
X37805952Y-58319819D02*
X38044047Y-58319819D01*
X38044047Y-58319819D02*
X38139285Y-58272200D01*
X38139285Y-58272200D02*
X38186904Y-58224580D01*
X38186904Y-58224580D02*
X38234523Y-58129342D01*
X38234523Y-58129342D02*
X38234523Y-58034104D01*
X38234523Y-58034104D02*
X38186904Y-57938866D01*
X38186904Y-57938866D02*
X38139285Y-57891247D01*
X38139285Y-57891247D02*
X38044047Y-57843628D01*
X38044047Y-57843628D02*
X37853571Y-57796009D01*
X37853571Y-57796009D02*
X37758333Y-57748390D01*
X37758333Y-57748390D02*
X37710714Y-57700771D01*
X37710714Y-57700771D02*
X37663095Y-57605533D01*
X37663095Y-57605533D02*
X37663095Y-57510295D01*
X37663095Y-57510295D02*
X37710714Y-57415057D01*
X37710714Y-57415057D02*
X37758333Y-57367438D01*
X37758333Y-57367438D02*
X37853571Y-57319819D01*
X37853571Y-57319819D02*
X38091666Y-57319819D01*
X38091666Y-57319819D02*
X38234523Y-57367438D01*
X39091666Y-57653152D02*
X39091666Y-58319819D01*
X38853571Y-57272200D02*
X38615476Y-57986485D01*
X38615476Y-57986485D02*
X39234523Y-57986485D01*
X50833333Y-78804819D02*
X50500000Y-78328628D01*
X50261905Y-78804819D02*
X50261905Y-77804819D01*
X50261905Y-77804819D02*
X50642857Y-77804819D01*
X50642857Y-77804819D02*
X50738095Y-77852438D01*
X50738095Y-77852438D02*
X50785714Y-77900057D01*
X50785714Y-77900057D02*
X50833333Y-77995295D01*
X50833333Y-77995295D02*
X50833333Y-78138152D01*
X50833333Y-78138152D02*
X50785714Y-78233390D01*
X50785714Y-78233390D02*
X50738095Y-78281009D01*
X50738095Y-78281009D02*
X50642857Y-78328628D01*
X50642857Y-78328628D02*
X50261905Y-78328628D01*
X51738095Y-77804819D02*
X51261905Y-77804819D01*
X51261905Y-77804819D02*
X51214286Y-78281009D01*
X51214286Y-78281009D02*
X51261905Y-78233390D01*
X51261905Y-78233390D02*
X51357143Y-78185771D01*
X51357143Y-78185771D02*
X51595238Y-78185771D01*
X51595238Y-78185771D02*
X51690476Y-78233390D01*
X51690476Y-78233390D02*
X51738095Y-78281009D01*
X51738095Y-78281009D02*
X51785714Y-78376247D01*
X51785714Y-78376247D02*
X51785714Y-78614342D01*
X51785714Y-78614342D02*
X51738095Y-78709580D01*
X51738095Y-78709580D02*
X51690476Y-78757200D01*
X51690476Y-78757200D02*
X51595238Y-78804819D01*
X51595238Y-78804819D02*
X51357143Y-78804819D01*
X51357143Y-78804819D02*
X51261905Y-78757200D01*
X51261905Y-78757200D02*
X51214286Y-78709580D01*
X166059819Y-66328094D02*
X165059819Y-66328094D01*
X165059819Y-66328094D02*
X165059819Y-66089999D01*
X165059819Y-66089999D02*
X165107438Y-65947142D01*
X165107438Y-65947142D02*
X165202676Y-65851904D01*
X165202676Y-65851904D02*
X165297914Y-65804285D01*
X165297914Y-65804285D02*
X165488390Y-65756666D01*
X165488390Y-65756666D02*
X165631247Y-65756666D01*
X165631247Y-65756666D02*
X165821723Y-65804285D01*
X165821723Y-65804285D02*
X165916961Y-65851904D01*
X165916961Y-65851904D02*
X166012200Y-65947142D01*
X166012200Y-65947142D02*
X166059819Y-66089999D01*
X166059819Y-66089999D02*
X166059819Y-66328094D01*
X166059819Y-64804285D02*
X166059819Y-65375713D01*
X166059819Y-65089999D02*
X165059819Y-65089999D01*
X165059819Y-65089999D02*
X165202676Y-65185237D01*
X165202676Y-65185237D02*
X165297914Y-65280475D01*
X165297914Y-65280475D02*
X165345533Y-65375713D01*
X71663095Y-58272200D02*
X71805952Y-58319819D01*
X71805952Y-58319819D02*
X72044047Y-58319819D01*
X72044047Y-58319819D02*
X72139285Y-58272200D01*
X72139285Y-58272200D02*
X72186904Y-58224580D01*
X72186904Y-58224580D02*
X72234523Y-58129342D01*
X72234523Y-58129342D02*
X72234523Y-58034104D01*
X72234523Y-58034104D02*
X72186904Y-57938866D01*
X72186904Y-57938866D02*
X72139285Y-57891247D01*
X72139285Y-57891247D02*
X72044047Y-57843628D01*
X72044047Y-57843628D02*
X71853571Y-57796009D01*
X71853571Y-57796009D02*
X71758333Y-57748390D01*
X71758333Y-57748390D02*
X71710714Y-57700771D01*
X71710714Y-57700771D02*
X71663095Y-57605533D01*
X71663095Y-57605533D02*
X71663095Y-57510295D01*
X71663095Y-57510295D02*
X71710714Y-57415057D01*
X71710714Y-57415057D02*
X71758333Y-57367438D01*
X71758333Y-57367438D02*
X71853571Y-57319819D01*
X71853571Y-57319819D02*
X72091666Y-57319819D01*
X72091666Y-57319819D02*
X72234523Y-57367438D01*
X72615476Y-57415057D02*
X72663095Y-57367438D01*
X72663095Y-57367438D02*
X72758333Y-57319819D01*
X72758333Y-57319819D02*
X72996428Y-57319819D01*
X72996428Y-57319819D02*
X73091666Y-57367438D01*
X73091666Y-57367438D02*
X73139285Y-57415057D01*
X73139285Y-57415057D02*
X73186904Y-57510295D01*
X73186904Y-57510295D02*
X73186904Y-57605533D01*
X73186904Y-57605533D02*
X73139285Y-57748390D01*
X73139285Y-57748390D02*
X72567857Y-58319819D01*
X72567857Y-58319819D02*
X73186904Y-58319819D01*
X160738095Y-41954819D02*
X160738095Y-40954819D01*
X160738095Y-41431009D02*
X161309523Y-41431009D01*
X161309523Y-41954819D02*
X161309523Y-40954819D01*
X162309523Y-41954819D02*
X161738095Y-41954819D01*
X162023809Y-41954819D02*
X162023809Y-40954819D01*
X162023809Y-40954819D02*
X161928571Y-41097676D01*
X161928571Y-41097676D02*
X161833333Y-41192914D01*
X161833333Y-41192914D02*
X161738095Y-41240533D01*
X35954819Y-51833333D02*
X36669104Y-51833333D01*
X36669104Y-51833333D02*
X36811961Y-51880952D01*
X36811961Y-51880952D02*
X36907200Y-51976190D01*
X36907200Y-51976190D02*
X36954819Y-52119047D01*
X36954819Y-52119047D02*
X36954819Y-52214285D01*
X35954819Y-51452380D02*
X35954819Y-50833333D01*
X35954819Y-50833333D02*
X36335771Y-51166666D01*
X36335771Y-51166666D02*
X36335771Y-51023809D01*
X36335771Y-51023809D02*
X36383390Y-50928571D01*
X36383390Y-50928571D02*
X36431009Y-50880952D01*
X36431009Y-50880952D02*
X36526247Y-50833333D01*
X36526247Y-50833333D02*
X36764342Y-50833333D01*
X36764342Y-50833333D02*
X36859580Y-50880952D01*
X36859580Y-50880952D02*
X36907200Y-50928571D01*
X36907200Y-50928571D02*
X36954819Y-51023809D01*
X36954819Y-51023809D02*
X36954819Y-51309523D01*
X36954819Y-51309523D02*
X36907200Y-51404761D01*
X36907200Y-51404761D02*
X36859580Y-51452380D01*
X40614700Y-58571428D02*
X40614700Y-57428571D01*
X40614700Y-45571428D02*
X40614700Y-44428571D01*
X41186128Y-44999999D02*
X40043271Y-44999999D01*
X162304819Y-55139166D02*
X161828628Y-55472499D01*
X162304819Y-55710594D02*
X161304819Y-55710594D01*
X161304819Y-55710594D02*
X161304819Y-55329642D01*
X161304819Y-55329642D02*
X161352438Y-55234404D01*
X161352438Y-55234404D02*
X161400057Y-55186785D01*
X161400057Y-55186785D02*
X161495295Y-55139166D01*
X161495295Y-55139166D02*
X161638152Y-55139166D01*
X161638152Y-55139166D02*
X161733390Y-55186785D01*
X161733390Y-55186785D02*
X161781009Y-55234404D01*
X161781009Y-55234404D02*
X161828628Y-55329642D01*
X161828628Y-55329642D02*
X161828628Y-55710594D01*
X161400057Y-54758213D02*
X161352438Y-54710594D01*
X161352438Y-54710594D02*
X161304819Y-54615356D01*
X161304819Y-54615356D02*
X161304819Y-54377261D01*
X161304819Y-54377261D02*
X161352438Y-54282023D01*
X161352438Y-54282023D02*
X161400057Y-54234404D01*
X161400057Y-54234404D02*
X161495295Y-54186785D01*
X161495295Y-54186785D02*
X161590533Y-54186785D01*
X161590533Y-54186785D02*
X161733390Y-54234404D01*
X161733390Y-54234404D02*
X162304819Y-54805832D01*
X162304819Y-54805832D02*
X162304819Y-54186785D01*
X124954819Y-51833333D02*
X125669104Y-51833333D01*
X125669104Y-51833333D02*
X125811961Y-51880952D01*
X125811961Y-51880952D02*
X125907200Y-51976190D01*
X125907200Y-51976190D02*
X125954819Y-52119047D01*
X125954819Y-52119047D02*
X125954819Y-52214285D01*
X125383390Y-51214285D02*
X125335771Y-51309523D01*
X125335771Y-51309523D02*
X125288152Y-51357142D01*
X125288152Y-51357142D02*
X125192914Y-51404761D01*
X125192914Y-51404761D02*
X125145295Y-51404761D01*
X125145295Y-51404761D02*
X125050057Y-51357142D01*
X125050057Y-51357142D02*
X125002438Y-51309523D01*
X125002438Y-51309523D02*
X124954819Y-51214285D01*
X124954819Y-51214285D02*
X124954819Y-51023809D01*
X124954819Y-51023809D02*
X125002438Y-50928571D01*
X125002438Y-50928571D02*
X125050057Y-50880952D01*
X125050057Y-50880952D02*
X125145295Y-50833333D01*
X125145295Y-50833333D02*
X125192914Y-50833333D01*
X125192914Y-50833333D02*
X125288152Y-50880952D01*
X125288152Y-50880952D02*
X125335771Y-50928571D01*
X125335771Y-50928571D02*
X125383390Y-51023809D01*
X125383390Y-51023809D02*
X125383390Y-51214285D01*
X125383390Y-51214285D02*
X125431009Y-51309523D01*
X125431009Y-51309523D02*
X125478628Y-51357142D01*
X125478628Y-51357142D02*
X125573866Y-51404761D01*
X125573866Y-51404761D02*
X125764342Y-51404761D01*
X125764342Y-51404761D02*
X125859580Y-51357142D01*
X125859580Y-51357142D02*
X125907200Y-51309523D01*
X125907200Y-51309523D02*
X125954819Y-51214285D01*
X125954819Y-51214285D02*
X125954819Y-51023809D01*
X125954819Y-51023809D02*
X125907200Y-50928571D01*
X125907200Y-50928571D02*
X125859580Y-50880952D01*
X125859580Y-50880952D02*
X125764342Y-50833333D01*
X125764342Y-50833333D02*
X125573866Y-50833333D01*
X125573866Y-50833333D02*
X125478628Y-50880952D01*
X125478628Y-50880952D02*
X125431009Y-50928571D01*
X125431009Y-50928571D02*
X125383390Y-51023809D01*
X129614700Y-58571428D02*
X129614700Y-57428571D01*
X129614700Y-45571428D02*
X129614700Y-44428571D01*
X130186128Y-44999999D02*
X129043271Y-44999999D01*
X80454819Y-52309523D02*
X81169104Y-52309523D01*
X81169104Y-52309523D02*
X81311961Y-52357142D01*
X81311961Y-52357142D02*
X81407200Y-52452380D01*
X81407200Y-52452380D02*
X81454819Y-52595237D01*
X81454819Y-52595237D02*
X81454819Y-52690475D01*
X81454819Y-51309523D02*
X81454819Y-51880951D01*
X81454819Y-51595237D02*
X80454819Y-51595237D01*
X80454819Y-51595237D02*
X80597676Y-51690475D01*
X80597676Y-51690475D02*
X80692914Y-51785713D01*
X80692914Y-51785713D02*
X80740533Y-51880951D01*
X80454819Y-50690475D02*
X80454819Y-50595237D01*
X80454819Y-50595237D02*
X80502438Y-50499999D01*
X80502438Y-50499999D02*
X80550057Y-50452380D01*
X80550057Y-50452380D02*
X80645295Y-50404761D01*
X80645295Y-50404761D02*
X80835771Y-50357142D01*
X80835771Y-50357142D02*
X81073866Y-50357142D01*
X81073866Y-50357142D02*
X81264342Y-50404761D01*
X81264342Y-50404761D02*
X81359580Y-50452380D01*
X81359580Y-50452380D02*
X81407200Y-50499999D01*
X81407200Y-50499999D02*
X81454819Y-50595237D01*
X81454819Y-50595237D02*
X81454819Y-50690475D01*
X81454819Y-50690475D02*
X81407200Y-50785713D01*
X81407200Y-50785713D02*
X81359580Y-50833332D01*
X81359580Y-50833332D02*
X81264342Y-50880951D01*
X81264342Y-50880951D02*
X81073866Y-50928570D01*
X81073866Y-50928570D02*
X80835771Y-50928570D01*
X80835771Y-50928570D02*
X80645295Y-50880951D01*
X80645295Y-50880951D02*
X80550057Y-50833332D01*
X80550057Y-50833332D02*
X80502438Y-50785713D01*
X80502438Y-50785713D02*
X80454819Y-50690475D01*
X85114700Y-45571428D02*
X85114700Y-44428571D01*
X85686128Y-44999999D02*
X84543271Y-44999999D01*
X85114700Y-58571428D02*
X85114700Y-57428571D01*
X69954819Y-51833333D02*
X70669104Y-51833333D01*
X70669104Y-51833333D02*
X70811961Y-51880952D01*
X70811961Y-51880952D02*
X70907200Y-51976190D01*
X70907200Y-51976190D02*
X70954819Y-52119047D01*
X70954819Y-52119047D02*
X70954819Y-52214285D01*
X70954819Y-51309523D02*
X70954819Y-51119047D01*
X70954819Y-51119047D02*
X70907200Y-51023809D01*
X70907200Y-51023809D02*
X70859580Y-50976190D01*
X70859580Y-50976190D02*
X70716723Y-50880952D01*
X70716723Y-50880952D02*
X70526247Y-50833333D01*
X70526247Y-50833333D02*
X70145295Y-50833333D01*
X70145295Y-50833333D02*
X70050057Y-50880952D01*
X70050057Y-50880952D02*
X70002438Y-50928571D01*
X70002438Y-50928571D02*
X69954819Y-51023809D01*
X69954819Y-51023809D02*
X69954819Y-51214285D01*
X69954819Y-51214285D02*
X70002438Y-51309523D01*
X70002438Y-51309523D02*
X70050057Y-51357142D01*
X70050057Y-51357142D02*
X70145295Y-51404761D01*
X70145295Y-51404761D02*
X70383390Y-51404761D01*
X70383390Y-51404761D02*
X70478628Y-51357142D01*
X70478628Y-51357142D02*
X70526247Y-51309523D01*
X70526247Y-51309523D02*
X70573866Y-51214285D01*
X70573866Y-51214285D02*
X70573866Y-51023809D01*
X70573866Y-51023809D02*
X70526247Y-50928571D01*
X70526247Y-50928571D02*
X70478628Y-50880952D01*
X70478628Y-50880952D02*
X70383390Y-50833333D01*
X74614700Y-58571428D02*
X74614700Y-57428571D01*
X74614700Y-45571428D02*
X74614700Y-44428571D01*
X75186128Y-44999999D02*
X74043271Y-44999999D01*
D11*
%TO.C,D5*%
X54410000Y-80960000D02*
X57095000Y-80960000D01*
X57095000Y-79040000D02*
X54410000Y-79040000D01*
X57095000Y-80960000D02*
X57095000Y-79040000D01*
%TO.C,J11*%
X92790000Y-46290000D02*
X98210000Y-46290000D01*
X92790000Y-55010000D02*
X92790000Y-46290000D01*
X94090000Y-56710000D02*
X92790000Y-55010000D01*
X94090000Y-56710000D02*
X96910000Y-56710000D01*
X96910000Y-56710000D02*
X98210000Y-55010000D01*
X98210000Y-55010000D02*
X98210000Y-46290000D01*
%TO.C,D2*%
X162540000Y-49377500D02*
X162540000Y-52062500D01*
X164460000Y-49377500D02*
X162540000Y-49377500D01*
X164460000Y-52062500D02*
X164460000Y-49377500D01*
%TO.C,R1*%
X163265000Y-69639564D02*
X163265000Y-69185436D01*
X164735000Y-69639564D02*
X164735000Y-69185436D01*
D12*
%TO.C,S1*%
X137000000Y-43500000D02*
X137000000Y-75500000D01*
X137000000Y-75500000D02*
X151000000Y-75500000D01*
X151000000Y-43500000D02*
X137000000Y-43500000D01*
X151000000Y-75500000D02*
X151000000Y-43500000D01*
D13*
X144100000Y-76000000D02*
G75*
G02*
X143900000Y-76000000I-100000J0D01*
G01*
X143900000Y-76000000D02*
G75*
G02*
X144100000Y-76000000I100000J0D01*
G01*
D11*
%TO.C,R3*%
X118860436Y-79265000D02*
X119314564Y-79265000D01*
X118860436Y-80735000D02*
X119314564Y-80735000D01*
%TO.C,J2*%
X152850000Y-64150000D02*
X152850000Y-77000000D01*
X152850000Y-77000000D02*
X155400000Y-79850000D01*
X155400000Y-79850000D02*
X158550000Y-79850000D01*
X158550000Y-79850000D02*
X161150000Y-77000000D01*
X161150000Y-64150000D02*
X152850000Y-64150000D01*
X161150000Y-77000000D02*
X161150000Y-64150000D01*
D12*
%TO.C,S3*%
X103000000Y-59000000D02*
X103000000Y-73000000D01*
X103000000Y-73000000D02*
X135000000Y-73000000D01*
X135000000Y-59000000D02*
X103000000Y-59000000D01*
X135000000Y-73000000D02*
X135000000Y-59000000D01*
D13*
X135600000Y-66000000D02*
G75*
G02*
X135400000Y-66000000I-100000J0D01*
G01*
X135400000Y-66000000D02*
G75*
G02*
X135600000Y-66000000I100000J0D01*
G01*
D11*
%TO.C,J6*%
X106290000Y-46290000D02*
X111710000Y-46290000D01*
X106290000Y-55010000D02*
X106290000Y-46290000D01*
X107590000Y-56710000D02*
X106290000Y-55010000D01*
X107590000Y-56710000D02*
X110410000Y-56710000D01*
X110410000Y-56710000D02*
X111710000Y-55010000D01*
X111710000Y-55010000D02*
X111710000Y-46290000D01*
%TO.C,J1*%
X152850000Y-43650000D02*
X152850000Y-56500000D01*
X152850000Y-56500000D02*
X155400000Y-59350000D01*
X155400000Y-59350000D02*
X158550000Y-59350000D01*
X158550000Y-59350000D02*
X161150000Y-56500000D01*
X161150000Y-43650000D02*
X152850000Y-43650000D01*
X161150000Y-56500000D02*
X161150000Y-43650000D01*
%TO.C,J5*%
X58790000Y-46290000D02*
X64210000Y-46290000D01*
X58790000Y-55010000D02*
X58790000Y-46290000D01*
X60090000Y-56710000D02*
X58790000Y-55010000D01*
X60090000Y-56710000D02*
X62910000Y-56710000D01*
X62910000Y-56710000D02*
X64210000Y-55010000D01*
X64210000Y-55010000D02*
X64210000Y-46290000D01*
%TO.C,R4*%
X84772936Y-79265000D02*
X85227064Y-79265000D01*
X84772936Y-80735000D02*
X85227064Y-80735000D01*
%TO.C,J4*%
X48290000Y-46290000D02*
X53710000Y-46290000D01*
X48290000Y-55010000D02*
X48290000Y-46290000D01*
X49590000Y-56710000D02*
X48290000Y-55010000D01*
X49590000Y-56710000D02*
X52410000Y-56710000D01*
X52410000Y-56710000D02*
X53710000Y-55010000D01*
X53710000Y-55010000D02*
X53710000Y-46290000D01*
%TO.C,J7*%
X116290000Y-46290000D02*
X121710000Y-46290000D01*
X116290000Y-55010000D02*
X116290000Y-46290000D01*
X117590000Y-56710000D02*
X116290000Y-55010000D01*
X117590000Y-56710000D02*
X120410000Y-56710000D01*
X120410000Y-56710000D02*
X121710000Y-55010000D01*
X121710000Y-55010000D02*
X121710000Y-46290000D01*
%TO.C,D3*%
X122497500Y-80960000D02*
X125182500Y-80960000D01*
X125182500Y-79040000D02*
X122497500Y-79040000D01*
X125182500Y-80960000D02*
X125182500Y-79040000D01*
%TO.C,D4*%
X87975000Y-80960000D02*
X90660000Y-80960000D01*
X90660000Y-79040000D02*
X87975000Y-79040000D01*
X90660000Y-80960000D02*
X90660000Y-79040000D01*
D12*
%TO.C,S4*%
X35000000Y-59000000D02*
X35000000Y-73000000D01*
X35000000Y-73000000D02*
X67000000Y-73000000D01*
X67000000Y-59000000D02*
X35000000Y-59000000D01*
X67000000Y-73000000D02*
X67000000Y-59000000D01*
D13*
X67600000Y-66000000D02*
G75*
G02*
X67400000Y-66000000I-100000J0D01*
G01*
X67400000Y-66000000D02*
G75*
G02*
X67600000Y-66000000I100000J0D01*
G01*
D11*
%TO.C,R5*%
X50772936Y-79265000D02*
X51227064Y-79265000D01*
X50772936Y-80735000D02*
X51227064Y-80735000D01*
%TO.C,D1*%
X162995000Y-63905000D02*
X162995000Y-66590000D01*
X164915000Y-63905000D02*
X162995000Y-63905000D01*
X164915000Y-66590000D02*
X164915000Y-63905000D01*
D12*
%TO.C,S2*%
X69000000Y-59000000D02*
X69000000Y-73000000D01*
X69000000Y-73000000D02*
X101000000Y-73000000D01*
X101000000Y-59000000D02*
X69000000Y-59000000D01*
X101000000Y-73000000D02*
X101000000Y-59000000D01*
D13*
X101600000Y-66000000D02*
G75*
G02*
X101400000Y-66000000I-100000J0D01*
G01*
X101400000Y-66000000D02*
G75*
G02*
X101600000Y-66000000I100000J0D01*
G01*
D11*
%TO.C,J3*%
X37790000Y-46290000D02*
X43210000Y-46290000D01*
X37790000Y-55010000D02*
X37790000Y-46290000D01*
X39090000Y-56710000D02*
X37790000Y-55010000D01*
X39090000Y-56710000D02*
X41910000Y-56710000D01*
X41910000Y-56710000D02*
X43210000Y-55010000D01*
X43210000Y-55010000D02*
X43210000Y-46290000D01*
%TO.C,R2*%
X162765000Y-55199564D02*
X162765000Y-54745436D01*
X164235000Y-55199564D02*
X164235000Y-54745436D01*
%TO.C,J8*%
X126790000Y-46290000D02*
X132210000Y-46290000D01*
X126790000Y-55010000D02*
X126790000Y-46290000D01*
X128090000Y-56710000D02*
X126790000Y-55010000D01*
X128090000Y-56710000D02*
X130910000Y-56710000D01*
X130910000Y-56710000D02*
X132210000Y-55010000D01*
X132210000Y-55010000D02*
X132210000Y-46290000D01*
%TO.C,J10*%
X82290000Y-46290000D02*
X87710000Y-46290000D01*
X82290000Y-55010000D02*
X82290000Y-46290000D01*
X83590000Y-56710000D02*
X82290000Y-55010000D01*
X83590000Y-56710000D02*
X86410000Y-56710000D01*
X86410000Y-56710000D02*
X87710000Y-55010000D01*
X87710000Y-55010000D02*
X87710000Y-46290000D01*
%TO.C,J9*%
X71790000Y-46290000D02*
X77210000Y-46290000D01*
X71790000Y-55010000D02*
X71790000Y-46290000D01*
X73090000Y-56710000D02*
X71790000Y-55010000D01*
X73090000Y-56710000D02*
X75910000Y-56710000D01*
X75910000Y-56710000D02*
X77210000Y-55010000D01*
X77210000Y-55010000D02*
X77210000Y-46290000D01*
%TD*%
M02*
