%TF.GenerationSoftware,KiCad,Pcbnew,8.0.5*%
%TF.CreationDate,2024-12-09T20:23:35-08:00*%
%TF.ProjectId,Power_PCB,506f7765-725f-4504-9342-2e6b69636164,rev?*%
%TF.SameCoordinates,Original*%
%TF.FileFunction,Soldermask,Bot*%
%TF.FilePolarity,Negative*%
%FSLAX46Y46*%
G04 Gerber Fmt 4.6, Leading zero omitted, Abs format (unit mm)*
G04 Created by KiCad (PCBNEW 8.0.5) date 2024-12-09 20:23:35*
%MOMM*%
%LPD*%
G01*
G04 APERTURE LIST*
G04 Aperture macros list*
%AMRoundRect*
0 Rectangle with rounded corners*
0 $1 Rounding radius*
0 $2 $3 $4 $5 $6 $7 $8 $9 X,Y pos of 4 corners*
0 Add a 4 corners polygon primitive as box body*
4,1,4,$2,$3,$4,$5,$6,$7,$8,$9,$2,$3,0*
0 Add four circle primitives for the rounded corners*
1,1,$1+$1,$2,$3*
1,1,$1+$1,$4,$5*
1,1,$1+$1,$6,$7*
1,1,$1+$1,$8,$9*
0 Add four rect primitives between the rounded corners*
20,1,$1+$1,$2,$3,$4,$5,0*
20,1,$1+$1,$4,$5,$6,$7,0*
20,1,$1+$1,$6,$7,$8,$9,0*
20,1,$1+$1,$8,$9,$2,$3,0*%
G04 Aperture macros list end*
%ADD10C,3.200000*%
%ADD11R,3.800000X3.800000*%
%ADD12C,3.800000*%
%ADD13RoundRect,1.500000X1.500000X-1.500000X1.500000X1.500000X-1.500000X1.500000X-1.500000X-1.500000X0*%
%ADD14C,6.000000*%
%ADD15O,8.604000X4.404000*%
%ADD16C,1.524000*%
%ADD17R,1.905000X1.905000*%
%ADD18C,1.803400*%
%ADD19R,1.700000X1.700000*%
%ADD20O,1.700000X1.700000*%
%ADD21RoundRect,0.250000X2.475000X-0.712500X2.475000X0.712500X-2.475000X0.712500X-2.475000X-0.712500X0*%
%ADD22RoundRect,0.250000X0.475000X-0.250000X0.475000X0.250000X-0.475000X0.250000X-0.475000X-0.250000X0*%
%ADD23RoundRect,0.375000X0.375000X-0.625000X0.375000X0.625000X-0.375000X0.625000X-0.375000X-0.625000X0*%
%ADD24RoundRect,0.500000X1.400000X-0.500000X1.400000X0.500000X-1.400000X0.500000X-1.400000X-0.500000X0*%
%ADD25RoundRect,0.250000X0.262500X0.450000X-0.262500X0.450000X-0.262500X-0.450000X0.262500X-0.450000X0*%
%ADD26RoundRect,0.250000X1.500000X0.650000X-1.500000X0.650000X-1.500000X-0.650000X1.500000X-0.650000X0*%
%ADD27RoundRect,0.250000X-0.350000X0.850000X-0.350000X-0.850000X0.350000X-0.850000X0.350000X0.850000X0*%
%ADD28RoundRect,0.249997X-2.650003X2.950003X-2.650003X-2.950003X2.650003X-2.950003X2.650003X2.950003X0*%
G04 APERTURE END LIST*
D10*
%TO.C,H4*%
X102000000Y-41500000D03*
%TD*%
D11*
%TO.C,J7*%
X49000000Y-48000000D03*
D12*
X49000000Y-43000000D03*
%TD*%
D13*
%TO.C,J2*%
X157500000Y-67500000D03*
D14*
X157500000Y-60300000D03*
%TD*%
D15*
%TO.C,S1*%
X143250000Y-76000000D03*
X143250000Y-65500000D03*
%TD*%
D10*
%TO.C,H1*%
X166000000Y-41500000D03*
%TD*%
D16*
%TO.C,SW7*%
X85000000Y-64300000D03*
X85000000Y-69100000D03*
X85000000Y-73750000D03*
%TD*%
D13*
%TO.C,J1*%
X157500000Y-50000000D03*
D14*
X157500000Y-42800000D03*
%TD*%
D11*
%TO.C,J9*%
X58000000Y-48000000D03*
D12*
X58000000Y-43000000D03*
%TD*%
D16*
%TO.C,SW3*%
X94000000Y-64300000D03*
X94000000Y-69100000D03*
X94000000Y-73750000D03*
%TD*%
D10*
%TO.C,H3*%
X166000000Y-78500000D03*
%TD*%
%TO.C,H5*%
X32000000Y-41500000D03*
%TD*%
D16*
%TO.C,SW6*%
X58000000Y-64300000D03*
X58000000Y-69100000D03*
X58000000Y-73750000D03*
%TD*%
D10*
%TO.C,H2*%
X32000000Y-78500000D03*
%TD*%
%TO.C,H6*%
X102000000Y-78500000D03*
%TD*%
D11*
%TO.C,J8*%
X76000000Y-48000000D03*
D12*
X76000000Y-43000000D03*
%TD*%
D16*
%TO.C,SW4*%
X49000000Y-64300000D03*
X49000000Y-69100000D03*
X49000000Y-73750000D03*
%TD*%
D11*
%TO.C,J5*%
X67000000Y-48000000D03*
D12*
X67000000Y-43000000D03*
%TD*%
D17*
%TO.C,K1*%
X110000004Y-60000001D03*
D18*
X112000000Y-66000000D03*
X124199112Y-66000000D03*
X124199112Y-54000002D03*
X112000000Y-54000002D03*
%TD*%
D16*
%TO.C,SW2*%
X67000000Y-64300000D03*
X67000000Y-69100000D03*
X67000000Y-73750000D03*
%TD*%
D11*
%TO.C,J6*%
X94000000Y-48000000D03*
D12*
X94000000Y-43000000D03*
%TD*%
D11*
%TO.C,J4*%
X40000000Y-48250000D03*
D12*
X40000000Y-43250000D03*
%TD*%
D16*
%TO.C,SW5*%
X76000000Y-64300000D03*
X76000000Y-69100000D03*
X76000000Y-73750000D03*
%TD*%
D11*
%TO.C,J10*%
X85000000Y-48000000D03*
D12*
X85000000Y-43000000D03*
%TD*%
D16*
%TO.C,SW1*%
X40000000Y-64300000D03*
X40000000Y-69100000D03*
X40000000Y-73750000D03*
%TD*%
D19*
%TO.C,J3*%
X109000000Y-75000000D03*
D20*
X111540000Y-75000000D03*
X114080000Y-75000000D03*
%TD*%
D21*
%TO.C,F3*%
X67000000Y-60387500D03*
X67000000Y-53612500D03*
%TD*%
D22*
%TO.C,C2*%
X112200000Y-43300000D03*
X112200000Y-41400000D03*
%TD*%
D21*
%TO.C,F2*%
X94000000Y-60387500D03*
X94000000Y-53612500D03*
%TD*%
%TO.C,F4*%
X40000000Y-60387500D03*
X40000000Y-53612500D03*
%TD*%
%TO.C,F5*%
X49000000Y-60387500D03*
X49000000Y-53612500D03*
%TD*%
D23*
%TO.C,U1*%
X119500000Y-45500000D03*
X117200000Y-45500000D03*
X114900000Y-45500000D03*
D24*
X117200000Y-39200000D03*
%TD*%
D21*
%TO.C,F8*%
X58000000Y-60387500D03*
X58000000Y-53612500D03*
%TD*%
D25*
%TO.C,R13*%
X108662500Y-66000000D03*
X106837500Y-66000000D03*
%TD*%
%TO.C,R3*%
X140412500Y-40500000D03*
X138587500Y-40500000D03*
%TD*%
D26*
%TO.C,D3*%
X148500000Y-40500000D03*
X143500000Y-40500000D03*
%TD*%
D27*
%TO.C,Q1*%
X144500000Y-44000000D03*
D28*
X146780000Y-50300000D03*
D27*
X149060000Y-44000000D03*
%TD*%
D21*
%TO.C,F6*%
X76000000Y-60387500D03*
X76000000Y-53612500D03*
%TD*%
D22*
%TO.C,C1*%
X122200000Y-43300000D03*
X122200000Y-41400000D03*
%TD*%
D21*
%TO.C,F7*%
X85000000Y-60387500D03*
X85000000Y-53612500D03*
%TD*%
M02*
