%TF.GenerationSoftware,KiCad,Pcbnew,8.0.5*%
%TF.CreationDate,2024-12-09T20:23:34-08:00*%
%TF.ProjectId,Power_PCB,506f7765-725f-4504-9342-2e6b69636164,rev?*%
%TF.SameCoordinates,Original*%
%TF.FileFunction,Legend,Top*%
%TF.FilePolarity,Positive*%
%FSLAX46Y46*%
G04 Gerber Fmt 4.6, Leading zero omitted, Abs format (unit mm)*
G04 Created by KiCad (PCBNEW 8.0.5) date 2024-12-09 20:23:34*
%MOMM*%
%LPD*%
G01*
G04 APERTURE LIST*
%ADD10C,0.300000*%
%ADD11C,0.500000*%
%ADD12C,0.200000*%
%ADD13C,0.350000*%
%ADD14C,0.250000*%
%ADD15C,0.375000*%
%ADD16C,0.150000*%
%ADD17C,0.100000*%
%ADD18C,0.120000*%
%ADD19C,0.127000*%
%ADD20C,0.152400*%
G04 APERTURE END LIST*
D10*
X101250000Y-63500000D02*
X104500000Y-63500000D01*
X104500000Y-63500000D02*
X104500000Y-66800000D01*
X104500000Y-68000000D02*
X104500000Y-68060000D01*
X104500000Y-69260000D02*
X104500000Y-72000000D01*
X104500000Y-72000000D02*
X101250000Y-72000000D01*
X101250000Y-72000000D02*
X101250000Y-68700000D01*
X101250000Y-67500000D02*
X101250000Y-67440000D01*
X101250000Y-66240000D02*
X101250000Y-63500000D01*
X56750000Y-75875000D02*
X60050000Y-75875000D01*
X61000000Y-75875000D02*
X61000000Y-79175000D01*
X61000000Y-80375000D02*
X61000000Y-80435000D01*
X61000000Y-80625000D02*
X57700000Y-80625000D01*
X56750000Y-80625000D02*
X56750000Y-77325000D01*
X56750000Y-76125000D02*
X56750000Y-76065000D01*
X125750000Y-40750000D02*
X129000000Y-40750000D01*
X129000000Y-40750000D02*
X129000000Y-44050000D01*
X129000000Y-45250000D02*
X129000000Y-45310000D01*
X129000000Y-46510000D02*
X129000000Y-49000000D01*
X129000000Y-49000000D02*
X125750000Y-49000000D01*
X125750000Y-49000000D02*
X125750000Y-45700000D01*
X125750000Y-44500000D02*
X125750000Y-44440000D01*
X125750000Y-43240000D02*
X125750000Y-40750000D01*
X132500000Y-40750000D02*
X135750000Y-40750000D01*
X135750000Y-40750000D02*
X135750000Y-44050000D01*
X135750000Y-45250000D02*
X135750000Y-45310000D01*
X135750000Y-46510000D02*
X135750000Y-49000000D01*
X135750000Y-49000000D02*
X132500000Y-49000000D01*
X132500000Y-49000000D02*
X132500000Y-45700000D01*
X132500000Y-44500000D02*
X132500000Y-44440000D01*
X132500000Y-43240000D02*
X132500000Y-40750000D01*
D11*
X152250000Y-38000000D02*
X157750000Y-38000000D01*
X159750000Y-38000000D02*
X159850000Y-38000000D01*
X161850000Y-38000000D02*
X162500000Y-38000000D01*
X162500000Y-38000000D02*
X162500000Y-43500000D01*
X162500000Y-45500000D02*
X162500000Y-45600000D01*
X162500000Y-47600000D02*
X162500000Y-53100000D01*
X162500000Y-55100000D02*
X162500000Y-55200000D01*
X162500000Y-57200000D02*
X162500000Y-62700000D01*
X162500000Y-64700000D02*
X162500000Y-64800000D01*
X162500000Y-66800000D02*
X162500000Y-72250000D01*
X162500000Y-72250000D02*
X157000000Y-72250000D01*
X155000000Y-72250000D02*
X154900000Y-72250000D01*
X152900000Y-72250000D02*
X152250000Y-72250000D01*
X152250000Y-72250000D02*
X152250000Y-66750000D01*
X152250000Y-64750000D02*
X152250000Y-64650000D01*
X152250000Y-62650000D02*
X152250000Y-57150000D01*
X152250000Y-55150000D02*
X152250000Y-55050000D01*
X152250000Y-53050000D02*
X152250000Y-47550000D01*
X152250000Y-45550000D02*
X152250000Y-45450000D01*
X152250000Y-43450000D02*
X152250000Y-38000000D01*
D10*
X106000000Y-69750000D02*
X109300000Y-69750000D01*
X110500000Y-69750000D02*
X110560000Y-69750000D01*
X111760000Y-69750000D02*
X115060000Y-69750000D01*
X116260000Y-69750000D02*
X116320000Y-69750000D01*
X117250000Y-69750000D02*
X117250000Y-73050000D01*
X117250000Y-74250000D02*
X117250000Y-74310000D01*
X117250000Y-75510000D02*
X117250000Y-76750000D01*
X117250000Y-76750000D02*
X113950000Y-76750000D01*
X112750000Y-76750000D02*
X112690000Y-76750000D01*
X111490000Y-76750000D02*
X108190000Y-76750000D01*
X106990000Y-76750000D02*
X106930000Y-76750000D01*
X106000000Y-76750000D02*
X106000000Y-73450000D01*
X106000000Y-72250000D02*
X106000000Y-72190000D01*
X106000000Y-70990000D02*
X106000000Y-69750000D01*
D11*
X35750000Y-38000000D02*
X41250000Y-38000000D01*
X43250000Y-38000000D02*
X43350000Y-38000000D01*
X45350000Y-38000000D02*
X50850000Y-38000000D01*
X52850000Y-38000000D02*
X52950000Y-38000000D01*
X54950000Y-38000000D02*
X60450000Y-38000000D01*
X62450000Y-38000000D02*
X62550000Y-38000000D01*
X64550000Y-38000000D02*
X70050000Y-38000000D01*
X72050000Y-38000000D02*
X72150000Y-38000000D01*
X74150000Y-38000000D02*
X79650000Y-38000000D01*
X81650000Y-38000000D02*
X81750000Y-38000000D01*
X83750000Y-38000000D02*
X89250000Y-38000000D01*
X91250000Y-38000000D02*
X91350000Y-38000000D01*
X93350000Y-38000000D02*
X98850000Y-38000000D01*
X99000000Y-38000000D02*
X99000000Y-43500000D01*
X99000000Y-45500000D02*
X99000000Y-45600000D01*
X99000000Y-47600000D02*
X99000000Y-53100000D01*
X99000000Y-55100000D02*
X99000000Y-55200000D01*
X99000000Y-57200000D02*
X99000000Y-62700000D01*
X99000000Y-64700000D02*
X99000000Y-64800000D01*
X99000000Y-66800000D02*
X99000000Y-72300000D01*
X99000000Y-74300000D02*
X99000000Y-74400000D01*
X99000000Y-76400000D02*
X99000000Y-81900000D01*
X99000000Y-82000000D02*
X93500000Y-82000000D01*
X91500000Y-82000000D02*
X91400000Y-82000000D01*
X89400000Y-82000000D02*
X83900000Y-82000000D01*
X81900000Y-82000000D02*
X81800000Y-82000000D01*
X79800000Y-82000000D02*
X74300000Y-82000000D01*
X72300000Y-82000000D02*
X72200000Y-82000000D01*
X70200000Y-82000000D02*
X64700000Y-82000000D01*
X62700000Y-82000000D02*
X62600000Y-82000000D01*
X60600000Y-82000000D02*
X55100000Y-82000000D01*
X53100000Y-82000000D02*
X53000000Y-82000000D01*
X51000000Y-82000000D02*
X45500000Y-82000000D01*
X43500000Y-82000000D02*
X43400000Y-82000000D01*
X41400000Y-82000000D02*
X35900000Y-82000000D01*
X35750000Y-82000000D02*
X35750000Y-76500000D01*
X35750000Y-74500000D02*
X35750000Y-74400000D01*
X35750000Y-72400000D02*
X35750000Y-66900000D01*
X35750000Y-64900000D02*
X35750000Y-64800000D01*
X35750000Y-62800000D02*
X35750000Y-57300000D01*
X35750000Y-55300000D02*
X35750000Y-55200000D01*
X35750000Y-53200000D02*
X35750000Y-47700000D01*
X35750000Y-45700000D02*
X35750000Y-45600000D01*
X35750000Y-43600000D02*
X35750000Y-38100000D01*
D10*
X47750000Y-75875000D02*
X51050000Y-75875000D01*
X52000000Y-75875000D02*
X52000000Y-79175000D01*
X52000000Y-80375000D02*
X52000000Y-80435000D01*
X52000000Y-80625000D02*
X48700000Y-80625000D01*
X47750000Y-80625000D02*
X47750000Y-77325000D01*
X47750000Y-76125000D02*
X47750000Y-76065000D01*
X65750000Y-75875000D02*
X69050000Y-75875000D01*
X70000000Y-75875000D02*
X70000000Y-79175000D01*
X70000000Y-80375000D02*
X70000000Y-80435000D01*
X70000000Y-80625000D02*
X66700000Y-80625000D01*
X65750000Y-80625000D02*
X65750000Y-77325000D01*
X65750000Y-76125000D02*
X65750000Y-76065000D01*
X74750000Y-75875000D02*
X78050000Y-75875000D01*
X79000000Y-75875000D02*
X79000000Y-79175000D01*
X79000000Y-80375000D02*
X79000000Y-80435000D01*
X79000000Y-80625000D02*
X75700000Y-80625000D01*
X74750000Y-80625000D02*
X74750000Y-77325000D01*
X74750000Y-76125000D02*
X74750000Y-76065000D01*
X83750000Y-75875000D02*
X87050000Y-75875000D01*
X88000000Y-75875000D02*
X88000000Y-79175000D01*
X88000000Y-80375000D02*
X88000000Y-80435000D01*
X88000000Y-80625000D02*
X84700000Y-80625000D01*
X83750000Y-80625000D02*
X83750000Y-77325000D01*
X83750000Y-76125000D02*
X83750000Y-76065000D01*
X106000000Y-76750000D02*
X117250000Y-76750000D01*
X117250000Y-79000000D01*
X106000000Y-79000000D01*
X106000000Y-76750000D01*
X38750000Y-75875000D02*
X42050000Y-75875000D01*
X43000000Y-75875000D02*
X43000000Y-79175000D01*
X43000000Y-80375000D02*
X43000000Y-80435000D01*
X43000000Y-80625000D02*
X39700000Y-80625000D01*
X38750000Y-80625000D02*
X38750000Y-77325000D01*
X38750000Y-76125000D02*
X38750000Y-76065000D01*
X165750000Y-60000000D02*
X169000000Y-60000000D01*
X169000000Y-60000000D02*
X169000000Y-63300000D01*
X169000000Y-64500000D02*
X169000000Y-64560000D01*
X169000000Y-65760000D02*
X169000000Y-68500000D01*
X169000000Y-68500000D02*
X165750000Y-68500000D01*
X165750000Y-68500000D02*
X165750000Y-65200000D01*
X165750000Y-64000000D02*
X165750000Y-63940000D01*
X165750000Y-62740000D02*
X165750000Y-60000000D01*
X92250000Y-75875000D02*
X95550000Y-75875000D01*
X96750000Y-75875000D02*
X96810000Y-75875000D01*
X97000000Y-75875000D02*
X97000000Y-79175000D01*
X97000000Y-80375000D02*
X97000000Y-80435000D01*
X97000000Y-80625000D02*
X93700000Y-80625000D01*
X92500000Y-80625000D02*
X92440000Y-80625000D01*
X92250000Y-80625000D02*
X92250000Y-77325000D01*
X92250000Y-76125000D02*
X92250000Y-76065000D01*
D12*
X81619673Y-76867219D02*
X81619673Y-75867219D01*
X81619673Y-75867219D02*
X81953006Y-76581504D01*
X81953006Y-76581504D02*
X82286339Y-75867219D01*
X82286339Y-75867219D02*
X82286339Y-76867219D01*
X83238720Y-75867219D02*
X82762530Y-75867219D01*
X82762530Y-75867219D02*
X82714911Y-76343409D01*
X82714911Y-76343409D02*
X82762530Y-76295790D01*
X82762530Y-76295790D02*
X82857768Y-76248171D01*
X82857768Y-76248171D02*
X83095863Y-76248171D01*
X83095863Y-76248171D02*
X83191101Y-76295790D01*
X83191101Y-76295790D02*
X83238720Y-76343409D01*
X83238720Y-76343409D02*
X83286339Y-76438647D01*
X83286339Y-76438647D02*
X83286339Y-76676742D01*
X83286339Y-76676742D02*
X83238720Y-76771980D01*
X83238720Y-76771980D02*
X83191101Y-76819600D01*
X83191101Y-76819600D02*
X83095863Y-76867219D01*
X83095863Y-76867219D02*
X82857768Y-76867219D01*
X82857768Y-76867219D02*
X82762530Y-76819600D01*
X82762530Y-76819600D02*
X82714911Y-76771980D01*
X63619673Y-76867219D02*
X63619673Y-75867219D01*
X63619673Y-75867219D02*
X63953006Y-76581504D01*
X63953006Y-76581504D02*
X64286339Y-75867219D01*
X64286339Y-75867219D02*
X64286339Y-76867219D01*
X64667292Y-75867219D02*
X65286339Y-75867219D01*
X65286339Y-75867219D02*
X64953006Y-76248171D01*
X64953006Y-76248171D02*
X65095863Y-76248171D01*
X65095863Y-76248171D02*
X65191101Y-76295790D01*
X65191101Y-76295790D02*
X65238720Y-76343409D01*
X65238720Y-76343409D02*
X65286339Y-76438647D01*
X65286339Y-76438647D02*
X65286339Y-76676742D01*
X65286339Y-76676742D02*
X65238720Y-76771980D01*
X65238720Y-76771980D02*
X65191101Y-76819600D01*
X65191101Y-76819600D02*
X65095863Y-76867219D01*
X65095863Y-76867219D02*
X64810149Y-76867219D01*
X64810149Y-76867219D02*
X64714911Y-76819600D01*
X64714911Y-76819600D02*
X64667292Y-76771980D01*
D13*
X100201771Y-45337405D02*
X101701771Y-45337405D01*
X101701771Y-45337405D02*
X100630342Y-45837405D01*
X100630342Y-45837405D02*
X101701771Y-46337405D01*
X101701771Y-46337405D02*
X100201771Y-46337405D01*
X101701771Y-47337406D02*
X101701771Y-47623120D01*
X101701771Y-47623120D02*
X101630342Y-47765977D01*
X101630342Y-47765977D02*
X101487485Y-47908834D01*
X101487485Y-47908834D02*
X101201771Y-47980263D01*
X101201771Y-47980263D02*
X100701771Y-47980263D01*
X100701771Y-47980263D02*
X100416057Y-47908834D01*
X100416057Y-47908834D02*
X100273200Y-47765977D01*
X100273200Y-47765977D02*
X100201771Y-47623120D01*
X100201771Y-47623120D02*
X100201771Y-47337406D01*
X100201771Y-47337406D02*
X100273200Y-47194549D01*
X100273200Y-47194549D02*
X100416057Y-47051691D01*
X100416057Y-47051691D02*
X100701771Y-46980263D01*
X100701771Y-46980263D02*
X101201771Y-46980263D01*
X101201771Y-46980263D02*
X101487485Y-47051691D01*
X101487485Y-47051691D02*
X101630342Y-47194549D01*
X101630342Y-47194549D02*
X101701771Y-47337406D01*
X101701771Y-48408835D02*
X101701771Y-49265978D01*
X100201771Y-48837406D02*
X101701771Y-48837406D01*
X101701771Y-50051692D02*
X101701771Y-50337406D01*
X101701771Y-50337406D02*
X101630342Y-50480263D01*
X101630342Y-50480263D02*
X101487485Y-50623120D01*
X101487485Y-50623120D02*
X101201771Y-50694549D01*
X101201771Y-50694549D02*
X100701771Y-50694549D01*
X100701771Y-50694549D02*
X100416057Y-50623120D01*
X100416057Y-50623120D02*
X100273200Y-50480263D01*
X100273200Y-50480263D02*
X100201771Y-50337406D01*
X100201771Y-50337406D02*
X100201771Y-50051692D01*
X100201771Y-50051692D02*
X100273200Y-49908835D01*
X100273200Y-49908835D02*
X100416057Y-49765977D01*
X100416057Y-49765977D02*
X100701771Y-49694549D01*
X100701771Y-49694549D02*
X101201771Y-49694549D01*
X101201771Y-49694549D02*
X101487485Y-49765977D01*
X101487485Y-49765977D02*
X101630342Y-49908835D01*
X101630342Y-49908835D02*
X101701771Y-50051692D01*
X100201771Y-52194549D02*
X100916057Y-51694549D01*
X100201771Y-51337406D02*
X101701771Y-51337406D01*
X101701771Y-51337406D02*
X101701771Y-51908835D01*
X101701771Y-51908835D02*
X101630342Y-52051692D01*
X101630342Y-52051692D02*
X101558914Y-52123121D01*
X101558914Y-52123121D02*
X101416057Y-52194549D01*
X101416057Y-52194549D02*
X101201771Y-52194549D01*
X101201771Y-52194549D02*
X101058914Y-52123121D01*
X101058914Y-52123121D02*
X100987485Y-52051692D01*
X100987485Y-52051692D02*
X100916057Y-51908835D01*
X100916057Y-51908835D02*
X100916057Y-51337406D01*
X100201771Y-53980263D02*
X101701771Y-53980263D01*
X101701771Y-53980263D02*
X101701771Y-54551692D01*
X101701771Y-54551692D02*
X101630342Y-54694549D01*
X101630342Y-54694549D02*
X101558914Y-54765978D01*
X101558914Y-54765978D02*
X101416057Y-54837406D01*
X101416057Y-54837406D02*
X101201771Y-54837406D01*
X101201771Y-54837406D02*
X101058914Y-54765978D01*
X101058914Y-54765978D02*
X100987485Y-54694549D01*
X100987485Y-54694549D02*
X100916057Y-54551692D01*
X100916057Y-54551692D02*
X100916057Y-53980263D01*
X101701771Y-55337406D02*
X100201771Y-55694549D01*
X100201771Y-55694549D02*
X101273200Y-55980263D01*
X101273200Y-55980263D02*
X100201771Y-56265978D01*
X100201771Y-56265978D02*
X101701771Y-56623121D01*
X100201771Y-58051692D02*
X100916057Y-57551692D01*
X100201771Y-57194549D02*
X101701771Y-57194549D01*
X101701771Y-57194549D02*
X101701771Y-57765978D01*
X101701771Y-57765978D02*
X101630342Y-57908835D01*
X101630342Y-57908835D02*
X101558914Y-57980264D01*
X101558914Y-57980264D02*
X101416057Y-58051692D01*
X101416057Y-58051692D02*
X101201771Y-58051692D01*
X101201771Y-58051692D02*
X101058914Y-57980264D01*
X101058914Y-57980264D02*
X100987485Y-57908835D01*
X100987485Y-57908835D02*
X100916057Y-57765978D01*
X100916057Y-57765978D02*
X100916057Y-57194549D01*
D12*
X132572054Y-39212457D02*
X132619673Y-39164838D01*
X132619673Y-39164838D02*
X132714911Y-39117219D01*
X132714911Y-39117219D02*
X132953006Y-39117219D01*
X132953006Y-39117219D02*
X133048244Y-39164838D01*
X133048244Y-39164838D02*
X133095863Y-39212457D01*
X133095863Y-39212457D02*
X133143482Y-39307695D01*
X133143482Y-39307695D02*
X133143482Y-39402933D01*
X133143482Y-39402933D02*
X133095863Y-39545790D01*
X133095863Y-39545790D02*
X132524435Y-40117219D01*
X132524435Y-40117219D02*
X133143482Y-40117219D01*
X134000625Y-39450552D02*
X134000625Y-40117219D01*
X133762530Y-39069600D02*
X133524435Y-39783885D01*
X133524435Y-39783885D02*
X134143482Y-39783885D01*
X134381578Y-39117219D02*
X134714911Y-40117219D01*
X134714911Y-40117219D02*
X135048244Y-39117219D01*
X136619673Y-40117219D02*
X136143483Y-40117219D01*
X136143483Y-40117219D02*
X136143483Y-39117219D01*
X136953007Y-39593409D02*
X137286340Y-39593409D01*
X137429197Y-40117219D02*
X136953007Y-40117219D01*
X136953007Y-40117219D02*
X136953007Y-39117219D01*
X136953007Y-39117219D02*
X137429197Y-39117219D01*
X137857769Y-40117219D02*
X137857769Y-39117219D01*
X137857769Y-39117219D02*
X138095864Y-39117219D01*
X138095864Y-39117219D02*
X138238721Y-39164838D01*
X138238721Y-39164838D02*
X138333959Y-39260076D01*
X138333959Y-39260076D02*
X138381578Y-39355314D01*
X138381578Y-39355314D02*
X138429197Y-39545790D01*
X138429197Y-39545790D02*
X138429197Y-39688647D01*
X138429197Y-39688647D02*
X138381578Y-39879123D01*
X138381578Y-39879123D02*
X138333959Y-39974361D01*
X138333959Y-39974361D02*
X138238721Y-40069600D01*
X138238721Y-40069600D02*
X138095864Y-40117219D01*
X138095864Y-40117219D02*
X137857769Y-40117219D01*
X166119673Y-57257275D02*
X166119673Y-56257275D01*
X166119673Y-56257275D02*
X166453006Y-56971560D01*
X166453006Y-56971560D02*
X166786339Y-56257275D01*
X166786339Y-56257275D02*
X166786339Y-57257275D01*
X167691101Y-57257275D02*
X167691101Y-56733465D01*
X167691101Y-56733465D02*
X167643482Y-56638227D01*
X167643482Y-56638227D02*
X167548244Y-56590608D01*
X167548244Y-56590608D02*
X167357768Y-56590608D01*
X167357768Y-56590608D02*
X167262530Y-56638227D01*
X167691101Y-57209656D02*
X167595863Y-57257275D01*
X167595863Y-57257275D02*
X167357768Y-57257275D01*
X167357768Y-57257275D02*
X167262530Y-57209656D01*
X167262530Y-57209656D02*
X167214911Y-57114417D01*
X167214911Y-57114417D02*
X167214911Y-57019179D01*
X167214911Y-57019179D02*
X167262530Y-56923941D01*
X167262530Y-56923941D02*
X167357768Y-56876322D01*
X167357768Y-56876322D02*
X167595863Y-56876322D01*
X167595863Y-56876322D02*
X167691101Y-56828703D01*
X168167292Y-57257275D02*
X168167292Y-56590608D01*
X168167292Y-56257275D02*
X168119673Y-56304894D01*
X168119673Y-56304894D02*
X168167292Y-56352513D01*
X168167292Y-56352513D02*
X168214911Y-56304894D01*
X168214911Y-56304894D02*
X168167292Y-56257275D01*
X168167292Y-56257275D02*
X168167292Y-56352513D01*
X168643482Y-56590608D02*
X168643482Y-57257275D01*
X168643482Y-56685846D02*
X168691101Y-56638227D01*
X168691101Y-56638227D02*
X168786339Y-56590608D01*
X168786339Y-56590608D02*
X168929196Y-56590608D01*
X168929196Y-56590608D02*
X169024434Y-56638227D01*
X169024434Y-56638227D02*
X169072053Y-56733465D01*
X169072053Y-56733465D02*
X169072053Y-57257275D01*
X166595863Y-58867219D02*
X166119673Y-58867219D01*
X166119673Y-58867219D02*
X166119673Y-57867219D01*
X166929197Y-58343409D02*
X167262530Y-58343409D01*
X167405387Y-58867219D02*
X166929197Y-58867219D01*
X166929197Y-58867219D02*
X166929197Y-57867219D01*
X166929197Y-57867219D02*
X167405387Y-57867219D01*
X167833959Y-58867219D02*
X167833959Y-57867219D01*
X167833959Y-57867219D02*
X168072054Y-57867219D01*
X168072054Y-57867219D02*
X168214911Y-57914838D01*
X168214911Y-57914838D02*
X168310149Y-58010076D01*
X168310149Y-58010076D02*
X168357768Y-58105314D01*
X168357768Y-58105314D02*
X168405387Y-58295790D01*
X168405387Y-58295790D02*
X168405387Y-58438647D01*
X168405387Y-58438647D02*
X168357768Y-58629123D01*
X168357768Y-58629123D02*
X168310149Y-58724361D01*
X168310149Y-58724361D02*
X168214911Y-58819600D01*
X168214911Y-58819600D02*
X168072054Y-58867219D01*
X168072054Y-58867219D02*
X167833959Y-58867219D01*
X45619673Y-76867219D02*
X45619673Y-75867219D01*
X45619673Y-75867219D02*
X45953006Y-76581504D01*
X45953006Y-76581504D02*
X46286339Y-75867219D01*
X46286339Y-75867219D02*
X46286339Y-76867219D01*
X47286339Y-76867219D02*
X46714911Y-76867219D01*
X47000625Y-76867219D02*
X47000625Y-75867219D01*
X47000625Y-75867219D02*
X46905387Y-76010076D01*
X46905387Y-76010076D02*
X46810149Y-76105314D01*
X46810149Y-76105314D02*
X46714911Y-76152933D01*
X123524435Y-39117219D02*
X124143482Y-39117219D01*
X124143482Y-39117219D02*
X123810149Y-39498171D01*
X123810149Y-39498171D02*
X123953006Y-39498171D01*
X123953006Y-39498171D02*
X124048244Y-39545790D01*
X124048244Y-39545790D02*
X124095863Y-39593409D01*
X124095863Y-39593409D02*
X124143482Y-39688647D01*
X124143482Y-39688647D02*
X124143482Y-39926742D01*
X124143482Y-39926742D02*
X124095863Y-40021980D01*
X124095863Y-40021980D02*
X124048244Y-40069600D01*
X124048244Y-40069600D02*
X123953006Y-40117219D01*
X123953006Y-40117219D02*
X123667292Y-40117219D01*
X123667292Y-40117219D02*
X123572054Y-40069600D01*
X123572054Y-40069600D02*
X123524435Y-40021980D01*
X124429197Y-39117219D02*
X124762530Y-40117219D01*
X124762530Y-40117219D02*
X125095863Y-39117219D01*
X125333959Y-39117219D02*
X125953006Y-39117219D01*
X125953006Y-39117219D02*
X125619673Y-39498171D01*
X125619673Y-39498171D02*
X125762530Y-39498171D01*
X125762530Y-39498171D02*
X125857768Y-39545790D01*
X125857768Y-39545790D02*
X125905387Y-39593409D01*
X125905387Y-39593409D02*
X125953006Y-39688647D01*
X125953006Y-39688647D02*
X125953006Y-39926742D01*
X125953006Y-39926742D02*
X125905387Y-40021980D01*
X125905387Y-40021980D02*
X125857768Y-40069600D01*
X125857768Y-40069600D02*
X125762530Y-40117219D01*
X125762530Y-40117219D02*
X125476816Y-40117219D01*
X125476816Y-40117219D02*
X125381578Y-40069600D01*
X125381578Y-40069600D02*
X125333959Y-40021980D01*
X127619673Y-40117219D02*
X127143483Y-40117219D01*
X127143483Y-40117219D02*
X127143483Y-39117219D01*
X127953007Y-39593409D02*
X128286340Y-39593409D01*
X128429197Y-40117219D02*
X127953007Y-40117219D01*
X127953007Y-40117219D02*
X127953007Y-39117219D01*
X127953007Y-39117219D02*
X128429197Y-39117219D01*
X128857769Y-40117219D02*
X128857769Y-39117219D01*
X128857769Y-39117219D02*
X129095864Y-39117219D01*
X129095864Y-39117219D02*
X129238721Y-39164838D01*
X129238721Y-39164838D02*
X129333959Y-39260076D01*
X129333959Y-39260076D02*
X129381578Y-39355314D01*
X129381578Y-39355314D02*
X129429197Y-39545790D01*
X129429197Y-39545790D02*
X129429197Y-39688647D01*
X129429197Y-39688647D02*
X129381578Y-39879123D01*
X129381578Y-39879123D02*
X129333959Y-39974361D01*
X129333959Y-39974361D02*
X129238721Y-40069600D01*
X129238721Y-40069600D02*
X129095864Y-40117219D01*
X129095864Y-40117219D02*
X128857769Y-40117219D01*
D14*
X108093044Y-77364619D02*
X108283520Y-77364619D01*
X108283520Y-77364619D02*
X108378758Y-77412238D01*
X108378758Y-77412238D02*
X108473996Y-77507476D01*
X108473996Y-77507476D02*
X108521615Y-77697952D01*
X108521615Y-77697952D02*
X108521615Y-78031285D01*
X108521615Y-78031285D02*
X108473996Y-78221761D01*
X108473996Y-78221761D02*
X108378758Y-78317000D01*
X108378758Y-78317000D02*
X108283520Y-78364619D01*
X108283520Y-78364619D02*
X108093044Y-78364619D01*
X108093044Y-78364619D02*
X107997806Y-78317000D01*
X107997806Y-78317000D02*
X107902568Y-78221761D01*
X107902568Y-78221761D02*
X107854949Y-78031285D01*
X107854949Y-78031285D02*
X107854949Y-77697952D01*
X107854949Y-77697952D02*
X107902568Y-77507476D01*
X107902568Y-77507476D02*
X107997806Y-77412238D01*
X107997806Y-77412238D02*
X108093044Y-77364619D01*
X109283520Y-77840809D02*
X108950187Y-77840809D01*
X108950187Y-78364619D02*
X108950187Y-77364619D01*
X108950187Y-77364619D02*
X109426377Y-77364619D01*
X110140663Y-77840809D02*
X109807330Y-77840809D01*
X109807330Y-78364619D02*
X109807330Y-77364619D01*
X109807330Y-77364619D02*
X110283520Y-77364619D01*
X111664473Y-78697952D02*
X111664473Y-77269380D01*
X113331140Y-77364619D02*
X113521616Y-77364619D01*
X113521616Y-77364619D02*
X113616854Y-77412238D01*
X113616854Y-77412238D02*
X113712092Y-77507476D01*
X113712092Y-77507476D02*
X113759711Y-77697952D01*
X113759711Y-77697952D02*
X113759711Y-78031285D01*
X113759711Y-78031285D02*
X113712092Y-78221761D01*
X113712092Y-78221761D02*
X113616854Y-78317000D01*
X113616854Y-78317000D02*
X113521616Y-78364619D01*
X113521616Y-78364619D02*
X113331140Y-78364619D01*
X113331140Y-78364619D02*
X113235902Y-78317000D01*
X113235902Y-78317000D02*
X113140664Y-78221761D01*
X113140664Y-78221761D02*
X113093045Y-78031285D01*
X113093045Y-78031285D02*
X113093045Y-77697952D01*
X113093045Y-77697952D02*
X113140664Y-77507476D01*
X113140664Y-77507476D02*
X113235902Y-77412238D01*
X113235902Y-77412238D02*
X113331140Y-77364619D01*
X114188283Y-78364619D02*
X114188283Y-77364619D01*
X114188283Y-77364619D02*
X114759711Y-78364619D01*
X114759711Y-78364619D02*
X114759711Y-77364619D01*
D13*
X135548228Y-76162594D02*
X134048228Y-76162594D01*
X134048228Y-76162594D02*
X135119657Y-75662594D01*
X135119657Y-75662594D02*
X134048228Y-75162594D01*
X134048228Y-75162594D02*
X135548228Y-75162594D01*
X135119657Y-74519736D02*
X135119657Y-73805451D01*
X135548228Y-74662593D02*
X134048228Y-74162593D01*
X134048228Y-74162593D02*
X135548228Y-73662593D01*
X135548228Y-73162594D02*
X134048228Y-73162594D01*
X135548228Y-72448308D02*
X134048228Y-72448308D01*
X134048228Y-72448308D02*
X135548228Y-71591165D01*
X135548228Y-71591165D02*
X134048228Y-71591165D01*
X135405371Y-68876879D02*
X135476800Y-68948307D01*
X135476800Y-68948307D02*
X135548228Y-69162593D01*
X135548228Y-69162593D02*
X135548228Y-69305450D01*
X135548228Y-69305450D02*
X135476800Y-69519736D01*
X135476800Y-69519736D02*
X135333942Y-69662593D01*
X135333942Y-69662593D02*
X135191085Y-69734022D01*
X135191085Y-69734022D02*
X134905371Y-69805450D01*
X134905371Y-69805450D02*
X134691085Y-69805450D01*
X134691085Y-69805450D02*
X134405371Y-69734022D01*
X134405371Y-69734022D02*
X134262514Y-69662593D01*
X134262514Y-69662593D02*
X134119657Y-69519736D01*
X134119657Y-69519736D02*
X134048228Y-69305450D01*
X134048228Y-69305450D02*
X134048228Y-69162593D01*
X134048228Y-69162593D02*
X134119657Y-68948307D01*
X134119657Y-68948307D02*
X134191085Y-68876879D01*
X134048228Y-67948307D02*
X134048228Y-67662593D01*
X134048228Y-67662593D02*
X134119657Y-67519736D01*
X134119657Y-67519736D02*
X134262514Y-67376879D01*
X134262514Y-67376879D02*
X134548228Y-67305450D01*
X134548228Y-67305450D02*
X135048228Y-67305450D01*
X135048228Y-67305450D02*
X135333942Y-67376879D01*
X135333942Y-67376879D02*
X135476800Y-67519736D01*
X135476800Y-67519736D02*
X135548228Y-67662593D01*
X135548228Y-67662593D02*
X135548228Y-67948307D01*
X135548228Y-67948307D02*
X135476800Y-68091165D01*
X135476800Y-68091165D02*
X135333942Y-68234022D01*
X135333942Y-68234022D02*
X135048228Y-68305450D01*
X135048228Y-68305450D02*
X134548228Y-68305450D01*
X134548228Y-68305450D02*
X134262514Y-68234022D01*
X134262514Y-68234022D02*
X134119657Y-68091165D01*
X134119657Y-68091165D02*
X134048228Y-67948307D01*
X135548228Y-66662593D02*
X134048228Y-66662593D01*
X134048228Y-66662593D02*
X135548228Y-65805450D01*
X135548228Y-65805450D02*
X134048228Y-65805450D01*
X134048228Y-65305449D02*
X134048228Y-64448307D01*
X135548228Y-64876878D02*
X134048228Y-64876878D01*
X135548228Y-63091164D02*
X134833942Y-63591164D01*
X135548228Y-63948307D02*
X134048228Y-63948307D01*
X134048228Y-63948307D02*
X134048228Y-63376878D01*
X134048228Y-63376878D02*
X134119657Y-63234021D01*
X134119657Y-63234021D02*
X134191085Y-63162592D01*
X134191085Y-63162592D02*
X134333942Y-63091164D01*
X134333942Y-63091164D02*
X134548228Y-63091164D01*
X134548228Y-63091164D02*
X134691085Y-63162592D01*
X134691085Y-63162592D02*
X134762514Y-63234021D01*
X134762514Y-63234021D02*
X134833942Y-63376878D01*
X134833942Y-63376878D02*
X134833942Y-63948307D01*
X134048228Y-62162592D02*
X134048228Y-61876878D01*
X134048228Y-61876878D02*
X134119657Y-61734021D01*
X134119657Y-61734021D02*
X134262514Y-61591164D01*
X134262514Y-61591164D02*
X134548228Y-61519735D01*
X134548228Y-61519735D02*
X135048228Y-61519735D01*
X135048228Y-61519735D02*
X135333942Y-61591164D01*
X135333942Y-61591164D02*
X135476800Y-61734021D01*
X135476800Y-61734021D02*
X135548228Y-61876878D01*
X135548228Y-61876878D02*
X135548228Y-62162592D01*
X135548228Y-62162592D02*
X135476800Y-62305450D01*
X135476800Y-62305450D02*
X135333942Y-62448307D01*
X135333942Y-62448307D02*
X135048228Y-62519735D01*
X135048228Y-62519735D02*
X134548228Y-62519735D01*
X134548228Y-62519735D02*
X134262514Y-62448307D01*
X134262514Y-62448307D02*
X134119657Y-62305450D01*
X134119657Y-62305450D02*
X134048228Y-62162592D01*
X135548228Y-60162592D02*
X135548228Y-60876878D01*
X135548228Y-60876878D02*
X134048228Y-60876878D01*
X135548228Y-58948306D02*
X135548228Y-59662592D01*
X135548228Y-59662592D02*
X134048228Y-59662592D01*
X134762514Y-58448306D02*
X134762514Y-57948306D01*
X135548228Y-57734020D02*
X135548228Y-58448306D01*
X135548228Y-58448306D02*
X134048228Y-58448306D01*
X134048228Y-58448306D02*
X134048228Y-57734020D01*
X135548228Y-56234020D02*
X134833942Y-56734020D01*
X135548228Y-57091163D02*
X134048228Y-57091163D01*
X134048228Y-57091163D02*
X134048228Y-56519734D01*
X134048228Y-56519734D02*
X134119657Y-56376877D01*
X134119657Y-56376877D02*
X134191085Y-56305448D01*
X134191085Y-56305448D02*
X134333942Y-56234020D01*
X134333942Y-56234020D02*
X134548228Y-56234020D01*
X134548228Y-56234020D02*
X134691085Y-56305448D01*
X134691085Y-56305448D02*
X134762514Y-56376877D01*
X134762514Y-56376877D02*
X134833942Y-56519734D01*
X134833942Y-56519734D02*
X134833942Y-57091163D01*
X135548228Y-54448306D02*
X134048228Y-54448306D01*
X134048228Y-54448306D02*
X134048228Y-53876877D01*
X134048228Y-53876877D02*
X134119657Y-53734020D01*
X134119657Y-53734020D02*
X134191085Y-53662591D01*
X134191085Y-53662591D02*
X134333942Y-53591163D01*
X134333942Y-53591163D02*
X134548228Y-53591163D01*
X134548228Y-53591163D02*
X134691085Y-53662591D01*
X134691085Y-53662591D02*
X134762514Y-53734020D01*
X134762514Y-53734020D02*
X134833942Y-53876877D01*
X134833942Y-53876877D02*
X134833942Y-54448306D01*
X134048228Y-53091163D02*
X135548228Y-52734020D01*
X135548228Y-52734020D02*
X134476800Y-52448306D01*
X134476800Y-52448306D02*
X135548228Y-52162591D01*
X135548228Y-52162591D02*
X134048228Y-51805449D01*
X135548228Y-50376877D02*
X134833942Y-50876877D01*
X135548228Y-51234020D02*
X134048228Y-51234020D01*
X134048228Y-51234020D02*
X134048228Y-50662591D01*
X134048228Y-50662591D02*
X134119657Y-50519734D01*
X134119657Y-50519734D02*
X134191085Y-50448305D01*
X134191085Y-50448305D02*
X134333942Y-50376877D01*
X134333942Y-50376877D02*
X134548228Y-50376877D01*
X134548228Y-50376877D02*
X134691085Y-50448305D01*
X134691085Y-50448305D02*
X134762514Y-50519734D01*
X134762514Y-50519734D02*
X134833942Y-50662591D01*
X134833942Y-50662591D02*
X134833942Y-51234020D01*
D12*
X90119673Y-77117219D02*
X90119673Y-76117219D01*
X90119673Y-76117219D02*
X90453006Y-76831504D01*
X90453006Y-76831504D02*
X90786339Y-76117219D01*
X90786339Y-76117219D02*
X90786339Y-77117219D01*
X91691101Y-76117219D02*
X91500625Y-76117219D01*
X91500625Y-76117219D02*
X91405387Y-76164838D01*
X91405387Y-76164838D02*
X91357768Y-76212457D01*
X91357768Y-76212457D02*
X91262530Y-76355314D01*
X91262530Y-76355314D02*
X91214911Y-76545790D01*
X91214911Y-76545790D02*
X91214911Y-76926742D01*
X91214911Y-76926742D02*
X91262530Y-77021980D01*
X91262530Y-77021980D02*
X91310149Y-77069600D01*
X91310149Y-77069600D02*
X91405387Y-77117219D01*
X91405387Y-77117219D02*
X91595863Y-77117219D01*
X91595863Y-77117219D02*
X91691101Y-77069600D01*
X91691101Y-77069600D02*
X91738720Y-77021980D01*
X91738720Y-77021980D02*
X91786339Y-76926742D01*
X91786339Y-76926742D02*
X91786339Y-76688647D01*
X91786339Y-76688647D02*
X91738720Y-76593409D01*
X91738720Y-76593409D02*
X91691101Y-76545790D01*
X91691101Y-76545790D02*
X91595863Y-76498171D01*
X91595863Y-76498171D02*
X91405387Y-76498171D01*
X91405387Y-76498171D02*
X91310149Y-76545790D01*
X91310149Y-76545790D02*
X91262530Y-76593409D01*
X91262530Y-76593409D02*
X91214911Y-76688647D01*
X72619673Y-76867219D02*
X72619673Y-75867219D01*
X72619673Y-75867219D02*
X72953006Y-76581504D01*
X72953006Y-76581504D02*
X73286339Y-75867219D01*
X73286339Y-75867219D02*
X73286339Y-76867219D01*
X74191101Y-76200552D02*
X74191101Y-76867219D01*
X73953006Y-75819600D02*
X73714911Y-76533885D01*
X73714911Y-76533885D02*
X74333958Y-76533885D01*
D15*
X163703071Y-45853852D02*
X165203071Y-45853852D01*
X165203071Y-45853852D02*
X165203071Y-46425281D01*
X165203071Y-46425281D02*
X165131642Y-46568138D01*
X165131642Y-46568138D02*
X165060214Y-46639567D01*
X165060214Y-46639567D02*
X164917357Y-46710995D01*
X164917357Y-46710995D02*
X164703071Y-46710995D01*
X164703071Y-46710995D02*
X164560214Y-46639567D01*
X164560214Y-46639567D02*
X164488785Y-46568138D01*
X164488785Y-46568138D02*
X164417357Y-46425281D01*
X164417357Y-46425281D02*
X164417357Y-45853852D01*
X165203071Y-47210995D02*
X163703071Y-47568138D01*
X163703071Y-47568138D02*
X164774500Y-47853852D01*
X164774500Y-47853852D02*
X163703071Y-48139567D01*
X163703071Y-48139567D02*
X165203071Y-48496710D01*
X163703071Y-49925281D02*
X164417357Y-49425281D01*
X163703071Y-49068138D02*
X165203071Y-49068138D01*
X165203071Y-49068138D02*
X165203071Y-49639567D01*
X165203071Y-49639567D02*
X165131642Y-49782424D01*
X165131642Y-49782424D02*
X165060214Y-49853853D01*
X165060214Y-49853853D02*
X164917357Y-49925281D01*
X164917357Y-49925281D02*
X164703071Y-49925281D01*
X164703071Y-49925281D02*
X164560214Y-49853853D01*
X164560214Y-49853853D02*
X164488785Y-49782424D01*
X164488785Y-49782424D02*
X164417357Y-49639567D01*
X164417357Y-49639567D02*
X164417357Y-49068138D01*
X163703071Y-51710995D02*
X165203071Y-51710995D01*
X163703071Y-52425281D02*
X165203071Y-52425281D01*
X165203071Y-52425281D02*
X163703071Y-53282424D01*
X163703071Y-53282424D02*
X165203071Y-53282424D01*
D12*
X100785714Y-61507275D02*
X100785714Y-60507275D01*
X100785714Y-60507275D02*
X101119047Y-61221560D01*
X101119047Y-61221560D02*
X101452380Y-60507275D01*
X101452380Y-60507275D02*
X101452380Y-61507275D01*
X102071428Y-61507275D02*
X101976190Y-61459656D01*
X101976190Y-61459656D02*
X101928571Y-61412036D01*
X101928571Y-61412036D02*
X101880952Y-61316798D01*
X101880952Y-61316798D02*
X101880952Y-61031084D01*
X101880952Y-61031084D02*
X101928571Y-60935846D01*
X101928571Y-60935846D02*
X101976190Y-60888227D01*
X101976190Y-60888227D02*
X102071428Y-60840608D01*
X102071428Y-60840608D02*
X102214285Y-60840608D01*
X102214285Y-60840608D02*
X102309523Y-60888227D01*
X102309523Y-60888227D02*
X102357142Y-60935846D01*
X102357142Y-60935846D02*
X102404761Y-61031084D01*
X102404761Y-61031084D02*
X102404761Y-61316798D01*
X102404761Y-61316798D02*
X102357142Y-61412036D01*
X102357142Y-61412036D02*
X102309523Y-61459656D01*
X102309523Y-61459656D02*
X102214285Y-61507275D01*
X102214285Y-61507275D02*
X102071428Y-61507275D01*
X102690476Y-60840608D02*
X103071428Y-60840608D01*
X102833333Y-60507275D02*
X102833333Y-61364417D01*
X102833333Y-61364417D02*
X102880952Y-61459656D01*
X102880952Y-61459656D02*
X102976190Y-61507275D01*
X102976190Y-61507275D02*
X103071428Y-61507275D01*
X103547619Y-61507275D02*
X103452381Y-61459656D01*
X103452381Y-61459656D02*
X103404762Y-61412036D01*
X103404762Y-61412036D02*
X103357143Y-61316798D01*
X103357143Y-61316798D02*
X103357143Y-61031084D01*
X103357143Y-61031084D02*
X103404762Y-60935846D01*
X103404762Y-60935846D02*
X103452381Y-60888227D01*
X103452381Y-60888227D02*
X103547619Y-60840608D01*
X103547619Y-60840608D02*
X103690476Y-60840608D01*
X103690476Y-60840608D02*
X103785714Y-60888227D01*
X103785714Y-60888227D02*
X103833333Y-60935846D01*
X103833333Y-60935846D02*
X103880952Y-61031084D01*
X103880952Y-61031084D02*
X103880952Y-61316798D01*
X103880952Y-61316798D02*
X103833333Y-61412036D01*
X103833333Y-61412036D02*
X103785714Y-61459656D01*
X103785714Y-61459656D02*
X103690476Y-61507275D01*
X103690476Y-61507275D02*
X103547619Y-61507275D01*
X104309524Y-61507275D02*
X104309524Y-60840608D01*
X104309524Y-61031084D02*
X104357143Y-60935846D01*
X104357143Y-60935846D02*
X104404762Y-60888227D01*
X104404762Y-60888227D02*
X104500000Y-60840608D01*
X104500000Y-60840608D02*
X104595238Y-60840608D01*
X99928571Y-63117219D02*
X99928571Y-62117219D01*
X99928571Y-62117219D02*
X100309523Y-62117219D01*
X100309523Y-62117219D02*
X100404761Y-62164838D01*
X100404761Y-62164838D02*
X100452380Y-62212457D01*
X100452380Y-62212457D02*
X100499999Y-62307695D01*
X100499999Y-62307695D02*
X100499999Y-62450552D01*
X100499999Y-62450552D02*
X100452380Y-62545790D01*
X100452380Y-62545790D02*
X100404761Y-62593409D01*
X100404761Y-62593409D02*
X100309523Y-62641028D01*
X100309523Y-62641028D02*
X99928571Y-62641028D01*
X100833333Y-62117219D02*
X101071428Y-63117219D01*
X101071428Y-63117219D02*
X101261904Y-62402933D01*
X101261904Y-62402933D02*
X101452380Y-63117219D01*
X101452380Y-63117219D02*
X101690476Y-62117219D01*
X102642856Y-63117219D02*
X102309523Y-62641028D01*
X102071428Y-63117219D02*
X102071428Y-62117219D01*
X102071428Y-62117219D02*
X102452380Y-62117219D01*
X102452380Y-62117219D02*
X102547618Y-62164838D01*
X102547618Y-62164838D02*
X102595237Y-62212457D01*
X102595237Y-62212457D02*
X102642856Y-62307695D01*
X102642856Y-62307695D02*
X102642856Y-62450552D01*
X102642856Y-62450552D02*
X102595237Y-62545790D01*
X102595237Y-62545790D02*
X102547618Y-62593409D01*
X102547618Y-62593409D02*
X102452380Y-62641028D01*
X102452380Y-62641028D02*
X102071428Y-62641028D01*
X104309523Y-63117219D02*
X103833333Y-63117219D01*
X103833333Y-63117219D02*
X103833333Y-62117219D01*
X104642857Y-62593409D02*
X104976190Y-62593409D01*
X105119047Y-63117219D02*
X104642857Y-63117219D01*
X104642857Y-63117219D02*
X104642857Y-62117219D01*
X104642857Y-62117219D02*
X105119047Y-62117219D01*
X105547619Y-63117219D02*
X105547619Y-62117219D01*
X105547619Y-62117219D02*
X105785714Y-62117219D01*
X105785714Y-62117219D02*
X105928571Y-62164838D01*
X105928571Y-62164838D02*
X106023809Y-62260076D01*
X106023809Y-62260076D02*
X106071428Y-62355314D01*
X106071428Y-62355314D02*
X106119047Y-62545790D01*
X106119047Y-62545790D02*
X106119047Y-62688647D01*
X106119047Y-62688647D02*
X106071428Y-62879123D01*
X106071428Y-62879123D02*
X106023809Y-62974361D01*
X106023809Y-62974361D02*
X105928571Y-63069600D01*
X105928571Y-63069600D02*
X105785714Y-63117219D01*
X105785714Y-63117219D02*
X105547619Y-63117219D01*
D13*
X109944548Y-51298228D02*
X109444548Y-50583942D01*
X109087405Y-51298228D02*
X109087405Y-49798228D01*
X109087405Y-49798228D02*
X109658834Y-49798228D01*
X109658834Y-49798228D02*
X109801691Y-49869657D01*
X109801691Y-49869657D02*
X109873120Y-49941085D01*
X109873120Y-49941085D02*
X109944548Y-50083942D01*
X109944548Y-50083942D02*
X109944548Y-50298228D01*
X109944548Y-50298228D02*
X109873120Y-50441085D01*
X109873120Y-50441085D02*
X109801691Y-50512514D01*
X109801691Y-50512514D02*
X109658834Y-50583942D01*
X109658834Y-50583942D02*
X109087405Y-50583942D01*
X110587405Y-50512514D02*
X111087405Y-50512514D01*
X111301691Y-51298228D02*
X110587405Y-51298228D01*
X110587405Y-51298228D02*
X110587405Y-49798228D01*
X110587405Y-49798228D02*
X111301691Y-49798228D01*
X112658834Y-51298228D02*
X111944548Y-51298228D01*
X111944548Y-51298228D02*
X111944548Y-49798228D01*
X113087406Y-50869657D02*
X113801692Y-50869657D01*
X112944549Y-51298228D02*
X113444549Y-49798228D01*
X113444549Y-49798228D02*
X113944549Y-51298228D01*
X114730263Y-50583942D02*
X114730263Y-51298228D01*
X114230263Y-49798228D02*
X114730263Y-50583942D01*
X114730263Y-50583942D02*
X115230263Y-49798228D01*
D12*
X36619673Y-76867219D02*
X36619673Y-75867219D01*
X36619673Y-75867219D02*
X36953006Y-76581504D01*
X36953006Y-76581504D02*
X37286339Y-75867219D01*
X37286339Y-75867219D02*
X37286339Y-76867219D01*
X37953006Y-75867219D02*
X38048244Y-75867219D01*
X38048244Y-75867219D02*
X38143482Y-75914838D01*
X38143482Y-75914838D02*
X38191101Y-75962457D01*
X38191101Y-75962457D02*
X38238720Y-76057695D01*
X38238720Y-76057695D02*
X38286339Y-76248171D01*
X38286339Y-76248171D02*
X38286339Y-76486266D01*
X38286339Y-76486266D02*
X38238720Y-76676742D01*
X38238720Y-76676742D02*
X38191101Y-76771980D01*
X38191101Y-76771980D02*
X38143482Y-76819600D01*
X38143482Y-76819600D02*
X38048244Y-76867219D01*
X38048244Y-76867219D02*
X37953006Y-76867219D01*
X37953006Y-76867219D02*
X37857768Y-76819600D01*
X37857768Y-76819600D02*
X37810149Y-76771980D01*
X37810149Y-76771980D02*
X37762530Y-76676742D01*
X37762530Y-76676742D02*
X37714911Y-76486266D01*
X37714911Y-76486266D02*
X37714911Y-76248171D01*
X37714911Y-76248171D02*
X37762530Y-76057695D01*
X37762530Y-76057695D02*
X37810149Y-75962457D01*
X37810149Y-75962457D02*
X37857768Y-75914838D01*
X37857768Y-75914838D02*
X37953006Y-75867219D01*
D15*
X163453071Y-58853852D02*
X164953071Y-58853852D01*
X164953071Y-58853852D02*
X164953071Y-59425281D01*
X164953071Y-59425281D02*
X164881642Y-59568138D01*
X164881642Y-59568138D02*
X164810214Y-59639567D01*
X164810214Y-59639567D02*
X164667357Y-59710995D01*
X164667357Y-59710995D02*
X164453071Y-59710995D01*
X164453071Y-59710995D02*
X164310214Y-59639567D01*
X164310214Y-59639567D02*
X164238785Y-59568138D01*
X164238785Y-59568138D02*
X164167357Y-59425281D01*
X164167357Y-59425281D02*
X164167357Y-58853852D01*
X164953071Y-60210995D02*
X163453071Y-60568138D01*
X163453071Y-60568138D02*
X164524500Y-60853852D01*
X164524500Y-60853852D02*
X163453071Y-61139567D01*
X163453071Y-61139567D02*
X164953071Y-61496710D01*
X163453071Y-62925281D02*
X164167357Y-62425281D01*
X163453071Y-62068138D02*
X164953071Y-62068138D01*
X164953071Y-62068138D02*
X164953071Y-62639567D01*
X164953071Y-62639567D02*
X164881642Y-62782424D01*
X164881642Y-62782424D02*
X164810214Y-62853853D01*
X164810214Y-62853853D02*
X164667357Y-62925281D01*
X164667357Y-62925281D02*
X164453071Y-62925281D01*
X164453071Y-62925281D02*
X164310214Y-62853853D01*
X164310214Y-62853853D02*
X164238785Y-62782424D01*
X164238785Y-62782424D02*
X164167357Y-62639567D01*
X164167357Y-62639567D02*
X164167357Y-62068138D01*
X164953071Y-64996710D02*
X164953071Y-65282424D01*
X164953071Y-65282424D02*
X164881642Y-65425281D01*
X164881642Y-65425281D02*
X164738785Y-65568138D01*
X164738785Y-65568138D02*
X164453071Y-65639567D01*
X164453071Y-65639567D02*
X163953071Y-65639567D01*
X163953071Y-65639567D02*
X163667357Y-65568138D01*
X163667357Y-65568138D02*
X163524500Y-65425281D01*
X163524500Y-65425281D02*
X163453071Y-65282424D01*
X163453071Y-65282424D02*
X163453071Y-64996710D01*
X163453071Y-64996710D02*
X163524500Y-64853853D01*
X163524500Y-64853853D02*
X163667357Y-64710995D01*
X163667357Y-64710995D02*
X163953071Y-64639567D01*
X163953071Y-64639567D02*
X164453071Y-64639567D01*
X164453071Y-64639567D02*
X164738785Y-64710995D01*
X164738785Y-64710995D02*
X164881642Y-64853853D01*
X164881642Y-64853853D02*
X164953071Y-64996710D01*
X164953071Y-66282424D02*
X163738785Y-66282424D01*
X163738785Y-66282424D02*
X163595928Y-66353853D01*
X163595928Y-66353853D02*
X163524500Y-66425282D01*
X163524500Y-66425282D02*
X163453071Y-66568139D01*
X163453071Y-66568139D02*
X163453071Y-66853853D01*
X163453071Y-66853853D02*
X163524500Y-66996710D01*
X163524500Y-66996710D02*
X163595928Y-67068139D01*
X163595928Y-67068139D02*
X163738785Y-67139567D01*
X163738785Y-67139567D02*
X164953071Y-67139567D01*
X164953071Y-67639568D02*
X164953071Y-68496711D01*
X163453071Y-68068139D02*
X164953071Y-68068139D01*
D10*
X107661653Y-72300828D02*
X107161653Y-71586542D01*
X106804510Y-72300828D02*
X106804510Y-70800828D01*
X106804510Y-70800828D02*
X107375939Y-70800828D01*
X107375939Y-70800828D02*
X107518796Y-70872257D01*
X107518796Y-70872257D02*
X107590225Y-70943685D01*
X107590225Y-70943685D02*
X107661653Y-71086542D01*
X107661653Y-71086542D02*
X107661653Y-71300828D01*
X107661653Y-71300828D02*
X107590225Y-71443685D01*
X107590225Y-71443685D02*
X107518796Y-71515114D01*
X107518796Y-71515114D02*
X107375939Y-71586542D01*
X107375939Y-71586542D02*
X106804510Y-71586542D01*
X108875939Y-72229400D02*
X108733082Y-72300828D01*
X108733082Y-72300828D02*
X108447368Y-72300828D01*
X108447368Y-72300828D02*
X108304510Y-72229400D01*
X108304510Y-72229400D02*
X108233082Y-72086542D01*
X108233082Y-72086542D02*
X108233082Y-71515114D01*
X108233082Y-71515114D02*
X108304510Y-71372257D01*
X108304510Y-71372257D02*
X108447368Y-71300828D01*
X108447368Y-71300828D02*
X108733082Y-71300828D01*
X108733082Y-71300828D02*
X108875939Y-71372257D01*
X108875939Y-71372257D02*
X108947368Y-71515114D01*
X108947368Y-71515114D02*
X108947368Y-71657971D01*
X108947368Y-71657971D02*
X108233082Y-71800828D01*
X109804510Y-72300828D02*
X109661653Y-72229400D01*
X109661653Y-72229400D02*
X109590224Y-72086542D01*
X109590224Y-72086542D02*
X109590224Y-70800828D01*
X111018796Y-72300828D02*
X111018796Y-71515114D01*
X111018796Y-71515114D02*
X110947367Y-71372257D01*
X110947367Y-71372257D02*
X110804510Y-71300828D01*
X110804510Y-71300828D02*
X110518796Y-71300828D01*
X110518796Y-71300828D02*
X110375938Y-71372257D01*
X111018796Y-72229400D02*
X110875938Y-72300828D01*
X110875938Y-72300828D02*
X110518796Y-72300828D01*
X110518796Y-72300828D02*
X110375938Y-72229400D01*
X110375938Y-72229400D02*
X110304510Y-72086542D01*
X110304510Y-72086542D02*
X110304510Y-71943685D01*
X110304510Y-71943685D02*
X110375938Y-71800828D01*
X110375938Y-71800828D02*
X110518796Y-71729400D01*
X110518796Y-71729400D02*
X110875938Y-71729400D01*
X110875938Y-71729400D02*
X111018796Y-71657971D01*
X111590224Y-71300828D02*
X111947367Y-72300828D01*
X112304510Y-71300828D02*
X111947367Y-72300828D01*
X111947367Y-72300828D02*
X111804510Y-72657971D01*
X111804510Y-72657971D02*
X111733081Y-72729400D01*
X111733081Y-72729400D02*
X111590224Y-72800828D01*
X113947367Y-72229400D02*
X114161653Y-72300828D01*
X114161653Y-72300828D02*
X114518795Y-72300828D01*
X114518795Y-72300828D02*
X114661653Y-72229400D01*
X114661653Y-72229400D02*
X114733081Y-72157971D01*
X114733081Y-72157971D02*
X114804510Y-72015114D01*
X114804510Y-72015114D02*
X114804510Y-71872257D01*
X114804510Y-71872257D02*
X114733081Y-71729400D01*
X114733081Y-71729400D02*
X114661653Y-71657971D01*
X114661653Y-71657971D02*
X114518795Y-71586542D01*
X114518795Y-71586542D02*
X114233081Y-71515114D01*
X114233081Y-71515114D02*
X114090224Y-71443685D01*
X114090224Y-71443685D02*
X114018795Y-71372257D01*
X114018795Y-71372257D02*
X113947367Y-71229400D01*
X113947367Y-71229400D02*
X113947367Y-71086542D01*
X113947367Y-71086542D02*
X114018795Y-70943685D01*
X114018795Y-70943685D02*
X114090224Y-70872257D01*
X114090224Y-70872257D02*
X114233081Y-70800828D01*
X114233081Y-70800828D02*
X114590224Y-70800828D01*
X114590224Y-70800828D02*
X114804510Y-70872257D01*
X115304509Y-70800828D02*
X115661652Y-72300828D01*
X115661652Y-72300828D02*
X115947366Y-71229400D01*
X115947366Y-71229400D02*
X116233081Y-72300828D01*
X116233081Y-72300828D02*
X116590224Y-70800828D01*
D12*
X54619673Y-76867219D02*
X54619673Y-75867219D01*
X54619673Y-75867219D02*
X54953006Y-76581504D01*
X54953006Y-76581504D02*
X55286339Y-75867219D01*
X55286339Y-75867219D02*
X55286339Y-76867219D01*
X55714911Y-75962457D02*
X55762530Y-75914838D01*
X55762530Y-75914838D02*
X55857768Y-75867219D01*
X55857768Y-75867219D02*
X56095863Y-75867219D01*
X56095863Y-75867219D02*
X56191101Y-75914838D01*
X56191101Y-75914838D02*
X56238720Y-75962457D01*
X56238720Y-75962457D02*
X56286339Y-76057695D01*
X56286339Y-76057695D02*
X56286339Y-76152933D01*
X56286339Y-76152933D02*
X56238720Y-76295790D01*
X56238720Y-76295790D02*
X55667292Y-76867219D01*
X55667292Y-76867219D02*
X56286339Y-76867219D01*
D16*
X105738095Y-41954819D02*
X105738095Y-40954819D01*
X105738095Y-41431009D02*
X106309523Y-41431009D01*
X106309523Y-41954819D02*
X106309523Y-40954819D01*
X107214285Y-41288152D02*
X107214285Y-41954819D01*
X106976190Y-40907200D02*
X106738095Y-41621485D01*
X106738095Y-41621485D02*
X107357142Y-41621485D01*
X137204819Y-43488094D02*
X136204819Y-43488094D01*
X136204819Y-43488094D02*
X136204819Y-43249999D01*
X136204819Y-43249999D02*
X136252438Y-43107142D01*
X136252438Y-43107142D02*
X136347676Y-43011904D01*
X136347676Y-43011904D02*
X136442914Y-42964285D01*
X136442914Y-42964285D02*
X136633390Y-42916666D01*
X136633390Y-42916666D02*
X136776247Y-42916666D01*
X136776247Y-42916666D02*
X136966723Y-42964285D01*
X136966723Y-42964285D02*
X137061961Y-43011904D01*
X137061961Y-43011904D02*
X137157200Y-43107142D01*
X137157200Y-43107142D02*
X137204819Y-43249999D01*
X137204819Y-43249999D02*
X137204819Y-43488094D01*
X136300057Y-42535713D02*
X136252438Y-42488094D01*
X136252438Y-42488094D02*
X136204819Y-42392856D01*
X136204819Y-42392856D02*
X136204819Y-42154761D01*
X136204819Y-42154761D02*
X136252438Y-42059523D01*
X136252438Y-42059523D02*
X136300057Y-42011904D01*
X136300057Y-42011904D02*
X136395295Y-41964285D01*
X136395295Y-41964285D02*
X136490533Y-41964285D01*
X136490533Y-41964285D02*
X136633390Y-42011904D01*
X136633390Y-42011904D02*
X137204819Y-42583332D01*
X137204819Y-42583332D02*
X137204819Y-41964285D01*
X44454819Y-45833333D02*
X45169104Y-45833333D01*
X45169104Y-45833333D02*
X45311961Y-45880952D01*
X45311961Y-45880952D02*
X45407200Y-45976190D01*
X45407200Y-45976190D02*
X45454819Y-46119047D01*
X45454819Y-46119047D02*
X45454819Y-46214285D01*
X44454819Y-45452380D02*
X44454819Y-44785714D01*
X44454819Y-44785714D02*
X45454819Y-45214285D01*
X49114700Y-52571428D02*
X49114700Y-51428571D01*
X49114700Y-39571428D02*
X49114700Y-38428571D01*
X49686128Y-38999999D02*
X48543271Y-38999999D01*
X151792200Y-53686904D02*
X151839819Y-53544047D01*
X151839819Y-53544047D02*
X151839819Y-53305952D01*
X151839819Y-53305952D02*
X151792200Y-53210714D01*
X151792200Y-53210714D02*
X151744580Y-53163095D01*
X151744580Y-53163095D02*
X151649342Y-53115476D01*
X151649342Y-53115476D02*
X151554104Y-53115476D01*
X151554104Y-53115476D02*
X151458866Y-53163095D01*
X151458866Y-53163095D02*
X151411247Y-53210714D01*
X151411247Y-53210714D02*
X151363628Y-53305952D01*
X151363628Y-53305952D02*
X151316009Y-53496428D01*
X151316009Y-53496428D02*
X151268390Y-53591666D01*
X151268390Y-53591666D02*
X151220771Y-53639285D01*
X151220771Y-53639285D02*
X151125533Y-53686904D01*
X151125533Y-53686904D02*
X151030295Y-53686904D01*
X151030295Y-53686904D02*
X150935057Y-53639285D01*
X150935057Y-53639285D02*
X150887438Y-53591666D01*
X150887438Y-53591666D02*
X150839819Y-53496428D01*
X150839819Y-53496428D02*
X150839819Y-53258333D01*
X150839819Y-53258333D02*
X150887438Y-53115476D01*
X151839819Y-52163095D02*
X151839819Y-52734523D01*
X151839819Y-52448809D02*
X150839819Y-52448809D01*
X150839819Y-52448809D02*
X150982676Y-52544047D01*
X150982676Y-52544047D02*
X151077914Y-52639285D01*
X151077914Y-52639285D02*
X151125533Y-52734523D01*
X167238095Y-46454819D02*
X167238095Y-45454819D01*
X167238095Y-45931009D02*
X167809523Y-45931009D01*
X167809523Y-46454819D02*
X167809523Y-45454819D01*
X168809523Y-46454819D02*
X168238095Y-46454819D01*
X168523809Y-46454819D02*
X168523809Y-45454819D01*
X168523809Y-45454819D02*
X168428571Y-45597676D01*
X168428571Y-45597676D02*
X168333333Y-45692914D01*
X168333333Y-45692914D02*
X168238095Y-45740533D01*
X62454819Y-81214285D02*
X61454819Y-81214285D01*
X61454819Y-81214285D02*
X61454819Y-80976190D01*
X61454819Y-80976190D02*
X61502438Y-80833333D01*
X61502438Y-80833333D02*
X61597676Y-80738095D01*
X61597676Y-80738095D02*
X61692914Y-80690476D01*
X61692914Y-80690476D02*
X61883390Y-80642857D01*
X61883390Y-80642857D02*
X62026247Y-80642857D01*
X62026247Y-80642857D02*
X62216723Y-80690476D01*
X62216723Y-80690476D02*
X62311961Y-80738095D01*
X62311961Y-80738095D02*
X62407200Y-80833333D01*
X62407200Y-80833333D02*
X62454819Y-80976190D01*
X62454819Y-80976190D02*
X62454819Y-81214285D01*
X62454819Y-79690476D02*
X62454819Y-80261904D01*
X62454819Y-79976190D02*
X61454819Y-79976190D01*
X61454819Y-79976190D02*
X61597676Y-80071428D01*
X61597676Y-80071428D02*
X61692914Y-80166666D01*
X61692914Y-80166666D02*
X61740533Y-80261904D01*
X61454819Y-79071428D02*
X61454819Y-78976190D01*
X61454819Y-78976190D02*
X61502438Y-78880952D01*
X61502438Y-78880952D02*
X61550057Y-78833333D01*
X61550057Y-78833333D02*
X61645295Y-78785714D01*
X61645295Y-78785714D02*
X61835771Y-78738095D01*
X61835771Y-78738095D02*
X62073866Y-78738095D01*
X62073866Y-78738095D02*
X62264342Y-78785714D01*
X62264342Y-78785714D02*
X62359580Y-78833333D01*
X62359580Y-78833333D02*
X62407200Y-78880952D01*
X62407200Y-78880952D02*
X62454819Y-78976190D01*
X62454819Y-78976190D02*
X62454819Y-79071428D01*
X62454819Y-79071428D02*
X62407200Y-79166666D01*
X62407200Y-79166666D02*
X62359580Y-79214285D01*
X62359580Y-79214285D02*
X62264342Y-79261904D01*
X62264342Y-79261904D02*
X62073866Y-79309523D01*
X62073866Y-79309523D02*
X61835771Y-79309523D01*
X61835771Y-79309523D02*
X61645295Y-79261904D01*
X61645295Y-79261904D02*
X61550057Y-79214285D01*
X61550057Y-79214285D02*
X61502438Y-79166666D01*
X61502438Y-79166666D02*
X61454819Y-79071428D01*
X71454819Y-76916666D02*
X70978628Y-77249999D01*
X71454819Y-77488094D02*
X70454819Y-77488094D01*
X70454819Y-77488094D02*
X70454819Y-77107142D01*
X70454819Y-77107142D02*
X70502438Y-77011904D01*
X70502438Y-77011904D02*
X70550057Y-76964285D01*
X70550057Y-76964285D02*
X70645295Y-76916666D01*
X70645295Y-76916666D02*
X70788152Y-76916666D01*
X70788152Y-76916666D02*
X70883390Y-76964285D01*
X70883390Y-76964285D02*
X70931009Y-77011904D01*
X70931009Y-77011904D02*
X70978628Y-77107142D01*
X70978628Y-77107142D02*
X70978628Y-77488094D01*
X70454819Y-76059523D02*
X70454819Y-76249999D01*
X70454819Y-76249999D02*
X70502438Y-76345237D01*
X70502438Y-76345237D02*
X70550057Y-76392856D01*
X70550057Y-76392856D02*
X70692914Y-76488094D01*
X70692914Y-76488094D02*
X70883390Y-76535713D01*
X70883390Y-76535713D02*
X71264342Y-76535713D01*
X71264342Y-76535713D02*
X71359580Y-76488094D01*
X71359580Y-76488094D02*
X71407200Y-76440475D01*
X71407200Y-76440475D02*
X71454819Y-76345237D01*
X71454819Y-76345237D02*
X71454819Y-76154761D01*
X71454819Y-76154761D02*
X71407200Y-76059523D01*
X71407200Y-76059523D02*
X71359580Y-76011904D01*
X71359580Y-76011904D02*
X71264342Y-75964285D01*
X71264342Y-75964285D02*
X71026247Y-75964285D01*
X71026247Y-75964285D02*
X70931009Y-76011904D01*
X70931009Y-76011904D02*
X70883390Y-76059523D01*
X70883390Y-76059523D02*
X70835771Y-76154761D01*
X70835771Y-76154761D02*
X70835771Y-76345237D01*
X70835771Y-76345237D02*
X70883390Y-76440475D01*
X70883390Y-76440475D02*
X70931009Y-76488094D01*
X70931009Y-76488094D02*
X71026247Y-76535713D01*
D17*
X83666667Y-56159800D02*
X83809524Y-56207419D01*
X83809524Y-56207419D02*
X84047619Y-56207419D01*
X84047619Y-56207419D02*
X84142857Y-56159800D01*
X84142857Y-56159800D02*
X84190476Y-56112180D01*
X84190476Y-56112180D02*
X84238095Y-56016942D01*
X84238095Y-56016942D02*
X84238095Y-55921704D01*
X84238095Y-55921704D02*
X84190476Y-55826466D01*
X84190476Y-55826466D02*
X84142857Y-55778847D01*
X84142857Y-55778847D02*
X84047619Y-55731228D01*
X84047619Y-55731228D02*
X83857143Y-55683609D01*
X83857143Y-55683609D02*
X83761905Y-55635990D01*
X83761905Y-55635990D02*
X83714286Y-55588371D01*
X83714286Y-55588371D02*
X83666667Y-55493133D01*
X83666667Y-55493133D02*
X83666667Y-55397895D01*
X83666667Y-55397895D02*
X83714286Y-55302657D01*
X83714286Y-55302657D02*
X83761905Y-55255038D01*
X83761905Y-55255038D02*
X83857143Y-55207419D01*
X83857143Y-55207419D02*
X84095238Y-55207419D01*
X84095238Y-55207419D02*
X84238095Y-55255038D01*
X84571429Y-55207419D02*
X84809524Y-56207419D01*
X84809524Y-56207419D02*
X85000000Y-55493133D01*
X85000000Y-55493133D02*
X85190476Y-56207419D01*
X85190476Y-56207419D02*
X85428572Y-55207419D01*
X85714286Y-55207419D02*
X86380952Y-55207419D01*
X86380952Y-55207419D02*
X85952381Y-56207419D01*
D16*
X160916666Y-53954819D02*
X160916666Y-54669104D01*
X160916666Y-54669104D02*
X160869047Y-54811961D01*
X160869047Y-54811961D02*
X160773809Y-54907200D01*
X160773809Y-54907200D02*
X160630952Y-54954819D01*
X160630952Y-54954819D02*
X160535714Y-54954819D01*
X161916666Y-54954819D02*
X161345238Y-54954819D01*
X161630952Y-54954819D02*
X161630952Y-53954819D01*
X161630952Y-53954819D02*
X161535714Y-54097676D01*
X161535714Y-54097676D02*
X161440476Y-54192914D01*
X161440476Y-54192914D02*
X161345238Y-54240533D01*
X53454819Y-45833333D02*
X54169104Y-45833333D01*
X54169104Y-45833333D02*
X54311961Y-45880952D01*
X54311961Y-45880952D02*
X54407200Y-45976190D01*
X54407200Y-45976190D02*
X54454819Y-46119047D01*
X54454819Y-46119047D02*
X54454819Y-46214285D01*
X54454819Y-45309523D02*
X54454819Y-45119047D01*
X54454819Y-45119047D02*
X54407200Y-45023809D01*
X54407200Y-45023809D02*
X54359580Y-44976190D01*
X54359580Y-44976190D02*
X54216723Y-44880952D01*
X54216723Y-44880952D02*
X54026247Y-44833333D01*
X54026247Y-44833333D02*
X53645295Y-44833333D01*
X53645295Y-44833333D02*
X53550057Y-44880952D01*
X53550057Y-44880952D02*
X53502438Y-44928571D01*
X53502438Y-44928571D02*
X53454819Y-45023809D01*
X53454819Y-45023809D02*
X53454819Y-45214285D01*
X53454819Y-45214285D02*
X53502438Y-45309523D01*
X53502438Y-45309523D02*
X53550057Y-45357142D01*
X53550057Y-45357142D02*
X53645295Y-45404761D01*
X53645295Y-45404761D02*
X53883390Y-45404761D01*
X53883390Y-45404761D02*
X53978628Y-45357142D01*
X53978628Y-45357142D02*
X54026247Y-45309523D01*
X54026247Y-45309523D02*
X54073866Y-45214285D01*
X54073866Y-45214285D02*
X54073866Y-45023809D01*
X54073866Y-45023809D02*
X54026247Y-44928571D01*
X54026247Y-44928571D02*
X53978628Y-44880952D01*
X53978628Y-44880952D02*
X53883390Y-44833333D01*
X58114700Y-52571428D02*
X58114700Y-51428571D01*
X58114700Y-39571428D02*
X58114700Y-38428571D01*
X58686128Y-38999999D02*
X57543271Y-38999999D01*
D17*
X92666667Y-56159800D02*
X92809524Y-56207419D01*
X92809524Y-56207419D02*
X93047619Y-56207419D01*
X93047619Y-56207419D02*
X93142857Y-56159800D01*
X93142857Y-56159800D02*
X93190476Y-56112180D01*
X93190476Y-56112180D02*
X93238095Y-56016942D01*
X93238095Y-56016942D02*
X93238095Y-55921704D01*
X93238095Y-55921704D02*
X93190476Y-55826466D01*
X93190476Y-55826466D02*
X93142857Y-55778847D01*
X93142857Y-55778847D02*
X93047619Y-55731228D01*
X93047619Y-55731228D02*
X92857143Y-55683609D01*
X92857143Y-55683609D02*
X92761905Y-55635990D01*
X92761905Y-55635990D02*
X92714286Y-55588371D01*
X92714286Y-55588371D02*
X92666667Y-55493133D01*
X92666667Y-55493133D02*
X92666667Y-55397895D01*
X92666667Y-55397895D02*
X92714286Y-55302657D01*
X92714286Y-55302657D02*
X92761905Y-55255038D01*
X92761905Y-55255038D02*
X92857143Y-55207419D01*
X92857143Y-55207419D02*
X93095238Y-55207419D01*
X93095238Y-55207419D02*
X93238095Y-55255038D01*
X93571429Y-55207419D02*
X93809524Y-56207419D01*
X93809524Y-56207419D02*
X94000000Y-55493133D01*
X94000000Y-55493133D02*
X94190476Y-56207419D01*
X94190476Y-56207419D02*
X94428572Y-55207419D01*
X94714286Y-55207419D02*
X95333333Y-55207419D01*
X95333333Y-55207419D02*
X95000000Y-55588371D01*
X95000000Y-55588371D02*
X95142857Y-55588371D01*
X95142857Y-55588371D02*
X95238095Y-55635990D01*
X95238095Y-55635990D02*
X95285714Y-55683609D01*
X95285714Y-55683609D02*
X95333333Y-55778847D01*
X95333333Y-55778847D02*
X95333333Y-56016942D01*
X95333333Y-56016942D02*
X95285714Y-56112180D01*
X95285714Y-56112180D02*
X95238095Y-56159800D01*
X95238095Y-56159800D02*
X95142857Y-56207419D01*
X95142857Y-56207419D02*
X94857143Y-56207419D01*
X94857143Y-56207419D02*
X94761905Y-56159800D01*
X94761905Y-56159800D02*
X94714286Y-56112180D01*
D16*
X98454819Y-80738094D02*
X97454819Y-80738094D01*
X97454819Y-80738094D02*
X97454819Y-80499999D01*
X97454819Y-80499999D02*
X97502438Y-80357142D01*
X97502438Y-80357142D02*
X97597676Y-80261904D01*
X97597676Y-80261904D02*
X97692914Y-80214285D01*
X97692914Y-80214285D02*
X97883390Y-80166666D01*
X97883390Y-80166666D02*
X98026247Y-80166666D01*
X98026247Y-80166666D02*
X98216723Y-80214285D01*
X98216723Y-80214285D02*
X98311961Y-80261904D01*
X98311961Y-80261904D02*
X98407200Y-80357142D01*
X98407200Y-80357142D02*
X98454819Y-80499999D01*
X98454819Y-80499999D02*
X98454819Y-80738094D01*
X97454819Y-79833332D02*
X97454819Y-79166666D01*
X97454819Y-79166666D02*
X98454819Y-79595237D01*
X44454819Y-79988094D02*
X43454819Y-79988094D01*
X43454819Y-79988094D02*
X43454819Y-79749999D01*
X43454819Y-79749999D02*
X43502438Y-79607142D01*
X43502438Y-79607142D02*
X43597676Y-79511904D01*
X43597676Y-79511904D02*
X43692914Y-79464285D01*
X43692914Y-79464285D02*
X43883390Y-79416666D01*
X43883390Y-79416666D02*
X44026247Y-79416666D01*
X44026247Y-79416666D02*
X44216723Y-79464285D01*
X44216723Y-79464285D02*
X44311961Y-79511904D01*
X44311961Y-79511904D02*
X44407200Y-79607142D01*
X44407200Y-79607142D02*
X44454819Y-79749999D01*
X44454819Y-79749999D02*
X44454819Y-79988094D01*
X43454819Y-78511904D02*
X43454819Y-78988094D01*
X43454819Y-78988094D02*
X43931009Y-79035713D01*
X43931009Y-79035713D02*
X43883390Y-78988094D01*
X43883390Y-78988094D02*
X43835771Y-78892856D01*
X43835771Y-78892856D02*
X43835771Y-78654761D01*
X43835771Y-78654761D02*
X43883390Y-78559523D01*
X43883390Y-78559523D02*
X43931009Y-78511904D01*
X43931009Y-78511904D02*
X44026247Y-78464285D01*
X44026247Y-78464285D02*
X44264342Y-78464285D01*
X44264342Y-78464285D02*
X44359580Y-78511904D01*
X44359580Y-78511904D02*
X44407200Y-78559523D01*
X44407200Y-78559523D02*
X44454819Y-78654761D01*
X44454819Y-78654761D02*
X44454819Y-78892856D01*
X44454819Y-78892856D02*
X44407200Y-78988094D01*
X44407200Y-78988094D02*
X44359580Y-79035713D01*
X71454819Y-79988094D02*
X70454819Y-79988094D01*
X70454819Y-79988094D02*
X70454819Y-79749999D01*
X70454819Y-79749999D02*
X70502438Y-79607142D01*
X70502438Y-79607142D02*
X70597676Y-79511904D01*
X70597676Y-79511904D02*
X70692914Y-79464285D01*
X70692914Y-79464285D02*
X70883390Y-79416666D01*
X70883390Y-79416666D02*
X71026247Y-79416666D01*
X71026247Y-79416666D02*
X71216723Y-79464285D01*
X71216723Y-79464285D02*
X71311961Y-79511904D01*
X71311961Y-79511904D02*
X71407200Y-79607142D01*
X71407200Y-79607142D02*
X71454819Y-79749999D01*
X71454819Y-79749999D02*
X71454819Y-79988094D01*
X70454819Y-78559523D02*
X70454819Y-78749999D01*
X70454819Y-78749999D02*
X70502438Y-78845237D01*
X70502438Y-78845237D02*
X70550057Y-78892856D01*
X70550057Y-78892856D02*
X70692914Y-78988094D01*
X70692914Y-78988094D02*
X70883390Y-79035713D01*
X70883390Y-79035713D02*
X71264342Y-79035713D01*
X71264342Y-79035713D02*
X71359580Y-78988094D01*
X71359580Y-78988094D02*
X71407200Y-78940475D01*
X71407200Y-78940475D02*
X71454819Y-78845237D01*
X71454819Y-78845237D02*
X71454819Y-78654761D01*
X71454819Y-78654761D02*
X71407200Y-78559523D01*
X71407200Y-78559523D02*
X71359580Y-78511904D01*
X71359580Y-78511904D02*
X71264342Y-78464285D01*
X71264342Y-78464285D02*
X71026247Y-78464285D01*
X71026247Y-78464285D02*
X70931009Y-78511904D01*
X70931009Y-78511904D02*
X70883390Y-78559523D01*
X70883390Y-78559523D02*
X70835771Y-78654761D01*
X70835771Y-78654761D02*
X70835771Y-78845237D01*
X70835771Y-78845237D02*
X70883390Y-78940475D01*
X70883390Y-78940475D02*
X70931009Y-78988094D01*
X70931009Y-78988094D02*
X71026247Y-79035713D01*
X165238095Y-74754819D02*
X165238095Y-73754819D01*
X165238095Y-74231009D02*
X165809523Y-74231009D01*
X165809523Y-74754819D02*
X165809523Y-73754819D01*
X166190476Y-73754819D02*
X166809523Y-73754819D01*
X166809523Y-73754819D02*
X166476190Y-74135771D01*
X166476190Y-74135771D02*
X166619047Y-74135771D01*
X166619047Y-74135771D02*
X166714285Y-74183390D01*
X166714285Y-74183390D02*
X166761904Y-74231009D01*
X166761904Y-74231009D02*
X166809523Y-74326247D01*
X166809523Y-74326247D02*
X166809523Y-74564342D01*
X166809523Y-74564342D02*
X166761904Y-74659580D01*
X166761904Y-74659580D02*
X166714285Y-74707200D01*
X166714285Y-74707200D02*
X166619047Y-74754819D01*
X166619047Y-74754819D02*
X166333333Y-74754819D01*
X166333333Y-74754819D02*
X166238095Y-74707200D01*
X166238095Y-74707200D02*
X166190476Y-74659580D01*
X31238095Y-47454819D02*
X31238095Y-46454819D01*
X31238095Y-46931009D02*
X31809523Y-46931009D01*
X31809523Y-47454819D02*
X31809523Y-46454819D01*
X32761904Y-46454819D02*
X32285714Y-46454819D01*
X32285714Y-46454819D02*
X32238095Y-46931009D01*
X32238095Y-46931009D02*
X32285714Y-46883390D01*
X32285714Y-46883390D02*
X32380952Y-46835771D01*
X32380952Y-46835771D02*
X32619047Y-46835771D01*
X32619047Y-46835771D02*
X32714285Y-46883390D01*
X32714285Y-46883390D02*
X32761904Y-46931009D01*
X32761904Y-46931009D02*
X32809523Y-47026247D01*
X32809523Y-47026247D02*
X32809523Y-47264342D01*
X32809523Y-47264342D02*
X32761904Y-47359580D01*
X32761904Y-47359580D02*
X32714285Y-47407200D01*
X32714285Y-47407200D02*
X32619047Y-47454819D01*
X32619047Y-47454819D02*
X32380952Y-47454819D01*
X32380952Y-47454819D02*
X32285714Y-47407200D01*
X32285714Y-47407200D02*
X32238095Y-47359580D01*
X125204819Y-43738094D02*
X124204819Y-43738094D01*
X124204819Y-43738094D02*
X124204819Y-43499999D01*
X124204819Y-43499999D02*
X124252438Y-43357142D01*
X124252438Y-43357142D02*
X124347676Y-43261904D01*
X124347676Y-43261904D02*
X124442914Y-43214285D01*
X124442914Y-43214285D02*
X124633390Y-43166666D01*
X124633390Y-43166666D02*
X124776247Y-43166666D01*
X124776247Y-43166666D02*
X124966723Y-43214285D01*
X124966723Y-43214285D02*
X125061961Y-43261904D01*
X125061961Y-43261904D02*
X125157200Y-43357142D01*
X125157200Y-43357142D02*
X125204819Y-43499999D01*
X125204819Y-43499999D02*
X125204819Y-43738094D01*
X124538152Y-42309523D02*
X125204819Y-42309523D01*
X124157200Y-42547618D02*
X124871485Y-42785713D01*
X124871485Y-42785713D02*
X124871485Y-42166666D01*
X80454819Y-80238094D02*
X79454819Y-80238094D01*
X79454819Y-80238094D02*
X79454819Y-79999999D01*
X79454819Y-79999999D02*
X79502438Y-79857142D01*
X79502438Y-79857142D02*
X79597676Y-79761904D01*
X79597676Y-79761904D02*
X79692914Y-79714285D01*
X79692914Y-79714285D02*
X79883390Y-79666666D01*
X79883390Y-79666666D02*
X80026247Y-79666666D01*
X80026247Y-79666666D02*
X80216723Y-79714285D01*
X80216723Y-79714285D02*
X80311961Y-79761904D01*
X80311961Y-79761904D02*
X80407200Y-79857142D01*
X80407200Y-79857142D02*
X80454819Y-79999999D01*
X80454819Y-79999999D02*
X80454819Y-80238094D01*
X80454819Y-79190475D02*
X80454819Y-78999999D01*
X80454819Y-78999999D02*
X80407200Y-78904761D01*
X80407200Y-78904761D02*
X80359580Y-78857142D01*
X80359580Y-78857142D02*
X80216723Y-78761904D01*
X80216723Y-78761904D02*
X80026247Y-78714285D01*
X80026247Y-78714285D02*
X79645295Y-78714285D01*
X79645295Y-78714285D02*
X79550057Y-78761904D01*
X79550057Y-78761904D02*
X79502438Y-78809523D01*
X79502438Y-78809523D02*
X79454819Y-78904761D01*
X79454819Y-78904761D02*
X79454819Y-79095237D01*
X79454819Y-79095237D02*
X79502438Y-79190475D01*
X79502438Y-79190475D02*
X79550057Y-79238094D01*
X79550057Y-79238094D02*
X79645295Y-79285713D01*
X79645295Y-79285713D02*
X79883390Y-79285713D01*
X79883390Y-79285713D02*
X79978628Y-79238094D01*
X79978628Y-79238094D02*
X80026247Y-79190475D01*
X80026247Y-79190475D02*
X80073866Y-79095237D01*
X80073866Y-79095237D02*
X80073866Y-78904761D01*
X80073866Y-78904761D02*
X80026247Y-78809523D01*
X80026247Y-78809523D02*
X79978628Y-78761904D01*
X79978628Y-78761904D02*
X79883390Y-78714285D01*
D17*
X56666667Y-56159800D02*
X56809524Y-56207419D01*
X56809524Y-56207419D02*
X57047619Y-56207419D01*
X57047619Y-56207419D02*
X57142857Y-56159800D01*
X57142857Y-56159800D02*
X57190476Y-56112180D01*
X57190476Y-56112180D02*
X57238095Y-56016942D01*
X57238095Y-56016942D02*
X57238095Y-55921704D01*
X57238095Y-55921704D02*
X57190476Y-55826466D01*
X57190476Y-55826466D02*
X57142857Y-55778847D01*
X57142857Y-55778847D02*
X57047619Y-55731228D01*
X57047619Y-55731228D02*
X56857143Y-55683609D01*
X56857143Y-55683609D02*
X56761905Y-55635990D01*
X56761905Y-55635990D02*
X56714286Y-55588371D01*
X56714286Y-55588371D02*
X56666667Y-55493133D01*
X56666667Y-55493133D02*
X56666667Y-55397895D01*
X56666667Y-55397895D02*
X56714286Y-55302657D01*
X56714286Y-55302657D02*
X56761905Y-55255038D01*
X56761905Y-55255038D02*
X56857143Y-55207419D01*
X56857143Y-55207419D02*
X57095238Y-55207419D01*
X57095238Y-55207419D02*
X57238095Y-55255038D01*
X57571429Y-55207419D02*
X57809524Y-56207419D01*
X57809524Y-56207419D02*
X58000000Y-55493133D01*
X58000000Y-55493133D02*
X58190476Y-56207419D01*
X58190476Y-56207419D02*
X58428572Y-55207419D01*
X59238095Y-55207419D02*
X59047619Y-55207419D01*
X59047619Y-55207419D02*
X58952381Y-55255038D01*
X58952381Y-55255038D02*
X58904762Y-55302657D01*
X58904762Y-55302657D02*
X58809524Y-55445514D01*
X58809524Y-55445514D02*
X58761905Y-55635990D01*
X58761905Y-55635990D02*
X58761905Y-56016942D01*
X58761905Y-56016942D02*
X58809524Y-56112180D01*
X58809524Y-56112180D02*
X58857143Y-56159800D01*
X58857143Y-56159800D02*
X58952381Y-56207419D01*
X58952381Y-56207419D02*
X59142857Y-56207419D01*
X59142857Y-56207419D02*
X59238095Y-56159800D01*
X59238095Y-56159800D02*
X59285714Y-56112180D01*
X59285714Y-56112180D02*
X59333333Y-56016942D01*
X59333333Y-56016942D02*
X59333333Y-55778847D01*
X59333333Y-55778847D02*
X59285714Y-55683609D01*
X59285714Y-55683609D02*
X59238095Y-55635990D01*
X59238095Y-55635990D02*
X59142857Y-55588371D01*
X59142857Y-55588371D02*
X58952381Y-55588371D01*
X58952381Y-55588371D02*
X58857143Y-55635990D01*
X58857143Y-55635990D02*
X58809524Y-55683609D01*
X58809524Y-55683609D02*
X58761905Y-55778847D01*
D16*
X31238095Y-74754819D02*
X31238095Y-73754819D01*
X31238095Y-74231009D02*
X31809523Y-74231009D01*
X31809523Y-74754819D02*
X31809523Y-73754819D01*
X32238095Y-73850057D02*
X32285714Y-73802438D01*
X32285714Y-73802438D02*
X32380952Y-73754819D01*
X32380952Y-73754819D02*
X32619047Y-73754819D01*
X32619047Y-73754819D02*
X32714285Y-73802438D01*
X32714285Y-73802438D02*
X32761904Y-73850057D01*
X32761904Y-73850057D02*
X32809523Y-73945295D01*
X32809523Y-73945295D02*
X32809523Y-74040533D01*
X32809523Y-74040533D02*
X32761904Y-74183390D01*
X32761904Y-74183390D02*
X32190476Y-74754819D01*
X32190476Y-74754819D02*
X32809523Y-74754819D01*
X101238095Y-74754819D02*
X101238095Y-73754819D01*
X101238095Y-74231009D02*
X101809523Y-74231009D01*
X101809523Y-74754819D02*
X101809523Y-73754819D01*
X102714285Y-73754819D02*
X102523809Y-73754819D01*
X102523809Y-73754819D02*
X102428571Y-73802438D01*
X102428571Y-73802438D02*
X102380952Y-73850057D01*
X102380952Y-73850057D02*
X102285714Y-73992914D01*
X102285714Y-73992914D02*
X102238095Y-74183390D01*
X102238095Y-74183390D02*
X102238095Y-74564342D01*
X102238095Y-74564342D02*
X102285714Y-74659580D01*
X102285714Y-74659580D02*
X102333333Y-74707200D01*
X102333333Y-74707200D02*
X102428571Y-74754819D01*
X102428571Y-74754819D02*
X102619047Y-74754819D01*
X102619047Y-74754819D02*
X102714285Y-74707200D01*
X102714285Y-74707200D02*
X102761904Y-74659580D01*
X102761904Y-74659580D02*
X102809523Y-74564342D01*
X102809523Y-74564342D02*
X102809523Y-74326247D01*
X102809523Y-74326247D02*
X102761904Y-74231009D01*
X102761904Y-74231009D02*
X102714285Y-74183390D01*
X102714285Y-74183390D02*
X102619047Y-74135771D01*
X102619047Y-74135771D02*
X102428571Y-74135771D01*
X102428571Y-74135771D02*
X102333333Y-74183390D01*
X102333333Y-74183390D02*
X102285714Y-74231009D01*
X102285714Y-74231009D02*
X102238095Y-74326247D01*
X71454819Y-45833333D02*
X72169104Y-45833333D01*
X72169104Y-45833333D02*
X72311961Y-45880952D01*
X72311961Y-45880952D02*
X72407200Y-45976190D01*
X72407200Y-45976190D02*
X72454819Y-46119047D01*
X72454819Y-46119047D02*
X72454819Y-46214285D01*
X71883390Y-45214285D02*
X71835771Y-45309523D01*
X71835771Y-45309523D02*
X71788152Y-45357142D01*
X71788152Y-45357142D02*
X71692914Y-45404761D01*
X71692914Y-45404761D02*
X71645295Y-45404761D01*
X71645295Y-45404761D02*
X71550057Y-45357142D01*
X71550057Y-45357142D02*
X71502438Y-45309523D01*
X71502438Y-45309523D02*
X71454819Y-45214285D01*
X71454819Y-45214285D02*
X71454819Y-45023809D01*
X71454819Y-45023809D02*
X71502438Y-44928571D01*
X71502438Y-44928571D02*
X71550057Y-44880952D01*
X71550057Y-44880952D02*
X71645295Y-44833333D01*
X71645295Y-44833333D02*
X71692914Y-44833333D01*
X71692914Y-44833333D02*
X71788152Y-44880952D01*
X71788152Y-44880952D02*
X71835771Y-44928571D01*
X71835771Y-44928571D02*
X71883390Y-45023809D01*
X71883390Y-45023809D02*
X71883390Y-45214285D01*
X71883390Y-45214285D02*
X71931009Y-45309523D01*
X71931009Y-45309523D02*
X71978628Y-45357142D01*
X71978628Y-45357142D02*
X72073866Y-45404761D01*
X72073866Y-45404761D02*
X72264342Y-45404761D01*
X72264342Y-45404761D02*
X72359580Y-45357142D01*
X72359580Y-45357142D02*
X72407200Y-45309523D01*
X72407200Y-45309523D02*
X72454819Y-45214285D01*
X72454819Y-45214285D02*
X72454819Y-45023809D01*
X72454819Y-45023809D02*
X72407200Y-44928571D01*
X72407200Y-44928571D02*
X72359580Y-44880952D01*
X72359580Y-44880952D02*
X72264342Y-44833333D01*
X72264342Y-44833333D02*
X72073866Y-44833333D01*
X72073866Y-44833333D02*
X71978628Y-44880952D01*
X71978628Y-44880952D02*
X71931009Y-44928571D01*
X71931009Y-44928571D02*
X71883390Y-45023809D01*
X76114700Y-52571428D02*
X76114700Y-51428571D01*
X76114700Y-39571428D02*
X76114700Y-38428571D01*
X76686128Y-38999999D02*
X75543271Y-38999999D01*
D17*
X47666667Y-56159800D02*
X47809524Y-56207419D01*
X47809524Y-56207419D02*
X48047619Y-56207419D01*
X48047619Y-56207419D02*
X48142857Y-56159800D01*
X48142857Y-56159800D02*
X48190476Y-56112180D01*
X48190476Y-56112180D02*
X48238095Y-56016942D01*
X48238095Y-56016942D02*
X48238095Y-55921704D01*
X48238095Y-55921704D02*
X48190476Y-55826466D01*
X48190476Y-55826466D02*
X48142857Y-55778847D01*
X48142857Y-55778847D02*
X48047619Y-55731228D01*
X48047619Y-55731228D02*
X47857143Y-55683609D01*
X47857143Y-55683609D02*
X47761905Y-55635990D01*
X47761905Y-55635990D02*
X47714286Y-55588371D01*
X47714286Y-55588371D02*
X47666667Y-55493133D01*
X47666667Y-55493133D02*
X47666667Y-55397895D01*
X47666667Y-55397895D02*
X47714286Y-55302657D01*
X47714286Y-55302657D02*
X47761905Y-55255038D01*
X47761905Y-55255038D02*
X47857143Y-55207419D01*
X47857143Y-55207419D02*
X48095238Y-55207419D01*
X48095238Y-55207419D02*
X48238095Y-55255038D01*
X48571429Y-55207419D02*
X48809524Y-56207419D01*
X48809524Y-56207419D02*
X49000000Y-55493133D01*
X49000000Y-55493133D02*
X49190476Y-56207419D01*
X49190476Y-56207419D02*
X49428572Y-55207419D01*
X50238095Y-55540752D02*
X50238095Y-56207419D01*
X50000000Y-55159800D02*
X49761905Y-55874085D01*
X49761905Y-55874085D02*
X50380952Y-55874085D01*
D16*
X62454819Y-45833333D02*
X63169104Y-45833333D01*
X63169104Y-45833333D02*
X63311961Y-45880952D01*
X63311961Y-45880952D02*
X63407200Y-45976190D01*
X63407200Y-45976190D02*
X63454819Y-46119047D01*
X63454819Y-46119047D02*
X63454819Y-46214285D01*
X62454819Y-44880952D02*
X62454819Y-45357142D01*
X62454819Y-45357142D02*
X62931009Y-45404761D01*
X62931009Y-45404761D02*
X62883390Y-45357142D01*
X62883390Y-45357142D02*
X62835771Y-45261904D01*
X62835771Y-45261904D02*
X62835771Y-45023809D01*
X62835771Y-45023809D02*
X62883390Y-44928571D01*
X62883390Y-44928571D02*
X62931009Y-44880952D01*
X62931009Y-44880952D02*
X63026247Y-44833333D01*
X63026247Y-44833333D02*
X63264342Y-44833333D01*
X63264342Y-44833333D02*
X63359580Y-44880952D01*
X63359580Y-44880952D02*
X63407200Y-44928571D01*
X63407200Y-44928571D02*
X63454819Y-45023809D01*
X63454819Y-45023809D02*
X63454819Y-45261904D01*
X63454819Y-45261904D02*
X63407200Y-45357142D01*
X63407200Y-45357142D02*
X63359580Y-45404761D01*
X67114700Y-52571428D02*
X67114700Y-51428571D01*
X67114700Y-39571428D02*
X67114700Y-38428571D01*
X67686128Y-38999999D02*
X66543271Y-38999999D01*
X156416666Y-79681009D02*
X156083333Y-79681009D01*
X156083333Y-80204819D02*
X156083333Y-79204819D01*
X156083333Y-79204819D02*
X156559523Y-79204819D01*
X157464285Y-80204819D02*
X156892857Y-80204819D01*
X157178571Y-80204819D02*
X157178571Y-79204819D01*
X157178571Y-79204819D02*
X157083333Y-79347676D01*
X157083333Y-79347676D02*
X156988095Y-79442914D01*
X156988095Y-79442914D02*
X156892857Y-79490533D01*
X44454819Y-76916666D02*
X43978628Y-77249999D01*
X44454819Y-77488094D02*
X43454819Y-77488094D01*
X43454819Y-77488094D02*
X43454819Y-77107142D01*
X43454819Y-77107142D02*
X43502438Y-77011904D01*
X43502438Y-77011904D02*
X43550057Y-76964285D01*
X43550057Y-76964285D02*
X43645295Y-76916666D01*
X43645295Y-76916666D02*
X43788152Y-76916666D01*
X43788152Y-76916666D02*
X43883390Y-76964285D01*
X43883390Y-76964285D02*
X43931009Y-77011904D01*
X43931009Y-77011904D02*
X43978628Y-77107142D01*
X43978628Y-77107142D02*
X43978628Y-77488094D01*
X43454819Y-76011904D02*
X43454819Y-76488094D01*
X43454819Y-76488094D02*
X43931009Y-76535713D01*
X43931009Y-76535713D02*
X43883390Y-76488094D01*
X43883390Y-76488094D02*
X43835771Y-76392856D01*
X43835771Y-76392856D02*
X43835771Y-76154761D01*
X43835771Y-76154761D02*
X43883390Y-76059523D01*
X43883390Y-76059523D02*
X43931009Y-76011904D01*
X43931009Y-76011904D02*
X44026247Y-75964285D01*
X44026247Y-75964285D02*
X44264342Y-75964285D01*
X44264342Y-75964285D02*
X44359580Y-76011904D01*
X44359580Y-76011904D02*
X44407200Y-76059523D01*
X44407200Y-76059523D02*
X44454819Y-76154761D01*
X44454819Y-76154761D02*
X44454819Y-76392856D01*
X44454819Y-76392856D02*
X44407200Y-76488094D01*
X44407200Y-76488094D02*
X44359580Y-76535713D01*
X166083333Y-69954819D02*
X165750000Y-69478628D01*
X165511905Y-69954819D02*
X165511905Y-68954819D01*
X165511905Y-68954819D02*
X165892857Y-68954819D01*
X165892857Y-68954819D02*
X165988095Y-69002438D01*
X165988095Y-69002438D02*
X166035714Y-69050057D01*
X166035714Y-69050057D02*
X166083333Y-69145295D01*
X166083333Y-69145295D02*
X166083333Y-69288152D01*
X166083333Y-69288152D02*
X166035714Y-69383390D01*
X166035714Y-69383390D02*
X165988095Y-69431009D01*
X165988095Y-69431009D02*
X165892857Y-69478628D01*
X165892857Y-69478628D02*
X165511905Y-69478628D01*
X167035714Y-69954819D02*
X166464286Y-69954819D01*
X166750000Y-69954819D02*
X166750000Y-68954819D01*
X166750000Y-68954819D02*
X166654762Y-69097676D01*
X166654762Y-69097676D02*
X166559524Y-69192914D01*
X166559524Y-69192914D02*
X166464286Y-69240533D01*
X100704819Y-66392857D02*
X100228628Y-66726190D01*
X100704819Y-66964285D02*
X99704819Y-66964285D01*
X99704819Y-66964285D02*
X99704819Y-66583333D01*
X99704819Y-66583333D02*
X99752438Y-66488095D01*
X99752438Y-66488095D02*
X99800057Y-66440476D01*
X99800057Y-66440476D02*
X99895295Y-66392857D01*
X99895295Y-66392857D02*
X100038152Y-66392857D01*
X100038152Y-66392857D02*
X100133390Y-66440476D01*
X100133390Y-66440476D02*
X100181009Y-66488095D01*
X100181009Y-66488095D02*
X100228628Y-66583333D01*
X100228628Y-66583333D02*
X100228628Y-66964285D01*
X100704819Y-65440476D02*
X100704819Y-66011904D01*
X100704819Y-65726190D02*
X99704819Y-65726190D01*
X99704819Y-65726190D02*
X99847676Y-65821428D01*
X99847676Y-65821428D02*
X99942914Y-65916666D01*
X99942914Y-65916666D02*
X99990533Y-66011904D01*
X99800057Y-65059523D02*
X99752438Y-65011904D01*
X99752438Y-65011904D02*
X99704819Y-64916666D01*
X99704819Y-64916666D02*
X99704819Y-64678571D01*
X99704819Y-64678571D02*
X99752438Y-64583333D01*
X99752438Y-64583333D02*
X99800057Y-64535714D01*
X99800057Y-64535714D02*
X99895295Y-64488095D01*
X99895295Y-64488095D02*
X99990533Y-64488095D01*
X99990533Y-64488095D02*
X100133390Y-64535714D01*
X100133390Y-64535714D02*
X100704819Y-65107142D01*
X100704819Y-65107142D02*
X100704819Y-64488095D01*
X118654451Y-60738095D02*
X117654451Y-60738095D01*
X118654451Y-60166667D02*
X118083022Y-60595238D01*
X117654451Y-60166667D02*
X118225879Y-60738095D01*
X118654451Y-59214286D02*
X118654451Y-59785714D01*
X118654451Y-59500000D02*
X117654451Y-59500000D01*
X117654451Y-59500000D02*
X117797308Y-59595238D01*
X117797308Y-59595238D02*
X117892546Y-59690476D01*
X117892546Y-59690476D02*
X117940165Y-59785714D01*
X53454819Y-76916666D02*
X52978628Y-77249999D01*
X53454819Y-77488094D02*
X52454819Y-77488094D01*
X52454819Y-77488094D02*
X52454819Y-77107142D01*
X52454819Y-77107142D02*
X52502438Y-77011904D01*
X52502438Y-77011904D02*
X52550057Y-76964285D01*
X52550057Y-76964285D02*
X52645295Y-76916666D01*
X52645295Y-76916666D02*
X52788152Y-76916666D01*
X52788152Y-76916666D02*
X52883390Y-76964285D01*
X52883390Y-76964285D02*
X52931009Y-77011904D01*
X52931009Y-77011904D02*
X52978628Y-77107142D01*
X52978628Y-77107142D02*
X52978628Y-77488094D01*
X52883390Y-76345237D02*
X52835771Y-76440475D01*
X52835771Y-76440475D02*
X52788152Y-76488094D01*
X52788152Y-76488094D02*
X52692914Y-76535713D01*
X52692914Y-76535713D02*
X52645295Y-76535713D01*
X52645295Y-76535713D02*
X52550057Y-76488094D01*
X52550057Y-76488094D02*
X52502438Y-76440475D01*
X52502438Y-76440475D02*
X52454819Y-76345237D01*
X52454819Y-76345237D02*
X52454819Y-76154761D01*
X52454819Y-76154761D02*
X52502438Y-76059523D01*
X52502438Y-76059523D02*
X52550057Y-76011904D01*
X52550057Y-76011904D02*
X52645295Y-75964285D01*
X52645295Y-75964285D02*
X52692914Y-75964285D01*
X52692914Y-75964285D02*
X52788152Y-76011904D01*
X52788152Y-76011904D02*
X52835771Y-76059523D01*
X52835771Y-76059523D02*
X52883390Y-76154761D01*
X52883390Y-76154761D02*
X52883390Y-76345237D01*
X52883390Y-76345237D02*
X52931009Y-76440475D01*
X52931009Y-76440475D02*
X52978628Y-76488094D01*
X52978628Y-76488094D02*
X53073866Y-76535713D01*
X53073866Y-76535713D02*
X53264342Y-76535713D01*
X53264342Y-76535713D02*
X53359580Y-76488094D01*
X53359580Y-76488094D02*
X53407200Y-76440475D01*
X53407200Y-76440475D02*
X53454819Y-76345237D01*
X53454819Y-76345237D02*
X53454819Y-76154761D01*
X53454819Y-76154761D02*
X53407200Y-76059523D01*
X53407200Y-76059523D02*
X53359580Y-76011904D01*
X53359580Y-76011904D02*
X53264342Y-75964285D01*
X53264342Y-75964285D02*
X53073866Y-75964285D01*
X53073866Y-75964285D02*
X52978628Y-76011904D01*
X52978628Y-76011904D02*
X52931009Y-76059523D01*
X52931009Y-76059523D02*
X52883390Y-76154761D01*
D17*
X65666667Y-56159800D02*
X65809524Y-56207419D01*
X65809524Y-56207419D02*
X66047619Y-56207419D01*
X66047619Y-56207419D02*
X66142857Y-56159800D01*
X66142857Y-56159800D02*
X66190476Y-56112180D01*
X66190476Y-56112180D02*
X66238095Y-56016942D01*
X66238095Y-56016942D02*
X66238095Y-55921704D01*
X66238095Y-55921704D02*
X66190476Y-55826466D01*
X66190476Y-55826466D02*
X66142857Y-55778847D01*
X66142857Y-55778847D02*
X66047619Y-55731228D01*
X66047619Y-55731228D02*
X65857143Y-55683609D01*
X65857143Y-55683609D02*
X65761905Y-55635990D01*
X65761905Y-55635990D02*
X65714286Y-55588371D01*
X65714286Y-55588371D02*
X65666667Y-55493133D01*
X65666667Y-55493133D02*
X65666667Y-55397895D01*
X65666667Y-55397895D02*
X65714286Y-55302657D01*
X65714286Y-55302657D02*
X65761905Y-55255038D01*
X65761905Y-55255038D02*
X65857143Y-55207419D01*
X65857143Y-55207419D02*
X66095238Y-55207419D01*
X66095238Y-55207419D02*
X66238095Y-55255038D01*
X66571429Y-55207419D02*
X66809524Y-56207419D01*
X66809524Y-56207419D02*
X67000000Y-55493133D01*
X67000000Y-55493133D02*
X67190476Y-56207419D01*
X67190476Y-56207419D02*
X67428572Y-55207419D01*
X67761905Y-55302657D02*
X67809524Y-55255038D01*
X67809524Y-55255038D02*
X67904762Y-55207419D01*
X67904762Y-55207419D02*
X68142857Y-55207419D01*
X68142857Y-55207419D02*
X68238095Y-55255038D01*
X68238095Y-55255038D02*
X68285714Y-55302657D01*
X68285714Y-55302657D02*
X68333333Y-55397895D01*
X68333333Y-55397895D02*
X68333333Y-55493133D01*
X68333333Y-55493133D02*
X68285714Y-55635990D01*
X68285714Y-55635990D02*
X67714286Y-56207419D01*
X67714286Y-56207419D02*
X68333333Y-56207419D01*
D16*
X89454819Y-45833333D02*
X90169104Y-45833333D01*
X90169104Y-45833333D02*
X90311961Y-45880952D01*
X90311961Y-45880952D02*
X90407200Y-45976190D01*
X90407200Y-45976190D02*
X90454819Y-46119047D01*
X90454819Y-46119047D02*
X90454819Y-46214285D01*
X89454819Y-44928571D02*
X89454819Y-45119047D01*
X89454819Y-45119047D02*
X89502438Y-45214285D01*
X89502438Y-45214285D02*
X89550057Y-45261904D01*
X89550057Y-45261904D02*
X89692914Y-45357142D01*
X89692914Y-45357142D02*
X89883390Y-45404761D01*
X89883390Y-45404761D02*
X90264342Y-45404761D01*
X90264342Y-45404761D02*
X90359580Y-45357142D01*
X90359580Y-45357142D02*
X90407200Y-45309523D01*
X90407200Y-45309523D02*
X90454819Y-45214285D01*
X90454819Y-45214285D02*
X90454819Y-45023809D01*
X90454819Y-45023809D02*
X90407200Y-44928571D01*
X90407200Y-44928571D02*
X90359580Y-44880952D01*
X90359580Y-44880952D02*
X90264342Y-44833333D01*
X90264342Y-44833333D02*
X90026247Y-44833333D01*
X90026247Y-44833333D02*
X89931009Y-44880952D01*
X89931009Y-44880952D02*
X89883390Y-44928571D01*
X89883390Y-44928571D02*
X89835771Y-45023809D01*
X89835771Y-45023809D02*
X89835771Y-45214285D01*
X89835771Y-45214285D02*
X89883390Y-45309523D01*
X89883390Y-45309523D02*
X89931009Y-45357142D01*
X89931009Y-45357142D02*
X90026247Y-45404761D01*
X94114700Y-39571428D02*
X94114700Y-38428571D01*
X94686128Y-38999999D02*
X93543271Y-38999999D01*
X94114700Y-52571428D02*
X94114700Y-51428571D01*
X125204819Y-46916666D02*
X124728628Y-47249999D01*
X125204819Y-47488094D02*
X124204819Y-47488094D01*
X124204819Y-47488094D02*
X124204819Y-47107142D01*
X124204819Y-47107142D02*
X124252438Y-47011904D01*
X124252438Y-47011904D02*
X124300057Y-46964285D01*
X124300057Y-46964285D02*
X124395295Y-46916666D01*
X124395295Y-46916666D02*
X124538152Y-46916666D01*
X124538152Y-46916666D02*
X124633390Y-46964285D01*
X124633390Y-46964285D02*
X124681009Y-47011904D01*
X124681009Y-47011904D02*
X124728628Y-47107142D01*
X124728628Y-47107142D02*
X124728628Y-47488094D01*
X124538152Y-46059523D02*
X125204819Y-46059523D01*
X124157200Y-46297618D02*
X124871485Y-46535713D01*
X124871485Y-46535713D02*
X124871485Y-45916666D01*
X167761905Y-69954819D02*
X167761905Y-68954819D01*
X167761905Y-68954819D02*
X168000000Y-68954819D01*
X168000000Y-68954819D02*
X168142857Y-69002438D01*
X168142857Y-69002438D02*
X168238095Y-69097676D01*
X168238095Y-69097676D02*
X168285714Y-69192914D01*
X168285714Y-69192914D02*
X168333333Y-69383390D01*
X168333333Y-69383390D02*
X168333333Y-69526247D01*
X168333333Y-69526247D02*
X168285714Y-69716723D01*
X168285714Y-69716723D02*
X168238095Y-69811961D01*
X168238095Y-69811961D02*
X168142857Y-69907200D01*
X168142857Y-69907200D02*
X168000000Y-69954819D01*
X168000000Y-69954819D02*
X167761905Y-69954819D01*
X169285714Y-69954819D02*
X168714286Y-69954819D01*
X169000000Y-69954819D02*
X169000000Y-68954819D01*
X169000000Y-68954819D02*
X168904762Y-69097676D01*
X168904762Y-69097676D02*
X168809524Y-69192914D01*
X168809524Y-69192914D02*
X168714286Y-69240533D01*
X80454819Y-77166666D02*
X79978628Y-77499999D01*
X80454819Y-77738094D02*
X79454819Y-77738094D01*
X79454819Y-77738094D02*
X79454819Y-77357142D01*
X79454819Y-77357142D02*
X79502438Y-77261904D01*
X79502438Y-77261904D02*
X79550057Y-77214285D01*
X79550057Y-77214285D02*
X79645295Y-77166666D01*
X79645295Y-77166666D02*
X79788152Y-77166666D01*
X79788152Y-77166666D02*
X79883390Y-77214285D01*
X79883390Y-77214285D02*
X79931009Y-77261904D01*
X79931009Y-77261904D02*
X79978628Y-77357142D01*
X79978628Y-77357142D02*
X79978628Y-77738094D01*
X80454819Y-76690475D02*
X80454819Y-76499999D01*
X80454819Y-76499999D02*
X80407200Y-76404761D01*
X80407200Y-76404761D02*
X80359580Y-76357142D01*
X80359580Y-76357142D02*
X80216723Y-76261904D01*
X80216723Y-76261904D02*
X80026247Y-76214285D01*
X80026247Y-76214285D02*
X79645295Y-76214285D01*
X79645295Y-76214285D02*
X79550057Y-76261904D01*
X79550057Y-76261904D02*
X79502438Y-76309523D01*
X79502438Y-76309523D02*
X79454819Y-76404761D01*
X79454819Y-76404761D02*
X79454819Y-76595237D01*
X79454819Y-76595237D02*
X79502438Y-76690475D01*
X79502438Y-76690475D02*
X79550057Y-76738094D01*
X79550057Y-76738094D02*
X79645295Y-76785713D01*
X79645295Y-76785713D02*
X79883390Y-76785713D01*
X79883390Y-76785713D02*
X79978628Y-76738094D01*
X79978628Y-76738094D02*
X80026247Y-76690475D01*
X80026247Y-76690475D02*
X80073866Y-76595237D01*
X80073866Y-76595237D02*
X80073866Y-76404761D01*
X80073866Y-76404761D02*
X80026247Y-76309523D01*
X80026247Y-76309523D02*
X79978628Y-76261904D01*
X79978628Y-76261904D02*
X79883390Y-76214285D01*
X37416666Y-51454819D02*
X37416666Y-52169104D01*
X37416666Y-52169104D02*
X37369047Y-52311961D01*
X37369047Y-52311961D02*
X37273809Y-52407200D01*
X37273809Y-52407200D02*
X37130952Y-52454819D01*
X37130952Y-52454819D02*
X37035714Y-52454819D01*
X38321428Y-51788152D02*
X38321428Y-52454819D01*
X38083333Y-51407200D02*
X37845238Y-52121485D01*
X37845238Y-52121485D02*
X38464285Y-52121485D01*
X40114700Y-52821428D02*
X40114700Y-51678571D01*
X40114700Y-39821428D02*
X40114700Y-38678571D01*
X40686128Y-39249999D02*
X39543271Y-39249999D01*
X98454819Y-76916666D02*
X97978628Y-77249999D01*
X98454819Y-77488094D02*
X97454819Y-77488094D01*
X97454819Y-77488094D02*
X97454819Y-77107142D01*
X97454819Y-77107142D02*
X97502438Y-77011904D01*
X97502438Y-77011904D02*
X97550057Y-76964285D01*
X97550057Y-76964285D02*
X97645295Y-76916666D01*
X97645295Y-76916666D02*
X97788152Y-76916666D01*
X97788152Y-76916666D02*
X97883390Y-76964285D01*
X97883390Y-76964285D02*
X97931009Y-77011904D01*
X97931009Y-77011904D02*
X97978628Y-77107142D01*
X97978628Y-77107142D02*
X97978628Y-77488094D01*
X97454819Y-76583332D02*
X97454819Y-75916666D01*
X97454819Y-75916666D02*
X98454819Y-76345237D01*
X89454819Y-80964285D02*
X88454819Y-80964285D01*
X88454819Y-80964285D02*
X88454819Y-80726190D01*
X88454819Y-80726190D02*
X88502438Y-80583333D01*
X88502438Y-80583333D02*
X88597676Y-80488095D01*
X88597676Y-80488095D02*
X88692914Y-80440476D01*
X88692914Y-80440476D02*
X88883390Y-80392857D01*
X88883390Y-80392857D02*
X89026247Y-80392857D01*
X89026247Y-80392857D02*
X89216723Y-80440476D01*
X89216723Y-80440476D02*
X89311961Y-80488095D01*
X89311961Y-80488095D02*
X89407200Y-80583333D01*
X89407200Y-80583333D02*
X89454819Y-80726190D01*
X89454819Y-80726190D02*
X89454819Y-80964285D01*
X89454819Y-79440476D02*
X89454819Y-80011904D01*
X89454819Y-79726190D02*
X88454819Y-79726190D01*
X88454819Y-79726190D02*
X88597676Y-79821428D01*
X88597676Y-79821428D02*
X88692914Y-79916666D01*
X88692914Y-79916666D02*
X88740533Y-80011904D01*
X89454819Y-78488095D02*
X89454819Y-79059523D01*
X89454819Y-78773809D02*
X88454819Y-78773809D01*
X88454819Y-78773809D02*
X88597676Y-78869047D01*
X88597676Y-78869047D02*
X88692914Y-78964285D01*
X88692914Y-78964285D02*
X88740533Y-79059523D01*
D17*
X74666667Y-56159800D02*
X74809524Y-56207419D01*
X74809524Y-56207419D02*
X75047619Y-56207419D01*
X75047619Y-56207419D02*
X75142857Y-56159800D01*
X75142857Y-56159800D02*
X75190476Y-56112180D01*
X75190476Y-56112180D02*
X75238095Y-56016942D01*
X75238095Y-56016942D02*
X75238095Y-55921704D01*
X75238095Y-55921704D02*
X75190476Y-55826466D01*
X75190476Y-55826466D02*
X75142857Y-55778847D01*
X75142857Y-55778847D02*
X75047619Y-55731228D01*
X75047619Y-55731228D02*
X74857143Y-55683609D01*
X74857143Y-55683609D02*
X74761905Y-55635990D01*
X74761905Y-55635990D02*
X74714286Y-55588371D01*
X74714286Y-55588371D02*
X74666667Y-55493133D01*
X74666667Y-55493133D02*
X74666667Y-55397895D01*
X74666667Y-55397895D02*
X74714286Y-55302657D01*
X74714286Y-55302657D02*
X74761905Y-55255038D01*
X74761905Y-55255038D02*
X74857143Y-55207419D01*
X74857143Y-55207419D02*
X75095238Y-55207419D01*
X75095238Y-55207419D02*
X75238095Y-55255038D01*
X75571429Y-55207419D02*
X75809524Y-56207419D01*
X75809524Y-56207419D02*
X76000000Y-55493133D01*
X76000000Y-55493133D02*
X76190476Y-56207419D01*
X76190476Y-56207419D02*
X76428572Y-55207419D01*
X77285714Y-55207419D02*
X76809524Y-55207419D01*
X76809524Y-55207419D02*
X76761905Y-55683609D01*
X76761905Y-55683609D02*
X76809524Y-55635990D01*
X76809524Y-55635990D02*
X76904762Y-55588371D01*
X76904762Y-55588371D02*
X77142857Y-55588371D01*
X77142857Y-55588371D02*
X77238095Y-55635990D01*
X77238095Y-55635990D02*
X77285714Y-55683609D01*
X77285714Y-55683609D02*
X77333333Y-55778847D01*
X77333333Y-55778847D02*
X77333333Y-56016942D01*
X77333333Y-56016942D02*
X77285714Y-56112180D01*
X77285714Y-56112180D02*
X77238095Y-56159800D01*
X77238095Y-56159800D02*
X77142857Y-56207419D01*
X77142857Y-56207419D02*
X76904762Y-56207419D01*
X76904762Y-56207419D02*
X76809524Y-56159800D01*
X76809524Y-56159800D02*
X76761905Y-56112180D01*
D16*
X80454819Y-46309523D02*
X81169104Y-46309523D01*
X81169104Y-46309523D02*
X81311961Y-46357142D01*
X81311961Y-46357142D02*
X81407200Y-46452380D01*
X81407200Y-46452380D02*
X81454819Y-46595237D01*
X81454819Y-46595237D02*
X81454819Y-46690475D01*
X81454819Y-45309523D02*
X81454819Y-45880951D01*
X81454819Y-45595237D02*
X80454819Y-45595237D01*
X80454819Y-45595237D02*
X80597676Y-45690475D01*
X80597676Y-45690475D02*
X80692914Y-45785713D01*
X80692914Y-45785713D02*
X80740533Y-45880951D01*
X80454819Y-44690475D02*
X80454819Y-44595237D01*
X80454819Y-44595237D02*
X80502438Y-44499999D01*
X80502438Y-44499999D02*
X80550057Y-44452380D01*
X80550057Y-44452380D02*
X80645295Y-44404761D01*
X80645295Y-44404761D02*
X80835771Y-44357142D01*
X80835771Y-44357142D02*
X81073866Y-44357142D01*
X81073866Y-44357142D02*
X81264342Y-44404761D01*
X81264342Y-44404761D02*
X81359580Y-44452380D01*
X81359580Y-44452380D02*
X81407200Y-44499999D01*
X81407200Y-44499999D02*
X81454819Y-44595237D01*
X81454819Y-44595237D02*
X81454819Y-44690475D01*
X81454819Y-44690475D02*
X81407200Y-44785713D01*
X81407200Y-44785713D02*
X81359580Y-44833332D01*
X81359580Y-44833332D02*
X81264342Y-44880951D01*
X81264342Y-44880951D02*
X81073866Y-44928570D01*
X81073866Y-44928570D02*
X80835771Y-44928570D01*
X80835771Y-44928570D02*
X80645295Y-44880951D01*
X80645295Y-44880951D02*
X80550057Y-44833332D01*
X80550057Y-44833332D02*
X80502438Y-44785713D01*
X80502438Y-44785713D02*
X80454819Y-44690475D01*
X85114700Y-52571428D02*
X85114700Y-51428571D01*
X85114700Y-39571428D02*
X85114700Y-38428571D01*
X85686128Y-38999999D02*
X84543271Y-38999999D01*
D17*
X38666667Y-56159800D02*
X38809524Y-56207419D01*
X38809524Y-56207419D02*
X39047619Y-56207419D01*
X39047619Y-56207419D02*
X39142857Y-56159800D01*
X39142857Y-56159800D02*
X39190476Y-56112180D01*
X39190476Y-56112180D02*
X39238095Y-56016942D01*
X39238095Y-56016942D02*
X39238095Y-55921704D01*
X39238095Y-55921704D02*
X39190476Y-55826466D01*
X39190476Y-55826466D02*
X39142857Y-55778847D01*
X39142857Y-55778847D02*
X39047619Y-55731228D01*
X39047619Y-55731228D02*
X38857143Y-55683609D01*
X38857143Y-55683609D02*
X38761905Y-55635990D01*
X38761905Y-55635990D02*
X38714286Y-55588371D01*
X38714286Y-55588371D02*
X38666667Y-55493133D01*
X38666667Y-55493133D02*
X38666667Y-55397895D01*
X38666667Y-55397895D02*
X38714286Y-55302657D01*
X38714286Y-55302657D02*
X38761905Y-55255038D01*
X38761905Y-55255038D02*
X38857143Y-55207419D01*
X38857143Y-55207419D02*
X39095238Y-55207419D01*
X39095238Y-55207419D02*
X39238095Y-55255038D01*
X39571429Y-55207419D02*
X39809524Y-56207419D01*
X39809524Y-56207419D02*
X40000000Y-55493133D01*
X40000000Y-55493133D02*
X40190476Y-56207419D01*
X40190476Y-56207419D02*
X40428572Y-55207419D01*
X41333333Y-56207419D02*
X40761905Y-56207419D01*
X41047619Y-56207419D02*
X41047619Y-55207419D01*
X41047619Y-55207419D02*
X40952381Y-55350276D01*
X40952381Y-55350276D02*
X40857143Y-55445514D01*
X40857143Y-55445514D02*
X40761905Y-55493133D01*
D16*
X137204819Y-46939166D02*
X136728628Y-47272499D01*
X137204819Y-47510594D02*
X136204819Y-47510594D01*
X136204819Y-47510594D02*
X136204819Y-47129642D01*
X136204819Y-47129642D02*
X136252438Y-47034404D01*
X136252438Y-47034404D02*
X136300057Y-46986785D01*
X136300057Y-46986785D02*
X136395295Y-46939166D01*
X136395295Y-46939166D02*
X136538152Y-46939166D01*
X136538152Y-46939166D02*
X136633390Y-46986785D01*
X136633390Y-46986785D02*
X136681009Y-47034404D01*
X136681009Y-47034404D02*
X136728628Y-47129642D01*
X136728628Y-47129642D02*
X136728628Y-47510594D01*
X136300057Y-46558213D02*
X136252438Y-46510594D01*
X136252438Y-46510594D02*
X136204819Y-46415356D01*
X136204819Y-46415356D02*
X136204819Y-46177261D01*
X136204819Y-46177261D02*
X136252438Y-46082023D01*
X136252438Y-46082023D02*
X136300057Y-46034404D01*
X136300057Y-46034404D02*
X136395295Y-45986785D01*
X136395295Y-45986785D02*
X136490533Y-45986785D01*
X136490533Y-45986785D02*
X136633390Y-46034404D01*
X136633390Y-46034404D02*
X137204819Y-46605832D01*
X137204819Y-46605832D02*
X137204819Y-45986785D01*
X100704819Y-71464285D02*
X99704819Y-71464285D01*
X99704819Y-71464285D02*
X99704819Y-71226190D01*
X99704819Y-71226190D02*
X99752438Y-71083333D01*
X99752438Y-71083333D02*
X99847676Y-70988095D01*
X99847676Y-70988095D02*
X99942914Y-70940476D01*
X99942914Y-70940476D02*
X100133390Y-70892857D01*
X100133390Y-70892857D02*
X100276247Y-70892857D01*
X100276247Y-70892857D02*
X100466723Y-70940476D01*
X100466723Y-70940476D02*
X100561961Y-70988095D01*
X100561961Y-70988095D02*
X100657200Y-71083333D01*
X100657200Y-71083333D02*
X100704819Y-71226190D01*
X100704819Y-71226190D02*
X100704819Y-71464285D01*
X100704819Y-69940476D02*
X100704819Y-70511904D01*
X100704819Y-70226190D02*
X99704819Y-70226190D01*
X99704819Y-70226190D02*
X99847676Y-70321428D01*
X99847676Y-70321428D02*
X99942914Y-70416666D01*
X99942914Y-70416666D02*
X99990533Y-70511904D01*
X99800057Y-69559523D02*
X99752438Y-69511904D01*
X99752438Y-69511904D02*
X99704819Y-69416666D01*
X99704819Y-69416666D02*
X99704819Y-69178571D01*
X99704819Y-69178571D02*
X99752438Y-69083333D01*
X99752438Y-69083333D02*
X99800057Y-69035714D01*
X99800057Y-69035714D02*
X99895295Y-68988095D01*
X99895295Y-68988095D02*
X99990533Y-68988095D01*
X99990533Y-68988095D02*
X100133390Y-69035714D01*
X100133390Y-69035714D02*
X100704819Y-69607142D01*
X100704819Y-69607142D02*
X100704819Y-68988095D01*
X115704819Y-75333333D02*
X116419104Y-75333333D01*
X116419104Y-75333333D02*
X116561961Y-75380952D01*
X116561961Y-75380952D02*
X116657200Y-75476190D01*
X116657200Y-75476190D02*
X116704819Y-75619047D01*
X116704819Y-75619047D02*
X116704819Y-75714285D01*
X115704819Y-74952380D02*
X115704819Y-74333333D01*
X115704819Y-74333333D02*
X116085771Y-74666666D01*
X116085771Y-74666666D02*
X116085771Y-74523809D01*
X116085771Y-74523809D02*
X116133390Y-74428571D01*
X116133390Y-74428571D02*
X116181009Y-74380952D01*
X116181009Y-74380952D02*
X116276247Y-74333333D01*
X116276247Y-74333333D02*
X116514342Y-74333333D01*
X116514342Y-74333333D02*
X116609580Y-74380952D01*
X116609580Y-74380952D02*
X116657200Y-74428571D01*
X116657200Y-74428571D02*
X116704819Y-74523809D01*
X116704819Y-74523809D02*
X116704819Y-74809523D01*
X116704819Y-74809523D02*
X116657200Y-74904761D01*
X116657200Y-74904761D02*
X116609580Y-74952380D01*
X53454819Y-80488094D02*
X52454819Y-80488094D01*
X52454819Y-80488094D02*
X52454819Y-80249999D01*
X52454819Y-80249999D02*
X52502438Y-80107142D01*
X52502438Y-80107142D02*
X52597676Y-80011904D01*
X52597676Y-80011904D02*
X52692914Y-79964285D01*
X52692914Y-79964285D02*
X52883390Y-79916666D01*
X52883390Y-79916666D02*
X53026247Y-79916666D01*
X53026247Y-79916666D02*
X53216723Y-79964285D01*
X53216723Y-79964285D02*
X53311961Y-80011904D01*
X53311961Y-80011904D02*
X53407200Y-80107142D01*
X53407200Y-80107142D02*
X53454819Y-80249999D01*
X53454819Y-80249999D02*
X53454819Y-80488094D01*
X52883390Y-79345237D02*
X52835771Y-79440475D01*
X52835771Y-79440475D02*
X52788152Y-79488094D01*
X52788152Y-79488094D02*
X52692914Y-79535713D01*
X52692914Y-79535713D02*
X52645295Y-79535713D01*
X52645295Y-79535713D02*
X52550057Y-79488094D01*
X52550057Y-79488094D02*
X52502438Y-79440475D01*
X52502438Y-79440475D02*
X52454819Y-79345237D01*
X52454819Y-79345237D02*
X52454819Y-79154761D01*
X52454819Y-79154761D02*
X52502438Y-79059523D01*
X52502438Y-79059523D02*
X52550057Y-79011904D01*
X52550057Y-79011904D02*
X52645295Y-78964285D01*
X52645295Y-78964285D02*
X52692914Y-78964285D01*
X52692914Y-78964285D02*
X52788152Y-79011904D01*
X52788152Y-79011904D02*
X52835771Y-79059523D01*
X52835771Y-79059523D02*
X52883390Y-79154761D01*
X52883390Y-79154761D02*
X52883390Y-79345237D01*
X52883390Y-79345237D02*
X52931009Y-79440475D01*
X52931009Y-79440475D02*
X52978628Y-79488094D01*
X52978628Y-79488094D02*
X53073866Y-79535713D01*
X53073866Y-79535713D02*
X53264342Y-79535713D01*
X53264342Y-79535713D02*
X53359580Y-79488094D01*
X53359580Y-79488094D02*
X53407200Y-79440475D01*
X53407200Y-79440475D02*
X53454819Y-79345237D01*
X53454819Y-79345237D02*
X53454819Y-79154761D01*
X53454819Y-79154761D02*
X53407200Y-79059523D01*
X53407200Y-79059523D02*
X53359580Y-79011904D01*
X53359580Y-79011904D02*
X53264342Y-78964285D01*
X53264342Y-78964285D02*
X53073866Y-78964285D01*
X53073866Y-78964285D02*
X52978628Y-79011904D01*
X52978628Y-79011904D02*
X52931009Y-79059523D01*
X52931009Y-79059523D02*
X52883390Y-79154761D01*
X62454819Y-77642857D02*
X61978628Y-77976190D01*
X62454819Y-78214285D02*
X61454819Y-78214285D01*
X61454819Y-78214285D02*
X61454819Y-77833333D01*
X61454819Y-77833333D02*
X61502438Y-77738095D01*
X61502438Y-77738095D02*
X61550057Y-77690476D01*
X61550057Y-77690476D02*
X61645295Y-77642857D01*
X61645295Y-77642857D02*
X61788152Y-77642857D01*
X61788152Y-77642857D02*
X61883390Y-77690476D01*
X61883390Y-77690476D02*
X61931009Y-77738095D01*
X61931009Y-77738095D02*
X61978628Y-77833333D01*
X61978628Y-77833333D02*
X61978628Y-78214285D01*
X62454819Y-76690476D02*
X62454819Y-77261904D01*
X62454819Y-76976190D02*
X61454819Y-76976190D01*
X61454819Y-76976190D02*
X61597676Y-77071428D01*
X61597676Y-77071428D02*
X61692914Y-77166666D01*
X61692914Y-77166666D02*
X61740533Y-77261904D01*
X61454819Y-76071428D02*
X61454819Y-75976190D01*
X61454819Y-75976190D02*
X61502438Y-75880952D01*
X61502438Y-75880952D02*
X61550057Y-75833333D01*
X61550057Y-75833333D02*
X61645295Y-75785714D01*
X61645295Y-75785714D02*
X61835771Y-75738095D01*
X61835771Y-75738095D02*
X62073866Y-75738095D01*
X62073866Y-75738095D02*
X62264342Y-75785714D01*
X62264342Y-75785714D02*
X62359580Y-75833333D01*
X62359580Y-75833333D02*
X62407200Y-75880952D01*
X62407200Y-75880952D02*
X62454819Y-75976190D01*
X62454819Y-75976190D02*
X62454819Y-76071428D01*
X62454819Y-76071428D02*
X62407200Y-76166666D01*
X62407200Y-76166666D02*
X62359580Y-76214285D01*
X62359580Y-76214285D02*
X62264342Y-76261904D01*
X62264342Y-76261904D02*
X62073866Y-76309523D01*
X62073866Y-76309523D02*
X61835771Y-76309523D01*
X61835771Y-76309523D02*
X61645295Y-76261904D01*
X61645295Y-76261904D02*
X61550057Y-76214285D01*
X61550057Y-76214285D02*
X61502438Y-76166666D01*
X61502438Y-76166666D02*
X61454819Y-76071428D01*
X89454819Y-77642857D02*
X88978628Y-77976190D01*
X89454819Y-78214285D02*
X88454819Y-78214285D01*
X88454819Y-78214285D02*
X88454819Y-77833333D01*
X88454819Y-77833333D02*
X88502438Y-77738095D01*
X88502438Y-77738095D02*
X88550057Y-77690476D01*
X88550057Y-77690476D02*
X88645295Y-77642857D01*
X88645295Y-77642857D02*
X88788152Y-77642857D01*
X88788152Y-77642857D02*
X88883390Y-77690476D01*
X88883390Y-77690476D02*
X88931009Y-77738095D01*
X88931009Y-77738095D02*
X88978628Y-77833333D01*
X88978628Y-77833333D02*
X88978628Y-78214285D01*
X89454819Y-76690476D02*
X89454819Y-77261904D01*
X89454819Y-76976190D02*
X88454819Y-76976190D01*
X88454819Y-76976190D02*
X88597676Y-77071428D01*
X88597676Y-77071428D02*
X88692914Y-77166666D01*
X88692914Y-77166666D02*
X88740533Y-77261904D01*
X89454819Y-75738095D02*
X89454819Y-76309523D01*
X89454819Y-76023809D02*
X88454819Y-76023809D01*
X88454819Y-76023809D02*
X88597676Y-76119047D01*
X88597676Y-76119047D02*
X88692914Y-76214285D01*
X88692914Y-76214285D02*
X88740533Y-76309523D01*
D18*
%TO.C,D2*%
X133290000Y-41252500D02*
X133290000Y-43937500D01*
X135210000Y-41252500D02*
X133290000Y-41252500D01*
X135210000Y-43937500D02*
X135210000Y-41252500D01*
%TO.C,J7*%
X46290000Y-40290000D02*
X51710000Y-40290000D01*
X46290000Y-49010000D02*
X46290000Y-40290000D01*
X47590000Y-50710000D02*
X46290000Y-49010000D01*
X47590000Y-50710000D02*
X50410000Y-50710000D01*
X50410000Y-50710000D02*
X51710000Y-49010000D01*
X51710000Y-49010000D02*
X51710000Y-40290000D01*
%TO.C,J2*%
X153350000Y-56050000D02*
X153350000Y-68900000D01*
X153350000Y-68900000D02*
X155900000Y-71750000D01*
X155900000Y-71750000D02*
X159050000Y-71750000D01*
X159050000Y-71750000D02*
X161650000Y-68900000D01*
X161650000Y-56050000D02*
X153350000Y-56050000D01*
X161650000Y-68900000D02*
X161650000Y-56050000D01*
D19*
%TO.C,S1*%
X136250000Y-49500000D02*
X136250000Y-81500000D01*
X136250000Y-81500000D02*
X150250000Y-81500000D01*
X150250000Y-49500000D02*
X136250000Y-49500000D01*
X150250000Y-81500000D02*
X150250000Y-49500000D01*
D12*
X143350000Y-82000000D02*
G75*
G02*
X143150000Y-82000000I-100000J0D01*
G01*
X143150000Y-82000000D02*
G75*
G02*
X143350000Y-82000000I100000J0D01*
G01*
D18*
%TO.C,D10*%
X57937500Y-80210000D02*
X60622500Y-80210000D01*
X60622500Y-78290000D02*
X57937500Y-78290000D01*
X60622500Y-80210000D02*
X60622500Y-78290000D01*
%TO.C,R6*%
X68139564Y-76265000D02*
X67685436Y-76265000D01*
X68139564Y-77735000D02*
X67685436Y-77735000D01*
D17*
%TO.C,SW7*%
X81317000Y-62750000D02*
X85000000Y-62750000D01*
X81317000Y-75450000D02*
X81317000Y-62750000D01*
X85000000Y-62750000D02*
X88683000Y-62750000D01*
X85000000Y-75450000D02*
X81317000Y-75450000D01*
X88683000Y-62750000D02*
X88683000Y-75450000D01*
X88683000Y-75450000D02*
X85000000Y-75450000D01*
D18*
%TO.C,J1*%
X153350000Y-38550000D02*
X153350000Y-51400000D01*
X153350000Y-51400000D02*
X155900000Y-54250000D01*
X155900000Y-54250000D02*
X159050000Y-54250000D01*
X159050000Y-54250000D02*
X161650000Y-51400000D01*
X161650000Y-38550000D02*
X153350000Y-38550000D01*
X161650000Y-51400000D02*
X161650000Y-38550000D01*
%TO.C,J9*%
X55290000Y-40290000D02*
X60710000Y-40290000D01*
X55290000Y-49010000D02*
X55290000Y-40290000D01*
X56590000Y-50710000D02*
X55290000Y-49010000D01*
X56590000Y-50710000D02*
X59410000Y-50710000D01*
X59410000Y-50710000D02*
X60710000Y-49010000D01*
X60710000Y-49010000D02*
X60710000Y-40290000D01*
D17*
%TO.C,SW3*%
X90317000Y-62750000D02*
X94000000Y-62750000D01*
X90317000Y-75450000D02*
X90317000Y-62750000D01*
X94000000Y-62750000D02*
X97683000Y-62750000D01*
X94000000Y-75450000D02*
X90317000Y-75450000D01*
X97683000Y-62750000D02*
X97683000Y-75450000D01*
X97683000Y-75450000D02*
X94000000Y-75450000D01*
D18*
%TO.C,D7*%
X93937500Y-80210000D02*
X96622500Y-80210000D01*
X96622500Y-78290000D02*
X93937500Y-78290000D01*
X96622500Y-80210000D02*
X96622500Y-78290000D01*
%TO.C,D5*%
X39937500Y-80210000D02*
X42622500Y-80210000D01*
X42622500Y-78290000D02*
X39937500Y-78290000D01*
X42622500Y-80210000D02*
X42622500Y-78290000D01*
%TO.C,D6*%
X66937500Y-80210000D02*
X69622500Y-80210000D01*
X69622500Y-78290000D02*
X66937500Y-78290000D01*
X69622500Y-80210000D02*
X69622500Y-78290000D01*
%TO.C,D4*%
X126540000Y-41377500D02*
X126540000Y-44062500D01*
X128460000Y-41377500D02*
X126540000Y-41377500D01*
X128460000Y-44062500D02*
X128460000Y-41377500D01*
%TO.C,D9*%
X75937500Y-80210000D02*
X78622500Y-80210000D01*
X78622500Y-78290000D02*
X75937500Y-78290000D01*
X78622500Y-80210000D02*
X78622500Y-78290000D01*
D17*
%TO.C,SW6*%
X54317000Y-62750000D02*
X58000000Y-62750000D01*
X54317000Y-75450000D02*
X54317000Y-62750000D01*
X58000000Y-62750000D02*
X61683000Y-62750000D01*
X58000000Y-75450000D02*
X54317000Y-75450000D01*
X61683000Y-62750000D02*
X61683000Y-75450000D01*
X61683000Y-75450000D02*
X58000000Y-75450000D01*
D18*
%TO.C,J8*%
X73290000Y-40290000D02*
X78710000Y-40290000D01*
X73290000Y-49010000D02*
X73290000Y-40290000D01*
X74590000Y-50710000D02*
X73290000Y-49010000D01*
X74590000Y-50710000D02*
X77410000Y-50710000D01*
X77410000Y-50710000D02*
X78710000Y-49010000D01*
X78710000Y-49010000D02*
X78710000Y-40290000D01*
D17*
%TO.C,SW4*%
X45317000Y-62750000D02*
X49000000Y-62750000D01*
X45317000Y-75450000D02*
X45317000Y-62750000D01*
X49000000Y-62750000D02*
X52683000Y-62750000D01*
X49000000Y-75450000D02*
X45317000Y-75450000D01*
X52683000Y-62750000D02*
X52683000Y-75450000D01*
X52683000Y-75450000D02*
X49000000Y-75450000D01*
D18*
%TO.C,J5*%
X64290000Y-40290000D02*
X69710000Y-40290000D01*
X64290000Y-49010000D02*
X64290000Y-40290000D01*
X65590000Y-50710000D02*
X64290000Y-49010000D01*
X65590000Y-50710000D02*
X68410000Y-50710000D01*
X68410000Y-50710000D02*
X69710000Y-49010000D01*
X69710000Y-49010000D02*
X69710000Y-40290000D01*
%TO.C,F1*%
X154408748Y-73330000D02*
X158816252Y-73330000D01*
X154408748Y-78670000D02*
X158816252Y-78670000D01*
%TO.C,R5*%
X41139564Y-76265000D02*
X40685436Y-76265000D01*
X41139564Y-77735000D02*
X40685436Y-77735000D01*
%TO.C,R1*%
X166765000Y-65814564D02*
X166765000Y-65360436D01*
X168235000Y-65814564D02*
X168235000Y-65360436D01*
%TO.C,R12*%
X102265000Y-65710436D02*
X102265000Y-66164564D01*
X103735000Y-65710436D02*
X103735000Y-66164564D01*
D20*
%TO.C,K1*%
X108573032Y-52176801D02*
X108573032Y-67823201D01*
X108573032Y-52176801D02*
X127826232Y-52176801D01*
X108573032Y-67823201D02*
X127826232Y-67823201D01*
X109365004Y-68585201D02*
X110635004Y-68585201D01*
X110000004Y-69220201D02*
X110000004Y-67950201D01*
X127826232Y-52176801D02*
X127826232Y-67823201D01*
D18*
%TO.C,R8*%
X50139564Y-76265000D02*
X49685436Y-76265000D01*
X50139564Y-77735000D02*
X49685436Y-77735000D01*
D17*
%TO.C,SW2*%
X63317000Y-62750000D02*
X67000000Y-62750000D01*
X63317000Y-75450000D02*
X63317000Y-62750000D01*
X67000000Y-62750000D02*
X70683000Y-62750000D01*
X67000000Y-75450000D02*
X63317000Y-75450000D01*
X70683000Y-62750000D02*
X70683000Y-75450000D01*
X70683000Y-75450000D02*
X67000000Y-75450000D01*
D18*
%TO.C,J6*%
X91290000Y-40290000D02*
X96710000Y-40290000D01*
X91290000Y-49010000D02*
X91290000Y-40290000D01*
X92590000Y-50710000D02*
X91290000Y-49010000D01*
X92590000Y-50710000D02*
X95410000Y-50710000D01*
X95410000Y-50710000D02*
X96710000Y-49010000D01*
X96710000Y-49010000D02*
X96710000Y-40290000D01*
%TO.C,R4*%
X126765000Y-47227064D02*
X126765000Y-46772936D01*
X128235000Y-47227064D02*
X128235000Y-46772936D01*
%TO.C,D1*%
X166540000Y-60377500D02*
X166540000Y-63062500D01*
X168460000Y-60377500D02*
X166540000Y-60377500D01*
X168460000Y-63062500D02*
X168460000Y-60377500D01*
%TO.C,R9*%
X77139564Y-76265000D02*
X76685436Y-76265000D01*
X77139564Y-77735000D02*
X76685436Y-77735000D01*
%TO.C,J4*%
X37290000Y-40540000D02*
X42710000Y-40540000D01*
X37290000Y-49260000D02*
X37290000Y-40540000D01*
X38590000Y-50960000D02*
X37290000Y-49260000D01*
X38590000Y-50960000D02*
X41410000Y-50960000D01*
X41410000Y-50960000D02*
X42710000Y-49260000D01*
X42710000Y-49260000D02*
X42710000Y-40540000D01*
%TO.C,R7*%
X95139564Y-76265000D02*
X94685436Y-76265000D01*
X95139564Y-77735000D02*
X94685436Y-77735000D01*
%TO.C,D11*%
X84937500Y-80110000D02*
X87622500Y-80110000D01*
X87622500Y-78190000D02*
X84937500Y-78190000D01*
X87622500Y-80110000D02*
X87622500Y-78190000D01*
D17*
%TO.C,SW5*%
X72317000Y-62750000D02*
X76000000Y-62750000D01*
X72317000Y-75450000D02*
X72317000Y-62750000D01*
X76000000Y-62750000D02*
X79683000Y-62750000D01*
X76000000Y-75450000D02*
X72317000Y-75450000D01*
X79683000Y-62750000D02*
X79683000Y-75450000D01*
X79683000Y-75450000D02*
X76000000Y-75450000D01*
D18*
%TO.C,J10*%
X82290000Y-40290000D02*
X87710000Y-40290000D01*
X82290000Y-49010000D02*
X82290000Y-40290000D01*
X83590000Y-50710000D02*
X82290000Y-49010000D01*
X83590000Y-50710000D02*
X86410000Y-50710000D01*
X86410000Y-50710000D02*
X87710000Y-49010000D01*
X87710000Y-49010000D02*
X87710000Y-40290000D01*
D17*
%TO.C,SW1*%
X36317000Y-62750000D02*
X40000000Y-62750000D01*
X36317000Y-75450000D02*
X36317000Y-62750000D01*
X40000000Y-62750000D02*
X43683000Y-62750000D01*
X40000000Y-75450000D02*
X36317000Y-75450000D01*
X43683000Y-62750000D02*
X43683000Y-75450000D01*
X43683000Y-75450000D02*
X40000000Y-75450000D01*
D18*
%TO.C,R2*%
X133515000Y-47139564D02*
X133515000Y-46685436D01*
X134985000Y-47139564D02*
X134985000Y-46685436D01*
%TO.C,D12*%
X102040000Y-68437500D02*
X102040000Y-71122500D01*
X102040000Y-71122500D02*
X103960000Y-71122500D01*
X103960000Y-71122500D02*
X103960000Y-68437500D01*
%TO.C,J3*%
X107670000Y-76330000D02*
X107670000Y-75000000D01*
X109000000Y-76330000D02*
X107670000Y-76330000D01*
X110270000Y-73670000D02*
X115410000Y-73670000D01*
X110270000Y-76330000D02*
X110270000Y-73670000D01*
X110270000Y-76330000D02*
X115410000Y-76330000D01*
X115410000Y-76330000D02*
X115410000Y-73670000D01*
%TO.C,D8*%
X48937500Y-80210000D02*
X51622500Y-80210000D01*
X51622500Y-78290000D02*
X48937500Y-78290000D01*
X51622500Y-80210000D02*
X51622500Y-78290000D01*
%TO.C,R10*%
X59139564Y-76265000D02*
X58685436Y-76265000D01*
X59139564Y-77735000D02*
X58685436Y-77735000D01*
%TO.C,R11*%
X86139564Y-76265000D02*
X85685436Y-76265000D01*
X86139564Y-77735000D02*
X85685436Y-77735000D01*
%TD*%
M02*
