M48
; DRILL file {KiCad 8.0.5} date 2024-12-09T20:23:37-0800
; FORMAT={-:-/ absolute / inch / decimal}
; #@! TF.CreationDate,2024-12-09T20:23:37-08:00
; #@! TF.GenerationSoftware,Kicad,Pcbnew,8.0.5
; #@! TF.FileFunction,Plated,1,2,PTH
FMAT,2
INCH
; #@! TA.AperFunction,Plated,PTH,ViaDrill
T1C0.0118
; #@! TA.AperFunction,Plated,PTH,ComponentDrill
T2C0.0300
; #@! TA.AperFunction,Plated,PTH,ComponentDrill
T3C0.0394
; #@! TA.AperFunction,Plated,PTH,ComponentDrill
T4C0.0472
; #@! TA.AperFunction,Plated,PTH,ComponentDrill
T5C0.0510
; #@! TA.AperFunction,Plated,PTH,ComponentDrill
T6C0.0550
; #@! TA.AperFunction,Plated,PTH,ComponentDrill
T7C0.1063
; #@! TA.AperFunction,Plated,PTH,ComponentDrill
T8C0.1772
%
G90
G05
T1
X1.2205Y-1.8898
X1.2205Y-2.0472
X1.2205Y-2.2047
X1.2205Y-2.3622
X1.2205Y-2.5197
X1.2205Y-2.6772
X1.2205Y-2.7953
X1.3386Y-2.0472
X1.3386Y-2.2047
X1.3386Y-2.3622
X1.3386Y-2.5197
X1.3386Y-2.6772
X1.5354Y-2.2441
X1.7323Y-1.6535
X1.7323Y-1.8406
X1.7323Y-2.0079
X1.7323Y-2.185
X1.7323Y-2.2682
X1.8898Y-2.2441
X2.0844Y-2.266
X2.0866Y-1.6535
X2.0866Y-1.8406
X2.0866Y-2.0079
X2.0866Y-2.185
X2.2441Y-2.2441
X2.4387Y-2.266
X2.4409Y-1.6535
X2.4409Y-1.8406
X2.4409Y-2.0079
X2.4409Y-2.185
X2.5984Y-2.2441
X2.7953Y-1.6535
X2.7953Y-1.8406
X2.7953Y-2.0079
X2.7953Y-2.185
X2.7953Y-2.2682
X2.9528Y-2.2441
X3.1299Y-2.2485
X3.1496Y-1.6535
X3.1496Y-1.8406
X3.1496Y-2.0079
X3.1496Y-2.185
X3.3071Y-2.2441
X3.4941Y-2.185
X3.5039Y-1.6535
X3.5039Y-1.8406
X3.5039Y-2.0079
X3.5039Y-2.2682
X3.6614Y-2.2441
X3.8386Y-2.2485
X3.8583Y-1.6535
X3.8583Y-1.8898
X3.8583Y-1.9783
X3.8583Y-2.0669
X3.9567Y-1.8898
X3.9567Y-1.9783
X3.9567Y-2.0669
X4.0551Y-1.8898
X4.0551Y-1.9783
X4.0551Y-2.0669
X4.0551Y-2.5098
X4.1535Y-2.5984
X4.3504Y-1.6339
X4.5276Y-1.9094
X4.626Y-1.8701
X4.8031Y-2.9528
X4.8031Y-3.061
X4.8031Y-3.1594
X4.8819Y-1.6535
X4.9606Y-2.9528
X4.9606Y-3.061
X4.9606Y-3.1594
X5.0197Y-1.6043
X5.1181Y-2.9528
X5.1181Y-3.061
X5.1181Y-3.1594
X5.2461Y-1.9488
X5.2756Y-2.9528
X5.2756Y-3.061
X5.2756Y-3.1594
X5.2854Y-1.6043
X5.3543Y-1.5945
X5.4232Y-2.9528
X5.4232Y-3.061
X5.4232Y-3.1594
X5.5512Y-3.1594
X6.1417Y-2.9134
X6.4173Y-1.8898
X6.4173Y-1.9783
X6.4173Y-2.0866
X6.4173Y-2.185
X6.4173Y-2.2835
X6.4173Y-2.7559
X6.4173Y-2.8346
X6.5157Y-1.8898
X6.5157Y-1.9783
X6.5157Y-2.0866
X6.5157Y-2.185
X6.5157Y-2.2835
X6.5157Y-2.7559
X6.5157Y-2.8346
X6.6142Y-1.8898
X6.6142Y-1.9783
X6.6142Y-2.0866
X6.6142Y-2.185
X6.6142Y-2.2835
X6.6142Y-2.7559
X6.6142Y-2.8346
T2
X1.5748Y-2.5315
X1.5748Y-2.7205
X1.5748Y-2.9035
X1.9291Y-2.5315
X1.9291Y-2.7205
X1.9291Y-2.9035
X2.2835Y-2.5315
X2.2835Y-2.7205
X2.2835Y-2.9035
X2.6378Y-2.5315
X2.6378Y-2.7205
X2.6378Y-2.9035
X2.9921Y-2.5315
X2.9921Y-2.7205
X2.9921Y-2.9035
X3.3465Y-2.5315
X3.3465Y-2.7205
X3.3465Y-2.9035
X3.7008Y-2.5315
X3.7008Y-2.7205
X3.7008Y-2.9035
T3
X4.2913Y-2.9528
X4.3913Y-2.9528
X4.4913Y-2.9528
T5
X4.4094Y-2.126
X4.4094Y-2.5984
X4.8897Y-2.126
X4.8897Y-2.5984
T6
X4.3307Y-2.3622
T7
X1.5748Y-1.7028
X1.5748Y-1.8996
X1.9291Y-1.6929
X1.9291Y-1.8898
X2.2835Y-1.6929
X2.2835Y-1.8898
X2.6378Y-1.6929
X2.6378Y-1.8898
X2.9921Y-1.6929
X2.9921Y-1.8898
X3.3465Y-1.6929
X3.3465Y-1.8898
X3.7008Y-1.6929
X3.7008Y-1.8898
T8
X6.2008Y-1.685
X6.2008Y-1.9685
X6.2008Y-2.374
X6.2008Y-2.6575
T4
G00X5.75Y-2.5787
M15
G01X5.5295Y-2.5787
M16
G05
G00X5.75Y-2.9921
M15
G01X5.5295Y-2.9921
M16
G05
M30
