%TF.GenerationSoftware,KiCad,Pcbnew,8.0.5*%
%TF.CreationDate,2024-09-21T15:40:57-07:00*%
%TF.ProjectId,Power_PCB,506f7765-725f-4504-9342-2e6b69636164,rev?*%
%TF.SameCoordinates,Original*%
%TF.FileFunction,Soldermask,Top*%
%TF.FilePolarity,Negative*%
%FSLAX46Y46*%
G04 Gerber Fmt 4.6, Leading zero omitted, Abs format (unit mm)*
G04 Created by KiCad (PCBNEW 8.0.5) date 2024-09-21 15:40:57*
%MOMM*%
%LPD*%
G01*
G04 APERTURE LIST*
G04 Aperture macros list*
%AMRoundRect*
0 Rectangle with rounded corners*
0 $1 Rounding radius*
0 $2 $3 $4 $5 $6 $7 $8 $9 X,Y pos of 4 corners*
0 Add a 4 corners polygon primitive as box body*
4,1,4,$2,$3,$4,$5,$6,$7,$8,$9,$2,$3,0*
0 Add four circle primitives for the rounded corners*
1,1,$1+$1,$2,$3*
1,1,$1+$1,$4,$5*
1,1,$1+$1,$6,$7*
1,1,$1+$1,$8,$9*
0 Add four rect primitives between the rounded corners*
20,1,$1+$1,$2,$3,$4,$5,0*
20,1,$1+$1,$4,$5,$6,$7,0*
20,1,$1+$1,$6,$7,$8,$9,0*
20,1,$1+$1,$8,$9,$2,$3,0*%
G04 Aperture macros list end*
%ADD10C,3.200000*%
%ADD11RoundRect,0.243750X0.243750X0.456250X-0.243750X0.456250X-0.243750X-0.456250X0.243750X-0.456250X0*%
%ADD12R,3.800000X3.800000*%
%ADD13C,3.800000*%
%ADD14RoundRect,0.243750X-0.456250X0.243750X-0.456250X-0.243750X0.456250X-0.243750X0.456250X0.243750X0*%
%ADD15RoundRect,0.250000X0.450000X-0.262500X0.450000X0.262500X-0.450000X0.262500X-0.450000X-0.262500X0*%
%ADD16O,8.604000X4.404000*%
%ADD17RoundRect,0.250000X-0.262500X-0.450000X0.262500X-0.450000X0.262500X0.450000X-0.262500X0.450000X0*%
%ADD18RoundRect,1.500000X1.500000X-1.500000X1.500000X1.500000X-1.500000X1.500000X-1.500000X-1.500000X0*%
%ADD19C,6.000000*%
%ADD20O,4.404000X8.604000*%
G04 APERTURE END LIST*
D10*
%TO.C,H4*%
X102000000Y-41500000D03*
%TD*%
D11*
%TO.C,D5*%
X56347500Y-80000000D03*
X54472500Y-80000000D03*
%TD*%
D12*
%TO.C,J11*%
X95500000Y-54000000D03*
D13*
X95500000Y-49000000D03*
%TD*%
D14*
%TO.C,D2*%
X163500000Y-50125000D03*
X163500000Y-52000000D03*
%TD*%
D15*
%TO.C,R1*%
X164000000Y-70325000D03*
X164000000Y-68500000D03*
%TD*%
D16*
%TO.C,S1*%
X144000000Y-70000000D03*
X144000000Y-59500000D03*
%TD*%
D17*
%TO.C,R3*%
X118175000Y-80000000D03*
X120000000Y-80000000D03*
%TD*%
D18*
%TO.C,J2*%
X157000000Y-75600000D03*
D19*
X157000000Y-68400000D03*
%TD*%
D20*
%TO.C,S3*%
X129500000Y-66000000D03*
X119000000Y-66000000D03*
%TD*%
D12*
%TO.C,J6*%
X109000000Y-54000000D03*
D13*
X109000000Y-49000000D03*
%TD*%
D18*
%TO.C,J1*%
X157000000Y-55100000D03*
D19*
X157000000Y-47900000D03*
%TD*%
D12*
%TO.C,J5*%
X61500000Y-54000000D03*
D13*
X61500000Y-49000000D03*
%TD*%
D10*
%TO.C,H3*%
X166000000Y-78500000D03*
%TD*%
%TO.C,H5*%
X32000000Y-41500000D03*
%TD*%
D17*
%TO.C,R4*%
X84087500Y-80000000D03*
X85912500Y-80000000D03*
%TD*%
D10*
%TO.C,H2*%
X32000000Y-78500000D03*
%TD*%
%TO.C,H6*%
X102000000Y-78500000D03*
%TD*%
D12*
%TO.C,J4*%
X51000000Y-54000000D03*
D13*
X51000000Y-49000000D03*
%TD*%
D12*
%TO.C,J7*%
X119000000Y-54000000D03*
D13*
X119000000Y-49000000D03*
%TD*%
D11*
%TO.C,D3*%
X124435000Y-80000000D03*
X122560000Y-80000000D03*
%TD*%
%TO.C,D4*%
X89912500Y-80000000D03*
X88037500Y-80000000D03*
%TD*%
D20*
%TO.C,S4*%
X61500000Y-66000000D03*
X51000000Y-66000000D03*
%TD*%
D17*
%TO.C,R5*%
X50087500Y-80000000D03*
X51912500Y-80000000D03*
%TD*%
D14*
%TO.C,D1*%
X163955000Y-64652500D03*
X163955000Y-66527500D03*
%TD*%
D20*
%TO.C,S2*%
X95500000Y-66000000D03*
X85000000Y-66000000D03*
%TD*%
D10*
%TO.C,H1*%
X166000000Y-41500000D03*
%TD*%
D12*
%TO.C,J3*%
X40500000Y-54000000D03*
D13*
X40500000Y-49000000D03*
%TD*%
D15*
%TO.C,R2*%
X163500000Y-55885000D03*
X163500000Y-54060000D03*
%TD*%
D12*
%TO.C,J8*%
X129500000Y-54000000D03*
D13*
X129500000Y-49000000D03*
%TD*%
D12*
%TO.C,J10*%
X85000000Y-54000000D03*
D13*
X85000000Y-49000000D03*
%TD*%
D12*
%TO.C,J9*%
X74500000Y-54000000D03*
D13*
X74500000Y-49000000D03*
%TD*%
M02*
