%TF.GenerationSoftware,KiCad,Pcbnew,8.0.8*%
%TF.CreationDate,2025-01-18T19:00:11-08:00*%
%TF.ProjectId,Power_PCB,506f7765-725f-4504-9342-2e6b69636164,rev?*%
%TF.SameCoordinates,Original*%
%TF.FileFunction,Paste,Top*%
%TF.FilePolarity,Positive*%
%FSLAX46Y46*%
G04 Gerber Fmt 4.6, Leading zero omitted, Abs format (unit mm)*
G04 Created by KiCad (PCBNEW 8.0.8) date 2025-01-18 19:00:11*
%MOMM*%
%LPD*%
G01*
G04 APERTURE LIST*
G04 Aperture macros list*
%AMRoundRect*
0 Rectangle with rounded corners*
0 $1 Rounding radius*
0 $2 $3 $4 $5 $6 $7 $8 $9 X,Y pos of 4 corners*
0 Add a 4 corners polygon primitive as box body*
4,1,4,$2,$3,$4,$5,$6,$7,$8,$9,$2,$3,0*
0 Add four circle primitives for the rounded corners*
1,1,$1+$1,$2,$3*
1,1,$1+$1,$4,$5*
1,1,$1+$1,$6,$7*
1,1,$1+$1,$8,$9*
0 Add four rect primitives between the rounded corners*
20,1,$1+$1,$2,$3,$4,$5,0*
20,1,$1+$1,$4,$5,$6,$7,0*
20,1,$1+$1,$6,$7,$8,$9,0*
20,1,$1+$1,$8,$9,$2,$3,0*%
G04 Aperture macros list end*
%ADD10RoundRect,0.243750X-0.456250X0.243750X-0.456250X-0.243750X0.456250X-0.243750X0.456250X0.243750X0*%
%ADD11RoundRect,0.243750X0.243750X0.456250X-0.243750X0.456250X-0.243750X-0.456250X0.243750X-0.456250X0*%
%ADD12RoundRect,0.250000X0.262500X0.450000X-0.262500X0.450000X-0.262500X-0.450000X0.262500X-0.450000X0*%
%ADD13RoundRect,0.250000X-0.712500X-2.475000X0.712500X-2.475000X0.712500X2.475000X-0.712500X2.475000X0*%
%ADD14RoundRect,0.250000X0.450000X-0.262500X0.450000X0.262500X-0.450000X0.262500X-0.450000X-0.262500X0*%
%ADD15RoundRect,0.250000X-0.450000X0.262500X-0.450000X-0.262500X0.450000X-0.262500X0.450000X0.262500X0*%
%ADD16RoundRect,0.243750X0.456250X-0.243750X0.456250X0.243750X-0.456250X0.243750X-0.456250X-0.243750X0*%
G04 APERTURE END LIST*
D10*
%TO.C,D2*%
X134250000Y-42000000D03*
X134250000Y-43875000D03*
%TD*%
D11*
%TO.C,D10*%
X59875000Y-79250000D03*
X58000000Y-79250000D03*
%TD*%
D12*
%TO.C,R6*%
X68825000Y-77000000D03*
X67000000Y-77000000D03*
%TD*%
D11*
%TO.C,D7*%
X95875000Y-79250000D03*
X94000000Y-79250000D03*
%TD*%
%TO.C,D5*%
X41875000Y-79250000D03*
X40000000Y-79250000D03*
%TD*%
%TO.C,D6*%
X68875000Y-79250000D03*
X67000000Y-79250000D03*
%TD*%
D10*
%TO.C,D4*%
X127500000Y-42125000D03*
X127500000Y-44000000D03*
%TD*%
D11*
%TO.C,D9*%
X77875000Y-79250000D03*
X76000000Y-79250000D03*
%TD*%
D13*
%TO.C,F1*%
X153225000Y-76000000D03*
X160000000Y-76000000D03*
%TD*%
D12*
%TO.C,R5*%
X41825000Y-77000000D03*
X40000000Y-77000000D03*
%TD*%
D14*
%TO.C,R1*%
X167500000Y-66500000D03*
X167500000Y-64675000D03*
%TD*%
D15*
%TO.C,R12*%
X103000000Y-65025000D03*
X103000000Y-66850000D03*
%TD*%
D12*
%TO.C,R8*%
X50825000Y-77000000D03*
X49000000Y-77000000D03*
%TD*%
D14*
%TO.C,R4*%
X127500000Y-47912500D03*
X127500000Y-46087500D03*
%TD*%
D10*
%TO.C,D1*%
X167500000Y-61125000D03*
X167500000Y-63000000D03*
%TD*%
D12*
%TO.C,R9*%
X77825000Y-77000000D03*
X76000000Y-77000000D03*
%TD*%
%TO.C,R7*%
X95825000Y-77000000D03*
X94000000Y-77000000D03*
%TD*%
D11*
%TO.C,D11*%
X86875000Y-79150000D03*
X85000000Y-79150000D03*
%TD*%
D14*
%TO.C,R2*%
X134250000Y-47825000D03*
X134250000Y-46000000D03*
%TD*%
D16*
%TO.C,D12*%
X103000000Y-70375000D03*
X103000000Y-68500000D03*
%TD*%
D11*
%TO.C,D8*%
X50875000Y-79250000D03*
X49000000Y-79250000D03*
%TD*%
D12*
%TO.C,R10*%
X59825000Y-77000000D03*
X58000000Y-77000000D03*
%TD*%
%TO.C,R11*%
X86825000Y-77000000D03*
X85000000Y-77000000D03*
%TD*%
M02*
