%TF.GenerationSoftware,KiCad,Pcbnew,8.0.5*%
%TF.CreationDate,2024-09-21T15:40:11-07:00*%
%TF.ProjectId,MRIRobot_PCB,4d524952-6f62-46f7-945f-5043422e6b69,rev?*%
%TF.SameCoordinates,Original*%
%TF.FileFunction,Paste,Bot*%
%TF.FilePolarity,Positive*%
%FSLAX46Y46*%
G04 Gerber Fmt 4.6, Leading zero omitted, Abs format (unit mm)*
G04 Created by KiCad (PCBNEW 8.0.5) date 2024-09-21 15:40:11*
%MOMM*%
%LPD*%
G01*
G04 APERTURE LIST*
G04 Aperture macros list*
%AMRoundRect*
0 Rectangle with rounded corners*
0 $1 Rounding radius*
0 $2 $3 $4 $5 $6 $7 $8 $9 X,Y pos of 4 corners*
0 Add a 4 corners polygon primitive as box body*
4,1,4,$2,$3,$4,$5,$6,$7,$8,$9,$2,$3,0*
0 Add four circle primitives for the rounded corners*
1,1,$1+$1,$2,$3*
1,1,$1+$1,$4,$5*
1,1,$1+$1,$6,$7*
1,1,$1+$1,$8,$9*
0 Add four rect primitives between the rounded corners*
20,1,$1+$1,$2,$3,$4,$5,0*
20,1,$1+$1,$4,$5,$6,$7,0*
20,1,$1+$1,$6,$7,$8,$9,0*
20,1,$1+$1,$8,$9,$2,$3,0*%
G04 Aperture macros list end*
%ADD10RoundRect,0.250000X-0.337500X-0.475000X0.337500X-0.475000X0.337500X0.475000X-0.337500X0.475000X0*%
%ADD11RoundRect,0.250000X0.337500X0.475000X-0.337500X0.475000X-0.337500X-0.475000X0.337500X-0.475000X0*%
%ADD12RoundRect,0.237500X0.237500X-0.300000X0.237500X0.300000X-0.237500X0.300000X-0.237500X-0.300000X0*%
%ADD13RoundRect,0.250000X0.475000X-0.337500X0.475000X0.337500X-0.475000X0.337500X-0.475000X-0.337500X0*%
%ADD14RoundRect,0.237500X0.250000X0.237500X-0.250000X0.237500X-0.250000X-0.237500X0.250000X-0.237500X0*%
G04 APERTURE END LIST*
D10*
%TO.C,R53*%
X120962500Y-140000000D03*
X123037500Y-140000000D03*
%TD*%
D11*
%TO.C,R73*%
X101537500Y-74000000D03*
X99462500Y-74000000D03*
%TD*%
D10*
%TO.C,R76*%
X60425000Y-82000000D03*
X62500000Y-82000000D03*
%TD*%
%TO.C,C7*%
X133425000Y-81500000D03*
X135500000Y-81500000D03*
%TD*%
D11*
%TO.C,R55*%
X169500000Y-74000000D03*
X167425000Y-74000000D03*
%TD*%
D12*
%TO.C,C1*%
X204000000Y-88862500D03*
X204000000Y-87137500D03*
%TD*%
D10*
%TO.C,C14*%
X95462500Y-74000000D03*
X97537500Y-74000000D03*
%TD*%
D11*
%TO.C,R61*%
X139575000Y-81500000D03*
X137500000Y-81500000D03*
%TD*%
D10*
%TO.C,R47*%
X120925000Y-95500000D03*
X123000000Y-95500000D03*
%TD*%
%TO.C,R60*%
X129425000Y-81500000D03*
X131500000Y-81500000D03*
%TD*%
D13*
%TO.C,R66*%
X95500000Y-86037500D03*
X95500000Y-83962500D03*
%TD*%
D14*
%TO.C,R13*%
X213162500Y-85500000D03*
X211337500Y-85500000D03*
%TD*%
D10*
%TO.C,C12*%
X133462500Y-74000000D03*
X135537500Y-74000000D03*
%TD*%
D11*
%TO.C,R77*%
X70575000Y-82000000D03*
X68500000Y-82000000D03*
%TD*%
D10*
%TO.C,C16*%
X66500000Y-74000000D03*
X68575000Y-74000000D03*
%TD*%
%TO.C,R64*%
X129462500Y-74000000D03*
X131537500Y-74000000D03*
%TD*%
%TO.C,R78*%
X62500000Y-74000000D03*
X64575000Y-74000000D03*
%TD*%
%TO.C,R52*%
X120925000Y-122500000D03*
X123000000Y-122500000D03*
%TD*%
%TO.C,C6*%
X163500000Y-74000000D03*
X165575000Y-74000000D03*
%TD*%
D14*
%TO.C,R14*%
X213412500Y-91250000D03*
X211587500Y-91250000D03*
%TD*%
D11*
%TO.C,R79*%
X72500000Y-74000000D03*
X70425000Y-74000000D03*
%TD*%
D10*
%TO.C,C13*%
X95462500Y-82000000D03*
X97537500Y-82000000D03*
%TD*%
%TO.C,R49*%
X120925000Y-131500000D03*
X123000000Y-131500000D03*
%TD*%
%TO.C,R48*%
X120925000Y-113500000D03*
X123000000Y-113500000D03*
%TD*%
D11*
%TO.C,R65*%
X139575000Y-74000000D03*
X137500000Y-74000000D03*
%TD*%
D10*
%TO.C,C15*%
X64387500Y-82000000D03*
X66462500Y-82000000D03*
%TD*%
D13*
%TO.C,R72*%
X94000000Y-78037500D03*
X94000000Y-75962500D03*
%TD*%
D10*
%TO.C,R51*%
X120925000Y-104500000D03*
X123000000Y-104500000D03*
%TD*%
%TO.C,R50*%
X120925000Y-149500000D03*
X123000000Y-149500000D03*
%TD*%
%TO.C,R54*%
X159500000Y-74000000D03*
X161575000Y-74000000D03*
%TD*%
D11*
%TO.C,R67*%
X101575000Y-82000000D03*
X99500000Y-82000000D03*
%TD*%
M02*
