%TF.GenerationSoftware,KiCad,Pcbnew,9.0.5-9.0.5~ubuntu24.04.1*%
%TF.CreationDate,2025-12-04T16:19:15-08:00*%
%TF.ProjectId,Motor_Joint_Splitter_V2,4d6f746f-725f-44a6-9f69-6e745f53706c,rev?*%
%TF.SameCoordinates,Original*%
%TF.FileFunction,Copper,L1,Top*%
%TF.FilePolarity,Positive*%
%FSLAX46Y46*%
G04 Gerber Fmt 4.6, Leading zero omitted, Abs format (unit mm)*
G04 Created by KiCad (PCBNEW 9.0.5-9.0.5~ubuntu24.04.1) date 2025-12-04 16:19:15*
%MOMM*%
%LPD*%
G01*
G04 APERTURE LIST*
G04 Aperture macros list*
%AMRoundRect*
0 Rectangle with rounded corners*
0 $1 Rounding radius*
0 $2 $3 $4 $5 $6 $7 $8 $9 X,Y pos of 4 corners*
0 Add a 4 corners polygon primitive as box body*
4,1,4,$2,$3,$4,$5,$6,$7,$8,$9,$2,$3,0*
0 Add four circle primitives for the rounded corners*
1,1,$1+$1,$2,$3*
1,1,$1+$1,$4,$5*
1,1,$1+$1,$6,$7*
1,1,$1+$1,$8,$9*
0 Add four rect primitives between the rounded corners*
20,1,$1+$1,$2,$3,$4,$5,0*
20,1,$1+$1,$4,$5,$6,$7,0*
20,1,$1+$1,$6,$7,$8,$9,0*
20,1,$1+$1,$8,$9,$2,$3,0*%
G04 Aperture macros list end*
%TA.AperFunction,SMDPad,CuDef*%
%ADD10RoundRect,0.112500X-0.187500X-0.112500X0.187500X-0.112500X0.187500X0.112500X-0.187500X0.112500X0*%
%TD*%
%TA.AperFunction,ComponentPad*%
%ADD11C,2.260600*%
%TD*%
%TA.AperFunction,ComponentPad*%
%ADD12R,1.700000X1.700000*%
%TD*%
%TA.AperFunction,ComponentPad*%
%ADD13C,1.700000*%
%TD*%
%TA.AperFunction,SMDPad,CuDef*%
%ADD14RoundRect,0.140000X-0.140000X-0.170000X0.140000X-0.170000X0.140000X0.170000X-0.140000X0.170000X0*%
%TD*%
%TA.AperFunction,ComponentPad*%
%ADD15C,3.600000*%
%TD*%
%TA.AperFunction,ConnectorPad*%
%ADD16C,5.600000*%
%TD*%
%TA.AperFunction,ComponentPad*%
%ADD17R,1.268000X1.268000*%
%TD*%
%TA.AperFunction,ComponentPad*%
%ADD18C,1.268000*%
%TD*%
%TA.AperFunction,SMDPad,CuDef*%
%ADD19R,1.422400X0.355600*%
%TD*%
%TA.AperFunction,ComponentPad*%
%ADD20R,1.458000X1.458000*%
%TD*%
%TA.AperFunction,ComponentPad*%
%ADD21C,1.458000*%
%TD*%
%TA.AperFunction,ConnectorPad*%
%ADD22C,5.700000*%
%TD*%
%TA.AperFunction,ViaPad*%
%ADD23C,0.600000*%
%TD*%
%TA.AperFunction,Conductor*%
%ADD24C,0.200000*%
%TD*%
%TA.AperFunction,Conductor*%
%ADD25C,0.500000*%
%TD*%
G04 APERTURE END LIST*
D10*
%TO.P,D4,1*%
%TO.N,GND*%
X187350000Y-84400000D03*
%TO.P,D4,2*%
%TO.N,+5V*%
X189450000Y-84400000D03*
%TD*%
D11*
%TO.P,J2,1,1*%
%TO.N,/Sin*%
X214899600Y-84294050D03*
%TO.P,J2,2,2*%
%TO.N,/Cos*%
X210939600Y-84294050D03*
%TO.P,J2,3,3*%
%TO.N,GND*%
X206979601Y-84294050D03*
%TD*%
D12*
%TO.P,J9,1,Pin_1*%
%TO.N,GND*%
X189520000Y-70585000D03*
D13*
%TO.P,J9,2,Pin_2*%
%TO.N,/SEA_I*%
X192060000Y-70585000D03*
%TO.P,J9,3,Pin_3*%
%TO.N,/SEA_A*%
X194600000Y-70585000D03*
%TO.P,J9,4,Pin_4*%
%TO.N,+5V*%
X197140000Y-70585000D03*
%TO.P,J9,5,Pin_5*%
%TO.N,/SEA_B*%
X199680000Y-70585000D03*
%TD*%
D14*
%TO.P,C1,1*%
%TO.N,GND*%
X209700000Y-70600000D03*
%TO.P,C1,2*%
%TO.N,+5V*%
X210700000Y-70600000D03*
%TD*%
D15*
%TO.P,H3,1,1*%
%TO.N,GND*%
X221500000Y-63500000D03*
D16*
X221500000Y-63500000D03*
%TD*%
D17*
%TO.P,J7,1*%
%TO.N,+5V*%
X191155000Y-90450000D03*
D18*
%TO.P,J7,2*%
%TO.N,/C_A_Out_2*%
X192425000Y-87910000D03*
%TO.P,J7,3*%
%TO.N,/C_B_Out_2*%
X193695000Y-90450000D03*
%TO.P,J7,4*%
%TO.N,/C_I_Out_2*%
X194965000Y-87910000D03*
%TO.P,J7,5*%
%TO.N,/SEA_I_Out_2*%
X196235000Y-90450000D03*
%TO.P,J7,6*%
%TO.N,/SEA_A_Out_2*%
X197505000Y-87910000D03*
%TO.P,J7,7*%
%TO.N,/SEA_B_Out_2*%
X198775000Y-90450000D03*
%TO.P,J7,8*%
%TO.N,GND*%
X200045000Y-87910000D03*
%TD*%
D15*
%TO.P,H1,1,1*%
%TO.N,GND*%
X183500000Y-101500000D03*
D16*
X183500000Y-101500000D03*
%TD*%
D19*
%TO.P,U2,1,~OE1*%
%TO.N,GND*%
X194755200Y-74279000D03*
%TO.P,U2,2,I0*%
%TO.N,/SEA_B*%
X194755200Y-74914000D03*
%TO.P,U2,3,O4*%
%TO.N,/C_I_Out*%
X194755200Y-75574400D03*
%TO.P,U2,4,I1*%
%TO.N,/SEA_A*%
X194755200Y-76234800D03*
%TO.P,U2,5,O5*%
%TO.N,/C_B_Out*%
X194755200Y-76869800D03*
%TO.P,U2,6,I2*%
%TO.N,/SEA_I*%
X194755200Y-77530200D03*
%TO.P,U2,7,O6*%
%TO.N,/C_A_Out*%
X194755200Y-78165200D03*
%TO.P,U2,8,I3*%
%TO.N,GND*%
X194755200Y-78825600D03*
%TO.P,U2,9,O7*%
X194755200Y-79486000D03*
%TO.P,U2,10,GND*%
X194755200Y-80121000D03*
%TO.P,U2,11,I7*%
X200444800Y-80121000D03*
%TO.P,U2,12,O3*%
X200444800Y-79486000D03*
%TO.P,U2,13,I6*%
%TO.N,/C_A*%
X200444800Y-78825600D03*
%TO.P,U2,14,O2*%
%TO.N,/SEA_I_Out*%
X200444800Y-78165200D03*
%TO.P,U2,15,I5*%
%TO.N,/C_B*%
X200444800Y-77530200D03*
%TO.P,U2,16,O1*%
%TO.N,/SEA_A_Out*%
X200444800Y-76869800D03*
%TO.P,U2,17,I4*%
%TO.N,/C_I*%
X200444800Y-76234800D03*
%TO.P,U2,18,O0*%
%TO.N,/SEA_B_Out*%
X200444800Y-75574400D03*
%TO.P,U2,19,~OE2*%
%TO.N,GND*%
X200444800Y-74914000D03*
%TO.P,U2,20,VCC*%
%TO.N,+5V*%
X200444800Y-74279000D03*
%TD*%
D14*
%TO.P,C2,1*%
%TO.N,+5V*%
X200500000Y-73200000D03*
%TO.P,C2,2*%
%TO.N,GND*%
X201500000Y-73200000D03*
%TD*%
D15*
%TO.P,H2,1,1*%
%TO.N,GND*%
X221500000Y-101500000D03*
D16*
X221500000Y-101500000D03*
%TD*%
D20*
%TO.P,J8,1,1*%
%TO.N,/Sin*%
X215462500Y-66350000D03*
D21*
%TO.P,J8,2,2*%
%TO.N,GND*%
X213962500Y-68350000D03*
%TO.P,J8,3,3*%
%TO.N,/Cos*%
X212462500Y-66350000D03*
%TO.P,J8,4,4*%
%TO.N,+5V*%
X210962500Y-68350000D03*
%TO.P,J8,5,5*%
%TO.N,GND*%
X209462500Y-66350000D03*
%TO.P,J8,6,6*%
%TO.N,/C_A*%
X207962500Y-68350000D03*
%TO.P,J8,7,7*%
%TO.N,/C_B*%
X206462500Y-66350000D03*
%TO.P,J8,8,8*%
%TO.N,/C_I*%
X204962500Y-68350000D03*
%TD*%
D15*
%TO.P,H4,1,1*%
%TO.N,GND*%
X183500000Y-63500000D03*
D22*
X183500000Y-63500000D03*
%TD*%
D23*
%TO.N,GND*%
X214000000Y-70400000D03*
X202600000Y-70200000D03*
X209600000Y-81000000D03*
X209600000Y-75800000D03*
X214000000Y-75800000D03*
X214000000Y-81000000D03*
X221400000Y-96800000D03*
X202000000Y-63600000D03*
X183800000Y-75800000D03*
X183800000Y-81200000D03*
X183600000Y-70400000D03*
X204000000Y-86400000D03*
X221400000Y-91600000D03*
X221400000Y-86400000D03*
X191000000Y-75800000D03*
X198400000Y-76200000D03*
X183800000Y-91400000D03*
X204000000Y-91200000D03*
X221400000Y-81200000D03*
X183800000Y-86200000D03*
X183800000Y-96600000D03*
X185800000Y-84400000D03*
X204000000Y-101800000D03*
X221400000Y-70400000D03*
X221400000Y-75800000D03*
%TO.N,+5V*%
X190400000Y-76600000D03*
X205400000Y-77600000D03*
X197600000Y-84400000D03*
%TO.N,/SEA_B_Out*%
X199000000Y-75600000D03*
%TO.N,/C_I_Out*%
X196200000Y-75600000D03*
%TO.N,/C_B_Out*%
X196200000Y-76800000D03*
%TO.N,/C_A_Out*%
X196200000Y-78200000D03*
%TO.N,/SEA_I_Out*%
X199000000Y-78200000D03*
%TO.N,/SEA_A_Out*%
X199000000Y-76800000D03*
%TD*%
D24*
%TO.N,GND*%
X198400000Y-76200000D02*
X198400000Y-75350057D01*
X196801000Y-78599000D02*
X196574400Y-78825600D01*
X196574400Y-78825600D02*
X194755200Y-78825600D01*
X206035860Y-65320000D02*
X208432500Y-65320000D01*
X202000000Y-73200000D02*
X202535000Y-73735000D01*
X209700000Y-66587500D02*
X209462500Y-66350000D01*
X194755200Y-79555200D02*
X191000000Y-75800000D01*
X209700000Y-70600000D02*
X209700000Y-66587500D01*
X198400000Y-78609600D02*
X198400000Y-76200000D01*
X195728943Y-74279000D02*
X196801000Y-75351057D01*
X203932500Y-67423360D02*
X206035860Y-65320000D01*
X196801000Y-75351057D02*
X196801000Y-78599000D01*
X194755200Y-80121000D02*
X194755200Y-79555200D01*
X200444800Y-80121000D02*
X199911400Y-80121000D01*
X203932500Y-72337500D02*
X203932500Y-67423360D01*
X189520000Y-74320000D02*
X189520000Y-70585000D01*
X202535000Y-73735000D02*
X203932500Y-72337500D01*
X198836057Y-74914000D02*
X200444800Y-74914000D01*
X201500000Y-73200000D02*
X202000000Y-73200000D01*
X194755200Y-74279000D02*
X195728943Y-74279000D01*
X187350000Y-84400000D02*
X185800000Y-84400000D01*
X199911400Y-80121000D02*
X198400000Y-78609600D01*
X198400000Y-75350057D02*
X198836057Y-74914000D01*
X191000000Y-75800000D02*
X189520000Y-74320000D01*
X208432500Y-65320000D02*
X209462500Y-66350000D01*
X200444800Y-79486000D02*
X200444800Y-80121000D01*
X201356000Y-74914000D02*
X202535000Y-73735000D01*
X194755200Y-78825600D02*
X194755200Y-80121000D01*
X200444800Y-74914000D02*
X201356000Y-74914000D01*
%TO.N,/C_I*%
X201356000Y-76234800D02*
X200444800Y-76234800D01*
X204962500Y-72628300D02*
X201356000Y-76234800D01*
X204962500Y-68350000D02*
X204962500Y-72628300D01*
%TO.N,/C_A*%
X201356000Y-78825600D02*
X200444800Y-78825600D01*
X207962500Y-72219100D02*
X201356000Y-78825600D01*
X207962500Y-68350000D02*
X207962500Y-72219100D01*
%TO.N,+5V*%
X205400000Y-76400000D02*
X210700000Y-71100000D01*
X200831000Y-71203181D02*
X200831000Y-70108240D01*
X191155000Y-90450000D02*
X191155000Y-84400000D01*
X210700000Y-71100000D02*
X210700000Y-70600000D01*
X191155000Y-84200000D02*
X191155000Y-77355000D01*
X197600000Y-74434181D02*
X197755181Y-74279000D01*
X191155000Y-77355000D02*
X190400000Y-76600000D01*
X197755181Y-74279000D02*
X200831000Y-71203181D01*
X210962500Y-70337500D02*
X210700000Y-70600000D01*
X204400000Y-77600000D02*
X205400000Y-77600000D01*
X197600000Y-84400000D02*
X197600000Y-74434181D01*
X200831000Y-70108240D02*
X200156760Y-69434000D01*
X200500000Y-73200000D02*
X200500000Y-74223800D01*
X189450000Y-84400000D02*
X191155000Y-84400000D01*
X198291000Y-69434000D02*
X197140000Y-70585000D01*
X210962500Y-68350000D02*
X210962500Y-70337500D01*
X191155000Y-84400000D02*
X191155000Y-84200000D01*
X200444800Y-74279000D02*
X197755181Y-74279000D01*
X200156760Y-69434000D02*
X198291000Y-69434000D01*
X191155000Y-90450000D02*
X191350000Y-90450000D01*
X200500000Y-74223800D02*
X200444800Y-74279000D01*
X205400000Y-77600000D02*
X205400000Y-76400000D01*
X197600000Y-84400000D02*
X204400000Y-77600000D01*
X191155000Y-84400000D02*
X197600000Y-84400000D01*
%TO.N,/C_B*%
X206462500Y-66350000D02*
X206462500Y-72537500D01*
X206462500Y-72537500D02*
X201469800Y-77530200D01*
X201469800Y-77530200D02*
X200444800Y-77530200D01*
D25*
%TO.N,/Sin*%
X215462500Y-83731150D02*
X214899600Y-84294050D01*
X215462500Y-66350000D02*
X215462500Y-83731150D01*
%TO.N,/Cos*%
X212462500Y-82771150D02*
X210939600Y-84294050D01*
X212462500Y-66350000D02*
X212462500Y-82771150D01*
D24*
%TO.N,/SEA_A*%
X192999000Y-75389800D02*
X193844000Y-76234800D01*
X192999000Y-72186000D02*
X192999000Y-75389800D01*
X193844000Y-76234800D02*
X194755200Y-76234800D01*
X194600000Y-70585000D02*
X192999000Y-72186000D01*
%TO.N,/SEA_I*%
X192060000Y-75746200D02*
X193844000Y-77530200D01*
X192060000Y-70585000D02*
X192060000Y-75746200D01*
X193844000Y-77530200D02*
X194755200Y-77530200D01*
%TO.N,/SEA_B*%
X193400000Y-74470000D02*
X193844000Y-74914000D01*
X199680000Y-71787081D02*
X198267081Y-73200000D01*
X193400000Y-73200000D02*
X193400000Y-74470000D01*
X199680000Y-70585000D02*
X199680000Y-71787081D01*
X193844000Y-74914000D02*
X194755200Y-74914000D01*
X198267081Y-73200000D02*
X193400000Y-73200000D01*
%TO.N,/SEA_B_Out*%
X199025600Y-75574400D02*
X199000000Y-75600000D01*
X200444800Y-75574400D02*
X199025600Y-75574400D01*
%TO.N,/C_I_Out*%
X196174400Y-75574400D02*
X196200000Y-75600000D01*
X194755200Y-75574400D02*
X196174400Y-75574400D01*
%TO.N,/C_B_Out*%
X196130200Y-76869800D02*
X196200000Y-76800000D01*
X194755200Y-76869800D02*
X196130200Y-76869800D01*
%TO.N,/C_A_Out*%
X196165200Y-78165200D02*
X196200000Y-78200000D01*
X194755200Y-78165200D02*
X196165200Y-78165200D01*
%TO.N,/SEA_I_Out*%
X199034800Y-78165200D02*
X199000000Y-78200000D01*
X200444800Y-78165200D02*
X199034800Y-78165200D01*
%TO.N,/SEA_A_Out*%
X199069800Y-76869800D02*
X199000000Y-76800000D01*
X200444800Y-76869800D02*
X199069800Y-76869800D01*
%TD*%
%TA.AperFunction,Conductor*%
%TO.N,GND*%
G36*
X198405703Y-78738228D02*
G01*
X198412181Y-78744260D01*
X198489707Y-78821786D01*
X198489711Y-78821789D01*
X198620814Y-78909390D01*
X198620827Y-78909397D01*
X198740130Y-78958813D01*
X198766503Y-78969737D01*
X198908464Y-78997975D01*
X198921153Y-79000499D01*
X198921156Y-79000500D01*
X198921158Y-79000500D01*
X199078842Y-79000500D01*
X199091534Y-78997975D01*
X199098764Y-78998621D01*
X199105538Y-78996011D01*
X199133098Y-79001692D01*
X199161124Y-79004199D01*
X199166856Y-79008651D01*
X199173969Y-79010118D01*
X199194081Y-79029797D01*
X199216304Y-79047058D01*
X199219944Y-79055104D01*
X199223909Y-79058983D01*
X199229193Y-79075542D01*
X199236602Y-79091916D01*
X199238238Y-79099062D01*
X199239509Y-79110883D01*
X199243227Y-79120852D01*
X199245056Y-79128839D01*
X199243418Y-79155870D01*
X199245349Y-79182876D01*
X199240855Y-79198184D01*
X199240831Y-79198581D01*
X199240676Y-79198791D01*
X199240369Y-79199840D01*
X199240001Y-79200824D01*
X199233600Y-79260355D01*
X199233600Y-79308200D01*
X199274499Y-79308200D01*
X199341538Y-79327885D01*
X199352293Y-79335638D01*
X199364425Y-79345412D01*
X199376054Y-79360946D01*
X199484148Y-79441865D01*
X199485852Y-79443238D01*
X199504571Y-79470192D01*
X199524240Y-79496467D01*
X199524403Y-79498748D01*
X199525707Y-79500626D01*
X199526882Y-79533417D01*
X199529224Y-79566159D01*
X199528128Y-79568165D01*
X199528210Y-79570450D01*
X199511470Y-79598671D01*
X199495739Y-79627482D01*
X199493732Y-79628577D01*
X199492566Y-79630544D01*
X199463215Y-79645240D01*
X199434415Y-79660966D01*
X199431097Y-79661322D01*
X199430090Y-79661827D01*
X199428247Y-79661629D01*
X199408058Y-79663800D01*
X199233600Y-79663800D01*
X199233600Y-79711644D01*
X199240002Y-79771177D01*
X199240903Y-79774991D01*
X199240903Y-79832009D01*
X199240002Y-79835822D01*
X199233600Y-79895355D01*
X199233600Y-79943200D01*
X200320800Y-79943200D01*
X200329485Y-79945750D01*
X200338447Y-79944462D01*
X200362487Y-79955440D01*
X200387839Y-79962885D01*
X200393766Y-79969725D01*
X200402003Y-79973487D01*
X200416292Y-79995721D01*
X200433594Y-80015689D01*
X200435881Y-80026203D01*
X200439777Y-80032265D01*
X200444800Y-80067200D01*
X200444800Y-80174800D01*
X200425115Y-80241839D01*
X200372311Y-80287594D01*
X200320800Y-80298800D01*
X199233600Y-80298800D01*
X199233600Y-80346644D01*
X199240001Y-80406172D01*
X199240003Y-80406179D01*
X199290245Y-80540886D01*
X199290249Y-80540893D01*
X199376409Y-80655987D01*
X199376412Y-80655990D01*
X199491506Y-80742150D01*
X199491513Y-80742154D01*
X199626220Y-80792396D01*
X199626227Y-80792398D01*
X199685755Y-80798799D01*
X199685772Y-80798800D01*
X200052603Y-80798800D01*
X200119642Y-80818485D01*
X200165397Y-80871289D01*
X200175341Y-80940447D01*
X200146316Y-81004003D01*
X200140284Y-81010481D01*
X198412181Y-82738584D01*
X198350858Y-82772069D01*
X198281166Y-82767085D01*
X198225233Y-82725213D01*
X198200816Y-82659749D01*
X198200500Y-82650903D01*
X198200500Y-78831941D01*
X198220185Y-78764902D01*
X198272989Y-78719147D01*
X198342147Y-78709203D01*
X198405703Y-78738228D01*
G37*
%TD.AperFunction*%
%TA.AperFunction,Conductor*%
G36*
X197098077Y-73804315D02*
G01*
X197111589Y-73803366D01*
X197130947Y-73813967D01*
X197152122Y-73820185D01*
X197160990Y-73830419D01*
X197172871Y-73836926D01*
X197183425Y-73856310D01*
X197197877Y-73872989D01*
X197199804Y-73886394D01*
X197206281Y-73898290D01*
X197204679Y-73920301D01*
X197207821Y-73942147D01*
X197202194Y-73954467D01*
X197201212Y-73967976D01*
X197184259Y-73998932D01*
X197178982Y-74005962D01*
X197119480Y-74065465D01*
X197073710Y-74144742D01*
X197069983Y-74151196D01*
X197069980Y-74151201D01*
X197040423Y-74202395D01*
X197040423Y-74202396D01*
X196999499Y-74355124D01*
X196999499Y-74355126D01*
X196999499Y-74523227D01*
X196999500Y-74523240D01*
X196999500Y-74968059D01*
X196979815Y-75035098D01*
X196927011Y-75080853D01*
X196857853Y-75090797D01*
X196794297Y-75061772D01*
X196787819Y-75055740D01*
X196710292Y-74978213D01*
X196710288Y-74978210D01*
X196579185Y-74890609D01*
X196579172Y-74890602D01*
X196433501Y-74830264D01*
X196433489Y-74830261D01*
X196278845Y-74799500D01*
X196278842Y-74799500D01*
X196121158Y-74799500D01*
X196121156Y-74799500D01*
X196114769Y-74800770D01*
X196101380Y-74799571D01*
X196088420Y-74803132D01*
X196067259Y-74796515D01*
X196045178Y-74794538D01*
X196034563Y-74786291D01*
X196021734Y-74782280D01*
X196007509Y-74765273D01*
X195990003Y-74751672D01*
X195984552Y-74737824D01*
X195976908Y-74728685D01*
X195970840Y-74702991D01*
X195967558Y-74694652D01*
X195966899Y-74689421D01*
X195966899Y-74688328D01*
X195960491Y-74628717D01*
X195958617Y-74623694D01*
X195957006Y-74610903D01*
X195959358Y-74596349D01*
X195959358Y-74571908D01*
X195959169Y-74571888D01*
X195959358Y-74570121D01*
X195959359Y-74566875D01*
X195959999Y-74564167D01*
X195966399Y-74504644D01*
X195966400Y-74504627D01*
X195966400Y-74456800D01*
X195944515Y-74456800D01*
X195877476Y-74437115D01*
X195861213Y-74424652D01*
X195852389Y-74416650D01*
X195823946Y-74378654D01*
X195746889Y-74320969D01*
X195742570Y-74317052D01*
X195727272Y-74292020D01*
X195709690Y-74268533D01*
X195709262Y-74262550D01*
X195706135Y-74257434D01*
X195706798Y-74228105D01*
X195704706Y-74198841D01*
X195707580Y-74193577D01*
X195707716Y-74187582D01*
X195724129Y-74163268D01*
X195738191Y-74137518D01*
X195743454Y-74134643D01*
X195746810Y-74129674D01*
X195773767Y-74118092D01*
X195799515Y-74104034D01*
X195808820Y-74103033D01*
X195811007Y-74102094D01*
X195813573Y-74102522D01*
X195825872Y-74101200D01*
X195966400Y-74101200D01*
X195966400Y-74053372D01*
X195966399Y-74053355D01*
X195959998Y-73993827D01*
X195959997Y-73993823D01*
X195950304Y-73967834D01*
X195945320Y-73898142D01*
X195978805Y-73836819D01*
X196040128Y-73803334D01*
X196066486Y-73800500D01*
X197085083Y-73800500D01*
X197098077Y-73804315D01*
G37*
%TD.AperFunction*%
%TA.AperFunction,Conductor*%
G36*
X209810250Y-67545958D02*
G01*
X209823706Y-67545572D01*
X209842676Y-67557007D01*
X209863644Y-67564153D01*
X209872015Y-67574694D01*
X209883544Y-67581644D01*
X209893320Y-67601521D01*
X209907096Y-67618868D01*
X209908439Y-67632262D01*
X209914380Y-67644341D01*
X209911858Y-67666346D01*
X209914069Y-67688388D01*
X209906932Y-67709329D01*
X209906425Y-67713757D01*
X209902684Y-67721796D01*
X209823080Y-67878028D01*
X209793792Y-67968165D01*
X209763274Y-68062091D01*
X209763273Y-68062094D01*
X209763273Y-68062096D01*
X209733000Y-68253230D01*
X209733000Y-68446769D01*
X209763273Y-68637903D01*
X209763274Y-68637909D01*
X209823078Y-68821964D01*
X209890088Y-68953481D01*
X209910938Y-68994400D01*
X209910939Y-68994403D01*
X209958231Y-69059494D01*
X210024690Y-69150966D01*
X210161534Y-69287810D01*
X210259884Y-69359266D01*
X210310885Y-69396320D01*
X210314225Y-69400651D01*
X210319203Y-69402925D01*
X210335335Y-69428027D01*
X210353551Y-69451650D01*
X210354803Y-69458321D01*
X210356977Y-69461703D01*
X210362000Y-69496638D01*
X210362000Y-69732243D01*
X210342315Y-69799282D01*
X210301121Y-69838975D01*
X210272023Y-69856183D01*
X210262629Y-69861739D01*
X210194905Y-69878920D01*
X210136388Y-69861738D01*
X210096193Y-69837967D01*
X210096190Y-69837965D01*
X209950001Y-69795493D01*
X209950000Y-69795494D01*
X209950000Y-70216213D01*
X209945076Y-70250809D01*
X209922357Y-70329005D01*
X209922356Y-70329008D01*
X209919500Y-70365302D01*
X209919500Y-70476000D01*
X209899815Y-70543039D01*
X209847011Y-70588794D01*
X209795500Y-70600000D01*
X209700000Y-70600000D01*
X209700000Y-70726000D01*
X209680315Y-70793039D01*
X209627511Y-70838794D01*
X209576000Y-70850000D01*
X208921210Y-70850000D01*
X208922854Y-70870910D01*
X208967968Y-71026195D01*
X209050278Y-71165374D01*
X209050285Y-71165383D01*
X209164616Y-71279714D01*
X209164625Y-71279721D01*
X209303803Y-71362030D01*
X209323237Y-71367676D01*
X209382124Y-71405281D01*
X209411332Y-71468752D01*
X209401589Y-71537939D01*
X209376327Y-71574435D01*
X208774681Y-72176082D01*
X208713358Y-72209567D01*
X208643667Y-72204583D01*
X208587733Y-72162712D01*
X208563316Y-72097247D01*
X208563000Y-72088401D01*
X208563000Y-70349999D01*
X208921209Y-70349999D01*
X208921210Y-70350000D01*
X209450000Y-70350000D01*
X209450000Y-69795494D01*
X209449998Y-69795493D01*
X209303809Y-69837965D01*
X209303806Y-69837967D01*
X209164625Y-69920278D01*
X209164616Y-69920285D01*
X209050285Y-70034616D01*
X209050278Y-70034625D01*
X208967968Y-70173804D01*
X208967966Y-70173809D01*
X208922855Y-70329081D01*
X208922854Y-70329087D01*
X208921209Y-70349999D01*
X208563000Y-70349999D01*
X208563000Y-69496638D01*
X208582685Y-69429599D01*
X208614115Y-69396320D01*
X208639593Y-69377809D01*
X208763466Y-69287810D01*
X208900310Y-69150966D01*
X209014063Y-68994399D01*
X209101922Y-68821964D01*
X209161726Y-68637909D01*
X209178287Y-68533343D01*
X209192000Y-68446769D01*
X209192000Y-68253230D01*
X209175486Y-68148975D01*
X209161726Y-68062091D01*
X209101922Y-67878036D01*
X209101920Y-67878033D01*
X209101919Y-67878028D01*
X209022315Y-67721796D01*
X209009419Y-67653127D01*
X209035696Y-67588387D01*
X209092802Y-67548130D01*
X209162608Y-67545138D01*
X209171129Y-67547575D01*
X209174706Y-67548737D01*
X209365771Y-67579000D01*
X209559229Y-67579000D01*
X209750290Y-67548738D01*
X209753866Y-67547576D01*
X209776008Y-67546940D01*
X209797509Y-67541616D01*
X209810250Y-67545958D01*
G37*
%TD.AperFunction*%
%TA.AperFunction,Conductor*%
G36*
X224442539Y-60520185D02*
G01*
X224488294Y-60572989D01*
X224499500Y-60624500D01*
X224499500Y-104375500D01*
X224479815Y-104442539D01*
X224427011Y-104488294D01*
X224375500Y-104499500D01*
X180624500Y-104499500D01*
X180557461Y-104479815D01*
X180511706Y-104427011D01*
X180500500Y-104375500D01*
X180500500Y-96678711D01*
X188034500Y-96678711D01*
X188034500Y-96921288D01*
X188066161Y-97161785D01*
X188128947Y-97396104D01*
X188221773Y-97620205D01*
X188221776Y-97620212D01*
X188343064Y-97830289D01*
X188343066Y-97830292D01*
X188343067Y-97830293D01*
X188490733Y-98022736D01*
X188490739Y-98022743D01*
X188662256Y-98194260D01*
X188662262Y-98194265D01*
X188854711Y-98341936D01*
X189064788Y-98463224D01*
X189288900Y-98556054D01*
X189523211Y-98618838D01*
X189703586Y-98642584D01*
X189763711Y-98650500D01*
X189763712Y-98650500D01*
X190006289Y-98650500D01*
X190054388Y-98644167D01*
X190246789Y-98618838D01*
X190481100Y-98556054D01*
X190705212Y-98463224D01*
X190915289Y-98341936D01*
X191107738Y-98194265D01*
X191279265Y-98022738D01*
X191426936Y-97830289D01*
X191548224Y-97620212D01*
X191641054Y-97396100D01*
X191703838Y-97161789D01*
X191735500Y-96921288D01*
X191735500Y-96678712D01*
X191735500Y-96678711D01*
X199464500Y-96678711D01*
X199464500Y-96921288D01*
X199496161Y-97161785D01*
X199558947Y-97396104D01*
X199651773Y-97620205D01*
X199651776Y-97620212D01*
X199773064Y-97830289D01*
X199773066Y-97830292D01*
X199773067Y-97830293D01*
X199920733Y-98022736D01*
X199920739Y-98022743D01*
X200092256Y-98194260D01*
X200092262Y-98194265D01*
X200284711Y-98341936D01*
X200494788Y-98463224D01*
X200718900Y-98556054D01*
X200953211Y-98618838D01*
X201133586Y-98642584D01*
X201193711Y-98650500D01*
X201193712Y-98650500D01*
X201436289Y-98650500D01*
X201484388Y-98644167D01*
X201676789Y-98618838D01*
X201911100Y-98556054D01*
X202135212Y-98463224D01*
X202345289Y-98341936D01*
X202537738Y-98194265D01*
X202709265Y-98022738D01*
X202856936Y-97830289D01*
X202978224Y-97620212D01*
X203071054Y-97396100D01*
X203133838Y-97161789D01*
X203165500Y-96921288D01*
X203165500Y-96678712D01*
X203133838Y-96438211D01*
X203071054Y-96203900D01*
X202978224Y-95979788D01*
X202856936Y-95769711D01*
X202709265Y-95577262D01*
X202709260Y-95577256D01*
X202537743Y-95405739D01*
X202537736Y-95405733D01*
X202345293Y-95258067D01*
X202345292Y-95258066D01*
X202345289Y-95258064D01*
X202135212Y-95136776D01*
X202135205Y-95136773D01*
X201911104Y-95043947D01*
X201676785Y-94981161D01*
X201436289Y-94949500D01*
X201436288Y-94949500D01*
X201193712Y-94949500D01*
X201193711Y-94949500D01*
X200953214Y-94981161D01*
X200718895Y-95043947D01*
X200494794Y-95136773D01*
X200494785Y-95136777D01*
X200284706Y-95258067D01*
X200092263Y-95405733D01*
X200092256Y-95405739D01*
X199920739Y-95577256D01*
X199920733Y-95577263D01*
X199773067Y-95769706D01*
X199651777Y-95979785D01*
X199651773Y-95979794D01*
X199558947Y-96203895D01*
X199496161Y-96438214D01*
X199464500Y-96678711D01*
X191735500Y-96678711D01*
X191703838Y-96438211D01*
X191641054Y-96203900D01*
X191548224Y-95979788D01*
X191426936Y-95769711D01*
X191279265Y-95577262D01*
X191279260Y-95577256D01*
X191107743Y-95405739D01*
X191107736Y-95405733D01*
X190915293Y-95258067D01*
X190915292Y-95258066D01*
X190915289Y-95258064D01*
X190705212Y-95136776D01*
X190705205Y-95136773D01*
X190481104Y-95043947D01*
X190246785Y-94981161D01*
X190006289Y-94949500D01*
X190006288Y-94949500D01*
X189763712Y-94949500D01*
X189763711Y-94949500D01*
X189523214Y-94981161D01*
X189288895Y-95043947D01*
X189064794Y-95136773D01*
X189064785Y-95136777D01*
X188854706Y-95258067D01*
X188662263Y-95405733D01*
X188662256Y-95405739D01*
X188490739Y-95577256D01*
X188490733Y-95577263D01*
X188343067Y-95769706D01*
X188221777Y-95979785D01*
X188221773Y-95979794D01*
X188128947Y-96203895D01*
X188066161Y-96438214D01*
X188034500Y-96678711D01*
X180500500Y-96678711D01*
X180500500Y-84625001D01*
X186557358Y-84625001D01*
X186595906Y-84757681D01*
X186595907Y-84757684D01*
X186674682Y-84890885D01*
X186674688Y-84890894D01*
X186784105Y-85000311D01*
X186784114Y-85000317D01*
X186917315Y-85079092D01*
X186917318Y-85079093D01*
X187065915Y-85122265D01*
X187065927Y-85122267D01*
X187100646Y-85124999D01*
X187575000Y-85124999D01*
X187599342Y-85124999D01*
X187599363Y-85124998D01*
X187634078Y-85122266D01*
X187782681Y-85079093D01*
X187782684Y-85079092D01*
X187915885Y-85000317D01*
X187915894Y-85000311D01*
X188025311Y-84890894D01*
X188025317Y-84890885D01*
X188104092Y-84757684D01*
X188104093Y-84757681D01*
X188142641Y-84625001D01*
X188142640Y-84625000D01*
X187575000Y-84625000D01*
X187575000Y-85124999D01*
X187100646Y-85124999D01*
X187125000Y-85124998D01*
X187125000Y-84625000D01*
X186557360Y-84625000D01*
X186557358Y-84625001D01*
X180500500Y-84625001D01*
X180500500Y-84174998D01*
X186557358Y-84174998D01*
X186557360Y-84175000D01*
X187125000Y-84175000D01*
X187575000Y-84175000D01*
X188142641Y-84175000D01*
X188142641Y-84174999D01*
X188104093Y-84042318D01*
X188104092Y-84042315D01*
X188025317Y-83909114D01*
X188025311Y-83909105D01*
X187915894Y-83799688D01*
X187915885Y-83799682D01*
X187782684Y-83720907D01*
X187782681Y-83720906D01*
X187634084Y-83677734D01*
X187634073Y-83677732D01*
X187599359Y-83675000D01*
X187575000Y-83675000D01*
X187575000Y-84175000D01*
X187125000Y-84175000D01*
X187125000Y-83674999D01*
X187100647Y-83675000D01*
X187065921Y-83677733D01*
X186917318Y-83720906D01*
X186917315Y-83720907D01*
X186784114Y-83799682D01*
X186784105Y-83799688D01*
X186674688Y-83909105D01*
X186674682Y-83909114D01*
X186595907Y-84042315D01*
X186595906Y-84042318D01*
X186557358Y-84174998D01*
X180500500Y-84174998D01*
X180500500Y-69687155D01*
X188170000Y-69687155D01*
X188170000Y-70335000D01*
X189086988Y-70335000D01*
X189054075Y-70392007D01*
X189020000Y-70519174D01*
X189020000Y-70650826D01*
X189054075Y-70777993D01*
X189086988Y-70835000D01*
X188170000Y-70835000D01*
X188170000Y-71482844D01*
X188176401Y-71542372D01*
X188176403Y-71542379D01*
X188226645Y-71677086D01*
X188226649Y-71677093D01*
X188312809Y-71792187D01*
X188312812Y-71792190D01*
X188427906Y-71878350D01*
X188427913Y-71878354D01*
X188562620Y-71928596D01*
X188562627Y-71928598D01*
X188622155Y-71934999D01*
X188622172Y-71935000D01*
X189270000Y-71935000D01*
X189270000Y-71018012D01*
X189327007Y-71050925D01*
X189454174Y-71085000D01*
X189585826Y-71085000D01*
X189712993Y-71050925D01*
X189770000Y-71018012D01*
X189770000Y-71935000D01*
X190417828Y-71935000D01*
X190417844Y-71934999D01*
X190477372Y-71928598D01*
X190477379Y-71928596D01*
X190612086Y-71878354D01*
X190612093Y-71878350D01*
X190727187Y-71792190D01*
X190727190Y-71792187D01*
X190813350Y-71677093D01*
X190813354Y-71677086D01*
X190862422Y-71545529D01*
X190904293Y-71489595D01*
X190969757Y-71465178D01*
X191038030Y-71480030D01*
X191066285Y-71501181D01*
X191180213Y-71615109D01*
X191352184Y-71740051D01*
X191352184Y-71740052D01*
X191391793Y-71760233D01*
X191442590Y-71808206D01*
X191459500Y-71870718D01*
X191459500Y-75659530D01*
X191459499Y-75659548D01*
X191459499Y-75825254D01*
X191459498Y-75825254D01*
X191461707Y-75833497D01*
X191500423Y-75977985D01*
X191504716Y-75985421D01*
X191514874Y-76003016D01*
X191514875Y-76003017D01*
X191579475Y-76114909D01*
X191579481Y-76114917D01*
X191698349Y-76233785D01*
X191698355Y-76233790D01*
X193363478Y-77898913D01*
X193363480Y-77898916D01*
X193475284Y-78010720D01*
X193494006Y-78021529D01*
X193504520Y-78031432D01*
X193515170Y-78049621D01*
X193529715Y-78064875D01*
X193533685Y-78081243D01*
X193539824Y-78091726D01*
X193539298Y-78104378D01*
X193543500Y-78121696D01*
X193543500Y-78390869D01*
X193543501Y-78390876D01*
X193549908Y-78450483D01*
X193550767Y-78452784D01*
X193550903Y-78454692D01*
X193551692Y-78458029D01*
X193551151Y-78458156D01*
X193555749Y-78522476D01*
X193550769Y-78539440D01*
X193550401Y-78540424D01*
X193544000Y-78599955D01*
X193544000Y-78647800D01*
X193584899Y-78647800D01*
X193651938Y-78667485D01*
X193662693Y-78675238D01*
X193674825Y-78685012D01*
X193686454Y-78700546D01*
X193794548Y-78781465D01*
X193796252Y-78782838D01*
X193814971Y-78809792D01*
X193834640Y-78836067D01*
X193834803Y-78838348D01*
X193836107Y-78840226D01*
X193837282Y-78873017D01*
X193839624Y-78905759D01*
X193838528Y-78907765D01*
X193838610Y-78910050D01*
X193821870Y-78938271D01*
X193806139Y-78967082D01*
X193804132Y-78968177D01*
X193802966Y-78970144D01*
X193773615Y-78984840D01*
X193744815Y-79000566D01*
X193741497Y-79000922D01*
X193740490Y-79001427D01*
X193738647Y-79001229D01*
X193718458Y-79003400D01*
X193544000Y-79003400D01*
X193544000Y-79051244D01*
X193550401Y-79110775D01*
X193550402Y-79110777D01*
X193551036Y-79112477D01*
X193551136Y-79113885D01*
X193552186Y-79118327D01*
X193551466Y-79118497D01*
X193556014Y-79182169D01*
X193551036Y-79199123D01*
X193550402Y-79200822D01*
X193550401Y-79200824D01*
X193544000Y-79260355D01*
X193544000Y-79308200D01*
X194577400Y-79308200D01*
X194577400Y-78967499D01*
X194579950Y-78958813D01*
X194578662Y-78949852D01*
X194589640Y-78925811D01*
X194597085Y-78900460D01*
X194603925Y-78894532D01*
X194607687Y-78886296D01*
X194629921Y-78872006D01*
X194649889Y-78854705D01*
X194660403Y-78852417D01*
X194666465Y-78848522D01*
X194701396Y-78843499D01*
X194809001Y-78843499D01*
X194876039Y-78863184D01*
X194921794Y-78915988D01*
X194933000Y-78967499D01*
X194933000Y-79308200D01*
X195966400Y-79308200D01*
X195966400Y-79260372D01*
X195966399Y-79260355D01*
X195959998Y-79200827D01*
X195959997Y-79200824D01*
X195959369Y-79199139D01*
X195959268Y-79197738D01*
X195958213Y-79193270D01*
X195958936Y-79193098D01*
X195958059Y-79180832D01*
X195951793Y-79163581D01*
X195955186Y-79140685D01*
X195954382Y-79129447D01*
X195954614Y-79128400D01*
X195962840Y-79092093D01*
X195976489Y-79067598D01*
X195987223Y-79041687D01*
X195993269Y-79037489D01*
X195996852Y-79031060D01*
X196021582Y-79017830D01*
X196044616Y-79001839D01*
X196052387Y-79001352D01*
X196058461Y-78998104D01*
X196078561Y-78999715D01*
X196107967Y-78997876D01*
X196121158Y-79000500D01*
X196121160Y-79000500D01*
X196278844Y-79000500D01*
X196278845Y-79000499D01*
X196433497Y-78969737D01*
X196579179Y-78909394D01*
X196710289Y-78821789D01*
X196745282Y-78786796D01*
X196787819Y-78744260D01*
X196849142Y-78710775D01*
X196918834Y-78715759D01*
X196974767Y-78757631D01*
X196999184Y-78823095D01*
X196999500Y-78831941D01*
X196999500Y-83675500D01*
X196979815Y-83742539D01*
X196927011Y-83788294D01*
X196875500Y-83799500D01*
X191879500Y-83799500D01*
X191812461Y-83779815D01*
X191766706Y-83727011D01*
X191755500Y-83675500D01*
X191755500Y-80346644D01*
X193544000Y-80346644D01*
X193550401Y-80406172D01*
X193550403Y-80406179D01*
X193600645Y-80540886D01*
X193600649Y-80540893D01*
X193686809Y-80655987D01*
X193686812Y-80655990D01*
X193801906Y-80742150D01*
X193801913Y-80742154D01*
X193936620Y-80792396D01*
X193936627Y-80792398D01*
X193996155Y-80798799D01*
X193996172Y-80798800D01*
X194577400Y-80798800D01*
X194933000Y-80798800D01*
X195514228Y-80798800D01*
X195514244Y-80798799D01*
X195573772Y-80792398D01*
X195573779Y-80792396D01*
X195708486Y-80742154D01*
X195708493Y-80742150D01*
X195823587Y-80655990D01*
X195823590Y-80655987D01*
X195909750Y-80540893D01*
X195909754Y-80540886D01*
X195959996Y-80406179D01*
X195959998Y-80406172D01*
X195966399Y-80346644D01*
X195966400Y-80346627D01*
X195966400Y-80298800D01*
X194933000Y-80298800D01*
X194933000Y-80798800D01*
X194577400Y-80798800D01*
X194577400Y-80298800D01*
X193544000Y-80298800D01*
X193544000Y-80346644D01*
X191755500Y-80346644D01*
X191755500Y-79895355D01*
X193544000Y-79895355D01*
X193544000Y-79943200D01*
X194577400Y-79943200D01*
X194933000Y-79943200D01*
X195966400Y-79943200D01*
X195966400Y-79895372D01*
X195966399Y-79895355D01*
X195959998Y-79835828D01*
X195959099Y-79832022D01*
X195959099Y-79774978D01*
X195959998Y-79771171D01*
X195966399Y-79711644D01*
X195966400Y-79711627D01*
X195966400Y-79663800D01*
X194933000Y-79663800D01*
X194933000Y-79943200D01*
X194577400Y-79943200D01*
X194577400Y-79663800D01*
X193547048Y-79663800D01*
X193554434Y-79796615D01*
X193551303Y-79809984D01*
X193551303Y-79832009D01*
X193550402Y-79835822D01*
X193544000Y-79895355D01*
X191755500Y-79895355D01*
X191755500Y-77275943D01*
X191755499Y-77275940D01*
X191745472Y-77238517D01*
X191745472Y-77238516D01*
X191714577Y-77123215D01*
X191662778Y-77033497D01*
X191635520Y-76986284D01*
X191523716Y-76874480D01*
X191523713Y-76874478D01*
X191234574Y-76585339D01*
X191201089Y-76524016D01*
X191200638Y-76521849D01*
X191169738Y-76366510D01*
X191169737Y-76366503D01*
X191111838Y-76226721D01*
X191109397Y-76220827D01*
X191109390Y-76220814D01*
X191021789Y-76089711D01*
X191021786Y-76089707D01*
X190910292Y-75978213D01*
X190910288Y-75978210D01*
X190779185Y-75890609D01*
X190779172Y-75890602D01*
X190633501Y-75830264D01*
X190633489Y-75830261D01*
X190478845Y-75799500D01*
X190478842Y-75799500D01*
X190321158Y-75799500D01*
X190321155Y-75799500D01*
X190166510Y-75830261D01*
X190166498Y-75830264D01*
X190020827Y-75890602D01*
X190020814Y-75890609D01*
X189889711Y-75978210D01*
X189889707Y-75978213D01*
X189778213Y-76089707D01*
X189778210Y-76089711D01*
X189690609Y-76220814D01*
X189690602Y-76220827D01*
X189630264Y-76366498D01*
X189630261Y-76366510D01*
X189599500Y-76521153D01*
X189599500Y-76678846D01*
X189630261Y-76833489D01*
X189630264Y-76833501D01*
X189690602Y-76979172D01*
X189690609Y-76979185D01*
X189778210Y-77110288D01*
X189778213Y-77110292D01*
X189889707Y-77221786D01*
X189889711Y-77221789D01*
X190020814Y-77309390D01*
X190020827Y-77309397D01*
X190158683Y-77366498D01*
X190166503Y-77369737D01*
X190231147Y-77382595D01*
X190321849Y-77400638D01*
X190338605Y-77409402D01*
X190357085Y-77413423D01*
X190382123Y-77432167D01*
X190383760Y-77433023D01*
X190385339Y-77434574D01*
X190518181Y-77567416D01*
X190551666Y-77628739D01*
X190554500Y-77655097D01*
X190554500Y-83675500D01*
X190534815Y-83742539D01*
X190482011Y-83788294D01*
X190430500Y-83799500D01*
X190050484Y-83799500D01*
X189987363Y-83782232D01*
X189928107Y-83747188D01*
X189882887Y-83720445D01*
X189734156Y-83677235D01*
X189734153Y-83677234D01*
X189734151Y-83677234D01*
X189703395Y-83674814D01*
X189699405Y-83674500D01*
X189699404Y-83674500D01*
X189200606Y-83674500D01*
X189200584Y-83674501D01*
X189165847Y-83677234D01*
X189164126Y-83677734D01*
X189017113Y-83720445D01*
X189017111Y-83720445D01*
X189017111Y-83720446D01*
X188883805Y-83799282D01*
X188883796Y-83799289D01*
X188774289Y-83908796D01*
X188774282Y-83908805D01*
X188697615Y-84038443D01*
X188695445Y-84042113D01*
X188662372Y-84155950D01*
X188652234Y-84190847D01*
X188652234Y-84190849D01*
X188649500Y-84225589D01*
X188649500Y-84574393D01*
X188649501Y-84574415D01*
X188652234Y-84609152D01*
X188652234Y-84609155D01*
X188652235Y-84609156D01*
X188695445Y-84757887D01*
X188695446Y-84757888D01*
X188774282Y-84891194D01*
X188774289Y-84891203D01*
X188883796Y-85000710D01*
X188883800Y-85000713D01*
X188883802Y-85000715D01*
X189017113Y-85079555D01*
X189165844Y-85122765D01*
X189200595Y-85125500D01*
X189699404Y-85125499D01*
X189734156Y-85122765D01*
X189882887Y-85079555D01*
X189987363Y-85017768D01*
X190050484Y-85000500D01*
X190430500Y-85000500D01*
X190497539Y-85020185D01*
X190543294Y-85072989D01*
X190554500Y-85124500D01*
X190554500Y-89195368D01*
X190534815Y-89262407D01*
X190482011Y-89308162D01*
X190443755Y-89318657D01*
X190413520Y-89321907D01*
X190278671Y-89372202D01*
X190278664Y-89372206D01*
X190163455Y-89458452D01*
X190163452Y-89458455D01*
X190077206Y-89573664D01*
X190077202Y-89573671D01*
X190026908Y-89708517D01*
X190020501Y-89768116D01*
X190020501Y-89768123D01*
X190020500Y-89768135D01*
X190020500Y-91131870D01*
X190020501Y-91131876D01*
X190026908Y-91191483D01*
X190077202Y-91326328D01*
X190077206Y-91326335D01*
X190163452Y-91441544D01*
X190163455Y-91441547D01*
X190278664Y-91527793D01*
X190278671Y-91527797D01*
X190413517Y-91578091D01*
X190413516Y-91578091D01*
X190420444Y-91578835D01*
X190473127Y-91584500D01*
X191836872Y-91584499D01*
X191896483Y-91578091D01*
X192031331Y-91527796D01*
X192146546Y-91441546D01*
X192232796Y-91326331D01*
X192283091Y-91191483D01*
X192289500Y-91131873D01*
X192289499Y-90360707D01*
X192560500Y-90360707D01*
X192560500Y-90539292D01*
X192588434Y-90715659D01*
X192588435Y-90715663D01*
X192643618Y-90885497D01*
X192724689Y-91044608D01*
X192829652Y-91189077D01*
X192955923Y-91315348D01*
X193100392Y-91420311D01*
X193259503Y-91501382D01*
X193429337Y-91556565D01*
X193495478Y-91567040D01*
X193605708Y-91584500D01*
X193605713Y-91584500D01*
X193784292Y-91584500D01*
X193882273Y-91568980D01*
X193960663Y-91556565D01*
X194130497Y-91501382D01*
X194289608Y-91420311D01*
X194434077Y-91315348D01*
X194560348Y-91189077D01*
X194665311Y-91044608D01*
X194746382Y-90885497D01*
X194801565Y-90715663D01*
X194813980Y-90637273D01*
X194829500Y-90539292D01*
X194829500Y-90360707D01*
X195100500Y-90360707D01*
X195100500Y-90539292D01*
X195128434Y-90715659D01*
X195128435Y-90715663D01*
X195183618Y-90885497D01*
X195264689Y-91044608D01*
X195369652Y-91189077D01*
X195495923Y-91315348D01*
X195640392Y-91420311D01*
X195799503Y-91501382D01*
X195969337Y-91556565D01*
X196035478Y-91567040D01*
X196145708Y-91584500D01*
X196145713Y-91584500D01*
X196324292Y-91584500D01*
X196422273Y-91568980D01*
X196500663Y-91556565D01*
X196670497Y-91501382D01*
X196829608Y-91420311D01*
X196974077Y-91315348D01*
X197100348Y-91189077D01*
X197205311Y-91044608D01*
X197286382Y-90885497D01*
X197341565Y-90715663D01*
X197353980Y-90637273D01*
X197369500Y-90539292D01*
X197369500Y-90360707D01*
X197640500Y-90360707D01*
X197640500Y-90539292D01*
X197668434Y-90715659D01*
X197668435Y-90715663D01*
X197723618Y-90885497D01*
X197804689Y-91044608D01*
X197909652Y-91189077D01*
X198035923Y-91315348D01*
X198180392Y-91420311D01*
X198339503Y-91501382D01*
X198509337Y-91556565D01*
X198575478Y-91567040D01*
X198685708Y-91584500D01*
X198685713Y-91584500D01*
X198864292Y-91584500D01*
X198962273Y-91568980D01*
X199040663Y-91556565D01*
X199210497Y-91501382D01*
X199369608Y-91420311D01*
X199514077Y-91315348D01*
X199640348Y-91189077D01*
X199745311Y-91044608D01*
X199826382Y-90885497D01*
X199881565Y-90715663D01*
X199893980Y-90637273D01*
X199909500Y-90539292D01*
X199909500Y-90360707D01*
X199881565Y-90184340D01*
X199881565Y-90184337D01*
X199826382Y-90014503D01*
X199745311Y-89855392D01*
X199640348Y-89710923D01*
X199514077Y-89584652D01*
X199369608Y-89479689D01*
X199210497Y-89398618D01*
X199040663Y-89343435D01*
X199040661Y-89343434D01*
X199040659Y-89343434D01*
X198864292Y-89315500D01*
X198864287Y-89315500D01*
X198685713Y-89315500D01*
X198685708Y-89315500D01*
X198509340Y-89343434D01*
X198339500Y-89398619D01*
X198180391Y-89479689D01*
X198097966Y-89539574D01*
X198035923Y-89584652D01*
X198035921Y-89584654D01*
X198035920Y-89584654D01*
X197909654Y-89710920D01*
X197909654Y-89710921D01*
X197909652Y-89710923D01*
X197868099Y-89768116D01*
X197804689Y-89855391D01*
X197723619Y-90014500D01*
X197668434Y-90184340D01*
X197640500Y-90360707D01*
X197369500Y-90360707D01*
X197341565Y-90184340D01*
X197341565Y-90184337D01*
X197286382Y-90014503D01*
X197205311Y-89855392D01*
X197100348Y-89710923D01*
X196974077Y-89584652D01*
X196829608Y-89479689D01*
X196670497Y-89398618D01*
X196500663Y-89343435D01*
X196500661Y-89343434D01*
X196500659Y-89343434D01*
X196324292Y-89315500D01*
X196324287Y-89315500D01*
X196145713Y-89315500D01*
X196145708Y-89315500D01*
X195969340Y-89343434D01*
X195799500Y-89398619D01*
X195640391Y-89479689D01*
X195557966Y-89539574D01*
X195495923Y-89584652D01*
X195495921Y-89584654D01*
X195495920Y-89584654D01*
X195369654Y-89710920D01*
X195369654Y-89710921D01*
X195369652Y-89710923D01*
X195328099Y-89768116D01*
X195264689Y-89855391D01*
X195183619Y-90014500D01*
X195128434Y-90184340D01*
X195100500Y-90360707D01*
X194829500Y-90360707D01*
X194801565Y-90184340D01*
X194801565Y-90184337D01*
X194746382Y-90014503D01*
X194665311Y-89855392D01*
X194560348Y-89710923D01*
X194434077Y-89584652D01*
X194289608Y-89479689D01*
X194130497Y-89398618D01*
X193960663Y-89343435D01*
X193960661Y-89343434D01*
X193960659Y-89343434D01*
X193784292Y-89315500D01*
X193784287Y-89315500D01*
X193605713Y-89315500D01*
X193605708Y-89315500D01*
X193429340Y-89343434D01*
X193259500Y-89398619D01*
X193100391Y-89479689D01*
X193017966Y-89539574D01*
X192955923Y-89584652D01*
X192955921Y-89584654D01*
X192955920Y-89584654D01*
X192829654Y-89710920D01*
X192829654Y-89710921D01*
X192829652Y-89710923D01*
X192788099Y-89768116D01*
X192724689Y-89855391D01*
X192643619Y-90014500D01*
X192588434Y-90184340D01*
X192560500Y-90360707D01*
X192289499Y-90360707D01*
X192289499Y-89768128D01*
X192283350Y-89710923D01*
X192283091Y-89708516D01*
X192232797Y-89573671D01*
X192232793Y-89573664D01*
X192146547Y-89458455D01*
X192146544Y-89458452D01*
X192031335Y-89372206D01*
X192031328Y-89372202D01*
X191896483Y-89321908D01*
X191866242Y-89318657D01*
X191864123Y-89317779D01*
X191861853Y-89318106D01*
X191832001Y-89304473D01*
X191801692Y-89291918D01*
X191800384Y-89290034D01*
X191798297Y-89289081D01*
X191780554Y-89261473D01*
X191761845Y-89234525D01*
X191761375Y-89231630D01*
X191760523Y-89230303D01*
X191755500Y-89195368D01*
X191755500Y-89044501D01*
X191775185Y-88977462D01*
X191827989Y-88931707D01*
X191897147Y-88921763D01*
X191935796Y-88934017D01*
X191989498Y-88961380D01*
X191989500Y-88961380D01*
X191989503Y-88961382D01*
X192159337Y-89016565D01*
X192225478Y-89027040D01*
X192335708Y-89044500D01*
X192335713Y-89044500D01*
X192514292Y-89044500D01*
X192612273Y-89028980D01*
X192690663Y-89016565D01*
X192860497Y-88961382D01*
X193019608Y-88880311D01*
X193164077Y-88775348D01*
X193290348Y-88649077D01*
X193395311Y-88504608D01*
X193476382Y-88345497D01*
X193531565Y-88175663D01*
X193550411Y-88056675D01*
X193559500Y-87999292D01*
X193559500Y-87820707D01*
X193830500Y-87820707D01*
X193830500Y-87999292D01*
X193858434Y-88175659D01*
X193858435Y-88175663D01*
X193913618Y-88345497D01*
X193994689Y-88504608D01*
X194099652Y-88649077D01*
X194225923Y-88775348D01*
X194370392Y-88880311D01*
X194529503Y-88961382D01*
X194699337Y-89016565D01*
X194765478Y-89027040D01*
X194875708Y-89044500D01*
X194875713Y-89044500D01*
X195054292Y-89044500D01*
X195152273Y-89028980D01*
X195230663Y-89016565D01*
X195400497Y-88961382D01*
X195559608Y-88880311D01*
X195704077Y-88775348D01*
X195830348Y-88649077D01*
X195935311Y-88504608D01*
X196016382Y-88345497D01*
X196071565Y-88175663D01*
X196090411Y-88056675D01*
X196099500Y-87999292D01*
X196099500Y-87820707D01*
X196370500Y-87820707D01*
X196370500Y-87999292D01*
X196398434Y-88175659D01*
X196398435Y-88175663D01*
X196453618Y-88345497D01*
X196534689Y-88504608D01*
X196639652Y-88649077D01*
X196765923Y-88775348D01*
X196910392Y-88880311D01*
X197069503Y-88961382D01*
X197239337Y-89016565D01*
X197305478Y-89027040D01*
X197415708Y-89044500D01*
X197415713Y-89044500D01*
X197594292Y-89044500D01*
X197692273Y-89028980D01*
X197770663Y-89016565D01*
X197940497Y-88961382D01*
X198099608Y-88880311D01*
X198244077Y-88775348D01*
X198370348Y-88649077D01*
X198475311Y-88504608D01*
X198556382Y-88345497D01*
X198611565Y-88175663D01*
X198630411Y-88056675D01*
X198639500Y-87999292D01*
X198639500Y-87820747D01*
X198911000Y-87820747D01*
X198911000Y-87999252D01*
X198938921Y-88175540D01*
X198994083Y-88345312D01*
X199075112Y-88504341D01*
X199084367Y-88517077D01*
X199665000Y-87936445D01*
X199665000Y-87960028D01*
X199690896Y-88056675D01*
X199740924Y-88143325D01*
X199811675Y-88214076D01*
X199898325Y-88264104D01*
X199994972Y-88290000D01*
X200018554Y-88290000D01*
X199437921Y-88870631D01*
X199450652Y-88879882D01*
X199609690Y-88960917D01*
X199779459Y-89016078D01*
X199955748Y-89044000D01*
X200134252Y-89044000D01*
X200310540Y-89016078D01*
X200480309Y-88960917D01*
X200639345Y-88879884D01*
X200652078Y-88870631D01*
X200071447Y-88290000D01*
X200095028Y-88290000D01*
X200191675Y-88264104D01*
X200278325Y-88214076D01*
X200349076Y-88143325D01*
X200399104Y-88056675D01*
X200425000Y-87960028D01*
X200425000Y-87936446D01*
X201005631Y-88517078D01*
X201014884Y-88504345D01*
X201095917Y-88345309D01*
X201151078Y-88175540D01*
X201179000Y-87999252D01*
X201179000Y-87820747D01*
X201151078Y-87644459D01*
X201095917Y-87474690D01*
X201014882Y-87315652D01*
X201005631Y-87302921D01*
X200425000Y-87883552D01*
X200425000Y-87859972D01*
X200399104Y-87763325D01*
X200349076Y-87676675D01*
X200278325Y-87605924D01*
X200191675Y-87555896D01*
X200095028Y-87530000D01*
X200071447Y-87530000D01*
X200652078Y-86949367D01*
X200639341Y-86940112D01*
X200480312Y-86859083D01*
X200310540Y-86803921D01*
X200134252Y-86776000D01*
X199955748Y-86776000D01*
X199779459Y-86803921D01*
X199609690Y-86859082D01*
X199450649Y-86940118D01*
X199437921Y-86949366D01*
X199437920Y-86949367D01*
X200018554Y-87530000D01*
X199994972Y-87530000D01*
X199898325Y-87555896D01*
X199811675Y-87605924D01*
X199740924Y-87676675D01*
X199690896Y-87763325D01*
X199665000Y-87859972D01*
X199665000Y-87883553D01*
X199084367Y-87302920D01*
X199084366Y-87302921D01*
X199075118Y-87315649D01*
X198994082Y-87474690D01*
X198938921Y-87644459D01*
X198911000Y-87820747D01*
X198639500Y-87820747D01*
X198639500Y-87820707D01*
X198611565Y-87644340D01*
X198611565Y-87644337D01*
X198556382Y-87474503D01*
X198475311Y-87315392D01*
X198370348Y-87170923D01*
X198244077Y-87044652D01*
X198099608Y-86939689D01*
X197940497Y-86858618D01*
X197770663Y-86803435D01*
X197770661Y-86803434D01*
X197770659Y-86803434D01*
X197594292Y-86775500D01*
X197594287Y-86775500D01*
X197415713Y-86775500D01*
X197415708Y-86775500D01*
X197239340Y-86803434D01*
X197069500Y-86858619D01*
X196910391Y-86939689D01*
X196897071Y-86949367D01*
X196765923Y-87044652D01*
X196765921Y-87044654D01*
X196765920Y-87044654D01*
X196639654Y-87170920D01*
X196639654Y-87170921D01*
X196639652Y-87170923D01*
X196594574Y-87232966D01*
X196534689Y-87315391D01*
X196453619Y-87474500D01*
X196398434Y-87644340D01*
X196370500Y-87820707D01*
X196099500Y-87820707D01*
X196071565Y-87644340D01*
X196071565Y-87644337D01*
X196016382Y-87474503D01*
X195935311Y-87315392D01*
X195830348Y-87170923D01*
X195704077Y-87044652D01*
X195559608Y-86939689D01*
X195400497Y-86858618D01*
X195230663Y-86803435D01*
X195230661Y-86803434D01*
X195230659Y-86803434D01*
X195054292Y-86775500D01*
X195054287Y-86775500D01*
X194875713Y-86775500D01*
X194875708Y-86775500D01*
X194699340Y-86803434D01*
X194529500Y-86858619D01*
X194370391Y-86939689D01*
X194357071Y-86949367D01*
X194225923Y-87044652D01*
X194225921Y-87044654D01*
X194225920Y-87044654D01*
X194099654Y-87170920D01*
X194099654Y-87170921D01*
X194099652Y-87170923D01*
X194054574Y-87232966D01*
X193994689Y-87315391D01*
X193913619Y-87474500D01*
X193858434Y-87644340D01*
X193830500Y-87820707D01*
X193559500Y-87820707D01*
X193531565Y-87644340D01*
X193531565Y-87644337D01*
X193476382Y-87474503D01*
X193395311Y-87315392D01*
X193290348Y-87170923D01*
X193164077Y-87044652D01*
X193019608Y-86939689D01*
X192860497Y-86858618D01*
X192690663Y-86803435D01*
X192690661Y-86803434D01*
X192690659Y-86803434D01*
X192514292Y-86775500D01*
X192514287Y-86775500D01*
X192335713Y-86775500D01*
X192335708Y-86775500D01*
X192159340Y-86803434D01*
X191989497Y-86858620D01*
X191935794Y-86885983D01*
X191867125Y-86898879D01*
X191802385Y-86872602D01*
X191762128Y-86815495D01*
X191755500Y-86775498D01*
X191755500Y-85124500D01*
X191775185Y-85057461D01*
X191827989Y-85011706D01*
X191879500Y-85000500D01*
X197020234Y-85000500D01*
X197087273Y-85020185D01*
X197089125Y-85021398D01*
X197220814Y-85109390D01*
X197220827Y-85109397D01*
X197366498Y-85169735D01*
X197366503Y-85169737D01*
X197521153Y-85200499D01*
X197521156Y-85200500D01*
X197521158Y-85200500D01*
X197678844Y-85200500D01*
X197678845Y-85200499D01*
X197833497Y-85169737D01*
X197979179Y-85109394D01*
X198110289Y-85021789D01*
X198221789Y-84910289D01*
X198309394Y-84779179D01*
X198369737Y-84633497D01*
X198400500Y-84478842D01*
X198400638Y-84478150D01*
X198433023Y-84416239D01*
X198434518Y-84414716D01*
X198683491Y-84165743D01*
X205349301Y-84165743D01*
X205349301Y-84422356D01*
X205389445Y-84675814D01*
X205389445Y-84675817D01*
X205468741Y-84919865D01*
X205585244Y-85148513D01*
X205663657Y-85256438D01*
X205663657Y-85256439D01*
X206206209Y-84713886D01*
X206298934Y-84852659D01*
X206420992Y-84974717D01*
X206559763Y-85067440D01*
X206017210Y-85609992D01*
X206125137Y-85688406D01*
X206353785Y-85804909D01*
X206597834Y-85884205D01*
X206851295Y-85924350D01*
X207107907Y-85924350D01*
X207361365Y-85884205D01*
X207361368Y-85884205D01*
X207605416Y-85804909D01*
X207834056Y-85688410D01*
X207834062Y-85688406D01*
X207941989Y-85609992D01*
X207941990Y-85609992D01*
X207399438Y-85067440D01*
X207538210Y-84974717D01*
X207660268Y-84852659D01*
X207752991Y-84713887D01*
X208295543Y-85256439D01*
X208295543Y-85256438D01*
X208373957Y-85148511D01*
X208373961Y-85148505D01*
X208490460Y-84919865D01*
X208569756Y-84675817D01*
X208569756Y-84675814D01*
X208609901Y-84422356D01*
X208609901Y-84165743D01*
X208569756Y-83912285D01*
X208569756Y-83912282D01*
X208490460Y-83668234D01*
X208373957Y-83439586D01*
X208295543Y-83331660D01*
X208295543Y-83331659D01*
X207752991Y-83874211D01*
X207660268Y-83735441D01*
X207538210Y-83613383D01*
X207399438Y-83520658D01*
X207941990Y-82978106D01*
X207834064Y-82899693D01*
X207605416Y-82783190D01*
X207361367Y-82703894D01*
X207107907Y-82663750D01*
X206851295Y-82663750D01*
X206597836Y-82703894D01*
X206597833Y-82703894D01*
X206353785Y-82783190D01*
X206125134Y-82899695D01*
X206017211Y-82978105D01*
X206017210Y-82978106D01*
X206559763Y-83520659D01*
X206420992Y-83613383D01*
X206298934Y-83735441D01*
X206206210Y-83874212D01*
X205663657Y-83331659D01*
X205663656Y-83331660D01*
X205585246Y-83439583D01*
X205468741Y-83668234D01*
X205389445Y-83912282D01*
X205389445Y-83912285D01*
X205349301Y-84165743D01*
X198683491Y-84165743D01*
X204612416Y-78236819D01*
X204639343Y-78222115D01*
X204665162Y-78205523D01*
X204671362Y-78204631D01*
X204673739Y-78203334D01*
X204700097Y-78200500D01*
X204820234Y-78200500D01*
X204887273Y-78220185D01*
X204889125Y-78221398D01*
X205020814Y-78309390D01*
X205020827Y-78309397D01*
X205166498Y-78369735D01*
X205166503Y-78369737D01*
X205321153Y-78400499D01*
X205321156Y-78400500D01*
X205321158Y-78400500D01*
X205478844Y-78400500D01*
X205478845Y-78400499D01*
X205633497Y-78369737D01*
X205779179Y-78309394D01*
X205910289Y-78221789D01*
X206021789Y-78110289D01*
X206109394Y-77979179D01*
X206169737Y-77833497D01*
X206200500Y-77678842D01*
X206200500Y-77521158D01*
X206200500Y-77521155D01*
X206200499Y-77521153D01*
X206169738Y-77366510D01*
X206169737Y-77366503D01*
X206116724Y-77238517D01*
X206109397Y-77220827D01*
X206109390Y-77220814D01*
X206021398Y-77089125D01*
X206000520Y-77022447D01*
X206000500Y-77020234D01*
X206000500Y-76700096D01*
X206020185Y-76633057D01*
X206036814Y-76612420D01*
X211058506Y-71590727D01*
X211058511Y-71590724D01*
X211068714Y-71580520D01*
X211068716Y-71580520D01*
X211180520Y-71468716D01*
X211242052Y-71362139D01*
X211259577Y-71331785D01*
X211280161Y-71254963D01*
X211282216Y-71249450D01*
X211294877Y-71232528D01*
X211310728Y-71205075D01*
X211350117Y-71165687D01*
X211432494Y-71026395D01*
X211458976Y-70935246D01*
X211468924Y-70901005D01*
X211506530Y-70842119D01*
X211570003Y-70812913D01*
X211639189Y-70822659D01*
X211692124Y-70868263D01*
X211711999Y-70935246D01*
X211712000Y-70935600D01*
X211712000Y-82408919D01*
X211692315Y-82475958D01*
X211675681Y-82496600D01*
X211486460Y-82685820D01*
X211425137Y-82719305D01*
X211360461Y-82716070D01*
X211321483Y-82703405D01*
X211067952Y-82663250D01*
X211067947Y-82663250D01*
X210811253Y-82663250D01*
X210811248Y-82663250D01*
X210557719Y-82703404D01*
X210313585Y-82782729D01*
X210084870Y-82899267D01*
X209877208Y-83050142D01*
X209877202Y-83050147D01*
X209695697Y-83231652D01*
X209695692Y-83231658D01*
X209544817Y-83439320D01*
X209428279Y-83668035D01*
X209348954Y-83912169D01*
X209308800Y-84165697D01*
X209308800Y-84422402D01*
X209348954Y-84675930D01*
X209428279Y-84920064D01*
X209504991Y-85070617D01*
X209532955Y-85125500D01*
X209544817Y-85148779D01*
X209695692Y-85356441D01*
X209695695Y-85356445D01*
X209877205Y-85537955D01*
X210084874Y-85688835D01*
X210230610Y-85763091D01*
X210313585Y-85805370D01*
X210313587Y-85805370D01*
X210313590Y-85805372D01*
X210444449Y-85847891D01*
X210557719Y-85884695D01*
X210811248Y-85924850D01*
X210811253Y-85924850D01*
X211067952Y-85924850D01*
X211321480Y-85884695D01*
X211322988Y-85884205D01*
X211565610Y-85805372D01*
X211794326Y-85688835D01*
X212001995Y-85537955D01*
X212183505Y-85356445D01*
X212334385Y-85148776D01*
X212450922Y-84920060D01*
X212530245Y-84675930D01*
X212538311Y-84625001D01*
X212570400Y-84422402D01*
X212570400Y-84165697D01*
X212534731Y-83940496D01*
X212530245Y-83912170D01*
X212517577Y-83873185D01*
X212515583Y-83803347D01*
X212547826Y-83747190D01*
X213045452Y-83249566D01*
X213094686Y-83175879D01*
X213127584Y-83126645D01*
X213184158Y-82990063D01*
X213213000Y-82845068D01*
X213213000Y-69549799D01*
X213232685Y-69482760D01*
X213285489Y-69437005D01*
X213354647Y-69427061D01*
X213393295Y-69439314D01*
X213490723Y-69488957D01*
X213674708Y-69548738D01*
X213865771Y-69579000D01*
X214059229Y-69579000D01*
X214250291Y-69548738D01*
X214434276Y-69488957D01*
X214531705Y-69439314D01*
X214600374Y-69426418D01*
X214665114Y-69452694D01*
X214705372Y-69509800D01*
X214712000Y-69549799D01*
X214712000Y-82566728D01*
X214692315Y-82633767D01*
X214639511Y-82679522D01*
X214607398Y-82689201D01*
X214517723Y-82703404D01*
X214273587Y-82782729D01*
X214044870Y-82899267D01*
X213837208Y-83050142D01*
X213837202Y-83050147D01*
X213655697Y-83231652D01*
X213655692Y-83231658D01*
X213504817Y-83439320D01*
X213388279Y-83668035D01*
X213308954Y-83912169D01*
X213268800Y-84165697D01*
X213268800Y-84422402D01*
X213308954Y-84675930D01*
X213388279Y-84920064D01*
X213464991Y-85070617D01*
X213492955Y-85125500D01*
X213504817Y-85148779D01*
X213655692Y-85356441D01*
X213655695Y-85356445D01*
X213837205Y-85537955D01*
X214044874Y-85688835D01*
X214190610Y-85763091D01*
X214273585Y-85805370D01*
X214273587Y-85805370D01*
X214273590Y-85805372D01*
X214404449Y-85847891D01*
X214517719Y-85884695D01*
X214771248Y-85924850D01*
X214771253Y-85924850D01*
X215027952Y-85924850D01*
X215281480Y-85884695D01*
X215282988Y-85884205D01*
X215525610Y-85805372D01*
X215754326Y-85688835D01*
X215961995Y-85537955D01*
X216143505Y-85356445D01*
X216294385Y-85148776D01*
X216410922Y-84920060D01*
X216490245Y-84675930D01*
X216498311Y-84625001D01*
X216530400Y-84422402D01*
X216530400Y-84165697D01*
X216490245Y-83912169D01*
X216430083Y-83727011D01*
X216410922Y-83668040D01*
X216410920Y-83668037D01*
X216410920Y-83668035D01*
X216334209Y-83517483D01*
X216294385Y-83439324D01*
X216278711Y-83417750D01*
X216236682Y-83359901D01*
X216213202Y-83294095D01*
X216213000Y-83287016D01*
X216213000Y-67691255D01*
X216232685Y-67624216D01*
X216285489Y-67578461D01*
X216293668Y-67575073D01*
X216298981Y-67573091D01*
X216298983Y-67573091D01*
X216433831Y-67522796D01*
X216549046Y-67436546D01*
X216635296Y-67321331D01*
X216685591Y-67186483D01*
X216692000Y-67126873D01*
X216691999Y-65573128D01*
X216685591Y-65513517D01*
X216647799Y-65412192D01*
X216635297Y-65378671D01*
X216635293Y-65378664D01*
X216549047Y-65263455D01*
X216549044Y-65263452D01*
X216433835Y-65177206D01*
X216433828Y-65177202D01*
X216298982Y-65126908D01*
X216298983Y-65126908D01*
X216239383Y-65120501D01*
X216239381Y-65120500D01*
X216239373Y-65120500D01*
X216239364Y-65120500D01*
X214685629Y-65120500D01*
X214685623Y-65120501D01*
X214626016Y-65126908D01*
X214491171Y-65177202D01*
X214491164Y-65177206D01*
X214375955Y-65263452D01*
X214375952Y-65263455D01*
X214289706Y-65378664D01*
X214289702Y-65378671D01*
X214239408Y-65513517D01*
X214235590Y-65549034D01*
X214233001Y-65573123D01*
X214233000Y-65573135D01*
X214233000Y-67003337D01*
X214213315Y-67070376D01*
X214160511Y-67116131D01*
X214091353Y-67126075D01*
X214089604Y-67125811D01*
X214059226Y-67121000D01*
X213865771Y-67121000D01*
X213674707Y-67151262D01*
X213671116Y-67152429D01*
X213601275Y-67154423D01*
X213541443Y-67118341D01*
X213510616Y-67055640D01*
X213518581Y-66986226D01*
X213522307Y-66978217D01*
X213601922Y-66821964D01*
X213661726Y-66637909D01*
X213678287Y-66533343D01*
X213692000Y-66446769D01*
X213692000Y-66253230D01*
X213675486Y-66148975D01*
X213661726Y-66062091D01*
X213601922Y-65878036D01*
X213514063Y-65705601D01*
X213514060Y-65705597D01*
X213514060Y-65705596D01*
X213481038Y-65660147D01*
X213400310Y-65549034D01*
X213263466Y-65412190D01*
X213204540Y-65369378D01*
X213106903Y-65298439D01*
X213106900Y-65298438D01*
X213106901Y-65298438D01*
X213106899Y-65298437D01*
X212934464Y-65210578D01*
X212750409Y-65150774D01*
X212750403Y-65150773D01*
X212559269Y-65120500D01*
X212559264Y-65120500D01*
X212365736Y-65120500D01*
X212365731Y-65120500D01*
X212174596Y-65150773D01*
X212174594Y-65150773D01*
X212174591Y-65150774D01*
X211990536Y-65210578D01*
X211990533Y-65210579D01*
X211990531Y-65210580D01*
X211818099Y-65298438D01*
X211818096Y-65298439D01*
X211707669Y-65378671D01*
X211661534Y-65412190D01*
X211661532Y-65412192D01*
X211661531Y-65412192D01*
X211524692Y-65549031D01*
X211524692Y-65549032D01*
X211524690Y-65549034D01*
X211507185Y-65573128D01*
X211410939Y-65705596D01*
X211410938Y-65705599D01*
X211323080Y-65878031D01*
X211323079Y-65878033D01*
X211323078Y-65878036D01*
X211263274Y-66062091D01*
X211263273Y-66062094D01*
X211263273Y-66062096D01*
X211233000Y-66253230D01*
X211233000Y-66446769D01*
X211263255Y-66637791D01*
X211263274Y-66637909D01*
X211293228Y-66730095D01*
X211323079Y-66821968D01*
X211370841Y-66915706D01*
X211402364Y-66977574D01*
X211415260Y-67046241D01*
X211388984Y-67110982D01*
X211331877Y-67151239D01*
X211262072Y-67154231D01*
X211253568Y-67151800D01*
X211250412Y-67150775D01*
X211250409Y-67150774D01*
X211250407Y-67150773D01*
X211250405Y-67150773D01*
X211059269Y-67120500D01*
X211059264Y-67120500D01*
X210865736Y-67120500D01*
X210865731Y-67120500D01*
X210674594Y-67150773D01*
X210674591Y-67150774D01*
X210670759Y-67152019D01*
X210600918Y-67154011D01*
X210541087Y-67117927D01*
X210510262Y-67055224D01*
X210518230Y-66985810D01*
X210521963Y-66977790D01*
X210601456Y-66821778D01*
X210661238Y-66637791D01*
X210691500Y-66446729D01*
X210691500Y-66253270D01*
X210661238Y-66062208D01*
X210601457Y-65878223D01*
X210513634Y-65705863D01*
X210491143Y-65674909D01*
X209925050Y-66241001D01*
X209905130Y-66166657D01*
X209842595Y-66058343D01*
X209754157Y-65969905D01*
X209645843Y-65907370D01*
X209571497Y-65887449D01*
X210137590Y-65321356D01*
X210137589Y-65321355D01*
X210106636Y-65298865D01*
X209934276Y-65211042D01*
X209750291Y-65151261D01*
X209559229Y-65121000D01*
X209365771Y-65121000D01*
X209174708Y-65151261D01*
X208990723Y-65211042D01*
X208818360Y-65298867D01*
X208787409Y-65321354D01*
X208787408Y-65321355D01*
X209353503Y-65887449D01*
X209279157Y-65907370D01*
X209170843Y-65969905D01*
X209082405Y-66058343D01*
X209019870Y-66166657D01*
X208999949Y-66241002D01*
X208433855Y-65674908D01*
X208433854Y-65674909D01*
X208411367Y-65705860D01*
X208323542Y-65878223D01*
X208263761Y-66062208D01*
X208233500Y-66253270D01*
X208233500Y-66446729D01*
X208263761Y-66637791D01*
X208323542Y-66821776D01*
X208403037Y-66977791D01*
X208415933Y-67046460D01*
X208389657Y-67111201D01*
X208332550Y-67151458D01*
X208262745Y-67154450D01*
X208254249Y-67152021D01*
X208250409Y-67150774D01*
X208250405Y-67150773D01*
X208250404Y-67150773D01*
X208059269Y-67120500D01*
X208059264Y-67120500D01*
X207865736Y-67120500D01*
X207865731Y-67120500D01*
X207674594Y-67150773D01*
X207674593Y-67150773D01*
X207671427Y-67151802D01*
X207670159Y-67151838D01*
X207669856Y-67151911D01*
X207669840Y-67151847D01*
X207601585Y-67153790D01*
X207541756Y-67117704D01*
X207510934Y-67055000D01*
X207518905Y-66985587D01*
X207522617Y-66977610D01*
X207601922Y-66821964D01*
X207661726Y-66637909D01*
X207678287Y-66533343D01*
X207692000Y-66446769D01*
X207692000Y-66253230D01*
X207675486Y-66148975D01*
X207661726Y-66062091D01*
X207601922Y-65878036D01*
X207514063Y-65705601D01*
X207514060Y-65705597D01*
X207514060Y-65705596D01*
X207481038Y-65660147D01*
X207400310Y-65549034D01*
X207263466Y-65412190D01*
X207204540Y-65369378D01*
X207106903Y-65298439D01*
X207106900Y-65298438D01*
X207106901Y-65298438D01*
X207106899Y-65298437D01*
X206934464Y-65210578D01*
X206750409Y-65150774D01*
X206750403Y-65150773D01*
X206559269Y-65120500D01*
X206559264Y-65120500D01*
X206365736Y-65120500D01*
X206365731Y-65120500D01*
X206174596Y-65150773D01*
X206174594Y-65150773D01*
X206174591Y-65150774D01*
X205990536Y-65210578D01*
X205990533Y-65210579D01*
X205990531Y-65210580D01*
X205818099Y-65298438D01*
X205818096Y-65298439D01*
X205707669Y-65378671D01*
X205661534Y-65412190D01*
X205661532Y-65412192D01*
X205661531Y-65412192D01*
X205524692Y-65549031D01*
X205524692Y-65549032D01*
X205524690Y-65549034D01*
X205507185Y-65573128D01*
X205410939Y-65705596D01*
X205410938Y-65705599D01*
X205323080Y-65878031D01*
X205323079Y-65878033D01*
X205323078Y-65878036D01*
X205263274Y-66062091D01*
X205263273Y-66062094D01*
X205263273Y-66062096D01*
X205233000Y-66253230D01*
X205233000Y-66446769D01*
X205263255Y-66637791D01*
X205263274Y-66637909D01*
X205293228Y-66730095D01*
X205323079Y-66821968D01*
X205370841Y-66915706D01*
X205402364Y-66977574D01*
X205415260Y-67046241D01*
X205388984Y-67110982D01*
X205331877Y-67151239D01*
X205262072Y-67154231D01*
X205253568Y-67151800D01*
X205250412Y-67150775D01*
X205250409Y-67150774D01*
X205250407Y-67150773D01*
X205250405Y-67150773D01*
X205059269Y-67120500D01*
X205059264Y-67120500D01*
X204865736Y-67120500D01*
X204865731Y-67120500D01*
X204674596Y-67150773D01*
X204674594Y-67150773D01*
X204674591Y-67150774D01*
X204490536Y-67210578D01*
X204490533Y-67210579D01*
X204490531Y-67210580D01*
X204318099Y-67298438D01*
X204318096Y-67298439D01*
X204213001Y-67374797D01*
X204161534Y-67412190D01*
X204161532Y-67412192D01*
X204161531Y-67412192D01*
X204024692Y-67549031D01*
X204024692Y-67549032D01*
X204024690Y-67549034D01*
X204003310Y-67578461D01*
X203910939Y-67705596D01*
X203910938Y-67705599D01*
X203823080Y-67878031D01*
X203823079Y-67878033D01*
X203823078Y-67878036D01*
X203763274Y-68062091D01*
X203763273Y-68062094D01*
X203763273Y-68062096D01*
X203733000Y-68253230D01*
X203733000Y-68446769D01*
X203763273Y-68637903D01*
X203763274Y-68637909D01*
X203823078Y-68821964D01*
X203890088Y-68953481D01*
X203910938Y-68994400D01*
X203910939Y-68994403D01*
X203958231Y-69059494D01*
X204024690Y-69150966D01*
X204161534Y-69287810D01*
X204259884Y-69359266D01*
X204310885Y-69396320D01*
X204353551Y-69451650D01*
X204362000Y-69496638D01*
X204362000Y-72328202D01*
X204342315Y-72395241D01*
X204325681Y-72415883D01*
X201867681Y-74873883D01*
X201851155Y-74882906D01*
X201837624Y-74895999D01*
X201821126Y-74899303D01*
X201806358Y-74907368D01*
X201787576Y-74906024D01*
X201769116Y-74909723D01*
X201753451Y-74903584D01*
X201736666Y-74902384D01*
X201721591Y-74891099D01*
X201704063Y-74884230D01*
X201694203Y-74870595D01*
X201680733Y-74860512D01*
X201674152Y-74842870D01*
X201663120Y-74827614D01*
X201658551Y-74801040D01*
X201656316Y-74795048D01*
X201656187Y-74793008D01*
X201645820Y-74604401D01*
X201648958Y-74591038D01*
X201648959Y-74569069D01*
X201650088Y-74564290D01*
X201650091Y-74564283D01*
X201656500Y-74504673D01*
X201656499Y-74124770D01*
X201676183Y-74057732D01*
X201728987Y-74011977D01*
X201745905Y-74005694D01*
X201896195Y-73962031D01*
X202035374Y-73879721D01*
X202035383Y-73879714D01*
X202149714Y-73765383D01*
X202149721Y-73765374D01*
X202232031Y-73626195D01*
X202232033Y-73626190D01*
X202277144Y-73470918D01*
X202277145Y-73470912D01*
X202278790Y-73450000D01*
X201624000Y-73450000D01*
X201556961Y-73430315D01*
X201511206Y-73377511D01*
X201500000Y-73326000D01*
X201500000Y-73200000D01*
X201404500Y-73200000D01*
X201337461Y-73180315D01*
X201291706Y-73127511D01*
X201280500Y-73076000D01*
X201280500Y-72965317D01*
X201280499Y-72965302D01*
X201277643Y-72929008D01*
X201277642Y-72929005D01*
X201254924Y-72850809D01*
X201250000Y-72816213D01*
X201250000Y-72395494D01*
X201750000Y-72395494D01*
X201750000Y-72950000D01*
X202278790Y-72950000D01*
X202277145Y-72929089D01*
X202232031Y-72773804D01*
X202149721Y-72634625D01*
X202149714Y-72634616D01*
X202035383Y-72520285D01*
X202035374Y-72520278D01*
X201896193Y-72437967D01*
X201896190Y-72437965D01*
X201750001Y-72395493D01*
X201750000Y-72395494D01*
X201250000Y-72395494D01*
X201249998Y-72395493D01*
X201103809Y-72437965D01*
X201103808Y-72437966D01*
X201063610Y-72461739D01*
X200995885Y-72478920D01*
X200957875Y-72471453D01*
X200947175Y-72467537D01*
X200896395Y-72437506D01*
X200744623Y-72393411D01*
X200740651Y-72391958D01*
X200715816Y-72373605D01*
X200689785Y-72356981D01*
X200687963Y-72353021D01*
X200684460Y-72350433D01*
X200673489Y-72321566D01*
X200660579Y-72293508D01*
X200661186Y-72289193D01*
X200659639Y-72285121D01*
X200666016Y-72254907D01*
X200670325Y-72224321D01*
X200673414Y-72219857D01*
X200674069Y-72216758D01*
X200679053Y-72211711D01*
X200695583Y-72187832D01*
X201199713Y-71683702D01*
X201199716Y-71683701D01*
X201311520Y-71571897D01*
X201361639Y-71485085D01*
X201390577Y-71434966D01*
X201431501Y-71282238D01*
X201431501Y-71124124D01*
X201431501Y-71116529D01*
X201431500Y-71116511D01*
X201431500Y-70029184D01*
X201431500Y-70029183D01*
X201423546Y-69999500D01*
X201415316Y-69968784D01*
X201390577Y-69876456D01*
X201368356Y-69837967D01*
X201311524Y-69739530D01*
X201311521Y-69739526D01*
X201311520Y-69739524D01*
X201199716Y-69627720D01*
X201199715Y-69627719D01*
X201195385Y-69623389D01*
X201195374Y-69623379D01*
X200644350Y-69072355D01*
X200644348Y-69072352D01*
X200525477Y-68953481D01*
X200525476Y-68953480D01*
X200438664Y-68903360D01*
X200438664Y-68903359D01*
X200438660Y-68903358D01*
X200388545Y-68874423D01*
X200235817Y-68833499D01*
X200077703Y-68833499D01*
X200070107Y-68833499D01*
X200070091Y-68833500D01*
X198377670Y-68833500D01*
X198377654Y-68833499D01*
X198370058Y-68833499D01*
X198211943Y-68833499D01*
X198104587Y-68862265D01*
X198059210Y-68874424D01*
X198059209Y-68874425D01*
X198009096Y-68903359D01*
X198009095Y-68903360D01*
X197965689Y-68928420D01*
X197922285Y-68953479D01*
X197922282Y-68953481D01*
X197810478Y-69065286D01*
X197624522Y-69251241D01*
X197563199Y-69284726D01*
X197498523Y-69281491D01*
X197456245Y-69267754D01*
X197316272Y-69245584D01*
X197246287Y-69234500D01*
X197033713Y-69234500D01*
X196985042Y-69242208D01*
X196823760Y-69267753D01*
X196621585Y-69333444D01*
X196432179Y-69429951D01*
X196260213Y-69554890D01*
X196109890Y-69705213D01*
X195984949Y-69877182D01*
X195980484Y-69885946D01*
X195932509Y-69936742D01*
X195864688Y-69953536D01*
X195798553Y-69930998D01*
X195759516Y-69885946D01*
X195755050Y-69877182D01*
X195630109Y-69705213D01*
X195479786Y-69554890D01*
X195307820Y-69429951D01*
X195118414Y-69333444D01*
X195118413Y-69333443D01*
X195118412Y-69333443D01*
X194916243Y-69267754D01*
X194916241Y-69267753D01*
X194916240Y-69267753D01*
X194754957Y-69242208D01*
X194706287Y-69234500D01*
X194493713Y-69234500D01*
X194445042Y-69242208D01*
X194283760Y-69267753D01*
X194081585Y-69333444D01*
X193892179Y-69429951D01*
X193720213Y-69554890D01*
X193569890Y-69705213D01*
X193444949Y-69877182D01*
X193440484Y-69885946D01*
X193392509Y-69936742D01*
X193324688Y-69953536D01*
X193258553Y-69930998D01*
X193219516Y-69885946D01*
X193215050Y-69877182D01*
X193090109Y-69705213D01*
X192939786Y-69554890D01*
X192767820Y-69429951D01*
X192578414Y-69333444D01*
X192578413Y-69333443D01*
X192578412Y-69333443D01*
X192376243Y-69267754D01*
X192376241Y-69267753D01*
X192376240Y-69267753D01*
X192214957Y-69242208D01*
X192166287Y-69234500D01*
X191953713Y-69234500D01*
X191905042Y-69242208D01*
X191743760Y-69267753D01*
X191541585Y-69333444D01*
X191352179Y-69429951D01*
X191180215Y-69554889D01*
X191066285Y-69668819D01*
X191004962Y-69702303D01*
X190935270Y-69697319D01*
X190879337Y-69655447D01*
X190862422Y-69624470D01*
X190813354Y-69492913D01*
X190813350Y-69492906D01*
X190727190Y-69377812D01*
X190727187Y-69377809D01*
X190612093Y-69291649D01*
X190612086Y-69291645D01*
X190477379Y-69241403D01*
X190477372Y-69241401D01*
X190417844Y-69235000D01*
X189770000Y-69235000D01*
X189770000Y-70151988D01*
X189712993Y-70119075D01*
X189585826Y-70085000D01*
X189454174Y-70085000D01*
X189327007Y-70119075D01*
X189270000Y-70151988D01*
X189270000Y-69235000D01*
X188622155Y-69235000D01*
X188562627Y-69241401D01*
X188562620Y-69241403D01*
X188427913Y-69291645D01*
X188427906Y-69291649D01*
X188312812Y-69377809D01*
X188312809Y-69377812D01*
X188226649Y-69492906D01*
X188226645Y-69492913D01*
X188176403Y-69627620D01*
X188176401Y-69627627D01*
X188170000Y-69687155D01*
X180500500Y-69687155D01*
X180500500Y-60624500D01*
X180520185Y-60557461D01*
X180572989Y-60511706D01*
X180624500Y-60500500D01*
X224375500Y-60500500D01*
X224442539Y-60520185D01*
G37*
%TD.AperFunction*%
%TD*%
M02*
