%TF.GenerationSoftware,KiCad,Pcbnew,9.0.5-9.0.5~ubuntu24.04.1*%
%TF.CreationDate,2025-12-03T14:21:07-08:00*%
%TF.ProjectId,Motor_Joint_Splitter_V2,4d6f746f-725f-44a6-9f69-6e745f53706c,rev?*%
%TF.SameCoordinates,Original*%
%TF.FileFunction,Copper,L1,Top*%
%TF.FilePolarity,Positive*%
%FSLAX46Y46*%
G04 Gerber Fmt 4.6, Leading zero omitted, Abs format (unit mm)*
G04 Created by KiCad (PCBNEW 9.0.5-9.0.5~ubuntu24.04.1) date 2025-12-03 14:21:07*
%MOMM*%
%LPD*%
G01*
G04 APERTURE LIST*
G04 Aperture macros list*
%AMRoundRect*
0 Rectangle with rounded corners*
0 $1 Rounding radius*
0 $2 $3 $4 $5 $6 $7 $8 $9 X,Y pos of 4 corners*
0 Add a 4 corners polygon primitive as box body*
4,1,4,$2,$3,$4,$5,$6,$7,$8,$9,$2,$3,0*
0 Add four circle primitives for the rounded corners*
1,1,$1+$1,$2,$3*
1,1,$1+$1,$4,$5*
1,1,$1+$1,$6,$7*
1,1,$1+$1,$8,$9*
0 Add four rect primitives between the rounded corners*
20,1,$1+$1,$2,$3,$4,$5,0*
20,1,$1+$1,$4,$5,$6,$7,0*
20,1,$1+$1,$6,$7,$8,$9,0*
20,1,$1+$1,$8,$9,$2,$3,0*%
G04 Aperture macros list end*
%TA.AperFunction,ComponentPad*%
%ADD10C,2.260600*%
%TD*%
%TA.AperFunction,ComponentPad*%
%ADD11R,1.700000X1.700000*%
%TD*%
%TA.AperFunction,ComponentPad*%
%ADD12C,1.700000*%
%TD*%
%TA.AperFunction,ComponentPad*%
%ADD13C,3.600000*%
%TD*%
%TA.AperFunction,ConnectorPad*%
%ADD14C,5.600000*%
%TD*%
%TA.AperFunction,ComponentPad*%
%ADD15R,1.268000X1.268000*%
%TD*%
%TA.AperFunction,ComponentPad*%
%ADD16C,1.268000*%
%TD*%
%TA.AperFunction,SMDPad,CuDef*%
%ADD17R,1.422400X0.355600*%
%TD*%
%TA.AperFunction,ComponentPad*%
%ADD18R,1.458000X1.458000*%
%TD*%
%TA.AperFunction,ComponentPad*%
%ADD19C,1.458000*%
%TD*%
%TA.AperFunction,ConnectorPad*%
%ADD20C,5.700000*%
%TD*%
%TA.AperFunction,SMDPad,CuDef*%
%ADD21RoundRect,0.112500X-0.187500X-0.112500X0.187500X-0.112500X0.187500X0.112500X-0.187500X0.112500X0*%
%TD*%
%TA.AperFunction,SMDPad,CuDef*%
%ADD22RoundRect,0.140000X-0.140000X-0.170000X0.140000X-0.170000X0.140000X0.170000X-0.140000X0.170000X0*%
%TD*%
%TA.AperFunction,ViaPad*%
%ADD23C,0.600000*%
%TD*%
%TA.AperFunction,Conductor*%
%ADD24C,0.200000*%
%TD*%
%TA.AperFunction,Conductor*%
%ADD25C,0.500000*%
%TD*%
G04 APERTURE END LIST*
D10*
%TO.P,J2,1,1*%
%TO.N,/Sin*%
X214899600Y-84294050D03*
%TO.P,J2,2,2*%
%TO.N,/Cos*%
X210939600Y-84294050D03*
%TO.P,J2,3,3*%
%TO.N,GND*%
X206979601Y-84294050D03*
%TD*%
D11*
%TO.P,J9,1,Pin_1*%
%TO.N,GND*%
X189520000Y-70585000D03*
D12*
%TO.P,J9,2,Pin_2*%
%TO.N,/SEA_I*%
X192060000Y-70585000D03*
%TO.P,J9,3,Pin_3*%
%TO.N,/SEA_A*%
X194600000Y-70585000D03*
%TO.P,J9,4,Pin_4*%
%TO.N,+5V*%
X197140000Y-70585000D03*
%TO.P,J9,5,Pin_5*%
%TO.N,/SEA_B*%
X199680000Y-70585000D03*
%TD*%
D13*
%TO.P,H3,1,1*%
%TO.N,GND*%
X221500000Y-63500000D03*
D14*
X221500000Y-63500000D03*
%TD*%
D15*
%TO.P,J7,1*%
%TO.N,+5V*%
X191155000Y-90450000D03*
D16*
%TO.P,J7,2*%
%TO.N,/C_A_Out_2*%
X192425000Y-87910000D03*
%TO.P,J7,3*%
%TO.N,/C_B_Out_2*%
X193695000Y-90450000D03*
%TO.P,J7,4*%
%TO.N,/C_I_Out_2*%
X194965000Y-87910000D03*
%TO.P,J7,5*%
%TO.N,/SEA_I_Out_2*%
X196235000Y-90450000D03*
%TO.P,J7,6*%
%TO.N,/SEA_A_Out_2*%
X197505000Y-87910000D03*
%TO.P,J7,7*%
%TO.N,/SEA_B_Out_2*%
X198775000Y-90450000D03*
%TO.P,J7,8*%
%TO.N,GND*%
X200045000Y-87910000D03*
%TD*%
D13*
%TO.P,H1,1,1*%
%TO.N,GND*%
X183500000Y-101500000D03*
D14*
X183500000Y-101500000D03*
%TD*%
D17*
%TO.P,U2,1,~OE1*%
%TO.N,GND*%
X194755200Y-74279000D03*
%TO.P,U2,2,I0*%
%TO.N,/SEA_B*%
X194755200Y-74914000D03*
%TO.P,U2,3,O4*%
%TO.N,/C_I_Out*%
X194755200Y-75574400D03*
%TO.P,U2,4,I1*%
%TO.N,/SEA_A*%
X194755200Y-76234800D03*
%TO.P,U2,5,O5*%
%TO.N,/C_B_Out*%
X194755200Y-76869800D03*
%TO.P,U2,6,I2*%
%TO.N,/SEA_I*%
X194755200Y-77530200D03*
%TO.P,U2,7,O6*%
%TO.N,/C_A_Out*%
X194755200Y-78165200D03*
%TO.P,U2,8,I3*%
%TO.N,GND*%
X194755200Y-78825600D03*
%TO.P,U2,9,O7*%
X194755200Y-79486000D03*
%TO.P,U2,10,GND*%
X194755200Y-80121000D03*
%TO.P,U2,11,I7*%
X200444800Y-80121000D03*
%TO.P,U2,12,O3*%
X200444800Y-79486000D03*
%TO.P,U2,13,I6*%
%TO.N,/C_A*%
X200444800Y-78825600D03*
%TO.P,U2,14,O2*%
%TO.N,/SEA_I_Out*%
X200444800Y-78165200D03*
%TO.P,U2,15,I5*%
%TO.N,/C_B*%
X200444800Y-77530200D03*
%TO.P,U2,16,O1*%
%TO.N,/SEA_A_Out*%
X200444800Y-76869800D03*
%TO.P,U2,17,I4*%
%TO.N,/C_I*%
X200444800Y-76234800D03*
%TO.P,U2,18,O0*%
%TO.N,/SEA_B_Out*%
X200444800Y-75574400D03*
%TO.P,U2,19,~OE2*%
%TO.N,GND*%
X200444800Y-74914000D03*
%TO.P,U2,20,VCC*%
%TO.N,+5V*%
X200444800Y-74279000D03*
%TD*%
D13*
%TO.P,H2,1,1*%
%TO.N,GND*%
X221500000Y-101500000D03*
D14*
X221500000Y-101500000D03*
%TD*%
D18*
%TO.P,J8,1,1*%
%TO.N,/Sin*%
X215462500Y-66350000D03*
D19*
%TO.P,J8,2,2*%
%TO.N,GND*%
X213962500Y-68350000D03*
%TO.P,J8,3,3*%
%TO.N,/Cos*%
X212462500Y-66350000D03*
%TO.P,J8,4,4*%
%TO.N,+5V*%
X210962500Y-68350000D03*
%TO.P,J8,5,5*%
%TO.N,GND*%
X209462500Y-66350000D03*
%TO.P,J8,6,6*%
%TO.N,/C_A*%
X207962500Y-68350000D03*
%TO.P,J8,7,7*%
%TO.N,/C_B*%
X206462500Y-66350000D03*
%TO.P,J8,8,8*%
%TO.N,/C_I*%
X204962500Y-68350000D03*
%TD*%
D13*
%TO.P,H4,1,1*%
%TO.N,GND*%
X183500000Y-63500000D03*
D20*
X183500000Y-63500000D03*
%TD*%
D21*
%TO.P,D4,1*%
%TO.N,GND*%
X187350000Y-84400000D03*
%TO.P,D4,2*%
%TO.N,+5V*%
X189450000Y-84400000D03*
%TD*%
D22*
%TO.P,C2,1*%
%TO.N,+5V*%
X200500000Y-73200000D03*
%TO.P,C2,2*%
%TO.N,GND*%
X201500000Y-73200000D03*
%TD*%
%TO.P,C1,1*%
%TO.N,GND*%
X209700000Y-70600000D03*
%TO.P,C1,2*%
%TO.N,+5V*%
X210700000Y-70600000D03*
%TD*%
D23*
%TO.N,GND*%
X204000000Y-101800000D03*
X202000000Y-63600000D03*
X204000000Y-96600000D03*
X204000000Y-91200000D03*
X221400000Y-96800000D03*
X221400000Y-91600000D03*
X221400000Y-86400000D03*
X221400000Y-81200000D03*
X221400000Y-75800000D03*
X221400000Y-70400000D03*
X183800000Y-96600000D03*
X204000000Y-86400000D03*
X209000000Y-78400000D03*
X183800000Y-91400000D03*
X183800000Y-86200000D03*
X183800000Y-81200000D03*
X183800000Y-75800000D03*
X183600000Y-70400000D03*
X185800000Y-84400000D03*
X191000000Y-75800000D03*
X198400000Y-76200000D03*
%TO.N,+5V*%
X190400000Y-76600000D03*
X205400000Y-77600000D03*
X197600000Y-84400000D03*
%TO.N,/SEA_B_Out*%
X199000000Y-75600000D03*
%TO.N,/C_I_Out*%
X196200000Y-75600000D03*
%TO.N,/C_B_Out*%
X196200000Y-76800000D03*
%TO.N,/C_A_Out*%
X196200000Y-78200000D03*
%TO.N,/SEA_I_Out*%
X199000000Y-78200000D03*
%TO.N,/SEA_A_Out*%
X199000000Y-76800000D03*
%TD*%
D24*
%TO.N,GND*%
X187350000Y-84400000D02*
X185800000Y-84400000D01*
%TO.N,+5V*%
X191155000Y-84400000D02*
X197600000Y-84400000D01*
X191155000Y-90450000D02*
X191155000Y-84400000D01*
X189450000Y-84400000D02*
X191155000Y-84400000D01*
X191155000Y-84400000D02*
X191155000Y-84200000D01*
%TO.N,GND*%
X198400000Y-76200000D02*
X198400000Y-75350057D01*
X196801000Y-78599000D02*
X196574400Y-78825600D01*
X196574400Y-78825600D02*
X194755200Y-78825600D01*
X206035860Y-65320000D02*
X208432500Y-65320000D01*
X202000000Y-73200000D02*
X202535000Y-73735000D01*
X209700000Y-66587500D02*
X209462500Y-66350000D01*
X194755200Y-79555200D02*
X191000000Y-75800000D01*
X198400000Y-78609600D02*
X198400000Y-76200000D01*
X195728943Y-74279000D02*
X196801000Y-75351057D01*
X203932500Y-67423360D02*
X206035860Y-65320000D01*
X196801000Y-75351057D02*
X196801000Y-78599000D01*
X194755200Y-80121000D02*
X194755200Y-79555200D01*
X200444800Y-80121000D02*
X199911400Y-80121000D01*
X203932500Y-72337500D02*
X203932500Y-67423360D01*
X189520000Y-74320000D02*
X189520000Y-70585000D01*
X202535000Y-73735000D02*
X203932500Y-72337500D01*
X198836057Y-74914000D02*
X200444800Y-74914000D01*
X201500000Y-73200000D02*
X202000000Y-73200000D01*
X194755200Y-74279000D02*
X195728943Y-74279000D01*
X199911400Y-80121000D02*
X198400000Y-78609600D01*
X198400000Y-75350057D02*
X198836057Y-74914000D01*
X191000000Y-75800000D02*
X189520000Y-74320000D01*
X208432500Y-65320000D02*
X209462500Y-66350000D01*
X200444800Y-79486000D02*
X200444800Y-80121000D01*
X201356000Y-74914000D02*
X202535000Y-73735000D01*
X194755200Y-78825600D02*
X194755200Y-80121000D01*
X200444800Y-74914000D02*
X201356000Y-74914000D01*
%TO.N,/C_I*%
X201356000Y-76234800D02*
X200444800Y-76234800D01*
X204962500Y-72628300D02*
X201356000Y-76234800D01*
X204962500Y-68350000D02*
X204962500Y-72628300D01*
%TO.N,/C_A*%
X201356000Y-78825600D02*
X200444800Y-78825600D01*
X207962500Y-72219100D02*
X201356000Y-78825600D01*
X207962500Y-68350000D02*
X207962500Y-72219100D01*
%TO.N,+5V*%
X200831000Y-71203181D02*
X200831000Y-70108240D01*
X191155000Y-84200000D02*
X191155000Y-77355000D01*
X197600000Y-74434181D02*
X197755181Y-74279000D01*
X191155000Y-77355000D02*
X190400000Y-76600000D01*
X197755181Y-74279000D02*
X200831000Y-71203181D01*
X204400000Y-77600000D02*
X205400000Y-77600000D01*
X197600000Y-84400000D02*
X197600000Y-74434181D01*
X200831000Y-70108240D02*
X200156760Y-69434000D01*
X200500000Y-73200000D02*
X200500000Y-74223800D01*
X198291000Y-69434000D02*
X197140000Y-70585000D01*
X200444800Y-74279000D02*
X197755181Y-74279000D01*
X200156760Y-69434000D02*
X198291000Y-69434000D01*
X191155000Y-90450000D02*
X191350000Y-90450000D01*
X200500000Y-74223800D02*
X200444800Y-74279000D01*
X205400000Y-77600000D02*
X205400000Y-76400000D01*
X197600000Y-84400000D02*
X204400000Y-77600000D01*
%TO.N,/C_B*%
X206462500Y-66350000D02*
X206462500Y-72537500D01*
X206462500Y-72537500D02*
X201469800Y-77530200D01*
X201469800Y-77530200D02*
X200444800Y-77530200D01*
D25*
%TO.N,/Sin*%
X215462500Y-83731150D02*
X214899600Y-84294050D01*
X215462500Y-66350000D02*
X215462500Y-83731150D01*
%TO.N,/Cos*%
X212462500Y-82771150D02*
X210939600Y-84294050D01*
X212462500Y-66350000D02*
X212462500Y-82771150D01*
D24*
%TO.N,/SEA_A*%
X192999000Y-75389800D02*
X193844000Y-76234800D01*
X192999000Y-72186000D02*
X192999000Y-75389800D01*
X193844000Y-76234800D02*
X194755200Y-76234800D01*
X194600000Y-70585000D02*
X192999000Y-72186000D01*
%TO.N,/SEA_I*%
X192060000Y-75746200D02*
X193844000Y-77530200D01*
X192060000Y-70585000D02*
X192060000Y-75746200D01*
X193844000Y-77530200D02*
X194755200Y-77530200D01*
%TO.N,/SEA_B*%
X193400000Y-74470000D02*
X193844000Y-74914000D01*
X199680000Y-71787081D02*
X198267081Y-73200000D01*
X193400000Y-73200000D02*
X193400000Y-74470000D01*
X199680000Y-70585000D02*
X199680000Y-71787081D01*
X193844000Y-74914000D02*
X194755200Y-74914000D01*
X198267081Y-73200000D02*
X193400000Y-73200000D01*
%TO.N,/SEA_B_Out*%
X199025600Y-75574400D02*
X199000000Y-75600000D01*
X200444800Y-75574400D02*
X199025600Y-75574400D01*
%TO.N,/C_I_Out*%
X196174400Y-75574400D02*
X196200000Y-75600000D01*
X194755200Y-75574400D02*
X196174400Y-75574400D01*
%TO.N,/C_B_Out*%
X196130200Y-76869800D02*
X196200000Y-76800000D01*
X194755200Y-76869800D02*
X196130200Y-76869800D01*
%TO.N,/C_A_Out*%
X196165200Y-78165200D02*
X196200000Y-78200000D01*
X194755200Y-78165200D02*
X196165200Y-78165200D01*
%TO.N,/SEA_I_Out*%
X199034800Y-78165200D02*
X199000000Y-78200000D01*
X200444800Y-78165200D02*
X199034800Y-78165200D01*
%TO.N,/SEA_A_Out*%
X199069800Y-76869800D02*
X199000000Y-76800000D01*
X200444800Y-76869800D02*
X199069800Y-76869800D01*
%TO.N,GND*%
X209700000Y-70600000D02*
X209700000Y-66587500D01*
%TO.N,+5V*%
X210962500Y-70337500D02*
X210700000Y-70600000D01*
X210700000Y-71100000D02*
X210700000Y-70600000D01*
X205400000Y-76400000D02*
X210700000Y-71100000D01*
X210962500Y-68350000D02*
X210962500Y-70337500D01*
%TD*%
%TA.AperFunction,Conductor*%
%TO.N,GND*%
G36*
X224442539Y-60520185D02*
G01*
X224488294Y-60572989D01*
X224499500Y-60624500D01*
X224499500Y-104375500D01*
X224479815Y-104442539D01*
X224427011Y-104488294D01*
X224375500Y-104499500D01*
X180624500Y-104499500D01*
X180557461Y-104479815D01*
X180511706Y-104427011D01*
X180500500Y-104375500D01*
X180500500Y-96678711D01*
X188034500Y-96678711D01*
X188034500Y-96921288D01*
X188066161Y-97161785D01*
X188128947Y-97396104D01*
X188221773Y-97620205D01*
X188221776Y-97620212D01*
X188343064Y-97830289D01*
X188343066Y-97830292D01*
X188343067Y-97830293D01*
X188490733Y-98022736D01*
X188490739Y-98022743D01*
X188662256Y-98194260D01*
X188662262Y-98194265D01*
X188854711Y-98341936D01*
X189064788Y-98463224D01*
X189288900Y-98556054D01*
X189523211Y-98618838D01*
X189703586Y-98642584D01*
X189763711Y-98650500D01*
X189763712Y-98650500D01*
X190006289Y-98650500D01*
X190054388Y-98644167D01*
X190246789Y-98618838D01*
X190481100Y-98556054D01*
X190705212Y-98463224D01*
X190915289Y-98341936D01*
X191107738Y-98194265D01*
X191279265Y-98022738D01*
X191426936Y-97830289D01*
X191548224Y-97620212D01*
X191641054Y-97396100D01*
X191703838Y-97161789D01*
X191735500Y-96921288D01*
X191735500Y-96678712D01*
X191735500Y-96678711D01*
X199464500Y-96678711D01*
X199464500Y-96921288D01*
X199496161Y-97161785D01*
X199558947Y-97396104D01*
X199651773Y-97620205D01*
X199651776Y-97620212D01*
X199773064Y-97830289D01*
X199773066Y-97830292D01*
X199773067Y-97830293D01*
X199920733Y-98022736D01*
X199920739Y-98022743D01*
X200092256Y-98194260D01*
X200092262Y-98194265D01*
X200284711Y-98341936D01*
X200494788Y-98463224D01*
X200718900Y-98556054D01*
X200953211Y-98618838D01*
X201133586Y-98642584D01*
X201193711Y-98650500D01*
X201193712Y-98650500D01*
X201436289Y-98650500D01*
X201484388Y-98644167D01*
X201676789Y-98618838D01*
X201911100Y-98556054D01*
X202135212Y-98463224D01*
X202345289Y-98341936D01*
X202537738Y-98194265D01*
X202709265Y-98022738D01*
X202856936Y-97830289D01*
X202978224Y-97620212D01*
X203071054Y-97396100D01*
X203133838Y-97161789D01*
X203165500Y-96921288D01*
X203165500Y-96678712D01*
X203133838Y-96438211D01*
X203071054Y-96203900D01*
X202978224Y-95979788D01*
X202856936Y-95769711D01*
X202709265Y-95577262D01*
X202709260Y-95577256D01*
X202537743Y-95405739D01*
X202537736Y-95405733D01*
X202345293Y-95258067D01*
X202345292Y-95258066D01*
X202345289Y-95258064D01*
X202135212Y-95136776D01*
X202135205Y-95136773D01*
X201911104Y-95043947D01*
X201676785Y-94981161D01*
X201436289Y-94949500D01*
X201436288Y-94949500D01*
X201193712Y-94949500D01*
X201193711Y-94949500D01*
X200953214Y-94981161D01*
X200718895Y-95043947D01*
X200494794Y-95136773D01*
X200494785Y-95136777D01*
X200284706Y-95258067D01*
X200092263Y-95405733D01*
X200092256Y-95405739D01*
X199920739Y-95577256D01*
X199920733Y-95577263D01*
X199773067Y-95769706D01*
X199651777Y-95979785D01*
X199651773Y-95979794D01*
X199558947Y-96203895D01*
X199496161Y-96438214D01*
X199464500Y-96678711D01*
X191735500Y-96678711D01*
X191703838Y-96438211D01*
X191641054Y-96203900D01*
X191548224Y-95979788D01*
X191426936Y-95769711D01*
X191279265Y-95577262D01*
X191279260Y-95577256D01*
X191107743Y-95405739D01*
X191107736Y-95405733D01*
X190915293Y-95258067D01*
X190915292Y-95258066D01*
X190915289Y-95258064D01*
X190705212Y-95136776D01*
X190705205Y-95136773D01*
X190481104Y-95043947D01*
X190246785Y-94981161D01*
X190006289Y-94949500D01*
X190006288Y-94949500D01*
X189763712Y-94949500D01*
X189763711Y-94949500D01*
X189523214Y-94981161D01*
X189288895Y-95043947D01*
X189064794Y-95136773D01*
X189064785Y-95136777D01*
X188854706Y-95258067D01*
X188662263Y-95405733D01*
X188662256Y-95405739D01*
X188490739Y-95577256D01*
X188490733Y-95577263D01*
X188343067Y-95769706D01*
X188221777Y-95979785D01*
X188221773Y-95979794D01*
X188128947Y-96203895D01*
X188066161Y-96438214D01*
X188034500Y-96678711D01*
X180500500Y-96678711D01*
X180500500Y-84174998D01*
X186557358Y-84174998D01*
X186557360Y-84175000D01*
X187025500Y-84175000D01*
X187034185Y-84177550D01*
X187043146Y-84176262D01*
X187067184Y-84187240D01*
X187092539Y-84194685D01*
X187098466Y-84201526D01*
X187106702Y-84205287D01*
X187120989Y-84227519D01*
X187138294Y-84247489D01*
X187140581Y-84258003D01*
X187144477Y-84264065D01*
X187149500Y-84298999D01*
X187149501Y-84500999D01*
X187129817Y-84568039D01*
X187077013Y-84613794D01*
X187025501Y-84625000D01*
X186557360Y-84625000D01*
X186557358Y-84625001D01*
X186595906Y-84757681D01*
X186595907Y-84757684D01*
X186674682Y-84890885D01*
X186674688Y-84890894D01*
X186784105Y-85000311D01*
X186784114Y-85000317D01*
X186917315Y-85079092D01*
X186917318Y-85079093D01*
X187065915Y-85122265D01*
X187065927Y-85122267D01*
X187100646Y-85124999D01*
X187149285Y-85124999D01*
X187216324Y-85144682D01*
X187262080Y-85197485D01*
X187267477Y-85211488D01*
X187292226Y-85289466D01*
X187292231Y-85289479D01*
X187416379Y-85550526D01*
X187574910Y-85792225D01*
X187574917Y-85792235D01*
X187684835Y-85918295D01*
X187764891Y-86010108D01*
X187841254Y-86076692D01*
X187982765Y-86200083D01*
X187982773Y-86200088D01*
X187982774Y-86200089D01*
X188224473Y-86358620D01*
X188224476Y-86358621D01*
X188224477Y-86358622D01*
X188485526Y-86482771D01*
X188761048Y-86570218D01*
X188951570Y-86603067D01*
X189014289Y-86633855D01*
X189050406Y-86693665D01*
X189054500Y-86725263D01*
X189054500Y-88402003D01*
X189034815Y-88469042D01*
X189018181Y-88489684D01*
X189005270Y-88502594D01*
X189005254Y-88502612D01*
X188833775Y-88731682D01*
X188833770Y-88731690D01*
X188696635Y-88982833D01*
X188596628Y-89250962D01*
X188535804Y-89530566D01*
X188520500Y-89744549D01*
X188520500Y-91155450D01*
X188535804Y-91369433D01*
X188596628Y-91649037D01*
X188596630Y-91649043D01*
X188596631Y-91649046D01*
X188625470Y-91726365D01*
X188696635Y-91917166D01*
X188833770Y-92168309D01*
X188833775Y-92168317D01*
X189005254Y-92397387D01*
X189005270Y-92397405D01*
X189207594Y-92599729D01*
X189207612Y-92599745D01*
X189436682Y-92771224D01*
X189436690Y-92771229D01*
X189687833Y-92908364D01*
X189687832Y-92908364D01*
X189687836Y-92908365D01*
X189687839Y-92908367D01*
X189955954Y-93008369D01*
X189955960Y-93008370D01*
X189955962Y-93008371D01*
X190235566Y-93069195D01*
X190235568Y-93069195D01*
X190235572Y-93069196D01*
X190449552Y-93084500D01*
X191860448Y-93084500D01*
X192074428Y-93069196D01*
X192354046Y-93008369D01*
X192622161Y-92908367D01*
X192622170Y-92908361D01*
X192626185Y-92906529D01*
X192626693Y-92907643D01*
X192689620Y-92893934D01*
X192721765Y-92900579D01*
X192881381Y-92956431D01*
X192964516Y-92985521D01*
X192964525Y-92985524D01*
X192964528Y-92985525D01*
X193253010Y-93051370D01*
X193253019Y-93051371D01*
X193253024Y-93051372D01*
X193449036Y-93073456D01*
X193547044Y-93084499D01*
X193547047Y-93084500D01*
X193547050Y-93084500D01*
X193842953Y-93084500D01*
X193842954Y-93084499D01*
X193993222Y-93067568D01*
X194136975Y-93051372D01*
X194136978Y-93051371D01*
X194136990Y-93051370D01*
X194425472Y-92985525D01*
X194704768Y-92887796D01*
X194911200Y-92788382D01*
X194980139Y-92777031D01*
X195018797Y-92788381D01*
X195225232Y-92887796D01*
X195504528Y-92985525D01*
X195793010Y-93051370D01*
X195793019Y-93051371D01*
X195793024Y-93051372D01*
X195989036Y-93073456D01*
X196087044Y-93084499D01*
X196087047Y-93084500D01*
X196087050Y-93084500D01*
X196382953Y-93084500D01*
X196382954Y-93084499D01*
X196533222Y-93067568D01*
X196676975Y-93051372D01*
X196676978Y-93051371D01*
X196676990Y-93051370D01*
X196965472Y-92985525D01*
X197244768Y-92887796D01*
X197451200Y-92788382D01*
X197520139Y-92777031D01*
X197558797Y-92788381D01*
X197765232Y-92887796D01*
X198044528Y-92985525D01*
X198333010Y-93051370D01*
X198333019Y-93051371D01*
X198333024Y-93051372D01*
X198529036Y-93073456D01*
X198627044Y-93084499D01*
X198627047Y-93084500D01*
X198627050Y-93084500D01*
X198922953Y-93084500D01*
X198922954Y-93084499D01*
X199073222Y-93067568D01*
X199216975Y-93051372D01*
X199216978Y-93051371D01*
X199216990Y-93051370D01*
X199505472Y-92985525D01*
X199784768Y-92887796D01*
X200051365Y-92759409D01*
X200301912Y-92601981D01*
X200533256Y-92417489D01*
X200742489Y-92208256D01*
X200926981Y-91976912D01*
X201084409Y-91726365D01*
X201212796Y-91459768D01*
X201310525Y-91180472D01*
X201376370Y-90891990D01*
X201409500Y-90597950D01*
X201409500Y-90302050D01*
X201376370Y-90008010D01*
X201310525Y-89719528D01*
X201212796Y-89440232D01*
X201084409Y-89173635D01*
X200926981Y-88923088D01*
X200742489Y-88691744D01*
X200533256Y-88482511D01*
X200301912Y-88298019D01*
X200272763Y-88279703D01*
X200220995Y-88247175D01*
X200278325Y-88214076D01*
X200349076Y-88143325D01*
X200399104Y-88056675D01*
X200425000Y-87960028D01*
X200425000Y-87936446D01*
X201005631Y-88517078D01*
X201014884Y-88504345D01*
X201095917Y-88345309D01*
X201151078Y-88175540D01*
X201179000Y-87999252D01*
X201179000Y-87820747D01*
X201151078Y-87644459D01*
X201095917Y-87474690D01*
X201014882Y-87315652D01*
X201005631Y-87302921D01*
X200425000Y-87883552D01*
X200425000Y-87859972D01*
X200399104Y-87763325D01*
X200349076Y-87676675D01*
X200278325Y-87605924D01*
X200191675Y-87555896D01*
X200118491Y-87536286D01*
X200127850Y-87482852D01*
X200151335Y-87450109D01*
X200652078Y-86949367D01*
X200639341Y-86940112D01*
X200480312Y-86859083D01*
X200310540Y-86803921D01*
X200134252Y-86776000D01*
X199960883Y-86776000D01*
X199893844Y-86756315D01*
X199849163Y-86705802D01*
X199814410Y-86633637D01*
X199805699Y-86619773D01*
X199656981Y-86383088D01*
X199472489Y-86151744D01*
X199370055Y-86049310D01*
X199336570Y-85987987D01*
X199341554Y-85918295D01*
X199359360Y-85886143D01*
X199417126Y-85810860D01*
X199516900Y-85680832D01*
X199667683Y-85419668D01*
X199740831Y-85243071D01*
X199767707Y-85202847D01*
X205047660Y-79922894D01*
X205108981Y-79889411D01*
X205151521Y-79887638D01*
X205241928Y-79899540D01*
X205249201Y-79900498D01*
X205249217Y-79900500D01*
X205249224Y-79900500D01*
X205550776Y-79900500D01*
X205550783Y-79900500D01*
X205849768Y-79861138D01*
X206141058Y-79783087D01*
X206419668Y-79667683D01*
X206680832Y-79516900D01*
X206920080Y-79333319D01*
X207133319Y-79120080D01*
X207316900Y-78880832D01*
X207467683Y-78619668D01*
X207583087Y-78341058D01*
X207661138Y-78049768D01*
X207700500Y-77750783D01*
X207700500Y-77449217D01*
X207664371Y-77174789D01*
X207675137Y-77105755D01*
X207699626Y-77070927D01*
X210000321Y-74770233D01*
X210061642Y-74736750D01*
X210131334Y-74741734D01*
X210187267Y-74783606D01*
X210211684Y-74849070D01*
X210212000Y-74857916D01*
X210212000Y-81149918D01*
X210192315Y-81216957D01*
X210139511Y-81262712D01*
X210115595Y-81270809D01*
X210071514Y-81280870D01*
X209739605Y-81397010D01*
X209422789Y-81549581D01*
X209125042Y-81736668D01*
X208850115Y-81955914D01*
X208601464Y-82204565D01*
X208382218Y-82479492D01*
X208195135Y-82777232D01*
X208122302Y-82928470D01*
X208075479Y-82980329D01*
X208008051Y-82998641D01*
X207941428Y-82977593D01*
X207937697Y-82974986D01*
X207834063Y-82899692D01*
X207605416Y-82783190D01*
X207361367Y-82703894D01*
X207107907Y-82663750D01*
X206851295Y-82663750D01*
X206597836Y-82703894D01*
X206597833Y-82703894D01*
X206353785Y-82783190D01*
X206125134Y-82899695D01*
X206017211Y-82978105D01*
X206017210Y-82978106D01*
X206559763Y-83520659D01*
X206420992Y-83613383D01*
X206298934Y-83735441D01*
X206206210Y-83874212D01*
X205663657Y-83331659D01*
X205663656Y-83331660D01*
X205585246Y-83439583D01*
X205468741Y-83668234D01*
X205389445Y-83912282D01*
X205389445Y-83912285D01*
X205349301Y-84165743D01*
X205349301Y-84422356D01*
X205389445Y-84675814D01*
X205389445Y-84675817D01*
X205468741Y-84919865D01*
X205585244Y-85148513D01*
X205663657Y-85256438D01*
X205663657Y-85256439D01*
X206206209Y-84713886D01*
X206298934Y-84852659D01*
X206420992Y-84974717D01*
X206559762Y-85067440D01*
X206017210Y-85609992D01*
X206125137Y-85688406D01*
X206353785Y-85804909D01*
X206597834Y-85884205D01*
X206851295Y-85924350D01*
X207107907Y-85924350D01*
X207361365Y-85884205D01*
X207361368Y-85884205D01*
X207605416Y-85804909D01*
X207834064Y-85688406D01*
X207937696Y-85613113D01*
X208003502Y-85589633D01*
X208071556Y-85605458D01*
X208120251Y-85655564D01*
X208122302Y-85659629D01*
X208195135Y-85810867D01*
X208292817Y-85966327D01*
X208382219Y-86108609D01*
X208416618Y-86151744D01*
X208601108Y-86383088D01*
X208601465Y-86383535D01*
X208850115Y-86632185D01*
X209125041Y-86851431D01*
X209422787Y-87038517D01*
X209739607Y-87191090D01*
X210071515Y-87307229D01*
X210071517Y-87307229D01*
X210071518Y-87307230D01*
X210414345Y-87385478D01*
X210763774Y-87424849D01*
X210763775Y-87424850D01*
X210763778Y-87424850D01*
X211115425Y-87424850D01*
X211115425Y-87424849D01*
X211464855Y-87385478D01*
X211807682Y-87307230D01*
X212139593Y-87191090D01*
X212456413Y-87038517D01*
X212754159Y-86851431D01*
X212842287Y-86781150D01*
X212906974Y-86754742D01*
X212975669Y-86767499D01*
X212996911Y-86781150D01*
X213085041Y-86851431D01*
X213382787Y-87038517D01*
X213699607Y-87191090D01*
X214031515Y-87307229D01*
X214031517Y-87307229D01*
X214031518Y-87307230D01*
X214374345Y-87385478D01*
X214723774Y-87424849D01*
X214723775Y-87424850D01*
X214723778Y-87424850D01*
X215075425Y-87424850D01*
X215075425Y-87424849D01*
X215424855Y-87385478D01*
X215767682Y-87307230D01*
X216099593Y-87191090D01*
X216416413Y-87038517D01*
X216714159Y-86851431D01*
X216989085Y-86632185D01*
X217237735Y-86383535D01*
X217456981Y-86108609D01*
X217644067Y-85810863D01*
X217796640Y-85494043D01*
X217912780Y-85162132D01*
X217991028Y-84819305D01*
X218030400Y-84469872D01*
X218030400Y-84118228D01*
X217991028Y-83768795D01*
X217912780Y-83425968D01*
X217796640Y-83094057D01*
X217755088Y-83007774D01*
X217725280Y-82945876D01*
X217713000Y-82892074D01*
X217713000Y-68425969D01*
X217732685Y-68358930D01*
X217737717Y-68351679D01*
X217878726Y-68163315D01*
X218015867Y-67912161D01*
X218115869Y-67644046D01*
X218137181Y-67546076D01*
X218176695Y-67364433D01*
X218176695Y-67364432D01*
X218176696Y-67364428D01*
X218192000Y-67150448D01*
X218192000Y-65549552D01*
X218176696Y-65335572D01*
X218145642Y-65192820D01*
X218115871Y-65055962D01*
X218115870Y-65055960D01*
X218115869Y-65055954D01*
X218015867Y-64787839D01*
X218005049Y-64768028D01*
X217878729Y-64536690D01*
X217878724Y-64536682D01*
X217707245Y-64307612D01*
X217707229Y-64307594D01*
X217504905Y-64105270D01*
X217504887Y-64105254D01*
X217275817Y-63933775D01*
X217275809Y-63933770D01*
X217024666Y-63796635D01*
X217024667Y-63796635D01*
X216827356Y-63723042D01*
X216756546Y-63696631D01*
X216756543Y-63696630D01*
X216756537Y-63696628D01*
X216476933Y-63635804D01*
X216262950Y-63620500D01*
X216262948Y-63620500D01*
X214662052Y-63620500D01*
X214662049Y-63620500D01*
X214448066Y-63635804D01*
X214168462Y-63696628D01*
X213900332Y-63796635D01*
X213745746Y-63881046D01*
X213677473Y-63895898D01*
X213632519Y-63883934D01*
X213564675Y-63851262D01*
X213508683Y-63824298D01*
X213219324Y-63723046D01*
X213219312Y-63723042D01*
X212920432Y-63654825D01*
X212920414Y-63654822D01*
X212615791Y-63620500D01*
X212615785Y-63620500D01*
X212309215Y-63620500D01*
X212309208Y-63620500D01*
X212004585Y-63654822D01*
X212004567Y-63654825D01*
X211705687Y-63723042D01*
X211705675Y-63723046D01*
X211416316Y-63824298D01*
X211140111Y-63957311D01*
X210880529Y-64120418D01*
X210640841Y-64311562D01*
X210424062Y-64528341D01*
X210232918Y-64768029D01*
X210069811Y-65027611D01*
X210022094Y-65126696D01*
X209975271Y-65178556D01*
X209907844Y-65196868D01*
X209872056Y-65190825D01*
X209750293Y-65151262D01*
X209559229Y-65121000D01*
X209365771Y-65121000D01*
X209174707Y-65151262D01*
X209174700Y-65151263D01*
X209052941Y-65190825D01*
X208983100Y-65192820D01*
X208923268Y-65156739D01*
X208902907Y-65126701D01*
X208855187Y-65027609D01*
X208692081Y-64768028D01*
X208500937Y-64528341D01*
X208284159Y-64311563D01*
X208044472Y-64120419D01*
X207784891Y-63957313D01*
X207784888Y-63957311D01*
X207508683Y-63824298D01*
X207219324Y-63723046D01*
X207219312Y-63723042D01*
X206920432Y-63654825D01*
X206920414Y-63654822D01*
X206615791Y-63620500D01*
X206615785Y-63620500D01*
X206309215Y-63620500D01*
X206309208Y-63620500D01*
X206004585Y-63654822D01*
X206004567Y-63654825D01*
X205705687Y-63723042D01*
X205705675Y-63723046D01*
X205416316Y-63824298D01*
X205140111Y-63957311D01*
X204880529Y-64120418D01*
X204640841Y-64311562D01*
X204424062Y-64528341D01*
X204232918Y-64768029D01*
X204069811Y-65027611D01*
X203936798Y-65303816D01*
X203835546Y-65593175D01*
X203835543Y-65593184D01*
X203779592Y-65838322D01*
X203745483Y-65899300D01*
X203712503Y-65922449D01*
X203640111Y-65957311D01*
X203380529Y-66120418D01*
X203140841Y-66311562D01*
X202924062Y-66528341D01*
X202732918Y-66768029D01*
X202569811Y-67027611D01*
X202436798Y-67303816D01*
X202335546Y-67593175D01*
X202335542Y-67593187D01*
X202267325Y-67892067D01*
X202267322Y-67892085D01*
X202233000Y-68196708D01*
X202233000Y-68240321D01*
X202213315Y-68307360D01*
X202160511Y-68353115D01*
X202091353Y-68363059D01*
X202027797Y-68334034D01*
X202021319Y-68328002D01*
X201544693Y-67851376D01*
X201544686Y-67851370D01*
X201326239Y-67683750D01*
X201087798Y-67546086D01*
X201087780Y-67546076D01*
X200833390Y-67440704D01*
X200700409Y-67405072D01*
X200567426Y-67369440D01*
X200567420Y-67369439D01*
X200567415Y-67369438D01*
X200294444Y-67333501D01*
X200294439Y-67333500D01*
X200294434Y-67333500D01*
X198428674Y-67333500D01*
X198153326Y-67333500D01*
X198153320Y-67333500D01*
X198153315Y-67333501D01*
X197880344Y-67369438D01*
X197880337Y-67369439D01*
X197880334Y-67369440D01*
X197614372Y-67440704D01*
X197614368Y-67440705D01*
X197614358Y-67440708D01*
X197359982Y-67546074D01*
X197359971Y-67546079D01*
X197121527Y-67683746D01*
X197121511Y-67683757D01*
X197088776Y-67708876D01*
X197023607Y-67734070D01*
X197013290Y-67734500D01*
X196979914Y-67734500D01*
X196661783Y-67770345D01*
X196661771Y-67770347D01*
X196349637Y-67841589D01*
X196349635Y-67841590D01*
X196047439Y-67947332D01*
X196047435Y-67947334D01*
X195923801Y-68006873D01*
X195854860Y-68018225D01*
X195816199Y-68006873D01*
X195692564Y-67947334D01*
X195692560Y-67947332D01*
X195390364Y-67841590D01*
X195390362Y-67841589D01*
X195149471Y-67786607D01*
X195078229Y-67770347D01*
X195078225Y-67770346D01*
X195078216Y-67770345D01*
X194760085Y-67734500D01*
X194760081Y-67734500D01*
X194439919Y-67734500D01*
X194439914Y-67734500D01*
X194121783Y-67770345D01*
X194121771Y-67770347D01*
X193809637Y-67841589D01*
X193809635Y-67841590D01*
X193507439Y-67947332D01*
X193507435Y-67947334D01*
X193383801Y-68006873D01*
X193314860Y-68018225D01*
X193276199Y-68006873D01*
X193152564Y-67947334D01*
X193152560Y-67947332D01*
X192850364Y-67841590D01*
X192850362Y-67841589D01*
X192609471Y-67786607D01*
X192538229Y-67770347D01*
X192538225Y-67770346D01*
X192538216Y-67770345D01*
X192220085Y-67734500D01*
X192220081Y-67734500D01*
X191899919Y-67734500D01*
X191899914Y-67734500D01*
X191581783Y-67770345D01*
X191581771Y-67770347D01*
X191269637Y-67841589D01*
X191269635Y-67841590D01*
X190967440Y-67947332D01*
X190678989Y-68086243D01*
X190407900Y-68256580D01*
X190157587Y-68456197D01*
X189931197Y-68682587D01*
X189731580Y-68932900D01*
X189561243Y-69203989D01*
X189505720Y-69319284D01*
X189458897Y-69371144D01*
X189391470Y-69389456D01*
X189324846Y-69368408D01*
X189280178Y-69314681D01*
X189270000Y-69265482D01*
X189270000Y-69235000D01*
X188622155Y-69235000D01*
X188562627Y-69241401D01*
X188562620Y-69241403D01*
X188427913Y-69291645D01*
X188427906Y-69291649D01*
X188312812Y-69377809D01*
X188312809Y-69377812D01*
X188226649Y-69492906D01*
X188226645Y-69492913D01*
X188176403Y-69627620D01*
X188176401Y-69627627D01*
X188170000Y-69687155D01*
X188170000Y-70335000D01*
X189085500Y-70335000D01*
X189086772Y-70335373D01*
X189054075Y-70392007D01*
X189020000Y-70519174D01*
X189020000Y-70650826D01*
X189054075Y-70777993D01*
X189086821Y-70834712D01*
X189085500Y-70835000D01*
X188170000Y-70835000D01*
X188170000Y-71482844D01*
X188176401Y-71542372D01*
X188176403Y-71542379D01*
X188226645Y-71677086D01*
X188226649Y-71677093D01*
X188312809Y-71792187D01*
X188312812Y-71792190D01*
X188427906Y-71878350D01*
X188427913Y-71878354D01*
X188562620Y-71928596D01*
X188562627Y-71928598D01*
X188622155Y-71934999D01*
X188622172Y-71935000D01*
X189270000Y-71935000D01*
X189270000Y-71904517D01*
X189289685Y-71837478D01*
X189342489Y-71791723D01*
X189411647Y-71781779D01*
X189475203Y-71810804D01*
X189505720Y-71850715D01*
X189561243Y-71966010D01*
X189561245Y-71966013D01*
X189731581Y-72237101D01*
X189931198Y-72487413D01*
X189932447Y-72488979D01*
X189958856Y-72553666D01*
X189959500Y-72566292D01*
X189959500Y-74241229D01*
X189939815Y-74308268D01*
X189887011Y-74354023D01*
X189867594Y-74361004D01*
X189658937Y-74416914D01*
X189380338Y-74532314D01*
X189380328Y-74532318D01*
X189119168Y-74683099D01*
X188879921Y-74866679D01*
X188879914Y-74866685D01*
X188666685Y-75079914D01*
X188666679Y-75079921D01*
X188483099Y-75319168D01*
X188332318Y-75580328D01*
X188332314Y-75580338D01*
X188216913Y-75858939D01*
X188138861Y-76150233D01*
X188099501Y-76449206D01*
X188099500Y-76449223D01*
X188099500Y-76750776D01*
X188099501Y-76750793D01*
X188138861Y-77049766D01*
X188216913Y-77341060D01*
X188332314Y-77619661D01*
X188332318Y-77619671D01*
X188483099Y-77880831D01*
X188666679Y-78120078D01*
X188666685Y-78120085D01*
X188879914Y-78333314D01*
X188879921Y-78333320D01*
X189005986Y-78430052D01*
X189047189Y-78486479D01*
X189054500Y-78528428D01*
X189054500Y-82074736D01*
X189034815Y-82141775D01*
X188982011Y-82187530D01*
X188951569Y-82196933D01*
X188761051Y-82229781D01*
X188761047Y-82229782D01*
X188641329Y-82267779D01*
X188485526Y-82317229D01*
X188485523Y-82317230D01*
X188485521Y-82317231D01*
X188485516Y-82317233D01*
X188224473Y-82441379D01*
X187982774Y-82599910D01*
X187982767Y-82599915D01*
X187982765Y-82599917D01*
X187928832Y-82646943D01*
X187764891Y-82789891D01*
X187628881Y-82945876D01*
X187574917Y-83007765D01*
X187574915Y-83007767D01*
X187574915Y-83007768D01*
X187574910Y-83007774D01*
X187416379Y-83249473D01*
X187292232Y-83510519D01*
X187292226Y-83510534D01*
X187267475Y-83588514D01*
X187228431Y-83646457D01*
X187164260Y-83674093D01*
X187149288Y-83675000D01*
X187100659Y-83675000D01*
X187100635Y-83675001D01*
X187065921Y-83677733D01*
X186917318Y-83720906D01*
X186917315Y-83720907D01*
X186784114Y-83799682D01*
X186784105Y-83799688D01*
X186674688Y-83909105D01*
X186674682Y-83909114D01*
X186595907Y-84042315D01*
X186595906Y-84042318D01*
X186557358Y-84174998D01*
X180500500Y-84174998D01*
X180500500Y-60624500D01*
X180520185Y-60557461D01*
X180572989Y-60511706D01*
X180624500Y-60500500D01*
X224375500Y-60500500D01*
X224442539Y-60520185D01*
G37*
%TD.AperFunction*%
%TD*%
M02*
