%TF.GenerationSoftware,KiCad,Pcbnew,9.0.5-9.0.5~ubuntu24.04.1*%
%TF.CreationDate,2025-12-03T14:21:08-08:00*%
%TF.ProjectId,Motor_Joint_Splitter_V2,4d6f746f-725f-44a6-9f69-6e745f53706c,rev?*%
%TF.SameCoordinates,Original*%
%TF.FileFunction,Soldermask,Bot*%
%TF.FilePolarity,Negative*%
%FSLAX46Y46*%
G04 Gerber Fmt 4.6, Leading zero omitted, Abs format (unit mm)*
G04 Created by KiCad (PCBNEW 9.0.5-9.0.5~ubuntu24.04.1) date 2025-12-03 14:21:08*
%MOMM*%
%LPD*%
G01*
G04 APERTURE LIST*
G04 Aperture macros list*
%AMRoundRect*
0 Rectangle with rounded corners*
0 $1 Rounding radius*
0 $2 $3 $4 $5 $6 $7 $8 $9 X,Y pos of 4 corners*
0 Add a 4 corners polygon primitive as box body*
4,1,4,$2,$3,$4,$5,$6,$7,$8,$9,$2,$3,0*
0 Add four circle primitives for the rounded corners*
1,1,$1+$1,$2,$3*
1,1,$1+$1,$4,$5*
1,1,$1+$1,$6,$7*
1,1,$1+$1,$8,$9*
0 Add four rect primitives between the rounded corners*
20,1,$1+$1,$2,$3,$4,$5,0*
20,1,$1+$1,$4,$5,$6,$7,0*
20,1,$1+$1,$6,$7,$8,$9,0*
20,1,$1+$1,$8,$9,$2,$3,0*%
G04 Aperture macros list end*
%ADD10C,2.260600*%
%ADD11R,1.700000X1.700000*%
%ADD12C,1.700000*%
%ADD13C,3.600000*%
%ADD14C,5.600000*%
%ADD15C,3.200000*%
%ADD16RoundRect,0.102000X-0.634000X-0.634000X0.634000X-0.634000X0.634000X0.634000X-0.634000X0.634000X0*%
%ADD17C,1.472000*%
%ADD18RoundRect,0.102000X0.729000X0.729000X-0.729000X0.729000X-0.729000X-0.729000X0.729000X-0.729000X0*%
%ADD19C,1.662000*%
%ADD20C,5.700000*%
%ADD21RoundRect,0.100000X-0.100000X0.225000X-0.100000X-0.225000X0.100000X-0.225000X0.100000X0.225000X0*%
%ADD22RoundRect,0.267317X-0.470683X0.280683X-0.470683X-0.280683X0.470683X-0.280683X0.470683X0.280683X0*%
%ADD23RoundRect,0.100000X0.100000X-0.225000X0.100000X0.225000X-0.100000X0.225000X-0.100000X-0.225000X0*%
%ADD24RoundRect,0.100000X-0.225000X-0.100000X0.225000X-0.100000X0.225000X0.100000X-0.225000X0.100000X0*%
G04 APERTURE END LIST*
D10*
%TO.C,J2*%
X214899600Y-84294050D03*
X210939600Y-84294050D03*
X206979601Y-84294050D03*
%TD*%
D11*
%TO.C,J9*%
X189520000Y-70585000D03*
D12*
X192060000Y-70585000D03*
X194600000Y-70585000D03*
X197140000Y-70585000D03*
X199680000Y-70585000D03*
%TD*%
D13*
%TO.C,H3*%
X221500000Y-63500000D03*
D14*
X221500000Y-63500000D03*
%TD*%
D15*
%TO.C,J7*%
X189885000Y-96800000D03*
X201315000Y-96800000D03*
D16*
X191155000Y-90450000D03*
D17*
X192425000Y-87910000D03*
X193695000Y-90450000D03*
X194965000Y-87910000D03*
X196235000Y-90450000D03*
X197505000Y-87910000D03*
X198775000Y-90450000D03*
X200045000Y-87910000D03*
%TD*%
D13*
%TO.C,H1*%
X183500000Y-101500000D03*
D14*
X183500000Y-101500000D03*
%TD*%
D13*
%TO.C,H2*%
X221500000Y-101500000D03*
D14*
X221500000Y-101500000D03*
%TD*%
D18*
%TO.C,J8*%
X215462500Y-66350000D03*
D19*
X213962500Y-68350000D03*
X212462500Y-66350000D03*
X210962500Y-68350000D03*
X209462500Y-66350000D03*
X207962500Y-68350000D03*
X206462500Y-66350000D03*
X204962500Y-68350000D03*
%TD*%
D13*
%TO.C,H4*%
X183500000Y-63500000D03*
D20*
X183500000Y-63500000D03*
%TD*%
D21*
%TO.C,D6*%
X202750000Y-75250000D03*
X203400000Y-75250000D03*
X204050000Y-75250000D03*
X204050000Y-77150000D03*
X203400000Y-77150000D03*
X202750000Y-77150000D03*
%TD*%
D22*
%TO.C,R19*%
X194000000Y-82690000D03*
X194000000Y-84510000D03*
%TD*%
%TO.C,R13*%
X190800000Y-79690000D03*
X190800000Y-81510000D03*
%TD*%
%TO.C,R17*%
X201400000Y-82690000D03*
X201400000Y-84510000D03*
%TD*%
%TO.C,R15*%
X204000000Y-79090000D03*
X204000000Y-80910000D03*
%TD*%
D23*
%TO.C,D5*%
X192650000Y-77150000D03*
X192000000Y-77150000D03*
X191350000Y-77150000D03*
X191350000Y-75250000D03*
X192000000Y-75250000D03*
X192650000Y-75250000D03*
%TD*%
D22*
%TO.C,R14*%
X188200000Y-79690000D03*
X188200000Y-81510000D03*
%TD*%
D24*
%TO.C,D7*%
X196650000Y-83050000D03*
X196650000Y-82400000D03*
X196650000Y-81750000D03*
X198550000Y-81750000D03*
X198550000Y-82400000D03*
X198550000Y-83050000D03*
%TD*%
D22*
%TO.C,R16*%
X206600000Y-79090000D03*
X206600000Y-80910000D03*
%TD*%
M02*
