M48
; DRILL file {KiCad 9.0.5-9.0.5~ubuntu24.04.1} date 2025-12-04T16:19:20-0800
; FORMAT={-:-/ absolute / metric / decimal}
; #@! TF.CreationDate,2025-12-04T16:19:20-08:00
; #@! TF.GenerationSoftware,Kicad,Pcbnew,9.0.5-9.0.5~ubuntu24.04.1
; #@! TF.FileFunction,Plated,1,2,PTH
FMAT,2
METRIC
; #@! TA.AperFunction,Plated,PTH,ViaDrill
T1C0.300
; #@! TA.AperFunction,Plated,PTH,ComponentDrill
T2C0.760
; #@! TA.AperFunction,Plated,PTH,ComponentDrill
T3C0.950
; #@! TA.AperFunction,Plated,PTH,ComponentDrill
T4C1.000
; #@! TA.AperFunction,Plated,PTH,ComponentDrill
T5C1.753
; #@! TA.AperFunction,Plated,PTH,ComponentDrill
T6C3.200
%
G90
G05
T1
X183.6Y-70.4
X183.8Y-75.8
X183.8Y-81.2
X183.8Y-86.2
X183.8Y-91.4
X183.8Y-96.6
X185.8Y-84.4
X190.4Y-76.6
X191.0Y-75.8
X196.2Y-75.6
X196.2Y-76.8
X196.2Y-78.2
X197.6Y-84.4
X198.4Y-76.2
X199.0Y-75.6
X199.0Y-76.8
X199.0Y-78.2
X202.0Y-63.6
X202.6Y-70.2
X204.0Y-86.4
X204.0Y-91.2
X204.0Y-101.8
X205.4Y-77.6
X209.6Y-75.8
X209.6Y-81.0
X214.0Y-70.4
X214.0Y-75.8
X214.0Y-81.0
X221.4Y-70.4
X221.4Y-75.8
X221.4Y-81.2
X221.4Y-86.4
X221.4Y-91.6
X221.4Y-96.8
T2
X191.155Y-90.45
X192.425Y-87.91
X193.695Y-90.45
X194.965Y-87.91
X196.235Y-90.45
X197.505Y-87.91
X198.775Y-90.45
X200.045Y-87.91
T3
X204.962Y-68.35
X206.462Y-66.35
X207.962Y-68.35
X209.462Y-66.35
X210.962Y-68.35
X212.462Y-66.35
X213.962Y-68.35
X215.462Y-66.35
T4
X189.52Y-70.585
X192.06Y-70.585
X194.6Y-70.585
X197.14Y-70.585
X199.68Y-70.585
T5
X206.98Y-84.294
X210.94Y-84.294
X214.9Y-84.294
T6
X183.5Y-63.5
X183.5Y-101.5
X221.5Y-63.5
X221.5Y-101.5
M30
