%TF.GenerationSoftware,KiCad,Pcbnew,9.0.5-9.0.5~ubuntu24.04.1*%
%TF.CreationDate,2025-12-05T14:11:13-08:00*%
%TF.ProjectId,Motor_Joint_Splitter_V2,4d6f746f-725f-44a6-9f69-6e745f53706c,rev?*%
%TF.SameCoordinates,Original*%
%TF.FileFunction,Copper,L2,Bot*%
%TF.FilePolarity,Positive*%
%FSLAX46Y46*%
G04 Gerber Fmt 4.6, Leading zero omitted, Abs format (unit mm)*
G04 Created by KiCad (PCBNEW 9.0.5-9.0.5~ubuntu24.04.1) date 2025-12-05 14:11:13*
%MOMM*%
%LPD*%
G01*
G04 APERTURE LIST*
G04 Aperture macros list*
%AMRoundRect*
0 Rectangle with rounded corners*
0 $1 Rounding radius*
0 $2 $3 $4 $5 $6 $7 $8 $9 X,Y pos of 4 corners*
0 Add a 4 corners polygon primitive as box body*
4,1,4,$2,$3,$4,$5,$6,$7,$8,$9,$2,$3,0*
0 Add four circle primitives for the rounded corners*
1,1,$1+$1,$2,$3*
1,1,$1+$1,$4,$5*
1,1,$1+$1,$6,$7*
1,1,$1+$1,$8,$9*
0 Add four rect primitives between the rounded corners*
20,1,$1+$1,$2,$3,$4,$5,0*
20,1,$1+$1,$4,$5,$6,$7,0*
20,1,$1+$1,$6,$7,$8,$9,0*
20,1,$1+$1,$8,$9,$2,$3,0*%
G04 Aperture macros list end*
%TA.AperFunction,ComponentPad*%
%ADD10R,1.700000X1.700000*%
%TD*%
%TA.AperFunction,ComponentPad*%
%ADD11C,1.700000*%
%TD*%
%TA.AperFunction,ComponentPad*%
%ADD12C,2.260600*%
%TD*%
%TA.AperFunction,ComponentPad*%
%ADD13C,3.600000*%
%TD*%
%TA.AperFunction,ConnectorPad*%
%ADD14C,5.600000*%
%TD*%
%TA.AperFunction,ComponentPad*%
%ADD15R,1.268000X1.268000*%
%TD*%
%TA.AperFunction,ComponentPad*%
%ADD16C,1.268000*%
%TD*%
%TA.AperFunction,ComponentPad*%
%ADD17R,1.458000X1.458000*%
%TD*%
%TA.AperFunction,ComponentPad*%
%ADD18C,1.458000*%
%TD*%
%TA.AperFunction,ConnectorPad*%
%ADD19C,5.700000*%
%TD*%
%TA.AperFunction,SMDPad,CuDef*%
%ADD20RoundRect,0.100000X-0.100000X0.225000X-0.100000X-0.225000X0.100000X-0.225000X0.100000X0.225000X0*%
%TD*%
%TA.AperFunction,SMDPad,CuDef*%
%ADD21RoundRect,0.248780X-0.451220X0.261220X-0.451220X-0.261220X0.451220X-0.261220X0.451220X0.261220X0*%
%TD*%
%TA.AperFunction,SMDPad,CuDef*%
%ADD22RoundRect,0.100000X0.100000X-0.225000X0.100000X0.225000X-0.100000X0.225000X-0.100000X-0.225000X0*%
%TD*%
%TA.AperFunction,SMDPad,CuDef*%
%ADD23RoundRect,0.100000X-0.225000X-0.100000X0.225000X-0.100000X0.225000X0.100000X-0.225000X0.100000X0*%
%TD*%
%TA.AperFunction,ViaPad*%
%ADD24C,0.600000*%
%TD*%
%TA.AperFunction,Conductor*%
%ADD25C,0.200000*%
%TD*%
G04 APERTURE END LIST*
D10*
%TO.P,J9,1,Pin_1*%
%TO.N,GND*%
X189520000Y-69185000D03*
D11*
%TO.P,J9,2,Pin_2*%
%TO.N,/SEA_I*%
X192060000Y-69185000D03*
%TO.P,J9,3,Pin_3*%
%TO.N,/SEA_A*%
X194600000Y-69185000D03*
%TO.P,J9,4,Pin_4*%
%TO.N,+5V*%
X197140000Y-69185000D03*
%TO.P,J9,5,Pin_5*%
%TO.N,/SEA_B*%
X199680000Y-69185000D03*
%TD*%
D12*
%TO.P,J2,1,1*%
%TO.N,/Sin*%
X214899600Y-84294050D03*
%TO.P,J2,2,2*%
%TO.N,/Cos*%
X210939600Y-84294050D03*
%TO.P,J2,3,3*%
%TO.N,GND*%
X206979601Y-84294050D03*
%TD*%
D13*
%TO.P,H3,1,1*%
%TO.N,GND*%
X221500000Y-63500000D03*
D14*
X221500000Y-63500000D03*
%TD*%
D15*
%TO.P,J7,1*%
%TO.N,+5V*%
X191155000Y-90450000D03*
D16*
%TO.P,J7,2*%
%TO.N,/C_A_Out_2*%
X192425000Y-87910000D03*
%TO.P,J7,3*%
%TO.N,/C_B_Out_2*%
X193695000Y-90450000D03*
%TO.P,J7,4*%
%TO.N,/C_I_Out_2*%
X194965000Y-87910000D03*
%TO.P,J7,5*%
%TO.N,/SEA_I_Out_2*%
X196235000Y-90450000D03*
%TO.P,J7,6*%
%TO.N,/SEA_A_Out_2*%
X197505000Y-87910000D03*
%TO.P,J7,7*%
%TO.N,/SEA_B_Out_2*%
X198775000Y-90450000D03*
%TO.P,J7,8*%
%TO.N,GND*%
X200045000Y-87910000D03*
%TD*%
D13*
%TO.P,H1,1,1*%
%TO.N,GND*%
X183500000Y-101500000D03*
D14*
X183500000Y-101500000D03*
%TD*%
D13*
%TO.P,H2,1,1*%
%TO.N,GND*%
X221500000Y-101500000D03*
D14*
X221500000Y-101500000D03*
%TD*%
D17*
%TO.P,J8,1,1*%
%TO.N,/Sin*%
X215462500Y-66350000D03*
D18*
%TO.P,J8,2,2*%
%TO.N,GND*%
X213962500Y-68350000D03*
%TO.P,J8,3,3*%
%TO.N,/Cos*%
X212462500Y-66350000D03*
%TO.P,J8,4,4*%
%TO.N,+5V*%
X210962500Y-68350000D03*
%TO.P,J8,5,5*%
%TO.N,GND*%
X209462500Y-66350000D03*
%TO.P,J8,6,6*%
%TO.N,/C_A*%
X207962500Y-68350000D03*
%TO.P,J8,7,7*%
%TO.N,/C_B*%
X206462500Y-66350000D03*
%TO.P,J8,8,8*%
%TO.N,/C_I*%
X204962500Y-68350000D03*
%TD*%
D13*
%TO.P,H4,1,1*%
%TO.N,GND*%
X183500000Y-63500000D03*
D19*
X183500000Y-63500000D03*
%TD*%
D20*
%TO.P,D6,1,A*%
%TO.N,GND*%
X202750000Y-75250000D03*
%TO.P,D6,2,K*%
%TO.N,+5V*%
X203400000Y-75250000D03*
%TO.P,D6,3,A*%
%TO.N,/SEA_B_Out*%
X204050000Y-75250000D03*
%TO.P,D6,4,A*%
%TO.N,GND*%
X204050000Y-77150000D03*
%TO.P,D6,5,K*%
%TO.N,+5V*%
X203400000Y-77150000D03*
%TO.P,D6,6,K*%
%TO.N,/SEA_A_Out*%
X202750000Y-77150000D03*
%TD*%
D21*
%TO.P,R19,1*%
%TO.N,/C_A_Out*%
X194000000Y-82690000D03*
%TO.P,R19,2*%
%TO.N,/C_A_Out_2*%
X194000000Y-84510000D03*
%TD*%
%TO.P,R13,1*%
%TO.N,/C_B_Out*%
X190800000Y-79690000D03*
%TO.P,R13,2*%
%TO.N,/C_B_Out_2*%
X190800000Y-81510000D03*
%TD*%
%TO.P,R17,1*%
%TO.N,/SEA_I_Out*%
X201400000Y-82690000D03*
%TO.P,R17,2*%
%TO.N,/SEA_I_Out_2*%
X201400000Y-84510000D03*
%TD*%
%TO.P,R15,1*%
%TO.N,/SEA_A_Out*%
X204000000Y-79090000D03*
%TO.P,R15,2*%
%TO.N,/SEA_A_Out_2*%
X204000000Y-80910000D03*
%TD*%
D22*
%TO.P,D5,1,A*%
%TO.N,GND*%
X192650000Y-77150000D03*
%TO.P,D5,2,K*%
%TO.N,+5V*%
X192000000Y-77150000D03*
%TO.P,D5,3,K*%
%TO.N,/C_B_Out*%
X191350000Y-77150000D03*
%TO.P,D5,4,A*%
%TO.N,GND*%
X191350000Y-75250000D03*
%TO.P,D5,5,K*%
%TO.N,+5V*%
X192000000Y-75250000D03*
%TO.P,D5,6,K*%
%TO.N,/C_I_Out*%
X192650000Y-75250000D03*
%TD*%
D21*
%TO.P,R14,1*%
%TO.N,/C_I_Out*%
X188200000Y-79690000D03*
%TO.P,R14,2*%
%TO.N,/C_I_Out_2*%
X188200000Y-81510000D03*
%TD*%
D23*
%TO.P,D7,1,A*%
%TO.N,GND*%
X196650000Y-83050000D03*
%TO.P,D7,2,K*%
%TO.N,+5V*%
X196650000Y-82400000D03*
%TO.P,D7,3,A*%
%TO.N,/C_A_Out*%
X196650000Y-81750000D03*
%TO.P,D7,4,A*%
%TO.N,GND*%
X198550000Y-81750000D03*
%TO.P,D7,5,K*%
%TO.N,+5V*%
X198550000Y-82400000D03*
%TO.P,D7,6,A*%
%TO.N,/SEA_I_Out*%
X198550000Y-83050000D03*
%TD*%
D21*
%TO.P,R16,1*%
%TO.N,/SEA_B_Out*%
X206600000Y-79090000D03*
%TO.P,R16,2*%
%TO.N,/SEA_B_Out_2*%
X206600000Y-80910000D03*
%TD*%
D24*
%TO.N,+5V*%
X197600000Y-73200000D03*
%TO.N,GND*%
X202000000Y-70200000D03*
X202000000Y-63600000D03*
X214000000Y-70400000D03*
X209600000Y-81000000D03*
X209600000Y-75800000D03*
X214000000Y-75800000D03*
X214000000Y-81000000D03*
X221400000Y-96800000D03*
X183800000Y-75800000D03*
X183800000Y-81200000D03*
X183600000Y-70400000D03*
X204000000Y-86400000D03*
X221400000Y-91600000D03*
X221400000Y-86400000D03*
X191000000Y-75800000D03*
X198400000Y-76200000D03*
X183800000Y-91400000D03*
X204000000Y-91200000D03*
X221400000Y-81200000D03*
X183800000Y-86200000D03*
X183800000Y-96600000D03*
X185800000Y-84400000D03*
X204000000Y-101800000D03*
X221400000Y-70400000D03*
X221400000Y-75800000D03*
%TO.N,+5V*%
X190400000Y-76600000D03*
X205400000Y-77600000D03*
X197600000Y-84400000D03*
%TO.N,/SEA_B_Out*%
X199000000Y-75600000D03*
%TO.N,/C_I_Out*%
X196200000Y-75600000D03*
%TO.N,/C_B_Out*%
X196200000Y-76800000D03*
%TO.N,/C_A_Out*%
X196200000Y-78200000D03*
%TO.N,/SEA_I_Out*%
X199000000Y-78200000D03*
%TO.N,/SEA_A_Out*%
X199000000Y-76800000D03*
%TD*%
D25*
%TO.N,+5V*%
X197600000Y-73200000D02*
X197140000Y-72740000D01*
X197140000Y-72740000D02*
X197140000Y-69185000D01*
%TO.N,GND*%
X197005130Y-83050000D02*
X196650000Y-83050000D01*
X191350000Y-75250000D02*
X191350000Y-75574999D01*
X192650000Y-76874999D02*
X192650000Y-77150000D01*
X191350000Y-75250000D02*
X191350000Y-75450000D01*
X201800000Y-76200000D02*
X198400000Y-76200000D01*
X204050000Y-76794870D02*
X202750000Y-75494870D01*
X198550000Y-81750000D02*
X198400000Y-81600000D01*
X191350000Y-75574999D02*
X192650000Y-76874999D01*
X198305130Y-81750000D02*
X197005130Y-83050000D01*
X191350000Y-75450000D02*
X191000000Y-75800000D01*
X202750000Y-75494870D02*
X202750000Y-75250000D01*
X202750000Y-75250000D02*
X201800000Y-76200000D01*
X204050000Y-77150000D02*
X204050000Y-76794870D01*
X198400000Y-81600000D02*
X198400000Y-76200000D01*
X198550000Y-81750000D02*
X198305130Y-81750000D01*
%TO.N,+5V*%
X191618870Y-74624000D02*
X192000000Y-75005130D01*
X205400000Y-77574999D02*
X205400000Y-77600000D01*
X198225001Y-82400000D02*
X198550000Y-82400000D01*
X190400000Y-76600000D02*
X190400000Y-75200000D01*
X197600000Y-84400000D02*
X197000000Y-84400000D01*
X195800000Y-83200000D02*
X195800000Y-82800000D01*
X191731901Y-76524000D02*
X192000000Y-76792099D01*
X192000000Y-75005130D02*
X192000000Y-75250000D01*
X192000000Y-76792099D02*
X192000000Y-77150000D01*
X197000000Y-84400000D02*
X195800000Y-83200000D01*
X196200000Y-82400000D02*
X196650000Y-82400000D01*
X205224000Y-77776000D02*
X203701001Y-77776000D01*
X203701001Y-77776000D02*
X203400000Y-77474999D01*
X203400000Y-77474999D02*
X203400000Y-77150000D01*
X197600000Y-84400000D02*
X197600000Y-83025001D01*
X190976000Y-74624000D02*
X191618870Y-74624000D01*
X203400000Y-75250000D02*
X203400000Y-75574999D01*
X203400000Y-75574999D02*
X205400000Y-77574999D01*
X197600000Y-83025001D02*
X198225001Y-82400000D01*
X205400000Y-77600000D02*
X205224000Y-77776000D01*
X190400000Y-75200000D02*
X190976000Y-74624000D01*
X195800000Y-82800000D02*
X196200000Y-82400000D01*
X190400000Y-76600000D02*
X190476000Y-76524000D01*
X190476000Y-76524000D02*
X191731901Y-76524000D01*
%TO.N,/SEA_B_Out*%
X204050000Y-75250000D02*
X206600000Y-77800000D01*
X203800000Y-74600000D02*
X204050000Y-74850000D01*
X206600000Y-77800000D02*
X206600000Y-79090000D01*
X203800000Y-74600000D02*
X204000000Y-74800000D01*
X204050000Y-74850000D02*
X204050000Y-75250000D01*
X199000000Y-75600000D02*
X200000000Y-74600000D01*
X200000000Y-74600000D02*
X203800000Y-74600000D01*
%TO.N,/C_I_Out*%
X195200000Y-74600000D02*
X193000000Y-74600000D01*
X192650000Y-74925001D02*
X191947999Y-74223000D01*
X190809900Y-74223000D02*
X188200000Y-76832900D01*
X193000000Y-74600000D02*
X193000000Y-74900000D01*
X191947999Y-74223000D02*
X190809900Y-74223000D01*
X188200000Y-76832900D02*
X188200000Y-79690000D01*
X192650000Y-75250000D02*
X192650000Y-74850000D01*
X193000000Y-74900000D02*
X192650000Y-75250000D01*
X196200000Y-75600000D02*
X195200000Y-74600000D01*
X192650000Y-75250000D02*
X192650000Y-74925001D01*
%TO.N,/C_B_Out*%
X195000000Y-78000000D02*
X191600000Y-78000000D01*
X191350000Y-77750000D02*
X190800000Y-78300000D01*
X196200000Y-76800000D02*
X195000000Y-78000000D01*
X191350000Y-77600000D02*
X191350000Y-77150000D01*
X190800000Y-78300000D02*
X190800000Y-79690000D01*
X191350000Y-77750000D02*
X191350000Y-77600000D01*
X191600000Y-78000000D02*
X191350000Y-77750000D01*
X191350000Y-77600000D02*
X191250000Y-77700000D01*
%TO.N,/C_A_Out*%
X196200000Y-81300000D02*
X196650000Y-81750000D01*
X194940000Y-81750000D02*
X196650000Y-81750000D01*
X196200000Y-78200000D02*
X196200000Y-81300000D01*
X194000000Y-82690000D02*
X194940000Y-81750000D01*
%TO.N,/SEA_I_Out*%
X198550000Y-83050000D02*
X198874999Y-83050000D01*
X199176000Y-78376000D02*
X199000000Y-78200000D01*
X199176000Y-82748999D02*
X199176000Y-78376000D01*
X198874999Y-83050000D02*
X199176000Y-82748999D01*
X199176000Y-82748999D02*
X199234999Y-82690000D01*
X199234999Y-82690000D02*
X201400000Y-82690000D01*
%TO.N,/SEA_A_Out*%
X202600000Y-77300000D02*
X202750000Y-77150000D01*
X204000000Y-79090000D02*
X202750000Y-77840000D01*
X202750000Y-77840000D02*
X202750000Y-77150000D01*
X202600000Y-77800000D02*
X202600000Y-77300000D01*
X199000000Y-76800000D02*
X200000000Y-77800000D01*
X200000000Y-77800000D02*
X202600000Y-77800000D01*
%TO.N,/SEA_I_Out_2*%
X196287290Y-90450000D02*
X196235000Y-90450000D01*
X201400000Y-84510000D02*
X198440000Y-87470000D01*
X198440000Y-87470000D02*
X198440000Y-88297290D01*
X198440000Y-88297290D02*
X196287290Y-90450000D01*
%TO.N,/C_A_Out_2*%
X194000000Y-86335000D02*
X192425000Y-87910000D01*
X194000000Y-84510000D02*
X194000000Y-86335000D01*
%TO.N,/C_B_Out_2*%
X193642710Y-90450000D02*
X193695000Y-90450000D01*
X190800000Y-87607290D02*
X193642710Y-90450000D01*
X190800000Y-81510000D02*
X190800000Y-87607290D01*
%TO.N,/SEA_A_Out_2*%
X197505000Y-86908160D02*
X197505000Y-87910000D01*
X204000000Y-80910000D02*
X204000000Y-81784840D01*
X200714160Y-83699000D02*
X197505000Y-86908160D01*
X204000000Y-81784840D02*
X202085840Y-83699000D01*
X202085840Y-83699000D02*
X200714160Y-83699000D01*
%TO.N,/C_I_Out_2*%
X192760000Y-90837290D02*
X193307710Y-91385000D01*
X188200000Y-85574390D02*
X192760000Y-90134390D01*
X188200000Y-81510000D02*
X188200000Y-85574390D01*
X193307710Y-91385000D02*
X194082290Y-91385000D01*
X192760000Y-90134390D02*
X192760000Y-90837290D01*
X194082290Y-91385000D02*
X194965000Y-90502290D01*
X194965000Y-90502290D02*
X194965000Y-87910000D01*
%TO.N,/SEA_B_Out_2*%
X206600000Y-80910000D02*
X200980000Y-86530000D01*
X200980000Y-86530000D02*
X200980000Y-88297290D01*
X200980000Y-88297290D02*
X198827290Y-90450000D01*
X198827290Y-90450000D02*
X198775000Y-90450000D01*
%TD*%
%TA.AperFunction,Conductor*%
%TO.N,GND*%
G36*
X199665000Y-87960028D02*
G01*
X199690896Y-88056675D01*
X199740924Y-88143325D01*
X199811675Y-88214076D01*
X199898325Y-88264104D01*
X199994972Y-88290000D01*
X200018552Y-88290000D01*
X199437920Y-88870631D01*
X199442153Y-88924429D01*
X199427787Y-88992806D01*
X199406216Y-89021836D01*
X199123283Y-89304769D01*
X199061960Y-89338254D01*
X199016204Y-89339561D01*
X198864292Y-89315500D01*
X198864287Y-89315500D01*
X198685713Y-89315500D01*
X198685708Y-89315500D01*
X198569918Y-89333839D01*
X198500624Y-89324884D01*
X198447172Y-89279888D01*
X198426533Y-89213136D01*
X198445258Y-89145823D01*
X198462833Y-89123691D01*
X198920520Y-88666006D01*
X198970769Y-88578970D01*
X199021334Y-88530757D01*
X199083134Y-88518310D01*
X199665000Y-87936444D01*
X199665000Y-87960028D01*
G37*
%TD.AperFunction*%
%TA.AperFunction,Conductor*%
G36*
X194966942Y-75220185D02*
G01*
X194987584Y-75236819D01*
X195365425Y-75614660D01*
X195398910Y-75675983D01*
X195399361Y-75678149D01*
X195430261Y-75833491D01*
X195430264Y-75833501D01*
X195490602Y-75979172D01*
X195490609Y-75979185D01*
X195578210Y-76110288D01*
X195578213Y-76110292D01*
X195580240Y-76112319D01*
X195580962Y-76113642D01*
X195582076Y-76114999D01*
X195581818Y-76115210D01*
X195613725Y-76173642D01*
X195608741Y-76243334D01*
X195582001Y-76284939D01*
X195582076Y-76285001D01*
X195581552Y-76285639D01*
X195580240Y-76287681D01*
X195578213Y-76289707D01*
X195578210Y-76289711D01*
X195490609Y-76420814D01*
X195490602Y-76420827D01*
X195430264Y-76566498D01*
X195430261Y-76566508D01*
X195399361Y-76721850D01*
X195366976Y-76783761D01*
X195365425Y-76785339D01*
X194787584Y-77363181D01*
X194726261Y-77396666D01*
X194699903Y-77399500D01*
X193450862Y-77399500D01*
X193383823Y-77379815D01*
X193363181Y-77363181D01*
X193350000Y-77350000D01*
X192824500Y-77350000D01*
X192815814Y-77347449D01*
X192806854Y-77348738D01*
X192782815Y-77337759D01*
X192757461Y-77330315D01*
X192751533Y-77323473D01*
X192743298Y-77319713D01*
X192729009Y-77297479D01*
X192711706Y-77277511D01*
X192709418Y-77266997D01*
X192705523Y-77260936D01*
X192700500Y-77226001D01*
X192700499Y-77074001D01*
X192720183Y-77006961D01*
X192772987Y-76961206D01*
X192824499Y-76950000D01*
X193349999Y-76950000D01*
X193349999Y-76885675D01*
X193334557Y-76768371D01*
X193334555Y-76768366D01*
X193274100Y-76622414D01*
X193177924Y-76497075D01*
X193052586Y-76400899D01*
X192906631Y-76340444D01*
X192850000Y-76332987D01*
X192850000Y-76550696D01*
X192841674Y-76579048D01*
X192835945Y-76608037D01*
X192831941Y-76612196D01*
X192830315Y-76617735D01*
X192807985Y-76637083D01*
X192787491Y-76658375D01*
X192781873Y-76659709D01*
X192777511Y-76663490D01*
X192748262Y-76667695D01*
X192719514Y-76674526D01*
X192714068Y-76672612D01*
X192708353Y-76673434D01*
X192681471Y-76661157D01*
X192653596Y-76651362D01*
X192647873Y-76645813D01*
X192644797Y-76644409D01*
X192628168Y-76626886D01*
X192624591Y-76622294D01*
X192624536Y-76622159D01*
X192528282Y-76496718D01*
X192524589Y-76493884D01*
X192516844Y-76483939D01*
X192515430Y-76480359D01*
X192507288Y-76469748D01*
X192504079Y-76464190D01*
X192480520Y-76423383D01*
X192480519Y-76423382D01*
X192480518Y-76423380D01*
X192475624Y-76417002D01*
X192450430Y-76351833D01*
X192450000Y-76341516D01*
X192450000Y-76332987D01*
X192449463Y-76332517D01*
X192419698Y-76326042D01*
X192388679Y-76321205D01*
X192384745Y-76318438D01*
X192382103Y-76317864D01*
X192353849Y-76296713D01*
X192333626Y-76276490D01*
X192300141Y-76215167D01*
X192305125Y-76145475D01*
X192346997Y-76089542D01*
X192412461Y-76065125D01*
X192437491Y-76065869D01*
X192510639Y-76075500D01*
X192789360Y-76075499D01*
X192789363Y-76075499D01*
X192906753Y-76060046D01*
X192906757Y-76060044D01*
X192906762Y-76060044D01*
X193052841Y-75999536D01*
X193178282Y-75903282D01*
X193274536Y-75777841D01*
X193335044Y-75631762D01*
X193350500Y-75514361D01*
X193350499Y-75450098D01*
X193358549Y-75422682D01*
X193363630Y-75394565D01*
X193368984Y-75387141D01*
X193370183Y-75383060D01*
X193383766Y-75365579D01*
X193385268Y-75363965D01*
X193480520Y-75268716D01*
X193491155Y-75250295D01*
X193500763Y-75239981D01*
X193519178Y-75229060D01*
X193534675Y-75214285D01*
X193550620Y-75210416D01*
X193560861Y-75204344D01*
X193573741Y-75204807D01*
X193591496Y-75200500D01*
X194899903Y-75200500D01*
X194966942Y-75220185D01*
G37*
%TD.AperFunction*%
%TA.AperFunction,Conductor*%
G36*
X202642539Y-75220185D02*
G01*
X202688294Y-75272989D01*
X202699500Y-75324500D01*
X202699500Y-75326000D01*
X202679815Y-75393039D01*
X202627011Y-75438794D01*
X202575500Y-75450000D01*
X202050001Y-75450000D01*
X202050001Y-75514324D01*
X202065442Y-75631628D01*
X202065444Y-75631633D01*
X202125899Y-75777585D01*
X202222075Y-75902924D01*
X202347414Y-75999100D01*
X202493366Y-76059555D01*
X202493372Y-76059557D01*
X202549998Y-76067011D01*
X202550000Y-76067010D01*
X202550000Y-75849302D01*
X202557471Y-75823857D01*
X202561288Y-75797610D01*
X202567163Y-75790851D01*
X202569685Y-75782263D01*
X202589724Y-75764898D01*
X202607128Y-75744879D01*
X202615723Y-75742369D01*
X202622489Y-75736508D01*
X202648737Y-75732733D01*
X202674199Y-75725302D01*
X202682785Y-75727838D01*
X202691647Y-75726564D01*
X202715770Y-75737580D01*
X202741207Y-75745094D01*
X202750034Y-75753228D01*
X202755203Y-75755589D01*
X202767843Y-75768250D01*
X202774853Y-75776366D01*
X202775464Y-75777841D01*
X202871718Y-75903282D01*
X202909530Y-75932296D01*
X202917825Y-75941900D01*
X202918680Y-75943782D01*
X202922331Y-75947431D01*
X202924349Y-75950059D01*
X202940421Y-75991590D01*
X202946748Y-76005502D01*
X202946490Y-76007272D01*
X202949566Y-76015219D01*
X202950000Y-76025580D01*
X202950000Y-76067010D01*
X202971357Y-76064199D01*
X202975123Y-76064786D01*
X202978696Y-76063454D01*
X203009375Y-76070128D01*
X203040392Y-76074965D01*
X203044325Y-76077730D01*
X203046969Y-76078306D01*
X203075223Y-76099457D01*
X203104264Y-76128498D01*
X203137749Y-76189821D01*
X203132765Y-76259513D01*
X203090893Y-76315446D01*
X203025429Y-76339863D01*
X203000398Y-76339118D01*
X202889361Y-76324500D01*
X202610636Y-76324500D01*
X202493246Y-76339953D01*
X202493237Y-76339956D01*
X202347160Y-76400463D01*
X202221718Y-76496718D01*
X202125463Y-76622160D01*
X202064956Y-76768237D01*
X202064955Y-76768239D01*
X202049501Y-76885629D01*
X202049500Y-76885645D01*
X202049500Y-77021636D01*
X202044721Y-77055729D01*
X202041864Y-77065717D01*
X202040423Y-77068215D01*
X202029599Y-77108609D01*
X202029318Y-77109593D01*
X202011172Y-77138270D01*
X201993506Y-77167254D01*
X201992536Y-77167724D01*
X201991960Y-77168636D01*
X201961173Y-77182960D01*
X201930659Y-77197783D01*
X201929020Y-77197919D01*
X201928612Y-77198110D01*
X201927902Y-77198013D01*
X201910097Y-77199500D01*
X200300098Y-77199500D01*
X200233059Y-77179815D01*
X200212417Y-77163181D01*
X199834573Y-76785337D01*
X199801088Y-76724014D01*
X199800637Y-76721847D01*
X199800499Y-76721153D01*
X199769737Y-76566503D01*
X199757074Y-76535931D01*
X199709397Y-76420827D01*
X199709390Y-76420814D01*
X199621789Y-76289711D01*
X199619766Y-76287688D01*
X199619043Y-76286365D01*
X199617924Y-76285001D01*
X199618182Y-76284788D01*
X199586276Y-76226368D01*
X199591255Y-76156676D01*
X199617999Y-76115060D01*
X199617924Y-76114999D01*
X199618454Y-76114351D01*
X199619766Y-76112312D01*
X199621789Y-76110289D01*
X199709394Y-75979179D01*
X199769737Y-75833497D01*
X199791007Y-75726564D01*
X199800638Y-75678150D01*
X199833023Y-75616239D01*
X199834514Y-75614720D01*
X200212417Y-75236819D01*
X200273740Y-75203334D01*
X200300098Y-75200500D01*
X202575500Y-75200500D01*
X202642539Y-75220185D01*
G37*
%TD.AperFunction*%
%TA.AperFunction,Conductor*%
G36*
X224442539Y-60520185D02*
G01*
X224488294Y-60572989D01*
X224499500Y-60624500D01*
X224499500Y-104375500D01*
X224479815Y-104442539D01*
X224427011Y-104488294D01*
X224375500Y-104499500D01*
X180624500Y-104499500D01*
X180557461Y-104479815D01*
X180511706Y-104427011D01*
X180500500Y-104375500D01*
X180500500Y-96678711D01*
X188034500Y-96678711D01*
X188034500Y-96921288D01*
X188066161Y-97161785D01*
X188128947Y-97396104D01*
X188221773Y-97620205D01*
X188221776Y-97620212D01*
X188343064Y-97830289D01*
X188343066Y-97830292D01*
X188343067Y-97830293D01*
X188490733Y-98022736D01*
X188490739Y-98022743D01*
X188662256Y-98194260D01*
X188662262Y-98194265D01*
X188854711Y-98341936D01*
X189064788Y-98463224D01*
X189288900Y-98556054D01*
X189523211Y-98618838D01*
X189703586Y-98642584D01*
X189763711Y-98650500D01*
X189763712Y-98650500D01*
X190006289Y-98650500D01*
X190054388Y-98644167D01*
X190246789Y-98618838D01*
X190481100Y-98556054D01*
X190705212Y-98463224D01*
X190915289Y-98341936D01*
X191107738Y-98194265D01*
X191279265Y-98022738D01*
X191426936Y-97830289D01*
X191548224Y-97620212D01*
X191641054Y-97396100D01*
X191703838Y-97161789D01*
X191735500Y-96921288D01*
X191735500Y-96678712D01*
X191735500Y-96678711D01*
X199464500Y-96678711D01*
X199464500Y-96921288D01*
X199496161Y-97161785D01*
X199558947Y-97396104D01*
X199651773Y-97620205D01*
X199651776Y-97620212D01*
X199773064Y-97830289D01*
X199773066Y-97830292D01*
X199773067Y-97830293D01*
X199920733Y-98022736D01*
X199920739Y-98022743D01*
X200092256Y-98194260D01*
X200092262Y-98194265D01*
X200284711Y-98341936D01*
X200494788Y-98463224D01*
X200718900Y-98556054D01*
X200953211Y-98618838D01*
X201133586Y-98642584D01*
X201193711Y-98650500D01*
X201193712Y-98650500D01*
X201436289Y-98650500D01*
X201484388Y-98644167D01*
X201676789Y-98618838D01*
X201911100Y-98556054D01*
X202135212Y-98463224D01*
X202345289Y-98341936D01*
X202537738Y-98194265D01*
X202709265Y-98022738D01*
X202856936Y-97830289D01*
X202978224Y-97620212D01*
X203071054Y-97396100D01*
X203133838Y-97161789D01*
X203165500Y-96921288D01*
X203165500Y-96678712D01*
X203133838Y-96438211D01*
X203071054Y-96203900D01*
X202978224Y-95979788D01*
X202856936Y-95769711D01*
X202709265Y-95577262D01*
X202709260Y-95577256D01*
X202537743Y-95405739D01*
X202537736Y-95405733D01*
X202345293Y-95258067D01*
X202345292Y-95258066D01*
X202345289Y-95258064D01*
X202135212Y-95136776D01*
X202135205Y-95136773D01*
X201911104Y-95043947D01*
X201676785Y-94981161D01*
X201436289Y-94949500D01*
X201436288Y-94949500D01*
X201193712Y-94949500D01*
X201193711Y-94949500D01*
X200953214Y-94981161D01*
X200718895Y-95043947D01*
X200494794Y-95136773D01*
X200494785Y-95136777D01*
X200284706Y-95258067D01*
X200092263Y-95405733D01*
X200092256Y-95405739D01*
X199920739Y-95577256D01*
X199920733Y-95577263D01*
X199773067Y-95769706D01*
X199651777Y-95979785D01*
X199651773Y-95979794D01*
X199558947Y-96203895D01*
X199496161Y-96438214D01*
X199464500Y-96678711D01*
X191735500Y-96678711D01*
X191703838Y-96438211D01*
X191641054Y-96203900D01*
X191548224Y-95979788D01*
X191426936Y-95769711D01*
X191279265Y-95577262D01*
X191279260Y-95577256D01*
X191107743Y-95405739D01*
X191107736Y-95405733D01*
X190915293Y-95258067D01*
X190915292Y-95258066D01*
X190915289Y-95258064D01*
X190705212Y-95136776D01*
X190705205Y-95136773D01*
X190481104Y-95043947D01*
X190246785Y-94981161D01*
X190006289Y-94949500D01*
X190006288Y-94949500D01*
X189763712Y-94949500D01*
X189763711Y-94949500D01*
X189523214Y-94981161D01*
X189288895Y-95043947D01*
X189064794Y-95136773D01*
X189064785Y-95136777D01*
X188854706Y-95258067D01*
X188662263Y-95405733D01*
X188662256Y-95405739D01*
X188490739Y-95577256D01*
X188490733Y-95577263D01*
X188343067Y-95769706D01*
X188221777Y-95979785D01*
X188221773Y-95979794D01*
X188128947Y-96203895D01*
X188066161Y-96438214D01*
X188034500Y-96678711D01*
X180500500Y-96678711D01*
X180500500Y-79378842D01*
X186999500Y-79378842D01*
X186999500Y-80001157D01*
X187009983Y-80103763D01*
X187009984Y-80103770D01*
X187035537Y-80180884D01*
X187065079Y-80270035D01*
X187102045Y-80329967D01*
X187157033Y-80419115D01*
X187250237Y-80512319D01*
X187283722Y-80573642D01*
X187278738Y-80643334D01*
X187250237Y-80687681D01*
X187157033Y-80780884D01*
X187065080Y-80929962D01*
X187065078Y-80929967D01*
X187009984Y-81096229D01*
X187009983Y-81096236D01*
X186999500Y-81198842D01*
X186999500Y-81821157D01*
X187009983Y-81923763D01*
X187009984Y-81923770D01*
X187065078Y-82090032D01*
X187065080Y-82090037D01*
X187094353Y-82137495D01*
X187157032Y-82239114D01*
X187280886Y-82362968D01*
X187429965Y-82454921D01*
X187514505Y-82482935D01*
X187571948Y-82522705D01*
X187598772Y-82587220D01*
X187599500Y-82600639D01*
X187599500Y-85487720D01*
X187599499Y-85487738D01*
X187599499Y-85653444D01*
X187599498Y-85653444D01*
X187640422Y-85806173D01*
X187668313Y-85854482D01*
X187719477Y-85943102D01*
X187719481Y-85943107D01*
X187838349Y-86061975D01*
X187838355Y-86061980D01*
X190880194Y-89103819D01*
X190913679Y-89165142D01*
X190908695Y-89234834D01*
X190866823Y-89290767D01*
X190801359Y-89315184D01*
X190792513Y-89315500D01*
X190473130Y-89315500D01*
X190473123Y-89315501D01*
X190413516Y-89321908D01*
X190278671Y-89372202D01*
X190278664Y-89372206D01*
X190163455Y-89458452D01*
X190163452Y-89458455D01*
X190077206Y-89573664D01*
X190077202Y-89573671D01*
X190026908Y-89708517D01*
X190020501Y-89768116D01*
X190020500Y-89768135D01*
X190020500Y-91131870D01*
X190020501Y-91131876D01*
X190026908Y-91191483D01*
X190077202Y-91326328D01*
X190077206Y-91326335D01*
X190163452Y-91441544D01*
X190163455Y-91441547D01*
X190278664Y-91527793D01*
X190278671Y-91527797D01*
X190413517Y-91578091D01*
X190413516Y-91578091D01*
X190420444Y-91578835D01*
X190473127Y-91584500D01*
X191836872Y-91584499D01*
X191896483Y-91578091D01*
X192031331Y-91527796D01*
X192146546Y-91441546D01*
X192218537Y-91345377D01*
X192274470Y-91303508D01*
X192344162Y-91298524D01*
X192405484Y-91332009D01*
X192822849Y-91749374D01*
X192822859Y-91749385D01*
X192827189Y-91753715D01*
X192827190Y-91753716D01*
X192938994Y-91865520D01*
X193025805Y-91915639D01*
X193025807Y-91915641D01*
X193063861Y-91937611D01*
X193075925Y-91944577D01*
X193228653Y-91985501D01*
X193228656Y-91985501D01*
X193394363Y-91985501D01*
X193394379Y-91985500D01*
X193995621Y-91985500D01*
X193995637Y-91985501D01*
X194003233Y-91985501D01*
X194161344Y-91985501D01*
X194161347Y-91985501D01*
X194314075Y-91944577D01*
X194364194Y-91915639D01*
X194451006Y-91865520D01*
X194562810Y-91753716D01*
X194562810Y-91753714D01*
X194573018Y-91743507D01*
X194573020Y-91743504D01*
X195165070Y-91151453D01*
X195226391Y-91117970D01*
X195296083Y-91122954D01*
X195352016Y-91164826D01*
X195353065Y-91166248D01*
X195369649Y-91189073D01*
X195369652Y-91189077D01*
X195495923Y-91315348D01*
X195640392Y-91420311D01*
X195799503Y-91501382D01*
X195969337Y-91556565D01*
X196035478Y-91567040D01*
X196145708Y-91584500D01*
X196145713Y-91584500D01*
X196324292Y-91584500D01*
X196422273Y-91568980D01*
X196500663Y-91556565D01*
X196670497Y-91501382D01*
X196829608Y-91420311D01*
X196974077Y-91315348D01*
X197100348Y-91189077D01*
X197205311Y-91044608D01*
X197286382Y-90885497D01*
X197341565Y-90715663D01*
X197353980Y-90637273D01*
X197369500Y-90539292D01*
X197369500Y-90360714D01*
X197359737Y-90299074D01*
X197360438Y-90293649D01*
X197358526Y-90288523D01*
X197364867Y-90259369D01*
X197368691Y-90229781D01*
X197372522Y-90224177D01*
X197373377Y-90220250D01*
X197394528Y-90191996D01*
X197402187Y-90184337D01*
X197448686Y-90137837D01*
X197510007Y-90104353D01*
X197579698Y-90109337D01*
X197635632Y-90151208D01*
X197660050Y-90216672D01*
X197658839Y-90244916D01*
X197640500Y-90360706D01*
X197640500Y-90539292D01*
X197668434Y-90715659D01*
X197668435Y-90715663D01*
X197723618Y-90885497D01*
X197804689Y-91044608D01*
X197909652Y-91189077D01*
X198035923Y-91315348D01*
X198180392Y-91420311D01*
X198339503Y-91501382D01*
X198509337Y-91556565D01*
X198575478Y-91567040D01*
X198685708Y-91584500D01*
X198685713Y-91584500D01*
X198864292Y-91584500D01*
X198962273Y-91568980D01*
X199040663Y-91556565D01*
X199210497Y-91501382D01*
X199369608Y-91420311D01*
X199514077Y-91315348D01*
X199640348Y-91189077D01*
X199745311Y-91044608D01*
X199826382Y-90885497D01*
X199881565Y-90715663D01*
X199893980Y-90637273D01*
X199909500Y-90539292D01*
X199909500Y-90360714D01*
X199899737Y-90299074D01*
X199908691Y-90229781D01*
X199934529Y-90191995D01*
X200271132Y-89855392D01*
X201460520Y-88666006D01*
X201539577Y-88529074D01*
X201580501Y-88376347D01*
X201580501Y-88218232D01*
X201580501Y-88210637D01*
X201580500Y-88210619D01*
X201580500Y-86830097D01*
X201600185Y-86763058D01*
X201616819Y-86742416D01*
X204193492Y-84165743D01*
X205349301Y-84165743D01*
X205349301Y-84422356D01*
X205389445Y-84675814D01*
X205389445Y-84675817D01*
X205468741Y-84919865D01*
X205585244Y-85148513D01*
X205663657Y-85256438D01*
X205663657Y-85256439D01*
X206206209Y-84713886D01*
X206298934Y-84852659D01*
X206420992Y-84974717D01*
X206559763Y-85067440D01*
X206017210Y-85609992D01*
X206125137Y-85688406D01*
X206353785Y-85804909D01*
X206597834Y-85884205D01*
X206851295Y-85924350D01*
X207107907Y-85924350D01*
X207361365Y-85884205D01*
X207361368Y-85884205D01*
X207605416Y-85804909D01*
X207834056Y-85688410D01*
X207834062Y-85688406D01*
X207941989Y-85609992D01*
X207941990Y-85609992D01*
X207399438Y-85067440D01*
X207538210Y-84974717D01*
X207660268Y-84852659D01*
X207752991Y-84713887D01*
X208295543Y-85256439D01*
X208295543Y-85256438D01*
X208373957Y-85148511D01*
X208373961Y-85148505D01*
X208490460Y-84919865D01*
X208569756Y-84675817D01*
X208569756Y-84675814D01*
X208609901Y-84422356D01*
X208609901Y-84165743D01*
X208609894Y-84165697D01*
X209308800Y-84165697D01*
X209308800Y-84422402D01*
X209348954Y-84675930D01*
X209428279Y-84920064D01*
X209504991Y-85070617D01*
X209524750Y-85109397D01*
X209544817Y-85148779D01*
X209636008Y-85274293D01*
X209695695Y-85356445D01*
X209877205Y-85537955D01*
X210084874Y-85688835D01*
X210230610Y-85763091D01*
X210313585Y-85805370D01*
X210313587Y-85805370D01*
X210313590Y-85805372D01*
X210444449Y-85847891D01*
X210557719Y-85884695D01*
X210811248Y-85924850D01*
X210811253Y-85924850D01*
X211067952Y-85924850D01*
X211321480Y-85884695D01*
X211322988Y-85884205D01*
X211565610Y-85805372D01*
X211794326Y-85688835D01*
X212001995Y-85537955D01*
X212183505Y-85356445D01*
X212334385Y-85148776D01*
X212450922Y-84920060D01*
X212530245Y-84675930D01*
X212536967Y-84633489D01*
X212570400Y-84422402D01*
X212570400Y-84165697D01*
X213268800Y-84165697D01*
X213268800Y-84422402D01*
X213308954Y-84675930D01*
X213388279Y-84920064D01*
X213464991Y-85070617D01*
X213484750Y-85109397D01*
X213504817Y-85148779D01*
X213596008Y-85274293D01*
X213655695Y-85356445D01*
X213837205Y-85537955D01*
X214044874Y-85688835D01*
X214190610Y-85763091D01*
X214273585Y-85805370D01*
X214273587Y-85805370D01*
X214273590Y-85805372D01*
X214404449Y-85847891D01*
X214517719Y-85884695D01*
X214771248Y-85924850D01*
X214771253Y-85924850D01*
X215027952Y-85924850D01*
X215281480Y-85884695D01*
X215282988Y-85884205D01*
X215525610Y-85805372D01*
X215754326Y-85688835D01*
X215961995Y-85537955D01*
X216143505Y-85356445D01*
X216294385Y-85148776D01*
X216410922Y-84920060D01*
X216490245Y-84675930D01*
X216496967Y-84633489D01*
X216530400Y-84422402D01*
X216530400Y-84165697D01*
X216490245Y-83912169D01*
X216432822Y-83735441D01*
X216410922Y-83668040D01*
X216410920Y-83668037D01*
X216410920Y-83668035D01*
X216342850Y-83534442D01*
X216294385Y-83439324D01*
X216143505Y-83231655D01*
X215961995Y-83050145D01*
X215754326Y-82899265D01*
X215682902Y-82862872D01*
X215525614Y-82782729D01*
X215281480Y-82703404D01*
X215027952Y-82663250D01*
X215027947Y-82663250D01*
X214771253Y-82663250D01*
X214771248Y-82663250D01*
X214517719Y-82703404D01*
X214273585Y-82782729D01*
X214044870Y-82899267D01*
X213837208Y-83050142D01*
X213837202Y-83050147D01*
X213655697Y-83231652D01*
X213655692Y-83231658D01*
X213504817Y-83439320D01*
X213388279Y-83668035D01*
X213308954Y-83912169D01*
X213268800Y-84165697D01*
X212570400Y-84165697D01*
X212530245Y-83912169D01*
X212472822Y-83735441D01*
X212450922Y-83668040D01*
X212450920Y-83668037D01*
X212450920Y-83668035D01*
X212382850Y-83534442D01*
X212334385Y-83439324D01*
X212183505Y-83231655D01*
X212001995Y-83050145D01*
X211794326Y-82899265D01*
X211722902Y-82862872D01*
X211565614Y-82782729D01*
X211321480Y-82703404D01*
X211067952Y-82663250D01*
X211067947Y-82663250D01*
X210811253Y-82663250D01*
X210811248Y-82663250D01*
X210557719Y-82703404D01*
X210313585Y-82782729D01*
X210084870Y-82899267D01*
X209877208Y-83050142D01*
X209877202Y-83050147D01*
X209695697Y-83231652D01*
X209695692Y-83231658D01*
X209544817Y-83439320D01*
X209428279Y-83668035D01*
X209348954Y-83912169D01*
X209308800Y-84165697D01*
X208609894Y-84165697D01*
X208569756Y-83912285D01*
X208569756Y-83912282D01*
X208490460Y-83668234D01*
X208373957Y-83439586D01*
X208295543Y-83331660D01*
X208295543Y-83331659D01*
X207752991Y-83874211D01*
X207660268Y-83735441D01*
X207538210Y-83613383D01*
X207399438Y-83520658D01*
X207941990Y-82978106D01*
X207834064Y-82899693D01*
X207605416Y-82783190D01*
X207361367Y-82703894D01*
X207107907Y-82663750D01*
X206851295Y-82663750D01*
X206597836Y-82703894D01*
X206597833Y-82703894D01*
X206353785Y-82783190D01*
X206125134Y-82899695D01*
X206017211Y-82978105D01*
X206017210Y-82978106D01*
X206559763Y-83520659D01*
X206420992Y-83613383D01*
X206298934Y-83735441D01*
X206206210Y-83874212D01*
X205663657Y-83331659D01*
X205663656Y-83331660D01*
X205585246Y-83439583D01*
X205468741Y-83668234D01*
X205389445Y-83912282D01*
X205389445Y-83912285D01*
X205349301Y-84165743D01*
X204193492Y-84165743D01*
X206402416Y-81956819D01*
X206463739Y-81923334D01*
X206490097Y-81920500D01*
X207101145Y-81920500D01*
X207101150Y-81920500D01*
X207203769Y-81910016D01*
X207370035Y-81854921D01*
X207519114Y-81762968D01*
X207642968Y-81639114D01*
X207734921Y-81490035D01*
X207790016Y-81323769D01*
X207800500Y-81221150D01*
X207800500Y-80598850D01*
X207790016Y-80496231D01*
X207734921Y-80329965D01*
X207642968Y-80180886D01*
X207549763Y-80087681D01*
X207516278Y-80026358D01*
X207521262Y-79956666D01*
X207549763Y-79912319D01*
X207642968Y-79819114D01*
X207734921Y-79670035D01*
X207790016Y-79503769D01*
X207800500Y-79401150D01*
X207800500Y-78778850D01*
X207790016Y-78676231D01*
X207734921Y-78509965D01*
X207642968Y-78360886D01*
X207519114Y-78237032D01*
X207370035Y-78145079D01*
X207285494Y-78117065D01*
X207265463Y-78103195D01*
X207243297Y-78093073D01*
X207237248Y-78083660D01*
X207228051Y-78077293D01*
X207218696Y-78054793D01*
X207205523Y-78034295D01*
X207203064Y-78017194D01*
X207201228Y-78012778D01*
X207200500Y-77999360D01*
X207200500Y-77889060D01*
X207200501Y-77889047D01*
X207200501Y-77720944D01*
X207174192Y-77622760D01*
X207159577Y-77568216D01*
X207145212Y-77543334D01*
X207080524Y-77431290D01*
X207080518Y-77431282D01*
X204786818Y-75137582D01*
X204753333Y-75076259D01*
X204750499Y-75049901D01*
X204750499Y-74985636D01*
X204735046Y-74868246D01*
X204735044Y-74868241D01*
X204735044Y-74868238D01*
X204692458Y-74765426D01*
X204674538Y-74722163D01*
X204674535Y-74722158D01*
X204632532Y-74667418D01*
X204611132Y-74624020D01*
X204609576Y-74618214D01*
X204609576Y-74618213D01*
X204530524Y-74481290D01*
X204530518Y-74481282D01*
X204168717Y-74119481D01*
X204168709Y-74119475D01*
X204073355Y-74064423D01*
X204073353Y-74064422D01*
X204031790Y-74040425D01*
X204031789Y-74040424D01*
X204019263Y-74037067D01*
X203879057Y-73999499D01*
X203720943Y-73999499D01*
X203713347Y-73999499D01*
X203713331Y-73999500D01*
X200086670Y-73999500D01*
X200086654Y-73999499D01*
X200079058Y-73999499D01*
X199920943Y-73999499D01*
X199844579Y-74019961D01*
X199768214Y-74040423D01*
X199768209Y-74040426D01*
X199631290Y-74119475D01*
X199631282Y-74119481D01*
X198985339Y-74765425D01*
X198924016Y-74798910D01*
X198921850Y-74799361D01*
X198766508Y-74830261D01*
X198766498Y-74830264D01*
X198620827Y-74890602D01*
X198620814Y-74890609D01*
X198489711Y-74978210D01*
X198489707Y-74978213D01*
X198378213Y-75089707D01*
X198378210Y-75089711D01*
X198290609Y-75220814D01*
X198290602Y-75220827D01*
X198230264Y-75366498D01*
X198230261Y-75366510D01*
X198199500Y-75521153D01*
X198199500Y-75678846D01*
X198230261Y-75833489D01*
X198230264Y-75833501D01*
X198290602Y-75979172D01*
X198290609Y-75979185D01*
X198378210Y-76110288D01*
X198378213Y-76110292D01*
X198380240Y-76112319D01*
X198380962Y-76113642D01*
X198382076Y-76114999D01*
X198381818Y-76115210D01*
X198413725Y-76173642D01*
X198408741Y-76243334D01*
X198382001Y-76284939D01*
X198382076Y-76285001D01*
X198381552Y-76285639D01*
X198380240Y-76287681D01*
X198378213Y-76289707D01*
X198378210Y-76289711D01*
X198290609Y-76420814D01*
X198290602Y-76420827D01*
X198230264Y-76566498D01*
X198230261Y-76566510D01*
X198199500Y-76721153D01*
X198199500Y-76878846D01*
X198230261Y-77033489D01*
X198230264Y-77033501D01*
X198290602Y-77179172D01*
X198290609Y-77179185D01*
X198378210Y-77310288D01*
X198378213Y-77310292D01*
X198480240Y-77412319D01*
X198513725Y-77473642D01*
X198508741Y-77543334D01*
X198480240Y-77587681D01*
X198378213Y-77689707D01*
X198378210Y-77689711D01*
X198290609Y-77820814D01*
X198290602Y-77820827D01*
X198230264Y-77966498D01*
X198230261Y-77966510D01*
X198199500Y-78121153D01*
X198199500Y-78278846D01*
X198230261Y-78433489D01*
X198230264Y-78433501D01*
X198290602Y-78579172D01*
X198290609Y-78579185D01*
X198378210Y-78710288D01*
X198378213Y-78710292D01*
X198489706Y-78821785D01*
X198489709Y-78821787D01*
X198489711Y-78821789D01*
X198520391Y-78842288D01*
X198565195Y-78895898D01*
X198575500Y-78945390D01*
X198575500Y-80976137D01*
X198555815Y-81043176D01*
X198503011Y-81088931D01*
X198433853Y-81098875D01*
X198370297Y-81069850D01*
X198363820Y-81063819D01*
X198350000Y-81049999D01*
X198285676Y-81050000D01*
X198168371Y-81065442D01*
X198168366Y-81065444D01*
X198022414Y-81125899D01*
X197897075Y-81222075D01*
X197800899Y-81347413D01*
X197740444Y-81493368D01*
X197732987Y-81550000D01*
X197950697Y-81550000D01*
X197976141Y-81557471D01*
X198002389Y-81561288D01*
X198009147Y-81567163D01*
X198017736Y-81569685D01*
X198035100Y-81589724D01*
X198055120Y-81607128D01*
X198057629Y-81615723D01*
X198063491Y-81622489D01*
X198067265Y-81648737D01*
X198074697Y-81674199D01*
X198072160Y-81682785D01*
X198073435Y-81691647D01*
X198062418Y-81715770D01*
X198054905Y-81741207D01*
X198046770Y-81750034D01*
X198044410Y-81755203D01*
X198031749Y-81767843D01*
X198023631Y-81774854D01*
X198022159Y-81775464D01*
X197896718Y-81871718D01*
X197867702Y-81909530D01*
X197858098Y-81917826D01*
X197856206Y-81918686D01*
X197852543Y-81922350D01*
X197849915Y-81924367D01*
X197808456Y-81940400D01*
X197794496Y-81946749D01*
X197792711Y-81946489D01*
X197784749Y-81949569D01*
X197774418Y-81950000D01*
X197732990Y-81950000D01*
X197732988Y-81950001D01*
X197735800Y-81971358D01*
X197735212Y-81975123D01*
X197736545Y-81978695D01*
X197729872Y-82009369D01*
X197725034Y-82040393D01*
X197722267Y-82044327D01*
X197721693Y-82046968D01*
X197700542Y-82075222D01*
X197671501Y-82104263D01*
X197610178Y-82137748D01*
X197540486Y-82132764D01*
X197484553Y-82090892D01*
X197460136Y-82025428D01*
X197460880Y-82000406D01*
X197475500Y-81889361D01*
X197475499Y-81610640D01*
X197475499Y-81610636D01*
X197460046Y-81493246D01*
X197460044Y-81493241D01*
X197460044Y-81493238D01*
X197399536Y-81347159D01*
X197303282Y-81221718D01*
X197177841Y-81125464D01*
X197107278Y-81096236D01*
X197031762Y-81064956D01*
X197031760Y-81064955D01*
X196910337Y-81048970D01*
X196910531Y-81047494D01*
X196850758Y-81025588D01*
X196808568Y-80969895D01*
X196800500Y-80925898D01*
X196800500Y-78779765D01*
X196820185Y-78712726D01*
X196821398Y-78710874D01*
X196827050Y-78702416D01*
X196909394Y-78579179D01*
X196969737Y-78433497D01*
X197000500Y-78278842D01*
X197000500Y-78121158D01*
X197000500Y-78121155D01*
X197000499Y-78121153D01*
X196996927Y-78103195D01*
X196969737Y-77966503D01*
X196969735Y-77966498D01*
X196909397Y-77820827D01*
X196909390Y-77820814D01*
X196821789Y-77689711D01*
X196821786Y-77689707D01*
X196719760Y-77587681D01*
X196686275Y-77526358D01*
X196691259Y-77456666D01*
X196719760Y-77412319D01*
X196821786Y-77310292D01*
X196821789Y-77310289D01*
X196909394Y-77179179D01*
X196914334Y-77167254D01*
X196955356Y-77068215D01*
X196969737Y-77033497D01*
X197000500Y-76878842D01*
X197000500Y-76721158D01*
X197000500Y-76721155D01*
X197000499Y-76721153D01*
X196969737Y-76566503D01*
X196957074Y-76535931D01*
X196909397Y-76420827D01*
X196909390Y-76420814D01*
X196821789Y-76289711D01*
X196819766Y-76287688D01*
X196819043Y-76286365D01*
X196817924Y-76285001D01*
X196818182Y-76284788D01*
X196786276Y-76226368D01*
X196791255Y-76156676D01*
X196817999Y-76115060D01*
X196817924Y-76114999D01*
X196818454Y-76114351D01*
X196819766Y-76112312D01*
X196821789Y-76110289D01*
X196909394Y-75979179D01*
X196969737Y-75833497D01*
X197000500Y-75678842D01*
X197000500Y-75521158D01*
X197000500Y-75521155D01*
X197000499Y-75521153D01*
X196999141Y-75514324D01*
X196969737Y-75366503D01*
X196929233Y-75268716D01*
X196909397Y-75220827D01*
X196909390Y-75220814D01*
X196821789Y-75089711D01*
X196821786Y-75089707D01*
X196710292Y-74978213D01*
X196710288Y-74978210D01*
X196579185Y-74890609D01*
X196579172Y-74890602D01*
X196433501Y-74830264D01*
X196433491Y-74830261D01*
X196278151Y-74799362D01*
X196216241Y-74766977D01*
X196214662Y-74765426D01*
X195687590Y-74238355D01*
X195687588Y-74238352D01*
X195568717Y-74119481D01*
X195568709Y-74119475D01*
X195473355Y-74064423D01*
X195473353Y-74064422D01*
X195431790Y-74040425D01*
X195431789Y-74040424D01*
X195419263Y-74037067D01*
X195279057Y-73999499D01*
X195120943Y-73999499D01*
X195113347Y-73999499D01*
X195113331Y-73999500D01*
X192920943Y-73999500D01*
X192768216Y-74040423D01*
X192768211Y-74040425D01*
X192753262Y-74049056D01*
X192726201Y-74055620D01*
X192700110Y-74065352D01*
X192692715Y-74063743D01*
X192685362Y-74065527D01*
X192659049Y-74056419D01*
X192631837Y-74050500D01*
X192623143Y-74043992D01*
X192619335Y-74042674D01*
X192603583Y-74029349D01*
X192435589Y-73861355D01*
X192435587Y-73861352D01*
X192316716Y-73742481D01*
X192316715Y-73742480D01*
X192229903Y-73692360D01*
X192229903Y-73692359D01*
X192229899Y-73692358D01*
X192179784Y-73663423D01*
X192027056Y-73622499D01*
X191868942Y-73622499D01*
X191861346Y-73622499D01*
X191861330Y-73622500D01*
X190896569Y-73622500D01*
X190896553Y-73622499D01*
X190888957Y-73622499D01*
X190730843Y-73622499D01*
X190623487Y-73651265D01*
X190578110Y-73663424D01*
X190578109Y-73663425D01*
X190527996Y-73692359D01*
X190527995Y-73692360D01*
X190496943Y-73710288D01*
X190441185Y-73742479D01*
X190441182Y-73742481D01*
X187719481Y-76464182D01*
X187719475Y-76464190D01*
X187678057Y-76535930D01*
X187678057Y-76535931D01*
X187640423Y-76601115D01*
X187599499Y-76753843D01*
X187599499Y-76753845D01*
X187599499Y-76921946D01*
X187599500Y-76921959D01*
X187599500Y-78599360D01*
X187579815Y-78666399D01*
X187527011Y-78712154D01*
X187514510Y-78717063D01*
X187470708Y-78731578D01*
X187429967Y-78745078D01*
X187429962Y-78745080D01*
X187280884Y-78837033D01*
X187157033Y-78960884D01*
X187065080Y-79109962D01*
X187065078Y-79109967D01*
X187009984Y-79276229D01*
X187009983Y-79276236D01*
X186999500Y-79378842D01*
X180500500Y-79378842D01*
X180500500Y-68287155D01*
X188170000Y-68287155D01*
X188170000Y-68935000D01*
X189086988Y-68935000D01*
X189054075Y-68992007D01*
X189020000Y-69119174D01*
X189020000Y-69250826D01*
X189054075Y-69377993D01*
X189086988Y-69435000D01*
X188170000Y-69435000D01*
X188170000Y-70082844D01*
X188176401Y-70142372D01*
X188176403Y-70142379D01*
X188226645Y-70277086D01*
X188226649Y-70277093D01*
X188312809Y-70392187D01*
X188312812Y-70392190D01*
X188427906Y-70478350D01*
X188427913Y-70478354D01*
X188562620Y-70528596D01*
X188562627Y-70528598D01*
X188622155Y-70534999D01*
X188622172Y-70535000D01*
X189270000Y-70535000D01*
X189270000Y-69618012D01*
X189327007Y-69650925D01*
X189454174Y-69685000D01*
X189585826Y-69685000D01*
X189712993Y-69650925D01*
X189770000Y-69618012D01*
X189770000Y-70535000D01*
X190417828Y-70535000D01*
X190417844Y-70534999D01*
X190477372Y-70528598D01*
X190477379Y-70528596D01*
X190612086Y-70478354D01*
X190612093Y-70478350D01*
X190727187Y-70392190D01*
X190727190Y-70392187D01*
X190813350Y-70277093D01*
X190813354Y-70277086D01*
X190862422Y-70145529D01*
X190904293Y-70089595D01*
X190969757Y-70065178D01*
X191038030Y-70080030D01*
X191066285Y-70101181D01*
X191180213Y-70215109D01*
X191352179Y-70340048D01*
X191352181Y-70340049D01*
X191352184Y-70340051D01*
X191541588Y-70436557D01*
X191743757Y-70502246D01*
X191953713Y-70535500D01*
X191953714Y-70535500D01*
X192166286Y-70535500D01*
X192166287Y-70535500D01*
X192376243Y-70502246D01*
X192578412Y-70436557D01*
X192767816Y-70340051D01*
X192854471Y-70277093D01*
X192939786Y-70215109D01*
X192939788Y-70215106D01*
X192939792Y-70215104D01*
X193090104Y-70064792D01*
X193090106Y-70064788D01*
X193090109Y-70064786D01*
X193215048Y-69892820D01*
X193215047Y-69892820D01*
X193215051Y-69892816D01*
X193219514Y-69884054D01*
X193267488Y-69833259D01*
X193335308Y-69816463D01*
X193401444Y-69838999D01*
X193440486Y-69884056D01*
X193444951Y-69892820D01*
X193569890Y-70064786D01*
X193720213Y-70215109D01*
X193892179Y-70340048D01*
X193892181Y-70340049D01*
X193892184Y-70340051D01*
X194081588Y-70436557D01*
X194283757Y-70502246D01*
X194493713Y-70535500D01*
X194493714Y-70535500D01*
X194706286Y-70535500D01*
X194706287Y-70535500D01*
X194916243Y-70502246D01*
X195118412Y-70436557D01*
X195307816Y-70340051D01*
X195394471Y-70277093D01*
X195479786Y-70215109D01*
X195479788Y-70215106D01*
X195479792Y-70215104D01*
X195630104Y-70064792D01*
X195630106Y-70064788D01*
X195630109Y-70064786D01*
X195755048Y-69892820D01*
X195755047Y-69892820D01*
X195755051Y-69892816D01*
X195759514Y-69884054D01*
X195807488Y-69833259D01*
X195875308Y-69816463D01*
X195941444Y-69838999D01*
X195980486Y-69884056D01*
X195984951Y-69892820D01*
X196109890Y-70064786D01*
X196260213Y-70215109D01*
X196432184Y-70340051D01*
X196432184Y-70340052D01*
X196471793Y-70360233D01*
X196522590Y-70408206D01*
X196539500Y-70470718D01*
X196539500Y-72653330D01*
X196539499Y-72653348D01*
X196539499Y-72819054D01*
X196539498Y-72819054D01*
X196580423Y-72971785D01*
X196609358Y-73021900D01*
X196609359Y-73021904D01*
X196609360Y-73021904D01*
X196659479Y-73108714D01*
X196659481Y-73108717D01*
X196765426Y-73214662D01*
X196798911Y-73275985D01*
X196799362Y-73278151D01*
X196830261Y-73433491D01*
X196830264Y-73433501D01*
X196890602Y-73579172D01*
X196890609Y-73579185D01*
X196978210Y-73710288D01*
X196978213Y-73710292D01*
X197089707Y-73821786D01*
X197089711Y-73821789D01*
X197220814Y-73909390D01*
X197220827Y-73909397D01*
X197366498Y-73969735D01*
X197366503Y-73969737D01*
X197516126Y-73999499D01*
X197521153Y-74000499D01*
X197521156Y-74000500D01*
X197521158Y-74000500D01*
X197678844Y-74000500D01*
X197678845Y-74000499D01*
X197833497Y-73969737D01*
X197979179Y-73909394D01*
X198110289Y-73821789D01*
X198221789Y-73710289D01*
X198309394Y-73579179D01*
X198369737Y-73433497D01*
X198400500Y-73278842D01*
X198400500Y-73121158D01*
X198400500Y-73121155D01*
X198400499Y-73121153D01*
X198380756Y-73021900D01*
X198369737Y-72966503D01*
X198369735Y-72966498D01*
X198309397Y-72820827D01*
X198309390Y-72820814D01*
X198221789Y-72689711D01*
X198221786Y-72689707D01*
X198110292Y-72578213D01*
X198110288Y-72578210D01*
X197979185Y-72490609D01*
X197979172Y-72490602D01*
X197833494Y-72430261D01*
X197828493Y-72428744D01*
X197770058Y-72390441D01*
X197741608Y-72326626D01*
X197740500Y-72310087D01*
X197740500Y-70470718D01*
X197760185Y-70403679D01*
X197808207Y-70360233D01*
X197847815Y-70340052D01*
X197847815Y-70340051D01*
X197847816Y-70340051D01*
X197939193Y-70273661D01*
X198019786Y-70215109D01*
X198019788Y-70215106D01*
X198019792Y-70215104D01*
X198170104Y-70064792D01*
X198170106Y-70064788D01*
X198170109Y-70064786D01*
X198295048Y-69892820D01*
X198295047Y-69892820D01*
X198295051Y-69892816D01*
X198299514Y-69884054D01*
X198347488Y-69833259D01*
X198415308Y-69816463D01*
X198481444Y-69838999D01*
X198520486Y-69884056D01*
X198524951Y-69892820D01*
X198649890Y-70064786D01*
X198800213Y-70215109D01*
X198972179Y-70340048D01*
X198972181Y-70340049D01*
X198972184Y-70340051D01*
X199161588Y-70436557D01*
X199363757Y-70502246D01*
X199573713Y-70535500D01*
X199573714Y-70535500D01*
X199786286Y-70535500D01*
X199786287Y-70535500D01*
X199996243Y-70502246D01*
X200198412Y-70436557D01*
X200387816Y-70340051D01*
X200474471Y-70277093D01*
X200559786Y-70215109D01*
X200559788Y-70215106D01*
X200559792Y-70215104D01*
X200710104Y-70064792D01*
X200710106Y-70064788D01*
X200710109Y-70064786D01*
X200835048Y-69892820D01*
X200835047Y-69892820D01*
X200835051Y-69892816D01*
X200931557Y-69703412D01*
X200997246Y-69501243D01*
X201030500Y-69291287D01*
X201030500Y-69078713D01*
X200997246Y-68868757D01*
X200931557Y-68666588D01*
X200835051Y-68477184D01*
X200788081Y-68412535D01*
X200721759Y-68321249D01*
X200721758Y-68321248D01*
X200710107Y-68305211D01*
X200658126Y-68253230D01*
X203733000Y-68253230D01*
X203733000Y-68446769D01*
X203763255Y-68637791D01*
X203763274Y-68637909D01*
X203823078Y-68821964D01*
X203910804Y-68994138D01*
X203910938Y-68994400D01*
X203910939Y-68994403D01*
X203933235Y-69025090D01*
X204024690Y-69150966D01*
X204161534Y-69287810D01*
X204249922Y-69352028D01*
X204318096Y-69401560D01*
X204318097Y-69401560D01*
X204318101Y-69401563D01*
X204490536Y-69489422D01*
X204674591Y-69549226D01*
X204770163Y-69564363D01*
X204865731Y-69579500D01*
X204865736Y-69579500D01*
X205059269Y-69579500D01*
X205146148Y-69565739D01*
X205250409Y-69549226D01*
X205434464Y-69489422D01*
X205606899Y-69401563D01*
X205763466Y-69287810D01*
X205900310Y-69150966D01*
X206014063Y-68994399D01*
X206101922Y-68821964D01*
X206161726Y-68637909D01*
X206178659Y-68530998D01*
X206192000Y-68446769D01*
X206192000Y-68253230D01*
X206175486Y-68148975D01*
X206161726Y-68062091D01*
X206101922Y-67878036D01*
X206101920Y-67878033D01*
X206101920Y-67878031D01*
X206041675Y-67759794D01*
X206022634Y-67722423D01*
X206009739Y-67653758D01*
X206036015Y-67589017D01*
X206093122Y-67548760D01*
X206162927Y-67545768D01*
X206171428Y-67548198D01*
X206174591Y-67549226D01*
X206246270Y-67560578D01*
X206365731Y-67579500D01*
X206365736Y-67579500D01*
X206559269Y-67579500D01*
X206727337Y-67552880D01*
X206750409Y-67549226D01*
X206753557Y-67548202D01*
X206754820Y-67548166D01*
X206755144Y-67548089D01*
X206755160Y-67548157D01*
X206823395Y-67546204D01*
X206883230Y-67582281D01*
X206914062Y-67644980D01*
X206906101Y-67714395D01*
X206902364Y-67722426D01*
X206823080Y-67878028D01*
X206793792Y-67968165D01*
X206763274Y-68062091D01*
X206763273Y-68062094D01*
X206763273Y-68062096D01*
X206733000Y-68253230D01*
X206733000Y-68446769D01*
X206763255Y-68637791D01*
X206763274Y-68637909D01*
X206823078Y-68821964D01*
X206910804Y-68994138D01*
X206910938Y-68994400D01*
X206910939Y-68994403D01*
X206933235Y-69025090D01*
X207024690Y-69150966D01*
X207161534Y-69287810D01*
X207249922Y-69352028D01*
X207318096Y-69401560D01*
X207318097Y-69401560D01*
X207318101Y-69401563D01*
X207490536Y-69489422D01*
X207674591Y-69549226D01*
X207770163Y-69564363D01*
X207865731Y-69579500D01*
X207865736Y-69579500D01*
X208059269Y-69579500D01*
X208146148Y-69565739D01*
X208250409Y-69549226D01*
X208434464Y-69489422D01*
X208606899Y-69401563D01*
X208763466Y-69287810D01*
X208900310Y-69150966D01*
X209014063Y-68994399D01*
X209101922Y-68821964D01*
X209161726Y-68637909D01*
X209178659Y-68530998D01*
X209192000Y-68446769D01*
X209192000Y-68253230D01*
X209175486Y-68148975D01*
X209161726Y-68062091D01*
X209101922Y-67878036D01*
X209101920Y-67878033D01*
X209101919Y-67878028D01*
X209022315Y-67721796D01*
X209009419Y-67653127D01*
X209035696Y-67588387D01*
X209092802Y-67548130D01*
X209162608Y-67545138D01*
X209171129Y-67547575D01*
X209174706Y-67548737D01*
X209365771Y-67579000D01*
X209559229Y-67579000D01*
X209750290Y-67548738D01*
X209753866Y-67547576D01*
X209823706Y-67545572D01*
X209883544Y-67581644D01*
X209914380Y-67644341D01*
X209906425Y-67713757D01*
X209902684Y-67721796D01*
X209823080Y-67878028D01*
X209793792Y-67968165D01*
X209763274Y-68062091D01*
X209763273Y-68062094D01*
X209763273Y-68062096D01*
X209733000Y-68253230D01*
X209733000Y-68446769D01*
X209763255Y-68637791D01*
X209763274Y-68637909D01*
X209823078Y-68821964D01*
X209910804Y-68994138D01*
X209910938Y-68994400D01*
X209910939Y-68994403D01*
X209933235Y-69025090D01*
X210024690Y-69150966D01*
X210161534Y-69287810D01*
X210249922Y-69352028D01*
X210318096Y-69401560D01*
X210318097Y-69401560D01*
X210318101Y-69401563D01*
X210490536Y-69489422D01*
X210674591Y-69549226D01*
X210770163Y-69564363D01*
X210865731Y-69579500D01*
X210865736Y-69579500D01*
X211059269Y-69579500D01*
X211146148Y-69565739D01*
X211250409Y-69549226D01*
X211434464Y-69489422D01*
X211606899Y-69401563D01*
X211763466Y-69287810D01*
X211900310Y-69150966D01*
X212014063Y-68994399D01*
X212101922Y-68821964D01*
X212161726Y-68637909D01*
X212178659Y-68530998D01*
X212192000Y-68446769D01*
X212192000Y-68253230D01*
X212175486Y-68148975D01*
X212161726Y-68062091D01*
X212101922Y-67878036D01*
X212101920Y-67878033D01*
X212101920Y-67878031D01*
X212041675Y-67759794D01*
X212022634Y-67722423D01*
X212009739Y-67653758D01*
X212036015Y-67589017D01*
X212093122Y-67548760D01*
X212162927Y-67545768D01*
X212171428Y-67548198D01*
X212174591Y-67549226D01*
X212246270Y-67560578D01*
X212365731Y-67579500D01*
X212365736Y-67579500D01*
X212559269Y-67579500D01*
X212669288Y-67562074D01*
X212750409Y-67549226D01*
X212754228Y-67547984D01*
X212824064Y-67545984D01*
X212883900Y-67582059D01*
X212914734Y-67644757D01*
X212906776Y-67714172D01*
X212903037Y-67722208D01*
X212823542Y-67878223D01*
X212763761Y-68062208D01*
X212733500Y-68253270D01*
X212733500Y-68446729D01*
X212763761Y-68637791D01*
X212823542Y-68821776D01*
X212911365Y-68994136D01*
X212933855Y-69025089D01*
X212933856Y-69025090D01*
X213499949Y-68458996D01*
X213519870Y-68533343D01*
X213582405Y-68641657D01*
X213670843Y-68730095D01*
X213779157Y-68792630D01*
X213853502Y-68812550D01*
X213287409Y-69378643D01*
X213287409Y-69378644D01*
X213318363Y-69401134D01*
X213490723Y-69488957D01*
X213674708Y-69548738D01*
X213865771Y-69579000D01*
X214059229Y-69579000D01*
X214250291Y-69548738D01*
X214434276Y-69488957D01*
X214606638Y-69401132D01*
X214606645Y-69401128D01*
X214637589Y-69378644D01*
X214637590Y-69378643D01*
X214071497Y-68812550D01*
X214145843Y-68792630D01*
X214254157Y-68730095D01*
X214342595Y-68641657D01*
X214405130Y-68533343D01*
X214425050Y-68458997D01*
X214991143Y-69025090D01*
X214991144Y-69025089D01*
X215013628Y-68994145D01*
X215013632Y-68994138D01*
X215101457Y-68821776D01*
X215161238Y-68637791D01*
X215191500Y-68446729D01*
X215191500Y-68253270D01*
X215161238Y-68062208D01*
X215101457Y-67878223D01*
X215041114Y-67759794D01*
X215028218Y-67691125D01*
X215054494Y-67626384D01*
X215111601Y-67586127D01*
X215151594Y-67579499D01*
X216239372Y-67579499D01*
X216298983Y-67573091D01*
X216433831Y-67522796D01*
X216549046Y-67436546D01*
X216635296Y-67321331D01*
X216685591Y-67186483D01*
X216692000Y-67126873D01*
X216691999Y-65573128D01*
X216685591Y-65513517D01*
X216647799Y-65412192D01*
X216635297Y-65378671D01*
X216635293Y-65378664D01*
X216549047Y-65263455D01*
X216549044Y-65263452D01*
X216433835Y-65177206D01*
X216433828Y-65177202D01*
X216298982Y-65126908D01*
X216298983Y-65126908D01*
X216239383Y-65120501D01*
X216239381Y-65120500D01*
X216239373Y-65120500D01*
X216239364Y-65120500D01*
X214685629Y-65120500D01*
X214685623Y-65120501D01*
X214626016Y-65126908D01*
X214491171Y-65177202D01*
X214491164Y-65177206D01*
X214375955Y-65263452D01*
X214375952Y-65263455D01*
X214289706Y-65378664D01*
X214289702Y-65378671D01*
X214239408Y-65513517D01*
X214235590Y-65549034D01*
X214233001Y-65573123D01*
X214233000Y-65573135D01*
X214233000Y-67003337D01*
X214213315Y-67070376D01*
X214160511Y-67116131D01*
X214091353Y-67126075D01*
X214089604Y-67125811D01*
X214059226Y-67121000D01*
X213865771Y-67121000D01*
X213674707Y-67151262D01*
X213671116Y-67152429D01*
X213601275Y-67154423D01*
X213541443Y-67118341D01*
X213510616Y-67055640D01*
X213518581Y-66986226D01*
X213522307Y-66978217D01*
X213601922Y-66821964D01*
X213661726Y-66637909D01*
X213678287Y-66533343D01*
X213692000Y-66446769D01*
X213692000Y-66253230D01*
X213675486Y-66148975D01*
X213661726Y-66062091D01*
X213601922Y-65878036D01*
X213514063Y-65705601D01*
X213514060Y-65705597D01*
X213514060Y-65705596D01*
X213481038Y-65660147D01*
X213400310Y-65549034D01*
X213263466Y-65412190D01*
X213204540Y-65369378D01*
X213106903Y-65298439D01*
X213106900Y-65298438D01*
X213106901Y-65298438D01*
X213106899Y-65298437D01*
X212934464Y-65210578D01*
X212750409Y-65150774D01*
X212750403Y-65150773D01*
X212559269Y-65120500D01*
X212559264Y-65120500D01*
X212365736Y-65120500D01*
X212365731Y-65120500D01*
X212174596Y-65150773D01*
X212174594Y-65150773D01*
X212174591Y-65150774D01*
X211990536Y-65210578D01*
X211990533Y-65210579D01*
X211990531Y-65210580D01*
X211818099Y-65298438D01*
X211818096Y-65298439D01*
X211707669Y-65378671D01*
X211661534Y-65412190D01*
X211661532Y-65412192D01*
X211661531Y-65412192D01*
X211524692Y-65549031D01*
X211524692Y-65549032D01*
X211524690Y-65549034D01*
X211507185Y-65573128D01*
X211410939Y-65705596D01*
X211410938Y-65705599D01*
X211323080Y-65878031D01*
X211323079Y-65878033D01*
X211323078Y-65878036D01*
X211263274Y-66062091D01*
X211263273Y-66062094D01*
X211263273Y-66062096D01*
X211233000Y-66253230D01*
X211233000Y-66446769D01*
X211263255Y-66637791D01*
X211263274Y-66637909D01*
X211293228Y-66730095D01*
X211323079Y-66821968D01*
X211370841Y-66915706D01*
X211402364Y-66977574D01*
X211415260Y-67046241D01*
X211388984Y-67110982D01*
X211331877Y-67151239D01*
X211262072Y-67154231D01*
X211253568Y-67151800D01*
X211250412Y-67150775D01*
X211250409Y-67150774D01*
X211250407Y-67150773D01*
X211250405Y-67150773D01*
X211059269Y-67120500D01*
X211059264Y-67120500D01*
X210865736Y-67120500D01*
X210865731Y-67120500D01*
X210674594Y-67150773D01*
X210674591Y-67150774D01*
X210670759Y-67152019D01*
X210600918Y-67154011D01*
X210541087Y-67117927D01*
X210510262Y-67055224D01*
X210518230Y-66985810D01*
X210521963Y-66977790D01*
X210601456Y-66821778D01*
X210661238Y-66637791D01*
X210691500Y-66446729D01*
X210691500Y-66253270D01*
X210661238Y-66062208D01*
X210601457Y-65878223D01*
X210513634Y-65705863D01*
X210491143Y-65674909D01*
X209925050Y-66241001D01*
X209905130Y-66166657D01*
X209842595Y-66058343D01*
X209754157Y-65969905D01*
X209645843Y-65907370D01*
X209571497Y-65887449D01*
X210137590Y-65321356D01*
X210137589Y-65321355D01*
X210106636Y-65298865D01*
X209934276Y-65211042D01*
X209750291Y-65151261D01*
X209559229Y-65121000D01*
X209365771Y-65121000D01*
X209174708Y-65151261D01*
X208990723Y-65211042D01*
X208818360Y-65298867D01*
X208787409Y-65321354D01*
X208787408Y-65321355D01*
X209353503Y-65887449D01*
X209279157Y-65907370D01*
X209170843Y-65969905D01*
X209082405Y-66058343D01*
X209019870Y-66166657D01*
X208999949Y-66241002D01*
X208433855Y-65674908D01*
X208433854Y-65674909D01*
X208411367Y-65705860D01*
X208323542Y-65878223D01*
X208263761Y-66062208D01*
X208233500Y-66253270D01*
X208233500Y-66446729D01*
X208263761Y-66637791D01*
X208323542Y-66821776D01*
X208403037Y-66977791D01*
X208415933Y-67046460D01*
X208389657Y-67111201D01*
X208332550Y-67151458D01*
X208262745Y-67154450D01*
X208254249Y-67152021D01*
X208250409Y-67150774D01*
X208250405Y-67150773D01*
X208250404Y-67150773D01*
X208059269Y-67120500D01*
X208059264Y-67120500D01*
X207865736Y-67120500D01*
X207865731Y-67120500D01*
X207674594Y-67150773D01*
X207674593Y-67150773D01*
X207671427Y-67151802D01*
X207670159Y-67151838D01*
X207669856Y-67151911D01*
X207669840Y-67151847D01*
X207601585Y-67153790D01*
X207541756Y-67117704D01*
X207510934Y-67055000D01*
X207518905Y-66985587D01*
X207522617Y-66977610D01*
X207601922Y-66821964D01*
X207661726Y-66637909D01*
X207678287Y-66533343D01*
X207692000Y-66446769D01*
X207692000Y-66253230D01*
X207675486Y-66148975D01*
X207661726Y-66062091D01*
X207601922Y-65878036D01*
X207514063Y-65705601D01*
X207514060Y-65705597D01*
X207514060Y-65705596D01*
X207481038Y-65660147D01*
X207400310Y-65549034D01*
X207263466Y-65412190D01*
X207204540Y-65369378D01*
X207106903Y-65298439D01*
X207106900Y-65298438D01*
X207106901Y-65298438D01*
X207106899Y-65298437D01*
X206934464Y-65210578D01*
X206750409Y-65150774D01*
X206750403Y-65150773D01*
X206559269Y-65120500D01*
X206559264Y-65120500D01*
X206365736Y-65120500D01*
X206365731Y-65120500D01*
X206174596Y-65150773D01*
X206174594Y-65150773D01*
X206174591Y-65150774D01*
X205990536Y-65210578D01*
X205990533Y-65210579D01*
X205990531Y-65210580D01*
X205818099Y-65298438D01*
X205818096Y-65298439D01*
X205707669Y-65378671D01*
X205661534Y-65412190D01*
X205661532Y-65412192D01*
X205661531Y-65412192D01*
X205524692Y-65549031D01*
X205524692Y-65549032D01*
X205524690Y-65549034D01*
X205507185Y-65573128D01*
X205410939Y-65705596D01*
X205410938Y-65705599D01*
X205323080Y-65878031D01*
X205323079Y-65878033D01*
X205323078Y-65878036D01*
X205263274Y-66062091D01*
X205263273Y-66062094D01*
X205263273Y-66062096D01*
X205233000Y-66253230D01*
X205233000Y-66446769D01*
X205263255Y-66637791D01*
X205263274Y-66637909D01*
X205293228Y-66730095D01*
X205323079Y-66821968D01*
X205370841Y-66915706D01*
X205402364Y-66977574D01*
X205415260Y-67046241D01*
X205388984Y-67110982D01*
X205331877Y-67151239D01*
X205262072Y-67154231D01*
X205253568Y-67151800D01*
X205250412Y-67150775D01*
X205250409Y-67150774D01*
X205250407Y-67150773D01*
X205250405Y-67150773D01*
X205059269Y-67120500D01*
X205059264Y-67120500D01*
X204865736Y-67120500D01*
X204865731Y-67120500D01*
X204674596Y-67150773D01*
X204674594Y-67150773D01*
X204674591Y-67150774D01*
X204490536Y-67210578D01*
X204490533Y-67210579D01*
X204490531Y-67210580D01*
X204318099Y-67298438D01*
X204318096Y-67298439D01*
X204200816Y-67383649D01*
X204161534Y-67412190D01*
X204161532Y-67412192D01*
X204161531Y-67412192D01*
X204024692Y-67549031D01*
X204024692Y-67549032D01*
X204024690Y-67549034D01*
X204024551Y-67549226D01*
X203910939Y-67705596D01*
X203910938Y-67705599D01*
X203823080Y-67878031D01*
X203823079Y-67878033D01*
X203823078Y-67878036D01*
X203763274Y-68062091D01*
X203763273Y-68062094D01*
X203763273Y-68062096D01*
X203733000Y-68253230D01*
X200658126Y-68253230D01*
X200559786Y-68154890D01*
X200387820Y-68029951D01*
X200198414Y-67933444D01*
X200198413Y-67933443D01*
X200198412Y-67933443D01*
X199996243Y-67867754D01*
X199996241Y-67867753D01*
X199996240Y-67867753D01*
X199834957Y-67842208D01*
X199786287Y-67834500D01*
X199573713Y-67834500D01*
X199525042Y-67842208D01*
X199363760Y-67867753D01*
X199161585Y-67933444D01*
X198972179Y-68029951D01*
X198800213Y-68154890D01*
X198649890Y-68305213D01*
X198524949Y-68477182D01*
X198520484Y-68485946D01*
X198472509Y-68536742D01*
X198404688Y-68553536D01*
X198338553Y-68530998D01*
X198299516Y-68485946D01*
X198295050Y-68477182D01*
X198170109Y-68305213D01*
X198019786Y-68154890D01*
X197847820Y-68029951D01*
X197658414Y-67933444D01*
X197658413Y-67933443D01*
X197658412Y-67933443D01*
X197456243Y-67867754D01*
X197456241Y-67867753D01*
X197456240Y-67867753D01*
X197294957Y-67842208D01*
X197246287Y-67834500D01*
X197033713Y-67834500D01*
X196985042Y-67842208D01*
X196823760Y-67867753D01*
X196621585Y-67933444D01*
X196432179Y-68029951D01*
X196260213Y-68154890D01*
X196109890Y-68305213D01*
X195984949Y-68477182D01*
X195980484Y-68485946D01*
X195932509Y-68536742D01*
X195864688Y-68553536D01*
X195798553Y-68530998D01*
X195759516Y-68485946D01*
X195755050Y-68477182D01*
X195630109Y-68305213D01*
X195479786Y-68154890D01*
X195307820Y-68029951D01*
X195118414Y-67933444D01*
X195118413Y-67933443D01*
X195118412Y-67933443D01*
X194916243Y-67867754D01*
X194916241Y-67867753D01*
X194916240Y-67867753D01*
X194754957Y-67842208D01*
X194706287Y-67834500D01*
X194493713Y-67834500D01*
X194445042Y-67842208D01*
X194283760Y-67867753D01*
X194081585Y-67933444D01*
X193892179Y-68029951D01*
X193720213Y-68154890D01*
X193569890Y-68305213D01*
X193444949Y-68477182D01*
X193440484Y-68485946D01*
X193392509Y-68536742D01*
X193324688Y-68553536D01*
X193258553Y-68530998D01*
X193219516Y-68485946D01*
X193215050Y-68477182D01*
X193090109Y-68305213D01*
X192939786Y-68154890D01*
X192767820Y-68029951D01*
X192578414Y-67933444D01*
X192578413Y-67933443D01*
X192578412Y-67933443D01*
X192376243Y-67867754D01*
X192376241Y-67867753D01*
X192376240Y-67867753D01*
X192214957Y-67842208D01*
X192166287Y-67834500D01*
X191953713Y-67834500D01*
X191905042Y-67842208D01*
X191743760Y-67867753D01*
X191541585Y-67933444D01*
X191352179Y-68029951D01*
X191180215Y-68154889D01*
X191066285Y-68268819D01*
X191004962Y-68302303D01*
X190935270Y-68297319D01*
X190879337Y-68255447D01*
X190862422Y-68224470D01*
X190813354Y-68092913D01*
X190813350Y-68092906D01*
X190727190Y-67977812D01*
X190727187Y-67977809D01*
X190612093Y-67891649D01*
X190612086Y-67891645D01*
X190477379Y-67841403D01*
X190477372Y-67841401D01*
X190417844Y-67835000D01*
X189770000Y-67835000D01*
X189770000Y-68751988D01*
X189712993Y-68719075D01*
X189585826Y-68685000D01*
X189454174Y-68685000D01*
X189327007Y-68719075D01*
X189270000Y-68751988D01*
X189270000Y-67835000D01*
X188622155Y-67835000D01*
X188562627Y-67841401D01*
X188562620Y-67841403D01*
X188427913Y-67891645D01*
X188427906Y-67891649D01*
X188312812Y-67977809D01*
X188312809Y-67977812D01*
X188226649Y-68092906D01*
X188226645Y-68092913D01*
X188176403Y-68227620D01*
X188176401Y-68227627D01*
X188170000Y-68287155D01*
X180500500Y-68287155D01*
X180500500Y-60624500D01*
X180520185Y-60557461D01*
X180572989Y-60511706D01*
X180624500Y-60500500D01*
X224375500Y-60500500D01*
X224442539Y-60520185D01*
G37*
%TD.AperFunction*%
%TD*%
M02*
