%TF.GenerationSoftware,KiCad,Pcbnew,9.0.0*%
%TF.CreationDate,2025-03-17T17:50:44-07:00*%
%TF.ProjectId,MRIRobot_PCB,4d524952-6f62-46f7-945f-5043422e6b69,rev?*%
%TF.SameCoordinates,Original*%
%TF.FileFunction,Soldermask,Bot*%
%TF.FilePolarity,Negative*%
%FSLAX46Y46*%
G04 Gerber Fmt 4.6, Leading zero omitted, Abs format (unit mm)*
G04 Created by KiCad (PCBNEW 9.0.0) date 2025-03-17 17:50:44*
%MOMM*%
%LPD*%
G01*
G04 APERTURE LIST*
G04 Aperture macros list*
%AMRoundRect*
0 Rectangle with rounded corners*
0 $1 Rounding radius*
0 $2 $3 $4 $5 $6 $7 $8 $9 X,Y pos of 4 corners*
0 Add a 4 corners polygon primitive as box body*
4,1,4,$2,$3,$4,$5,$6,$7,$8,$9,$2,$3,0*
0 Add four circle primitives for the rounded corners*
1,1,$1+$1,$2,$3*
1,1,$1+$1,$4,$5*
1,1,$1+$1,$6,$7*
1,1,$1+$1,$8,$9*
0 Add four rect primitives between the rounded corners*
20,1,$1+$1,$2,$3,$4,$5,0*
20,1,$1+$1,$4,$5,$6,$7,0*
20,1,$1+$1,$6,$7,$8,$9,0*
20,1,$1+$1,$8,$9,$2,$3,0*%
G04 Aperture macros list end*
%ADD10RoundRect,0.250000X-0.600000X-0.750000X0.600000X-0.750000X0.600000X0.750000X-0.600000X0.750000X0*%
%ADD11O,1.700000X2.000000*%
%ADD12C,3.000000*%
%ADD13R,1.605000X1.605000*%
%ADD14C,1.605000*%
%ADD15R,1.530000X1.530000*%
%ADD16C,1.530000*%
%ADD17RoundRect,0.250000X-0.600000X-0.725000X0.600000X-0.725000X0.600000X0.725000X-0.600000X0.725000X0*%
%ADD18O,1.700000X1.950000*%
%ADD19C,0.650000*%
%ADD20O,1.000000X2.100000*%
%ADD21O,1.000000X1.800000*%
%ADD22O,2.200000X3.500000*%
%ADD23R,1.500000X2.500000*%
%ADD24O,1.500000X2.500000*%
%ADD25C,3.200000*%
%ADD26R,1.600000X1.600000*%
%ADD27C,1.600000*%
%ADD28C,3.300000*%
%ADD29C,1.250000*%
%ADD30RoundRect,1.500000X-1.500000X-1.500000X1.500000X-1.500000X1.500000X1.500000X-1.500000X1.500000X0*%
%ADD31C,6.000000*%
%ADD32C,1.524000*%
%ADD33RoundRect,0.381000X-0.381000X-0.381000X0.381000X-0.381000X0.381000X0.381000X-0.381000X0.381000X0*%
%ADD34RoundRect,0.250000X-0.300000X0.300000X-0.300000X-0.300000X0.300000X-0.300000X0.300000X0.300000X0*%
%ADD35RoundRect,0.250000X-0.300000X-0.300000X0.300000X-0.300000X0.300000X0.300000X-0.300000X0.300000X0*%
%ADD36RoundRect,0.250000X-0.337500X-0.475000X0.337500X-0.475000X0.337500X0.475000X-0.337500X0.475000X0*%
%ADD37RoundRect,0.250000X-0.475000X0.337500X-0.475000X-0.337500X0.475000X-0.337500X0.475000X0.337500X0*%
%ADD38RoundRect,0.250000X0.300000X0.300000X-0.300000X0.300000X-0.300000X-0.300000X0.300000X-0.300000X0*%
%ADD39RoundRect,0.250000X-0.800000X0.450000X-0.800000X-0.450000X0.800000X-0.450000X0.800000X0.450000X0*%
%ADD40RoundRect,0.237500X0.237500X-0.250000X0.237500X0.250000X-0.237500X0.250000X-0.237500X-0.250000X0*%
%ADD41RoundRect,0.250000X0.850000X0.350000X-0.850000X0.350000X-0.850000X-0.350000X0.850000X-0.350000X0*%
%ADD42RoundRect,0.249997X2.950003X2.650003X-2.950003X2.650003X-2.950003X-2.650003X2.950003X-2.650003X0*%
%ADD43RoundRect,0.250000X0.650000X-1.500000X0.650000X1.500000X-0.650000X1.500000X-0.650000X-1.500000X0*%
%ADD44RoundRect,0.250000X-0.262500X-0.450000X0.262500X-0.450000X0.262500X0.450000X-0.262500X0.450000X0*%
%ADD45RoundRect,0.237500X-0.300000X-0.237500X0.300000X-0.237500X0.300000X0.237500X-0.300000X0.237500X0*%
G04 APERTURE END LIST*
D10*
%TO.C,J14*%
X119250000Y-111000000D03*
D11*
X121750000Y-111000000D03*
%TD*%
D12*
%TO.C,U1*%
X186020000Y-138570000D03*
X137760000Y-137300000D03*
D13*
X137760000Y-110880000D03*
D14*
X137760000Y-113420000D03*
X137760000Y-115960000D03*
X137760000Y-118500000D03*
X137760000Y-121040000D03*
X137760000Y-123580000D03*
X137760000Y-126120000D03*
X137760000Y-128660000D03*
X137760000Y-131200000D03*
X137760000Y-133740000D03*
D13*
X186020000Y-124600000D03*
D14*
X186020000Y-122060000D03*
X186020000Y-119520000D03*
X186020000Y-116980000D03*
X186020000Y-114440000D03*
X186020000Y-111900000D03*
X186020000Y-109360000D03*
X186020000Y-106820000D03*
D15*
X193640000Y-134760000D03*
D16*
X191100000Y-134760000D03*
X193640000Y-132220000D03*
X191100000Y-132220000D03*
X193640000Y-129680000D03*
X191100000Y-129680000D03*
X193640000Y-127140000D03*
X191100000Y-127140000D03*
X193640000Y-124600000D03*
X191100000Y-124600000D03*
X193640000Y-122060000D03*
X191100000Y-122060000D03*
X193640000Y-119520000D03*
X191100000Y-119520000D03*
X193640000Y-116980000D03*
X191100000Y-116980000D03*
X193640000Y-114440000D03*
X191100000Y-114440000D03*
X193640000Y-111900000D03*
X191100000Y-111900000D03*
X193640000Y-109360000D03*
X191100000Y-109360000D03*
X193640000Y-106820000D03*
X191100000Y-106820000D03*
X193640000Y-104280000D03*
X191100000Y-104280000D03*
X193640000Y-101740000D03*
X191100000Y-101740000D03*
X193640000Y-99200000D03*
X191100000Y-99200000D03*
X193640000Y-96660000D03*
X191100000Y-96660000D03*
X193640000Y-94120000D03*
X191100000Y-94120000D03*
X193640000Y-91580000D03*
X191100000Y-91580000D03*
X193640000Y-89040000D03*
X191100000Y-89040000D03*
D13*
X186020000Y-101740000D03*
D14*
X186020000Y-99200000D03*
X186020000Y-96660000D03*
X186020000Y-94120000D03*
X186020000Y-91580000D03*
X186020000Y-89040000D03*
D13*
X137760000Y-89040000D03*
D14*
X137760000Y-91580000D03*
X137760000Y-94120000D03*
X137760000Y-96660000D03*
X137760000Y-99200000D03*
X137760000Y-101740000D03*
X137760000Y-104280000D03*
X137760000Y-106820000D03*
D15*
X132680000Y-134760000D03*
D16*
X130140000Y-134760000D03*
X132680000Y-132220000D03*
X130140000Y-132220000D03*
X132680000Y-129680000D03*
X130140000Y-129680000D03*
X132680000Y-127140000D03*
X130140000Y-127140000D03*
X132680000Y-124600000D03*
X130140000Y-124600000D03*
X132680000Y-122060000D03*
X130140000Y-122060000D03*
X132680000Y-119520000D03*
X130140000Y-119520000D03*
X132680000Y-116980000D03*
X130140000Y-116980000D03*
X132680000Y-114440000D03*
X130140000Y-114440000D03*
X132680000Y-111900000D03*
X130140000Y-111900000D03*
X132680000Y-109360000D03*
X130140000Y-109360000D03*
X132680000Y-106820000D03*
X130140000Y-106820000D03*
X132680000Y-104280000D03*
X130140000Y-104280000D03*
X132680000Y-101740000D03*
X130140000Y-101740000D03*
X132680000Y-99200000D03*
X130140000Y-99200000D03*
X132680000Y-96660000D03*
X130140000Y-96660000D03*
X132680000Y-94120000D03*
X130140000Y-94120000D03*
X132680000Y-91580000D03*
X130140000Y-91580000D03*
X132680000Y-89040000D03*
X130140000Y-89040000D03*
%TD*%
D17*
%TO.C,J27*%
X65500000Y-70500000D03*
D18*
X68000000Y-70500000D03*
X70500000Y-70500000D03*
X73000000Y-70500000D03*
X75500000Y-70500000D03*
X78000000Y-70500000D03*
X80500000Y-70500000D03*
X83000000Y-70500000D03*
%TD*%
D19*
%TO.C,J4*%
X203532500Y-160070000D03*
X209312500Y-160070000D03*
D20*
X202102500Y-159570000D03*
D21*
X202102500Y-163750000D03*
D20*
X210742500Y-159570000D03*
D21*
X210742500Y-163750000D03*
%TD*%
D22*
%TO.C,SW6*%
X105150000Y-160000000D03*
X113350000Y-160000000D03*
D23*
X107250000Y-160000000D03*
D24*
X109250000Y-160000000D03*
X111250000Y-160000000D03*
%TD*%
D22*
%TO.C,SW3*%
X105150000Y-138250000D03*
X113350000Y-138250000D03*
D23*
X107250000Y-138250000D03*
D24*
X109250000Y-138250000D03*
X111250000Y-138250000D03*
%TD*%
D25*
%TO.C,H9*%
X77000000Y-100000000D03*
%TD*%
D10*
%TO.C,J10*%
X119250000Y-103250000D03*
D11*
X121750000Y-103250000D03*
%TD*%
D25*
%TO.C,H8*%
X30000000Y-163000000D03*
%TD*%
D22*
%TO.C,SW2*%
X214025000Y-88000000D03*
X222225000Y-88000000D03*
D23*
X216125000Y-88000000D03*
D24*
X218125000Y-88000000D03*
X220125000Y-88000000D03*
%TD*%
D26*
%TO.C,C11*%
X220317621Y-121000000D03*
D27*
X222817621Y-121000000D03*
%TD*%
D26*
%TO.C,C3*%
X214500000Y-96500000D03*
D27*
X212500000Y-96500000D03*
%TD*%
D17*
%TO.C,J24*%
X65500000Y-80200000D03*
D18*
X68000000Y-80200000D03*
X70500000Y-80200000D03*
X73000000Y-80200000D03*
X75500000Y-80200000D03*
X78000000Y-80200000D03*
X80500000Y-80200000D03*
X83000000Y-80200000D03*
%TD*%
D28*
%TO.C,J33*%
X31825000Y-121750000D03*
X31825000Y-134450000D03*
%TD*%
%TO.C,J28*%
X31750000Y-100850000D03*
X31750000Y-113550000D03*
%TD*%
D17*
%TO.C,J6*%
X52250000Y-129500000D03*
D18*
X54750000Y-129500000D03*
X57250000Y-129500000D03*
X59750000Y-129500000D03*
X62250000Y-129500000D03*
%TD*%
D28*
%TO.C,J32*%
X31750000Y-79850000D03*
X31750000Y-92550000D03*
%TD*%
D25*
%TO.C,H5*%
X123000000Y-72000000D03*
%TD*%
D10*
%TO.C,J12*%
X119250000Y-133500000D03*
D11*
X121750000Y-133500000D03*
%TD*%
D26*
%TO.C,C10*%
X208317621Y-121000000D03*
D27*
X210817621Y-121000000D03*
%TD*%
D29*
%TO.C,J23*%
X105400000Y-103350000D03*
D17*
X107000000Y-101750000D03*
D18*
X109500000Y-101750000D03*
X112000000Y-101750000D03*
%TD*%
D17*
%TO.C,J2*%
X52250000Y-99700000D03*
D18*
X54750000Y-99700000D03*
X57250000Y-99700000D03*
X59750000Y-99700000D03*
X62250000Y-99700000D03*
%TD*%
D17*
%TO.C,J18*%
X171500000Y-70625000D03*
D18*
X174000000Y-70625000D03*
X176500000Y-70625000D03*
X179000000Y-70625000D03*
X181500000Y-70625000D03*
X184000000Y-70625000D03*
X186500000Y-70625000D03*
X189000000Y-70625000D03*
%TD*%
D30*
%TO.C,J9*%
X205150000Y-73500000D03*
D31*
X212350000Y-73500000D03*
%TD*%
D25*
%TO.C,H1*%
X58000000Y-163000000D03*
%TD*%
D17*
%TO.C,J17*%
X171750000Y-80000000D03*
D18*
X174250000Y-80000000D03*
X176750000Y-80000000D03*
X179250000Y-80000000D03*
X181750000Y-80000000D03*
X184250000Y-80000000D03*
X186750000Y-80000000D03*
X189250000Y-80000000D03*
%TD*%
D29*
%TO.C,J26*%
X105400000Y-133350000D03*
D17*
X107000000Y-131750000D03*
D18*
X109500000Y-131750000D03*
X112000000Y-131750000D03*
%TD*%
D25*
%TO.C,H4*%
X58000000Y-72000000D03*
%TD*%
D22*
%TO.C,SW4*%
X105150000Y-145500000D03*
X113350000Y-145500000D03*
D23*
X107250000Y-145500000D03*
D24*
X109250000Y-145500000D03*
X111250000Y-145500000D03*
%TD*%
D17*
%TO.C,J20*%
X96500000Y-80200000D03*
D18*
X99000000Y-80200000D03*
X101500000Y-80200000D03*
X104000000Y-80200000D03*
X106500000Y-80200000D03*
X109000000Y-80200000D03*
X111500000Y-80200000D03*
X114000000Y-80200000D03*
%TD*%
D25*
%TO.C,H6*%
X222000000Y-72000000D03*
%TD*%
%TO.C,H2*%
X123000000Y-163000000D03*
%TD*%
D10*
%TO.C,J13*%
X119250000Y-148700000D03*
D11*
X121750000Y-148700000D03*
%TD*%
D32*
%TO.C,U3*%
X84260000Y-101800000D03*
X84260000Y-104340000D03*
X84260000Y-106880000D03*
X84260000Y-109420000D03*
X84260000Y-111960000D03*
X84260000Y-114500000D03*
X84260000Y-117040000D03*
X84260000Y-119580000D03*
X84260000Y-122120000D03*
X84260000Y-124660000D03*
X84260000Y-127200000D03*
X84260000Y-129740000D03*
X84260000Y-132280000D03*
X84260000Y-134820000D03*
X84260000Y-137360000D03*
X84260000Y-139900000D03*
X84260000Y-142440000D03*
X84260000Y-144980000D03*
X84260000Y-147520000D03*
X84260000Y-150060000D03*
X84260000Y-152600000D03*
X84260000Y-155140000D03*
X84260000Y-157680000D03*
X84260000Y-160220000D03*
D33*
X99500000Y-160220000D03*
D32*
X99500000Y-157680000D03*
X99500000Y-155140000D03*
X99500000Y-152600000D03*
X99500000Y-150060000D03*
X99500000Y-147520000D03*
X99500000Y-144980000D03*
X99500000Y-142440000D03*
X99500000Y-139900000D03*
X99500000Y-137360000D03*
X99500000Y-134820000D03*
X99500000Y-132280000D03*
X99500000Y-129740000D03*
X99500000Y-127200000D03*
X99500000Y-124660000D03*
X99500000Y-122120000D03*
X99500000Y-119580000D03*
X99500000Y-117040000D03*
X99500000Y-114500000D03*
X99500000Y-111960000D03*
X99500000Y-109420000D03*
X99500000Y-106880000D03*
X99500000Y-104340000D03*
X99500000Y-101800000D03*
%TD*%
D26*
%TO.C,C2*%
X201500000Y-97000000D03*
D27*
X199500000Y-97000000D03*
%TD*%
D25*
%TO.C,H7*%
X30000000Y-72000000D03*
%TD*%
D10*
%TO.C,J11*%
X119250000Y-118500000D03*
D11*
X121750000Y-118500000D03*
%TD*%
D29*
%TO.C,J22*%
X105400000Y-113350000D03*
D17*
X107000000Y-111750000D03*
D18*
X109500000Y-111750000D03*
X112000000Y-111750000D03*
%TD*%
D17*
%TO.C,J21*%
X96500000Y-70500000D03*
D18*
X99000000Y-70500000D03*
X101500000Y-70500000D03*
X104000000Y-70500000D03*
X106500000Y-70500000D03*
X109000000Y-70500000D03*
X111500000Y-70500000D03*
X114000000Y-70500000D03*
%TD*%
D17*
%TO.C,J8*%
X52250000Y-149500000D03*
D18*
X54750000Y-149500000D03*
X57250000Y-149500000D03*
X59750000Y-149500000D03*
X62250000Y-149500000D03*
%TD*%
D28*
%TO.C,J34*%
X31825000Y-142500000D03*
X31825000Y-155200000D03*
%TD*%
D25*
%TO.C,H3*%
X222000000Y-163000000D03*
%TD*%
D17*
%TO.C,J1*%
X52250000Y-90000000D03*
D18*
X54750000Y-90000000D03*
X57250000Y-90000000D03*
X59750000Y-90000000D03*
X62250000Y-90000000D03*
%TD*%
D17*
%TO.C,J7*%
X52250000Y-139500000D03*
D18*
X54750000Y-139500000D03*
X57250000Y-139500000D03*
X59750000Y-139500000D03*
X62250000Y-139500000D03*
%TD*%
D10*
%TO.C,J15*%
X119250000Y-126000000D03*
D11*
X121750000Y-126000000D03*
%TD*%
D10*
%TO.C,J16*%
X119250000Y-141000000D03*
D11*
X121750000Y-141000000D03*
%TD*%
D17*
%TO.C,J5*%
X52250000Y-119700000D03*
D18*
X54750000Y-119700000D03*
X57250000Y-119700000D03*
X59750000Y-119700000D03*
X62250000Y-119700000D03*
%TD*%
D22*
%TO.C,SW5*%
X105150000Y-152750000D03*
X113350000Y-152750000D03*
D23*
X107250000Y-152750000D03*
D24*
X109250000Y-152750000D03*
X111250000Y-152750000D03*
%TD*%
D17*
%TO.C,J19*%
X134500000Y-70500000D03*
D18*
X137000000Y-70500000D03*
X139500000Y-70500000D03*
X142000000Y-70500000D03*
X144500000Y-70500000D03*
X147000000Y-70500000D03*
X149500000Y-70500000D03*
X152000000Y-70500000D03*
%TD*%
D22*
%TO.C,SW1*%
X199525000Y-88000000D03*
X207725000Y-88000000D03*
D23*
X201625000Y-88000000D03*
D24*
X203625000Y-88000000D03*
X205625000Y-88000000D03*
%TD*%
D17*
%TO.C,J3*%
X52250000Y-109700000D03*
D18*
X54750000Y-109700000D03*
X57250000Y-109700000D03*
X59750000Y-109700000D03*
X62250000Y-109700000D03*
%TD*%
D29*
%TO.C,J25*%
X105400000Y-123350000D03*
D17*
X107000000Y-121750000D03*
D18*
X109500000Y-121750000D03*
X112000000Y-121750000D03*
%TD*%
D34*
%TO.C,D22*%
X62250000Y-152100000D03*
X62250000Y-154900000D03*
%TD*%
D35*
%TO.C,D96*%
X45850000Y-105000000D03*
X48650000Y-105000000D03*
%TD*%
D34*
%TO.C,D53*%
X149500000Y-73000000D03*
X149500000Y-75800000D03*
%TD*%
D36*
%TO.C,R35*%
X88925000Y-141000000D03*
X91000000Y-141000000D03*
%TD*%
D35*
%TO.C,D102*%
X46000000Y-124750000D03*
X48800000Y-124750000D03*
%TD*%
D34*
%TO.C,D70*%
X73000000Y-82500000D03*
X73000000Y-85300000D03*
%TD*%
%TO.C,D76*%
X73000000Y-72950000D03*
X73000000Y-75750000D03*
%TD*%
%TO.C,D38*%
X54750000Y-152100000D03*
X54750000Y-154900000D03*
%TD*%
D36*
%TO.C,R128*%
X101500000Y-101750000D03*
X103575000Y-101750000D03*
%TD*%
%TO.C,R43*%
X88962500Y-124750000D03*
X91037500Y-124750000D03*
%TD*%
D34*
%TO.C,D72*%
X65500000Y-73000000D03*
X65500000Y-75800000D03*
%TD*%
%TO.C,D41*%
X186750000Y-82250000D03*
X186750000Y-85050000D03*
%TD*%
%TO.C,D85*%
X121750000Y-151000000D03*
X121750000Y-153800000D03*
%TD*%
D35*
%TO.C,D105*%
X45850000Y-134000000D03*
X48650000Y-134000000D03*
%TD*%
D34*
%TO.C,D45*%
X184000000Y-72875000D03*
X184000000Y-75675000D03*
%TD*%
D36*
%TO.C,R123*%
X101500000Y-119750000D03*
X103575000Y-119750000D03*
%TD*%
%TO.C,C56*%
X93962500Y-111750000D03*
X96037500Y-111750000D03*
%TD*%
D34*
%TO.C,D59*%
X111500000Y-82500000D03*
X111500000Y-85300000D03*
%TD*%
D36*
%TO.C,C47*%
X93000000Y-134250000D03*
X95075000Y-134250000D03*
%TD*%
%TO.C,R34*%
X88962500Y-150000000D03*
X91037500Y-150000000D03*
%TD*%
D34*
%TO.C,D49*%
X144500000Y-73000000D03*
X144500000Y-75800000D03*
%TD*%
D36*
%TO.C,R127*%
X101500000Y-114500000D03*
X103575000Y-114500000D03*
%TD*%
D34*
%TO.C,D61*%
X106500000Y-72850000D03*
X106500000Y-75650000D03*
%TD*%
%TO.C,D57*%
X109000000Y-82500000D03*
X109000000Y-85300000D03*
%TD*%
D37*
%TO.C,R115*%
X92000000Y-155212500D03*
X92000000Y-157287500D03*
%TD*%
D34*
%TO.C,D34*%
X62250000Y-142100000D03*
X62250000Y-144900000D03*
%TD*%
D36*
%TO.C,R85*%
X89962500Y-101750000D03*
X92037500Y-101750000D03*
%TD*%
%TO.C,R41*%
X88925000Y-129750000D03*
X91000000Y-129750000D03*
%TD*%
D38*
%TO.C,D84*%
X119200000Y-151250000D03*
X116400000Y-151250000D03*
%TD*%
D34*
%TO.C,D29*%
X57250000Y-112250000D03*
X57250000Y-115050000D03*
%TD*%
D36*
%TO.C,R119*%
X101500000Y-124750000D03*
X103575000Y-124750000D03*
%TD*%
D37*
%TO.C,R112*%
X101750000Y-147712500D03*
X101750000Y-149787500D03*
%TD*%
D36*
%TO.C,R45*%
X88962500Y-122250000D03*
X91037500Y-122250000D03*
%TD*%
D34*
%TO.C,D30*%
X54750000Y-112200000D03*
X54750000Y-115000000D03*
%TD*%
%TO.C,D28*%
X62250000Y-112250000D03*
X62250000Y-115050000D03*
%TD*%
D36*
%TO.C,C53*%
X93000000Y-119750000D03*
X95075000Y-119750000D03*
%TD*%
D34*
%TO.C,D67*%
X75500000Y-82500000D03*
X75500000Y-85300000D03*
%TD*%
D36*
%TO.C,C50*%
X93000000Y-129750000D03*
X95075000Y-129750000D03*
%TD*%
%TO.C,R80*%
X89962500Y-111750000D03*
X92037500Y-111750000D03*
%TD*%
%TO.C,C58*%
X93962500Y-109000000D03*
X96037500Y-109000000D03*
%TD*%
D34*
%TO.C,D15*%
X171750000Y-82350000D03*
X171750000Y-85150000D03*
%TD*%
D36*
%TO.C,R129*%
X101462500Y-104250000D03*
X103537500Y-104250000D03*
%TD*%
D34*
%TO.C,D73*%
X75500000Y-72850000D03*
X75500000Y-75650000D03*
%TD*%
D35*
%TO.C,D108*%
X45750000Y-153750000D03*
X48550000Y-153750000D03*
%TD*%
%TO.C,D92*%
X46100000Y-90500000D03*
X48900000Y-90500000D03*
%TD*%
D34*
%TO.C,D79*%
X121750000Y-128250000D03*
X121750000Y-131050000D03*
%TD*%
D35*
%TO.C,D94*%
X45850000Y-107500000D03*
X48650000Y-107500000D03*
%TD*%
D34*
%TO.C,D71*%
X80500000Y-82500000D03*
X80500000Y-85300000D03*
%TD*%
D36*
%TO.C,R38*%
X88925000Y-134250000D03*
X91000000Y-134250000D03*
%TD*%
D34*
%TO.C,D23*%
X57250000Y-92600000D03*
X57250000Y-95400000D03*
%TD*%
D36*
%TO.C,R130*%
X101500000Y-107000000D03*
X103575000Y-107000000D03*
%TD*%
%TO.C,C41*%
X93000000Y-147750000D03*
X95075000Y-147750000D03*
%TD*%
D35*
%TO.C,D99*%
X45850000Y-114750000D03*
X48650000Y-114750000D03*
%TD*%
D39*
%TO.C,D87*%
X62500000Y-157550000D03*
X62500000Y-161950000D03*
%TD*%
D34*
%TO.C,D19*%
X62250000Y-122100000D03*
X62250000Y-124900000D03*
%TD*%
D38*
%TO.C,D86*%
X59750000Y-157500000D03*
X56950000Y-157500000D03*
%TD*%
D34*
%TO.C,D58*%
X104000000Y-82500000D03*
X104000000Y-85300000D03*
%TD*%
%TO.C,D80*%
X121750000Y-113250000D03*
X121750000Y-116050000D03*
%TD*%
D35*
%TO.C,D90*%
X46100000Y-85500000D03*
X48900000Y-85500000D03*
%TD*%
D34*
%TO.C,D36*%
X54750000Y-142100000D03*
X54750000Y-144900000D03*
%TD*%
D36*
%TO.C,C57*%
X92962500Y-114750000D03*
X95037500Y-114750000D03*
%TD*%
%TO.C,C42*%
X92962500Y-145500000D03*
X95037500Y-145500000D03*
%TD*%
D34*
%TO.C,D25*%
X62250000Y-102350000D03*
X62250000Y-105150000D03*
%TD*%
%TO.C,D24*%
X54750000Y-92500000D03*
X54750000Y-95300000D03*
%TD*%
%TO.C,D52*%
X142000000Y-73000000D03*
X142000000Y-75800000D03*
%TD*%
D36*
%TO.C,R117*%
X101500000Y-134750000D03*
X103575000Y-134750000D03*
%TD*%
D37*
%TO.C,R110*%
X101750000Y-152500000D03*
X101750000Y-154575000D03*
%TD*%
D34*
%TO.C,D65*%
X111500000Y-72850000D03*
X111500000Y-75650000D03*
%TD*%
D37*
%TO.C,R116*%
X101750000Y-136962500D03*
X101750000Y-139037500D03*
%TD*%
D40*
%TO.C,R14*%
X203740000Y-154250000D03*
X203740000Y-152425000D03*
%TD*%
D36*
%TO.C,C54*%
X92962500Y-122250000D03*
X95037500Y-122250000D03*
%TD*%
D34*
%TO.C,D82*%
X121750000Y-120850000D03*
X121750000Y-123650000D03*
%TD*%
%TO.C,D74*%
X70500000Y-73000000D03*
X70500000Y-75800000D03*
%TD*%
D35*
%TO.C,D91*%
X45850000Y-97500000D03*
X48650000Y-97500000D03*
%TD*%
D34*
%TO.C,D81*%
X121750000Y-136000000D03*
X121750000Y-138800000D03*
%TD*%
D35*
%TO.C,D98*%
X45850000Y-110000000D03*
X48650000Y-110000000D03*
%TD*%
D34*
%TO.C,D68*%
X70500000Y-82500000D03*
X70500000Y-85300000D03*
%TD*%
D36*
%TO.C,R81*%
X88962500Y-114750000D03*
X91037500Y-114750000D03*
%TD*%
%TO.C,R42*%
X88925000Y-127500000D03*
X91000000Y-127500000D03*
%TD*%
D34*
%TO.C,D66*%
X65500000Y-82500000D03*
X65500000Y-85300000D03*
%TD*%
D36*
%TO.C,C59*%
X94000000Y-104250000D03*
X96075000Y-104250000D03*
%TD*%
%TO.C,C43*%
X92962500Y-150000000D03*
X95037500Y-150000000D03*
%TD*%
D35*
%TO.C,D100*%
X46000000Y-127250000D03*
X48800000Y-127250000D03*
%TD*%
%TO.C,D106*%
X45850000Y-148000000D03*
X48650000Y-148000000D03*
%TD*%
D36*
%TO.C,R36*%
X88925000Y-138750000D03*
X91000000Y-138750000D03*
%TD*%
%TO.C,R122*%
X101500000Y-117500000D03*
X103575000Y-117500000D03*
%TD*%
%TO.C,C61*%
X93962500Y-101750000D03*
X96037500Y-101750000D03*
%TD*%
D34*
%TO.C,D20*%
X57250000Y-122100000D03*
X57250000Y-124900000D03*
%TD*%
%TO.C,D64*%
X104000000Y-72850000D03*
X104000000Y-75650000D03*
%TD*%
%TO.C,D63*%
X109000000Y-72850000D03*
X109000000Y-75650000D03*
%TD*%
D41*
%TO.C,Q1*%
X215450000Y-79222500D03*
D42*
X209150000Y-81502500D03*
D41*
X215450000Y-83782500D03*
%TD*%
D36*
%TO.C,C44*%
X93000000Y-141000000D03*
X95075000Y-141000000D03*
%TD*%
%TO.C,R121*%
X101500000Y-127250000D03*
X103575000Y-127250000D03*
%TD*%
D34*
%TO.C,D83*%
X121750000Y-143350000D03*
X121750000Y-146150000D03*
%TD*%
%TO.C,D40*%
X184250000Y-82200000D03*
X184250000Y-85000000D03*
%TD*%
%TO.C,D44*%
X176500000Y-72875000D03*
X176500000Y-75675000D03*
%TD*%
D43*
%TO.C,D109*%
X219000000Y-83250000D03*
X219000000Y-78250000D03*
%TD*%
D36*
%TO.C,R125*%
X101500000Y-109500000D03*
X103575000Y-109500000D03*
%TD*%
%TO.C,R40*%
X88925000Y-136500000D03*
X91000000Y-136500000D03*
%TD*%
D34*
%TO.C,D54*%
X96500000Y-82600000D03*
X96500000Y-85400000D03*
%TD*%
D44*
%TO.C,R6*%
X222425000Y-78250000D03*
X224250000Y-78250000D03*
%TD*%
D36*
%TO.C,C55*%
X92962500Y-117000000D03*
X95037500Y-117000000D03*
%TD*%
D34*
%TO.C,D33*%
X54750000Y-132100000D03*
X54750000Y-134900000D03*
%TD*%
%TO.C,D55*%
X106500000Y-82500000D03*
X106500000Y-85300000D03*
%TD*%
D45*
%TO.C,C1*%
X206830000Y-147587500D03*
X208555000Y-147587500D03*
%TD*%
D37*
%TO.C,R113*%
X94250000Y-155212500D03*
X94250000Y-157287500D03*
%TD*%
D35*
%TO.C,D103*%
X45850000Y-136500000D03*
X48650000Y-136500000D03*
%TD*%
D34*
%TO.C,D43*%
X181500000Y-72875000D03*
X181500000Y-75675000D03*
%TD*%
%TO.C,D18*%
X179250000Y-82250000D03*
X179250000Y-85050000D03*
%TD*%
D39*
%TO.C,D12*%
X117750000Y-153800000D03*
X117750000Y-158200000D03*
%TD*%
D34*
%TO.C,D77*%
X80500000Y-72850000D03*
X80500000Y-75650000D03*
%TD*%
D36*
%TO.C,R124*%
X101500000Y-122250000D03*
X103575000Y-122250000D03*
%TD*%
D35*
%TO.C,D88*%
X46100000Y-88000000D03*
X48900000Y-88000000D03*
%TD*%
D36*
%TO.C,C45*%
X93000000Y-138750000D03*
X95075000Y-138750000D03*
%TD*%
D34*
%TO.C,D42*%
X171500000Y-72875000D03*
X171500000Y-75675000D03*
%TD*%
D36*
%TO.C,R33*%
X88925000Y-145500000D03*
X91000000Y-145500000D03*
%TD*%
D34*
%TO.C,D62*%
X101500000Y-72850000D03*
X101500000Y-75650000D03*
%TD*%
D36*
%TO.C,R118*%
X101500000Y-132250000D03*
X103575000Y-132250000D03*
%TD*%
%TO.C,R32*%
X88925000Y-147750000D03*
X91000000Y-147750000D03*
%TD*%
D34*
%TO.C,D51*%
X147000000Y-73000000D03*
X147000000Y-75800000D03*
%TD*%
D36*
%TO.C,R44*%
X88962500Y-119750000D03*
X91037500Y-119750000D03*
%TD*%
D34*
%TO.C,D17*%
X62250000Y-92600000D03*
X62250000Y-95400000D03*
%TD*%
D36*
%TO.C,C52*%
X92962500Y-124750000D03*
X95037500Y-124750000D03*
%TD*%
D34*
%TO.C,D69*%
X78000000Y-82500000D03*
X78000000Y-85300000D03*
%TD*%
D35*
%TO.C,D107*%
X45850000Y-150750000D03*
X48650000Y-150750000D03*
%TD*%
D40*
%TO.C,R21*%
X205442500Y-155500000D03*
X205442500Y-153675000D03*
%TD*%
D34*
%TO.C,D56*%
X101500000Y-82500000D03*
X101500000Y-85300000D03*
%TD*%
D36*
%TO.C,R37*%
X88925000Y-143250000D03*
X91000000Y-143250000D03*
%TD*%
D35*
%TO.C,D95*%
X45850000Y-119750000D03*
X48650000Y-119750000D03*
%TD*%
D36*
%TO.C,R82*%
X89962500Y-109000000D03*
X92037500Y-109000000D03*
%TD*%
%TO.C,C48*%
X93037500Y-132000000D03*
X95112500Y-132000000D03*
%TD*%
D35*
%TO.C,D93*%
X45850000Y-95000000D03*
X48650000Y-95000000D03*
%TD*%
D34*
%TO.C,D21*%
X54750000Y-122100000D03*
X54750000Y-124900000D03*
%TD*%
D36*
%TO.C,R83*%
X89962500Y-104250000D03*
X92037500Y-104250000D03*
%TD*%
D34*
%TO.C,D75*%
X78000000Y-72850000D03*
X78000000Y-75650000D03*
%TD*%
D37*
%TO.C,R114*%
X101750000Y-142212500D03*
X101750000Y-144287500D03*
%TD*%
D34*
%TO.C,D27*%
X54750000Y-102350000D03*
X54750000Y-105150000D03*
%TD*%
D40*
%TO.C,R13*%
X209490000Y-154000000D03*
X209490000Y-152175000D03*
%TD*%
D36*
%TO.C,R120*%
X101500000Y-130000000D03*
X103575000Y-130000000D03*
%TD*%
D35*
%TO.C,D104*%
X46000000Y-129750000D03*
X48800000Y-129750000D03*
%TD*%
D34*
%TO.C,D47*%
X186500000Y-72825000D03*
X186500000Y-75625000D03*
%TD*%
D35*
%TO.C,D89*%
X45850000Y-100000000D03*
X48650000Y-100000000D03*
%TD*%
D34*
%TO.C,D39*%
X181750000Y-82250000D03*
X181750000Y-85050000D03*
%TD*%
%TO.C,D37*%
X57250000Y-152100000D03*
X57250000Y-154900000D03*
%TD*%
%TO.C,D50*%
X139500000Y-73000000D03*
X139500000Y-75800000D03*
%TD*%
D36*
%TO.C,C60*%
X93962500Y-106500000D03*
X96037500Y-106500000D03*
%TD*%
%TO.C,C49*%
X93000000Y-136500000D03*
X95075000Y-136500000D03*
%TD*%
D34*
%TO.C,D32*%
X57250000Y-132100000D03*
X57250000Y-134900000D03*
%TD*%
%TO.C,D31*%
X62250000Y-132100000D03*
X62250000Y-134900000D03*
%TD*%
D36*
%TO.C,C46*%
X93000000Y-143250000D03*
X95075000Y-143250000D03*
%TD*%
D34*
%TO.C,D16*%
X176750000Y-82250000D03*
X176750000Y-85050000D03*
%TD*%
D36*
%TO.C,R46*%
X88962500Y-117000000D03*
X91037500Y-117000000D03*
%TD*%
D34*
%TO.C,D48*%
X134500000Y-72950000D03*
X134500000Y-75750000D03*
%TD*%
D36*
%TO.C,R126*%
X101500000Y-112000000D03*
X103575000Y-112000000D03*
%TD*%
D34*
%TO.C,D60*%
X96500000Y-73000000D03*
X96500000Y-75800000D03*
%TD*%
D35*
%TO.C,D101*%
X45850000Y-139000000D03*
X48650000Y-139000000D03*
%TD*%
D34*
%TO.C,D35*%
X57250000Y-142100000D03*
X57250000Y-144900000D03*
%TD*%
D36*
%TO.C,R84*%
X89962500Y-106500000D03*
X92037500Y-106500000D03*
%TD*%
D35*
%TO.C,D97*%
X45850000Y-117250000D03*
X48650000Y-117250000D03*
%TD*%
D34*
%TO.C,D26*%
X57250000Y-102350000D03*
X57250000Y-105150000D03*
%TD*%
%TO.C,D78*%
X121750000Y-105500000D03*
X121750000Y-108300000D03*
%TD*%
D36*
%TO.C,C51*%
X93000000Y-127500000D03*
X95075000Y-127500000D03*
%TD*%
%TO.C,R39*%
X88925000Y-132000000D03*
X91000000Y-132000000D03*
%TD*%
D40*
%TO.C,R22*%
X207192500Y-155500000D03*
X207192500Y-153675000D03*
%TD*%
D37*
%TO.C,R111*%
X96500000Y-155212500D03*
X96500000Y-157287500D03*
%TD*%
D34*
%TO.C,D46*%
X179000000Y-72875000D03*
X179000000Y-75675000D03*
%TD*%
M02*
