%TF.GenerationSoftware,KiCad,Pcbnew,9.0.0*%
%TF.CreationDate,2025-03-17T17:50:44-07:00*%
%TF.ProjectId,MRIRobot_PCB,4d524952-6f62-46f7-945f-5043422e6b69,rev?*%
%TF.SameCoordinates,Original*%
%TF.FileFunction,Paste,Bot*%
%TF.FilePolarity,Positive*%
%FSLAX46Y46*%
G04 Gerber Fmt 4.6, Leading zero omitted, Abs format (unit mm)*
G04 Created by KiCad (PCBNEW 9.0.0) date 2025-03-17 17:50:44*
%MOMM*%
%LPD*%
G01*
G04 APERTURE LIST*
G04 Aperture macros list*
%AMRoundRect*
0 Rectangle with rounded corners*
0 $1 Rounding radius*
0 $2 $3 $4 $5 $6 $7 $8 $9 X,Y pos of 4 corners*
0 Add a 4 corners polygon primitive as box body*
4,1,4,$2,$3,$4,$5,$6,$7,$8,$9,$2,$3,0*
0 Add four circle primitives for the rounded corners*
1,1,$1+$1,$2,$3*
1,1,$1+$1,$4,$5*
1,1,$1+$1,$6,$7*
1,1,$1+$1,$8,$9*
0 Add four rect primitives between the rounded corners*
20,1,$1+$1,$2,$3,$4,$5,0*
20,1,$1+$1,$4,$5,$6,$7,0*
20,1,$1+$1,$6,$7,$8,$9,0*
20,1,$1+$1,$8,$9,$2,$3,0*%
G04 Aperture macros list end*
%ADD10RoundRect,0.250000X-0.300000X0.300000X-0.300000X-0.300000X0.300000X-0.300000X0.300000X0.300000X0*%
%ADD11RoundRect,0.250000X-0.300000X-0.300000X0.300000X-0.300000X0.300000X0.300000X-0.300000X0.300000X0*%
%ADD12RoundRect,0.250000X-0.337500X-0.475000X0.337500X-0.475000X0.337500X0.475000X-0.337500X0.475000X0*%
%ADD13RoundRect,0.250000X-0.475000X0.337500X-0.475000X-0.337500X0.475000X-0.337500X0.475000X0.337500X0*%
%ADD14RoundRect,0.250000X0.300000X0.300000X-0.300000X0.300000X-0.300000X-0.300000X0.300000X-0.300000X0*%
%ADD15RoundRect,0.250000X-0.800000X0.450000X-0.800000X-0.450000X0.800000X-0.450000X0.800000X0.450000X0*%
%ADD16RoundRect,0.237500X0.237500X-0.250000X0.237500X0.250000X-0.237500X0.250000X-0.237500X-0.250000X0*%
%ADD17RoundRect,0.250000X0.850000X0.350000X-0.850000X0.350000X-0.850000X-0.350000X0.850000X-0.350000X0*%
%ADD18RoundRect,0.250000X1.275000X1.125000X-1.275000X1.125000X-1.275000X-1.125000X1.275000X-1.125000X0*%
%ADD19RoundRect,0.250000X0.650000X-1.500000X0.650000X1.500000X-0.650000X1.500000X-0.650000X-1.500000X0*%
%ADD20RoundRect,0.250000X-0.262500X-0.450000X0.262500X-0.450000X0.262500X0.450000X-0.262500X0.450000X0*%
%ADD21RoundRect,0.237500X-0.300000X-0.237500X0.300000X-0.237500X0.300000X0.237500X-0.300000X0.237500X0*%
G04 APERTURE END LIST*
D10*
%TO.C,D22*%
X62250000Y-152100000D03*
X62250000Y-154900000D03*
%TD*%
D11*
%TO.C,D96*%
X45850000Y-105000000D03*
X48650000Y-105000000D03*
%TD*%
D10*
%TO.C,D53*%
X149500000Y-73000000D03*
X149500000Y-75800000D03*
%TD*%
D12*
%TO.C,R35*%
X88925000Y-141000000D03*
X91000000Y-141000000D03*
%TD*%
D11*
%TO.C,D102*%
X46000000Y-124750000D03*
X48800000Y-124750000D03*
%TD*%
D10*
%TO.C,D70*%
X73000000Y-82500000D03*
X73000000Y-85300000D03*
%TD*%
%TO.C,D76*%
X73000000Y-72950000D03*
X73000000Y-75750000D03*
%TD*%
%TO.C,D38*%
X54750000Y-152100000D03*
X54750000Y-154900000D03*
%TD*%
D12*
%TO.C,R128*%
X101500000Y-101750000D03*
X103575000Y-101750000D03*
%TD*%
%TO.C,R43*%
X88962500Y-124750000D03*
X91037500Y-124750000D03*
%TD*%
D10*
%TO.C,D72*%
X65500000Y-73000000D03*
X65500000Y-75800000D03*
%TD*%
%TO.C,D41*%
X186750000Y-82250000D03*
X186750000Y-85050000D03*
%TD*%
%TO.C,D85*%
X121750000Y-151000000D03*
X121750000Y-153800000D03*
%TD*%
D11*
%TO.C,D105*%
X45850000Y-134000000D03*
X48650000Y-134000000D03*
%TD*%
D10*
%TO.C,D45*%
X184000000Y-72875000D03*
X184000000Y-75675000D03*
%TD*%
D12*
%TO.C,R123*%
X101500000Y-119750000D03*
X103575000Y-119750000D03*
%TD*%
%TO.C,C56*%
X93962500Y-111750000D03*
X96037500Y-111750000D03*
%TD*%
D10*
%TO.C,D59*%
X111500000Y-82500000D03*
X111500000Y-85300000D03*
%TD*%
D12*
%TO.C,C47*%
X93000000Y-134250000D03*
X95075000Y-134250000D03*
%TD*%
%TO.C,R34*%
X88962500Y-150000000D03*
X91037500Y-150000000D03*
%TD*%
D10*
%TO.C,D49*%
X144500000Y-73000000D03*
X144500000Y-75800000D03*
%TD*%
D12*
%TO.C,R127*%
X101500000Y-114500000D03*
X103575000Y-114500000D03*
%TD*%
D10*
%TO.C,D61*%
X106500000Y-72850000D03*
X106500000Y-75650000D03*
%TD*%
%TO.C,D57*%
X109000000Y-82500000D03*
X109000000Y-85300000D03*
%TD*%
D13*
%TO.C,R115*%
X92000000Y-155212500D03*
X92000000Y-157287500D03*
%TD*%
D10*
%TO.C,D34*%
X62250000Y-142100000D03*
X62250000Y-144900000D03*
%TD*%
D12*
%TO.C,R85*%
X89962500Y-101750000D03*
X92037500Y-101750000D03*
%TD*%
%TO.C,R41*%
X88925000Y-129750000D03*
X91000000Y-129750000D03*
%TD*%
D14*
%TO.C,D84*%
X119200000Y-151250000D03*
X116400000Y-151250000D03*
%TD*%
D10*
%TO.C,D29*%
X57250000Y-112250000D03*
X57250000Y-115050000D03*
%TD*%
D12*
%TO.C,R119*%
X101500000Y-124750000D03*
X103575000Y-124750000D03*
%TD*%
D13*
%TO.C,R112*%
X101750000Y-147712500D03*
X101750000Y-149787500D03*
%TD*%
D12*
%TO.C,R45*%
X88962500Y-122250000D03*
X91037500Y-122250000D03*
%TD*%
D10*
%TO.C,D30*%
X54750000Y-112200000D03*
X54750000Y-115000000D03*
%TD*%
%TO.C,D28*%
X62250000Y-112250000D03*
X62250000Y-115050000D03*
%TD*%
D12*
%TO.C,C53*%
X93000000Y-119750000D03*
X95075000Y-119750000D03*
%TD*%
D10*
%TO.C,D67*%
X75500000Y-82500000D03*
X75500000Y-85300000D03*
%TD*%
D12*
%TO.C,C50*%
X93000000Y-129750000D03*
X95075000Y-129750000D03*
%TD*%
%TO.C,R80*%
X89962500Y-111750000D03*
X92037500Y-111750000D03*
%TD*%
%TO.C,C58*%
X93962500Y-109000000D03*
X96037500Y-109000000D03*
%TD*%
D10*
%TO.C,D15*%
X171750000Y-82350000D03*
X171750000Y-85150000D03*
%TD*%
D12*
%TO.C,R129*%
X101462500Y-104250000D03*
X103537500Y-104250000D03*
%TD*%
D10*
%TO.C,D73*%
X75500000Y-72850000D03*
X75500000Y-75650000D03*
%TD*%
D11*
%TO.C,D108*%
X45750000Y-153750000D03*
X48550000Y-153750000D03*
%TD*%
%TO.C,D92*%
X46100000Y-90500000D03*
X48900000Y-90500000D03*
%TD*%
D10*
%TO.C,D79*%
X121750000Y-128250000D03*
X121750000Y-131050000D03*
%TD*%
D11*
%TO.C,D94*%
X45850000Y-107500000D03*
X48650000Y-107500000D03*
%TD*%
D10*
%TO.C,D71*%
X80500000Y-82500000D03*
X80500000Y-85300000D03*
%TD*%
D12*
%TO.C,R38*%
X88925000Y-134250000D03*
X91000000Y-134250000D03*
%TD*%
D10*
%TO.C,D23*%
X57250000Y-92600000D03*
X57250000Y-95400000D03*
%TD*%
D12*
%TO.C,R130*%
X101500000Y-107000000D03*
X103575000Y-107000000D03*
%TD*%
%TO.C,C41*%
X93000000Y-147750000D03*
X95075000Y-147750000D03*
%TD*%
D11*
%TO.C,D99*%
X45850000Y-114750000D03*
X48650000Y-114750000D03*
%TD*%
D15*
%TO.C,D87*%
X62500000Y-157550000D03*
X62500000Y-161950000D03*
%TD*%
D10*
%TO.C,D19*%
X62250000Y-122100000D03*
X62250000Y-124900000D03*
%TD*%
D14*
%TO.C,D86*%
X59750000Y-157500000D03*
X56950000Y-157500000D03*
%TD*%
D10*
%TO.C,D58*%
X104000000Y-82500000D03*
X104000000Y-85300000D03*
%TD*%
%TO.C,D80*%
X121750000Y-113250000D03*
X121750000Y-116050000D03*
%TD*%
D11*
%TO.C,D90*%
X46100000Y-85500000D03*
X48900000Y-85500000D03*
%TD*%
D10*
%TO.C,D36*%
X54750000Y-142100000D03*
X54750000Y-144900000D03*
%TD*%
D12*
%TO.C,C57*%
X92962500Y-114750000D03*
X95037500Y-114750000D03*
%TD*%
%TO.C,C42*%
X92962500Y-145500000D03*
X95037500Y-145500000D03*
%TD*%
D10*
%TO.C,D25*%
X62250000Y-102350000D03*
X62250000Y-105150000D03*
%TD*%
%TO.C,D24*%
X54750000Y-92500000D03*
X54750000Y-95300000D03*
%TD*%
%TO.C,D52*%
X142000000Y-73000000D03*
X142000000Y-75800000D03*
%TD*%
D12*
%TO.C,R117*%
X101500000Y-134750000D03*
X103575000Y-134750000D03*
%TD*%
D13*
%TO.C,R110*%
X101750000Y-152500000D03*
X101750000Y-154575000D03*
%TD*%
D10*
%TO.C,D65*%
X111500000Y-72850000D03*
X111500000Y-75650000D03*
%TD*%
D13*
%TO.C,R116*%
X101750000Y-136962500D03*
X101750000Y-139037500D03*
%TD*%
D16*
%TO.C,R14*%
X203740000Y-154250000D03*
X203740000Y-152425000D03*
%TD*%
D12*
%TO.C,C54*%
X92962500Y-122250000D03*
X95037500Y-122250000D03*
%TD*%
D10*
%TO.C,D82*%
X121750000Y-120850000D03*
X121750000Y-123650000D03*
%TD*%
%TO.C,D74*%
X70500000Y-73000000D03*
X70500000Y-75800000D03*
%TD*%
D11*
%TO.C,D91*%
X45850000Y-97500000D03*
X48650000Y-97500000D03*
%TD*%
D10*
%TO.C,D81*%
X121750000Y-136000000D03*
X121750000Y-138800000D03*
%TD*%
D11*
%TO.C,D98*%
X45850000Y-110000000D03*
X48650000Y-110000000D03*
%TD*%
D10*
%TO.C,D68*%
X70500000Y-82500000D03*
X70500000Y-85300000D03*
%TD*%
D12*
%TO.C,R81*%
X88962500Y-114750000D03*
X91037500Y-114750000D03*
%TD*%
%TO.C,R42*%
X88925000Y-127500000D03*
X91000000Y-127500000D03*
%TD*%
D10*
%TO.C,D66*%
X65500000Y-82500000D03*
X65500000Y-85300000D03*
%TD*%
D12*
%TO.C,C59*%
X94000000Y-104250000D03*
X96075000Y-104250000D03*
%TD*%
%TO.C,C43*%
X92962500Y-150000000D03*
X95037500Y-150000000D03*
%TD*%
D11*
%TO.C,D100*%
X46000000Y-127250000D03*
X48800000Y-127250000D03*
%TD*%
%TO.C,D106*%
X45850000Y-148000000D03*
X48650000Y-148000000D03*
%TD*%
D12*
%TO.C,R36*%
X88925000Y-138750000D03*
X91000000Y-138750000D03*
%TD*%
%TO.C,R122*%
X101500000Y-117500000D03*
X103575000Y-117500000D03*
%TD*%
%TO.C,C61*%
X93962500Y-101750000D03*
X96037500Y-101750000D03*
%TD*%
D10*
%TO.C,D20*%
X57250000Y-122100000D03*
X57250000Y-124900000D03*
%TD*%
%TO.C,D64*%
X104000000Y-72850000D03*
X104000000Y-75650000D03*
%TD*%
%TO.C,D63*%
X109000000Y-72850000D03*
X109000000Y-75650000D03*
%TD*%
D17*
%TO.C,Q1*%
X215450000Y-79222500D03*
D18*
X210825000Y-83027500D03*
X210825000Y-79977500D03*
X207475000Y-83027500D03*
X207475000Y-79977500D03*
D17*
X215450000Y-83782500D03*
%TD*%
D12*
%TO.C,C44*%
X93000000Y-141000000D03*
X95075000Y-141000000D03*
%TD*%
%TO.C,R121*%
X101500000Y-127250000D03*
X103575000Y-127250000D03*
%TD*%
D10*
%TO.C,D83*%
X121750000Y-143350000D03*
X121750000Y-146150000D03*
%TD*%
%TO.C,D40*%
X184250000Y-82200000D03*
X184250000Y-85000000D03*
%TD*%
%TO.C,D44*%
X176500000Y-72875000D03*
X176500000Y-75675000D03*
%TD*%
D19*
%TO.C,D109*%
X219000000Y-83250000D03*
X219000000Y-78250000D03*
%TD*%
D12*
%TO.C,R125*%
X101500000Y-109500000D03*
X103575000Y-109500000D03*
%TD*%
%TO.C,R40*%
X88925000Y-136500000D03*
X91000000Y-136500000D03*
%TD*%
D10*
%TO.C,D54*%
X96500000Y-82600000D03*
X96500000Y-85400000D03*
%TD*%
D20*
%TO.C,R6*%
X222425000Y-78250000D03*
X224250000Y-78250000D03*
%TD*%
D12*
%TO.C,C55*%
X92962500Y-117000000D03*
X95037500Y-117000000D03*
%TD*%
D10*
%TO.C,D33*%
X54750000Y-132100000D03*
X54750000Y-134900000D03*
%TD*%
%TO.C,D55*%
X106500000Y-82500000D03*
X106500000Y-85300000D03*
%TD*%
D21*
%TO.C,C1*%
X206830000Y-147587500D03*
X208555000Y-147587500D03*
%TD*%
D13*
%TO.C,R113*%
X94250000Y-155212500D03*
X94250000Y-157287500D03*
%TD*%
D11*
%TO.C,D103*%
X45850000Y-136500000D03*
X48650000Y-136500000D03*
%TD*%
D10*
%TO.C,D43*%
X181500000Y-72875000D03*
X181500000Y-75675000D03*
%TD*%
%TO.C,D18*%
X179250000Y-82250000D03*
X179250000Y-85050000D03*
%TD*%
D15*
%TO.C,D12*%
X117750000Y-153800000D03*
X117750000Y-158200000D03*
%TD*%
D10*
%TO.C,D77*%
X80500000Y-72850000D03*
X80500000Y-75650000D03*
%TD*%
D12*
%TO.C,R124*%
X101500000Y-122250000D03*
X103575000Y-122250000D03*
%TD*%
D11*
%TO.C,D88*%
X46100000Y-88000000D03*
X48900000Y-88000000D03*
%TD*%
D12*
%TO.C,C45*%
X93000000Y-138750000D03*
X95075000Y-138750000D03*
%TD*%
D10*
%TO.C,D42*%
X171500000Y-72875000D03*
X171500000Y-75675000D03*
%TD*%
D12*
%TO.C,R33*%
X88925000Y-145500000D03*
X91000000Y-145500000D03*
%TD*%
D10*
%TO.C,D62*%
X101500000Y-72850000D03*
X101500000Y-75650000D03*
%TD*%
D12*
%TO.C,R118*%
X101500000Y-132250000D03*
X103575000Y-132250000D03*
%TD*%
%TO.C,R32*%
X88925000Y-147750000D03*
X91000000Y-147750000D03*
%TD*%
D10*
%TO.C,D51*%
X147000000Y-73000000D03*
X147000000Y-75800000D03*
%TD*%
D12*
%TO.C,R44*%
X88962500Y-119750000D03*
X91037500Y-119750000D03*
%TD*%
D10*
%TO.C,D17*%
X62250000Y-92600000D03*
X62250000Y-95400000D03*
%TD*%
D12*
%TO.C,C52*%
X92962500Y-124750000D03*
X95037500Y-124750000D03*
%TD*%
D10*
%TO.C,D69*%
X78000000Y-82500000D03*
X78000000Y-85300000D03*
%TD*%
D11*
%TO.C,D107*%
X45850000Y-150750000D03*
X48650000Y-150750000D03*
%TD*%
D16*
%TO.C,R21*%
X205442500Y-155500000D03*
X205442500Y-153675000D03*
%TD*%
D10*
%TO.C,D56*%
X101500000Y-82500000D03*
X101500000Y-85300000D03*
%TD*%
D12*
%TO.C,R37*%
X88925000Y-143250000D03*
X91000000Y-143250000D03*
%TD*%
D11*
%TO.C,D95*%
X45850000Y-119750000D03*
X48650000Y-119750000D03*
%TD*%
D12*
%TO.C,R82*%
X89962500Y-109000000D03*
X92037500Y-109000000D03*
%TD*%
%TO.C,C48*%
X93037500Y-132000000D03*
X95112500Y-132000000D03*
%TD*%
D11*
%TO.C,D93*%
X45850000Y-95000000D03*
X48650000Y-95000000D03*
%TD*%
D10*
%TO.C,D21*%
X54750000Y-122100000D03*
X54750000Y-124900000D03*
%TD*%
D12*
%TO.C,R83*%
X89962500Y-104250000D03*
X92037500Y-104250000D03*
%TD*%
D10*
%TO.C,D75*%
X78000000Y-72850000D03*
X78000000Y-75650000D03*
%TD*%
D13*
%TO.C,R114*%
X101750000Y-142212500D03*
X101750000Y-144287500D03*
%TD*%
D10*
%TO.C,D27*%
X54750000Y-102350000D03*
X54750000Y-105150000D03*
%TD*%
D16*
%TO.C,R13*%
X209490000Y-154000000D03*
X209490000Y-152175000D03*
%TD*%
D12*
%TO.C,R120*%
X101500000Y-130000000D03*
X103575000Y-130000000D03*
%TD*%
D11*
%TO.C,D104*%
X46000000Y-129750000D03*
X48800000Y-129750000D03*
%TD*%
D10*
%TO.C,D47*%
X186500000Y-72825000D03*
X186500000Y-75625000D03*
%TD*%
D11*
%TO.C,D89*%
X45850000Y-100000000D03*
X48650000Y-100000000D03*
%TD*%
D10*
%TO.C,D39*%
X181750000Y-82250000D03*
X181750000Y-85050000D03*
%TD*%
%TO.C,D37*%
X57250000Y-152100000D03*
X57250000Y-154900000D03*
%TD*%
%TO.C,D50*%
X139500000Y-73000000D03*
X139500000Y-75800000D03*
%TD*%
D12*
%TO.C,C60*%
X93962500Y-106500000D03*
X96037500Y-106500000D03*
%TD*%
%TO.C,C49*%
X93000000Y-136500000D03*
X95075000Y-136500000D03*
%TD*%
D10*
%TO.C,D32*%
X57250000Y-132100000D03*
X57250000Y-134900000D03*
%TD*%
%TO.C,D31*%
X62250000Y-132100000D03*
X62250000Y-134900000D03*
%TD*%
D12*
%TO.C,C46*%
X93000000Y-143250000D03*
X95075000Y-143250000D03*
%TD*%
D10*
%TO.C,D16*%
X176750000Y-82250000D03*
X176750000Y-85050000D03*
%TD*%
D12*
%TO.C,R46*%
X88962500Y-117000000D03*
X91037500Y-117000000D03*
%TD*%
D10*
%TO.C,D48*%
X134500000Y-72950000D03*
X134500000Y-75750000D03*
%TD*%
D12*
%TO.C,R126*%
X101500000Y-112000000D03*
X103575000Y-112000000D03*
%TD*%
D10*
%TO.C,D60*%
X96500000Y-73000000D03*
X96500000Y-75800000D03*
%TD*%
D11*
%TO.C,D101*%
X45850000Y-139000000D03*
X48650000Y-139000000D03*
%TD*%
D10*
%TO.C,D35*%
X57250000Y-142100000D03*
X57250000Y-144900000D03*
%TD*%
D12*
%TO.C,R84*%
X89962500Y-106500000D03*
X92037500Y-106500000D03*
%TD*%
D11*
%TO.C,D97*%
X45850000Y-117250000D03*
X48650000Y-117250000D03*
%TD*%
D10*
%TO.C,D26*%
X57250000Y-102350000D03*
X57250000Y-105150000D03*
%TD*%
%TO.C,D78*%
X121750000Y-105500000D03*
X121750000Y-108300000D03*
%TD*%
D12*
%TO.C,C51*%
X93000000Y-127500000D03*
X95075000Y-127500000D03*
%TD*%
%TO.C,R39*%
X88925000Y-132000000D03*
X91000000Y-132000000D03*
%TD*%
D16*
%TO.C,R22*%
X207192500Y-155500000D03*
X207192500Y-153675000D03*
%TD*%
D13*
%TO.C,R111*%
X96500000Y-155212500D03*
X96500000Y-157287500D03*
%TD*%
D10*
%TO.C,D46*%
X179000000Y-72875000D03*
X179000000Y-75675000D03*
%TD*%
M02*
