M48
; DRILL file {KiCad 8.0.5} date 2024-12-09T22:48:54-0800
; FORMAT={-:-/ absolute / inch / decimal}
; #@! TF.CreationDate,2024-12-09T22:48:54-08:00
; #@! TF.GenerationSoftware,Kicad,Pcbnew,8.0.5
; #@! TF.FileFunction,Plated,1,4,PTH
FMAT,2
INCH
; #@! TA.AperFunction,Plated,PTH,ViaDrill
T1C0.0157
; #@! TA.AperFunction,Plated,PTH,ComponentDrill
T2C0.0236
; #@! TA.AperFunction,Plated,PTH,ComponentDrill
T3C0.0300
; #@! TA.AperFunction,Plated,PTH,ComponentDrill
T4C0.0315
; #@! TA.AperFunction,Plated,PTH,ComponentDrill
T5C0.0374
; #@! TA.AperFunction,Plated,PTH,ComponentDrill
T6C0.0394
; #@! TA.AperFunction,Plated,PTH,ComponentDrill
T7C0.0402
; #@! TA.AperFunction,Plated,PTH,ComponentDrill
T8C0.0421
; #@! TA.AperFunction,Plated,PTH,ComponentDrill
T9C0.0591
; #@! TA.AperFunction,Plated,PTH,ComponentDrill
T10C0.1772
%
G90
G05
T1
X1.4469Y-6.2697
X1.4665Y-5.2756
X1.4764Y-4.5177
X1.5059Y-3.7402
X1.5256Y-3.2579
X1.5354Y-4.065
X1.5354Y-4.9114
X1.5354Y-5.374
X1.5354Y-5.7677
X1.5453Y-4.6161
X1.565Y-3.8681
X1.6437Y-4.7146
X1.6535Y-3.937
X1.6535Y-5.4724
X1.7126Y-6.4862
X1.7421Y-4.3406
X1.7421Y-4.813
X1.752Y-3.563
X1.752Y-4.2618
X1.752Y-4.9114
X1.752Y-5.0098
X1.752Y-5.1083
X1.752Y-5.8268
X1.752Y-5.935
X1.752Y-6.0531
X1.7618Y-4.0354
X1.7618Y-4.1339
X1.7717Y-3.3661
X1.7717Y-3.4646
X1.7913Y-6.2008
X1.8012Y-2.9331
X1.8602Y-5.8268
X1.8602Y-5.935
X1.8602Y-6.0531
X1.8701Y-3.3661
X1.8701Y-3.4646
X1.8701Y-3.563
X1.8701Y-3.7402
X1.8701Y-3.8386
X1.8701Y-3.937
X1.8701Y-4.1339
X1.8701Y-4.2323
X1.8701Y-4.3307
X1.8701Y-4.5177
X1.8701Y-4.6161
X1.8701Y-4.7146
X1.8701Y-4.9114
X1.8701Y-5.0098
X1.8701Y-5.2756
X1.8701Y-5.374
X1.8701Y-5.4724
X1.876Y-5.1083
X1.939Y-6.3386
X1.9783Y-6.4764
X2.0571Y-6.2697
X2.1358Y-3.189
X2.1555Y-3.6909
X2.1555Y-4.0846
X2.1555Y-4.4685
X2.1555Y-4.8622
X2.1555Y-5.2461
X2.1555Y-5.6496
X2.1555Y-6.0433
X2.2539Y-3.6909
X2.2539Y-4.0846
X2.2539Y-4.4685
X2.2539Y-4.5295
X2.2539Y-4.8622
X2.2539Y-5.2559
X2.2539Y-5.311
X2.2539Y-5.6496
X2.2539Y-6.0433
X2.372Y-3.2382
X2.3819Y-3.1102
X2.4508Y-3.6909
X2.4508Y-4.0846
X2.4508Y-4.4685
X2.4508Y-4.8622
X2.4508Y-5.2559
X2.4508Y-5.6496
X2.4508Y-6.0433
X2.4803Y-6.4567
X2.5394Y-4.5768
X2.5492Y-4.6358
X2.5591Y-4.1043
X2.5591Y-6.3091
X2.5591Y-6.4075
X2.5787Y-2.9232
X2.5787Y-3.2972
X2.6181Y-3.7303
X2.6265Y-3.5955
X2.628Y-3.8878
X2.628Y-4.1929
X2.628Y-4.3504
X2.628Y-4.6752
X2.628Y-4.8228
X2.628Y-4.9803
X2.628Y-5.1378
X2.628Y-5.2953
X2.628Y-5.4626
X2.628Y-5.6201
X2.628Y-5.7677
X2.628Y-5.9252
X2.628Y-6.0925
X2.628Y-6.2303
X2.6393Y-3.435
X2.7756Y-2.9232
X2.7756Y-3.2972
X2.7825Y-6.3878
X2.784Y-3.7894
X2.784Y-6.4764
X2.7854Y-3.5138
X2.7854Y-3.6516
X2.7854Y-3.8681
X2.7854Y-3.9498
X2.7854Y-4.1043
X2.7854Y-4.1816
X2.7854Y-4.2633
X2.7854Y-4.3391
X2.7854Y-4.4208
X2.7854Y-4.498
X2.7854Y-4.5797
X2.7854Y-4.6555
X2.7854Y-4.7372
X2.7854Y-4.8115
X2.7854Y-4.8932
X2.7854Y-4.9705
X2.7854Y-5.0522
X2.7854Y-5.128
X2.7854Y-5.2096
X2.7854Y-5.2854
X2.7854Y-5.3671
X2.7854Y-5.4429
X2.7854Y-5.5246
X2.7854Y-5.5989
X2.7854Y-5.6806
X2.7854Y-5.7564
X2.7854Y-5.8381
X2.7854Y-5.9154
X2.7854Y-5.997
X2.7854Y-6.0728
X2.7854Y-6.1545
X2.7854Y-6.2288
X2.7854Y-6.3105
X2.8346Y-3.4252
X2.8642Y-6.3878
X2.8656Y-6.4764
X2.874Y-2.9232
X2.874Y-3.2972
X2.9218Y-4.7244
X2.9232Y-3.5138
X2.9232Y-4.872
X2.9301Y-6.2894
X2.9331Y-3.6516
X2.9331Y-3.7697
X2.9345Y-5.5172
X2.9528Y-6.3386
X2.9626Y-4.3602
X2.9626Y-4.9409
X2.9626Y-5.1969
X2.9675Y-4.1486
X2.9724Y-2.9232
X2.9724Y-3.2972
X2.9724Y-5.7382
X2.9724Y-5.9941
X2.9823Y-4.3996
X2.9921Y-5.1201
X2.9921Y-5.1673
X2.9921Y-5.9547
X2.9963Y-4.3002
X3.002Y-4.1732
X3.002Y-4.9803
X3.002Y-5.0295
X3.002Y-5.0689
X3.002Y-5.7972
X3.002Y-5.8563
X3.002Y-5.9055
X3.0118Y-4.2618
X3.0315Y-4.2224
X3.061Y-4.5374
X3.061Y-5.1969
X3.061Y-5.9843
X3.0709Y-2.9232
X3.0709Y-3.2972
X3.1102Y-3.0315
X3.1102Y-6.437
X3.1299Y-6.1614
X3.1594Y-6.3681
X3.1693Y-2.9232
X3.1693Y-3.2972
X3.2579Y-6.5256
X3.3071Y-3.376
X3.3366Y-2.9921
X3.3465Y-3.3563
X3.3563Y-3.3071
X3.376Y-2.9429
X3.376Y-4.813
X3.376Y-6.2697
X3.3858Y-2.7756
X3.3858Y-4.5079
X3.3858Y-4.9016
X3.3858Y-5.0
X3.3858Y-5.0984
X3.3858Y-5.2067
X3.3858Y-5.2953
X3.3858Y-5.7087
X3.3864Y-3.0002
X3.3957Y-5.4035
X3.3957Y-5.8071
X3.3957Y-5.9055
X3.3957Y-6.0138
X3.3957Y-6.437
X3.4055Y-4.7441
X3.4154Y-2.8445
X3.4154Y-4.4094
X3.4154Y-5.5217
X3.4252Y-5.6004
X3.435Y-4.3012
X3.435Y-4.6358
X3.4461Y-2.8827
X3.4547Y-4.2126
X3.4547Y-6.122
X3.4744Y-4.1043
X3.4843Y-4.0551
X3.4941Y-2.8937
X3.5236Y-3.1791
X3.5236Y-6.0138
X3.5531Y-3.2677
X3.622Y-3.376
X3.622Y-6.0531
X3.6319Y-3.0413
X3.6382Y-3.248
X3.6614Y-2.9724
X3.6713Y-6.2795
X3.7106Y-6.063
X3.7205Y-3.4744
X3.7598Y-3.0413
X3.7992Y-2.9331
X3.7992Y-3.3071
X3.7992Y-6.0531
X3.8091Y-5.5512
X3.8189Y-5.2953
X3.8189Y-5.7677
X3.8287Y-5.1083
X3.8287Y-5.3839
X3.8287Y-5.4724
X3.8287Y-5.8858
X3.8386Y-4.3012
X3.8386Y-4.5177
X3.8386Y-4.6063
X3.8386Y-4.8228
X3.8386Y-4.9213
X3.8386Y-5.0197
X3.8386Y-5.2067
X3.8484Y-4.0157
X3.8484Y-4.1043
X3.8484Y-4.1929
X3.8484Y-4.4094
X3.8484Y-4.7244
X3.8484Y-5.689
X3.878Y-3.8189
X3.8878Y-3.3071
X3.9173Y-3.0413
X3.937Y-3.4547
X3.9961Y-2.9331
X3.9961Y-3.3071
X4.06Y-3.7156
X4.0846Y-3.6811
X4.0942Y-2.9308
X4.0945Y-3.3071
X4.0945Y-3.8091
X4.1437Y-3.0413
X4.1634Y-3.4449
X4.1929Y-3.3071
X4.2224Y-4.1732
X4.2323Y-2.9035
X4.2323Y-4.5669
X4.2421Y-2.9921
X4.2421Y-3.3563
X4.2421Y-4.9606
X4.2913Y-2.9134
X4.2913Y-3.3071
X4.3209Y-3.4252
X4.3307Y-5.315
X4.3406Y-2.9921
X4.3898Y-2.9134
X4.3898Y-3.3071
X4.3996Y-5.5906
X4.3996Y-5.8661
X4.4193Y-6.1614
X4.4488Y-2.9921
X4.5669Y-4.2224
X4.5965Y-2.9626
X4.6358Y-2.8642
X4.6457Y-5.128
X4.6555Y-3.8386
X4.6555Y-4.5177
X4.7404Y-3.5174
X4.7539Y-3.6516
X4.77Y-3.547
X4.792Y-3.6618
X4.7933Y-4.2028
X4.7933Y-4.5079
X4.7933Y-4.8031
X4.7933Y-5.0984
X4.7933Y-5.4035
X4.7933Y-5.6988
X4.7933Y-5.9941
X4.8044Y-3.5814
X4.8055Y-3.7032
X4.8425Y-3.8878
X4.8438Y-3.6208
X4.8622Y-3.9567
X4.8819Y-4.4291
X4.8829Y-3.6403
X4.8917Y-5.0886
X4.8917Y-5.4429
X4.9016Y-4.2224
X4.9016Y-4.5276
X4.9114Y-4.8031
X4.9114Y-5.3346
X4.9114Y-5.6299
X5.0394Y-3.7697
X5.0492Y-3.2382
X5.0492Y-3.3465
X5.0689Y-5.7677
X5.0787Y-3.3169
X5.0874Y-3.2579
X5.0886Y-2.7854
X5.128Y-5.4429
X5.1476Y-3.3957
X5.1476Y-5.6004
X5.187Y-3.4055
X5.2559Y-3.376
X5.2953Y-2.9232
X5.3051Y-4.1043
X5.3167Y-4.6654
X5.3248Y-5.9154
X5.4035Y-3.3268
X5.4921Y-2.9232
X5.5315Y-3.9272
X5.5315Y-4.3812
X5.5315Y-4.8031
X5.5315Y-6.3878
X5.561Y-5.5118
X5.5807Y-4.0157
X5.5807Y-4.1634
X5.5807Y-4.3209
X5.5807Y-4.6752
X5.5906Y-2.9232
X5.5955Y-5.5364
X5.6102Y-4.8425
X5.6398Y-3.0118
X5.689Y-2.9232
X5.689Y-3.0413
X5.689Y-5.6102
X5.7087Y-6.0236
X5.7185Y-3.8583
X5.7382Y-3.0118
X5.7874Y-2.9232
X5.7874Y-3.0315
X5.8366Y-3.0118
X5.8563Y-4.2717
X5.8673Y-3.0917
X5.8858Y-2.9232
X5.8858Y-3.0315
X5.9172Y-3.101
X5.9707Y-3.0967
X5.9744Y-3.3858
X5.9744Y-3.4252
X5.9744Y-5.0984
X5.9901Y-3.1594
X5.9941Y-3.6516
X6.0138Y-3.1201
X6.0356Y-3.0873
X6.0925Y-3.1201
X6.1429Y-3.1114
X6.1451Y-3.151
X6.1713Y-4.5768
X6.1811Y-2.7559
X6.1811Y-5.4134
X6.2008Y-3.6713
X6.2598Y-3.1496
X6.378Y-4.7441
X6.4567Y-3.7402
X6.4862Y-4.0551
X6.5256Y-2.9626
X6.5354Y-6.4173
X6.565Y-2.7657
X6.565Y-3.1398
X6.752Y-2.9134
X6.7618Y-3.2874
X6.7717Y-5.128
X6.8012Y-5.689
X6.8406Y-5.7087
X6.8504Y-4.5374
X6.8898Y-5.7182
X6.9033Y-5.5943
X6.9094Y-5.7776
X6.9386Y-5.7477
X6.939Y-3.5335
X6.939Y-5.8169
X6.9488Y-2.9134
X6.9587Y-3.2874
X6.9587Y-5.5807
X6.9919Y-5.8108
X7.0075Y-5.6007
X7.0276Y-3.0413
X7.0374Y-5.8071
X7.0472Y-2.9134
X7.0571Y-3.2874
X7.0669Y-3.9272
X7.0965Y-3.435
X7.0965Y-3.878
X7.0965Y-5.561
X7.1063Y-6.0039
X7.1165Y-4.1047
X7.126Y-3.9567
X7.126Y-5.5217
X7.1358Y-4.2204
X7.1358Y-6.4173
X7.1457Y-2.9134
X7.1459Y-4.1824
X7.1461Y-5.3445
X7.1555Y-3.2874
X7.1555Y-3.7402
X7.1555Y-5.4528
X7.1752Y-3.4252
X7.1752Y-5.8661
X7.185Y-3.6024
X7.1949Y-3.002
X7.2146Y-3.5531
X7.2244Y-3.0413
X7.2244Y-3.4449
X7.2441Y-2.9134
X7.2539Y-3.2874
X7.2933Y-3.002
X7.313Y-5.0787
X7.3327Y-5.7185
X7.3425Y-2.9134
X7.3524Y-3.2874
X7.372Y-5.7382
X7.4114Y-5.7579
X7.4508Y-6.0531
X7.4606Y-5.7874
X7.4803Y-4.3602
X7.4803Y-4.4587
X7.5098Y-3.0217
X7.5197Y-3.3366
X7.5394Y-5.4823
X7.5689Y-4.3602
X7.6772Y-6.4173
X7.687Y-5.8327
X7.7067Y-2.874
X7.7165Y-4.252
X7.7165Y-4.4587
X7.7165Y-5.128
X7.7539Y-5.935
X7.8051Y-4.0945
X7.815Y-4.7146
X7.8346Y-3.6614
X7.8346Y-5.2264
X7.8346Y-5.4232
X7.8543Y-2.7756
X7.8937Y-3.1102
X7.8937Y-5.0
X7.9429Y-5.9252
X7.9446Y-5.6004
X7.9603Y-6.1845
X7.9918Y-5.6102
X8.0227Y-5.6802
X8.0361Y-5.625
X8.0588Y-6.3223
X8.0883Y-5.9779
X8.1001Y-5.7874
X8.1178Y-6.3125
X8.1277Y-6.0074
X8.1375Y-6.2042
X8.1398Y-5.9646
X8.1496Y-5.6496
X8.1887Y-5.9843
X8.1966Y-6.3125
X8.295Y-6.2042
X8.3071Y-3.4843
X8.435Y-6.2303
X8.4537Y-5.3642
X8.4636Y-6.0039
X8.4833Y-5.7874
X8.5128Y-5.5315
X8.7894Y-6.1909
X8.8287Y-3.1693
T3
X3.3173Y-4.0079
X3.3173Y-4.1079
X3.3173Y-4.2079
X3.3173Y-4.3079
X3.3173Y-4.4079
X3.3173Y-4.5079
X3.3173Y-4.6079
X3.3173Y-4.7079
X3.3173Y-4.8079
X3.3173Y-4.9079
X3.3173Y-5.0079
X3.3173Y-5.1079
X3.3173Y-5.2079
X3.3173Y-5.3079
X3.3173Y-5.4079
X3.3173Y-5.5079
X3.3173Y-5.6079
X3.3173Y-5.7079
X3.3173Y-5.8079
X3.3173Y-5.9079
X3.3173Y-6.0079
X3.3173Y-6.1079
X3.3173Y-6.2079
X3.3173Y-6.3079
X3.9173Y-4.0079
X3.9173Y-4.1079
X3.9173Y-4.2079
X3.9173Y-4.3079
X3.9173Y-4.4079
X3.9173Y-4.5079
X3.9173Y-4.6079
X3.9173Y-4.7079
X3.9173Y-4.8079
X3.9173Y-4.9079
X3.9173Y-5.0079
X3.9173Y-5.1079
X3.9173Y-5.2079
X3.9173Y-5.3079
X3.9173Y-5.4079
X3.9173Y-5.5079
X3.9173Y-5.6079
X3.9173Y-5.7079
X3.9173Y-5.8079
X3.9173Y-5.9079
X3.9173Y-6.0079
X3.9173Y-6.1079
X3.9173Y-6.2079
X3.9173Y-6.3079
T4
X4.2224Y-5.4429
X4.2224Y-5.7283
X4.2224Y-6.0138
X4.2224Y-6.2992
X4.3012Y-5.4429
X4.3012Y-5.7283
X4.3012Y-6.0138
X4.3012Y-6.2992
X4.3799Y-5.4429
X4.3799Y-5.7283
X4.3799Y-6.0138
X4.3799Y-6.2992
X7.8543Y-3.8189
X7.9331Y-3.8189
X7.938Y-3.4646
X8.0167Y-3.4646
X8.0955Y-3.4646
X8.2015Y-4.7638
X8.2999Y-4.7638
X8.3661Y-3.7992
X8.4449Y-3.7992
X8.5089Y-3.4646
X8.5876Y-3.4646
X8.6663Y-3.4646
X8.6739Y-4.7638
X8.7723Y-4.7638
T5
X2.0571Y-3.5433
X2.0571Y-3.9252
X2.0571Y-4.3189
X2.0571Y-4.7126
X2.0571Y-5.0984
X2.0571Y-5.4921
X2.0571Y-5.8858
X2.1555Y-3.5433
X2.1555Y-3.9252
X2.1555Y-4.3189
X2.1555Y-4.7126
X2.1555Y-5.0984
X2.1555Y-5.4921
X2.1555Y-5.8858
X2.2539Y-3.5433
X2.2539Y-3.9252
X2.2539Y-4.3189
X2.2539Y-4.7126
X2.2539Y-5.0984
X2.2539Y-5.4921
X2.2539Y-5.8858
X2.3524Y-3.5433
X2.3524Y-3.9252
X2.3524Y-4.3189
X2.3524Y-4.7126
X2.3524Y-5.0984
X2.3524Y-5.4921
X2.3524Y-5.8858
X2.4508Y-3.5433
X2.4508Y-3.9252
X2.4508Y-4.3189
X2.4508Y-4.7126
X2.4508Y-5.0984
X2.4508Y-5.4921
X2.4508Y-5.8858
X2.5787Y-2.7756
X2.5787Y-3.1575
X2.6772Y-2.7756
X2.6772Y-3.1575
X2.7756Y-2.7756
X2.7756Y-3.1575
X2.874Y-2.7756
X2.874Y-3.1575
X2.9724Y-2.7756
X2.9724Y-3.1575
X3.0709Y-2.7756
X3.0709Y-3.1575
X3.1693Y-2.7756
X3.1693Y-3.1575
X3.2677Y-2.7756
X3.2677Y-3.1575
X3.7992Y-2.7756
X3.7992Y-3.1575
X3.8976Y-2.7756
X3.8976Y-3.1575
X3.9961Y-2.7756
X3.9961Y-3.1575
X4.0945Y-2.7756
X4.0945Y-3.1575
X4.1929Y-2.7756
X4.1929Y-3.1575
X4.2126Y-4.0059
X4.2126Y-4.3996
X4.2126Y-4.7933
X4.2126Y-5.187
X4.2913Y-2.7756
X4.2913Y-3.1575
X4.311Y-4.0059
X4.311Y-4.3996
X4.311Y-4.7933
X4.311Y-5.187
X4.3898Y-2.7756
X4.3898Y-3.1575
X4.4094Y-4.0059
X4.4094Y-4.3996
X4.4094Y-4.7933
X4.4094Y-5.187
X4.4882Y-2.7756
X4.4882Y-3.1575
X5.2953Y-2.7756
X5.3937Y-2.7756
X5.4921Y-2.7756
X5.5906Y-2.7756
X5.689Y-2.7756
X5.7874Y-2.7756
X5.8858Y-2.7756
X5.9843Y-2.7756
X6.752Y-2.7805
X6.7618Y-3.1496
X6.8504Y-2.7805
X6.8602Y-3.1496
X6.9488Y-2.7805
X6.9587Y-3.1496
X7.0472Y-2.7805
X7.0571Y-3.1496
X7.1457Y-2.7805
X7.1555Y-3.1496
X7.2441Y-2.7805
X7.2539Y-3.1496
X7.3425Y-2.7805
X7.3524Y-3.1496
X7.4409Y-2.7805
X7.4508Y-3.1496
T6
X4.6949Y-4.065
X4.6949Y-4.3701
X4.6949Y-4.6654
X4.6949Y-4.9606
X4.6949Y-5.2559
X4.6949Y-5.5512
X4.6949Y-5.8543
X4.7933Y-4.065
X4.7933Y-4.3701
X4.7933Y-4.6654
X4.7933Y-4.9606
X4.7933Y-5.2559
X4.7933Y-5.5512
X4.7933Y-5.8543
T7
X5.1236Y-3.5055
X5.1236Y-3.6055
X5.1236Y-3.7055
X5.1236Y-3.8055
X5.1236Y-3.9055
X5.1236Y-4.0055
X5.1236Y-4.1055
X5.1236Y-4.2055
X5.1236Y-4.3055
X5.1236Y-4.4055
X5.1236Y-4.5055
X5.1236Y-4.6055
X5.1236Y-4.7055
X5.1236Y-4.8055
X5.1236Y-4.9055
X5.1236Y-5.0055
X5.1236Y-5.1055
X5.1236Y-5.2055
X5.1236Y-5.3055
X5.2236Y-3.5055
X5.2236Y-3.6055
X5.2236Y-3.7055
X5.2236Y-3.8055
X5.2236Y-3.9055
X5.2236Y-4.0055
X5.2236Y-4.1055
X5.2236Y-4.2055
X5.2236Y-4.3055
X5.2236Y-4.4055
X5.2236Y-4.5055
X5.2236Y-4.6055
X5.2236Y-4.7055
X5.2236Y-4.8055
X5.2236Y-4.9055
X5.2236Y-5.0055
X5.2236Y-5.1055
X5.2236Y-5.2055
X5.2236Y-5.3055
X7.5236Y-3.5055
X7.5236Y-3.6055
X7.5236Y-3.7055
X7.5236Y-3.8055
X7.5236Y-3.9055
X7.5236Y-4.0055
X7.5236Y-4.1055
X7.5236Y-4.2055
X7.5236Y-4.3055
X7.5236Y-4.4055
X7.5236Y-4.5055
X7.5236Y-4.6055
X7.5236Y-4.7055
X7.5236Y-4.8055
X7.5236Y-4.9055
X7.5236Y-5.0055
X7.5236Y-5.1055
X7.5236Y-5.2055
X7.5236Y-5.3055
X7.6236Y-3.5055
X7.6236Y-3.6055
X7.6236Y-3.7055
X7.6236Y-3.8055
X7.6236Y-3.9055
X7.6236Y-4.0055
X7.6236Y-4.1055
X7.6236Y-4.2055
X7.6236Y-4.3055
X7.6236Y-4.4055
X7.6236Y-4.5055
X7.6236Y-4.6055
X7.6236Y-4.7055
X7.6236Y-4.8055
X7.6236Y-4.9055
X7.6236Y-5.0055
X7.6236Y-5.1055
X7.6236Y-5.2055
X7.6236Y-5.3055
T8
X5.4236Y-3.5055
X5.4236Y-3.6055
X5.4236Y-3.7055
X5.4236Y-3.8055
X5.4236Y-3.9055
X5.4236Y-4.0055
X5.4236Y-4.1055
X5.4236Y-4.2055
X5.4236Y-4.3654
X5.4236Y-4.4654
X5.4236Y-4.5654
X5.4236Y-4.6654
X5.4236Y-4.7654
X5.4236Y-4.8654
X5.4236Y-4.9654
X5.4236Y-5.0654
X5.4236Y-5.1654
X5.4236Y-5.2654
X7.3236Y-3.5055
X7.3236Y-3.6055
X7.3236Y-3.7055
X7.3236Y-3.8055
X7.3236Y-3.9055
X7.3236Y-4.0055
X7.3236Y-4.2055
X7.3236Y-4.3055
X7.3236Y-4.4055
X7.3236Y-4.5055
X7.3236Y-4.6055
X7.3236Y-4.7055
X7.3236Y-4.8055
X7.3236Y-4.9055
T9
X4.1398Y-5.4429
X4.1398Y-5.7283
X4.1398Y-6.0138
X4.1398Y-6.2992
X4.4626Y-5.4429
X4.4626Y-5.7283
X4.4626Y-6.0138
X4.4626Y-6.2992
X7.8553Y-3.4646
X8.1781Y-3.4646
X8.4262Y-3.4646
X8.749Y-3.4646
T10
X8.0768Y-2.8937
X8.3602Y-2.8937
T2
G00X7.9568Y-6.2606
M15
G01X7.9568Y-6.3039
M16
G05
G00X7.9568Y-6.4311
M15
G01X7.9568Y-6.4626
M16
G05
G00X8.2969Y-6.2606
M15
G01X8.2969Y-6.3039
M16
G05
G00X8.2969Y-6.4311
M15
G01X8.2969Y-6.4626
M16
G05
M30
