%TF.GenerationSoftware,KiCad,Pcbnew,8.0.5*%
%TF.CreationDate,2024-12-09T22:48:51-08:00*%
%TF.ProjectId,MRIRobot_PCB,4d524952-6f62-46f7-945f-5043422e6b69,rev?*%
%TF.SameCoordinates,Original*%
%TF.FileFunction,Paste,Top*%
%TF.FilePolarity,Positive*%
%FSLAX46Y46*%
G04 Gerber Fmt 4.6, Leading zero omitted, Abs format (unit mm)*
G04 Created by KiCad (PCBNEW 8.0.5) date 2024-12-09 22:48:51*
%MOMM*%
%LPD*%
G01*
G04 APERTURE LIST*
G04 Aperture macros list*
%AMRoundRect*
0 Rectangle with rounded corners*
0 $1 Rounding radius*
0 $2 $3 $4 $5 $6 $7 $8 $9 X,Y pos of 4 corners*
0 Add a 4 corners polygon primitive as box body*
4,1,4,$2,$3,$4,$5,$6,$7,$8,$9,$2,$3,0*
0 Add four circle primitives for the rounded corners*
1,1,$1+$1,$2,$3*
1,1,$1+$1,$4,$5*
1,1,$1+$1,$6,$7*
1,1,$1+$1,$8,$9*
0 Add four rect primitives between the rounded corners*
20,1,$1+$1,$2,$3,$4,$5,0*
20,1,$1+$1,$4,$5,$6,$7,0*
20,1,$1+$1,$6,$7,$8,$9,0*
20,1,$1+$1,$8,$9,$2,$3,0*%
G04 Aperture macros list end*
%ADD10C,0.010000*%
%ADD11RoundRect,0.250000X0.475000X-0.337500X0.475000X0.337500X-0.475000X0.337500X-0.475000X-0.337500X0*%
%ADD12RoundRect,0.250000X-0.337500X-0.475000X0.337500X-0.475000X0.337500X0.475000X-0.337500X0.475000X0*%
%ADD13RoundRect,0.250000X-0.450000X0.262500X-0.450000X-0.262500X0.450000X-0.262500X0.450000X0.262500X0*%
%ADD14R,0.610000X1.910000*%
%ADD15R,0.930000X0.723000*%
%ADD16RoundRect,0.250000X0.450000X-0.262500X0.450000X0.262500X-0.450000X0.262500X-0.450000X-0.262500X0*%
%ADD17RoundRect,0.150000X-0.150000X-0.425000X0.150000X-0.425000X0.150000X0.425000X-0.150000X0.425000X0*%
%ADD18RoundRect,0.075000X-0.075000X-0.500000X0.075000X-0.500000X0.075000X0.500000X-0.075000X0.500000X0*%
%ADD19O,1.000000X2.100000*%
%ADD20O,1.000000X1.800000*%
%ADD21RoundRect,0.250000X0.325000X0.450000X-0.325000X0.450000X-0.325000X-0.450000X0.325000X-0.450000X0*%
%ADD22RoundRect,0.250000X0.337500X0.475000X-0.337500X0.475000X-0.337500X-0.475000X0.337500X-0.475000X0*%
%ADD23RoundRect,0.250000X-0.475000X0.337500X-0.475000X-0.337500X0.475000X-0.337500X0.475000X0.337500X0*%
%ADD24RoundRect,0.250000X-0.300000X0.300000X-0.300000X-0.300000X0.300000X-0.300000X0.300000X0.300000X0*%
%ADD25R,3.050000X0.610000*%
%ADD26RoundRect,0.100000X0.637500X0.100000X-0.637500X0.100000X-0.637500X-0.100000X0.637500X-0.100000X0*%
%ADD27RoundRect,0.250000X0.650000X-1.500000X0.650000X1.500000X-0.650000X1.500000X-0.650000X-1.500000X0*%
%ADD28RoundRect,0.250000X0.450000X-0.325000X0.450000X0.325000X-0.450000X0.325000X-0.450000X-0.325000X0*%
%ADD29RoundRect,0.250000X-0.650000X1.500000X-0.650000X-1.500000X0.650000X-1.500000X0.650000X1.500000X0*%
%ADD30RoundRect,0.250000X-0.262500X-0.450000X0.262500X-0.450000X0.262500X0.450000X-0.262500X0.450000X0*%
%ADD31R,1.500000X2.200000*%
%ADD32RoundRect,0.250000X-0.250000X-0.475000X0.250000X-0.475000X0.250000X0.475000X-0.250000X0.475000X0*%
%ADD33RoundRect,0.250000X0.250000X0.475000X-0.250000X0.475000X-0.250000X-0.475000X0.250000X-0.475000X0*%
%ADD34RoundRect,0.250000X-0.450000X-0.800000X0.450000X-0.800000X0.450000X0.800000X-0.450000X0.800000X0*%
%ADD35R,0.400000X1.200000*%
G04 APERTURE END LIST*
D10*
%TO.C,J33*%
X33775000Y-120690000D02*
X33090000Y-120690000D01*
X33059000Y-120654000D01*
X33026000Y-120618000D01*
X32993000Y-120584000D01*
X32958000Y-120550000D01*
X32923000Y-120518000D01*
X32886000Y-120486000D01*
X32849000Y-120456000D01*
X32811000Y-120427000D01*
X32772000Y-120399000D01*
X32732000Y-120372000D01*
X32692000Y-120346000D01*
X32651000Y-120321000D01*
X32609000Y-120298000D01*
X32566000Y-120276000D01*
X32523000Y-120255000D01*
X32479000Y-120235000D01*
X32435000Y-120217000D01*
X32390000Y-120200000D01*
X32344000Y-120184000D01*
X32298000Y-120169000D01*
X32252000Y-120156000D01*
X32206000Y-120145000D01*
X32159000Y-120134000D01*
X32112000Y-120125000D01*
X32064000Y-120117000D01*
X32017000Y-120111000D01*
X31969000Y-120106000D01*
X31921000Y-120103000D01*
X31873000Y-120101000D01*
X31825000Y-120100000D01*
X31777000Y-120101000D01*
X31729000Y-120103000D01*
X31681000Y-120106000D01*
X31633000Y-120111000D01*
X31586000Y-120117000D01*
X31538000Y-120125000D01*
X31491000Y-120134000D01*
X31444000Y-120145000D01*
X31398000Y-120156000D01*
X31352000Y-120169000D01*
X31306000Y-120184000D01*
X31260000Y-120200000D01*
X31215000Y-120217000D01*
X31171000Y-120235000D01*
X31127000Y-120255000D01*
X31084000Y-120276000D01*
X31041000Y-120298000D01*
X30999000Y-120321000D01*
X30958000Y-120346000D01*
X30918000Y-120372000D01*
X30878000Y-120399000D01*
X30839000Y-120427000D01*
X30801000Y-120456000D01*
X30764000Y-120486000D01*
X30727000Y-120518000D01*
X30692000Y-120550000D01*
X30657000Y-120584000D01*
X30624000Y-120618000D01*
X30591000Y-120654000D01*
X30560000Y-120690000D01*
X29875000Y-120690000D01*
X29875000Y-118190000D01*
X33775000Y-118190000D01*
X33775000Y-120690000D01*
G36*
X33775000Y-120690000D02*
G01*
X33090000Y-120690000D01*
X33059000Y-120654000D01*
X33026000Y-120618000D01*
X32993000Y-120584000D01*
X32958000Y-120550000D01*
X32923000Y-120518000D01*
X32886000Y-120486000D01*
X32849000Y-120456000D01*
X32811000Y-120427000D01*
X32772000Y-120399000D01*
X32732000Y-120372000D01*
X32692000Y-120346000D01*
X32651000Y-120321000D01*
X32609000Y-120298000D01*
X32566000Y-120276000D01*
X32523000Y-120255000D01*
X32479000Y-120235000D01*
X32435000Y-120217000D01*
X32390000Y-120200000D01*
X32344000Y-120184000D01*
X32298000Y-120169000D01*
X32252000Y-120156000D01*
X32206000Y-120145000D01*
X32159000Y-120134000D01*
X32112000Y-120125000D01*
X32064000Y-120117000D01*
X32017000Y-120111000D01*
X31969000Y-120106000D01*
X31921000Y-120103000D01*
X31873000Y-120101000D01*
X31825000Y-120100000D01*
X31777000Y-120101000D01*
X31729000Y-120103000D01*
X31681000Y-120106000D01*
X31633000Y-120111000D01*
X31586000Y-120117000D01*
X31538000Y-120125000D01*
X31491000Y-120134000D01*
X31444000Y-120145000D01*
X31398000Y-120156000D01*
X31352000Y-120169000D01*
X31306000Y-120184000D01*
X31260000Y-120200000D01*
X31215000Y-120217000D01*
X31171000Y-120235000D01*
X31127000Y-120255000D01*
X31084000Y-120276000D01*
X31041000Y-120298000D01*
X30999000Y-120321000D01*
X30958000Y-120346000D01*
X30918000Y-120372000D01*
X30878000Y-120399000D01*
X30839000Y-120427000D01*
X30801000Y-120456000D01*
X30764000Y-120486000D01*
X30727000Y-120518000D01*
X30692000Y-120550000D01*
X30657000Y-120584000D01*
X30624000Y-120618000D01*
X30591000Y-120654000D01*
X30560000Y-120690000D01*
X29875000Y-120690000D01*
X29875000Y-118190000D01*
X33775000Y-118190000D01*
X33775000Y-120690000D01*
G37*
X30591000Y-135546000D02*
X30624000Y-135582000D01*
X30657000Y-135616000D01*
X30692000Y-135650000D01*
X30727000Y-135682000D01*
X30764000Y-135714000D01*
X30801000Y-135744000D01*
X30839000Y-135773000D01*
X30878000Y-135801000D01*
X30918000Y-135828000D01*
X30958000Y-135854000D01*
X30999000Y-135879000D01*
X31041000Y-135902000D01*
X31084000Y-135924000D01*
X31127000Y-135945000D01*
X31171000Y-135965000D01*
X31215000Y-135983000D01*
X31260000Y-136000000D01*
X31306000Y-136016000D01*
X31352000Y-136031000D01*
X31398000Y-136044000D01*
X31444000Y-136055000D01*
X31491000Y-136066000D01*
X31538000Y-136075000D01*
X31586000Y-136083000D01*
X31633000Y-136089000D01*
X31681000Y-136094000D01*
X31729000Y-136097000D01*
X31777000Y-136099000D01*
X31825000Y-136100000D01*
X31873000Y-136099000D01*
X31921000Y-136097000D01*
X31969000Y-136094000D01*
X32017000Y-136089000D01*
X32064000Y-136083000D01*
X32112000Y-136075000D01*
X32159000Y-136066000D01*
X32206000Y-136055000D01*
X32252000Y-136044000D01*
X32298000Y-136031000D01*
X32344000Y-136016000D01*
X32390000Y-136000000D01*
X32435000Y-135983000D01*
X32479000Y-135965000D01*
X32523000Y-135945000D01*
X32566000Y-135924000D01*
X32609000Y-135902000D01*
X32651000Y-135879000D01*
X32692000Y-135854000D01*
X32732000Y-135828000D01*
X32772000Y-135801000D01*
X32811000Y-135773000D01*
X32849000Y-135744000D01*
X32886000Y-135714000D01*
X32923000Y-135682000D01*
X32958000Y-135650000D01*
X32993000Y-135616000D01*
X33026000Y-135582000D01*
X33059000Y-135546000D01*
X33090000Y-135510000D01*
X33775000Y-135510000D01*
X33775000Y-138010000D01*
X29875000Y-138010000D01*
X29875000Y-135510000D01*
X30560000Y-135510000D01*
X30591000Y-135546000D01*
G36*
X30591000Y-135546000D02*
G01*
X30624000Y-135582000D01*
X30657000Y-135616000D01*
X30692000Y-135650000D01*
X30727000Y-135682000D01*
X30764000Y-135714000D01*
X30801000Y-135744000D01*
X30839000Y-135773000D01*
X30878000Y-135801000D01*
X30918000Y-135828000D01*
X30958000Y-135854000D01*
X30999000Y-135879000D01*
X31041000Y-135902000D01*
X31084000Y-135924000D01*
X31127000Y-135945000D01*
X31171000Y-135965000D01*
X31215000Y-135983000D01*
X31260000Y-136000000D01*
X31306000Y-136016000D01*
X31352000Y-136031000D01*
X31398000Y-136044000D01*
X31444000Y-136055000D01*
X31491000Y-136066000D01*
X31538000Y-136075000D01*
X31586000Y-136083000D01*
X31633000Y-136089000D01*
X31681000Y-136094000D01*
X31729000Y-136097000D01*
X31777000Y-136099000D01*
X31825000Y-136100000D01*
X31873000Y-136099000D01*
X31921000Y-136097000D01*
X31969000Y-136094000D01*
X32017000Y-136089000D01*
X32064000Y-136083000D01*
X32112000Y-136075000D01*
X32159000Y-136066000D01*
X32206000Y-136055000D01*
X32252000Y-136044000D01*
X32298000Y-136031000D01*
X32344000Y-136016000D01*
X32390000Y-136000000D01*
X32435000Y-135983000D01*
X32479000Y-135965000D01*
X32523000Y-135945000D01*
X32566000Y-135924000D01*
X32609000Y-135902000D01*
X32651000Y-135879000D01*
X32692000Y-135854000D01*
X32732000Y-135828000D01*
X32772000Y-135801000D01*
X32811000Y-135773000D01*
X32849000Y-135744000D01*
X32886000Y-135714000D01*
X32923000Y-135682000D01*
X32958000Y-135650000D01*
X32993000Y-135616000D01*
X33026000Y-135582000D01*
X33059000Y-135546000D01*
X33090000Y-135510000D01*
X33775000Y-135510000D01*
X33775000Y-138010000D01*
X29875000Y-138010000D01*
X29875000Y-135510000D01*
X30560000Y-135510000D01*
X30591000Y-135546000D01*
G37*
%TO.C,J28*%
X33700000Y-99790000D02*
X33015000Y-99790000D01*
X32984000Y-99754000D01*
X32951000Y-99718000D01*
X32918000Y-99684000D01*
X32883000Y-99650000D01*
X32848000Y-99618000D01*
X32811000Y-99586000D01*
X32774000Y-99556000D01*
X32736000Y-99527000D01*
X32697000Y-99499000D01*
X32657000Y-99472000D01*
X32617000Y-99446000D01*
X32576000Y-99421000D01*
X32534000Y-99398000D01*
X32491000Y-99376000D01*
X32448000Y-99355000D01*
X32404000Y-99335000D01*
X32360000Y-99317000D01*
X32315000Y-99300000D01*
X32269000Y-99284000D01*
X32223000Y-99269000D01*
X32177000Y-99256000D01*
X32131000Y-99245000D01*
X32084000Y-99234000D01*
X32037000Y-99225000D01*
X31989000Y-99217000D01*
X31942000Y-99211000D01*
X31894000Y-99206000D01*
X31846000Y-99203000D01*
X31798000Y-99201000D01*
X31750000Y-99200000D01*
X31702000Y-99201000D01*
X31654000Y-99203000D01*
X31606000Y-99206000D01*
X31558000Y-99211000D01*
X31511000Y-99217000D01*
X31463000Y-99225000D01*
X31416000Y-99234000D01*
X31369000Y-99245000D01*
X31323000Y-99256000D01*
X31277000Y-99269000D01*
X31231000Y-99284000D01*
X31185000Y-99300000D01*
X31140000Y-99317000D01*
X31096000Y-99335000D01*
X31052000Y-99355000D01*
X31009000Y-99376000D01*
X30966000Y-99398000D01*
X30924000Y-99421000D01*
X30883000Y-99446000D01*
X30843000Y-99472000D01*
X30803000Y-99499000D01*
X30764000Y-99527000D01*
X30726000Y-99556000D01*
X30689000Y-99586000D01*
X30652000Y-99618000D01*
X30617000Y-99650000D01*
X30582000Y-99684000D01*
X30549000Y-99718000D01*
X30516000Y-99754000D01*
X30485000Y-99790000D01*
X29800000Y-99790000D01*
X29800000Y-97290000D01*
X33700000Y-97290000D01*
X33700000Y-99790000D01*
G36*
X33700000Y-99790000D02*
G01*
X33015000Y-99790000D01*
X32984000Y-99754000D01*
X32951000Y-99718000D01*
X32918000Y-99684000D01*
X32883000Y-99650000D01*
X32848000Y-99618000D01*
X32811000Y-99586000D01*
X32774000Y-99556000D01*
X32736000Y-99527000D01*
X32697000Y-99499000D01*
X32657000Y-99472000D01*
X32617000Y-99446000D01*
X32576000Y-99421000D01*
X32534000Y-99398000D01*
X32491000Y-99376000D01*
X32448000Y-99355000D01*
X32404000Y-99335000D01*
X32360000Y-99317000D01*
X32315000Y-99300000D01*
X32269000Y-99284000D01*
X32223000Y-99269000D01*
X32177000Y-99256000D01*
X32131000Y-99245000D01*
X32084000Y-99234000D01*
X32037000Y-99225000D01*
X31989000Y-99217000D01*
X31942000Y-99211000D01*
X31894000Y-99206000D01*
X31846000Y-99203000D01*
X31798000Y-99201000D01*
X31750000Y-99200000D01*
X31702000Y-99201000D01*
X31654000Y-99203000D01*
X31606000Y-99206000D01*
X31558000Y-99211000D01*
X31511000Y-99217000D01*
X31463000Y-99225000D01*
X31416000Y-99234000D01*
X31369000Y-99245000D01*
X31323000Y-99256000D01*
X31277000Y-99269000D01*
X31231000Y-99284000D01*
X31185000Y-99300000D01*
X31140000Y-99317000D01*
X31096000Y-99335000D01*
X31052000Y-99355000D01*
X31009000Y-99376000D01*
X30966000Y-99398000D01*
X30924000Y-99421000D01*
X30883000Y-99446000D01*
X30843000Y-99472000D01*
X30803000Y-99499000D01*
X30764000Y-99527000D01*
X30726000Y-99556000D01*
X30689000Y-99586000D01*
X30652000Y-99618000D01*
X30617000Y-99650000D01*
X30582000Y-99684000D01*
X30549000Y-99718000D01*
X30516000Y-99754000D01*
X30485000Y-99790000D01*
X29800000Y-99790000D01*
X29800000Y-97290000D01*
X33700000Y-97290000D01*
X33700000Y-99790000D01*
G37*
X30516000Y-114646000D02*
X30549000Y-114682000D01*
X30582000Y-114716000D01*
X30617000Y-114750000D01*
X30652000Y-114782000D01*
X30689000Y-114814000D01*
X30726000Y-114844000D01*
X30764000Y-114873000D01*
X30803000Y-114901000D01*
X30843000Y-114928000D01*
X30883000Y-114954000D01*
X30924000Y-114979000D01*
X30966000Y-115002000D01*
X31009000Y-115024000D01*
X31052000Y-115045000D01*
X31096000Y-115065000D01*
X31140000Y-115083000D01*
X31185000Y-115100000D01*
X31231000Y-115116000D01*
X31277000Y-115131000D01*
X31323000Y-115144000D01*
X31369000Y-115155000D01*
X31416000Y-115166000D01*
X31463000Y-115175000D01*
X31511000Y-115183000D01*
X31558000Y-115189000D01*
X31606000Y-115194000D01*
X31654000Y-115197000D01*
X31702000Y-115199000D01*
X31750000Y-115200000D01*
X31798000Y-115199000D01*
X31846000Y-115197000D01*
X31894000Y-115194000D01*
X31942000Y-115189000D01*
X31989000Y-115183000D01*
X32037000Y-115175000D01*
X32084000Y-115166000D01*
X32131000Y-115155000D01*
X32177000Y-115144000D01*
X32223000Y-115131000D01*
X32269000Y-115116000D01*
X32315000Y-115100000D01*
X32360000Y-115083000D01*
X32404000Y-115065000D01*
X32448000Y-115045000D01*
X32491000Y-115024000D01*
X32534000Y-115002000D01*
X32576000Y-114979000D01*
X32617000Y-114954000D01*
X32657000Y-114928000D01*
X32697000Y-114901000D01*
X32736000Y-114873000D01*
X32774000Y-114844000D01*
X32811000Y-114814000D01*
X32848000Y-114782000D01*
X32883000Y-114750000D01*
X32918000Y-114716000D01*
X32951000Y-114682000D01*
X32984000Y-114646000D01*
X33015000Y-114610000D01*
X33700000Y-114610000D01*
X33700000Y-117110000D01*
X29800000Y-117110000D01*
X29800000Y-114610000D01*
X30485000Y-114610000D01*
X30516000Y-114646000D01*
G36*
X30516000Y-114646000D02*
G01*
X30549000Y-114682000D01*
X30582000Y-114716000D01*
X30617000Y-114750000D01*
X30652000Y-114782000D01*
X30689000Y-114814000D01*
X30726000Y-114844000D01*
X30764000Y-114873000D01*
X30803000Y-114901000D01*
X30843000Y-114928000D01*
X30883000Y-114954000D01*
X30924000Y-114979000D01*
X30966000Y-115002000D01*
X31009000Y-115024000D01*
X31052000Y-115045000D01*
X31096000Y-115065000D01*
X31140000Y-115083000D01*
X31185000Y-115100000D01*
X31231000Y-115116000D01*
X31277000Y-115131000D01*
X31323000Y-115144000D01*
X31369000Y-115155000D01*
X31416000Y-115166000D01*
X31463000Y-115175000D01*
X31511000Y-115183000D01*
X31558000Y-115189000D01*
X31606000Y-115194000D01*
X31654000Y-115197000D01*
X31702000Y-115199000D01*
X31750000Y-115200000D01*
X31798000Y-115199000D01*
X31846000Y-115197000D01*
X31894000Y-115194000D01*
X31942000Y-115189000D01*
X31989000Y-115183000D01*
X32037000Y-115175000D01*
X32084000Y-115166000D01*
X32131000Y-115155000D01*
X32177000Y-115144000D01*
X32223000Y-115131000D01*
X32269000Y-115116000D01*
X32315000Y-115100000D01*
X32360000Y-115083000D01*
X32404000Y-115065000D01*
X32448000Y-115045000D01*
X32491000Y-115024000D01*
X32534000Y-115002000D01*
X32576000Y-114979000D01*
X32617000Y-114954000D01*
X32657000Y-114928000D01*
X32697000Y-114901000D01*
X32736000Y-114873000D01*
X32774000Y-114844000D01*
X32811000Y-114814000D01*
X32848000Y-114782000D01*
X32883000Y-114750000D01*
X32918000Y-114716000D01*
X32951000Y-114682000D01*
X32984000Y-114646000D01*
X33015000Y-114610000D01*
X33700000Y-114610000D01*
X33700000Y-117110000D01*
X29800000Y-117110000D01*
X29800000Y-114610000D01*
X30485000Y-114610000D01*
X30516000Y-114646000D01*
G37*
%TO.C,J32*%
X33700000Y-78790000D02*
X33015000Y-78790000D01*
X32984000Y-78754000D01*
X32951000Y-78718000D01*
X32918000Y-78684000D01*
X32883000Y-78650000D01*
X32848000Y-78618000D01*
X32811000Y-78586000D01*
X32774000Y-78556000D01*
X32736000Y-78527000D01*
X32697000Y-78499000D01*
X32657000Y-78472000D01*
X32617000Y-78446000D01*
X32576000Y-78421000D01*
X32534000Y-78398000D01*
X32491000Y-78376000D01*
X32448000Y-78355000D01*
X32404000Y-78335000D01*
X32360000Y-78317000D01*
X32315000Y-78300000D01*
X32269000Y-78284000D01*
X32223000Y-78269000D01*
X32177000Y-78256000D01*
X32131000Y-78245000D01*
X32084000Y-78234000D01*
X32037000Y-78225000D01*
X31989000Y-78217000D01*
X31942000Y-78211000D01*
X31894000Y-78206000D01*
X31846000Y-78203000D01*
X31798000Y-78201000D01*
X31750000Y-78200000D01*
X31702000Y-78201000D01*
X31654000Y-78203000D01*
X31606000Y-78206000D01*
X31558000Y-78211000D01*
X31511000Y-78217000D01*
X31463000Y-78225000D01*
X31416000Y-78234000D01*
X31369000Y-78245000D01*
X31323000Y-78256000D01*
X31277000Y-78269000D01*
X31231000Y-78284000D01*
X31185000Y-78300000D01*
X31140000Y-78317000D01*
X31096000Y-78335000D01*
X31052000Y-78355000D01*
X31009000Y-78376000D01*
X30966000Y-78398000D01*
X30924000Y-78421000D01*
X30883000Y-78446000D01*
X30843000Y-78472000D01*
X30803000Y-78499000D01*
X30764000Y-78527000D01*
X30726000Y-78556000D01*
X30689000Y-78586000D01*
X30652000Y-78618000D01*
X30617000Y-78650000D01*
X30582000Y-78684000D01*
X30549000Y-78718000D01*
X30516000Y-78754000D01*
X30485000Y-78790000D01*
X29800000Y-78790000D01*
X29800000Y-76290000D01*
X33700000Y-76290000D01*
X33700000Y-78790000D01*
G36*
X33700000Y-78790000D02*
G01*
X33015000Y-78790000D01*
X32984000Y-78754000D01*
X32951000Y-78718000D01*
X32918000Y-78684000D01*
X32883000Y-78650000D01*
X32848000Y-78618000D01*
X32811000Y-78586000D01*
X32774000Y-78556000D01*
X32736000Y-78527000D01*
X32697000Y-78499000D01*
X32657000Y-78472000D01*
X32617000Y-78446000D01*
X32576000Y-78421000D01*
X32534000Y-78398000D01*
X32491000Y-78376000D01*
X32448000Y-78355000D01*
X32404000Y-78335000D01*
X32360000Y-78317000D01*
X32315000Y-78300000D01*
X32269000Y-78284000D01*
X32223000Y-78269000D01*
X32177000Y-78256000D01*
X32131000Y-78245000D01*
X32084000Y-78234000D01*
X32037000Y-78225000D01*
X31989000Y-78217000D01*
X31942000Y-78211000D01*
X31894000Y-78206000D01*
X31846000Y-78203000D01*
X31798000Y-78201000D01*
X31750000Y-78200000D01*
X31702000Y-78201000D01*
X31654000Y-78203000D01*
X31606000Y-78206000D01*
X31558000Y-78211000D01*
X31511000Y-78217000D01*
X31463000Y-78225000D01*
X31416000Y-78234000D01*
X31369000Y-78245000D01*
X31323000Y-78256000D01*
X31277000Y-78269000D01*
X31231000Y-78284000D01*
X31185000Y-78300000D01*
X31140000Y-78317000D01*
X31096000Y-78335000D01*
X31052000Y-78355000D01*
X31009000Y-78376000D01*
X30966000Y-78398000D01*
X30924000Y-78421000D01*
X30883000Y-78446000D01*
X30843000Y-78472000D01*
X30803000Y-78499000D01*
X30764000Y-78527000D01*
X30726000Y-78556000D01*
X30689000Y-78586000D01*
X30652000Y-78618000D01*
X30617000Y-78650000D01*
X30582000Y-78684000D01*
X30549000Y-78718000D01*
X30516000Y-78754000D01*
X30485000Y-78790000D01*
X29800000Y-78790000D01*
X29800000Y-76290000D01*
X33700000Y-76290000D01*
X33700000Y-78790000D01*
G37*
X30516000Y-93646000D02*
X30549000Y-93682000D01*
X30582000Y-93716000D01*
X30617000Y-93750000D01*
X30652000Y-93782000D01*
X30689000Y-93814000D01*
X30726000Y-93844000D01*
X30764000Y-93873000D01*
X30803000Y-93901000D01*
X30843000Y-93928000D01*
X30883000Y-93954000D01*
X30924000Y-93979000D01*
X30966000Y-94002000D01*
X31009000Y-94024000D01*
X31052000Y-94045000D01*
X31096000Y-94065000D01*
X31140000Y-94083000D01*
X31185000Y-94100000D01*
X31231000Y-94116000D01*
X31277000Y-94131000D01*
X31323000Y-94144000D01*
X31369000Y-94155000D01*
X31416000Y-94166000D01*
X31463000Y-94175000D01*
X31511000Y-94183000D01*
X31558000Y-94189000D01*
X31606000Y-94194000D01*
X31654000Y-94197000D01*
X31702000Y-94199000D01*
X31750000Y-94200000D01*
X31798000Y-94199000D01*
X31846000Y-94197000D01*
X31894000Y-94194000D01*
X31942000Y-94189000D01*
X31989000Y-94183000D01*
X32037000Y-94175000D01*
X32084000Y-94166000D01*
X32131000Y-94155000D01*
X32177000Y-94144000D01*
X32223000Y-94131000D01*
X32269000Y-94116000D01*
X32315000Y-94100000D01*
X32360000Y-94083000D01*
X32404000Y-94065000D01*
X32448000Y-94045000D01*
X32491000Y-94024000D01*
X32534000Y-94002000D01*
X32576000Y-93979000D01*
X32617000Y-93954000D01*
X32657000Y-93928000D01*
X32697000Y-93901000D01*
X32736000Y-93873000D01*
X32774000Y-93844000D01*
X32811000Y-93814000D01*
X32848000Y-93782000D01*
X32883000Y-93750000D01*
X32918000Y-93716000D01*
X32951000Y-93682000D01*
X32984000Y-93646000D01*
X33015000Y-93610000D01*
X33700000Y-93610000D01*
X33700000Y-96110000D01*
X29800000Y-96110000D01*
X29800000Y-93610000D01*
X30485000Y-93610000D01*
X30516000Y-93646000D01*
G36*
X30516000Y-93646000D02*
G01*
X30549000Y-93682000D01*
X30582000Y-93716000D01*
X30617000Y-93750000D01*
X30652000Y-93782000D01*
X30689000Y-93814000D01*
X30726000Y-93844000D01*
X30764000Y-93873000D01*
X30803000Y-93901000D01*
X30843000Y-93928000D01*
X30883000Y-93954000D01*
X30924000Y-93979000D01*
X30966000Y-94002000D01*
X31009000Y-94024000D01*
X31052000Y-94045000D01*
X31096000Y-94065000D01*
X31140000Y-94083000D01*
X31185000Y-94100000D01*
X31231000Y-94116000D01*
X31277000Y-94131000D01*
X31323000Y-94144000D01*
X31369000Y-94155000D01*
X31416000Y-94166000D01*
X31463000Y-94175000D01*
X31511000Y-94183000D01*
X31558000Y-94189000D01*
X31606000Y-94194000D01*
X31654000Y-94197000D01*
X31702000Y-94199000D01*
X31750000Y-94200000D01*
X31798000Y-94199000D01*
X31846000Y-94197000D01*
X31894000Y-94194000D01*
X31942000Y-94189000D01*
X31989000Y-94183000D01*
X32037000Y-94175000D01*
X32084000Y-94166000D01*
X32131000Y-94155000D01*
X32177000Y-94144000D01*
X32223000Y-94131000D01*
X32269000Y-94116000D01*
X32315000Y-94100000D01*
X32360000Y-94083000D01*
X32404000Y-94065000D01*
X32448000Y-94045000D01*
X32491000Y-94024000D01*
X32534000Y-94002000D01*
X32576000Y-93979000D01*
X32617000Y-93954000D01*
X32657000Y-93928000D01*
X32697000Y-93901000D01*
X32736000Y-93873000D01*
X32774000Y-93844000D01*
X32811000Y-93814000D01*
X32848000Y-93782000D01*
X32883000Y-93750000D01*
X32918000Y-93716000D01*
X32951000Y-93682000D01*
X32984000Y-93646000D01*
X33015000Y-93610000D01*
X33700000Y-93610000D01*
X33700000Y-96110000D01*
X29800000Y-96110000D01*
X29800000Y-93610000D01*
X30485000Y-93610000D01*
X30516000Y-93646000D01*
G37*
%TO.C,J34*%
X33775000Y-141440000D02*
X33090000Y-141440000D01*
X33059000Y-141404000D01*
X33026000Y-141368000D01*
X32993000Y-141334000D01*
X32958000Y-141300000D01*
X32923000Y-141268000D01*
X32886000Y-141236000D01*
X32849000Y-141206000D01*
X32811000Y-141177000D01*
X32772000Y-141149000D01*
X32732000Y-141122000D01*
X32692000Y-141096000D01*
X32651000Y-141071000D01*
X32609000Y-141048000D01*
X32566000Y-141026000D01*
X32523000Y-141005000D01*
X32479000Y-140985000D01*
X32435000Y-140967000D01*
X32390000Y-140950000D01*
X32344000Y-140934000D01*
X32298000Y-140919000D01*
X32252000Y-140906000D01*
X32206000Y-140895000D01*
X32159000Y-140884000D01*
X32112000Y-140875000D01*
X32064000Y-140867000D01*
X32017000Y-140861000D01*
X31969000Y-140856000D01*
X31921000Y-140853000D01*
X31873000Y-140851000D01*
X31825000Y-140850000D01*
X31777000Y-140851000D01*
X31729000Y-140853000D01*
X31681000Y-140856000D01*
X31633000Y-140861000D01*
X31586000Y-140867000D01*
X31538000Y-140875000D01*
X31491000Y-140884000D01*
X31444000Y-140895000D01*
X31398000Y-140906000D01*
X31352000Y-140919000D01*
X31306000Y-140934000D01*
X31260000Y-140950000D01*
X31215000Y-140967000D01*
X31171000Y-140985000D01*
X31127000Y-141005000D01*
X31084000Y-141026000D01*
X31041000Y-141048000D01*
X30999000Y-141071000D01*
X30958000Y-141096000D01*
X30918000Y-141122000D01*
X30878000Y-141149000D01*
X30839000Y-141177000D01*
X30801000Y-141206000D01*
X30764000Y-141236000D01*
X30727000Y-141268000D01*
X30692000Y-141300000D01*
X30657000Y-141334000D01*
X30624000Y-141368000D01*
X30591000Y-141404000D01*
X30560000Y-141440000D01*
X29875000Y-141440000D01*
X29875000Y-138940000D01*
X33775000Y-138940000D01*
X33775000Y-141440000D01*
G36*
X33775000Y-141440000D02*
G01*
X33090000Y-141440000D01*
X33059000Y-141404000D01*
X33026000Y-141368000D01*
X32993000Y-141334000D01*
X32958000Y-141300000D01*
X32923000Y-141268000D01*
X32886000Y-141236000D01*
X32849000Y-141206000D01*
X32811000Y-141177000D01*
X32772000Y-141149000D01*
X32732000Y-141122000D01*
X32692000Y-141096000D01*
X32651000Y-141071000D01*
X32609000Y-141048000D01*
X32566000Y-141026000D01*
X32523000Y-141005000D01*
X32479000Y-140985000D01*
X32435000Y-140967000D01*
X32390000Y-140950000D01*
X32344000Y-140934000D01*
X32298000Y-140919000D01*
X32252000Y-140906000D01*
X32206000Y-140895000D01*
X32159000Y-140884000D01*
X32112000Y-140875000D01*
X32064000Y-140867000D01*
X32017000Y-140861000D01*
X31969000Y-140856000D01*
X31921000Y-140853000D01*
X31873000Y-140851000D01*
X31825000Y-140850000D01*
X31777000Y-140851000D01*
X31729000Y-140853000D01*
X31681000Y-140856000D01*
X31633000Y-140861000D01*
X31586000Y-140867000D01*
X31538000Y-140875000D01*
X31491000Y-140884000D01*
X31444000Y-140895000D01*
X31398000Y-140906000D01*
X31352000Y-140919000D01*
X31306000Y-140934000D01*
X31260000Y-140950000D01*
X31215000Y-140967000D01*
X31171000Y-140985000D01*
X31127000Y-141005000D01*
X31084000Y-141026000D01*
X31041000Y-141048000D01*
X30999000Y-141071000D01*
X30958000Y-141096000D01*
X30918000Y-141122000D01*
X30878000Y-141149000D01*
X30839000Y-141177000D01*
X30801000Y-141206000D01*
X30764000Y-141236000D01*
X30727000Y-141268000D01*
X30692000Y-141300000D01*
X30657000Y-141334000D01*
X30624000Y-141368000D01*
X30591000Y-141404000D01*
X30560000Y-141440000D01*
X29875000Y-141440000D01*
X29875000Y-138940000D01*
X33775000Y-138940000D01*
X33775000Y-141440000D01*
G37*
X30591000Y-156296000D02*
X30624000Y-156332000D01*
X30657000Y-156366000D01*
X30692000Y-156400000D01*
X30727000Y-156432000D01*
X30764000Y-156464000D01*
X30801000Y-156494000D01*
X30839000Y-156523000D01*
X30878000Y-156551000D01*
X30918000Y-156578000D01*
X30958000Y-156604000D01*
X30999000Y-156629000D01*
X31041000Y-156652000D01*
X31084000Y-156674000D01*
X31127000Y-156695000D01*
X31171000Y-156715000D01*
X31215000Y-156733000D01*
X31260000Y-156750000D01*
X31306000Y-156766000D01*
X31352000Y-156781000D01*
X31398000Y-156794000D01*
X31444000Y-156805000D01*
X31491000Y-156816000D01*
X31538000Y-156825000D01*
X31586000Y-156833000D01*
X31633000Y-156839000D01*
X31681000Y-156844000D01*
X31729000Y-156847000D01*
X31777000Y-156849000D01*
X31825000Y-156850000D01*
X31873000Y-156849000D01*
X31921000Y-156847000D01*
X31969000Y-156844000D01*
X32017000Y-156839000D01*
X32064000Y-156833000D01*
X32112000Y-156825000D01*
X32159000Y-156816000D01*
X32206000Y-156805000D01*
X32252000Y-156794000D01*
X32298000Y-156781000D01*
X32344000Y-156766000D01*
X32390000Y-156750000D01*
X32435000Y-156733000D01*
X32479000Y-156715000D01*
X32523000Y-156695000D01*
X32566000Y-156674000D01*
X32609000Y-156652000D01*
X32651000Y-156629000D01*
X32692000Y-156604000D01*
X32732000Y-156578000D01*
X32772000Y-156551000D01*
X32811000Y-156523000D01*
X32849000Y-156494000D01*
X32886000Y-156464000D01*
X32923000Y-156432000D01*
X32958000Y-156400000D01*
X32993000Y-156366000D01*
X33026000Y-156332000D01*
X33059000Y-156296000D01*
X33090000Y-156260000D01*
X33775000Y-156260000D01*
X33775000Y-158760000D01*
X29875000Y-158760000D01*
X29875000Y-156260000D01*
X30560000Y-156260000D01*
X30591000Y-156296000D01*
G36*
X30591000Y-156296000D02*
G01*
X30624000Y-156332000D01*
X30657000Y-156366000D01*
X30692000Y-156400000D01*
X30727000Y-156432000D01*
X30764000Y-156464000D01*
X30801000Y-156494000D01*
X30839000Y-156523000D01*
X30878000Y-156551000D01*
X30918000Y-156578000D01*
X30958000Y-156604000D01*
X30999000Y-156629000D01*
X31041000Y-156652000D01*
X31084000Y-156674000D01*
X31127000Y-156695000D01*
X31171000Y-156715000D01*
X31215000Y-156733000D01*
X31260000Y-156750000D01*
X31306000Y-156766000D01*
X31352000Y-156781000D01*
X31398000Y-156794000D01*
X31444000Y-156805000D01*
X31491000Y-156816000D01*
X31538000Y-156825000D01*
X31586000Y-156833000D01*
X31633000Y-156839000D01*
X31681000Y-156844000D01*
X31729000Y-156847000D01*
X31777000Y-156849000D01*
X31825000Y-156850000D01*
X31873000Y-156849000D01*
X31921000Y-156847000D01*
X31969000Y-156844000D01*
X32017000Y-156839000D01*
X32064000Y-156833000D01*
X32112000Y-156825000D01*
X32159000Y-156816000D01*
X32206000Y-156805000D01*
X32252000Y-156794000D01*
X32298000Y-156781000D01*
X32344000Y-156766000D01*
X32390000Y-156750000D01*
X32435000Y-156733000D01*
X32479000Y-156715000D01*
X32523000Y-156695000D01*
X32566000Y-156674000D01*
X32609000Y-156652000D01*
X32651000Y-156629000D01*
X32692000Y-156604000D01*
X32732000Y-156578000D01*
X32772000Y-156551000D01*
X32811000Y-156523000D01*
X32849000Y-156494000D01*
X32886000Y-156464000D01*
X32923000Y-156432000D01*
X32958000Y-156400000D01*
X32993000Y-156366000D01*
X33026000Y-156332000D01*
X33059000Y-156296000D01*
X33090000Y-156260000D01*
X33775000Y-156260000D01*
X33775000Y-158760000D01*
X29875000Y-158760000D01*
X29875000Y-156260000D01*
X30560000Y-156260000D01*
X30591000Y-156296000D01*
G37*
%TD*%
D11*
%TO.C,R53*%
X125750000Y-141037500D03*
X125750000Y-138962500D03*
%TD*%
%TO.C,C32*%
X70750000Y-128325000D03*
X70750000Y-126250000D03*
%TD*%
D12*
%TO.C,C25*%
X70675000Y-162250000D03*
X72750000Y-162250000D03*
%TD*%
D13*
%TO.C,R58*%
X224000000Y-94175000D03*
X224000000Y-96000000D03*
%TD*%
D12*
%TO.C,C22*%
X70750000Y-89250000D03*
X72825000Y-89250000D03*
%TD*%
D14*
%TO.C,U4*%
X204460000Y-104677500D03*
X205730000Y-104677500D03*
X207000000Y-104677500D03*
X208270000Y-104677500D03*
X208270000Y-99117500D03*
X207000000Y-99117500D03*
X205730000Y-99117500D03*
X204460000Y-99117500D03*
D15*
X205590000Y-102500000D03*
X207140000Y-102500000D03*
X205590000Y-101295000D03*
X207140000Y-101295000D03*
%TD*%
D16*
%TO.C,R63*%
X223000000Y-108530000D03*
X223000000Y-106705000D03*
%TD*%
D12*
%TO.C,R8*%
X66675000Y-96250000D03*
X68750000Y-96250000D03*
%TD*%
%TO.C,R73*%
X102425000Y-75750000D03*
X104500000Y-75750000D03*
%TD*%
D17*
%TO.C,J4*%
X203222500Y-158995000D03*
X204022500Y-158995000D03*
D18*
X205172500Y-158995000D03*
X206172500Y-158995000D03*
X206672500Y-158995000D03*
X207672500Y-158995000D03*
D17*
X208822500Y-158995000D03*
X209622500Y-158995000D03*
X209622500Y-158995000D03*
X208822500Y-158995000D03*
D18*
X208172500Y-158995000D03*
X207172500Y-158995000D03*
X205672500Y-158995000D03*
X204672500Y-158995000D03*
D17*
X204022500Y-158995000D03*
X203222500Y-158995000D03*
D19*
X202102500Y-159570000D03*
D20*
X202102500Y-163750000D03*
D19*
X210742500Y-159570000D03*
D20*
X210742500Y-163750000D03*
%TD*%
D11*
%TO.C,R3*%
X74537500Y-158512500D03*
X74537500Y-156437500D03*
%TD*%
D21*
%TO.C,D7*%
X220317621Y-127000000D03*
X218267621Y-127000000D03*
%TD*%
D12*
%TO.C,R69*%
X222292621Y-127040000D03*
X224367621Y-127040000D03*
%TD*%
D22*
%TO.C,R76*%
X68547500Y-85500000D03*
X66472500Y-85500000D03*
%TD*%
D12*
%TO.C,R12*%
X66712500Y-162250000D03*
X68787500Y-162250000D03*
%TD*%
%TO.C,R27*%
X66712500Y-156250000D03*
X68787500Y-156250000D03*
%TD*%
%TO.C,R31*%
X66712500Y-164500000D03*
X68787500Y-164500000D03*
%TD*%
%TO.C,C17*%
X74250000Y-114725000D03*
X76325000Y-114725000D03*
%TD*%
D22*
%TO.C,C7*%
X170500000Y-75750000D03*
X168425000Y-75750000D03*
%TD*%
D12*
%TO.C,R55*%
X176712500Y-85000000D03*
X178787500Y-85000000D03*
%TD*%
D23*
%TO.C,R5*%
X209007500Y-135175000D03*
X209007500Y-137250000D03*
%TD*%
D22*
%TO.C,C14*%
X96500000Y-75750000D03*
X94425000Y-75750000D03*
%TD*%
D12*
%TO.C,R61*%
X176425000Y-75750000D03*
X178500000Y-75750000D03*
%TD*%
%TO.C,R20*%
X66675000Y-112250000D03*
X68750000Y-112250000D03*
%TD*%
D11*
%TO.C,R47*%
X125750000Y-103287500D03*
X125750000Y-101212500D03*
%TD*%
D24*
%TO.C,D110*%
X39750000Y-160850000D03*
X39750000Y-163650000D03*
%TD*%
D12*
%TO.C,C19*%
X74500000Y-154475000D03*
X76575000Y-154475000D03*
%TD*%
D14*
%TO.C,U5*%
X217230000Y-104677500D03*
X218500000Y-104677500D03*
X219770000Y-104677500D03*
X221040000Y-104677500D03*
X221040000Y-99117500D03*
X219770000Y-99117500D03*
X218500000Y-99117500D03*
X217230000Y-99117500D03*
D15*
X218360000Y-102500000D03*
X219910000Y-102500000D03*
X218360000Y-101295000D03*
X219910000Y-101295000D03*
%TD*%
D25*
%TO.C,J33*%
X41805000Y-131670000D03*
X41805000Y-130650000D03*
X41805000Y-129630000D03*
X41805000Y-128610000D03*
X41805000Y-127590000D03*
X41805000Y-126570000D03*
X41805000Y-125550000D03*
X41805000Y-124530000D03*
%TD*%
D22*
%TO.C,R60*%
X174500000Y-75750000D03*
X172425000Y-75750000D03*
%TD*%
D12*
%TO.C,R23*%
X66675000Y-128250000D03*
X68750000Y-128250000D03*
%TD*%
D11*
%TO.C,C33*%
X70750000Y-132325000D03*
X70750000Y-130250000D03*
%TD*%
D12*
%TO.C,R68*%
X210292621Y-127000000D03*
X212367621Y-127000000D03*
%TD*%
D25*
%TO.C,J28*%
X41730000Y-110770000D03*
X41730000Y-109750000D03*
X41730000Y-108730000D03*
X41730000Y-107710000D03*
X41730000Y-106690000D03*
X41730000Y-105670000D03*
X41730000Y-104650000D03*
X41730000Y-103630000D03*
%TD*%
D26*
%TO.C,U8*%
X79225000Y-152650000D03*
X79225000Y-152000000D03*
X79225000Y-151350000D03*
X79225000Y-150700000D03*
X79225000Y-150050000D03*
X79225000Y-149400000D03*
X79225000Y-148750000D03*
X79225000Y-148100000D03*
X79225000Y-147450000D03*
X79225000Y-146800000D03*
X73500000Y-146800000D03*
X73500000Y-147450000D03*
X73500000Y-148100000D03*
X73500000Y-148750000D03*
X73500000Y-149400000D03*
X73500000Y-150050000D03*
X73500000Y-150700000D03*
X73500000Y-151350000D03*
X73500000Y-152000000D03*
X73500000Y-152650000D03*
%TD*%
D27*
%TO.C,D4*%
X203317621Y-126000000D03*
X203317621Y-121000000D03*
%TD*%
D11*
%TO.C,C36*%
X70750000Y-156325000D03*
X70750000Y-154250000D03*
%TD*%
D25*
%TO.C,J32*%
X41730000Y-89770000D03*
X41730000Y-88750000D03*
X41730000Y-87730000D03*
X41730000Y-86710000D03*
X41730000Y-85690000D03*
X41730000Y-84670000D03*
X41730000Y-83650000D03*
X41730000Y-82630000D03*
%TD*%
D28*
%TO.C,D14*%
X209047500Y-141250000D03*
X209047500Y-139200000D03*
%TD*%
D29*
%TO.C,D1*%
X199500000Y-150500000D03*
X199500000Y-155500000D03*
%TD*%
D12*
%TO.C,R26*%
X66675000Y-144250000D03*
X68750000Y-144250000D03*
%TD*%
D22*
%TO.C,R66*%
X100787500Y-86250000D03*
X98712500Y-86250000D03*
%TD*%
%TO.C,C12*%
X133537500Y-76000000D03*
X131462500Y-76000000D03*
%TD*%
D13*
%TO.C,R56*%
X209500000Y-94500000D03*
X209500000Y-96325000D03*
%TD*%
D30*
%TO.C,R62*%
X223000000Y-104617500D03*
X224825000Y-104617500D03*
%TD*%
D11*
%TO.C,C34*%
X70750000Y-124287500D03*
X70750000Y-122212500D03*
%TD*%
D12*
%TO.C,R28*%
X66712500Y-160000000D03*
X68787500Y-160000000D03*
%TD*%
D27*
%TO.C,D5*%
X215317621Y-126000000D03*
X215317621Y-121000000D03*
%TD*%
D13*
%TO.C,R57*%
X210500000Y-101292500D03*
X210500000Y-103117500D03*
%TD*%
D21*
%TO.C,D9*%
X219250000Y-147000000D03*
X217200000Y-147000000D03*
%TD*%
D12*
%TO.C,R17*%
X66712500Y-100250000D03*
X68787500Y-100250000D03*
%TD*%
D11*
%TO.C,C29*%
X70750000Y-116325000D03*
X70750000Y-114250000D03*
%TD*%
%TO.C,C31*%
X70750000Y-112287500D03*
X70750000Y-110212500D03*
%TD*%
D12*
%TO.C,R74*%
X221212500Y-136110661D03*
X223287500Y-136110661D03*
%TD*%
%TO.C,R19*%
X66675000Y-120250000D03*
X68750000Y-120250000D03*
%TD*%
D22*
%TO.C,R77*%
X72862500Y-85500000D03*
X70787500Y-85500000D03*
%TD*%
%TO.C,C16*%
X64787500Y-76000000D03*
X62712500Y-76000000D03*
%TD*%
D21*
%TO.C,D11*%
X219250000Y-152500000D03*
X217200000Y-152500000D03*
%TD*%
D12*
%TO.C,R70*%
X221212500Y-141500000D03*
X223287500Y-141500000D03*
%TD*%
D22*
%TO.C,R64*%
X137537500Y-76000000D03*
X135462500Y-76000000D03*
%TD*%
%TO.C,R78*%
X68787500Y-76000000D03*
X66712500Y-76000000D03*
%TD*%
D12*
%TO.C,R7*%
X66712500Y-92750000D03*
X68787500Y-92750000D03*
%TD*%
D31*
%TO.C,L1*%
X202000000Y-112500000D03*
X208400000Y-112500000D03*
%TD*%
D32*
%TO.C,C5*%
X218050000Y-94500000D03*
X219950000Y-94500000D03*
%TD*%
D11*
%TO.C,R52*%
X125750000Y-126037500D03*
X125750000Y-123962500D03*
%TD*%
D26*
%TO.C,U6*%
X79475000Y-112900000D03*
X79475000Y-112250000D03*
X79475000Y-111600000D03*
X79475000Y-110950000D03*
X79475000Y-110300000D03*
X79475000Y-109650000D03*
X79475000Y-109000000D03*
X79475000Y-108350000D03*
X79475000Y-107700000D03*
X79475000Y-107050000D03*
X73750000Y-107050000D03*
X73750000Y-107700000D03*
X73750000Y-108350000D03*
X73750000Y-109000000D03*
X73750000Y-109650000D03*
X73750000Y-110300000D03*
X73750000Y-110950000D03*
X73750000Y-111600000D03*
X73750000Y-112250000D03*
X73750000Y-112900000D03*
%TD*%
D11*
%TO.C,C26*%
X70750000Y-104250000D03*
X70750000Y-102175000D03*
%TD*%
D12*
%TO.C,R24*%
X66675000Y-132250000D03*
X68750000Y-132250000D03*
%TD*%
D11*
%TO.C,R1*%
X74325000Y-118762500D03*
X74325000Y-116687500D03*
%TD*%
%TO.C,C23*%
X70750000Y-140325000D03*
X70750000Y-138250000D03*
%TD*%
D33*
%TO.C,C9*%
X215450000Y-105000000D03*
X213550000Y-105000000D03*
%TD*%
D27*
%TO.C,D2*%
X199000000Y-113500000D03*
X199000000Y-108500000D03*
%TD*%
D11*
%TO.C,R2*%
X74537500Y-138537500D03*
X74537500Y-136462500D03*
%TD*%
D23*
%TO.C,R4*%
X205992500Y-135175000D03*
X205992500Y-137250000D03*
%TD*%
D11*
%TO.C,C39*%
X70750000Y-148287500D03*
X70750000Y-146212500D03*
%TD*%
D26*
%TO.C,U7*%
X79475000Y-132650000D03*
X79475000Y-132000000D03*
X79475000Y-131350000D03*
X79475000Y-130700000D03*
X79475000Y-130050000D03*
X79475000Y-129400000D03*
X79475000Y-128750000D03*
X79475000Y-128100000D03*
X79475000Y-127450000D03*
X79475000Y-126800000D03*
X73750000Y-126800000D03*
X73750000Y-127450000D03*
X73750000Y-128100000D03*
X73750000Y-128750000D03*
X73750000Y-129400000D03*
X73750000Y-130050000D03*
X73750000Y-130700000D03*
X73750000Y-131350000D03*
X73750000Y-132000000D03*
X73750000Y-132650000D03*
%TD*%
D22*
%TO.C,C6*%
X170500000Y-85000000D03*
X168425000Y-85000000D03*
%TD*%
D12*
%TO.C,R29*%
X66675000Y-136250000D03*
X68750000Y-136250000D03*
%TD*%
%TO.C,R75*%
X221187500Y-152460000D03*
X223262500Y-152460000D03*
%TD*%
%TO.C,R79*%
X70712500Y-76000000D03*
X72787500Y-76000000D03*
%TD*%
D27*
%TO.C,D3*%
X211500000Y-113000000D03*
X211500000Y-108000000D03*
%TD*%
D11*
%TO.C,C38*%
X70750000Y-136325000D03*
X70750000Y-134250000D03*
%TD*%
D33*
%TO.C,C8*%
X202750000Y-105000000D03*
X200850000Y-105000000D03*
%TD*%
D12*
%TO.C,R30*%
X66712500Y-148250000D03*
X68787500Y-148250000D03*
%TD*%
D21*
%TO.C,D6*%
X208317621Y-127000000D03*
X206267621Y-127000000D03*
%TD*%
D12*
%TO.C,R18*%
X66712500Y-116250000D03*
X68787500Y-116250000D03*
%TD*%
D11*
%TO.C,C28*%
X70750000Y-100325000D03*
X70750000Y-98250000D03*
%TD*%
D22*
%TO.C,C13*%
X96537500Y-86250000D03*
X94462500Y-86250000D03*
%TD*%
D11*
%TO.C,R49*%
X125750000Y-133537500D03*
X125750000Y-131462500D03*
%TD*%
D12*
%TO.C,R10*%
X66712500Y-140250000D03*
X68787500Y-140250000D03*
%TD*%
%TO.C,R15*%
X66712500Y-104250000D03*
X68787500Y-104250000D03*
%TD*%
D21*
%TO.C,D10*%
X219275000Y-136110661D03*
X217225000Y-136110661D03*
%TD*%
D11*
%TO.C,C24*%
X70750000Y-152325000D03*
X70750000Y-150250000D03*
%TD*%
D31*
%TO.C,L2*%
X214300000Y-112500000D03*
X220700000Y-112500000D03*
%TD*%
D11*
%TO.C,C30*%
X70750000Y-120325000D03*
X70750000Y-118250000D03*
%TD*%
%TO.C,R48*%
X125750000Y-118537500D03*
X125750000Y-116462500D03*
%TD*%
D12*
%TO.C,C20*%
X70750000Y-92750000D03*
X72825000Y-92750000D03*
%TD*%
%TO.C,R25*%
X66675000Y-124250000D03*
X68750000Y-124250000D03*
%TD*%
D28*
%TO.C,D13*%
X206007500Y-141250000D03*
X206007500Y-139200000D03*
%TD*%
D34*
%TO.C,D111*%
X42300000Y-161000000D03*
X46700000Y-161000000D03*
%TD*%
D12*
%TO.C,R65*%
X139712500Y-76000000D03*
X141787500Y-76000000D03*
%TD*%
D25*
%TO.C,J34*%
X41805000Y-152420000D03*
X41805000Y-151400000D03*
X41805000Y-150380000D03*
X41805000Y-149360000D03*
X41805000Y-148340000D03*
X41805000Y-147320000D03*
X41805000Y-146300000D03*
X41805000Y-145280000D03*
%TD*%
D21*
%TO.C,D8*%
X219250000Y-141500000D03*
X217200000Y-141500000D03*
%TD*%
D12*
%TO.C,C18*%
X74500000Y-134500000D03*
X76575000Y-134500000D03*
%TD*%
D22*
%TO.C,C15*%
X64585000Y-85500000D03*
X62510000Y-85500000D03*
%TD*%
D12*
%TO.C,C40*%
X70712500Y-164500000D03*
X72787500Y-164500000D03*
%TD*%
D35*
%TO.C,U2*%
X210347500Y-144887500D03*
X209712500Y-144887500D03*
X209077500Y-144887500D03*
X208442500Y-144887500D03*
X207807500Y-144887500D03*
X207172500Y-144887500D03*
X206537500Y-144887500D03*
X205902500Y-144887500D03*
X205267500Y-144887500D03*
X204632500Y-144887500D03*
X204632500Y-150087500D03*
X205267500Y-150087500D03*
X205902500Y-150087500D03*
X206537500Y-150087500D03*
X207172500Y-150087500D03*
X207807500Y-150087500D03*
X208442500Y-150087500D03*
X209077500Y-150087500D03*
X209712500Y-150087500D03*
X210347500Y-150087500D03*
%TD*%
D22*
%TO.C,R72*%
X100500000Y-75750000D03*
X98425000Y-75750000D03*
%TD*%
D11*
%TO.C,R51*%
X125750000Y-111037500D03*
X125750000Y-108962500D03*
%TD*%
%TO.C,R50*%
X125750000Y-148787500D03*
X125750000Y-146712500D03*
%TD*%
%TO.C,C37*%
X70750000Y-160287500D03*
X70750000Y-158212500D03*
%TD*%
D12*
%TO.C,C21*%
X70712500Y-96250000D03*
X72787500Y-96250000D03*
%TD*%
D22*
%TO.C,R54*%
X174500000Y-85000000D03*
X172425000Y-85000000D03*
%TD*%
D12*
%TO.C,R67*%
X102525000Y-86150000D03*
X104600000Y-86150000D03*
%TD*%
%TO.C,R9*%
X66712500Y-89250000D03*
X68787500Y-89250000D03*
%TD*%
%TO.C,R11*%
X66675000Y-152250000D03*
X68750000Y-152250000D03*
%TD*%
D32*
%TO.C,C4*%
X204600000Y-94500000D03*
X206500000Y-94500000D03*
%TD*%
D12*
%TO.C,R16*%
X66675000Y-108250000D03*
X68750000Y-108250000D03*
%TD*%
D13*
%TO.C,R59*%
X223500000Y-99617500D03*
X223500000Y-101442500D03*
%TD*%
D11*
%TO.C,C35*%
X70750000Y-144287500D03*
X70750000Y-142212500D03*
%TD*%
D12*
%TO.C,R71*%
X221187500Y-147000000D03*
X223262500Y-147000000D03*
%TD*%
D11*
%TO.C,C27*%
X70750000Y-108287500D03*
X70750000Y-106212500D03*
%TD*%
M02*
