%TF.GenerationSoftware,KiCad,Pcbnew,9.0.0*%
%TF.CreationDate,2025-03-17T17:50:44-07:00*%
%TF.ProjectId,MRIRobot_PCB,4d524952-6f62-46f7-945f-5043422e6b69,rev?*%
%TF.SameCoordinates,Original*%
%TF.FileFunction,Soldermask,Top*%
%TF.FilePolarity,Negative*%
%FSLAX46Y46*%
G04 Gerber Fmt 4.6, Leading zero omitted, Abs format (unit mm)*
G04 Created by KiCad (PCBNEW 9.0.0) date 2025-03-17 17:50:44*
%MOMM*%
%LPD*%
G01*
G04 APERTURE LIST*
G04 Aperture macros list*
%AMRoundRect*
0 Rectangle with rounded corners*
0 $1 Rounding radius*
0 $2 $3 $4 $5 $6 $7 $8 $9 X,Y pos of 4 corners*
0 Add a 4 corners polygon primitive as box body*
4,1,4,$2,$3,$4,$5,$6,$7,$8,$9,$2,$3,0*
0 Add four circle primitives for the rounded corners*
1,1,$1+$1,$2,$3*
1,1,$1+$1,$4,$5*
1,1,$1+$1,$6,$7*
1,1,$1+$1,$8,$9*
0 Add four rect primitives between the rounded corners*
20,1,$1+$1,$2,$3,$4,$5,0*
20,1,$1+$1,$4,$5,$6,$7,0*
20,1,$1+$1,$6,$7,$8,$9,0*
20,1,$1+$1,$8,$9,$2,$3,0*%
G04 Aperture macros list end*
%ADD10C,0.010000*%
%ADD11RoundRect,0.250000X0.325000X0.450000X-0.325000X0.450000X-0.325000X-0.450000X0.325000X-0.450000X0*%
%ADD12RoundRect,0.250000X-0.337500X-0.475000X0.337500X-0.475000X0.337500X0.475000X-0.337500X0.475000X0*%
%ADD13RoundRect,0.250000X0.475000X-0.337500X0.475000X0.337500X-0.475000X0.337500X-0.475000X-0.337500X0*%
%ADD14RoundRect,0.250000X-0.450000X0.262500X-0.450000X-0.262500X0.450000X-0.262500X0.450000X0.262500X0*%
%ADD15RoundRect,0.250000X-0.600000X-0.750000X0.600000X-0.750000X0.600000X0.750000X-0.600000X0.750000X0*%
%ADD16O,1.700000X2.000000*%
%ADD17R,0.610000X1.910000*%
%ADD18R,1.550000X1.205000*%
%ADD19RoundRect,0.250000X0.450000X-0.262500X0.450000X0.262500X-0.450000X0.262500X-0.450000X-0.262500X0*%
%ADD20C,3.000000*%
%ADD21RoundRect,0.102000X0.802500X0.802500X-0.802500X0.802500X-0.802500X-0.802500X0.802500X-0.802500X0*%
%ADD22C,1.809000*%
%ADD23RoundRect,0.102000X0.765000X0.765000X-0.765000X0.765000X-0.765000X-0.765000X0.765000X-0.765000X0*%
%ADD24C,1.734000*%
%ADD25RoundRect,0.250000X-0.600000X-0.725000X0.600000X-0.725000X0.600000X0.725000X-0.600000X0.725000X0*%
%ADD26O,1.700000X1.950000*%
%ADD27C,0.650000*%
%ADD28RoundRect,0.150000X-0.150000X-0.425000X0.150000X-0.425000X0.150000X0.425000X-0.150000X0.425000X0*%
%ADD29RoundRect,0.075000X-0.075000X-0.500000X0.075000X-0.500000X0.075000X0.500000X-0.075000X0.500000X0*%
%ADD30O,1.000000X2.100000*%
%ADD31O,1.000000X1.800000*%
%ADD32O,2.200000X3.500000*%
%ADD33R,1.500000X2.500000*%
%ADD34O,1.500000X2.500000*%
%ADD35RoundRect,0.250000X0.337500X0.475000X-0.337500X0.475000X-0.337500X-0.475000X0.337500X-0.475000X0*%
%ADD36C,3.200000*%
%ADD37RoundRect,0.250000X-0.475000X0.337500X-0.475000X-0.337500X0.475000X-0.337500X0.475000X0.337500X0*%
%ADD38R,1.600000X1.600000*%
%ADD39C,1.600000*%
%ADD40RoundRect,0.250000X-0.300000X0.300000X-0.300000X-0.300000X0.300000X-0.300000X0.300000X0.300000X0*%
%ADD41C,3.300000*%
%ADD42RoundRect,0.102000X-1.525000X0.305000X-1.525000X-0.305000X1.525000X-0.305000X1.525000X0.305000X0*%
%ADD43RoundRect,0.100000X0.637500X0.100000X-0.637500X0.100000X-0.637500X-0.100000X0.637500X-0.100000X0*%
%ADD44RoundRect,0.250000X0.650000X-1.500000X0.650000X1.500000X-0.650000X1.500000X-0.650000X-1.500000X0*%
%ADD45RoundRect,0.250000X0.450000X-0.325000X0.450000X0.325000X-0.450000X0.325000X-0.450000X-0.325000X0*%
%ADD46RoundRect,0.250000X-0.650000X1.500000X-0.650000X-1.500000X0.650000X-1.500000X0.650000X1.500000X0*%
%ADD47RoundRect,0.250000X-0.262500X-0.450000X0.262500X-0.450000X0.262500X0.450000X-0.262500X0.450000X0*%
%ADD48C,1.250000*%
%ADD49RoundRect,1.500000X-1.500000X-1.500000X1.500000X-1.500000X1.500000X1.500000X-1.500000X1.500000X0*%
%ADD50C,6.000000*%
%ADD51R,1.500000X2.200000*%
%ADD52RoundRect,0.250000X-0.250000X-0.475000X0.250000X-0.475000X0.250000X0.475000X-0.250000X0.475000X0*%
%ADD53RoundRect,0.250000X0.250000X0.475000X-0.250000X0.475000X-0.250000X-0.475000X0.250000X-0.475000X0*%
%ADD54C,1.524000*%
%ADD55RoundRect,0.381000X-0.381000X-0.381000X0.381000X-0.381000X0.381000X0.381000X-0.381000X0.381000X0*%
%ADD56RoundRect,0.250000X-0.450000X-0.800000X0.450000X-0.800000X0.450000X0.800000X-0.450000X0.800000X0*%
%ADD57R,0.400000X1.200000*%
G04 APERTURE END LIST*
D10*
%TO.C,J33*%
X33875000Y-120790000D02*
X33040000Y-120790000D01*
X33005000Y-120745000D01*
X32975000Y-120709000D01*
X32944000Y-120674000D01*
X32912000Y-120640000D01*
X32879000Y-120607000D01*
X32844000Y-120575000D01*
X32809000Y-120544000D01*
X32773000Y-120515000D01*
X32736000Y-120486000D01*
X32698000Y-120459000D01*
X32659000Y-120433000D01*
X32619000Y-120408000D01*
X32579000Y-120385000D01*
X32537000Y-120363000D01*
X32495000Y-120342000D01*
X32453000Y-120322000D01*
X32410000Y-120304000D01*
X32366000Y-120288000D01*
X32322000Y-120272000D01*
X32277000Y-120258000D01*
X32232000Y-120246000D01*
X32187000Y-120235000D01*
X32141000Y-120225000D01*
X32095000Y-120217000D01*
X32048000Y-120211000D01*
X32002000Y-120206000D01*
X31955000Y-120202000D01*
X31908000Y-120200000D01*
X31862000Y-120199000D01*
X31825000Y-120200000D01*
X31788000Y-120199000D01*
X31742000Y-120200000D01*
X31695000Y-120202000D01*
X31648000Y-120206000D01*
X31602000Y-120211000D01*
X31555000Y-120217000D01*
X31509000Y-120225000D01*
X31463000Y-120235000D01*
X31418000Y-120246000D01*
X31373000Y-120258000D01*
X31328000Y-120272000D01*
X31284000Y-120288000D01*
X31240000Y-120304000D01*
X31197000Y-120322000D01*
X31155000Y-120342000D01*
X31113000Y-120363000D01*
X31071000Y-120385000D01*
X31031000Y-120408000D01*
X30991000Y-120433000D01*
X30952000Y-120459000D01*
X30914000Y-120486000D01*
X30877000Y-120515000D01*
X30841000Y-120544000D01*
X30806000Y-120575000D01*
X30771000Y-120607000D01*
X30738000Y-120640000D01*
X30706000Y-120674000D01*
X30675000Y-120709000D01*
X30645000Y-120745000D01*
X30610000Y-120790000D01*
X29775000Y-120790000D01*
X29775000Y-118090000D01*
X33875000Y-118090000D01*
X33875000Y-120790000D01*
G36*
X33875000Y-120790000D02*
G01*
X33040000Y-120790000D01*
X33005000Y-120745000D01*
X32975000Y-120709000D01*
X32944000Y-120674000D01*
X32912000Y-120640000D01*
X32879000Y-120607000D01*
X32844000Y-120575000D01*
X32809000Y-120544000D01*
X32773000Y-120515000D01*
X32736000Y-120486000D01*
X32698000Y-120459000D01*
X32659000Y-120433000D01*
X32619000Y-120408000D01*
X32579000Y-120385000D01*
X32537000Y-120363000D01*
X32495000Y-120342000D01*
X32453000Y-120322000D01*
X32410000Y-120304000D01*
X32366000Y-120288000D01*
X32322000Y-120272000D01*
X32277000Y-120258000D01*
X32232000Y-120246000D01*
X32187000Y-120235000D01*
X32141000Y-120225000D01*
X32095000Y-120217000D01*
X32048000Y-120211000D01*
X32002000Y-120206000D01*
X31955000Y-120202000D01*
X31908000Y-120200000D01*
X31862000Y-120199000D01*
X31825000Y-120200000D01*
X31788000Y-120199000D01*
X31742000Y-120200000D01*
X31695000Y-120202000D01*
X31648000Y-120206000D01*
X31602000Y-120211000D01*
X31555000Y-120217000D01*
X31509000Y-120225000D01*
X31463000Y-120235000D01*
X31418000Y-120246000D01*
X31373000Y-120258000D01*
X31328000Y-120272000D01*
X31284000Y-120288000D01*
X31240000Y-120304000D01*
X31197000Y-120322000D01*
X31155000Y-120342000D01*
X31113000Y-120363000D01*
X31071000Y-120385000D01*
X31031000Y-120408000D01*
X30991000Y-120433000D01*
X30952000Y-120459000D01*
X30914000Y-120486000D01*
X30877000Y-120515000D01*
X30841000Y-120544000D01*
X30806000Y-120575000D01*
X30771000Y-120607000D01*
X30738000Y-120640000D01*
X30706000Y-120674000D01*
X30675000Y-120709000D01*
X30645000Y-120745000D01*
X30610000Y-120790000D01*
X29775000Y-120790000D01*
X29775000Y-118090000D01*
X33875000Y-118090000D01*
X33875000Y-120790000D01*
G37*
X30645000Y-135455000D02*
X30675000Y-135491000D01*
X30706000Y-135526000D01*
X30738000Y-135560000D01*
X30771000Y-135593000D01*
X30806000Y-135625000D01*
X30841000Y-135656000D01*
X30877000Y-135685000D01*
X30914000Y-135714000D01*
X30952000Y-135741000D01*
X30991000Y-135767000D01*
X31031000Y-135792000D01*
X31071000Y-135815000D01*
X31113000Y-135837000D01*
X31155000Y-135858000D01*
X31197000Y-135878000D01*
X31240000Y-135896000D01*
X31284000Y-135912000D01*
X31328000Y-135928000D01*
X31373000Y-135942000D01*
X31418000Y-135954000D01*
X31463000Y-135965000D01*
X31509000Y-135975000D01*
X31555000Y-135983000D01*
X31602000Y-135989000D01*
X31648000Y-135994000D01*
X31695000Y-135998000D01*
X31742000Y-136000000D01*
X31788000Y-136001000D01*
X31825000Y-136000000D01*
X31862000Y-136001000D01*
X31908000Y-136000000D01*
X31955000Y-135998000D01*
X32002000Y-135994000D01*
X32048000Y-135989000D01*
X32095000Y-135983000D01*
X32141000Y-135975000D01*
X32187000Y-135965000D01*
X32232000Y-135954000D01*
X32277000Y-135942000D01*
X32322000Y-135928000D01*
X32366000Y-135912000D01*
X32410000Y-135896000D01*
X32453000Y-135878000D01*
X32495000Y-135858000D01*
X32537000Y-135837000D01*
X32579000Y-135815000D01*
X32619000Y-135792000D01*
X32659000Y-135767000D01*
X32698000Y-135741000D01*
X32736000Y-135714000D01*
X32773000Y-135685000D01*
X32809000Y-135656000D01*
X32844000Y-135625000D01*
X32879000Y-135593000D01*
X32912000Y-135560000D01*
X32944000Y-135526000D01*
X32975000Y-135491000D01*
X33005000Y-135455000D01*
X33040000Y-135410000D01*
X33875000Y-135410000D01*
X33875000Y-138110000D01*
X29775000Y-138110000D01*
X29775000Y-135410000D01*
X30610000Y-135410000D01*
X30645000Y-135455000D01*
G36*
X30645000Y-135455000D02*
G01*
X30675000Y-135491000D01*
X30706000Y-135526000D01*
X30738000Y-135560000D01*
X30771000Y-135593000D01*
X30806000Y-135625000D01*
X30841000Y-135656000D01*
X30877000Y-135685000D01*
X30914000Y-135714000D01*
X30952000Y-135741000D01*
X30991000Y-135767000D01*
X31031000Y-135792000D01*
X31071000Y-135815000D01*
X31113000Y-135837000D01*
X31155000Y-135858000D01*
X31197000Y-135878000D01*
X31240000Y-135896000D01*
X31284000Y-135912000D01*
X31328000Y-135928000D01*
X31373000Y-135942000D01*
X31418000Y-135954000D01*
X31463000Y-135965000D01*
X31509000Y-135975000D01*
X31555000Y-135983000D01*
X31602000Y-135989000D01*
X31648000Y-135994000D01*
X31695000Y-135998000D01*
X31742000Y-136000000D01*
X31788000Y-136001000D01*
X31825000Y-136000000D01*
X31862000Y-136001000D01*
X31908000Y-136000000D01*
X31955000Y-135998000D01*
X32002000Y-135994000D01*
X32048000Y-135989000D01*
X32095000Y-135983000D01*
X32141000Y-135975000D01*
X32187000Y-135965000D01*
X32232000Y-135954000D01*
X32277000Y-135942000D01*
X32322000Y-135928000D01*
X32366000Y-135912000D01*
X32410000Y-135896000D01*
X32453000Y-135878000D01*
X32495000Y-135858000D01*
X32537000Y-135837000D01*
X32579000Y-135815000D01*
X32619000Y-135792000D01*
X32659000Y-135767000D01*
X32698000Y-135741000D01*
X32736000Y-135714000D01*
X32773000Y-135685000D01*
X32809000Y-135656000D01*
X32844000Y-135625000D01*
X32879000Y-135593000D01*
X32912000Y-135560000D01*
X32944000Y-135526000D01*
X32975000Y-135491000D01*
X33005000Y-135455000D01*
X33040000Y-135410000D01*
X33875000Y-135410000D01*
X33875000Y-138110000D01*
X29775000Y-138110000D01*
X29775000Y-135410000D01*
X30610000Y-135410000D01*
X30645000Y-135455000D01*
G37*
%TO.C,J28*%
X33800000Y-99890000D02*
X32965000Y-99890000D01*
X32930000Y-99845000D01*
X32900000Y-99809000D01*
X32869000Y-99774000D01*
X32837000Y-99740000D01*
X32804000Y-99707000D01*
X32769000Y-99675000D01*
X32734000Y-99644000D01*
X32698000Y-99615000D01*
X32661000Y-99586000D01*
X32623000Y-99559000D01*
X32584000Y-99533000D01*
X32544000Y-99508000D01*
X32504000Y-99485000D01*
X32462000Y-99463000D01*
X32420000Y-99442000D01*
X32378000Y-99422000D01*
X32335000Y-99404000D01*
X32291000Y-99388000D01*
X32247000Y-99372000D01*
X32202000Y-99358000D01*
X32157000Y-99346000D01*
X32112000Y-99335000D01*
X32066000Y-99325000D01*
X32020000Y-99317000D01*
X31973000Y-99311000D01*
X31927000Y-99306000D01*
X31880000Y-99302000D01*
X31833000Y-99300000D01*
X31787000Y-99299000D01*
X31750000Y-99300000D01*
X31713000Y-99299000D01*
X31667000Y-99300000D01*
X31620000Y-99302000D01*
X31573000Y-99306000D01*
X31527000Y-99311000D01*
X31480000Y-99317000D01*
X31434000Y-99325000D01*
X31388000Y-99335000D01*
X31343000Y-99346000D01*
X31298000Y-99358000D01*
X31253000Y-99372000D01*
X31209000Y-99388000D01*
X31165000Y-99404000D01*
X31122000Y-99422000D01*
X31080000Y-99442000D01*
X31038000Y-99463000D01*
X30996000Y-99485000D01*
X30956000Y-99508000D01*
X30916000Y-99533000D01*
X30877000Y-99559000D01*
X30839000Y-99586000D01*
X30802000Y-99615000D01*
X30766000Y-99644000D01*
X30731000Y-99675000D01*
X30696000Y-99707000D01*
X30663000Y-99740000D01*
X30631000Y-99774000D01*
X30600000Y-99809000D01*
X30570000Y-99845000D01*
X30535000Y-99890000D01*
X29700000Y-99890000D01*
X29700000Y-97190000D01*
X33800000Y-97190000D01*
X33800000Y-99890000D01*
G36*
X33800000Y-99890000D02*
G01*
X32965000Y-99890000D01*
X32930000Y-99845000D01*
X32900000Y-99809000D01*
X32869000Y-99774000D01*
X32837000Y-99740000D01*
X32804000Y-99707000D01*
X32769000Y-99675000D01*
X32734000Y-99644000D01*
X32698000Y-99615000D01*
X32661000Y-99586000D01*
X32623000Y-99559000D01*
X32584000Y-99533000D01*
X32544000Y-99508000D01*
X32504000Y-99485000D01*
X32462000Y-99463000D01*
X32420000Y-99442000D01*
X32378000Y-99422000D01*
X32335000Y-99404000D01*
X32291000Y-99388000D01*
X32247000Y-99372000D01*
X32202000Y-99358000D01*
X32157000Y-99346000D01*
X32112000Y-99335000D01*
X32066000Y-99325000D01*
X32020000Y-99317000D01*
X31973000Y-99311000D01*
X31927000Y-99306000D01*
X31880000Y-99302000D01*
X31833000Y-99300000D01*
X31787000Y-99299000D01*
X31750000Y-99300000D01*
X31713000Y-99299000D01*
X31667000Y-99300000D01*
X31620000Y-99302000D01*
X31573000Y-99306000D01*
X31527000Y-99311000D01*
X31480000Y-99317000D01*
X31434000Y-99325000D01*
X31388000Y-99335000D01*
X31343000Y-99346000D01*
X31298000Y-99358000D01*
X31253000Y-99372000D01*
X31209000Y-99388000D01*
X31165000Y-99404000D01*
X31122000Y-99422000D01*
X31080000Y-99442000D01*
X31038000Y-99463000D01*
X30996000Y-99485000D01*
X30956000Y-99508000D01*
X30916000Y-99533000D01*
X30877000Y-99559000D01*
X30839000Y-99586000D01*
X30802000Y-99615000D01*
X30766000Y-99644000D01*
X30731000Y-99675000D01*
X30696000Y-99707000D01*
X30663000Y-99740000D01*
X30631000Y-99774000D01*
X30600000Y-99809000D01*
X30570000Y-99845000D01*
X30535000Y-99890000D01*
X29700000Y-99890000D01*
X29700000Y-97190000D01*
X33800000Y-97190000D01*
X33800000Y-99890000D01*
G37*
X30570000Y-114555000D02*
X30600000Y-114591000D01*
X30631000Y-114626000D01*
X30663000Y-114660000D01*
X30696000Y-114693000D01*
X30731000Y-114725000D01*
X30766000Y-114756000D01*
X30802000Y-114785000D01*
X30839000Y-114814000D01*
X30877000Y-114841000D01*
X30916000Y-114867000D01*
X30956000Y-114892000D01*
X30996000Y-114915000D01*
X31038000Y-114937000D01*
X31080000Y-114958000D01*
X31122000Y-114978000D01*
X31165000Y-114996000D01*
X31209000Y-115012000D01*
X31253000Y-115028000D01*
X31298000Y-115042000D01*
X31343000Y-115054000D01*
X31388000Y-115065000D01*
X31434000Y-115075000D01*
X31480000Y-115083000D01*
X31527000Y-115089000D01*
X31573000Y-115094000D01*
X31620000Y-115098000D01*
X31667000Y-115100000D01*
X31713000Y-115101000D01*
X31750000Y-115100000D01*
X31787000Y-115101000D01*
X31833000Y-115100000D01*
X31880000Y-115098000D01*
X31927000Y-115094000D01*
X31973000Y-115089000D01*
X32020000Y-115083000D01*
X32066000Y-115075000D01*
X32112000Y-115065000D01*
X32157000Y-115054000D01*
X32202000Y-115042000D01*
X32247000Y-115028000D01*
X32291000Y-115012000D01*
X32335000Y-114996000D01*
X32378000Y-114978000D01*
X32420000Y-114958000D01*
X32462000Y-114937000D01*
X32504000Y-114915000D01*
X32544000Y-114892000D01*
X32584000Y-114867000D01*
X32623000Y-114841000D01*
X32661000Y-114814000D01*
X32698000Y-114785000D01*
X32734000Y-114756000D01*
X32769000Y-114725000D01*
X32804000Y-114693000D01*
X32837000Y-114660000D01*
X32869000Y-114626000D01*
X32900000Y-114591000D01*
X32930000Y-114555000D01*
X32965000Y-114510000D01*
X33800000Y-114510000D01*
X33800000Y-117210000D01*
X29700000Y-117210000D01*
X29700000Y-114510000D01*
X30535000Y-114510000D01*
X30570000Y-114555000D01*
G36*
X30570000Y-114555000D02*
G01*
X30600000Y-114591000D01*
X30631000Y-114626000D01*
X30663000Y-114660000D01*
X30696000Y-114693000D01*
X30731000Y-114725000D01*
X30766000Y-114756000D01*
X30802000Y-114785000D01*
X30839000Y-114814000D01*
X30877000Y-114841000D01*
X30916000Y-114867000D01*
X30956000Y-114892000D01*
X30996000Y-114915000D01*
X31038000Y-114937000D01*
X31080000Y-114958000D01*
X31122000Y-114978000D01*
X31165000Y-114996000D01*
X31209000Y-115012000D01*
X31253000Y-115028000D01*
X31298000Y-115042000D01*
X31343000Y-115054000D01*
X31388000Y-115065000D01*
X31434000Y-115075000D01*
X31480000Y-115083000D01*
X31527000Y-115089000D01*
X31573000Y-115094000D01*
X31620000Y-115098000D01*
X31667000Y-115100000D01*
X31713000Y-115101000D01*
X31750000Y-115100000D01*
X31787000Y-115101000D01*
X31833000Y-115100000D01*
X31880000Y-115098000D01*
X31927000Y-115094000D01*
X31973000Y-115089000D01*
X32020000Y-115083000D01*
X32066000Y-115075000D01*
X32112000Y-115065000D01*
X32157000Y-115054000D01*
X32202000Y-115042000D01*
X32247000Y-115028000D01*
X32291000Y-115012000D01*
X32335000Y-114996000D01*
X32378000Y-114978000D01*
X32420000Y-114958000D01*
X32462000Y-114937000D01*
X32504000Y-114915000D01*
X32544000Y-114892000D01*
X32584000Y-114867000D01*
X32623000Y-114841000D01*
X32661000Y-114814000D01*
X32698000Y-114785000D01*
X32734000Y-114756000D01*
X32769000Y-114725000D01*
X32804000Y-114693000D01*
X32837000Y-114660000D01*
X32869000Y-114626000D01*
X32900000Y-114591000D01*
X32930000Y-114555000D01*
X32965000Y-114510000D01*
X33800000Y-114510000D01*
X33800000Y-117210000D01*
X29700000Y-117210000D01*
X29700000Y-114510000D01*
X30535000Y-114510000D01*
X30570000Y-114555000D01*
G37*
%TO.C,J32*%
X33800000Y-78890000D02*
X32965000Y-78890000D01*
X32930000Y-78845000D01*
X32900000Y-78809000D01*
X32869000Y-78774000D01*
X32837000Y-78740000D01*
X32804000Y-78707000D01*
X32769000Y-78675000D01*
X32734000Y-78644000D01*
X32698000Y-78615000D01*
X32661000Y-78586000D01*
X32623000Y-78559000D01*
X32584000Y-78533000D01*
X32544000Y-78508000D01*
X32504000Y-78485000D01*
X32462000Y-78463000D01*
X32420000Y-78442000D01*
X32378000Y-78422000D01*
X32335000Y-78404000D01*
X32291000Y-78388000D01*
X32247000Y-78372000D01*
X32202000Y-78358000D01*
X32157000Y-78346000D01*
X32112000Y-78335000D01*
X32066000Y-78325000D01*
X32020000Y-78317000D01*
X31973000Y-78311000D01*
X31927000Y-78306000D01*
X31880000Y-78302000D01*
X31833000Y-78300000D01*
X31787000Y-78299000D01*
X31750000Y-78300000D01*
X31713000Y-78299000D01*
X31667000Y-78300000D01*
X31620000Y-78302000D01*
X31573000Y-78306000D01*
X31527000Y-78311000D01*
X31480000Y-78317000D01*
X31434000Y-78325000D01*
X31388000Y-78335000D01*
X31343000Y-78346000D01*
X31298000Y-78358000D01*
X31253000Y-78372000D01*
X31209000Y-78388000D01*
X31165000Y-78404000D01*
X31122000Y-78422000D01*
X31080000Y-78442000D01*
X31038000Y-78463000D01*
X30996000Y-78485000D01*
X30956000Y-78508000D01*
X30916000Y-78533000D01*
X30877000Y-78559000D01*
X30839000Y-78586000D01*
X30802000Y-78615000D01*
X30766000Y-78644000D01*
X30731000Y-78675000D01*
X30696000Y-78707000D01*
X30663000Y-78740000D01*
X30631000Y-78774000D01*
X30600000Y-78809000D01*
X30570000Y-78845000D01*
X30535000Y-78890000D01*
X29700000Y-78890000D01*
X29700000Y-76190000D01*
X33800000Y-76190000D01*
X33800000Y-78890000D01*
G36*
X33800000Y-78890000D02*
G01*
X32965000Y-78890000D01*
X32930000Y-78845000D01*
X32900000Y-78809000D01*
X32869000Y-78774000D01*
X32837000Y-78740000D01*
X32804000Y-78707000D01*
X32769000Y-78675000D01*
X32734000Y-78644000D01*
X32698000Y-78615000D01*
X32661000Y-78586000D01*
X32623000Y-78559000D01*
X32584000Y-78533000D01*
X32544000Y-78508000D01*
X32504000Y-78485000D01*
X32462000Y-78463000D01*
X32420000Y-78442000D01*
X32378000Y-78422000D01*
X32335000Y-78404000D01*
X32291000Y-78388000D01*
X32247000Y-78372000D01*
X32202000Y-78358000D01*
X32157000Y-78346000D01*
X32112000Y-78335000D01*
X32066000Y-78325000D01*
X32020000Y-78317000D01*
X31973000Y-78311000D01*
X31927000Y-78306000D01*
X31880000Y-78302000D01*
X31833000Y-78300000D01*
X31787000Y-78299000D01*
X31750000Y-78300000D01*
X31713000Y-78299000D01*
X31667000Y-78300000D01*
X31620000Y-78302000D01*
X31573000Y-78306000D01*
X31527000Y-78311000D01*
X31480000Y-78317000D01*
X31434000Y-78325000D01*
X31388000Y-78335000D01*
X31343000Y-78346000D01*
X31298000Y-78358000D01*
X31253000Y-78372000D01*
X31209000Y-78388000D01*
X31165000Y-78404000D01*
X31122000Y-78422000D01*
X31080000Y-78442000D01*
X31038000Y-78463000D01*
X30996000Y-78485000D01*
X30956000Y-78508000D01*
X30916000Y-78533000D01*
X30877000Y-78559000D01*
X30839000Y-78586000D01*
X30802000Y-78615000D01*
X30766000Y-78644000D01*
X30731000Y-78675000D01*
X30696000Y-78707000D01*
X30663000Y-78740000D01*
X30631000Y-78774000D01*
X30600000Y-78809000D01*
X30570000Y-78845000D01*
X30535000Y-78890000D01*
X29700000Y-78890000D01*
X29700000Y-76190000D01*
X33800000Y-76190000D01*
X33800000Y-78890000D01*
G37*
X30570000Y-93555000D02*
X30600000Y-93591000D01*
X30631000Y-93626000D01*
X30663000Y-93660000D01*
X30696000Y-93693000D01*
X30731000Y-93725000D01*
X30766000Y-93756000D01*
X30802000Y-93785000D01*
X30839000Y-93814000D01*
X30877000Y-93841000D01*
X30916000Y-93867000D01*
X30956000Y-93892000D01*
X30996000Y-93915000D01*
X31038000Y-93937000D01*
X31080000Y-93958000D01*
X31122000Y-93978000D01*
X31165000Y-93996000D01*
X31209000Y-94012000D01*
X31253000Y-94028000D01*
X31298000Y-94042000D01*
X31343000Y-94054000D01*
X31388000Y-94065000D01*
X31434000Y-94075000D01*
X31480000Y-94083000D01*
X31527000Y-94089000D01*
X31573000Y-94094000D01*
X31620000Y-94098000D01*
X31667000Y-94100000D01*
X31713000Y-94101000D01*
X31750000Y-94100000D01*
X31787000Y-94101000D01*
X31833000Y-94100000D01*
X31880000Y-94098000D01*
X31927000Y-94094000D01*
X31973000Y-94089000D01*
X32020000Y-94083000D01*
X32066000Y-94075000D01*
X32112000Y-94065000D01*
X32157000Y-94054000D01*
X32202000Y-94042000D01*
X32247000Y-94028000D01*
X32291000Y-94012000D01*
X32335000Y-93996000D01*
X32378000Y-93978000D01*
X32420000Y-93958000D01*
X32462000Y-93937000D01*
X32504000Y-93915000D01*
X32544000Y-93892000D01*
X32584000Y-93867000D01*
X32623000Y-93841000D01*
X32661000Y-93814000D01*
X32698000Y-93785000D01*
X32734000Y-93756000D01*
X32769000Y-93725000D01*
X32804000Y-93693000D01*
X32837000Y-93660000D01*
X32869000Y-93626000D01*
X32900000Y-93591000D01*
X32930000Y-93555000D01*
X32965000Y-93510000D01*
X33800000Y-93510000D01*
X33800000Y-96210000D01*
X29700000Y-96210000D01*
X29700000Y-93510000D01*
X30535000Y-93510000D01*
X30570000Y-93555000D01*
G36*
X30570000Y-93555000D02*
G01*
X30600000Y-93591000D01*
X30631000Y-93626000D01*
X30663000Y-93660000D01*
X30696000Y-93693000D01*
X30731000Y-93725000D01*
X30766000Y-93756000D01*
X30802000Y-93785000D01*
X30839000Y-93814000D01*
X30877000Y-93841000D01*
X30916000Y-93867000D01*
X30956000Y-93892000D01*
X30996000Y-93915000D01*
X31038000Y-93937000D01*
X31080000Y-93958000D01*
X31122000Y-93978000D01*
X31165000Y-93996000D01*
X31209000Y-94012000D01*
X31253000Y-94028000D01*
X31298000Y-94042000D01*
X31343000Y-94054000D01*
X31388000Y-94065000D01*
X31434000Y-94075000D01*
X31480000Y-94083000D01*
X31527000Y-94089000D01*
X31573000Y-94094000D01*
X31620000Y-94098000D01*
X31667000Y-94100000D01*
X31713000Y-94101000D01*
X31750000Y-94100000D01*
X31787000Y-94101000D01*
X31833000Y-94100000D01*
X31880000Y-94098000D01*
X31927000Y-94094000D01*
X31973000Y-94089000D01*
X32020000Y-94083000D01*
X32066000Y-94075000D01*
X32112000Y-94065000D01*
X32157000Y-94054000D01*
X32202000Y-94042000D01*
X32247000Y-94028000D01*
X32291000Y-94012000D01*
X32335000Y-93996000D01*
X32378000Y-93978000D01*
X32420000Y-93958000D01*
X32462000Y-93937000D01*
X32504000Y-93915000D01*
X32544000Y-93892000D01*
X32584000Y-93867000D01*
X32623000Y-93841000D01*
X32661000Y-93814000D01*
X32698000Y-93785000D01*
X32734000Y-93756000D01*
X32769000Y-93725000D01*
X32804000Y-93693000D01*
X32837000Y-93660000D01*
X32869000Y-93626000D01*
X32900000Y-93591000D01*
X32930000Y-93555000D01*
X32965000Y-93510000D01*
X33800000Y-93510000D01*
X33800000Y-96210000D01*
X29700000Y-96210000D01*
X29700000Y-93510000D01*
X30535000Y-93510000D01*
X30570000Y-93555000D01*
G37*
%TO.C,J34*%
X33875000Y-141540000D02*
X33040000Y-141540000D01*
X33005000Y-141495000D01*
X32975000Y-141459000D01*
X32944000Y-141424000D01*
X32912000Y-141390000D01*
X32879000Y-141357000D01*
X32844000Y-141325000D01*
X32809000Y-141294000D01*
X32773000Y-141265000D01*
X32736000Y-141236000D01*
X32698000Y-141209000D01*
X32659000Y-141183000D01*
X32619000Y-141158000D01*
X32579000Y-141135000D01*
X32537000Y-141113000D01*
X32495000Y-141092000D01*
X32453000Y-141072000D01*
X32410000Y-141054000D01*
X32366000Y-141038000D01*
X32322000Y-141022000D01*
X32277000Y-141008000D01*
X32232000Y-140996000D01*
X32187000Y-140985000D01*
X32141000Y-140975000D01*
X32095000Y-140967000D01*
X32048000Y-140961000D01*
X32002000Y-140956000D01*
X31955000Y-140952000D01*
X31908000Y-140950000D01*
X31862000Y-140949000D01*
X31825000Y-140950000D01*
X31788000Y-140949000D01*
X31742000Y-140950000D01*
X31695000Y-140952000D01*
X31648000Y-140956000D01*
X31602000Y-140961000D01*
X31555000Y-140967000D01*
X31509000Y-140975000D01*
X31463000Y-140985000D01*
X31418000Y-140996000D01*
X31373000Y-141008000D01*
X31328000Y-141022000D01*
X31284000Y-141038000D01*
X31240000Y-141054000D01*
X31197000Y-141072000D01*
X31155000Y-141092000D01*
X31113000Y-141113000D01*
X31071000Y-141135000D01*
X31031000Y-141158000D01*
X30991000Y-141183000D01*
X30952000Y-141209000D01*
X30914000Y-141236000D01*
X30877000Y-141265000D01*
X30841000Y-141294000D01*
X30806000Y-141325000D01*
X30771000Y-141357000D01*
X30738000Y-141390000D01*
X30706000Y-141424000D01*
X30675000Y-141459000D01*
X30645000Y-141495000D01*
X30610000Y-141540000D01*
X29775000Y-141540000D01*
X29775000Y-138840000D01*
X33875000Y-138840000D01*
X33875000Y-141540000D01*
G36*
X33875000Y-141540000D02*
G01*
X33040000Y-141540000D01*
X33005000Y-141495000D01*
X32975000Y-141459000D01*
X32944000Y-141424000D01*
X32912000Y-141390000D01*
X32879000Y-141357000D01*
X32844000Y-141325000D01*
X32809000Y-141294000D01*
X32773000Y-141265000D01*
X32736000Y-141236000D01*
X32698000Y-141209000D01*
X32659000Y-141183000D01*
X32619000Y-141158000D01*
X32579000Y-141135000D01*
X32537000Y-141113000D01*
X32495000Y-141092000D01*
X32453000Y-141072000D01*
X32410000Y-141054000D01*
X32366000Y-141038000D01*
X32322000Y-141022000D01*
X32277000Y-141008000D01*
X32232000Y-140996000D01*
X32187000Y-140985000D01*
X32141000Y-140975000D01*
X32095000Y-140967000D01*
X32048000Y-140961000D01*
X32002000Y-140956000D01*
X31955000Y-140952000D01*
X31908000Y-140950000D01*
X31862000Y-140949000D01*
X31825000Y-140950000D01*
X31788000Y-140949000D01*
X31742000Y-140950000D01*
X31695000Y-140952000D01*
X31648000Y-140956000D01*
X31602000Y-140961000D01*
X31555000Y-140967000D01*
X31509000Y-140975000D01*
X31463000Y-140985000D01*
X31418000Y-140996000D01*
X31373000Y-141008000D01*
X31328000Y-141022000D01*
X31284000Y-141038000D01*
X31240000Y-141054000D01*
X31197000Y-141072000D01*
X31155000Y-141092000D01*
X31113000Y-141113000D01*
X31071000Y-141135000D01*
X31031000Y-141158000D01*
X30991000Y-141183000D01*
X30952000Y-141209000D01*
X30914000Y-141236000D01*
X30877000Y-141265000D01*
X30841000Y-141294000D01*
X30806000Y-141325000D01*
X30771000Y-141357000D01*
X30738000Y-141390000D01*
X30706000Y-141424000D01*
X30675000Y-141459000D01*
X30645000Y-141495000D01*
X30610000Y-141540000D01*
X29775000Y-141540000D01*
X29775000Y-138840000D01*
X33875000Y-138840000D01*
X33875000Y-141540000D01*
G37*
X30645000Y-156205000D02*
X30675000Y-156241000D01*
X30706000Y-156276000D01*
X30738000Y-156310000D01*
X30771000Y-156343000D01*
X30806000Y-156375000D01*
X30841000Y-156406000D01*
X30877000Y-156435000D01*
X30914000Y-156464000D01*
X30952000Y-156491000D01*
X30991000Y-156517000D01*
X31031000Y-156542000D01*
X31071000Y-156565000D01*
X31113000Y-156587000D01*
X31155000Y-156608000D01*
X31197000Y-156628000D01*
X31240000Y-156646000D01*
X31284000Y-156662000D01*
X31328000Y-156678000D01*
X31373000Y-156692000D01*
X31418000Y-156704000D01*
X31463000Y-156715000D01*
X31509000Y-156725000D01*
X31555000Y-156733000D01*
X31602000Y-156739000D01*
X31648000Y-156744000D01*
X31695000Y-156748000D01*
X31742000Y-156750000D01*
X31788000Y-156751000D01*
X31825000Y-156750000D01*
X31862000Y-156751000D01*
X31908000Y-156750000D01*
X31955000Y-156748000D01*
X32002000Y-156744000D01*
X32048000Y-156739000D01*
X32095000Y-156733000D01*
X32141000Y-156725000D01*
X32187000Y-156715000D01*
X32232000Y-156704000D01*
X32277000Y-156692000D01*
X32322000Y-156678000D01*
X32366000Y-156662000D01*
X32410000Y-156646000D01*
X32453000Y-156628000D01*
X32495000Y-156608000D01*
X32537000Y-156587000D01*
X32579000Y-156565000D01*
X32619000Y-156542000D01*
X32659000Y-156517000D01*
X32698000Y-156491000D01*
X32736000Y-156464000D01*
X32773000Y-156435000D01*
X32809000Y-156406000D01*
X32844000Y-156375000D01*
X32879000Y-156343000D01*
X32912000Y-156310000D01*
X32944000Y-156276000D01*
X32975000Y-156241000D01*
X33005000Y-156205000D01*
X33040000Y-156160000D01*
X33875000Y-156160000D01*
X33875000Y-158860000D01*
X29775000Y-158860000D01*
X29775000Y-156160000D01*
X30610000Y-156160000D01*
X30645000Y-156205000D01*
G36*
X30645000Y-156205000D02*
G01*
X30675000Y-156241000D01*
X30706000Y-156276000D01*
X30738000Y-156310000D01*
X30771000Y-156343000D01*
X30806000Y-156375000D01*
X30841000Y-156406000D01*
X30877000Y-156435000D01*
X30914000Y-156464000D01*
X30952000Y-156491000D01*
X30991000Y-156517000D01*
X31031000Y-156542000D01*
X31071000Y-156565000D01*
X31113000Y-156587000D01*
X31155000Y-156608000D01*
X31197000Y-156628000D01*
X31240000Y-156646000D01*
X31284000Y-156662000D01*
X31328000Y-156678000D01*
X31373000Y-156692000D01*
X31418000Y-156704000D01*
X31463000Y-156715000D01*
X31509000Y-156725000D01*
X31555000Y-156733000D01*
X31602000Y-156739000D01*
X31648000Y-156744000D01*
X31695000Y-156748000D01*
X31742000Y-156750000D01*
X31788000Y-156751000D01*
X31825000Y-156750000D01*
X31862000Y-156751000D01*
X31908000Y-156750000D01*
X31955000Y-156748000D01*
X32002000Y-156744000D01*
X32048000Y-156739000D01*
X32095000Y-156733000D01*
X32141000Y-156725000D01*
X32187000Y-156715000D01*
X32232000Y-156704000D01*
X32277000Y-156692000D01*
X32322000Y-156678000D01*
X32366000Y-156662000D01*
X32410000Y-156646000D01*
X32453000Y-156628000D01*
X32495000Y-156608000D01*
X32537000Y-156587000D01*
X32579000Y-156565000D01*
X32619000Y-156542000D01*
X32659000Y-156517000D01*
X32698000Y-156491000D01*
X32736000Y-156464000D01*
X32773000Y-156435000D01*
X32809000Y-156406000D01*
X32844000Y-156375000D01*
X32879000Y-156343000D01*
X32912000Y-156310000D01*
X32944000Y-156276000D01*
X32975000Y-156241000D01*
X33005000Y-156205000D01*
X33040000Y-156160000D01*
X33875000Y-156160000D01*
X33875000Y-158860000D01*
X29775000Y-158860000D01*
X29775000Y-156160000D01*
X30610000Y-156160000D01*
X30645000Y-156205000D01*
G37*
%TD*%
D11*
%TO.C,D113*%
X78725000Y-93750000D03*
X80775000Y-93750000D03*
%TD*%
D12*
%TO.C,R87*%
X74712500Y-93750000D03*
X76787500Y-93750000D03*
%TD*%
%TO.C,R86*%
X74762500Y-91500000D03*
X76837500Y-91500000D03*
%TD*%
D11*
%TO.C,D112*%
X80800000Y-91500000D03*
X78750000Y-91500000D03*
%TD*%
D13*
%TO.C,R53*%
X125750000Y-141037500D03*
X125750000Y-138962500D03*
%TD*%
%TO.C,C32*%
X70750000Y-128325000D03*
X70750000Y-126250000D03*
%TD*%
D12*
%TO.C,C25*%
X70675000Y-162250000D03*
X72750000Y-162250000D03*
%TD*%
D14*
%TO.C,R58*%
X224000000Y-94175000D03*
X224000000Y-96000000D03*
%TD*%
D15*
%TO.C,J14*%
X119250000Y-111000000D03*
D16*
X121750000Y-111000000D03*
%TD*%
D12*
%TO.C,C22*%
X70750000Y-89250000D03*
X72825000Y-89250000D03*
%TD*%
D17*
%TO.C,U4*%
X204460000Y-104677500D03*
X205730000Y-104677500D03*
X207000000Y-104677500D03*
X208270000Y-104677500D03*
X208270000Y-99117500D03*
X207000000Y-99117500D03*
X205730000Y-99117500D03*
X204460000Y-99117500D03*
D18*
X205590000Y-102500000D03*
X207140000Y-102500000D03*
X205590000Y-101295000D03*
X207140000Y-101295000D03*
%TD*%
D19*
%TO.C,R63*%
X223000000Y-108530000D03*
X223000000Y-106705000D03*
%TD*%
D20*
%TO.C,U1*%
X186020000Y-138570000D03*
X137760000Y-137300000D03*
D21*
X137760000Y-110880000D03*
D22*
X137760000Y-113420000D03*
X137760000Y-115960000D03*
X137760000Y-118500000D03*
X137760000Y-121040000D03*
X137760000Y-123580000D03*
X137760000Y-126120000D03*
X137760000Y-128660000D03*
X137760000Y-131200000D03*
X137760000Y-133740000D03*
D21*
X186020000Y-124600000D03*
D22*
X186020000Y-122060000D03*
X186020000Y-119520000D03*
X186020000Y-116980000D03*
X186020000Y-114440000D03*
X186020000Y-111900000D03*
X186020000Y-109360000D03*
X186020000Y-106820000D03*
D23*
X193640000Y-134760000D03*
D24*
X191100000Y-134760000D03*
X193640000Y-132220000D03*
X191100000Y-132220000D03*
X193640000Y-129680000D03*
X191100000Y-129680000D03*
X193640000Y-127140000D03*
X191100000Y-127140000D03*
X193640000Y-124600000D03*
X191100000Y-124600000D03*
X193640000Y-122060000D03*
X191100000Y-122060000D03*
X193640000Y-119520000D03*
X191100000Y-119520000D03*
X193640000Y-116980000D03*
X191100000Y-116980000D03*
X193640000Y-114440000D03*
X191100000Y-114440000D03*
X193640000Y-111900000D03*
X191100000Y-111900000D03*
X193640000Y-109360000D03*
X191100000Y-109360000D03*
X193640000Y-106820000D03*
X191100000Y-106820000D03*
X193640000Y-104280000D03*
X191100000Y-104280000D03*
X193640000Y-101740000D03*
X191100000Y-101740000D03*
X193640000Y-99200000D03*
X191100000Y-99200000D03*
X193640000Y-96660000D03*
X191100000Y-96660000D03*
X193640000Y-94120000D03*
X191100000Y-94120000D03*
X193640000Y-91580000D03*
X191100000Y-91580000D03*
X193640000Y-89040000D03*
X191100000Y-89040000D03*
D21*
X186020000Y-101740000D03*
D22*
X186020000Y-99200000D03*
X186020000Y-96660000D03*
X186020000Y-94120000D03*
X186020000Y-91580000D03*
X186020000Y-89040000D03*
D21*
X137760000Y-89040000D03*
D22*
X137760000Y-91580000D03*
X137760000Y-94120000D03*
X137760000Y-96660000D03*
X137760000Y-99200000D03*
X137760000Y-101740000D03*
X137760000Y-104280000D03*
X137760000Y-106820000D03*
D23*
X132680000Y-134760000D03*
D24*
X130140000Y-134760000D03*
X132680000Y-132220000D03*
X130140000Y-132220000D03*
X132680000Y-129680000D03*
X130140000Y-129680000D03*
X132680000Y-127140000D03*
X130140000Y-127140000D03*
X132680000Y-124600000D03*
X130140000Y-124600000D03*
X132680000Y-122060000D03*
X130140000Y-122060000D03*
X132680000Y-119520000D03*
X130140000Y-119520000D03*
X132680000Y-116980000D03*
X130140000Y-116980000D03*
X132680000Y-114440000D03*
X130140000Y-114440000D03*
X132680000Y-111900000D03*
X130140000Y-111900000D03*
X132680000Y-109360000D03*
X130140000Y-109360000D03*
X132680000Y-106820000D03*
X130140000Y-106820000D03*
X132680000Y-104280000D03*
X130140000Y-104280000D03*
X132680000Y-101740000D03*
X130140000Y-101740000D03*
X132680000Y-99200000D03*
X130140000Y-99200000D03*
X132680000Y-96660000D03*
X130140000Y-96660000D03*
X132680000Y-94120000D03*
X130140000Y-94120000D03*
X132680000Y-91580000D03*
X130140000Y-91580000D03*
X132680000Y-89040000D03*
X130140000Y-89040000D03*
%TD*%
D25*
%TO.C,J27*%
X65500000Y-70500000D03*
D26*
X68000000Y-70500000D03*
X70500000Y-70500000D03*
X73000000Y-70500000D03*
X75500000Y-70500000D03*
X78000000Y-70500000D03*
X80500000Y-70500000D03*
X83000000Y-70500000D03*
%TD*%
D12*
%TO.C,R8*%
X66675000Y-96250000D03*
X68750000Y-96250000D03*
%TD*%
%TO.C,R73*%
X102425000Y-75750000D03*
X104500000Y-75750000D03*
%TD*%
D27*
%TO.C,J4*%
X203532500Y-160070000D03*
X209312500Y-160070000D03*
D28*
X203222500Y-158995000D03*
X204022500Y-158995000D03*
D29*
X205172500Y-158995000D03*
X206172500Y-158995000D03*
X206672500Y-158995000D03*
X207672500Y-158995000D03*
D28*
X208822500Y-158995000D03*
X209622500Y-158995000D03*
X209622500Y-158995000D03*
X208822500Y-158995000D03*
D29*
X208172500Y-158995000D03*
X207172500Y-158995000D03*
X205672500Y-158995000D03*
X204672500Y-158995000D03*
D28*
X204022500Y-158995000D03*
X203222500Y-158995000D03*
D30*
X202102500Y-159570000D03*
D31*
X202102500Y-163750000D03*
D30*
X210742500Y-159570000D03*
D31*
X210742500Y-163750000D03*
%TD*%
D13*
%TO.C,R3*%
X74537500Y-158512500D03*
X74537500Y-156437500D03*
%TD*%
D32*
%TO.C,SW6*%
X105150000Y-160000000D03*
X113350000Y-160000000D03*
D33*
X107250000Y-160000000D03*
D34*
X109250000Y-160000000D03*
X111250000Y-160000000D03*
%TD*%
D11*
%TO.C,D7*%
X220317621Y-127000000D03*
X218267621Y-127000000D03*
%TD*%
D32*
%TO.C,SW3*%
X105150000Y-138250000D03*
X113350000Y-138250000D03*
D33*
X107250000Y-138250000D03*
D34*
X109250000Y-138250000D03*
X111250000Y-138250000D03*
%TD*%
D12*
%TO.C,R69*%
X222292621Y-127040000D03*
X224367621Y-127040000D03*
%TD*%
D35*
%TO.C,R76*%
X68547500Y-85500000D03*
X66472500Y-85500000D03*
%TD*%
D12*
%TO.C,R12*%
X66712500Y-162250000D03*
X68787500Y-162250000D03*
%TD*%
%TO.C,R27*%
X66712500Y-156250000D03*
X68787500Y-156250000D03*
%TD*%
D36*
%TO.C,H9*%
X77000000Y-100000000D03*
%TD*%
D15*
%TO.C,J10*%
X119250000Y-103250000D03*
D16*
X121750000Y-103250000D03*
%TD*%
D36*
%TO.C,H8*%
X30000000Y-163000000D03*
%TD*%
D12*
%TO.C,R31*%
X66712500Y-164500000D03*
X68787500Y-164500000D03*
%TD*%
%TO.C,C17*%
X74250000Y-114725000D03*
X76325000Y-114725000D03*
%TD*%
D32*
%TO.C,SW2*%
X214025000Y-88000000D03*
X222225000Y-88000000D03*
D33*
X216125000Y-88000000D03*
D34*
X218125000Y-88000000D03*
X220125000Y-88000000D03*
%TD*%
D35*
%TO.C,C7*%
X170500000Y-75750000D03*
X168425000Y-75750000D03*
%TD*%
D12*
%TO.C,R55*%
X176712500Y-85000000D03*
X178787500Y-85000000D03*
%TD*%
D37*
%TO.C,R5*%
X209007500Y-135175000D03*
X209007500Y-137250000D03*
%TD*%
D35*
%TO.C,C14*%
X96500000Y-75750000D03*
X94425000Y-75750000D03*
%TD*%
D12*
%TO.C,R61*%
X176425000Y-75750000D03*
X178500000Y-75750000D03*
%TD*%
D38*
%TO.C,C11*%
X220317621Y-121000000D03*
D39*
X222817621Y-121000000D03*
%TD*%
D12*
%TO.C,R20*%
X66675000Y-112250000D03*
X68750000Y-112250000D03*
%TD*%
D13*
%TO.C,R47*%
X125750000Y-103287500D03*
X125750000Y-101212500D03*
%TD*%
D38*
%TO.C,C3*%
X214500000Y-96500000D03*
D39*
X212500000Y-96500000D03*
%TD*%
D40*
%TO.C,D110*%
X39750000Y-160850000D03*
X39750000Y-163650000D03*
%TD*%
D12*
%TO.C,C19*%
X74500000Y-154475000D03*
X76575000Y-154475000D03*
%TD*%
D17*
%TO.C,U5*%
X217230000Y-104677500D03*
X218500000Y-104677500D03*
X219770000Y-104677500D03*
X221040000Y-104677500D03*
X221040000Y-99117500D03*
X219770000Y-99117500D03*
X218500000Y-99117500D03*
X217230000Y-99117500D03*
D18*
X218360000Y-102500000D03*
X219910000Y-102500000D03*
X218360000Y-101295000D03*
X219910000Y-101295000D03*
%TD*%
D25*
%TO.C,J24*%
X65500000Y-80200000D03*
D26*
X68000000Y-80200000D03*
X70500000Y-80200000D03*
X73000000Y-80200000D03*
X75500000Y-80200000D03*
X78000000Y-80200000D03*
X80500000Y-80200000D03*
X83000000Y-80200000D03*
%TD*%
D41*
%TO.C,J33*%
X31825000Y-121750000D03*
X31825000Y-134450000D03*
D42*
X41805000Y-131670000D03*
X41805000Y-130650000D03*
X41805000Y-129630000D03*
X41805000Y-128610000D03*
X41805000Y-127590000D03*
X41805000Y-126570000D03*
X41805000Y-125550000D03*
X41805000Y-124530000D03*
%TD*%
D35*
%TO.C,R60*%
X174500000Y-75750000D03*
X172425000Y-75750000D03*
%TD*%
D12*
%TO.C,R23*%
X66675000Y-128250000D03*
X68750000Y-128250000D03*
%TD*%
D13*
%TO.C,C33*%
X70750000Y-132325000D03*
X70750000Y-130250000D03*
%TD*%
D12*
%TO.C,R68*%
X210292621Y-127000000D03*
X212367621Y-127000000D03*
%TD*%
D41*
%TO.C,J28*%
X31750000Y-100850000D03*
X31750000Y-113550000D03*
D42*
X41730000Y-110770000D03*
X41730000Y-109750000D03*
X41730000Y-108730000D03*
X41730000Y-107710000D03*
X41730000Y-106690000D03*
X41730000Y-105670000D03*
X41730000Y-104650000D03*
X41730000Y-103630000D03*
%TD*%
D43*
%TO.C,U8*%
X79225000Y-152650000D03*
X79225000Y-152000000D03*
X79225000Y-151350000D03*
X79225000Y-150700000D03*
X79225000Y-150050000D03*
X79225000Y-149400000D03*
X79225000Y-148750000D03*
X79225000Y-148100000D03*
X79225000Y-147450000D03*
X79225000Y-146800000D03*
X73500000Y-146800000D03*
X73500000Y-147450000D03*
X73500000Y-148100000D03*
X73500000Y-148750000D03*
X73500000Y-149400000D03*
X73500000Y-150050000D03*
X73500000Y-150700000D03*
X73500000Y-151350000D03*
X73500000Y-152000000D03*
X73500000Y-152650000D03*
%TD*%
D44*
%TO.C,D4*%
X203317621Y-126000000D03*
X203317621Y-121000000D03*
%TD*%
D25*
%TO.C,J6*%
X52250000Y-129500000D03*
D26*
X54750000Y-129500000D03*
X57250000Y-129500000D03*
X59750000Y-129500000D03*
X62250000Y-129500000D03*
%TD*%
D13*
%TO.C,C36*%
X70750000Y-156325000D03*
X70750000Y-154250000D03*
%TD*%
D41*
%TO.C,J32*%
X31750000Y-79850000D03*
X31750000Y-92550000D03*
D42*
X41730000Y-89770000D03*
X41730000Y-88750000D03*
X41730000Y-87730000D03*
X41730000Y-86710000D03*
X41730000Y-85690000D03*
X41730000Y-84670000D03*
X41730000Y-83650000D03*
X41730000Y-82630000D03*
%TD*%
D45*
%TO.C,D14*%
X209047500Y-141250000D03*
X209047500Y-139200000D03*
%TD*%
D46*
%TO.C,D1*%
X199500000Y-150500000D03*
X199500000Y-155500000D03*
%TD*%
D12*
%TO.C,R26*%
X66675000Y-144250000D03*
X68750000Y-144250000D03*
%TD*%
D36*
%TO.C,H5*%
X123000000Y-72000000D03*
%TD*%
D35*
%TO.C,R66*%
X100787500Y-86250000D03*
X98712500Y-86250000D03*
%TD*%
D15*
%TO.C,J12*%
X119250000Y-133500000D03*
D16*
X121750000Y-133500000D03*
%TD*%
D35*
%TO.C,C12*%
X133537500Y-76000000D03*
X131462500Y-76000000D03*
%TD*%
D14*
%TO.C,R56*%
X209500000Y-94500000D03*
X209500000Y-96325000D03*
%TD*%
D47*
%TO.C,R62*%
X223000000Y-104617500D03*
X224825000Y-104617500D03*
%TD*%
D38*
%TO.C,C10*%
X208317621Y-121000000D03*
D39*
X210817621Y-121000000D03*
%TD*%
D13*
%TO.C,C34*%
X70750000Y-124287500D03*
X70750000Y-122212500D03*
%TD*%
D12*
%TO.C,R28*%
X66712500Y-160000000D03*
X68787500Y-160000000D03*
%TD*%
D44*
%TO.C,D5*%
X215317621Y-126000000D03*
X215317621Y-121000000D03*
%TD*%
D14*
%TO.C,R57*%
X210500000Y-101292500D03*
X210500000Y-103117500D03*
%TD*%
D11*
%TO.C,D9*%
X219250000Y-147000000D03*
X217200000Y-147000000D03*
%TD*%
D12*
%TO.C,R17*%
X66712500Y-100250000D03*
X68787500Y-100250000D03*
%TD*%
D48*
%TO.C,J23*%
X105400000Y-103350000D03*
D25*
X107000000Y-101750000D03*
D26*
X109500000Y-101750000D03*
X112000000Y-101750000D03*
%TD*%
D13*
%TO.C,C29*%
X70750000Y-116325000D03*
X70750000Y-114250000D03*
%TD*%
%TO.C,C31*%
X70750000Y-112287500D03*
X70750000Y-110212500D03*
%TD*%
D12*
%TO.C,R74*%
X221212500Y-136110661D03*
X223287500Y-136110661D03*
%TD*%
D25*
%TO.C,J2*%
X52250000Y-99700000D03*
D26*
X54750000Y-99700000D03*
X57250000Y-99700000D03*
X59750000Y-99700000D03*
X62250000Y-99700000D03*
%TD*%
D25*
%TO.C,J18*%
X171500000Y-70625000D03*
D26*
X174000000Y-70625000D03*
X176500000Y-70625000D03*
X179000000Y-70625000D03*
X181500000Y-70625000D03*
X184000000Y-70625000D03*
X186500000Y-70625000D03*
X189000000Y-70625000D03*
%TD*%
D49*
%TO.C,J9*%
X205150000Y-73500000D03*
D50*
X212350000Y-73500000D03*
%TD*%
D12*
%TO.C,R19*%
X66675000Y-120250000D03*
X68750000Y-120250000D03*
%TD*%
D35*
%TO.C,R77*%
X72862500Y-85500000D03*
X70787500Y-85500000D03*
%TD*%
%TO.C,C16*%
X64787500Y-76000000D03*
X62712500Y-76000000D03*
%TD*%
D11*
%TO.C,D11*%
X219250000Y-152500000D03*
X217200000Y-152500000D03*
%TD*%
D12*
%TO.C,R70*%
X221212500Y-141500000D03*
X223287500Y-141500000D03*
%TD*%
D36*
%TO.C,H1*%
X58000000Y-163000000D03*
%TD*%
D25*
%TO.C,J17*%
X171750000Y-80000000D03*
D26*
X174250000Y-80000000D03*
X176750000Y-80000000D03*
X179250000Y-80000000D03*
X181750000Y-80000000D03*
X184250000Y-80000000D03*
X186750000Y-80000000D03*
X189250000Y-80000000D03*
%TD*%
D48*
%TO.C,J26*%
X105400000Y-133350000D03*
D25*
X107000000Y-131750000D03*
D26*
X109500000Y-131750000D03*
X112000000Y-131750000D03*
%TD*%
D35*
%TO.C,R64*%
X137537500Y-76000000D03*
X135462500Y-76000000D03*
%TD*%
%TO.C,R78*%
X68787500Y-76000000D03*
X66712500Y-76000000D03*
%TD*%
D12*
%TO.C,R7*%
X66712500Y-92750000D03*
X68787500Y-92750000D03*
%TD*%
D51*
%TO.C,L1*%
X202000000Y-112500000D03*
X208400000Y-112500000D03*
%TD*%
D52*
%TO.C,C5*%
X218050000Y-94500000D03*
X219950000Y-94500000D03*
%TD*%
D13*
%TO.C,R52*%
X125750000Y-126037500D03*
X125750000Y-123962500D03*
%TD*%
D43*
%TO.C,U6*%
X79475000Y-112900000D03*
X79475000Y-112250000D03*
X79475000Y-111600000D03*
X79475000Y-110950000D03*
X79475000Y-110300000D03*
X79475000Y-109650000D03*
X79475000Y-109000000D03*
X79475000Y-108350000D03*
X79475000Y-107700000D03*
X79475000Y-107050000D03*
X73750000Y-107050000D03*
X73750000Y-107700000D03*
X73750000Y-108350000D03*
X73750000Y-109000000D03*
X73750000Y-109650000D03*
X73750000Y-110300000D03*
X73750000Y-110950000D03*
X73750000Y-111600000D03*
X73750000Y-112250000D03*
X73750000Y-112900000D03*
%TD*%
D13*
%TO.C,C26*%
X70750000Y-104250000D03*
X70750000Y-102175000D03*
%TD*%
D36*
%TO.C,H4*%
X58000000Y-72000000D03*
%TD*%
D12*
%TO.C,R24*%
X66675000Y-132250000D03*
X68750000Y-132250000D03*
%TD*%
D13*
%TO.C,R1*%
X74325000Y-118762500D03*
X74325000Y-116687500D03*
%TD*%
D32*
%TO.C,SW4*%
X105150000Y-145500000D03*
X113350000Y-145500000D03*
D33*
X107250000Y-145500000D03*
D34*
X109250000Y-145500000D03*
X111250000Y-145500000D03*
%TD*%
D25*
%TO.C,J20*%
X96500000Y-80200000D03*
D26*
X99000000Y-80200000D03*
X101500000Y-80200000D03*
X104000000Y-80200000D03*
X106500000Y-80200000D03*
X109000000Y-80200000D03*
X111500000Y-80200000D03*
X114000000Y-80200000D03*
%TD*%
D13*
%TO.C,C23*%
X70750000Y-140325000D03*
X70750000Y-138250000D03*
%TD*%
D53*
%TO.C,C9*%
X215450000Y-105000000D03*
X213550000Y-105000000D03*
%TD*%
D44*
%TO.C,D2*%
X199000000Y-113500000D03*
X199000000Y-108500000D03*
%TD*%
D13*
%TO.C,R2*%
X74537500Y-138537500D03*
X74537500Y-136462500D03*
%TD*%
D37*
%TO.C,R4*%
X205992500Y-135175000D03*
X205992500Y-137250000D03*
%TD*%
D36*
%TO.C,H6*%
X222000000Y-72000000D03*
%TD*%
D13*
%TO.C,C39*%
X70750000Y-148287500D03*
X70750000Y-146212500D03*
%TD*%
D43*
%TO.C,U7*%
X79475000Y-132650000D03*
X79475000Y-132000000D03*
X79475000Y-131350000D03*
X79475000Y-130700000D03*
X79475000Y-130050000D03*
X79475000Y-129400000D03*
X79475000Y-128750000D03*
X79475000Y-128100000D03*
X79475000Y-127450000D03*
X79475000Y-126800000D03*
X73750000Y-126800000D03*
X73750000Y-127450000D03*
X73750000Y-128100000D03*
X73750000Y-128750000D03*
X73750000Y-129400000D03*
X73750000Y-130050000D03*
X73750000Y-130700000D03*
X73750000Y-131350000D03*
X73750000Y-132000000D03*
X73750000Y-132650000D03*
%TD*%
D35*
%TO.C,C6*%
X170500000Y-85000000D03*
X168425000Y-85000000D03*
%TD*%
D12*
%TO.C,R29*%
X66675000Y-136250000D03*
X68750000Y-136250000D03*
%TD*%
%TO.C,R75*%
X221187500Y-152460000D03*
X223262500Y-152460000D03*
%TD*%
D36*
%TO.C,H2*%
X123000000Y-163000000D03*
%TD*%
D12*
%TO.C,R79*%
X70712500Y-76000000D03*
X72787500Y-76000000D03*
%TD*%
D15*
%TO.C,J13*%
X119250000Y-148700000D03*
D16*
X121750000Y-148700000D03*
%TD*%
D44*
%TO.C,D3*%
X211500000Y-113000000D03*
X211500000Y-108000000D03*
%TD*%
D13*
%TO.C,C38*%
X70750000Y-136325000D03*
X70750000Y-134250000D03*
%TD*%
D54*
%TO.C,U3*%
X84260000Y-101800000D03*
X84260000Y-104340000D03*
X84260000Y-106880000D03*
X84260000Y-109420000D03*
X84260000Y-111960000D03*
X84260000Y-114500000D03*
X84260000Y-117040000D03*
X84260000Y-119580000D03*
X84260000Y-122120000D03*
X84260000Y-124660000D03*
X84260000Y-127200000D03*
X84260000Y-129740000D03*
X84260000Y-132280000D03*
X84260000Y-134820000D03*
X84260000Y-137360000D03*
X84260000Y-139900000D03*
X84260000Y-142440000D03*
X84260000Y-144980000D03*
X84260000Y-147520000D03*
X84260000Y-150060000D03*
X84260000Y-152600000D03*
X84260000Y-155140000D03*
X84260000Y-157680000D03*
X84260000Y-160220000D03*
D55*
X99500000Y-160220000D03*
D54*
X99500000Y-157680000D03*
X99500000Y-155140000D03*
X99500000Y-152600000D03*
X99500000Y-150060000D03*
X99500000Y-147520000D03*
X99500000Y-144980000D03*
X99500000Y-142440000D03*
X99500000Y-139900000D03*
X99500000Y-137360000D03*
X99500000Y-134820000D03*
X99500000Y-132280000D03*
X99500000Y-129740000D03*
X99500000Y-127200000D03*
X99500000Y-124660000D03*
X99500000Y-122120000D03*
X99500000Y-119580000D03*
X99500000Y-117040000D03*
X99500000Y-114500000D03*
X99500000Y-111960000D03*
X99500000Y-109420000D03*
X99500000Y-106880000D03*
X99500000Y-104340000D03*
X99500000Y-101800000D03*
%TD*%
D38*
%TO.C,C2*%
X201500000Y-97000000D03*
D39*
X199500000Y-97000000D03*
%TD*%
D36*
%TO.C,H7*%
X30000000Y-72000000D03*
%TD*%
D53*
%TO.C,C8*%
X202750000Y-105000000D03*
X200850000Y-105000000D03*
%TD*%
D12*
%TO.C,R30*%
X66712500Y-148250000D03*
X68787500Y-148250000D03*
%TD*%
D11*
%TO.C,D6*%
X208317621Y-127000000D03*
X206267621Y-127000000D03*
%TD*%
D12*
%TO.C,R18*%
X66712500Y-116250000D03*
X68787500Y-116250000D03*
%TD*%
D13*
%TO.C,C28*%
X70750000Y-100325000D03*
X70750000Y-98250000D03*
%TD*%
D35*
%TO.C,C13*%
X96537500Y-86250000D03*
X94462500Y-86250000D03*
%TD*%
D13*
%TO.C,R49*%
X125750000Y-133537500D03*
X125750000Y-131462500D03*
%TD*%
D15*
%TO.C,J11*%
X119250000Y-118500000D03*
D16*
X121750000Y-118500000D03*
%TD*%
D48*
%TO.C,J22*%
X105400000Y-113350000D03*
D25*
X107000000Y-111750000D03*
D26*
X109500000Y-111750000D03*
X112000000Y-111750000D03*
%TD*%
D12*
%TO.C,R10*%
X66712500Y-140250000D03*
X68787500Y-140250000D03*
%TD*%
%TO.C,R15*%
X66712500Y-104250000D03*
X68787500Y-104250000D03*
%TD*%
D11*
%TO.C,D10*%
X219275000Y-136110661D03*
X217225000Y-136110661D03*
%TD*%
D13*
%TO.C,C24*%
X70750000Y-152325000D03*
X70750000Y-150250000D03*
%TD*%
D51*
%TO.C,L2*%
X214300000Y-112500000D03*
X220700000Y-112500000D03*
%TD*%
D13*
%TO.C,C30*%
X70750000Y-120325000D03*
X70750000Y-118250000D03*
%TD*%
%TO.C,R48*%
X125750000Y-118537500D03*
X125750000Y-116462500D03*
%TD*%
D12*
%TO.C,C20*%
X70750000Y-92750000D03*
X72825000Y-92750000D03*
%TD*%
D25*
%TO.C,J21*%
X96500000Y-70500000D03*
D26*
X99000000Y-70500000D03*
X101500000Y-70500000D03*
X104000000Y-70500000D03*
X106500000Y-70500000D03*
X109000000Y-70500000D03*
X111500000Y-70500000D03*
X114000000Y-70500000D03*
%TD*%
D12*
%TO.C,R25*%
X66675000Y-124250000D03*
X68750000Y-124250000D03*
%TD*%
D25*
%TO.C,J8*%
X52250000Y-149500000D03*
D26*
X54750000Y-149500000D03*
X57250000Y-149500000D03*
X59750000Y-149500000D03*
X62250000Y-149500000D03*
%TD*%
D45*
%TO.C,D13*%
X206007500Y-141250000D03*
X206007500Y-139200000D03*
%TD*%
D56*
%TO.C,D111*%
X42300000Y-161000000D03*
X46700000Y-161000000D03*
%TD*%
D12*
%TO.C,R65*%
X139712500Y-76000000D03*
X141787500Y-76000000D03*
%TD*%
D41*
%TO.C,J34*%
X31825000Y-142500000D03*
X31825000Y-155200000D03*
D42*
X41805000Y-152420000D03*
X41805000Y-151400000D03*
X41805000Y-150380000D03*
X41805000Y-149360000D03*
X41805000Y-148340000D03*
X41805000Y-147320000D03*
X41805000Y-146300000D03*
X41805000Y-145280000D03*
%TD*%
D11*
%TO.C,D8*%
X219250000Y-141500000D03*
X217200000Y-141500000D03*
%TD*%
D12*
%TO.C,C18*%
X74500000Y-134500000D03*
X76575000Y-134500000D03*
%TD*%
D36*
%TO.C,H3*%
X222000000Y-163000000D03*
%TD*%
D25*
%TO.C,J1*%
X52250000Y-90000000D03*
D26*
X54750000Y-90000000D03*
X57250000Y-90000000D03*
X59750000Y-90000000D03*
X62250000Y-90000000D03*
%TD*%
D25*
%TO.C,J7*%
X52250000Y-139500000D03*
D26*
X54750000Y-139500000D03*
X57250000Y-139500000D03*
X59750000Y-139500000D03*
X62250000Y-139500000D03*
%TD*%
D35*
%TO.C,C15*%
X64585000Y-85500000D03*
X62510000Y-85500000D03*
%TD*%
D15*
%TO.C,J15*%
X119250000Y-126000000D03*
D16*
X121750000Y-126000000D03*
%TD*%
D12*
%TO.C,C40*%
X70712500Y-164500000D03*
X72787500Y-164500000D03*
%TD*%
D15*
%TO.C,J16*%
X119250000Y-141000000D03*
D16*
X121750000Y-141000000D03*
%TD*%
D57*
%TO.C,U2*%
X210347500Y-144887500D03*
X209712500Y-144887500D03*
X209077500Y-144887500D03*
X208442500Y-144887500D03*
X207807500Y-144887500D03*
X207172500Y-144887500D03*
X206537500Y-144887500D03*
X205902500Y-144887500D03*
X205267500Y-144887500D03*
X204632500Y-144887500D03*
X204632500Y-150087500D03*
X205267500Y-150087500D03*
X205902500Y-150087500D03*
X206537500Y-150087500D03*
X207172500Y-150087500D03*
X207807500Y-150087500D03*
X208442500Y-150087500D03*
X209077500Y-150087500D03*
X209712500Y-150087500D03*
X210347500Y-150087500D03*
%TD*%
D35*
%TO.C,R72*%
X100500000Y-75750000D03*
X98425000Y-75750000D03*
%TD*%
D25*
%TO.C,J5*%
X52250000Y-119700000D03*
D26*
X54750000Y-119700000D03*
X57250000Y-119700000D03*
X59750000Y-119700000D03*
X62250000Y-119700000D03*
%TD*%
D13*
%TO.C,R51*%
X125750000Y-111037500D03*
X125750000Y-108962500D03*
%TD*%
%TO.C,R50*%
X125750000Y-148787500D03*
X125750000Y-146712500D03*
%TD*%
D32*
%TO.C,SW5*%
X105150000Y-152750000D03*
X113350000Y-152750000D03*
D33*
X107250000Y-152750000D03*
D34*
X109250000Y-152750000D03*
X111250000Y-152750000D03*
%TD*%
D25*
%TO.C,J19*%
X134500000Y-70500000D03*
D26*
X137000000Y-70500000D03*
X139500000Y-70500000D03*
X142000000Y-70500000D03*
X144500000Y-70500000D03*
X147000000Y-70500000D03*
X149500000Y-70500000D03*
X152000000Y-70500000D03*
%TD*%
D13*
%TO.C,C37*%
X70750000Y-160287500D03*
X70750000Y-158212500D03*
%TD*%
D32*
%TO.C,SW1*%
X199525000Y-88000000D03*
X207725000Y-88000000D03*
D33*
X201625000Y-88000000D03*
D34*
X203625000Y-88000000D03*
X205625000Y-88000000D03*
%TD*%
D12*
%TO.C,C21*%
X70712500Y-96250000D03*
X72787500Y-96250000D03*
%TD*%
D35*
%TO.C,R54*%
X174500000Y-85000000D03*
X172425000Y-85000000D03*
%TD*%
D12*
%TO.C,R67*%
X102525000Y-86150000D03*
X104600000Y-86150000D03*
%TD*%
%TO.C,R9*%
X66712500Y-89250000D03*
X68787500Y-89250000D03*
%TD*%
%TO.C,R11*%
X66675000Y-152250000D03*
X68750000Y-152250000D03*
%TD*%
D52*
%TO.C,C4*%
X204600000Y-94500000D03*
X206500000Y-94500000D03*
%TD*%
D12*
%TO.C,R16*%
X66675000Y-108250000D03*
X68750000Y-108250000D03*
%TD*%
D14*
%TO.C,R59*%
X223500000Y-99617500D03*
X223500000Y-101442500D03*
%TD*%
D25*
%TO.C,J3*%
X52250000Y-109700000D03*
D26*
X54750000Y-109700000D03*
X57250000Y-109700000D03*
X59750000Y-109700000D03*
X62250000Y-109700000D03*
%TD*%
D48*
%TO.C,J25*%
X105400000Y-123350000D03*
D25*
X107000000Y-121750000D03*
D26*
X109500000Y-121750000D03*
X112000000Y-121750000D03*
%TD*%
D13*
%TO.C,C35*%
X70750000Y-144287500D03*
X70750000Y-142212500D03*
%TD*%
D12*
%TO.C,R71*%
X221187500Y-147000000D03*
X223262500Y-147000000D03*
%TD*%
D13*
%TO.C,C27*%
X70750000Y-108287500D03*
X70750000Y-106212500D03*
%TD*%
M02*
