%TF.GenerationSoftware,KiCad,Pcbnew,8.0.5*%
%TF.CreationDate,2024-09-21T15:40:11-07:00*%
%TF.ProjectId,MRIRobot_PCB,4d524952-6f62-46f7-945f-5043422e6b69,rev?*%
%TF.SameCoordinates,Original*%
%TF.FileFunction,Soldermask,Bot*%
%TF.FilePolarity,Negative*%
%FSLAX46Y46*%
G04 Gerber Fmt 4.6, Leading zero omitted, Abs format (unit mm)*
G04 Created by KiCad (PCBNEW 8.0.5) date 2024-09-21 15:40:11*
%MOMM*%
%LPD*%
G01*
G04 APERTURE LIST*
G04 Aperture macros list*
%AMRoundRect*
0 Rectangle with rounded corners*
0 $1 Rounding radius*
0 $2 $3 $4 $5 $6 $7 $8 $9 X,Y pos of 4 corners*
0 Add a 4 corners polygon primitive as box body*
4,1,4,$2,$3,$4,$5,$6,$7,$8,$9,$2,$3,0*
0 Add four circle primitives for the rounded corners*
1,1,$1+$1,$2,$3*
1,1,$1+$1,$4,$5*
1,1,$1+$1,$6,$7*
1,1,$1+$1,$8,$9*
0 Add four rect primitives between the rounded corners*
20,1,$1+$1,$2,$3,$4,$5,0*
20,1,$1+$1,$4,$5,$6,$7,0*
20,1,$1+$1,$6,$7,$8,$9,0*
20,1,$1+$1,$8,$9,$2,$3,0*%
G04 Aperture macros list end*
%ADD10RoundRect,0.250000X-0.600000X-0.750000X0.600000X-0.750000X0.600000X0.750000X-0.600000X0.750000X0*%
%ADD11O,1.700000X2.000000*%
%ADD12C,3.000000*%
%ADD13RoundRect,0.102000X0.802500X0.802500X-0.802500X0.802500X-0.802500X-0.802500X0.802500X-0.802500X0*%
%ADD14C,1.809000*%
%ADD15RoundRect,0.102000X0.765000X0.765000X-0.765000X0.765000X-0.765000X-0.765000X0.765000X-0.765000X0*%
%ADD16C,1.734000*%
%ADD17RoundRect,0.250000X-0.600000X-0.725000X0.600000X-0.725000X0.600000X0.725000X-0.600000X0.725000X0*%
%ADD18O,1.700000X1.950000*%
%ADD19O,2.200000X3.500000*%
%ADD20R,1.500000X2.500000*%
%ADD21O,1.500000X2.500000*%
%ADD22C,0.650000*%
%ADD23O,2.100000X1.000000*%
%ADD24O,1.800000X1.000000*%
%ADD25R,1.600000X1.600000*%
%ADD26C,1.600000*%
%ADD27C,3.200000*%
%ADD28C,1.250000*%
%ADD29RoundRect,1.500000X-1.500000X-1.500000X1.500000X-1.500000X1.500000X1.500000X-1.500000X1.500000X0*%
%ADD30C,6.000000*%
%ADD31C,1.524000*%
%ADD32RoundRect,0.381000X-0.381000X-0.381000X0.381000X-0.381000X0.381000X0.381000X-0.381000X0.381000X0*%
%ADD33RoundRect,0.250000X-0.337500X-0.475000X0.337500X-0.475000X0.337500X0.475000X-0.337500X0.475000X0*%
%ADD34RoundRect,0.250000X0.337500X0.475000X-0.337500X0.475000X-0.337500X-0.475000X0.337500X-0.475000X0*%
%ADD35RoundRect,0.237500X0.237500X-0.300000X0.237500X0.300000X-0.237500X0.300000X-0.237500X-0.300000X0*%
%ADD36RoundRect,0.250000X0.475000X-0.337500X0.475000X0.337500X-0.475000X0.337500X-0.475000X-0.337500X0*%
%ADD37RoundRect,0.237500X0.250000X0.237500X-0.250000X0.237500X-0.250000X-0.237500X0.250000X-0.237500X0*%
G04 APERTURE END LIST*
D10*
%TO.C,J14*%
X117500000Y-100500000D03*
D11*
X120000000Y-100500000D03*
%TD*%
D12*
%TO.C,U1*%
X186020000Y-137570000D03*
X153000000Y-85500000D03*
X137760000Y-136300000D03*
D13*
X137760000Y-109880000D03*
D14*
X137760000Y-112420000D03*
X137760000Y-114960000D03*
X137760000Y-117500000D03*
X137760000Y-120040000D03*
X137760000Y-122580000D03*
X137760000Y-125120000D03*
X137760000Y-127660000D03*
X137760000Y-130200000D03*
X137760000Y-132740000D03*
D13*
X186020000Y-123600000D03*
D14*
X186020000Y-121060000D03*
X186020000Y-118520000D03*
X186020000Y-115980000D03*
X186020000Y-113440000D03*
X186020000Y-110900000D03*
X186020000Y-108360000D03*
X186020000Y-105820000D03*
D15*
X193640000Y-133760000D03*
D16*
X191100000Y-133760000D03*
X193640000Y-131220000D03*
X191100000Y-131220000D03*
X193640000Y-128680000D03*
X191100000Y-128680000D03*
X193640000Y-126140000D03*
X191100000Y-126140000D03*
X193640000Y-123600000D03*
X191100000Y-123600000D03*
X193640000Y-121060000D03*
X191100000Y-121060000D03*
X193640000Y-118520000D03*
X191100000Y-118520000D03*
X193640000Y-115980000D03*
X191100000Y-115980000D03*
X193640000Y-113440000D03*
X191100000Y-113440000D03*
X193640000Y-110900000D03*
X191100000Y-110900000D03*
X193640000Y-108360000D03*
X191100000Y-108360000D03*
X193640000Y-105820000D03*
X191100000Y-105820000D03*
X193640000Y-103280000D03*
X191100000Y-103280000D03*
X193640000Y-100740000D03*
X191100000Y-100740000D03*
X193640000Y-98200000D03*
X191100000Y-98200000D03*
X193640000Y-95660000D03*
X191100000Y-95660000D03*
X193640000Y-93120000D03*
X191100000Y-93120000D03*
X193640000Y-90580000D03*
X191100000Y-90580000D03*
X193640000Y-88040000D03*
X191100000Y-88040000D03*
D13*
X186020000Y-100740000D03*
D14*
X186020000Y-98200000D03*
X186020000Y-95660000D03*
X186020000Y-93120000D03*
X186020000Y-90580000D03*
X186020000Y-88040000D03*
D13*
X137760000Y-88040000D03*
D14*
X137760000Y-90580000D03*
X137760000Y-93120000D03*
X137760000Y-95660000D03*
X137760000Y-98200000D03*
X137760000Y-100740000D03*
X137760000Y-103280000D03*
X137760000Y-105820000D03*
D15*
X132680000Y-133760000D03*
D16*
X130140000Y-133760000D03*
X132680000Y-131220000D03*
X130140000Y-131220000D03*
X132680000Y-128680000D03*
X130140000Y-128680000D03*
X132680000Y-126140000D03*
X130140000Y-126140000D03*
X132680000Y-123600000D03*
X130140000Y-123600000D03*
X132680000Y-121060000D03*
X130140000Y-121060000D03*
X132680000Y-118520000D03*
X130140000Y-118520000D03*
X132680000Y-115980000D03*
X130140000Y-115980000D03*
X132680000Y-113440000D03*
X130140000Y-113440000D03*
X132680000Y-110900000D03*
X130140000Y-110900000D03*
X132680000Y-108360000D03*
X130140000Y-108360000D03*
X132680000Y-105820000D03*
X130140000Y-105820000D03*
X132680000Y-103280000D03*
X130140000Y-103280000D03*
X132680000Y-100740000D03*
X130140000Y-100740000D03*
X132680000Y-98200000D03*
X130140000Y-98200000D03*
X132680000Y-95660000D03*
X130140000Y-95660000D03*
X132680000Y-93120000D03*
X130140000Y-93120000D03*
X132680000Y-90580000D03*
X130140000Y-90580000D03*
X132680000Y-88040000D03*
X130140000Y-88040000D03*
%TD*%
D17*
%TO.C,J27*%
X65500000Y-71000000D03*
D18*
X68000000Y-71000000D03*
X70500000Y-71000000D03*
X73000000Y-71000000D03*
X75500000Y-71000000D03*
X78000000Y-71000000D03*
X80500000Y-71000000D03*
X83000000Y-71000000D03*
%TD*%
D19*
%TO.C,SW6*%
X103400000Y-155390000D03*
X111600000Y-155390000D03*
D20*
X105500000Y-155390000D03*
D21*
X107500000Y-155390000D03*
X109500000Y-155390000D03*
%TD*%
D19*
%TO.C,SW3*%
X103400000Y-132000000D03*
X111600000Y-132000000D03*
D20*
X105500000Y-132000000D03*
D21*
X107500000Y-132000000D03*
X109500000Y-132000000D03*
%TD*%
D22*
%TO.C,J4*%
X218820000Y-91460000D03*
X218820000Y-85680000D03*
D23*
X218320000Y-92890000D03*
D24*
X222500000Y-92890000D03*
D23*
X218320000Y-84250000D03*
D24*
X222500000Y-84250000D03*
%TD*%
D10*
%TO.C,J10*%
X117500000Y-91500000D03*
D11*
X120000000Y-91500000D03*
%TD*%
D19*
%TO.C,SW2*%
X213900000Y-113000000D03*
X222100000Y-113000000D03*
D20*
X216000000Y-113000000D03*
D21*
X218000000Y-113000000D03*
X220000000Y-113000000D03*
%TD*%
D25*
%TO.C,C11*%
X220317621Y-143000000D03*
D26*
X222817621Y-143000000D03*
%TD*%
D25*
%TO.C,C3*%
X214500000Y-118500000D03*
D26*
X212500000Y-118500000D03*
%TD*%
D17*
%TO.C,J24*%
X65500000Y-79000000D03*
D18*
X68000000Y-79000000D03*
X70500000Y-79000000D03*
X73000000Y-79000000D03*
X75500000Y-79000000D03*
X78000000Y-79000000D03*
X80500000Y-79000000D03*
X83000000Y-79000000D03*
%TD*%
D17*
%TO.C,J6*%
X57500000Y-129500000D03*
D18*
X60000000Y-129500000D03*
X62500000Y-129500000D03*
X65000000Y-129500000D03*
X67500000Y-129500000D03*
%TD*%
D27*
%TO.C,H5*%
X123000000Y-72000000D03*
%TD*%
D10*
%TO.C,J12*%
X117500000Y-127500000D03*
D11*
X120000000Y-127500000D03*
%TD*%
D25*
%TO.C,C10*%
X208317621Y-143000000D03*
D26*
X210817621Y-143000000D03*
%TD*%
D28*
%TO.C,J23*%
X103400000Y-104600000D03*
D17*
X105000000Y-103000000D03*
D18*
X107500000Y-103000000D03*
X110000000Y-103000000D03*
%TD*%
D17*
%TO.C,J2*%
X57500000Y-99700000D03*
D18*
X60000000Y-99700000D03*
X62500000Y-99700000D03*
X65000000Y-99700000D03*
X67500000Y-99700000D03*
%TD*%
D17*
%TO.C,J18*%
X134500000Y-79000000D03*
D18*
X137000000Y-79000000D03*
X139500000Y-79000000D03*
X142000000Y-79000000D03*
X144500000Y-79000000D03*
X147000000Y-79000000D03*
X149500000Y-79000000D03*
X152000000Y-79000000D03*
%TD*%
D29*
%TO.C,J9*%
X212800000Y-104000000D03*
D30*
X220000000Y-104000000D03*
%TD*%
D27*
%TO.C,H1*%
X58000000Y-163000000D03*
%TD*%
D17*
%TO.C,J17*%
X164500000Y-71000000D03*
D18*
X167000000Y-71000000D03*
X169500000Y-71000000D03*
X172000000Y-71000000D03*
X174500000Y-71000000D03*
X177000000Y-71000000D03*
X179500000Y-71000000D03*
X182000000Y-71000000D03*
%TD*%
D28*
%TO.C,J26*%
X103399999Y-124600000D03*
D17*
X104999999Y-123000000D03*
D18*
X107499999Y-123000000D03*
X109999999Y-123000000D03*
%TD*%
D27*
%TO.C,H4*%
X58000000Y-72000000D03*
%TD*%
D19*
%TO.C,SW4*%
X103400000Y-139647500D03*
X111600000Y-139647500D03*
D20*
X105500000Y-139647500D03*
D21*
X107500000Y-139647500D03*
X109500000Y-139647500D03*
%TD*%
D17*
%TO.C,J20*%
X96500000Y-79000000D03*
D18*
X99000000Y-79000000D03*
X101500000Y-79000000D03*
X104000000Y-79000000D03*
X106500000Y-79000000D03*
X109000000Y-79000000D03*
X111500000Y-79000000D03*
X114000000Y-79000000D03*
%TD*%
D27*
%TO.C,H6*%
X222000000Y-72000000D03*
%TD*%
%TO.C,H2*%
X123000000Y-163000000D03*
%TD*%
D10*
%TO.C,J13*%
X117500000Y-145500000D03*
D11*
X120000000Y-145500000D03*
%TD*%
D31*
%TO.C,U3*%
X81980000Y-94565000D03*
X81980000Y-97105000D03*
X81980000Y-99645000D03*
X81980000Y-102185000D03*
X81980000Y-104725000D03*
X81980000Y-107265000D03*
X81980000Y-109805000D03*
X81980000Y-112345000D03*
X81980000Y-114885000D03*
X81980000Y-117425000D03*
X81980000Y-119965000D03*
X81980000Y-122505000D03*
X81980000Y-125045000D03*
X81980000Y-127585000D03*
X81980000Y-130125000D03*
X81980000Y-132665000D03*
X81980000Y-135205000D03*
X81980000Y-137745000D03*
X81980000Y-140285000D03*
X81980000Y-142825000D03*
X81980000Y-145365000D03*
X81980000Y-147905000D03*
X81980000Y-150445000D03*
X81980000Y-152985000D03*
D32*
X97220000Y-152985000D03*
D31*
X97220000Y-150445000D03*
X97220000Y-147905000D03*
X97220000Y-145365000D03*
X97220000Y-142825000D03*
X97220000Y-140285000D03*
X97220000Y-137745000D03*
X97220000Y-135205000D03*
X97220000Y-132665000D03*
X97220000Y-130125000D03*
X97220000Y-127585000D03*
X97220000Y-125045000D03*
X97220000Y-122505000D03*
X97220000Y-119965000D03*
X97220000Y-117425000D03*
X97220000Y-114885000D03*
X97220000Y-112345000D03*
X97220000Y-109805000D03*
X97220000Y-107265000D03*
X97220000Y-104725000D03*
X97220000Y-102185000D03*
X97220000Y-99645000D03*
X97220000Y-97105000D03*
X97220000Y-94565000D03*
%TD*%
D25*
%TO.C,C2*%
X201500000Y-119000000D03*
D26*
X199500000Y-119000000D03*
%TD*%
D10*
%TO.C,J11*%
X117500000Y-109500000D03*
D11*
X120000000Y-109500000D03*
%TD*%
D28*
%TO.C,J22*%
X103400000Y-94600000D03*
D17*
X105000000Y-93000000D03*
D18*
X107500000Y-93000000D03*
X110000000Y-93000000D03*
%TD*%
D17*
%TO.C,J21*%
X96500000Y-71000000D03*
D18*
X99000000Y-71000000D03*
X101500000Y-71000000D03*
X104000000Y-71000000D03*
X106500000Y-71000000D03*
X109000000Y-71000000D03*
X111500000Y-71000000D03*
X114000000Y-71000000D03*
%TD*%
D17*
%TO.C,J8*%
X57500000Y-149500000D03*
D18*
X60000000Y-149500000D03*
X62500000Y-149500000D03*
X65000000Y-149500000D03*
X67500000Y-149500000D03*
%TD*%
D27*
%TO.C,H3*%
X222000000Y-163000000D03*
%TD*%
D17*
%TO.C,J1*%
X57500000Y-90000000D03*
D18*
X60000000Y-90000000D03*
X62500000Y-90000000D03*
X65000000Y-90000000D03*
X67500000Y-90000000D03*
%TD*%
D17*
%TO.C,J7*%
X57500000Y-139500000D03*
D18*
X60000000Y-139500000D03*
X62500000Y-139500000D03*
X65000000Y-139500000D03*
X67500000Y-139500000D03*
%TD*%
D10*
%TO.C,J15*%
X117500000Y-118500000D03*
D11*
X120000000Y-118500000D03*
%TD*%
D10*
%TO.C,J16*%
X117500000Y-136000000D03*
D11*
X120000000Y-136000000D03*
%TD*%
D17*
%TO.C,J5*%
X57500000Y-119700000D03*
D18*
X60000000Y-119700000D03*
X62500000Y-119700000D03*
X65000000Y-119700000D03*
X67500000Y-119700000D03*
%TD*%
D19*
%TO.C,SW5*%
X103400000Y-147592500D03*
X111600000Y-147592500D03*
D20*
X105500000Y-147592500D03*
D21*
X107500000Y-147592500D03*
X109500000Y-147592500D03*
%TD*%
D17*
%TO.C,J19*%
X134500000Y-71000000D03*
D18*
X137000000Y-71000000D03*
X139500000Y-71000000D03*
X142000000Y-71000000D03*
X144500000Y-71000000D03*
X147000000Y-71000000D03*
X149500000Y-71000000D03*
X152000000Y-71000000D03*
%TD*%
D19*
%TO.C,SW1*%
X199400000Y-113000000D03*
X207600000Y-113000000D03*
D20*
X201500000Y-113000000D03*
D21*
X203500000Y-113000000D03*
X205500000Y-113000000D03*
%TD*%
D17*
%TO.C,J3*%
X57500000Y-109700000D03*
D18*
X60000000Y-109700000D03*
X62500000Y-109700000D03*
X65000000Y-109700000D03*
X67500000Y-109700000D03*
%TD*%
D28*
%TO.C,J25*%
X103399999Y-114600000D03*
D17*
X104999999Y-113000000D03*
D18*
X107499999Y-113000000D03*
X109999999Y-113000000D03*
%TD*%
D33*
%TO.C,R53*%
X120962500Y-140000000D03*
X123037500Y-140000000D03*
%TD*%
D34*
%TO.C,R73*%
X101537500Y-74000000D03*
X99462500Y-74000000D03*
%TD*%
D33*
%TO.C,R76*%
X60425000Y-82000000D03*
X62500000Y-82000000D03*
%TD*%
%TO.C,C7*%
X133425000Y-81500000D03*
X135500000Y-81500000D03*
%TD*%
D34*
%TO.C,R55*%
X169500000Y-74000000D03*
X167425000Y-74000000D03*
%TD*%
D35*
%TO.C,C1*%
X204000000Y-88862500D03*
X204000000Y-87137500D03*
%TD*%
D33*
%TO.C,C14*%
X95462500Y-74000000D03*
X97537500Y-74000000D03*
%TD*%
D34*
%TO.C,R61*%
X139575000Y-81500000D03*
X137500000Y-81500000D03*
%TD*%
D33*
%TO.C,R47*%
X120925000Y-95500000D03*
X123000000Y-95500000D03*
%TD*%
%TO.C,R60*%
X129425000Y-81500000D03*
X131500000Y-81500000D03*
%TD*%
D36*
%TO.C,R66*%
X95500000Y-86037500D03*
X95500000Y-83962500D03*
%TD*%
D37*
%TO.C,R13*%
X213162500Y-85500000D03*
X211337500Y-85500000D03*
%TD*%
D33*
%TO.C,C12*%
X133462500Y-74000000D03*
X135537500Y-74000000D03*
%TD*%
D34*
%TO.C,R77*%
X70575000Y-82000000D03*
X68500000Y-82000000D03*
%TD*%
D33*
%TO.C,C16*%
X66500000Y-74000000D03*
X68575000Y-74000000D03*
%TD*%
%TO.C,R64*%
X129462500Y-74000000D03*
X131537500Y-74000000D03*
%TD*%
%TO.C,R78*%
X62500000Y-74000000D03*
X64575000Y-74000000D03*
%TD*%
%TO.C,R52*%
X120925000Y-122500000D03*
X123000000Y-122500000D03*
%TD*%
%TO.C,C6*%
X163500000Y-74000000D03*
X165575000Y-74000000D03*
%TD*%
D37*
%TO.C,R14*%
X213412500Y-91250000D03*
X211587500Y-91250000D03*
%TD*%
D34*
%TO.C,R79*%
X72500000Y-74000000D03*
X70425000Y-74000000D03*
%TD*%
D33*
%TO.C,C13*%
X95462500Y-82000000D03*
X97537500Y-82000000D03*
%TD*%
%TO.C,R49*%
X120925000Y-131500000D03*
X123000000Y-131500000D03*
%TD*%
%TO.C,R48*%
X120925000Y-113500000D03*
X123000000Y-113500000D03*
%TD*%
D34*
%TO.C,R65*%
X139575000Y-74000000D03*
X137500000Y-74000000D03*
%TD*%
D33*
%TO.C,C15*%
X64387500Y-82000000D03*
X66462500Y-82000000D03*
%TD*%
D36*
%TO.C,R72*%
X94000000Y-78037500D03*
X94000000Y-75962500D03*
%TD*%
D33*
%TO.C,R51*%
X120925000Y-104500000D03*
X123000000Y-104500000D03*
%TD*%
%TO.C,R50*%
X120925000Y-149500000D03*
X123000000Y-149500000D03*
%TD*%
%TO.C,R54*%
X159500000Y-74000000D03*
X161575000Y-74000000D03*
%TD*%
D34*
%TO.C,R67*%
X101575000Y-82000000D03*
X99500000Y-82000000D03*
%TD*%
M02*
