M48
; DRILL file {KiCad 8.0.5} date 2024-09-21T15:40:08-0700
; FORMAT={-:-/ absolute / inch / decimal}
; #@! TF.CreationDate,2024-09-21T15:40:08-07:00
; #@! TF.GenerationSoftware,Kicad,Pcbnew,8.0.5
; #@! TF.FileFunction,Plated,1,2,PTH
FMAT,2
INCH
; #@! TA.AperFunction,Plated,PTH,ViaDrill
T1C0.0157
; #@! TA.AperFunction,Plated,PTH,ComponentDrill
T2C0.0236
; #@! TA.AperFunction,Plated,PTH,ComponentDrill
T3C0.0300
; #@! TA.AperFunction,Plated,PTH,ComponentDrill
T4C0.0315
; #@! TA.AperFunction,Plated,PTH,ComponentDrill
T5C0.0374
; #@! TA.AperFunction,Plated,PTH,ComponentDrill
T6C0.0394
; #@! TA.AperFunction,Plated,PTH,ComponentDrill
T7C0.0402
; #@! TA.AperFunction,Plated,PTH,ComponentDrill
T8C0.0421
; #@! TA.AperFunction,Plated,PTH,ComponentDrill
T9C0.0591
; #@! TA.AperFunction,Plated,PTH,ComponentDrill
T10C0.1772
%
G90
G05
T1
X2.2638Y-3.7402
X2.2638Y-4.1535
X2.2638Y-4.5276
X2.2638Y-4.9213
X2.2638Y-5.315
X2.2638Y-5.7283
X2.4016Y-3.0512
X2.4213Y-3.2972
X2.5Y-2.9921
X2.6378Y-3.3858
X2.6378Y-6.437
X2.6772Y-6.2205
X3.0315Y-3.8189
X3.0506Y-6.0944
X3.0694Y-3.9961
X3.0723Y-4.3701
X3.0906Y-4.1535
X3.1004Y-6.1417
X3.1102Y-5.3248
X3.1201Y-3.7598
X3.1201Y-4.5472
X3.1299Y-4.3012
X3.1299Y-4.7835
X3.1299Y-4.8917
X3.1299Y-5.8465
X3.1299Y-5.9547
X3.1398Y-3.5138
X3.1398Y-3.6319
X3.1398Y-4.6949
X3.1398Y-5.1673
X3.1398Y-5.4724
X3.1398Y-5.5807
X3.1398Y-5.7283
X3.1496Y-5.0689
X3.1594Y-6.1319
X3.3661Y-3.6811
X3.4055Y-6.4764
X3.4941Y-3.2677
X3.4941Y-3.4154
X3.4941Y-3.4547
X3.5039Y-2.8543
X3.5116Y-3.3663
X3.5138Y-6.0138
X3.5335Y-3.248
X3.5531Y-6.0039
X3.5553Y-3.2808
X3.8189Y-3.4252
X3.8386Y-6.1417
X3.9567Y-5.7677
X4.0354Y-3.5925
X4.065Y-3.622
X4.2913Y-2.9429
X4.439Y-2.9331
X4.465Y-2.9626
X4.5374Y-4.8524
X4.5571Y-3.7205
X4.6654Y-3.5138
X4.685Y-3.6614
X4.7146Y-5.2461
X4.7244Y-6.224
X4.7638Y-3.8386
X4.7933Y-5.0492
X4.8031Y-3.6122
X4.8031Y-3.6614
X4.8031Y-4.3307
X4.8031Y-4.9213
X4.813Y-4.1831
X4.8228Y-4.5669
X4.872Y-4.0354
X4.9016Y-5.4331
X4.9114Y-5.2264
X4.9213Y-5.5315
X4.9228Y-3.9847
X4.9311Y-3.8287
X4.9311Y-5.2854
X4.9409Y-5.0984
X4.9508Y-4.439
X4.9508Y-4.8327
X4.9705Y-4.4783
X4.9803Y-4.1929
X4.9803Y-4.9606
X4.9902Y-3.6713
X4.9902Y-5.2461
X5.0Y-3.189
X5.0197Y-4.8622
X5.0295Y-2.9626
X5.0394Y-4.2913
X5.1945Y-5.337
X5.2165Y-5.5512
X5.3051Y-4.7835
X5.315Y-5.4331
X5.3199Y-4.4734
X5.3248Y-4.3996
X5.3248Y-5.0098
X5.3346Y-4.1929
X5.3346Y-4.252
X5.3642Y-3.9173
X5.5512Y-3.9173
X5.7087Y-3.7795
X5.8661Y-3.5531
X5.876Y-3.3957
X6.1614Y-2.9134
X6.2205Y-2.815
X6.5945Y-3.2087
X6.8799Y-5.6988
X6.9488Y-5.7087
X6.9587Y-6.0827
X6.9882Y-3.7992
X6.9943Y-5.7541
X7.0669Y-5.7382
X7.0866Y-3.0709
X7.126Y-4.1535
X7.126Y-4.4094
X7.1457Y-3.8484
X7.1555Y-3.7697
X7.1654Y-5.4724
X7.1937Y-3.4142
X7.1949Y-3.8681
X7.1949Y-3.9173
X7.2146Y-3.3661
X7.2835Y-5.9055
X7.3031Y-5.0591
X7.3031Y-5.2756
X7.3967Y-4.0404
X7.4114Y-3.5039
X7.4114Y-3.5433
X7.4126Y-3.5839
X7.4213Y-3.6909
X7.4311Y-3.4252
X7.4311Y-3.7992
X7.4409Y-4.065
X7.4606Y-3.0118
X7.5492Y-5.6988
X7.5591Y-5.6371
X7.5984Y-6.2106
X7.6181Y-3.1791
X7.6181Y-3.2382
X7.6378Y-5.6988
X7.6378Y-5.8465
X7.6575Y-6.3287
X7.687Y-3.7598
X7.6969Y-2.7953
X7.6969Y-3.3268
X7.7067Y-5.6693
X7.7215Y-3.8829
X7.7362Y-6.1909
X7.7756Y-3.8091
X7.7756Y-6.3386
X7.8051Y-6.0827
X7.8346Y-3.2185
X7.8346Y-4.9902
X7.8445Y-3.5039
X7.8543Y-4.8425
X7.8543Y-5.8858
X7.874Y-3.1791
X7.8937Y-5.5315
X7.9528Y-4.1732
X7.9724Y-3.4154
X8.0315Y-3.3661
X8.0315Y-3.4985
X8.0315Y-5.0984
X8.0512Y-5.315
X8.0906Y-3.0906
X8.1102Y-4.6457
X8.1102Y-5.9843
X8.1496Y-4.685
X8.1791Y-3.4646
X8.189Y-4.626
X8.1988Y-3.3858
X8.2087Y-3.6516
X8.2283Y-5.9449
X8.3366Y-5.0
X8.3661Y-2.874
X8.376Y-5.5217
X8.3858Y-3.5236
X8.3957Y-3.4449
X8.3957Y-4.8031
X8.4838Y-3.5039
X8.4941Y-3.435
X8.4941Y-3.563
X8.5039Y-6.063
X8.5433Y-5.3543
X8.622Y-4.6457
X8.6417Y-3.4941
X8.6417Y-4.685
X8.6811Y-5.0787
X8.7008Y-6.0039
X8.7205Y-4.626
X8.7992Y-5.315
X8.7992Y-6.1614
X8.8484Y-5.502
T3
X3.2276Y-3.723
X3.2276Y-3.823
X3.2276Y-3.923
X3.2276Y-4.023
X3.2276Y-4.123
X3.2276Y-4.223
X3.2276Y-4.323
X3.2276Y-4.423
X3.2276Y-4.523
X3.2276Y-4.623
X3.2276Y-4.723
X3.2276Y-4.823
X3.2276Y-4.923
X3.2276Y-5.023
X3.2276Y-5.123
X3.2276Y-5.223
X3.2276Y-5.323
X3.2276Y-5.423
X3.2276Y-5.523
X3.2276Y-5.623
X3.2276Y-5.723
X3.2276Y-5.823
X3.2276Y-5.923
X3.2276Y-6.023
X3.8276Y-3.723
X3.8276Y-3.823
X3.8276Y-3.923
X3.8276Y-4.023
X3.8276Y-4.123
X3.8276Y-4.223
X3.8276Y-4.323
X3.8276Y-4.423
X3.8276Y-4.523
X3.8276Y-4.623
X3.8276Y-4.723
X3.8276Y-4.823
X3.8276Y-4.923
X3.8276Y-5.023
X3.8276Y-5.123
X3.8276Y-5.223
X3.8276Y-5.323
X3.8276Y-5.423
X3.8276Y-5.523
X3.8276Y-5.623
X3.8276Y-5.723
X3.8276Y-5.823
X3.8276Y-5.923
X3.8276Y-6.023
T4
X4.1535Y-5.1969
X4.1535Y-5.4979
X4.1535Y-5.8107
X4.1535Y-6.1177
X4.2323Y-5.1969
X4.2323Y-5.4979
X4.2323Y-5.8107
X4.2323Y-6.1177
X4.311Y-5.1969
X4.311Y-5.4979
X4.311Y-5.8107
X4.311Y-6.1177
X7.8543Y-4.685
X7.9331Y-4.4488
X7.9331Y-4.685
X8.0118Y-4.4488
X8.0906Y-4.4488
X8.2015Y-5.6299
X8.2999Y-5.6299
X8.3661Y-4.6654
X8.4449Y-4.6654
X8.5039Y-4.4488
X8.5827Y-4.4488
X8.6614Y-4.4488
X8.6739Y-5.6299
X8.7723Y-5.6299
T5
X2.2638Y-3.5433
X2.2638Y-3.9252
X2.2638Y-4.3189
X2.2638Y-4.7126
X2.2638Y-5.0984
X2.2638Y-5.4921
X2.2638Y-5.8858
X2.3622Y-3.5433
X2.3622Y-3.9252
X2.3622Y-4.3189
X2.3622Y-4.7126
X2.3622Y-5.0984
X2.3622Y-5.4921
X2.3622Y-5.8858
X2.4606Y-3.5433
X2.4606Y-3.9252
X2.4606Y-4.3189
X2.4606Y-4.7126
X2.4606Y-5.0984
X2.4606Y-5.4921
X2.4606Y-5.8858
X2.5591Y-3.5433
X2.5591Y-3.9252
X2.5591Y-4.3189
X2.5591Y-4.7126
X2.5591Y-5.0984
X2.5591Y-5.4921
X2.5591Y-5.8858
X2.5787Y-2.7953
X2.5787Y-3.1102
X2.6575Y-3.5433
X2.6575Y-3.9252
X2.6575Y-4.3189
X2.6575Y-4.7126
X2.6575Y-5.0984
X2.6575Y-5.4921
X2.6575Y-5.8858
X2.6772Y-2.7953
X2.6772Y-3.1102
X2.7756Y-2.7953
X2.7756Y-3.1102
X2.874Y-2.7953
X2.874Y-3.1102
X2.9724Y-2.7953
X2.9724Y-3.1102
X3.0709Y-2.7953
X3.0709Y-3.1102
X3.1693Y-2.7953
X3.1693Y-3.1102
X3.2677Y-2.7953
X3.2677Y-3.1102
X3.7992Y-2.7953
X3.7992Y-3.1102
X3.8976Y-2.7953
X3.8976Y-3.1102
X3.9961Y-2.7953
X3.9961Y-3.1102
X4.0945Y-2.7953
X4.0945Y-3.1102
X4.1339Y-4.4488
X4.1339Y-4.8425
X4.1339Y-3.6614
X4.1339Y-4.0551
X4.1929Y-2.7953
X4.1929Y-3.1102
X4.2323Y-4.4488
X4.2323Y-4.8425
X4.2323Y-3.6614
X4.2323Y-4.0551
X4.2913Y-2.7953
X4.2913Y-3.1102
X4.3307Y-4.4488
X4.3307Y-4.8425
X4.3307Y-3.6614
X4.3307Y-4.0551
X4.3898Y-2.7953
X4.3898Y-3.1102
X4.4882Y-2.7953
X4.4882Y-3.1102
X5.2953Y-2.7953
X5.2953Y-3.1102
X5.3937Y-2.7953
X5.3937Y-3.1102
X5.4921Y-2.7953
X5.4921Y-3.1102
X5.5906Y-2.7953
X5.5906Y-3.1102
X5.689Y-2.7953
X5.689Y-3.1102
X5.7874Y-2.7953
X5.7874Y-3.1102
X5.8858Y-2.7953
X5.8858Y-3.1102
X5.9843Y-2.7953
X5.9843Y-3.1102
X6.4764Y-2.7953
X6.5748Y-2.7953
X6.6732Y-2.7953
X6.7717Y-2.7953
X6.8701Y-2.7953
X6.9685Y-2.7953
X7.0669Y-2.7953
X7.1654Y-2.7953
T6
X4.626Y-3.6024
X4.626Y-3.9567
X4.626Y-4.311
X4.626Y-4.6654
X4.626Y-5.0197
X4.626Y-5.3543
X4.626Y-5.7283
X4.7244Y-3.6024
X4.7244Y-3.9567
X4.7244Y-4.311
X4.7244Y-4.6654
X4.7244Y-5.0197
X4.7244Y-5.3543
X4.7244Y-5.7283
T7
X5.1236Y-3.4661
X5.1236Y-3.5661
X5.1236Y-3.6661
X5.1236Y-3.7661
X5.1236Y-3.8661
X5.1236Y-3.9661
X5.1236Y-4.0661
X5.1236Y-4.1661
X5.1236Y-4.2661
X5.1236Y-4.3661
X5.1236Y-4.4661
X5.1236Y-4.5661
X5.1236Y-4.6661
X5.1236Y-4.7661
X5.1236Y-4.8661
X5.1236Y-4.9661
X5.1236Y-5.0661
X5.1236Y-5.1661
X5.1236Y-5.2661
X5.2236Y-3.4661
X5.2236Y-3.5661
X5.2236Y-3.6661
X5.2236Y-3.7661
X5.2236Y-3.8661
X5.2236Y-3.9661
X5.2236Y-4.0661
X5.2236Y-4.1661
X5.2236Y-4.2661
X5.2236Y-4.3661
X5.2236Y-4.4661
X5.2236Y-4.5661
X5.2236Y-4.6661
X5.2236Y-4.7661
X5.2236Y-4.8661
X5.2236Y-4.9661
X5.2236Y-5.0661
X5.2236Y-5.1661
X5.2236Y-5.2661
X7.5236Y-3.4661
X7.5236Y-3.5661
X7.5236Y-3.6661
X7.5236Y-3.7661
X7.5236Y-3.8661
X7.5236Y-3.9661
X7.5236Y-4.0661
X7.5236Y-4.1661
X7.5236Y-4.2661
X7.5236Y-4.3661
X7.5236Y-4.4661
X7.5236Y-4.5661
X7.5236Y-4.6661
X7.5236Y-4.7661
X7.5236Y-4.8661
X7.5236Y-4.9661
X7.5236Y-5.0661
X7.5236Y-5.1661
X7.5236Y-5.2661
X7.6236Y-3.4661
X7.6236Y-3.5661
X7.6236Y-3.6661
X7.6236Y-3.7661
X7.6236Y-3.8661
X7.6236Y-3.9661
X7.6236Y-4.0661
X7.6236Y-4.1661
X7.6236Y-4.2661
X7.6236Y-4.3661
X7.6236Y-4.4661
X7.6236Y-4.5661
X7.6236Y-4.6661
X7.6236Y-4.7661
X7.6236Y-4.8661
X7.6236Y-4.9661
X7.6236Y-5.0661
X7.6236Y-5.1661
X7.6236Y-5.2661
T8
X5.4236Y-3.4661
X5.4236Y-3.5661
X5.4236Y-3.6661
X5.4236Y-3.7661
X5.4236Y-3.8661
X5.4236Y-3.9661
X5.4236Y-4.0661
X5.4236Y-4.1661
X5.4236Y-4.326
X5.4236Y-4.426
X5.4236Y-4.526
X5.4236Y-4.626
X5.4236Y-4.726
X5.4236Y-4.826
X5.4236Y-4.926
X5.4236Y-5.026
X5.4236Y-5.126
X5.4236Y-5.226
X7.3236Y-3.4661
X7.3236Y-3.5661
X7.3236Y-3.6661
X7.3236Y-3.7661
X7.3236Y-3.8661
X7.3236Y-3.9661
X7.3236Y-4.1661
X7.3236Y-4.2661
X7.3236Y-4.3661
X7.3236Y-4.4661
X7.3236Y-4.5661
X7.3236Y-4.6661
X7.3236Y-4.7661
X7.3236Y-4.8661
T9
X4.0709Y-5.1969
X4.0709Y-5.4979
X4.0709Y-5.8107
X4.0709Y-6.1177
X4.3937Y-5.1969
X4.3937Y-5.4979
X4.3937Y-5.8107
X4.3937Y-6.1177
X7.8504Y-4.4488
X8.1732Y-4.4488
X8.4213Y-4.4488
X8.7441Y-4.4488
T10
X8.378Y-4.0945
X8.6614Y-4.0945
T2
G00X8.5736Y-3.3169
M15
G01X8.6169Y-3.3169
M16
G05
G00X8.5736Y-3.6571
M15
G01X8.6169Y-3.6571
M16
G05
G00X8.7441Y-3.3169
M15
G01X8.7756Y-3.3169
M16
G05
G00X8.7441Y-3.6571
M15
G01X8.7756Y-3.6571
M16
G05
M30
