%TF.GenerationSoftware,KiCad,Pcbnew,9.0.0*%
%TF.CreationDate,2025-03-17T17:34:53-07:00*%
%TF.ProjectId,Motor_Joint_Splitter,4d6f746f-725f-44a6-9f69-6e745f53706c,rev?*%
%TF.SameCoordinates,Original*%
%TF.FileFunction,Soldermask,Top*%
%TF.FilePolarity,Negative*%
%FSLAX46Y46*%
G04 Gerber Fmt 4.6, Leading zero omitted, Abs format (unit mm)*
G04 Created by KiCad (PCBNEW 9.0.0) date 2025-03-17 17:34:53*
%MOMM*%
%LPD*%
G01*
G04 APERTURE LIST*
G04 Aperture macros list*
%AMRoundRect*
0 Rectangle with rounded corners*
0 $1 Rounding radius*
0 $2 $3 $4 $5 $6 $7 $8 $9 X,Y pos of 4 corners*
0 Add a 4 corners polygon primitive as box body*
4,1,4,$2,$3,$4,$5,$6,$7,$8,$9,$2,$3,0*
0 Add four circle primitives for the rounded corners*
1,1,$1+$1,$2,$3*
1,1,$1+$1,$4,$5*
1,1,$1+$1,$6,$7*
1,1,$1+$1,$8,$9*
0 Add four rect primitives between the rounded corners*
20,1,$1+$1,$2,$3,$4,$5,0*
20,1,$1+$1,$4,$5,$6,$7,0*
20,1,$1+$1,$6,$7,$8,$9,0*
20,1,$1+$1,$8,$9,$2,$3,0*%
G04 Aperture macros list end*
%ADD10C,3.600000*%
%ADD11C,5.700000*%
%ADD12C,5.600000*%
%ADD13RoundRect,0.250000X-1.800000X1.330000X-1.800000X-1.330000X1.800000X-1.330000X1.800000X1.330000X0*%
%ADD14O,4.100000X3.160000*%
%ADD15C,1.270000*%
%ADD16C,3.810000*%
%ADD17RoundRect,0.250000X1.800000X-1.330000X1.800000X1.330000X-1.800000X1.330000X-1.800000X-1.330000X0*%
%ADD18RoundRect,0.250000X0.600000X0.725000X-0.600000X0.725000X-0.600000X-0.725000X0.600000X-0.725000X0*%
%ADD19O,1.700000X1.950000*%
%ADD20RoundRect,0.250000X-0.600000X-0.725000X0.600000X-0.725000X0.600000X0.725000X-0.600000X0.725000X0*%
G04 APERTURE END LIST*
D10*
%TO.C,H4*%
X184000000Y-101000000D03*
D11*
X184000000Y-101000000D03*
%TD*%
D10*
%TO.C,H3*%
X154000000Y-64000000D03*
D12*
X154000000Y-64000000D03*
%TD*%
D13*
%TO.C,J5*%
X176500000Y-63462300D03*
D14*
X176500000Y-67422300D03*
X176500000Y-71382300D03*
%TD*%
D15*
%TO.C,J6*%
X173272600Y-86582300D03*
X170732600Y-85312300D03*
X173272600Y-84042300D03*
X170732600Y-82772300D03*
X173272600Y-81502300D03*
X170732600Y-80232300D03*
X173272600Y-78962300D03*
X170732600Y-77692300D03*
D16*
X179622600Y-87852300D03*
X179622600Y-76422300D03*
%TD*%
D17*
%TO.C,J3*%
X161155000Y-100842300D03*
D14*
X161155000Y-96882300D03*
X161155000Y-92922300D03*
%TD*%
D15*
%TO.C,J4*%
X164460000Y-77690000D03*
X167000000Y-78960000D03*
X164460000Y-80230000D03*
X167000000Y-81500000D03*
X164460000Y-82770000D03*
X167000000Y-84040000D03*
X164460000Y-85310000D03*
X167000000Y-86580000D03*
D16*
X158110000Y-76420000D03*
X158110000Y-87850000D03*
%TD*%
D18*
%TO.C,J7*%
X177500000Y-100422300D03*
D19*
X175000000Y-100422300D03*
X172500000Y-100422300D03*
X170000000Y-100422300D03*
X167500000Y-100422300D03*
%TD*%
D20*
%TO.C,J2*%
X153250000Y-71000000D03*
D19*
X155750000Y-71000000D03*
X158250000Y-71000000D03*
X160750000Y-71000000D03*
X163250000Y-71000000D03*
X165750000Y-71000000D03*
X168250000Y-71000000D03*
X170750000Y-71000000D03*
%TD*%
D20*
%TO.C,J8*%
X160155000Y-63922300D03*
D19*
X162655000Y-63922300D03*
X165155000Y-63922300D03*
X167655000Y-63922300D03*
X170155000Y-63922300D03*
%TD*%
D18*
%TO.C,J1*%
X184750000Y-93225000D03*
D19*
X182250000Y-93225000D03*
X179750000Y-93225000D03*
X177250000Y-93225000D03*
X174750000Y-93225000D03*
X172250000Y-93225000D03*
X169750000Y-93225000D03*
X167250000Y-93225000D03*
%TD*%
M02*
