M48
; DRILL file {KiCad 9.0.0} date 2025-03-17T17:34:54-0700
; FORMAT={-:-/ absolute / inch / decimal}
; #@! TF.CreationDate,2025-03-17T17:34:54-07:00
; #@! TF.GenerationSoftware,Kicad,Pcbnew,9.0.0
; #@! TF.FileFunction,Plated,1,2,PTH
FMAT,2
INCH
; #@! TA.AperFunction,Plated,PTH,ViaDrill
T1C0.0118
; #@! TA.AperFunction,Plated,PTH,ComponentDrill
T2C0.0300
; #@! TA.AperFunction,Plated,PTH,ComponentDrill
T3C0.0374
; #@! TA.AperFunction,Plated,PTH,ComponentDrill
T4C0.0669
; #@! TA.AperFunction,Plated,PTH,ComponentDrill
T5C0.1260
; #@! TA.AperFunction,Plated,PTH,ComponentDrill
T6C0.1300
%
G90
G05
T1
X6.1024Y-3.3465
X6.1024Y-3.5433
X6.1024Y-3.7402
X6.1024Y-3.937
X6.2697Y-2.4213
X6.2795Y-2.628
X6.3583Y-3.3465
X6.3583Y-3.5433
X6.4173Y-2.9528
X6.5748Y-2.9528
X6.5748Y-3.0315
X6.6142Y-2.7264
X6.7126Y-2.7264
X6.7126Y-3.4941
X6.7224Y-2.9232
X6.7618Y-2.9921
X6.8701Y-3.4941
X6.8898Y-2.9528
X6.8898Y-3.1496
X6.9685Y-3.8386
X7.0866Y-2.5591
X7.0866Y-2.7559
X7.0866Y-3.1496
X7.0866Y-4.065
X7.2835Y-2.5591
X7.2835Y-2.7559
X7.2835Y-2.9528
X7.2835Y-3.1496
T2
X6.4748Y-3.0587
X6.4748Y-3.1587
X6.4748Y-3.2587
X6.4748Y-3.3587
X6.5748Y-3.1087
X6.5748Y-3.2087
X6.5748Y-3.3087
X6.5748Y-3.4087
X6.7218Y-3.0588
X6.7218Y-3.1588
X6.7218Y-3.2588
X6.7218Y-3.3588
X6.8218Y-3.1088
X6.8218Y-3.2088
X6.8218Y-3.3088
X6.8218Y-3.4088
T3
X6.0335Y-2.7953
X6.1319Y-2.7953
X6.2303Y-2.7953
X6.3053Y-2.5166
X6.3287Y-2.7953
X6.4037Y-2.5166
X6.4272Y-2.7953
X6.5022Y-2.5166
X6.5256Y-2.7953
X6.5846Y-3.6703
X6.5945Y-3.9536
X6.6006Y-2.5166
X6.624Y-2.7953
X6.6831Y-3.6703
X6.6929Y-3.9536
X6.699Y-2.5166
X6.7224Y-2.7953
X6.7815Y-3.6703
X6.7913Y-3.9536
X6.8799Y-3.6703
X6.8898Y-3.9536
X6.9783Y-3.6703
X6.9882Y-3.9536
X7.0768Y-3.6703
X7.1752Y-3.6703
X7.2736Y-3.6703
T4
X6.3447Y-3.6584
X6.3447Y-3.8143
X6.3447Y-3.9702
X6.9488Y-2.4985
X6.9488Y-2.6544
X6.9488Y-2.8103
T5
X6.063Y-2.5197
X7.2441Y-3.9764
T6
X6.2248Y-3.0087
X6.2248Y-3.4587
X7.0718Y-3.0088
X7.0718Y-3.4588
M30
