%TF.GenerationSoftware,KiCad,Pcbnew,9.0.0*%
%TF.CreationDate,2025-03-17T17:34:53-07:00*%
%TF.ProjectId,Motor_Joint_Splitter,4d6f746f-725f-44a6-9f69-6e745f53706c,rev?*%
%TF.SameCoordinates,Original*%
%TF.FileFunction,Copper,L1,Top*%
%TF.FilePolarity,Positive*%
%FSLAX46Y46*%
G04 Gerber Fmt 4.6, Leading zero omitted, Abs format (unit mm)*
G04 Created by KiCad (PCBNEW 9.0.0) date 2025-03-17 17:34:53*
%MOMM*%
%LPD*%
G01*
G04 APERTURE LIST*
G04 Aperture macros list*
%AMRoundRect*
0 Rectangle with rounded corners*
0 $1 Rounding radius*
0 $2 $3 $4 $5 $6 $7 $8 $9 X,Y pos of 4 corners*
0 Add a 4 corners polygon primitive as box body*
4,1,4,$2,$3,$4,$5,$6,$7,$8,$9,$2,$3,0*
0 Add four circle primitives for the rounded corners*
1,1,$1+$1,$2,$3*
1,1,$1+$1,$4,$5*
1,1,$1+$1,$6,$7*
1,1,$1+$1,$8,$9*
0 Add four rect primitives between the rounded corners*
20,1,$1+$1,$2,$3,$4,$5,0*
20,1,$1+$1,$4,$5,$6,$7,0*
20,1,$1+$1,$6,$7,$8,$9,0*
20,1,$1+$1,$8,$9,$2,$3,0*%
G04 Aperture macros list end*
%TA.AperFunction,ComponentPad*%
%ADD10C,3.600000*%
%TD*%
%TA.AperFunction,ConnectorPad*%
%ADD11C,5.700000*%
%TD*%
%TA.AperFunction,ConnectorPad*%
%ADD12C,5.600000*%
%TD*%
%TA.AperFunction,ComponentPad*%
%ADD13RoundRect,0.250000X-1.800000X1.330000X-1.800000X-1.330000X1.800000X-1.330000X1.800000X1.330000X0*%
%TD*%
%TA.AperFunction,ComponentPad*%
%ADD14O,4.100000X3.160000*%
%TD*%
%TA.AperFunction,ComponentPad*%
%ADD15C,1.270000*%
%TD*%
%TA.AperFunction,ComponentPad*%
%ADD16C,3.810000*%
%TD*%
%TA.AperFunction,ComponentPad*%
%ADD17RoundRect,0.250000X1.800000X-1.330000X1.800000X1.330000X-1.800000X1.330000X-1.800000X-1.330000X0*%
%TD*%
%TA.AperFunction,ComponentPad*%
%ADD18RoundRect,0.250000X0.600000X0.725000X-0.600000X0.725000X-0.600000X-0.725000X0.600000X-0.725000X0*%
%TD*%
%TA.AperFunction,ComponentPad*%
%ADD19O,1.700000X1.950000*%
%TD*%
%TA.AperFunction,ComponentPad*%
%ADD20RoundRect,0.250000X-0.600000X-0.725000X0.600000X-0.725000X0.600000X0.725000X-0.600000X0.725000X0*%
%TD*%
%TA.AperFunction,ViaPad*%
%ADD21C,0.600000*%
%TD*%
%TA.AperFunction,Conductor*%
%ADD22C,0.500000*%
%TD*%
%TA.AperFunction,Conductor*%
%ADD23C,0.200000*%
%TD*%
G04 APERTURE END LIST*
D10*
%TO.P,H4,1,1*%
%TO.N,GND*%
X184000000Y-101000000D03*
D11*
X184000000Y-101000000D03*
%TD*%
D10*
%TO.P,H3,1,1*%
%TO.N,GND*%
X154000000Y-64000000D03*
D12*
X154000000Y-64000000D03*
%TD*%
D13*
%TO.P,J5,1,Pin_1*%
%TO.N,/Sin1*%
X176500000Y-63462300D03*
D14*
%TO.P,J5,2,Pin_2*%
%TO.N,/Cos1*%
X176500000Y-67422300D03*
%TO.P,J5,3,Pin_3*%
%TO.N,GND*%
X176500000Y-71382300D03*
%TD*%
D15*
%TO.P,J6,1,1*%
%TO.N,+5V*%
X173272600Y-86582300D03*
%TO.P,J6,2,2*%
%TO.N,/C_A1*%
X170732600Y-85312300D03*
%TO.P,J6,3,3*%
%TO.N,/C_B1*%
X173272600Y-84042300D03*
%TO.P,J6,4,4*%
%TO.N,/C_I1*%
X170732600Y-82772300D03*
%TO.P,J6,5,5*%
%TO.N,/SEA_I1*%
X173272600Y-81502300D03*
%TO.P,J6,6,6*%
%TO.N,/SEA_A1*%
X170732600Y-80232300D03*
%TO.P,J6,7,7*%
%TO.N,/SEA_B1*%
X173272600Y-78962300D03*
%TO.P,J6,8,8*%
%TO.N,GND*%
X170732600Y-77692300D03*
D16*
%TO.P,J6,9*%
%TO.N,N/C*%
X179622600Y-87852300D03*
%TO.P,J6,10*%
X179622600Y-76422300D03*
%TD*%
D17*
%TO.P,J3,1,Pin_1*%
%TO.N,/Sin0*%
X161155000Y-100842300D03*
D14*
%TO.P,J3,2,Pin_2*%
%TO.N,/Cos0*%
X161155000Y-96882300D03*
%TO.P,J3,3,Pin_3*%
%TO.N,GND*%
X161155000Y-92922300D03*
%TD*%
D15*
%TO.P,J4,1,1*%
%TO.N,+5V*%
X164460000Y-77690000D03*
%TO.P,J4,2,2*%
%TO.N,/C_A0*%
X167000000Y-78960000D03*
%TO.P,J4,3,3*%
%TO.N,/C_B0*%
X164460000Y-80230000D03*
%TO.P,J4,4,4*%
%TO.N,/C_I0*%
X167000000Y-81500000D03*
%TO.P,J4,5,5*%
%TO.N,/SEA_I0*%
X164460000Y-82770000D03*
%TO.P,J4,6,6*%
%TO.N,/SEA_A0*%
X167000000Y-84040000D03*
%TO.P,J4,7,7*%
%TO.N,/SEA_B0*%
X164460000Y-85310000D03*
%TO.P,J4,8,8*%
%TO.N,GND*%
X167000000Y-86580000D03*
D16*
%TO.P,J4,9*%
%TO.N,N/C*%
X158110000Y-76420000D03*
%TO.P,J4,10*%
X158110000Y-87850000D03*
%TD*%
D18*
%TO.P,J7,1,Pin_1*%
%TO.N,GND*%
X177500000Y-100422300D03*
D19*
%TO.P,J7,2,Pin_2*%
%TO.N,/SEA_I0*%
X175000000Y-100422300D03*
%TO.P,J7,3,Pin_3*%
%TO.N,/SEA_A0*%
X172500000Y-100422300D03*
%TO.P,J7,4,Pin_4*%
%TO.N,+5V*%
X170000000Y-100422300D03*
%TO.P,J7,5,Pin_5*%
%TO.N,/SEA_B0*%
X167500000Y-100422300D03*
%TD*%
D20*
%TO.P,J2,1,Pin_1*%
%TO.N,/Sin1*%
X153250000Y-71000000D03*
D19*
%TO.P,J2,2,Pin_2*%
%TO.N,GND*%
X155750000Y-71000000D03*
%TO.P,J2,3,Pin_3*%
%TO.N,/Cos1*%
X158250000Y-71000000D03*
%TO.P,J2,4,Pin_4*%
%TO.N,+5V*%
X160750000Y-71000000D03*
%TO.P,J2,5,Pin_5*%
%TO.N,GND*%
X163250000Y-71000000D03*
%TO.P,J2,6,Pin_6*%
%TO.N,/C_A1*%
X165750000Y-71000000D03*
%TO.P,J2,7,Pin_7*%
%TO.N,/C_B1*%
X168250000Y-71000000D03*
%TO.P,J2,8,Pin_8*%
%TO.N,/C_I1*%
X170750000Y-71000000D03*
%TD*%
D20*
%TO.P,J8,1,Pin_1*%
%TO.N,GND*%
X160155000Y-63922300D03*
D19*
%TO.P,J8,2,Pin_2*%
%TO.N,/SEA_I1*%
X162655000Y-63922300D03*
%TO.P,J8,3,Pin_3*%
%TO.N,/SEA_A1*%
X165155000Y-63922300D03*
%TO.P,J8,4,Pin_4*%
%TO.N,+5V*%
X167655000Y-63922300D03*
%TO.P,J8,5,Pin_5*%
%TO.N,/SEA_B1*%
X170155000Y-63922300D03*
%TD*%
D18*
%TO.P,J1,1,Pin_1*%
%TO.N,/Sin0*%
X184750000Y-93225000D03*
D19*
%TO.P,J1,2,Pin_2*%
%TO.N,GND*%
X182250000Y-93225000D03*
%TO.P,J1,3,Pin_3*%
%TO.N,/Cos0*%
X179750000Y-93225000D03*
%TO.P,J1,4,Pin_4*%
%TO.N,+5V*%
X177250000Y-93225000D03*
%TO.P,J1,5,Pin_5*%
%TO.N,GND*%
X174750000Y-93225000D03*
%TO.P,J1,6,Pin_6*%
%TO.N,/C_A0*%
X172250000Y-93225000D03*
%TO.P,J1,7,Pin_7*%
%TO.N,/C_B0*%
X169750000Y-93225000D03*
%TO.P,J1,8,Pin_8*%
%TO.N,/C_I0*%
X167250000Y-93225000D03*
%TD*%
D21*
%TO.N,GND*%
X155000000Y-95000000D03*
X180000000Y-70000000D03*
X170750000Y-74250000D03*
X175000000Y-75000000D03*
X161500000Y-90000000D03*
X168000000Y-69250000D03*
X161500000Y-85000000D03*
X185000000Y-80000000D03*
X155000000Y-90000000D03*
X171750000Y-76000000D03*
X167000000Y-75000000D03*
X163000000Y-75000000D03*
X170500000Y-69250000D03*
X185000000Y-75000000D03*
X174500000Y-88750000D03*
X170500000Y-88750000D03*
X185000000Y-70000000D03*
X155000000Y-100000000D03*
X185000000Y-65000000D03*
X180000000Y-80000000D03*
X155000000Y-85000000D03*
X175000000Y-80000000D03*
X159500000Y-66750000D03*
X180000000Y-65000000D03*
X167000000Y-77000000D03*
X177000000Y-97500000D03*
%TO.N,+5V*%
X180000000Y-103250000D03*
X159250000Y-61500000D03*
%TD*%
D22*
%TO.N,GND*%
X170732600Y-77267400D02*
X170732600Y-77692300D01*
X171000000Y-77000000D02*
X170732600Y-77267400D01*
X171000000Y-76750000D02*
X171000000Y-77000000D01*
X171750000Y-76000000D02*
X171000000Y-76750000D01*
X163655000Y-71572300D02*
X163655000Y-71922300D01*
%TO.N,/Cos0*%
X176725000Y-96250000D02*
X179750000Y-93225000D01*
X161787300Y-96250000D02*
X176725000Y-96250000D01*
X161155000Y-96882300D02*
X161787300Y-96250000D01*
D23*
%TO.N,/C_B0*%
X169750000Y-90750000D02*
X169750000Y-93225000D01*
X168000000Y-83901000D02*
X168849000Y-84750000D01*
X167230000Y-80230000D02*
X164460000Y-80230000D01*
X168849000Y-84750000D02*
X168849000Y-89849000D01*
X168849000Y-89849000D02*
X169750000Y-90750000D01*
X168000000Y-81000000D02*
X168000000Y-83901000D01*
X168000000Y-81000000D02*
X167230000Y-80230000D01*
D22*
%TO.N,+5V*%
X180000000Y-103250000D02*
X179750000Y-103500000D01*
X171000000Y-103500000D02*
X170000000Y-102500000D01*
X160750000Y-75130000D02*
X160750000Y-71000000D01*
X163310000Y-77690000D02*
X164460000Y-77690000D01*
X163310000Y-77690000D02*
X160750000Y-75130000D01*
X167655000Y-63922300D02*
X165232700Y-61500000D01*
X174332300Y-86582300D02*
X177250000Y-89500000D01*
X173272600Y-86582300D02*
X174332300Y-86582300D01*
X165232700Y-61500000D02*
X159250000Y-61500000D01*
X179750000Y-103500000D02*
X171000000Y-103500000D01*
X177250000Y-89500000D02*
X177250000Y-93225000D01*
X170000000Y-102500000D02*
X170000000Y-100422300D01*
%TO.N,/Sin0*%
X183324000Y-94651000D02*
X184750000Y-93225000D01*
X166000000Y-98250000D02*
X178758636Y-98250000D01*
X161155000Y-100842300D02*
X163407700Y-100842300D01*
X178758636Y-98250000D02*
X182357636Y-94651000D01*
X182357636Y-94651000D02*
X183324000Y-94651000D01*
X163407700Y-100842300D02*
X166000000Y-98250000D01*
D23*
%TO.N,/C_I0*%
X167250000Y-90500000D02*
X167250000Y-93225000D01*
X166500000Y-89436000D02*
X166064000Y-89000000D01*
X166064000Y-89000000D02*
X166064000Y-82436000D01*
X166064000Y-82436000D02*
X167000000Y-81500000D01*
X166500000Y-89436000D02*
X166500000Y-89750000D01*
X166500000Y-89750000D02*
X167250000Y-90500000D01*
%TO.N,/C_A0*%
X172250000Y-93225000D02*
X172250000Y-91500000D01*
X169250000Y-88500000D02*
X169250000Y-84396800D01*
X172250000Y-91500000D02*
X169250000Y-88500000D01*
X168599000Y-83745800D02*
X168599000Y-80559000D01*
X169250000Y-84396800D02*
X168599000Y-83745800D01*
X168599000Y-80559000D02*
X167000000Y-78960000D01*
D22*
%TO.N,/Cos1*%
X161250000Y-68000000D02*
X158250000Y-71000000D01*
X176500000Y-67422300D02*
X175922300Y-68000000D01*
X175922300Y-68000000D02*
X161250000Y-68000000D01*
D23*
%TO.N,/C_B1*%
X169655000Y-83655000D02*
X169655000Y-72405000D01*
X169655000Y-72405000D02*
X168250000Y-71000000D01*
X169655000Y-83655000D02*
X170042300Y-84042300D01*
X170042300Y-84042300D02*
X173272600Y-84042300D01*
%TO.N,/C_A1*%
X165750000Y-71250000D02*
X165750000Y-71000000D01*
X170732600Y-85312300D02*
X169000000Y-83579700D01*
X169000000Y-83579700D02*
X169000000Y-74500000D01*
X169000000Y-74500000D02*
X165750000Y-71250000D01*
D22*
%TO.N,/Sin1*%
X158500000Y-65750000D02*
X153250000Y-71000000D01*
X173787700Y-63462300D02*
X171500000Y-65750000D01*
X176500000Y-63462300D02*
X173787700Y-63462300D01*
X171500000Y-65750000D02*
X158500000Y-65750000D01*
D23*
%TO.N,/C_I1*%
X172000000Y-81250000D02*
X172000000Y-77500000D01*
X172000000Y-77500000D02*
X173000000Y-76500000D01*
X170732600Y-82517400D02*
X172000000Y-81250000D01*
X170732600Y-82772300D02*
X170732600Y-82517400D01*
X173000000Y-73250000D02*
X170750000Y-71000000D01*
X173000000Y-76500000D02*
X173000000Y-73250000D01*
%TD*%
%TA.AperFunction,Conductor*%
%TO.N,GND*%
G36*
X159014849Y-60520185D02*
G01*
X159060604Y-60572989D01*
X159070548Y-60642147D01*
X159041523Y-60705703D01*
X158995262Y-60739061D01*
X158870827Y-60790602D01*
X158870814Y-60790609D01*
X158739711Y-60878210D01*
X158739707Y-60878213D01*
X158628213Y-60989707D01*
X158628210Y-60989711D01*
X158540609Y-61120814D01*
X158540602Y-61120827D01*
X158480264Y-61266498D01*
X158480261Y-61266510D01*
X158449500Y-61421153D01*
X158449500Y-61578846D01*
X158480261Y-61733489D01*
X158480264Y-61733501D01*
X158540602Y-61879172D01*
X158540609Y-61879185D01*
X158628210Y-62010288D01*
X158628213Y-62010292D01*
X158739707Y-62121786D01*
X158739711Y-62121789D01*
X158870814Y-62209390D01*
X158870827Y-62209397D01*
X158970060Y-62250500D01*
X159016503Y-62269737D01*
X159096589Y-62285667D01*
X159171126Y-62300494D01*
X159233037Y-62332879D01*
X159267611Y-62393594D01*
X159263872Y-62463364D01*
X159223005Y-62520036D01*
X159212032Y-62527649D01*
X159086659Y-62604980D01*
X159086655Y-62604983D01*
X158962684Y-62728954D01*
X158870643Y-62878175D01*
X158870641Y-62878180D01*
X158815494Y-63044602D01*
X158815493Y-63044609D01*
X158805000Y-63147313D01*
X158805000Y-63672300D01*
X159750854Y-63672300D01*
X159712370Y-63738957D01*
X159680000Y-63859765D01*
X159680000Y-63984835D01*
X159712370Y-64105643D01*
X159750854Y-64172300D01*
X158805001Y-64172300D01*
X158805001Y-64697286D01*
X158815493Y-64799995D01*
X158827589Y-64836495D01*
X158829991Y-64906323D01*
X158794260Y-64966366D01*
X158731740Y-64997559D01*
X158709883Y-64999500D01*
X158426080Y-64999500D01*
X158281092Y-65028340D01*
X158281082Y-65028343D01*
X158144511Y-65084912D01*
X158144498Y-65084919D01*
X158021584Y-65167048D01*
X158021580Y-65167051D01*
X153700450Y-69488181D01*
X153639127Y-69521666D01*
X153612769Y-69524500D01*
X152599998Y-69524500D01*
X152599980Y-69524501D01*
X152497203Y-69535000D01*
X152497200Y-69535001D01*
X152330668Y-69590185D01*
X152330663Y-69590187D01*
X152181342Y-69682289D01*
X152057289Y-69806342D01*
X151965187Y-69955663D01*
X151965186Y-69955666D01*
X151910001Y-70122203D01*
X151910001Y-70122204D01*
X151910000Y-70122204D01*
X151899500Y-70224983D01*
X151899500Y-71775001D01*
X151899501Y-71775018D01*
X151910000Y-71877796D01*
X151910001Y-71877799D01*
X151944031Y-71980493D01*
X151965186Y-72044334D01*
X152057288Y-72193656D01*
X152181344Y-72317712D01*
X152330666Y-72409814D01*
X152497203Y-72464999D01*
X152599991Y-72475500D01*
X153900008Y-72475499D01*
X154002797Y-72464999D01*
X154169334Y-72409814D01*
X154318656Y-72317712D01*
X154442712Y-72193656D01*
X154534814Y-72044334D01*
X154534814Y-72044331D01*
X154538448Y-72038441D01*
X154590395Y-71991716D01*
X154659358Y-71980493D01*
X154723440Y-72008336D01*
X154731668Y-72015856D01*
X154870535Y-72154723D01*
X154870540Y-72154727D01*
X155042442Y-72279620D01*
X155231782Y-72376095D01*
X155433871Y-72441757D01*
X155500000Y-72452231D01*
X155500000Y-71404145D01*
X155566657Y-71442630D01*
X155687465Y-71475000D01*
X155812535Y-71475000D01*
X155933343Y-71442630D01*
X156000000Y-71404145D01*
X156000000Y-72452230D01*
X156066126Y-72441757D01*
X156066129Y-72441757D01*
X156268217Y-72376095D01*
X156457557Y-72279620D01*
X156629459Y-72154727D01*
X156629464Y-72154723D01*
X156779721Y-72004466D01*
X156899371Y-71839781D01*
X156954701Y-71797115D01*
X157024314Y-71791136D01*
X157086110Y-71823741D01*
X157100008Y-71839781D01*
X157219890Y-72004785D01*
X157219894Y-72004790D01*
X157370213Y-72155109D01*
X157542179Y-72280048D01*
X157542181Y-72280049D01*
X157542184Y-72280051D01*
X157731588Y-72376557D01*
X157933757Y-72442246D01*
X158143713Y-72475500D01*
X158143714Y-72475500D01*
X158356286Y-72475500D01*
X158356287Y-72475500D01*
X158566243Y-72442246D01*
X158768412Y-72376557D01*
X158957816Y-72280051D01*
X159023540Y-72232300D01*
X159129786Y-72155109D01*
X159129788Y-72155106D01*
X159129792Y-72155104D01*
X159280104Y-72004792D01*
X159399683Y-71840204D01*
X159455011Y-71797540D01*
X159524624Y-71791561D01*
X159586420Y-71824166D01*
X159600313Y-71840199D01*
X159719896Y-72004792D01*
X159870208Y-72155104D01*
X159948384Y-72211902D01*
X159991051Y-72267231D01*
X159999500Y-72312220D01*
X159999500Y-74608248D01*
X159979815Y-74675287D01*
X159927011Y-74721042D01*
X159857853Y-74730986D01*
X159794297Y-74701961D01*
X159787819Y-74695929D01*
X159715421Y-74623531D01*
X159661776Y-74580751D01*
X159504187Y-74455077D01*
X159346190Y-74355801D01*
X159275416Y-74311331D01*
X159031996Y-74194106D01*
X158776978Y-74104872D01*
X158776980Y-74104872D01*
X158579422Y-74059781D01*
X158513571Y-74044751D01*
X158513567Y-74044750D01*
X158513558Y-74044749D01*
X158245094Y-74014500D01*
X158245090Y-74014500D01*
X157974910Y-74014500D01*
X157974906Y-74014500D01*
X157706441Y-74044749D01*
X157706429Y-74044751D01*
X157443020Y-74104872D01*
X157188003Y-74194106D01*
X156944583Y-74311331D01*
X156715814Y-74455076D01*
X156504578Y-74623531D01*
X156313531Y-74814578D01*
X156145076Y-75025814D01*
X156001331Y-75254583D01*
X155884106Y-75498003D01*
X155794872Y-75753020D01*
X155734751Y-76016429D01*
X155734749Y-76016441D01*
X155704500Y-76284905D01*
X155704500Y-76555094D01*
X155734749Y-76823558D01*
X155734751Y-76823570D01*
X155794872Y-77086979D01*
X155884106Y-77341996D01*
X156001331Y-77585416D01*
X156001333Y-77585419D01*
X156145077Y-77814187D01*
X156313532Y-78025422D01*
X156504578Y-78216468D01*
X156715813Y-78384923D01*
X156944581Y-78528667D01*
X157188005Y-78645894D01*
X157443020Y-78735127D01*
X157443022Y-78735127D01*
X157443023Y-78735128D01*
X157706429Y-78795249D01*
X157974905Y-78825499D01*
X157974906Y-78825500D01*
X157974910Y-78825500D01*
X158245094Y-78825500D01*
X158245094Y-78825499D01*
X158513571Y-78795249D01*
X158776977Y-78735128D01*
X159031995Y-78645894D01*
X159275419Y-78528667D01*
X159504187Y-78384923D01*
X159715422Y-78216468D01*
X159906468Y-78025422D01*
X160074923Y-77814187D01*
X160218667Y-77585419D01*
X160335894Y-77341995D01*
X160425128Y-77086977D01*
X160485249Y-76823571D01*
X160515500Y-76555090D01*
X160515500Y-76284910D01*
X160515499Y-76284905D01*
X160513522Y-76267359D01*
X160525575Y-76198537D01*
X160572922Y-76147156D01*
X160640532Y-76129530D01*
X160706939Y-76151254D01*
X160724423Y-76165791D01*
X162831586Y-78272954D01*
X162849813Y-78285132D01*
X162905270Y-78322186D01*
X162954505Y-78355084D01*
X163001877Y-78374706D01*
X163091088Y-78411659D01*
X163207241Y-78434763D01*
X163226468Y-78438587D01*
X163236081Y-78440500D01*
X163236082Y-78440500D01*
X163236083Y-78440500D01*
X163383918Y-78440500D01*
X163553299Y-78440500D01*
X163620338Y-78460185D01*
X163640980Y-78476819D01*
X163720272Y-78556111D01*
X163864868Y-78661167D01*
X164024119Y-78742309D01*
X164024121Y-78742310D01*
X164135885Y-78778624D01*
X164194103Y-78797540D01*
X164370634Y-78825500D01*
X164370635Y-78825500D01*
X164549365Y-78825500D01*
X164549366Y-78825500D01*
X164725897Y-78797540D01*
X164725900Y-78797539D01*
X164725901Y-78797539D01*
X164895878Y-78742310D01*
X164895878Y-78742309D01*
X164895881Y-78742309D01*
X165055132Y-78661167D01*
X165199728Y-78556111D01*
X165326111Y-78429728D01*
X165431167Y-78285132D01*
X165512309Y-78125881D01*
X165521956Y-78096190D01*
X165567539Y-77955901D01*
X165567539Y-77955900D01*
X165567540Y-77955897D01*
X165595500Y-77779366D01*
X165595500Y-77600634D01*
X165567540Y-77424103D01*
X165567539Y-77424099D01*
X165567539Y-77424098D01*
X165512310Y-77254121D01*
X165512308Y-77254118D01*
X165449725Y-77131290D01*
X165431167Y-77094868D01*
X165326111Y-76950272D01*
X165199728Y-76823889D01*
X165055132Y-76718833D01*
X164895881Y-76637691D01*
X164895878Y-76637689D01*
X164725899Y-76582460D01*
X164608209Y-76563820D01*
X164549366Y-76554500D01*
X164370634Y-76554500D01*
X164311790Y-76563820D01*
X164194101Y-76582460D01*
X164194098Y-76582460D01*
X164024121Y-76637689D01*
X164024118Y-76637691D01*
X163864867Y-76718833D01*
X163720270Y-76823890D01*
X163700443Y-76843717D01*
X163639119Y-76877201D01*
X163569428Y-76872215D01*
X163525083Y-76843715D01*
X161536819Y-74855451D01*
X161503334Y-74794128D01*
X161500500Y-74767770D01*
X161500500Y-72312220D01*
X161520185Y-72245181D01*
X161551614Y-72211902D01*
X161629792Y-72155104D01*
X161780104Y-72004792D01*
X161899991Y-71839779D01*
X161955320Y-71797115D01*
X162024933Y-71791136D01*
X162086729Y-71823741D01*
X162100627Y-71839781D01*
X162220272Y-72004459D01*
X162220276Y-72004464D01*
X162370535Y-72154723D01*
X162370540Y-72154727D01*
X162542442Y-72279620D01*
X162731782Y-72376095D01*
X162933871Y-72441757D01*
X163000000Y-72452231D01*
X163000000Y-71404145D01*
X163066657Y-71442630D01*
X163187465Y-71475000D01*
X163312535Y-71475000D01*
X163433343Y-71442630D01*
X163500000Y-71404145D01*
X163500000Y-72452230D01*
X163566126Y-72441757D01*
X163566129Y-72441757D01*
X163768217Y-72376095D01*
X163957557Y-72279620D01*
X164129459Y-72154727D01*
X164129464Y-72154723D01*
X164279721Y-72004466D01*
X164399371Y-71839781D01*
X164454701Y-71797115D01*
X164524314Y-71791136D01*
X164586110Y-71823741D01*
X164600008Y-71839781D01*
X164719890Y-72004785D01*
X164719894Y-72004790D01*
X164870213Y-72155109D01*
X165042179Y-72280048D01*
X165042181Y-72280049D01*
X165042184Y-72280051D01*
X165231588Y-72376557D01*
X165433757Y-72442246D01*
X165643713Y-72475500D01*
X165643714Y-72475500D01*
X165856285Y-72475500D01*
X165856287Y-72475500D01*
X166026949Y-72448469D01*
X166096240Y-72457423D01*
X166134026Y-72483261D01*
X168363181Y-74712416D01*
X168396666Y-74773739D01*
X168399500Y-74800097D01*
X168399500Y-79210903D01*
X168379815Y-79277942D01*
X168327011Y-79323697D01*
X168257853Y-79333641D01*
X168194297Y-79304616D01*
X168187819Y-79298584D01*
X168153253Y-79264018D01*
X168119768Y-79202695D01*
X168118461Y-79156943D01*
X168135500Y-79049366D01*
X168135500Y-78870634D01*
X168107540Y-78694103D01*
X168107539Y-78694099D01*
X168107539Y-78694098D01*
X168052310Y-78524121D01*
X168052308Y-78524118D01*
X168028209Y-78476819D01*
X167971167Y-78364868D01*
X167866111Y-78220272D01*
X167739728Y-78093889D01*
X167595132Y-77988833D01*
X167435881Y-77907691D01*
X167435878Y-77907689D01*
X167265899Y-77852460D01*
X167148209Y-77833820D01*
X167089366Y-77824500D01*
X166910634Y-77824500D01*
X166851790Y-77833820D01*
X166734101Y-77852460D01*
X166734098Y-77852460D01*
X166564121Y-77907689D01*
X166564118Y-77907691D01*
X166404867Y-77988833D01*
X166260270Y-78093890D01*
X166133890Y-78220270D01*
X166028833Y-78364867D01*
X165947691Y-78524118D01*
X165947689Y-78524121D01*
X165892460Y-78694098D01*
X165892460Y-78694101D01*
X165864500Y-78870634D01*
X165864500Y-79049365D01*
X165892460Y-79225898D01*
X165892460Y-79225901D01*
X165947689Y-79395878D01*
X165947690Y-79395881D01*
X165974861Y-79449205D01*
X165987757Y-79517874D01*
X165961481Y-79582615D01*
X165904375Y-79622872D01*
X165864376Y-79629500D01*
X165490448Y-79629500D01*
X165423409Y-79609815D01*
X165390130Y-79578386D01*
X165346165Y-79517874D01*
X165326111Y-79490272D01*
X165199728Y-79363889D01*
X165055132Y-79258833D01*
X164895881Y-79177691D01*
X164895878Y-79177689D01*
X164725899Y-79122460D01*
X164608209Y-79103820D01*
X164549366Y-79094500D01*
X164370634Y-79094500D01*
X164311790Y-79103820D01*
X164194101Y-79122460D01*
X164194098Y-79122460D01*
X164024121Y-79177689D01*
X164024118Y-79177691D01*
X163864867Y-79258833D01*
X163720270Y-79363890D01*
X163593890Y-79490270D01*
X163488833Y-79634867D01*
X163407691Y-79794118D01*
X163407689Y-79794121D01*
X163352460Y-79964098D01*
X163352460Y-79964101D01*
X163324500Y-80140634D01*
X163324500Y-80319365D01*
X163352460Y-80495898D01*
X163352460Y-80495901D01*
X163407689Y-80665878D01*
X163407691Y-80665881D01*
X163488833Y-80825132D01*
X163593889Y-80969728D01*
X163720272Y-81096111D01*
X163864868Y-81201167D01*
X164024119Y-81282309D01*
X164024121Y-81282310D01*
X164168106Y-81329093D01*
X164194103Y-81337540D01*
X164370634Y-81365500D01*
X164370635Y-81365500D01*
X164549365Y-81365500D01*
X164549366Y-81365500D01*
X164725897Y-81337540D01*
X164725900Y-81337539D01*
X164725901Y-81337539D01*
X164895878Y-81282310D01*
X164895878Y-81282309D01*
X164895881Y-81282309D01*
X165055132Y-81201167D01*
X165199728Y-81096111D01*
X165326111Y-80969728D01*
X165390130Y-80881613D01*
X165445461Y-80838948D01*
X165490448Y-80830500D01*
X165864376Y-80830500D01*
X165931415Y-80850185D01*
X165977170Y-80902989D01*
X165987114Y-80972147D01*
X165974861Y-81010795D01*
X165947690Y-81064118D01*
X165947689Y-81064121D01*
X165892460Y-81234098D01*
X165892460Y-81234101D01*
X165864500Y-81410634D01*
X165864500Y-81589371D01*
X165881537Y-81696939D01*
X165880835Y-81702364D01*
X165882748Y-81707491D01*
X165876405Y-81736646D01*
X165872582Y-81766233D01*
X165868750Y-81771836D01*
X165867896Y-81775764D01*
X165846746Y-81804018D01*
X165695286Y-81955478D01*
X165695285Y-81955478D01*
X165695284Y-81955479D01*
X165583481Y-82067282D01*
X165583477Y-82067287D01*
X165576897Y-82078685D01*
X165526329Y-82126900D01*
X165457722Y-82140121D01*
X165392858Y-82114152D01*
X165369194Y-82089569D01*
X165326115Y-82030278D01*
X165326111Y-82030272D01*
X165199728Y-81903889D01*
X165055132Y-81798833D01*
X164895881Y-81717691D01*
X164895878Y-81717689D01*
X164725899Y-81662460D01*
X164608209Y-81643820D01*
X164549366Y-81634500D01*
X164370634Y-81634500D01*
X164311790Y-81643820D01*
X164194101Y-81662460D01*
X164194098Y-81662460D01*
X164024121Y-81717689D01*
X164024118Y-81717691D01*
X163864867Y-81798833D01*
X163720270Y-81903890D01*
X163593890Y-82030270D01*
X163488833Y-82174867D01*
X163407691Y-82334118D01*
X163407689Y-82334121D01*
X163352460Y-82504098D01*
X163352460Y-82504101D01*
X163344460Y-82554610D01*
X163324500Y-82680634D01*
X163324500Y-82859366D01*
X163327051Y-82875474D01*
X163352460Y-83035898D01*
X163352460Y-83035901D01*
X163407689Y-83205878D01*
X163407691Y-83205881D01*
X163488833Y-83365132D01*
X163593889Y-83509728D01*
X163720272Y-83636111D01*
X163864868Y-83741167D01*
X164024119Y-83822309D01*
X164024121Y-83822310D01*
X164182670Y-83873825D01*
X164194103Y-83877540D01*
X164370634Y-83905500D01*
X164370635Y-83905500D01*
X164549365Y-83905500D01*
X164549366Y-83905500D01*
X164725897Y-83877540D01*
X164725900Y-83877539D01*
X164725901Y-83877539D01*
X164895878Y-83822310D01*
X164895878Y-83822309D01*
X164895881Y-83822309D01*
X165055132Y-83741167D01*
X165199728Y-83636111D01*
X165251819Y-83584020D01*
X165313142Y-83550535D01*
X165382834Y-83555519D01*
X165438767Y-83597391D01*
X165463184Y-83662855D01*
X165463500Y-83671701D01*
X165463500Y-84408299D01*
X165443815Y-84475338D01*
X165391011Y-84521093D01*
X165321853Y-84531037D01*
X165258297Y-84502012D01*
X165251819Y-84495980D01*
X165199729Y-84443890D01*
X165055132Y-84338833D01*
X164895881Y-84257691D01*
X164895878Y-84257689D01*
X164725899Y-84202460D01*
X164608209Y-84183820D01*
X164549366Y-84174500D01*
X164370634Y-84174500D01*
X164311790Y-84183820D01*
X164194101Y-84202460D01*
X164194098Y-84202460D01*
X164024121Y-84257689D01*
X164024118Y-84257691D01*
X163864867Y-84338833D01*
X163720270Y-84443890D01*
X163593890Y-84570270D01*
X163488833Y-84714867D01*
X163407691Y-84874118D01*
X163407689Y-84874121D01*
X163352460Y-85044098D01*
X163352460Y-85044101D01*
X163344460Y-85094610D01*
X163324500Y-85220634D01*
X163324500Y-85399366D01*
X163333232Y-85454495D01*
X163352460Y-85575898D01*
X163352460Y-85575901D01*
X163407689Y-85745878D01*
X163407691Y-85745881D01*
X163488833Y-85905132D01*
X163593889Y-86049728D01*
X163720272Y-86176111D01*
X163864868Y-86281167D01*
X164024119Y-86362309D01*
X164024121Y-86362310D01*
X164182670Y-86413825D01*
X164194103Y-86417540D01*
X164370634Y-86445500D01*
X164370635Y-86445500D01*
X164549365Y-86445500D01*
X164549366Y-86445500D01*
X164725897Y-86417540D01*
X164725900Y-86417539D01*
X164725901Y-86417539D01*
X164895878Y-86362310D01*
X164895878Y-86362309D01*
X164895881Y-86362309D01*
X165055132Y-86281167D01*
X165199728Y-86176111D01*
X165251819Y-86124020D01*
X165313142Y-86090535D01*
X165382834Y-86095519D01*
X165438767Y-86137391D01*
X165463184Y-86202855D01*
X165463500Y-86211701D01*
X165463500Y-88913330D01*
X165463499Y-88913348D01*
X165463499Y-89079054D01*
X165463498Y-89079054D01*
X165504423Y-89231786D01*
X165504424Y-89231787D01*
X165528753Y-89273926D01*
X165583480Y-89368716D01*
X165583482Y-89368718D01*
X165702349Y-89487585D01*
X165702355Y-89487590D01*
X165863180Y-89648415D01*
X165896665Y-89709738D01*
X165899499Y-89736096D01*
X165899499Y-89829054D01*
X165899498Y-89829054D01*
X165899499Y-89829057D01*
X165940423Y-89981785D01*
X165959680Y-90015139D01*
X165969358Y-90031900D01*
X165969359Y-90031904D01*
X165969360Y-90031904D01*
X165996084Y-90078193D01*
X166019479Y-90118714D01*
X166019481Y-90118717D01*
X166138349Y-90237585D01*
X166138355Y-90237590D01*
X166613181Y-90712416D01*
X166646666Y-90773739D01*
X166649500Y-90800097D01*
X166649500Y-91814281D01*
X166629815Y-91881320D01*
X166581795Y-91924765D01*
X166542185Y-91944947D01*
X166542184Y-91944948D01*
X166370213Y-92069890D01*
X166219890Y-92220213D01*
X166094951Y-92392179D01*
X165998444Y-92581585D01*
X165932753Y-92783760D01*
X165923069Y-92844905D01*
X165899500Y-92993713D01*
X165899500Y-93456287D01*
X165932754Y-93666243D01*
X165943722Y-93700000D01*
X165998444Y-93868414D01*
X166094951Y-94057820D01*
X166219890Y-94229786D01*
X166370213Y-94380109D01*
X166542179Y-94505048D01*
X166542181Y-94505049D01*
X166542184Y-94505051D01*
X166731588Y-94601557D01*
X166933757Y-94667246D01*
X167143713Y-94700500D01*
X167143714Y-94700500D01*
X167356286Y-94700500D01*
X167356287Y-94700500D01*
X167566243Y-94667246D01*
X167768412Y-94601557D01*
X167957816Y-94505051D01*
X167979789Y-94489086D01*
X168129786Y-94380109D01*
X168129788Y-94380106D01*
X168129792Y-94380104D01*
X168280104Y-94229792D01*
X168399683Y-94065204D01*
X168455011Y-94022540D01*
X168524624Y-94016561D01*
X168586420Y-94049166D01*
X168600313Y-94065199D01*
X168719654Y-94229459D01*
X168719896Y-94229792D01*
X168870213Y-94380109D01*
X169042179Y-94505048D01*
X169042181Y-94505049D01*
X169042184Y-94505051D01*
X169231588Y-94601557D01*
X169433757Y-94667246D01*
X169643713Y-94700500D01*
X169643714Y-94700500D01*
X169856286Y-94700500D01*
X169856287Y-94700500D01*
X170066243Y-94667246D01*
X170268412Y-94601557D01*
X170457816Y-94505051D01*
X170479789Y-94489086D01*
X170629786Y-94380109D01*
X170629788Y-94380106D01*
X170629792Y-94380104D01*
X170780104Y-94229792D01*
X170899683Y-94065204D01*
X170955011Y-94022540D01*
X171024624Y-94016561D01*
X171086420Y-94049166D01*
X171100313Y-94065199D01*
X171219654Y-94229459D01*
X171219896Y-94229792D01*
X171370213Y-94380109D01*
X171542179Y-94505048D01*
X171542181Y-94505049D01*
X171542184Y-94505051D01*
X171731588Y-94601557D01*
X171933757Y-94667246D01*
X172143713Y-94700500D01*
X172143714Y-94700500D01*
X172356286Y-94700500D01*
X172356287Y-94700500D01*
X172566243Y-94667246D01*
X172768412Y-94601557D01*
X172957816Y-94505051D01*
X172979789Y-94489086D01*
X173129786Y-94380109D01*
X173129788Y-94380106D01*
X173129792Y-94380104D01*
X173280104Y-94229792D01*
X173399991Y-94064779D01*
X173455320Y-94022115D01*
X173524933Y-94016136D01*
X173586729Y-94048741D01*
X173600627Y-94064781D01*
X173720272Y-94229459D01*
X173720276Y-94229464D01*
X173870535Y-94379723D01*
X173870540Y-94379727D01*
X174042442Y-94504620D01*
X174231782Y-94601095D01*
X174433871Y-94666757D01*
X174500000Y-94677231D01*
X174500000Y-93629145D01*
X174566657Y-93667630D01*
X174687465Y-93700000D01*
X174812535Y-93700000D01*
X174933343Y-93667630D01*
X175000000Y-93629145D01*
X175000000Y-94677230D01*
X175066126Y-94666757D01*
X175066129Y-94666757D01*
X175268217Y-94601095D01*
X175457557Y-94504620D01*
X175629459Y-94379727D01*
X175629464Y-94379723D01*
X175779721Y-94229466D01*
X175899371Y-94064781D01*
X175954701Y-94022115D01*
X176024314Y-94016136D01*
X176086110Y-94048741D01*
X176100008Y-94064781D01*
X176219890Y-94229785D01*
X176219894Y-94229790D01*
X176370213Y-94380109D01*
X176542179Y-94505048D01*
X176542181Y-94505049D01*
X176542184Y-94505051D01*
X176731588Y-94601557D01*
X176933757Y-94667246D01*
X176956651Y-94670872D01*
X176963273Y-94671921D01*
X177026408Y-94701850D01*
X177063339Y-94761162D01*
X177062341Y-94831024D01*
X177031556Y-94882075D01*
X176450451Y-95463181D01*
X176389128Y-95496666D01*
X176362770Y-95499500D01*
X163235833Y-95499500D01*
X163168794Y-95479815D01*
X163148156Y-95463185D01*
X162999712Y-95314741D01*
X162999711Y-95314740D01*
X162999709Y-95314738D01*
X162783343Y-95148715D01*
X162543640Y-95010323D01*
X162544376Y-95009046D01*
X162497501Y-94965894D01*
X162479840Y-94898293D01*
X162501531Y-94831875D01*
X162544102Y-94795013D01*
X162543418Y-94793828D01*
X162783066Y-94655468D01*
X162999382Y-94489481D01*
X162999391Y-94489474D01*
X163192174Y-94296691D01*
X163192181Y-94296682D01*
X163358168Y-94080366D01*
X163494496Y-93844237D01*
X163494500Y-93844227D01*
X163598840Y-93592329D01*
X163669411Y-93328955D01*
X163690035Y-93172300D01*
X161971480Y-93172300D01*
X161972335Y-93170236D01*
X162005000Y-93006018D01*
X162005000Y-92838582D01*
X161972335Y-92674364D01*
X161971480Y-92672300D01*
X163690034Y-92672300D01*
X163669411Y-92515644D01*
X163598840Y-92252270D01*
X163494500Y-92000372D01*
X163494496Y-92000362D01*
X163358168Y-91764233D01*
X163192181Y-91547917D01*
X163192174Y-91547909D01*
X162999391Y-91355126D01*
X162999382Y-91355118D01*
X162783066Y-91189131D01*
X162546937Y-91052803D01*
X162546927Y-91052799D01*
X162295029Y-90948459D01*
X162031655Y-90877888D01*
X161761331Y-90842300D01*
X161405000Y-90842300D01*
X161405000Y-92105819D01*
X161402936Y-92104965D01*
X161238718Y-92072300D01*
X161071282Y-92072300D01*
X160907064Y-92104965D01*
X160905000Y-92105819D01*
X160905000Y-90842300D01*
X160548669Y-90842300D01*
X160278344Y-90877888D01*
X160014970Y-90948459D01*
X159763072Y-91052799D01*
X159763062Y-91052803D01*
X159526933Y-91189131D01*
X159310617Y-91355118D01*
X159117818Y-91547917D01*
X158951831Y-91764233D01*
X158815503Y-92000362D01*
X158815499Y-92000372D01*
X158711159Y-92252270D01*
X158640588Y-92515644D01*
X158619965Y-92672300D01*
X160338520Y-92672300D01*
X160337665Y-92674364D01*
X160305000Y-92838582D01*
X160305000Y-93006018D01*
X160337665Y-93170236D01*
X160338520Y-93172300D01*
X158619965Y-93172300D01*
X158640588Y-93328955D01*
X158711159Y-93592329D01*
X158815499Y-93844227D01*
X158815503Y-93844237D01*
X158951831Y-94080366D01*
X159117818Y-94296682D01*
X159117826Y-94296691D01*
X159310609Y-94489474D01*
X159310617Y-94489481D01*
X159526933Y-94655468D01*
X159766582Y-94793828D01*
X159765802Y-94795178D01*
X159812469Y-94838097D01*
X159830161Y-94905690D01*
X159808501Y-94972117D01*
X159765718Y-95009212D01*
X159766360Y-95010323D01*
X159526656Y-95148715D01*
X159310289Y-95314739D01*
X159310282Y-95314745D01*
X159117445Y-95507582D01*
X159117439Y-95507589D01*
X158951415Y-95723956D01*
X158815054Y-95960140D01*
X158815047Y-95960155D01*
X158710684Y-96212111D01*
X158640097Y-96475545D01*
X158604501Y-96745927D01*
X158604500Y-96745943D01*
X158604500Y-97018656D01*
X158604501Y-97018672D01*
X158640097Y-97289054D01*
X158710684Y-97552488D01*
X158815047Y-97804444D01*
X158815054Y-97804459D01*
X158951415Y-98040643D01*
X159117439Y-98257010D01*
X159117445Y-98257017D01*
X159310282Y-98449854D01*
X159310289Y-98449860D01*
X159348815Y-98479422D01*
X159427012Y-98539425D01*
X159468215Y-98595851D01*
X159472370Y-98665597D01*
X159438158Y-98726518D01*
X159376441Y-98759271D01*
X159351528Y-98761800D01*
X159305000Y-98761800D01*
X159304980Y-98761801D01*
X159202203Y-98772300D01*
X159202200Y-98772301D01*
X159035668Y-98827485D01*
X159035663Y-98827487D01*
X158886342Y-98919589D01*
X158762289Y-99043642D01*
X158670187Y-99192963D01*
X158670185Y-99192968D01*
X158665965Y-99205703D01*
X158615001Y-99359503D01*
X158615001Y-99359504D01*
X158615000Y-99359504D01*
X158604500Y-99462283D01*
X158604500Y-102222301D01*
X158604501Y-102222318D01*
X158615000Y-102325096D01*
X158615001Y-102325099D01*
X158670185Y-102491631D01*
X158670187Y-102491636D01*
X158700392Y-102540606D01*
X158762288Y-102640956D01*
X158886344Y-102765012D01*
X159035666Y-102857114D01*
X159202203Y-102912299D01*
X159304991Y-102922800D01*
X163005008Y-102922799D01*
X163107797Y-102912299D01*
X163274334Y-102857114D01*
X163423656Y-102765012D01*
X163547712Y-102640956D01*
X163639814Y-102491634D01*
X163694999Y-102325097D01*
X163705500Y-102222309D01*
X163705499Y-101612213D01*
X163707735Y-101604596D01*
X163706466Y-101596762D01*
X163717436Y-101571558D01*
X163725183Y-101545175D01*
X163731893Y-101538343D01*
X163734351Y-101532698D01*
X163760609Y-101509111D01*
X163763191Y-101507385D01*
X163763195Y-101507384D01*
X163824544Y-101466392D01*
X163886116Y-101425252D01*
X166274549Y-99036819D01*
X166335872Y-99003334D01*
X166362230Y-99000500D01*
X166605650Y-99000500D01*
X166672689Y-99020185D01*
X166718444Y-99072989D01*
X166728388Y-99142147D01*
X166699363Y-99205703D01*
X166678535Y-99224818D01*
X166620214Y-99267190D01*
X166620209Y-99267194D01*
X166469890Y-99417513D01*
X166344951Y-99589479D01*
X166248444Y-99778885D01*
X166182753Y-99981060D01*
X166173069Y-100042205D01*
X166149500Y-100191013D01*
X166149500Y-100653587D01*
X166182754Y-100863543D01*
X166227091Y-100999999D01*
X166248444Y-101065714D01*
X166344951Y-101255120D01*
X166469890Y-101427086D01*
X166620213Y-101577409D01*
X166792179Y-101702348D01*
X166792181Y-101702349D01*
X166792184Y-101702351D01*
X166981588Y-101798857D01*
X167183757Y-101864546D01*
X167393713Y-101897800D01*
X167393714Y-101897800D01*
X167606286Y-101897800D01*
X167606287Y-101897800D01*
X167816243Y-101864546D01*
X168018412Y-101798857D01*
X168207816Y-101702351D01*
X168255811Y-101667481D01*
X168379786Y-101577409D01*
X168379788Y-101577406D01*
X168379792Y-101577404D01*
X168530104Y-101427092D01*
X168649683Y-101262504D01*
X168705011Y-101219840D01*
X168774624Y-101213861D01*
X168836420Y-101246466D01*
X168850313Y-101262499D01*
X168969896Y-101427092D01*
X169120208Y-101577404D01*
X169198384Y-101634202D01*
X169241051Y-101689531D01*
X169249500Y-101734520D01*
X169249500Y-102573918D01*
X169249500Y-102573920D01*
X169249499Y-102573920D01*
X169278340Y-102718907D01*
X169278343Y-102718917D01*
X169334914Y-102855491D01*
X169334916Y-102855495D01*
X169352370Y-102881617D01*
X169360981Y-102894505D01*
X169417049Y-102978418D01*
X169417052Y-102978421D01*
X170521585Y-104082952D01*
X170521590Y-104082956D01*
X170558338Y-104107509D01*
X170562373Y-104110205D01*
X170644505Y-104165084D01*
X170701080Y-104188518D01*
X170781088Y-104221659D01*
X170897241Y-104244763D01*
X170916468Y-104248587D01*
X170926081Y-104250500D01*
X170926082Y-104250500D01*
X179823920Y-104250500D01*
X179924392Y-104230514D01*
X179968913Y-104221658D01*
X180105495Y-104165084D01*
X180154729Y-104132186D01*
X180228416Y-104082952D01*
X180318978Y-103992387D01*
X180322948Y-103989034D01*
X180331442Y-103985282D01*
X180355525Y-103969190D01*
X180379179Y-103959394D01*
X180510289Y-103871789D01*
X180621789Y-103760289D01*
X180709394Y-103629179D01*
X180769737Y-103483497D01*
X180800500Y-103328842D01*
X180800500Y-103171158D01*
X180800500Y-103171155D01*
X180800499Y-103171153D01*
X180769738Y-103016510D01*
X180769737Y-103016503D01*
X180769735Y-103016498D01*
X180709397Y-102870827D01*
X180709390Y-102870814D01*
X180621789Y-102739711D01*
X180621786Y-102739707D01*
X180510292Y-102628213D01*
X180510288Y-102628210D01*
X180379185Y-102540609D01*
X180379172Y-102540602D01*
X180233501Y-102480264D01*
X180233489Y-102480261D01*
X180078845Y-102449500D01*
X180078842Y-102449500D01*
X179921158Y-102449500D01*
X179921155Y-102449500D01*
X179766510Y-102480261D01*
X179766498Y-102480264D01*
X179620827Y-102540602D01*
X179620814Y-102540609D01*
X179489712Y-102628209D01*
X179468269Y-102649653D01*
X179404739Y-102713182D01*
X179343419Y-102746666D01*
X179317060Y-102749500D01*
X171362229Y-102749500D01*
X171295190Y-102729815D01*
X171274548Y-102713181D01*
X170786819Y-102225451D01*
X170753334Y-102164128D01*
X170750500Y-102137770D01*
X170750500Y-101734520D01*
X170770185Y-101667481D01*
X170801614Y-101634202D01*
X170879792Y-101577404D01*
X171030104Y-101427092D01*
X171149683Y-101262504D01*
X171205011Y-101219840D01*
X171274624Y-101213861D01*
X171336420Y-101246466D01*
X171350313Y-101262499D01*
X171431808Y-101374668D01*
X171469896Y-101427092D01*
X171620213Y-101577409D01*
X171792179Y-101702348D01*
X171792181Y-101702349D01*
X171792184Y-101702351D01*
X171981588Y-101798857D01*
X172183757Y-101864546D01*
X172393713Y-101897800D01*
X172393714Y-101897800D01*
X172606286Y-101897800D01*
X172606287Y-101897800D01*
X172816243Y-101864546D01*
X173018412Y-101798857D01*
X173207816Y-101702351D01*
X173255811Y-101667481D01*
X173379786Y-101577409D01*
X173379788Y-101577406D01*
X173379792Y-101577404D01*
X173530104Y-101427092D01*
X173649683Y-101262504D01*
X173705011Y-101219840D01*
X173774624Y-101213861D01*
X173836420Y-101246466D01*
X173850313Y-101262499D01*
X173931808Y-101374668D01*
X173969896Y-101427092D01*
X174120213Y-101577409D01*
X174292179Y-101702348D01*
X174292181Y-101702349D01*
X174292184Y-101702351D01*
X174481588Y-101798857D01*
X174683757Y-101864546D01*
X174893713Y-101897800D01*
X174893714Y-101897800D01*
X175106286Y-101897800D01*
X175106287Y-101897800D01*
X175316243Y-101864546D01*
X175518412Y-101798857D01*
X175707816Y-101702351D01*
X175801617Y-101634201D01*
X175879784Y-101577410D01*
X175879784Y-101577409D01*
X175879792Y-101577404D01*
X176018967Y-101438228D01*
X176080286Y-101404746D01*
X176149978Y-101409730D01*
X176205912Y-101451601D01*
X176212184Y-101460815D01*
X176307684Y-101615645D01*
X176431654Y-101739615D01*
X176580875Y-101831656D01*
X176580880Y-101831658D01*
X176747302Y-101886805D01*
X176747309Y-101886806D01*
X176850019Y-101897299D01*
X177249999Y-101897299D01*
X177250000Y-101897298D01*
X177250000Y-100826445D01*
X177316657Y-100864930D01*
X177437465Y-100897300D01*
X177562535Y-100897300D01*
X177683343Y-100864930D01*
X177750000Y-100826445D01*
X177750000Y-101897299D01*
X178149972Y-101897299D01*
X178149986Y-101897298D01*
X178252697Y-101886805D01*
X178419119Y-101831658D01*
X178419124Y-101831656D01*
X178568345Y-101739615D01*
X178692315Y-101615645D01*
X178784356Y-101466424D01*
X178784358Y-101466419D01*
X178839505Y-101299997D01*
X178839506Y-101299990D01*
X178849999Y-101197286D01*
X178850000Y-101197273D01*
X178850000Y-100672300D01*
X177904146Y-100672300D01*
X177942630Y-100605643D01*
X177975000Y-100484835D01*
X177975000Y-100359765D01*
X177942630Y-100238957D01*
X177904146Y-100172300D01*
X178849999Y-100172300D01*
X178849999Y-99647328D01*
X178849998Y-99647313D01*
X178839505Y-99544602D01*
X178784358Y-99378180D01*
X178784356Y-99378175D01*
X178692315Y-99228954D01*
X178675542Y-99212181D01*
X178642057Y-99150858D01*
X178647041Y-99081166D01*
X178688913Y-99025233D01*
X178754377Y-99000816D01*
X178763223Y-99000500D01*
X178832556Y-99000500D01*
X178930098Y-98981096D01*
X178977549Y-98971658D01*
X179114131Y-98915084D01*
X179163365Y-98882186D01*
X179237052Y-98832952D01*
X180961689Y-97108315D01*
X182632184Y-95437819D01*
X182693507Y-95404334D01*
X182719865Y-95401500D01*
X183397920Y-95401500D01*
X183495462Y-95382096D01*
X183542913Y-95372658D01*
X183679495Y-95316084D01*
X183728729Y-95283186D01*
X183802416Y-95233952D01*
X184299548Y-94736817D01*
X184360871Y-94703333D01*
X184387229Y-94700499D01*
X185400002Y-94700499D01*
X185400008Y-94700499D01*
X185502797Y-94689999D01*
X185669334Y-94634814D01*
X185818656Y-94542712D01*
X185942712Y-94418656D01*
X186034814Y-94269334D01*
X186089999Y-94102797D01*
X186100500Y-94000009D01*
X186100499Y-92449992D01*
X186098851Y-92433863D01*
X186089999Y-92347203D01*
X186089998Y-92347200D01*
X186058541Y-92252270D01*
X186034814Y-92180666D01*
X185942712Y-92031344D01*
X185818656Y-91907288D01*
X185669334Y-91815186D01*
X185502797Y-91760001D01*
X185502795Y-91760000D01*
X185400010Y-91749500D01*
X184099998Y-91749500D01*
X184099981Y-91749501D01*
X183997203Y-91760000D01*
X183997200Y-91760001D01*
X183830668Y-91815185D01*
X183830663Y-91815187D01*
X183681342Y-91907289D01*
X183557289Y-92031342D01*
X183461551Y-92186559D01*
X183409603Y-92233283D01*
X183340640Y-92244506D01*
X183276558Y-92216662D01*
X183268331Y-92209143D01*
X183129464Y-92070276D01*
X183129459Y-92070272D01*
X182957557Y-91945379D01*
X182768215Y-91848903D01*
X182566124Y-91783241D01*
X182500000Y-91772768D01*
X182500000Y-92820854D01*
X182433343Y-92782370D01*
X182312535Y-92750000D01*
X182187465Y-92750000D01*
X182066657Y-92782370D01*
X182000000Y-92820854D01*
X182000000Y-91772768D01*
X181999999Y-91772768D01*
X181933875Y-91783241D01*
X181731784Y-91848903D01*
X181542442Y-91945379D01*
X181370540Y-92070272D01*
X181370535Y-92070276D01*
X181220276Y-92220535D01*
X181220272Y-92220540D01*
X181100627Y-92385218D01*
X181045297Y-92427884D01*
X180975684Y-92433863D01*
X180913889Y-92401257D01*
X180899991Y-92385218D01*
X180780109Y-92220214D01*
X180780105Y-92220209D01*
X180629786Y-92069890D01*
X180457820Y-91944951D01*
X180268414Y-91848444D01*
X180268413Y-91848443D01*
X180268412Y-91848443D01*
X180066243Y-91782754D01*
X180066241Y-91782753D01*
X180066240Y-91782753D01*
X179904957Y-91757208D01*
X179856287Y-91749500D01*
X179643713Y-91749500D01*
X179595042Y-91757208D01*
X179433760Y-91782753D01*
X179231585Y-91848444D01*
X179042179Y-91944951D01*
X178870213Y-92069890D01*
X178719894Y-92220209D01*
X178719890Y-92220214D01*
X178600318Y-92384793D01*
X178544989Y-92427459D01*
X178475375Y-92433438D01*
X178413580Y-92400833D01*
X178399682Y-92384793D01*
X178280109Y-92220214D01*
X178280105Y-92220209D01*
X178129794Y-92069898D01*
X178129788Y-92069893D01*
X178051615Y-92013097D01*
X178008949Y-91957767D01*
X178000500Y-91912779D01*
X178000500Y-89892957D01*
X178020185Y-89825918D01*
X178072989Y-89780163D01*
X178142147Y-89770219D01*
X178201812Y-89796009D01*
X178228413Y-89817223D01*
X178457181Y-89960967D01*
X178700605Y-90078194D01*
X178955620Y-90167427D01*
X178955622Y-90167427D01*
X178955623Y-90167428D01*
X179219029Y-90227549D01*
X179487505Y-90257799D01*
X179487506Y-90257800D01*
X179487510Y-90257800D01*
X179757694Y-90257800D01*
X179757694Y-90257799D01*
X180026171Y-90227549D01*
X180289577Y-90167428D01*
X180544595Y-90078194D01*
X180788019Y-89960967D01*
X181016787Y-89817223D01*
X181228022Y-89648768D01*
X181419068Y-89457722D01*
X181587523Y-89246487D01*
X181731267Y-89017719D01*
X181848494Y-88774295D01*
X181937728Y-88519277D01*
X181997849Y-88255871D01*
X182028100Y-87987390D01*
X182028100Y-87717210D01*
X181997849Y-87448729D01*
X181937728Y-87185323D01*
X181848494Y-86930305D01*
X181731267Y-86686881D01*
X181587523Y-86458113D01*
X181419068Y-86246878D01*
X181228022Y-86055832D01*
X181016787Y-85887377D01*
X180795257Y-85748181D01*
X180788016Y-85743631D01*
X180544596Y-85626406D01*
X180289578Y-85537172D01*
X180289580Y-85537172D01*
X180092022Y-85492081D01*
X180026171Y-85477051D01*
X180026167Y-85477050D01*
X180026158Y-85477049D01*
X179757694Y-85446800D01*
X179757690Y-85446800D01*
X179487510Y-85446800D01*
X179487506Y-85446800D01*
X179219041Y-85477049D01*
X179219029Y-85477051D01*
X178955620Y-85537172D01*
X178700603Y-85626406D01*
X178457183Y-85743631D01*
X178228414Y-85887376D01*
X178017178Y-86055831D01*
X177826131Y-86246878D01*
X177657676Y-86458114D01*
X177513931Y-86686883D01*
X177396706Y-86930303D01*
X177307472Y-87185320D01*
X177247351Y-87448729D01*
X177247349Y-87448741D01*
X177217100Y-87717205D01*
X177217100Y-87987396D01*
X177230543Y-88106710D01*
X177218488Y-88175532D01*
X177171139Y-88226911D01*
X177103529Y-88244535D01*
X177037123Y-88222808D01*
X177019642Y-88208274D01*
X174810721Y-85999352D01*
X174810714Y-85999346D01*
X174737029Y-85950112D01*
X174737029Y-85950113D01*
X174687791Y-85917213D01*
X174551217Y-85860643D01*
X174551207Y-85860640D01*
X174406220Y-85831800D01*
X174406218Y-85831800D01*
X174179301Y-85831800D01*
X174112262Y-85812115D01*
X174091620Y-85795481D01*
X174012329Y-85716190D01*
X173867732Y-85611133D01*
X173708481Y-85529991D01*
X173708478Y-85529989D01*
X173538499Y-85474760D01*
X173396830Y-85452322D01*
X173361966Y-85446800D01*
X173183234Y-85446800D01*
X173148370Y-85452322D01*
X173006701Y-85474760D01*
X173006698Y-85474760D01*
X172836721Y-85529989D01*
X172836718Y-85529991D01*
X172677467Y-85611133D01*
X172532870Y-85716190D01*
X172406490Y-85842570D01*
X172301433Y-85987167D01*
X172220291Y-86146418D01*
X172220289Y-86146421D01*
X172165060Y-86316398D01*
X172165060Y-86316401D01*
X172137100Y-86492934D01*
X172137100Y-86671665D01*
X172165060Y-86848198D01*
X172165060Y-86848201D01*
X172220289Y-87018178D01*
X172220291Y-87018181D01*
X172301433Y-87177432D01*
X172406489Y-87322028D01*
X172532872Y-87448411D01*
X172677468Y-87553467D01*
X172836719Y-87634609D01*
X172836721Y-87634610D01*
X172995270Y-87686125D01*
X173006703Y-87689840D01*
X173183234Y-87717800D01*
X173183235Y-87717800D01*
X173361965Y-87717800D01*
X173361966Y-87717800D01*
X173538497Y-87689840D01*
X173538500Y-87689839D01*
X173538501Y-87689839D01*
X173708478Y-87634610D01*
X173708478Y-87634609D01*
X173708481Y-87634609D01*
X173867732Y-87553467D01*
X173998884Y-87458178D01*
X174064686Y-87434699D01*
X174132740Y-87450524D01*
X174159448Y-87470816D01*
X176463181Y-89774549D01*
X176496666Y-89835872D01*
X176499500Y-89862230D01*
X176499500Y-91912779D01*
X176479815Y-91979818D01*
X176448385Y-92013097D01*
X176370211Y-92069893D01*
X176370205Y-92069898D01*
X176219894Y-92220209D01*
X176219890Y-92220214D01*
X176100008Y-92385218D01*
X176044678Y-92427884D01*
X175975065Y-92433863D01*
X175913270Y-92401257D01*
X175899372Y-92385218D01*
X175779727Y-92220540D01*
X175779723Y-92220535D01*
X175629464Y-92070276D01*
X175629459Y-92070272D01*
X175457557Y-91945379D01*
X175268215Y-91848903D01*
X175066124Y-91783241D01*
X175000000Y-91772768D01*
X175000000Y-92820854D01*
X174933343Y-92782370D01*
X174812535Y-92750000D01*
X174687465Y-92750000D01*
X174566657Y-92782370D01*
X174500000Y-92820854D01*
X174500000Y-91772768D01*
X174499999Y-91772768D01*
X174433875Y-91783241D01*
X174231784Y-91848903D01*
X174042442Y-91945379D01*
X173870540Y-92070272D01*
X173870535Y-92070276D01*
X173720276Y-92220535D01*
X173720272Y-92220540D01*
X173600627Y-92385218D01*
X173545297Y-92427884D01*
X173475684Y-92433863D01*
X173413889Y-92401257D01*
X173399991Y-92385218D01*
X173280109Y-92220214D01*
X173280105Y-92220209D01*
X173129786Y-92069890D01*
X172957815Y-91944948D01*
X172957814Y-91944947D01*
X172918205Y-91924765D01*
X172907142Y-91914316D01*
X172893297Y-91907994D01*
X172882255Y-91890812D01*
X172867409Y-91876791D01*
X172863167Y-91861111D01*
X172855523Y-91849216D01*
X172850500Y-91814281D01*
X172850500Y-91589060D01*
X172850501Y-91589047D01*
X172850501Y-91420944D01*
X172832865Y-91355126D01*
X172809577Y-91268216D01*
X172763918Y-91189131D01*
X172730524Y-91131290D01*
X172730518Y-91131282D01*
X169886819Y-88287583D01*
X169853334Y-88226260D01*
X169850500Y-88199902D01*
X169850500Y-86318335D01*
X169870185Y-86251296D01*
X169922989Y-86205541D01*
X169992147Y-86195597D01*
X170047386Y-86218018D01*
X170137463Y-86283464D01*
X170137465Y-86283465D01*
X170137468Y-86283467D01*
X170296719Y-86364609D01*
X170296721Y-86364610D01*
X170455270Y-86416125D01*
X170466703Y-86419840D01*
X170643234Y-86447800D01*
X170643235Y-86447800D01*
X170821965Y-86447800D01*
X170821966Y-86447800D01*
X170998497Y-86419840D01*
X170998500Y-86419839D01*
X170998501Y-86419839D01*
X171168478Y-86364610D01*
X171168478Y-86364609D01*
X171168481Y-86364609D01*
X171327732Y-86283467D01*
X171472328Y-86178411D01*
X171598711Y-86052028D01*
X171703767Y-85907432D01*
X171784909Y-85748181D01*
X171787135Y-85741331D01*
X171840139Y-85578201D01*
X171840139Y-85578200D01*
X171840140Y-85578197D01*
X171868100Y-85401666D01*
X171868100Y-85222934D01*
X171840140Y-85046403D01*
X171840139Y-85046399D01*
X171840139Y-85046398D01*
X171784910Y-84876421D01*
X171784909Y-84876418D01*
X171757739Y-84823095D01*
X171744843Y-84754426D01*
X171771119Y-84689685D01*
X171828225Y-84649428D01*
X171868224Y-84642800D01*
X172242152Y-84642800D01*
X172309191Y-84662485D01*
X172342469Y-84693913D01*
X172406489Y-84782028D01*
X172532872Y-84908411D01*
X172677468Y-85013467D01*
X172836719Y-85094609D01*
X172836721Y-85094610D01*
X172930019Y-85124924D01*
X173006703Y-85149840D01*
X173183234Y-85177800D01*
X173183235Y-85177800D01*
X173361965Y-85177800D01*
X173361966Y-85177800D01*
X173538497Y-85149840D01*
X173538500Y-85149839D01*
X173538501Y-85149839D01*
X173708478Y-85094610D01*
X173708478Y-85094609D01*
X173708481Y-85094609D01*
X173867732Y-85013467D01*
X174012328Y-84908411D01*
X174138711Y-84782028D01*
X174243767Y-84637432D01*
X174324909Y-84478181D01*
X174380140Y-84308197D01*
X174408100Y-84131666D01*
X174408100Y-83952934D01*
X174380140Y-83776403D01*
X174380139Y-83776399D01*
X174380139Y-83776398D01*
X174324910Y-83606421D01*
X174324908Y-83606418D01*
X174296435Y-83550535D01*
X174243767Y-83447168D01*
X174138711Y-83302572D01*
X174012328Y-83176189D01*
X173867732Y-83071133D01*
X173708481Y-82989991D01*
X173708478Y-82989989D01*
X173538499Y-82934760D01*
X173407361Y-82913990D01*
X173361966Y-82906800D01*
X173183234Y-82906800D01*
X173137839Y-82913990D01*
X173006701Y-82934760D01*
X173006698Y-82934760D01*
X172836721Y-82989989D01*
X172836718Y-82989991D01*
X172677467Y-83071133D01*
X172532870Y-83176190D01*
X172406490Y-83302570D01*
X172342470Y-83390686D01*
X172287139Y-83433352D01*
X172242152Y-83441800D01*
X171868224Y-83441800D01*
X171801185Y-83422115D01*
X171755430Y-83369311D01*
X171745486Y-83300153D01*
X171757739Y-83261505D01*
X171784909Y-83208181D01*
X171784910Y-83208178D01*
X171840139Y-83038201D01*
X171840139Y-83038200D01*
X171840140Y-83038197D01*
X171868100Y-82861666D01*
X171868100Y-82682934D01*
X171840140Y-82506403D01*
X171802970Y-82392007D01*
X171800975Y-82322171D01*
X171833219Y-82266014D01*
X172079614Y-82019619D01*
X172140935Y-81986136D01*
X172210627Y-81991120D01*
X172266560Y-82032992D01*
X172277777Y-82051006D01*
X172301431Y-82097429D01*
X172301433Y-82097432D01*
X172406489Y-82242028D01*
X172532872Y-82368411D01*
X172677468Y-82473467D01*
X172836719Y-82554609D01*
X172836721Y-82554610D01*
X172995270Y-82606125D01*
X173006703Y-82609840D01*
X173183234Y-82637800D01*
X173183235Y-82637800D01*
X173361965Y-82637800D01*
X173361966Y-82637800D01*
X173538497Y-82609840D01*
X173538500Y-82609839D01*
X173538501Y-82609839D01*
X173708478Y-82554610D01*
X173708478Y-82554609D01*
X173708481Y-82554609D01*
X173867732Y-82473467D01*
X174012328Y-82368411D01*
X174138711Y-82242028D01*
X174243767Y-82097432D01*
X174324909Y-81938181D01*
X174370186Y-81798833D01*
X174380139Y-81768201D01*
X174380139Y-81768200D01*
X174380140Y-81768197D01*
X174408100Y-81591666D01*
X174408100Y-81412934D01*
X174380140Y-81236403D01*
X174380139Y-81236399D01*
X174380139Y-81236398D01*
X174324910Y-81066421D01*
X174324908Y-81066418D01*
X174323737Y-81064118D01*
X174243767Y-80907168D01*
X174138711Y-80762572D01*
X174012328Y-80636189D01*
X173867732Y-80531133D01*
X173708481Y-80449991D01*
X173708478Y-80449989D01*
X173538499Y-80394760D01*
X173369542Y-80368000D01*
X173361966Y-80366800D01*
X173183234Y-80366800D01*
X173175658Y-80368000D01*
X173006701Y-80394760D01*
X173006698Y-80394760D01*
X172836721Y-80449989D01*
X172836712Y-80449993D01*
X172780794Y-80478485D01*
X172712125Y-80491381D01*
X172647384Y-80465104D01*
X172607128Y-80407997D01*
X172600500Y-80368000D01*
X172600500Y-80096599D01*
X172620185Y-80029560D01*
X172672989Y-79983805D01*
X172742147Y-79973861D01*
X172780795Y-79986115D01*
X172836708Y-80014604D01*
X172836721Y-80014610D01*
X172995270Y-80066125D01*
X173006703Y-80069840D01*
X173183234Y-80097800D01*
X173183235Y-80097800D01*
X173361965Y-80097800D01*
X173361966Y-80097800D01*
X173538497Y-80069840D01*
X173538500Y-80069839D01*
X173538501Y-80069839D01*
X173708478Y-80014610D01*
X173708478Y-80014609D01*
X173708481Y-80014609D01*
X173867732Y-79933467D01*
X174012328Y-79828411D01*
X174138711Y-79702028D01*
X174243767Y-79557432D01*
X174324909Y-79398181D01*
X174368501Y-79264018D01*
X174380139Y-79228201D01*
X174380139Y-79228200D01*
X174380140Y-79228197D01*
X174408100Y-79051666D01*
X174408100Y-78872934D01*
X174380140Y-78696403D01*
X174380139Y-78696399D01*
X174380139Y-78696398D01*
X174324910Y-78526421D01*
X174324908Y-78526418D01*
X174323737Y-78524118D01*
X174243767Y-78367168D01*
X174138711Y-78222572D01*
X174012328Y-78096189D01*
X173867732Y-77991133D01*
X173708481Y-77909991D01*
X173708478Y-77909989D01*
X173538499Y-77854760D01*
X173369542Y-77828000D01*
X173361966Y-77826800D01*
X173183234Y-77826800D01*
X173175658Y-77828000D01*
X173006701Y-77854760D01*
X173006698Y-77854760D01*
X172836721Y-77909989D01*
X172836712Y-77909993D01*
X172780794Y-77938485D01*
X172778089Y-77938992D01*
X172776011Y-77940794D01*
X172743957Y-77945402D01*
X172712125Y-77951381D01*
X172709576Y-77950346D01*
X172706853Y-77950738D01*
X172677391Y-77937283D01*
X172647384Y-77925104D01*
X172645799Y-77922855D01*
X172643297Y-77921713D01*
X172625786Y-77894465D01*
X172607128Y-77867997D01*
X172606555Y-77864541D01*
X172605523Y-77862935D01*
X172600500Y-77828000D01*
X172600500Y-77800097D01*
X172620185Y-77733058D01*
X172636819Y-77712416D01*
X173037935Y-77311300D01*
X173480520Y-76868716D01*
X173559577Y-76731784D01*
X173600501Y-76579057D01*
X173600501Y-76420942D01*
X173600501Y-76413347D01*
X173600500Y-76413329D01*
X173600500Y-76287205D01*
X177217100Y-76287205D01*
X177217100Y-76557394D01*
X177247349Y-76825858D01*
X177247351Y-76825870D01*
X177307472Y-77089279D01*
X177396706Y-77344296D01*
X177513931Y-77587716D01*
X177513933Y-77587719D01*
X177657677Y-77816487D01*
X177826132Y-78027722D01*
X178017178Y-78218768D01*
X178228413Y-78387223D01*
X178457181Y-78530967D01*
X178700605Y-78648194D01*
X178955620Y-78737427D01*
X178955622Y-78737427D01*
X178955623Y-78737428D01*
X179219029Y-78797549D01*
X179487505Y-78827799D01*
X179487506Y-78827800D01*
X179487510Y-78827800D01*
X179757694Y-78827800D01*
X179757694Y-78827799D01*
X180026171Y-78797549D01*
X180289577Y-78737428D01*
X180544595Y-78648194D01*
X180788019Y-78530967D01*
X181016787Y-78387223D01*
X181228022Y-78218768D01*
X181419068Y-78027722D01*
X181587523Y-77816487D01*
X181731267Y-77587719D01*
X181848494Y-77344295D01*
X181937728Y-77089277D01*
X181997849Y-76825871D01*
X182028100Y-76557390D01*
X182028100Y-76287210D01*
X181997849Y-76018729D01*
X181937728Y-75755323D01*
X181848494Y-75500305D01*
X181731267Y-75256881D01*
X181587523Y-75028113D01*
X181419068Y-74816878D01*
X181228022Y-74625832D01*
X181205972Y-74608248D01*
X181174376Y-74583051D01*
X181016787Y-74457377D01*
X180788019Y-74313633D01*
X180788016Y-74313631D01*
X180544596Y-74196406D01*
X180289578Y-74107172D01*
X180289580Y-74107172D01*
X180092022Y-74062081D01*
X180026171Y-74047051D01*
X180026167Y-74047050D01*
X180026158Y-74047049D01*
X179757694Y-74016800D01*
X179757690Y-74016800D01*
X179487510Y-74016800D01*
X179487506Y-74016800D01*
X179219041Y-74047049D01*
X179219029Y-74047051D01*
X178955620Y-74107172D01*
X178700603Y-74196406D01*
X178457183Y-74313631D01*
X178228414Y-74457376D01*
X178017178Y-74625831D01*
X177826131Y-74816878D01*
X177657676Y-75028114D01*
X177513931Y-75256883D01*
X177396706Y-75500303D01*
X177307472Y-75755320D01*
X177247351Y-76018729D01*
X177247349Y-76018741D01*
X177217100Y-76287205D01*
X173600500Y-76287205D01*
X173600500Y-73339060D01*
X173600501Y-73339047D01*
X173600501Y-73170944D01*
X173559576Y-73018214D01*
X173559573Y-73018209D01*
X173480524Y-72881290D01*
X173480518Y-72881282D01*
X172903463Y-72304227D01*
X172108260Y-71509025D01*
X172074776Y-71447703D01*
X172073469Y-71401951D01*
X172100500Y-71231287D01*
X172100500Y-70768713D01*
X172067246Y-70558757D01*
X172001557Y-70356588D01*
X171905051Y-70167184D01*
X171905049Y-70167181D01*
X171905048Y-70167179D01*
X171780109Y-69995213D01*
X171629786Y-69844890D01*
X171457820Y-69719951D01*
X171268414Y-69623444D01*
X171268413Y-69623443D01*
X171268412Y-69623443D01*
X171066243Y-69557754D01*
X171066241Y-69557753D01*
X171066240Y-69557753D01*
X170904957Y-69532208D01*
X170856287Y-69524500D01*
X170643713Y-69524500D01*
X170595042Y-69532208D01*
X170433760Y-69557753D01*
X170231585Y-69623444D01*
X170042179Y-69719951D01*
X169870213Y-69844890D01*
X169719894Y-69995209D01*
X169719890Y-69995214D01*
X169600318Y-70159793D01*
X169544989Y-70202459D01*
X169475375Y-70208438D01*
X169413580Y-70175833D01*
X169399682Y-70159793D01*
X169280109Y-69995214D01*
X169280105Y-69995209D01*
X169129786Y-69844890D01*
X168957820Y-69719951D01*
X168768414Y-69623444D01*
X168768413Y-69623443D01*
X168768412Y-69623443D01*
X168566243Y-69557754D01*
X168566241Y-69557753D01*
X168566240Y-69557753D01*
X168404957Y-69532208D01*
X168356287Y-69524500D01*
X168143713Y-69524500D01*
X168095042Y-69532208D01*
X167933760Y-69557753D01*
X167731585Y-69623444D01*
X167542179Y-69719951D01*
X167370213Y-69844890D01*
X167219894Y-69995209D01*
X167219890Y-69995214D01*
X167100318Y-70159793D01*
X167044989Y-70202459D01*
X166975375Y-70208438D01*
X166913580Y-70175833D01*
X166899682Y-70159793D01*
X166780109Y-69995214D01*
X166780105Y-69995209D01*
X166629786Y-69844890D01*
X166457820Y-69719951D01*
X166268414Y-69623444D01*
X166268413Y-69623443D01*
X166268412Y-69623443D01*
X166066243Y-69557754D01*
X166066241Y-69557753D01*
X166066240Y-69557753D01*
X165904957Y-69532208D01*
X165856287Y-69524500D01*
X165643713Y-69524500D01*
X165595042Y-69532208D01*
X165433760Y-69557753D01*
X165231585Y-69623444D01*
X165042179Y-69719951D01*
X164870213Y-69844890D01*
X164719894Y-69995209D01*
X164719890Y-69995214D01*
X164600008Y-70160218D01*
X164544678Y-70202884D01*
X164475065Y-70208863D01*
X164413270Y-70176257D01*
X164399372Y-70160218D01*
X164279727Y-69995540D01*
X164279723Y-69995535D01*
X164129464Y-69845276D01*
X164129459Y-69845272D01*
X163957557Y-69720379D01*
X163768215Y-69623903D01*
X163566124Y-69558241D01*
X163500000Y-69547768D01*
X163500000Y-70595854D01*
X163433343Y-70557370D01*
X163312535Y-70525000D01*
X163187465Y-70525000D01*
X163066657Y-70557370D01*
X163000000Y-70595854D01*
X163000000Y-69547768D01*
X162999999Y-69547768D01*
X162933875Y-69558241D01*
X162731784Y-69623903D01*
X162542442Y-69720379D01*
X162370540Y-69845272D01*
X162370535Y-69845276D01*
X162220276Y-69995535D01*
X162220272Y-69995540D01*
X162100627Y-70160218D01*
X162045297Y-70202884D01*
X161975684Y-70208863D01*
X161913889Y-70176257D01*
X161899991Y-70160218D01*
X161780109Y-69995214D01*
X161780105Y-69995209D01*
X161629786Y-69844890D01*
X161457820Y-69719951D01*
X161268414Y-69623444D01*
X161268413Y-69623443D01*
X161268412Y-69623443D01*
X161166055Y-69590185D01*
X161066241Y-69557753D01*
X161036723Y-69553078D01*
X160973589Y-69523147D01*
X160936659Y-69463835D01*
X160937658Y-69393973D01*
X160968440Y-69342926D01*
X161524548Y-68786819D01*
X161585871Y-68753334D01*
X161612229Y-68750500D01*
X174365601Y-68750500D01*
X174432640Y-68770185D01*
X174459106Y-68794538D01*
X174459765Y-68793961D01*
X174462445Y-68797017D01*
X174655282Y-68989854D01*
X174655289Y-68989860D01*
X174871656Y-69155884D01*
X175111360Y-69294277D01*
X175110619Y-69295559D01*
X175157484Y-69338682D01*
X175175160Y-69406279D01*
X175153484Y-69472701D01*
X175110907Y-69509603D01*
X175111582Y-69510772D01*
X174871933Y-69649131D01*
X174655617Y-69815118D01*
X174462818Y-70007917D01*
X174296831Y-70224233D01*
X174160503Y-70460362D01*
X174160499Y-70460372D01*
X174056159Y-70712270D01*
X173985588Y-70975644D01*
X173964965Y-71132300D01*
X175683520Y-71132300D01*
X175682665Y-71134364D01*
X175650000Y-71298582D01*
X175650000Y-71466018D01*
X175682665Y-71630236D01*
X175683520Y-71632300D01*
X173964965Y-71632300D01*
X173985588Y-71788955D01*
X174056159Y-72052329D01*
X174160499Y-72304227D01*
X174160503Y-72304237D01*
X174296831Y-72540366D01*
X174462818Y-72756682D01*
X174462826Y-72756691D01*
X174655609Y-72949474D01*
X174655617Y-72949481D01*
X174871933Y-73115468D01*
X175108062Y-73251796D01*
X175108072Y-73251800D01*
X175359970Y-73356140D01*
X175623344Y-73426711D01*
X175893669Y-73462300D01*
X176250000Y-73462300D01*
X176250000Y-72198780D01*
X176252064Y-72199635D01*
X176416282Y-72232300D01*
X176583718Y-72232300D01*
X176747936Y-72199635D01*
X176750000Y-72198780D01*
X176750000Y-73462300D01*
X177106331Y-73462300D01*
X177376655Y-73426711D01*
X177640029Y-73356140D01*
X177891927Y-73251800D01*
X177891937Y-73251796D01*
X178128066Y-73115468D01*
X178344382Y-72949481D01*
X178344391Y-72949474D01*
X178537174Y-72756691D01*
X178537181Y-72756682D01*
X178703168Y-72540366D01*
X178839496Y-72304237D01*
X178839500Y-72304227D01*
X178943840Y-72052329D01*
X179014411Y-71788955D01*
X179035035Y-71632300D01*
X177316480Y-71632300D01*
X177317335Y-71630236D01*
X177350000Y-71466018D01*
X177350000Y-71298582D01*
X177317335Y-71134364D01*
X177316480Y-71132300D01*
X179035034Y-71132300D01*
X179014411Y-70975644D01*
X178943840Y-70712270D01*
X178839500Y-70460372D01*
X178839496Y-70460362D01*
X178703168Y-70224233D01*
X178537181Y-70007917D01*
X178537174Y-70007909D01*
X178344391Y-69815126D01*
X178344382Y-69815118D01*
X178128066Y-69649131D01*
X177888418Y-69510772D01*
X177889193Y-69509428D01*
X177842514Y-69466475D01*
X177824839Y-69398878D01*
X177846516Y-69332456D01*
X177889289Y-69295401D01*
X177888640Y-69294277D01*
X177903993Y-69285412D01*
X178128344Y-69155884D01*
X178344712Y-68989859D01*
X178537559Y-68797012D01*
X178703584Y-68580644D01*
X178839947Y-68344456D01*
X178944315Y-68092490D01*
X179014902Y-67829056D01*
X179050500Y-67558663D01*
X179050500Y-67285937D01*
X179014902Y-67015544D01*
X178944315Y-66752110D01*
X178893923Y-66630454D01*
X178839952Y-66500155D01*
X178839945Y-66500140D01*
X178703584Y-66263956D01*
X178537560Y-66047589D01*
X178537554Y-66047582D01*
X178344717Y-65854745D01*
X178344710Y-65854739D01*
X178227988Y-65765175D01*
X178186785Y-65708747D01*
X178182630Y-65639001D01*
X178216842Y-65578081D01*
X178278560Y-65545328D01*
X178303474Y-65542799D01*
X178350002Y-65542799D01*
X178350008Y-65542799D01*
X178452797Y-65532299D01*
X178619334Y-65477114D01*
X178768656Y-65385012D01*
X178892712Y-65260956D01*
X178984814Y-65111634D01*
X179039999Y-64945097D01*
X179050500Y-64842309D01*
X179050499Y-62082292D01*
X179039999Y-61979503D01*
X178984814Y-61812966D01*
X178892712Y-61663644D01*
X178768656Y-61539588D01*
X178619334Y-61447486D01*
X178452797Y-61392301D01*
X178452795Y-61392300D01*
X178350010Y-61381800D01*
X174649998Y-61381800D01*
X174649981Y-61381801D01*
X174547203Y-61392300D01*
X174547200Y-61392301D01*
X174380668Y-61447485D01*
X174380663Y-61447487D01*
X174231342Y-61539589D01*
X174107289Y-61663642D01*
X174015187Y-61812963D01*
X174015186Y-61812966D01*
X173960001Y-61979503D01*
X173960001Y-61979504D01*
X173960000Y-61979504D01*
X173949500Y-62082283D01*
X173949500Y-62587800D01*
X173929815Y-62654839D01*
X173877011Y-62700594D01*
X173825500Y-62711800D01*
X173713780Y-62711800D01*
X173568792Y-62740640D01*
X173568782Y-62740643D01*
X173432211Y-62797212D01*
X173432198Y-62797219D01*
X173309284Y-62879348D01*
X173309280Y-62879351D01*
X171667638Y-64520993D01*
X171606315Y-64554478D01*
X171536623Y-64549494D01*
X171480690Y-64507622D01*
X171456273Y-64442158D01*
X171462026Y-64394994D01*
X171472246Y-64363543D01*
X171505500Y-64153587D01*
X171505500Y-63691013D01*
X171472246Y-63481057D01*
X171406557Y-63278888D01*
X171310051Y-63089484D01*
X171310049Y-63089481D01*
X171310048Y-63089479D01*
X171185109Y-62917513D01*
X171034786Y-62767190D01*
X170862820Y-62642251D01*
X170673414Y-62545744D01*
X170673413Y-62545743D01*
X170673412Y-62545743D01*
X170471243Y-62480054D01*
X170471241Y-62480053D01*
X170471240Y-62480053D01*
X170296858Y-62452434D01*
X170261287Y-62446800D01*
X170048713Y-62446800D01*
X170013142Y-62452434D01*
X169838760Y-62480053D01*
X169636585Y-62545744D01*
X169447179Y-62642251D01*
X169275213Y-62767190D01*
X169124894Y-62917509D01*
X169124890Y-62917514D01*
X169005318Y-63082093D01*
X168949989Y-63124759D01*
X168880375Y-63130738D01*
X168818580Y-63098133D01*
X168804682Y-63082093D01*
X168685109Y-62917514D01*
X168685105Y-62917509D01*
X168534786Y-62767190D01*
X168362820Y-62642251D01*
X168173414Y-62545744D01*
X168173413Y-62545743D01*
X168173412Y-62545743D01*
X167971243Y-62480054D01*
X167971241Y-62480053D01*
X167971240Y-62480053D01*
X167796858Y-62452434D01*
X167761287Y-62446800D01*
X167548713Y-62446800D01*
X167345360Y-62479007D01*
X167276067Y-62470052D01*
X167238282Y-62444215D01*
X165711121Y-60917052D01*
X165711114Y-60917046D01*
X165637429Y-60867812D01*
X165637429Y-60867813D01*
X165588191Y-60834913D01*
X165451617Y-60778343D01*
X165451607Y-60778340D01*
X165306620Y-60749500D01*
X165306618Y-60749500D01*
X159554604Y-60749500D01*
X159546434Y-60747875D01*
X159541363Y-60748791D01*
X159507170Y-60740068D01*
X159504745Y-60739064D01*
X159450341Y-60695232D01*
X159428269Y-60628940D01*
X159445540Y-60561239D01*
X159496672Y-60513622D01*
X159552189Y-60500500D01*
X183934108Y-60500500D01*
X183996949Y-60500500D01*
X184003032Y-60500648D01*
X184336929Y-60517052D01*
X184349037Y-60518245D01*
X184362116Y-60520185D01*
X184676699Y-60566849D01*
X184688617Y-60569219D01*
X185009951Y-60649709D01*
X185021588Y-60653240D01*
X185092806Y-60678722D01*
X185333467Y-60764832D01*
X185344688Y-60769479D01*
X185644163Y-60911120D01*
X185654871Y-60916844D01*
X185815698Y-61013240D01*
X185938988Y-61087137D01*
X185949103Y-61093895D01*
X185985417Y-61120827D01*
X186215170Y-61291224D01*
X186224576Y-61298944D01*
X186470013Y-61521395D01*
X186478604Y-61529986D01*
X186599743Y-61663642D01*
X186701055Y-61775423D01*
X186708775Y-61784829D01*
X186906102Y-62050893D01*
X186912862Y-62061011D01*
X187069885Y-62322989D01*
X187083148Y-62345116D01*
X187088883Y-62355844D01*
X187224343Y-62642251D01*
X187230514Y-62655297D01*
X187235170Y-62666540D01*
X187346759Y-62978411D01*
X187350292Y-62990055D01*
X187430777Y-63311369D01*
X187433151Y-63323305D01*
X187481754Y-63650962D01*
X187482947Y-63663071D01*
X187499351Y-63996966D01*
X187499500Y-64003051D01*
X187499500Y-100162649D01*
X187479815Y-100229688D01*
X187427011Y-100275443D01*
X187357853Y-100285387D01*
X187294297Y-100256362D01*
X187256523Y-100197584D01*
X187253883Y-100186840D01*
X187253525Y-100185043D01*
X187253524Y-100185038D01*
X187157974Y-99870053D01*
X187032014Y-99565960D01*
X187032012Y-99565955D01*
X186876862Y-99275690D01*
X186876851Y-99275672D01*
X186693992Y-99002004D01*
X186693989Y-99002000D01*
X186539634Y-98813917D01*
X186539633Y-98813917D01*
X185294251Y-100059300D01*
X185220412Y-99957670D01*
X185042330Y-99779588D01*
X184940697Y-99705747D01*
X186186081Y-98460365D01*
X186186081Y-98460364D01*
X185997999Y-98306010D01*
X185997995Y-98306007D01*
X185724327Y-98123148D01*
X185724309Y-98123137D01*
X185434044Y-97967987D01*
X185434039Y-97967985D01*
X185129946Y-97842025D01*
X184814961Y-97746475D01*
X184814956Y-97746474D01*
X184492139Y-97682261D01*
X184164572Y-97650000D01*
X183835428Y-97650000D01*
X183507860Y-97682261D01*
X183185043Y-97746474D01*
X183185038Y-97746475D01*
X182870053Y-97842025D01*
X182565960Y-97967985D01*
X182565955Y-97967987D01*
X182275690Y-98123137D01*
X182275672Y-98123148D01*
X182002004Y-98306007D01*
X182001999Y-98306010D01*
X181813917Y-98460364D01*
X181813917Y-98460365D01*
X183059301Y-99705748D01*
X182957670Y-99779588D01*
X182779588Y-99957670D01*
X182705748Y-100059301D01*
X181460365Y-98813917D01*
X181460364Y-98813917D01*
X181306010Y-99001999D01*
X181306007Y-99002004D01*
X181123148Y-99275672D01*
X181123137Y-99275690D01*
X180967987Y-99565955D01*
X180967985Y-99565960D01*
X180842025Y-99870053D01*
X180746475Y-100185038D01*
X180746474Y-100185043D01*
X180682261Y-100507860D01*
X180650000Y-100835428D01*
X180650000Y-101164571D01*
X180682261Y-101492139D01*
X180746474Y-101814956D01*
X180746475Y-101814961D01*
X180842025Y-102129946D01*
X180967985Y-102434039D01*
X180967987Y-102434044D01*
X181123137Y-102724309D01*
X181123148Y-102724327D01*
X181306007Y-102997995D01*
X181306010Y-102997999D01*
X181460364Y-103186081D01*
X181460365Y-103186081D01*
X182705747Y-101940698D01*
X182779588Y-102042330D01*
X182957670Y-102220412D01*
X183059300Y-102294251D01*
X181813917Y-103539633D01*
X181813917Y-103539634D01*
X182002000Y-103693989D01*
X182002004Y-103693992D01*
X182275672Y-103876851D01*
X182275690Y-103876862D01*
X182565955Y-104032012D01*
X182565960Y-104032014D01*
X182870053Y-104157974D01*
X183185038Y-104253524D01*
X183185043Y-104253525D01*
X183186840Y-104253883D01*
X183187179Y-104254060D01*
X183187980Y-104254261D01*
X183187943Y-104254405D01*
X183187948Y-104254407D01*
X183187933Y-104254454D01*
X183248751Y-104286268D01*
X183283326Y-104346984D01*
X183279586Y-104416753D01*
X183238719Y-104473425D01*
X183173701Y-104499006D01*
X183162649Y-104499500D01*
X154003051Y-104499500D01*
X153996968Y-104499351D01*
X153976900Y-104498365D01*
X153663071Y-104482947D01*
X153650962Y-104481754D01*
X153323305Y-104433151D01*
X153311369Y-104430777D01*
X152990055Y-104350292D01*
X152978411Y-104346759D01*
X152666540Y-104235170D01*
X152655301Y-104230515D01*
X152355844Y-104088883D01*
X152345121Y-104083150D01*
X152061011Y-103912862D01*
X152050893Y-103906102D01*
X151784829Y-103708775D01*
X151775423Y-103701055D01*
X151736475Y-103665755D01*
X151529986Y-103478604D01*
X151521395Y-103470013D01*
X151298944Y-103224576D01*
X151291224Y-103215170D01*
X151143882Y-103016503D01*
X151093895Y-102949103D01*
X151087137Y-102938988D01*
X150916844Y-102654871D01*
X150911120Y-102644163D01*
X150769479Y-102344688D01*
X150764829Y-102333459D01*
X150761836Y-102325095D01*
X150692011Y-102129946D01*
X150653240Y-102021588D01*
X150649707Y-102009944D01*
X150640958Y-101975015D01*
X150569219Y-101688617D01*
X150566848Y-101676694D01*
X150565481Y-101667481D01*
X150518245Y-101349037D01*
X150517052Y-101336927D01*
X150515237Y-101299990D01*
X150500649Y-101003032D01*
X150500500Y-100996948D01*
X150500500Y-87714905D01*
X155704500Y-87714905D01*
X155704500Y-87985094D01*
X155734749Y-88253558D01*
X155734751Y-88253570D01*
X155794872Y-88516979D01*
X155884106Y-88771996D01*
X156001331Y-89015416D01*
X156001333Y-89015419D01*
X156145077Y-89244187D01*
X156313532Y-89455422D01*
X156504578Y-89646468D01*
X156715813Y-89814923D01*
X156944581Y-89958667D01*
X157188005Y-90075894D01*
X157443020Y-90165127D01*
X157443022Y-90165127D01*
X157443023Y-90165128D01*
X157706429Y-90225249D01*
X157974905Y-90255499D01*
X157974906Y-90255500D01*
X157974910Y-90255500D01*
X158245094Y-90255500D01*
X158245094Y-90255499D01*
X158513571Y-90225249D01*
X158776977Y-90165128D01*
X159031995Y-90075894D01*
X159275419Y-89958667D01*
X159504187Y-89814923D01*
X159715422Y-89646468D01*
X159906468Y-89455422D01*
X160074923Y-89244187D01*
X160218667Y-89015419D01*
X160335894Y-88771995D01*
X160425128Y-88516977D01*
X160485249Y-88253571D01*
X160515500Y-87985090D01*
X160515500Y-87714910D01*
X160485249Y-87446429D01*
X160425128Y-87183023D01*
X160335894Y-86928005D01*
X160218667Y-86684581D01*
X160074923Y-86455813D01*
X159906468Y-86244578D01*
X159715422Y-86053532D01*
X159713537Y-86052029D01*
X159647475Y-85999346D01*
X159504187Y-85885077D01*
X159282657Y-85745881D01*
X159275416Y-85741331D01*
X159031996Y-85624106D01*
X158776978Y-85534872D01*
X158776980Y-85534872D01*
X158579422Y-85489781D01*
X158513571Y-85474751D01*
X158513567Y-85474750D01*
X158513558Y-85474749D01*
X158245094Y-85444500D01*
X158245090Y-85444500D01*
X157974910Y-85444500D01*
X157974906Y-85444500D01*
X157706441Y-85474749D01*
X157706429Y-85474751D01*
X157443020Y-85534872D01*
X157188003Y-85624106D01*
X156944583Y-85741331D01*
X156715814Y-85885076D01*
X156504578Y-86053531D01*
X156313531Y-86244578D01*
X156145076Y-86455814D01*
X156001331Y-86684583D01*
X155884106Y-86928003D01*
X155794872Y-87183020D01*
X155734751Y-87446429D01*
X155734749Y-87446441D01*
X155704500Y-87714905D01*
X150500500Y-87714905D01*
X150500500Y-64581060D01*
X150520185Y-64514021D01*
X150572989Y-64468266D01*
X150642147Y-64458322D01*
X150705703Y-64487347D01*
X150743477Y-64546125D01*
X150746117Y-64556869D01*
X150795030Y-64802781D01*
X150795033Y-64802792D01*
X150889157Y-65113078D01*
X151013238Y-65412635D01*
X151013240Y-65412640D01*
X151166079Y-65698580D01*
X151166090Y-65698598D01*
X151346212Y-65968170D01*
X151346222Y-65968184D01*
X151495890Y-66150554D01*
X151495891Y-66150555D01*
X152705747Y-64940698D01*
X152779588Y-65042330D01*
X152957670Y-65220412D01*
X153059300Y-65294251D01*
X151849443Y-66504107D01*
X151849444Y-66504108D01*
X152031815Y-66653777D01*
X152031829Y-66653787D01*
X152301401Y-66833909D01*
X152301419Y-66833920D01*
X152587359Y-66986759D01*
X152587364Y-66986761D01*
X152886921Y-67110842D01*
X153197207Y-67204966D01*
X153197218Y-67204969D01*
X153515198Y-67268217D01*
X153515215Y-67268220D01*
X153837884Y-67300000D01*
X154162116Y-67300000D01*
X154484784Y-67268220D01*
X154484801Y-67268217D01*
X154802781Y-67204969D01*
X154802792Y-67204966D01*
X155113078Y-67110842D01*
X155412635Y-66986761D01*
X155412640Y-66986759D01*
X155698580Y-66833920D01*
X155698598Y-66833909D01*
X155968170Y-66653787D01*
X155968183Y-66653777D01*
X156150554Y-66504108D01*
X156150554Y-66504107D01*
X154940698Y-65294251D01*
X155042330Y-65220412D01*
X155220412Y-65042330D01*
X155294251Y-64940698D01*
X156504107Y-66150554D01*
X156504108Y-66150554D01*
X156653777Y-65968183D01*
X156653787Y-65968170D01*
X156833909Y-65698598D01*
X156833920Y-65698580D01*
X156986759Y-65412640D01*
X156986761Y-65412635D01*
X157110842Y-65113078D01*
X157204966Y-64802792D01*
X157204969Y-64802781D01*
X157268217Y-64484801D01*
X157268220Y-64484784D01*
X157300000Y-64162115D01*
X157300000Y-63837884D01*
X157268220Y-63515215D01*
X157268217Y-63515198D01*
X157204969Y-63197218D01*
X157204966Y-63197207D01*
X157110842Y-62886921D01*
X156986761Y-62587364D01*
X156986759Y-62587359D01*
X156833920Y-62301419D01*
X156833909Y-62301401D01*
X156653787Y-62031829D01*
X156653777Y-62031815D01*
X156504108Y-61849444D01*
X156504107Y-61849443D01*
X155294250Y-63059299D01*
X155220412Y-62957670D01*
X155042330Y-62779588D01*
X154940698Y-62705747D01*
X156150555Y-61495891D01*
X156150554Y-61495890D01*
X155968184Y-61346222D01*
X155968170Y-61346212D01*
X155698598Y-61166090D01*
X155698580Y-61166079D01*
X155412640Y-61013240D01*
X155412635Y-61013238D01*
X155113078Y-60889157D01*
X154802792Y-60795033D01*
X154802781Y-60795030D01*
X154556870Y-60746117D01*
X154494959Y-60713733D01*
X154460385Y-60653017D01*
X154464124Y-60583247D01*
X154504990Y-60526575D01*
X154570008Y-60500994D01*
X154581061Y-60500500D01*
X158947810Y-60500500D01*
X159014849Y-60520185D01*
G37*
%TD.AperFunction*%
%TA.AperFunction,Conductor*%
G36*
X181086729Y-94048741D02*
G01*
X181100627Y-94064781D01*
X181220272Y-94229459D01*
X181220276Y-94229464D01*
X181370535Y-94379723D01*
X181374247Y-94382894D01*
X181372817Y-94384567D01*
X181409880Y-94432697D01*
X181415811Y-94502315D01*
X181383164Y-94564088D01*
X181381979Y-94565288D01*
X178484087Y-97463181D01*
X178422764Y-97496666D01*
X178396406Y-97499500D01*
X165926080Y-97499500D01*
X165781092Y-97528340D01*
X165781082Y-97528343D01*
X165644509Y-97584913D01*
X165644500Y-97584918D01*
X165636725Y-97590114D01*
X165636723Y-97590116D01*
X165521579Y-97667051D01*
X163870534Y-99318096D01*
X163809211Y-99351581D01*
X163739519Y-99346597D01*
X163683586Y-99304725D01*
X163665149Y-99269421D01*
X163639814Y-99192966D01*
X163547712Y-99043644D01*
X163423656Y-98919588D01*
X163274334Y-98827486D01*
X163107797Y-98772301D01*
X163107795Y-98772300D01*
X163005016Y-98761800D01*
X163005009Y-98761800D01*
X162958475Y-98761800D01*
X162891436Y-98742115D01*
X162845681Y-98689311D01*
X162835737Y-98620153D01*
X162864762Y-98556597D01*
X162882989Y-98539424D01*
X162986020Y-98460365D01*
X162999712Y-98449859D01*
X163192559Y-98257012D01*
X163358584Y-98040644D01*
X163494947Y-97804456D01*
X163599315Y-97552490D01*
X163669902Y-97289056D01*
X163693697Y-97108314D01*
X163721963Y-97044418D01*
X163780288Y-97005947D01*
X163816636Y-97000500D01*
X176798920Y-97000500D01*
X176896462Y-96981096D01*
X176943913Y-96971658D01*
X177080495Y-96915084D01*
X177129729Y-96882186D01*
X177203416Y-96832952D01*
X179333284Y-94703082D01*
X179394605Y-94669599D01*
X179440361Y-94668292D01*
X179643713Y-94700500D01*
X179643714Y-94700500D01*
X179856286Y-94700500D01*
X179856287Y-94700500D01*
X180066243Y-94667246D01*
X180268412Y-94601557D01*
X180457816Y-94505051D01*
X180479789Y-94489086D01*
X180629786Y-94380109D01*
X180629788Y-94380106D01*
X180629792Y-94380104D01*
X180780104Y-94229792D01*
X180899991Y-94064779D01*
X180955320Y-94022115D01*
X181024933Y-94016136D01*
X181086729Y-94048741D01*
G37*
%TD.AperFunction*%
%TA.AperFunction,Conductor*%
G36*
X167961348Y-87187794D02*
G01*
X167970737Y-87174872D01*
X167970739Y-87174867D01*
X168014015Y-87089936D01*
X168061990Y-87039140D01*
X168129811Y-87022345D01*
X168195946Y-87044882D01*
X168239397Y-87099598D01*
X168248500Y-87146231D01*
X168248500Y-89762330D01*
X168248499Y-89762348D01*
X168248499Y-89928054D01*
X168248498Y-89928054D01*
X168289422Y-90080783D01*
X168311322Y-90118714D01*
X168311324Y-90118717D01*
X168368479Y-90217714D01*
X168368481Y-90217717D01*
X168487349Y-90336585D01*
X168487355Y-90336590D01*
X169113181Y-90962416D01*
X169146666Y-91023739D01*
X169149500Y-91050097D01*
X169149500Y-91814281D01*
X169129815Y-91881320D01*
X169081795Y-91924765D01*
X169042185Y-91944947D01*
X169042184Y-91944948D01*
X168870213Y-92069890D01*
X168719894Y-92220209D01*
X168719890Y-92220214D01*
X168600318Y-92384793D01*
X168544989Y-92427459D01*
X168475375Y-92433438D01*
X168413580Y-92400833D01*
X168399682Y-92384793D01*
X168280109Y-92220214D01*
X168280105Y-92220209D01*
X168129786Y-92069890D01*
X167957815Y-91944948D01*
X167957814Y-91944947D01*
X167918205Y-91924765D01*
X167867409Y-91876791D01*
X167850500Y-91814281D01*
X167850500Y-90420945D01*
X167850500Y-90420943D01*
X167809577Y-90268216D01*
X167809577Y-90268215D01*
X167794999Y-90242965D01*
X167780422Y-90217717D01*
X167780421Y-90217716D01*
X167730520Y-90131284D01*
X167618716Y-90019480D01*
X167618715Y-90019479D01*
X167614385Y-90015149D01*
X167614374Y-90015139D01*
X167136819Y-89537584D01*
X167103334Y-89476261D01*
X167100500Y-89449903D01*
X167100500Y-89356945D01*
X167100500Y-89356943D01*
X167080175Y-89281088D01*
X167059577Y-89204215D01*
X167025103Y-89144505D01*
X166980520Y-89067284D01*
X166868716Y-88955480D01*
X166868715Y-88955479D01*
X166864385Y-88951149D01*
X166864374Y-88951139D01*
X166700819Y-88787584D01*
X166667334Y-88726261D01*
X166664500Y-88699903D01*
X166664500Y-87821195D01*
X166684185Y-87754156D01*
X166736989Y-87708401D01*
X166806147Y-87698457D01*
X166807899Y-87698722D01*
X166910670Y-87715000D01*
X167089331Y-87715000D01*
X167265780Y-87687053D01*
X167435693Y-87631844D01*
X167594867Y-87550739D01*
X167594872Y-87550737D01*
X167607794Y-87541348D01*
X167027446Y-86961000D01*
X167050160Y-86961000D01*
X167147061Y-86935036D01*
X167233940Y-86884876D01*
X167304876Y-86813940D01*
X167355036Y-86727061D01*
X167381000Y-86630160D01*
X167381000Y-86607446D01*
X167961348Y-87187794D01*
G37*
%TD.AperFunction*%
%TA.AperFunction,Conductor*%
G36*
X167991136Y-84757217D02*
G01*
X168035483Y-84785718D01*
X168212181Y-84962416D01*
X168245666Y-85023739D01*
X168248500Y-85050097D01*
X168248500Y-86013768D01*
X168228815Y-86080807D01*
X168176011Y-86126562D01*
X168106853Y-86136506D01*
X168043297Y-86107481D01*
X168014016Y-86070063D01*
X167970743Y-85985137D01*
X167970739Y-85985130D01*
X167961347Y-85972205D01*
X167381000Y-86552552D01*
X167381000Y-86529840D01*
X167355036Y-86432939D01*
X167304876Y-86346060D01*
X167233940Y-86275124D01*
X167147061Y-86224964D01*
X167050160Y-86199000D01*
X167027446Y-86199000D01*
X167607794Y-85618651D01*
X167594869Y-85609260D01*
X167435693Y-85528155D01*
X167265780Y-85472946D01*
X167089331Y-85445000D01*
X166910669Y-85445000D01*
X166807898Y-85461277D01*
X166789358Y-85458881D01*
X166770853Y-85461542D01*
X166755423Y-85454495D01*
X166738604Y-85452322D01*
X166724302Y-85440283D01*
X166707297Y-85432517D01*
X166698127Y-85418248D01*
X166685152Y-85407326D01*
X166679629Y-85389465D01*
X166669523Y-85373739D01*
X166664964Y-85342033D01*
X166664513Y-85340574D01*
X166664500Y-85338804D01*
X166664500Y-85281701D01*
X166684185Y-85214662D01*
X166736989Y-85168907D01*
X166806147Y-85158963D01*
X166807886Y-85159226D01*
X166910634Y-85175500D01*
X166910635Y-85175500D01*
X167089365Y-85175500D01*
X167089366Y-85175500D01*
X167265897Y-85147540D01*
X167265900Y-85147539D01*
X167265901Y-85147539D01*
X167435878Y-85092310D01*
X167435878Y-85092309D01*
X167435881Y-85092309D01*
X167595132Y-85011167D01*
X167739728Y-84906111D01*
X167860121Y-84785718D01*
X167921444Y-84752233D01*
X167991136Y-84757217D01*
G37*
%TD.AperFunction*%
%TA.AperFunction,Conductor*%
G36*
X171328867Y-72428102D02*
G01*
X172363181Y-73462416D01*
X172396666Y-73523739D01*
X172399500Y-73550097D01*
X172399500Y-76199902D01*
X172379815Y-76266941D01*
X172363181Y-76287583D01*
X171519481Y-77131282D01*
X171519475Y-77131290D01*
X171477187Y-77204536D01*
X171477184Y-77204543D01*
X171473119Y-77211584D01*
X171440423Y-77268215D01*
X171421367Y-77339329D01*
X171418257Y-77346841D01*
X171405371Y-77362834D01*
X171391373Y-77387079D01*
X171113600Y-77664852D01*
X171113600Y-77642140D01*
X171087636Y-77545239D01*
X171037476Y-77458360D01*
X170966540Y-77387424D01*
X170879661Y-77337264D01*
X170782760Y-77311300D01*
X170760046Y-77311300D01*
X171340394Y-76730951D01*
X171327469Y-76721560D01*
X171168293Y-76640455D01*
X170998380Y-76585246D01*
X170821931Y-76557300D01*
X170643269Y-76557300D01*
X170466818Y-76585247D01*
X170466815Y-76585247D01*
X170417818Y-76601168D01*
X170347977Y-76603163D01*
X170288144Y-76567083D01*
X170257316Y-76504382D01*
X170255500Y-76483237D01*
X170255500Y-72554997D01*
X170275185Y-72487958D01*
X170327989Y-72442203D01*
X170397147Y-72432259D01*
X170417807Y-72437063D01*
X170433757Y-72442246D01*
X170433760Y-72442246D01*
X170433762Y-72442247D01*
X170496799Y-72452231D01*
X170643713Y-72475500D01*
X170643714Y-72475500D01*
X170856286Y-72475500D01*
X170856287Y-72475500D01*
X171066243Y-72442246D01*
X171202873Y-72397851D01*
X171272708Y-72395856D01*
X171328867Y-72428102D01*
G37*
%TD.AperFunction*%
%TA.AperFunction,Conductor*%
G36*
X173855397Y-64544084D02*
G01*
X173868833Y-64545045D01*
X173886561Y-64558316D01*
X173906702Y-64567514D01*
X173913983Y-64578843D01*
X173924767Y-64586916D01*
X173932505Y-64607664D01*
X173944477Y-64626292D01*
X173947628Y-64648210D01*
X173949184Y-64652381D01*
X173949500Y-64661226D01*
X173949500Y-64842300D01*
X173949501Y-64842319D01*
X173960000Y-64945096D01*
X173960001Y-64945099D01*
X174015185Y-65111631D01*
X174015187Y-65111636D01*
X174049365Y-65167048D01*
X174107288Y-65260956D01*
X174231344Y-65385012D01*
X174380666Y-65477114D01*
X174547203Y-65532299D01*
X174649991Y-65542800D01*
X174696526Y-65542799D01*
X174763562Y-65562482D01*
X174809318Y-65615285D01*
X174819263Y-65684444D01*
X174790240Y-65748000D01*
X174772012Y-65765175D01*
X174655282Y-65854745D01*
X174462445Y-66047582D01*
X174462439Y-66047589D01*
X174296415Y-66263956D01*
X174160054Y-66500140D01*
X174160047Y-66500155D01*
X174055684Y-66752111D01*
X174033767Y-66833909D01*
X173992811Y-66986761D01*
X173985098Y-67015545D01*
X173968491Y-67141686D01*
X173940224Y-67205582D01*
X173881900Y-67244053D01*
X173845552Y-67249500D01*
X161176076Y-67249500D01*
X161147242Y-67255234D01*
X161147243Y-67255235D01*
X161031093Y-67278339D01*
X161031083Y-67278342D01*
X160951081Y-67311479D01*
X160951082Y-67311480D01*
X160894505Y-67334915D01*
X160812372Y-67389795D01*
X160771585Y-67417047D01*
X160771581Y-67417050D01*
X158666716Y-69521915D01*
X158605393Y-69555400D01*
X158559637Y-69556707D01*
X158393592Y-69530408D01*
X158356287Y-69524500D01*
X158143713Y-69524500D01*
X158095042Y-69532208D01*
X157933760Y-69557753D01*
X157731585Y-69623444D01*
X157542179Y-69719951D01*
X157370213Y-69844890D01*
X157219894Y-69995209D01*
X157219890Y-69995214D01*
X157100008Y-70160218D01*
X157044678Y-70202884D01*
X156975065Y-70208863D01*
X156913270Y-70176257D01*
X156899372Y-70160218D01*
X156779727Y-69995540D01*
X156779723Y-69995535D01*
X156629464Y-69845276D01*
X156629459Y-69845272D01*
X156457557Y-69720379D01*
X156268217Y-69623904D01*
X156066131Y-69558243D01*
X156036285Y-69553515D01*
X155973151Y-69523584D01*
X155936221Y-69464271D01*
X155937221Y-69394409D01*
X155968003Y-69343363D01*
X158774548Y-66536819D01*
X158835871Y-66503334D01*
X158862229Y-66500500D01*
X171573920Y-66500500D01*
X171671462Y-66481096D01*
X171718913Y-66471658D01*
X171855495Y-66415084D01*
X171904729Y-66382186D01*
X171978416Y-66332952D01*
X173737821Y-64573544D01*
X173757252Y-64562934D01*
X173773988Y-64548433D01*
X173787320Y-64546515D01*
X173799142Y-64540061D01*
X173821228Y-64541640D01*
X173843146Y-64538489D01*
X173855397Y-64544084D01*
G37*
%TD.AperFunction*%
%TD*%
M02*
