%TF.GenerationSoftware,KiCad,Pcbnew,9.0.0*%
%TF.CreationDate,2025-03-17T17:34:53-07:00*%
%TF.ProjectId,Motor_Joint_Splitter,4d6f746f-725f-44a6-9f69-6e745f53706c,rev?*%
%TF.SameCoordinates,Original*%
%TF.FileFunction,Legend,Top*%
%TF.FilePolarity,Positive*%
%FSLAX46Y46*%
G04 Gerber Fmt 4.6, Leading zero omitted, Abs format (unit mm)*
G04 Created by KiCad (PCBNEW 9.0.0) date 2025-03-17 17:34:53*
%MOMM*%
%LPD*%
G01*
G04 APERTURE LIST*
%ADD10C,0.150000*%
%ADD11C,0.120000*%
%ADD12C,0.152400*%
%ADD13C,0.508000*%
G04 APERTURE END LIST*
D10*
X183238095Y-97604819D02*
X183238095Y-96604819D01*
X183238095Y-97081009D02*
X183809523Y-97081009D01*
X183809523Y-97604819D02*
X183809523Y-96604819D01*
X184714285Y-96938152D02*
X184714285Y-97604819D01*
X184476190Y-96557200D02*
X184238095Y-97271485D01*
X184238095Y-97271485D02*
X184857142Y-97271485D01*
X150988095Y-69704819D02*
X150988095Y-68704819D01*
X150988095Y-69181009D02*
X151559523Y-69181009D01*
X151559523Y-69704819D02*
X151559523Y-68704819D01*
X151940476Y-68704819D02*
X152559523Y-68704819D01*
X152559523Y-68704819D02*
X152226190Y-69085771D01*
X152226190Y-69085771D02*
X152369047Y-69085771D01*
X152369047Y-69085771D02*
X152464285Y-69133390D01*
X152464285Y-69133390D02*
X152511904Y-69181009D01*
X152511904Y-69181009D02*
X152559523Y-69276247D01*
X152559523Y-69276247D02*
X152559523Y-69514342D01*
X152559523Y-69514342D02*
X152511904Y-69609580D01*
X152511904Y-69609580D02*
X152464285Y-69657200D01*
X152464285Y-69657200D02*
X152369047Y-69704819D01*
X152369047Y-69704819D02*
X152083333Y-69704819D01*
X152083333Y-69704819D02*
X151988095Y-69657200D01*
X151988095Y-69657200D02*
X151940476Y-69609580D01*
X185864819Y-67755633D02*
X186579104Y-67755633D01*
X186579104Y-67755633D02*
X186721961Y-67803252D01*
X186721961Y-67803252D02*
X186817200Y-67898490D01*
X186817200Y-67898490D02*
X186864819Y-68041347D01*
X186864819Y-68041347D02*
X186864819Y-68136585D01*
X185864819Y-66803252D02*
X185864819Y-67279442D01*
X185864819Y-67279442D02*
X186341009Y-67327061D01*
X186341009Y-67327061D02*
X186293390Y-67279442D01*
X186293390Y-67279442D02*
X186245771Y-67184204D01*
X186245771Y-67184204D02*
X186245771Y-66946109D01*
X186245771Y-66946109D02*
X186293390Y-66850871D01*
X186293390Y-66850871D02*
X186341009Y-66803252D01*
X186341009Y-66803252D02*
X186436247Y-66755633D01*
X186436247Y-66755633D02*
X186674342Y-66755633D01*
X186674342Y-66755633D02*
X186769580Y-66803252D01*
X186769580Y-66803252D02*
X186817200Y-66850871D01*
X186817200Y-66850871D02*
X186864819Y-66946109D01*
X186864819Y-66946109D02*
X186864819Y-67184204D01*
X186864819Y-67184204D02*
X186817200Y-67279442D01*
X186817200Y-67279442D02*
X186769580Y-67327061D01*
X177731419Y-82470633D02*
X178445704Y-82470633D01*
X178445704Y-82470633D02*
X178588561Y-82518252D01*
X178588561Y-82518252D02*
X178683800Y-82613490D01*
X178683800Y-82613490D02*
X178731419Y-82756347D01*
X178731419Y-82756347D02*
X178731419Y-82851585D01*
X177731419Y-81565871D02*
X177731419Y-81756347D01*
X177731419Y-81756347D02*
X177779038Y-81851585D01*
X177779038Y-81851585D02*
X177826657Y-81899204D01*
X177826657Y-81899204D02*
X177969514Y-81994442D01*
X177969514Y-81994442D02*
X178159990Y-82042061D01*
X178159990Y-82042061D02*
X178540942Y-82042061D01*
X178540942Y-82042061D02*
X178636180Y-81994442D01*
X178636180Y-81994442D02*
X178683800Y-81946823D01*
X178683800Y-81946823D02*
X178731419Y-81851585D01*
X178731419Y-81851585D02*
X178731419Y-81661109D01*
X178731419Y-81661109D02*
X178683800Y-81565871D01*
X178683800Y-81565871D02*
X178636180Y-81518252D01*
X178636180Y-81518252D02*
X178540942Y-81470633D01*
X178540942Y-81470633D02*
X178302847Y-81470633D01*
X178302847Y-81470633D02*
X178207609Y-81518252D01*
X178207609Y-81518252D02*
X178159990Y-81565871D01*
X178159990Y-81565871D02*
X178112371Y-81661109D01*
X178112371Y-81661109D02*
X178112371Y-81851585D01*
X178112371Y-81851585D02*
X178159990Y-81946823D01*
X178159990Y-81946823D02*
X178207609Y-81994442D01*
X178207609Y-81994442D02*
X178302847Y-82042061D01*
X150699819Y-97215633D02*
X151414104Y-97215633D01*
X151414104Y-97215633D02*
X151556961Y-97263252D01*
X151556961Y-97263252D02*
X151652200Y-97358490D01*
X151652200Y-97358490D02*
X151699819Y-97501347D01*
X151699819Y-97501347D02*
X151699819Y-97596585D01*
X150699819Y-96834680D02*
X150699819Y-96215633D01*
X150699819Y-96215633D02*
X151080771Y-96548966D01*
X151080771Y-96548966D02*
X151080771Y-96406109D01*
X151080771Y-96406109D02*
X151128390Y-96310871D01*
X151128390Y-96310871D02*
X151176009Y-96263252D01*
X151176009Y-96263252D02*
X151271247Y-96215633D01*
X151271247Y-96215633D02*
X151509342Y-96215633D01*
X151509342Y-96215633D02*
X151604580Y-96263252D01*
X151604580Y-96263252D02*
X151652200Y-96310871D01*
X151652200Y-96310871D02*
X151699819Y-96406109D01*
X151699819Y-96406109D02*
X151699819Y-96691823D01*
X151699819Y-96691823D02*
X151652200Y-96787061D01*
X151652200Y-96787061D02*
X151604580Y-96834680D01*
X160001180Y-81801666D02*
X159286895Y-81801666D01*
X159286895Y-81801666D02*
X159144038Y-81754047D01*
X159144038Y-81754047D02*
X159048800Y-81658809D01*
X159048800Y-81658809D02*
X159001180Y-81515952D01*
X159001180Y-81515952D02*
X159001180Y-81420714D01*
X159667847Y-82706428D02*
X159001180Y-82706428D01*
X160048800Y-82468333D02*
X159334514Y-82230238D01*
X159334514Y-82230238D02*
X159334514Y-82849285D01*
D11*
%TO.C,J5*%
X178500000Y-61157300D02*
X174500000Y-61157300D01*
X181800000Y-61447300D02*
X185320000Y-61447300D01*
X181800000Y-73397300D02*
X181800000Y-61447300D01*
X184720000Y-62662300D02*
X184720000Y-64262300D01*
X184720000Y-64262300D02*
X185320000Y-64262300D01*
X184720000Y-66622300D02*
X184720000Y-68222300D01*
X184720000Y-68222300D02*
X185320000Y-68222300D01*
X184720000Y-70582300D02*
X184720000Y-72182300D01*
X184720000Y-72182300D02*
X185320000Y-72182300D01*
X185320000Y-61447300D02*
X185320000Y-73397300D01*
X185320000Y-62662300D02*
X184720000Y-62662300D01*
X185320000Y-66622300D02*
X184720000Y-66622300D01*
X185320000Y-70582300D02*
X184720000Y-70582300D01*
X185320000Y-73397300D02*
X181800000Y-73397300D01*
D12*
%TO.C,J6*%
X169183400Y-74237900D02*
X169183400Y-90036700D01*
X169183400Y-90036700D02*
X182870928Y-90036700D01*
X182870928Y-74237900D02*
X169183400Y-74237900D01*
X183842272Y-90036700D02*
X187369800Y-90036700D01*
X187369800Y-74237900D02*
X183842272Y-74237900D01*
X187369800Y-90036700D02*
X187369800Y-74237900D01*
D13*
X173907600Y-91662300D02*
G75*
G02*
X173145600Y-91662300I-381000J0D01*
G01*
X173145600Y-91662300D02*
G75*
G02*
X173907600Y-91662300I381000J0D01*
G01*
D11*
%TO.C,J3*%
X152335000Y-90907300D02*
X155855000Y-90907300D01*
X152335000Y-93722300D02*
X152935000Y-93722300D01*
X152335000Y-97682300D02*
X152935000Y-97682300D01*
X152335000Y-101642300D02*
X152935000Y-101642300D01*
X152335000Y-102857300D02*
X152335000Y-90907300D01*
X152935000Y-92122300D02*
X152335000Y-92122300D01*
X152935000Y-93722300D02*
X152935000Y-92122300D01*
X152935000Y-96082300D02*
X152335000Y-96082300D01*
X152935000Y-97682300D02*
X152935000Y-96082300D01*
X152935000Y-100042300D02*
X152335000Y-100042300D01*
X152935000Y-101642300D02*
X152935000Y-100042300D01*
X155855000Y-90907300D02*
X155855000Y-102857300D01*
X155855000Y-102857300D02*
X152335000Y-102857300D01*
X159155000Y-103147300D02*
X163155000Y-103147300D01*
D12*
%TO.C,J4*%
X150362800Y-74235600D02*
X150362800Y-90034400D01*
X150362800Y-90034400D02*
X153890328Y-90034400D01*
X153890328Y-74235600D02*
X150362800Y-74235600D01*
X154861672Y-90034400D02*
X168549200Y-90034400D01*
X168549200Y-74235600D02*
X154861672Y-74235600D01*
X168549200Y-90034400D02*
X168549200Y-74235600D01*
D13*
X164587000Y-72610000D02*
G75*
G02*
X163825000Y-72610000I-381000J0D01*
G01*
X163825000Y-72610000D02*
G75*
G02*
X164587000Y-72610000I381000J0D01*
G01*
%TD*%
M02*
