M48
; DRILL file {KiCad 8.0.5} date 2024-12-09T20:19:26-0800
; FORMAT={-:-/ absolute / inch / decimal}
; #@! TF.CreationDate,2024-12-09T20:19:26-08:00
; #@! TF.GenerationSoftware,Kicad,Pcbnew,8.0.5
; #@! TF.FileFunction,Plated,1,2,PTH
FMAT,2
INCH
; #@! TA.AperFunction,Plated,PTH,ViaDrill
T1C0.0118
; #@! TA.AperFunction,Plated,PTH,ComponentDrill
T2C0.0374
; #@! TA.AperFunction,Plated,PTH,ComponentDrill
T3C0.0669
%
G90
G05
T1
X1.3287Y-2.2146
X1.3583Y-1.5157
X1.4567Y-1.9587
X1.5453Y-2.0669
X1.6043Y-1.9882
X1.624Y-1.5256
X1.6929Y-2.0768
X1.9094Y-1.7913
X1.998Y-2.0866
X2.0768Y-1.4862
X2.0866Y-1.8602
X2.1654Y-1.8602
X2.2441Y-1.752
X2.2441Y-1.8602
X2.3256Y-1.8728
X2.3819Y-1.4862
X2.4016Y-1.8307
X2.4409Y-1.998
X2.4409Y-2.2146
X2.5492Y-2.0374
T2
X1.6043Y-2.185
X1.7028Y-2.185
X1.8012Y-2.185
X1.8996Y-2.185
X1.998Y-2.185
X2.0965Y-2.185
X2.1949Y-2.185
X2.2933Y-2.185
T3
X1.3598Y-1.7384
X1.5157Y-1.7384
X1.6717Y-1.7384
M30
