%TF.GenerationSoftware,KiCad,Pcbnew,8.0.8*%
%TF.CreationDate,2025-01-20T17:52:52-08:00*%
%TF.ProjectId,Motor_Adapt_M,4d6f746f-725f-4416-9461-70745f4d2e6b,rev?*%
%TF.SameCoordinates,Original*%
%TF.FileFunction,Copper,L1,Top*%
%TF.FilePolarity,Positive*%
%FSLAX46Y46*%
G04 Gerber Fmt 4.6, Leading zero omitted, Abs format (unit mm)*
G04 Created by KiCad (PCBNEW 8.0.8) date 2025-01-20 17:52:52*
%MOMM*%
%LPD*%
G01*
G04 APERTURE LIST*
G04 Aperture macros list*
%AMRoundRect*
0 Rectangle with rounded corners*
0 $1 Rounding radius*
0 $2 $3 $4 $5 $6 $7 $8 $9 X,Y pos of 4 corners*
0 Add a 4 corners polygon primitive as box body*
4,1,4,$2,$3,$4,$5,$6,$7,$8,$9,$2,$3,0*
0 Add four circle primitives for the rounded corners*
1,1,$1+$1,$2,$3*
1,1,$1+$1,$4,$5*
1,1,$1+$1,$6,$7*
1,1,$1+$1,$8,$9*
0 Add four rect primitives between the rounded corners*
20,1,$1+$1,$2,$3,$4,$5,0*
20,1,$1+$1,$4,$5,$6,$7,0*
20,1,$1+$1,$6,$7,$8,$9,0*
20,1,$1+$1,$8,$9,$2,$3,0*%
G04 Aperture macros list end*
%TA.AperFunction,ComponentPad*%
%ADD10C,1.270000*%
%TD*%
%TA.AperFunction,ComponentPad*%
%ADD11C,3.810000*%
%TD*%
%TA.AperFunction,ComponentPad*%
%ADD12RoundRect,0.250000X-0.600000X-0.725000X0.600000X-0.725000X0.600000X0.725000X-0.600000X0.725000X0*%
%TD*%
%TA.AperFunction,ComponentPad*%
%ADD13O,1.700000X1.950000*%
%TD*%
%TA.AperFunction,ComponentPad*%
%ADD14RoundRect,0.250000X-1.330000X-1.800000X1.330000X-1.800000X1.330000X1.800000X-1.330000X1.800000X0*%
%TD*%
%TA.AperFunction,ComponentPad*%
%ADD15O,3.160000X4.100000*%
%TD*%
%TA.AperFunction,ViaPad*%
%ADD16C,0.600000*%
%TD*%
%TA.AperFunction,Conductor*%
%ADD17C,0.500000*%
%TD*%
G04 APERTURE END LIST*
D10*
%TO.P,J4,1,1*%
%TO.N,/C_B*%
X59660000Y-48600000D03*
%TO.P,J4,2,2*%
%TO.N,+5V*%
X58390000Y-51140000D03*
%TO.P,J4,3,3*%
%TO.N,GND*%
X57120000Y-48600000D03*
%TO.P,J4,4,4*%
X55850000Y-51140000D03*
%TO.P,J4,5,5*%
%TO.N,/C_I*%
X54580000Y-48600000D03*
%TO.P,J4,6,6*%
%TO.N,/C_A*%
X53310000Y-51140000D03*
%TO.P,J4,7,7*%
%TO.N,GND*%
X52040000Y-48600000D03*
%TO.P,J4,8,8*%
X50770000Y-51140000D03*
D11*
%TO.P,J4,9*%
%TO.N,N/C*%
X60930000Y-42250000D03*
%TO.P,J4,10*%
X49500000Y-42250000D03*
%TD*%
D12*
%TO.P,J1,1,Pin_1*%
%TO.N,/Sin*%
X40000000Y-63500000D03*
D13*
%TO.P,J1,2,Pin_2*%
%TO.N,GND*%
X42500000Y-63500000D03*
%TO.P,J1,3,Pin_3*%
%TO.N,/Cos*%
X45000000Y-63500000D03*
%TO.P,J1,4,Pin_4*%
%TO.N,+5V*%
X47500000Y-63500000D03*
%TO.P,J1,5,Pin_5*%
%TO.N,GND*%
X50000000Y-63500000D03*
%TO.P,J1,6,Pin_6*%
%TO.N,/C_A*%
X52500000Y-63500000D03*
%TO.P,J1,7,Pin_7*%
%TO.N,/C_B*%
X55000000Y-63500000D03*
%TO.P,J1,8,Pin_8*%
%TO.N,/C_I*%
X57500000Y-63500000D03*
%TD*%
D14*
%TO.P,J3,1,Pin_1*%
%TO.N,/Sin*%
X34540000Y-44155000D03*
D15*
%TO.P,J3,2,Pin_2*%
%TO.N,/Cos*%
X38500000Y-44155000D03*
%TO.P,J3,3,Pin_3*%
%TO.N,GND*%
X42460000Y-44155000D03*
%TD*%
D16*
%TO.N,GND*%
X56500000Y-53000000D03*
X62750000Y-64750000D03*
X34000000Y-64500000D03*
X37000000Y-49750000D03*
X64500000Y-58750000D03*
X52750000Y-37750000D03*
X60500000Y-37750000D03*
X39250000Y-52500000D03*
X62000000Y-50750000D03*
X41250000Y-38750000D03*
X65000000Y-45000000D03*
X64750000Y-51750000D03*
X61000000Y-46500000D03*
X34500000Y-38500000D03*
X43000000Y-52750000D03*
X50750000Y-53000000D03*
X48750000Y-49250000D03*
X57000000Y-44500000D03*
X46250000Y-47000000D03*
X48500000Y-45500000D03*
X33750000Y-56250000D03*
X47750000Y-54500000D03*
X55250000Y-53500000D03*
%TD*%
D17*
%TO.N,/Cos*%
X38500000Y-44155000D02*
X45000000Y-50655000D01*
X38500000Y-44155000D02*
X38500000Y-44750000D01*
X45000000Y-50655000D02*
X45000000Y-63500000D01*
%TO.N,/Sin*%
X42000000Y-61500000D02*
X40000000Y-63500000D01*
X42000000Y-51615000D02*
X42000000Y-61500000D01*
X34540000Y-44155000D02*
X42000000Y-51615000D01*
%TO.N,+5V*%
X47500000Y-63500000D02*
X47500000Y-58250000D01*
X57250000Y-50000000D02*
X58390000Y-51140000D01*
X52225000Y-50690578D02*
X52915578Y-50000000D01*
X47500000Y-58250000D02*
X52225000Y-53525000D01*
X52225000Y-53525000D02*
X52225000Y-50690578D01*
X52915578Y-50000000D02*
X57250000Y-50000000D01*
%TO.N,/C_B*%
X59660000Y-48600000D02*
X59660000Y-51404422D01*
X55000000Y-56064422D02*
X55000000Y-63500000D01*
X59660000Y-51404422D02*
X55000000Y-56064422D01*
%TO.N,/C_A*%
X53310000Y-51140000D02*
X53310000Y-57690000D01*
X52500000Y-58500000D02*
X52500000Y-63500000D01*
X53310000Y-57690000D02*
X52500000Y-58500000D01*
%TD*%
%TA.AperFunction,Conductor*%
%TO.N,GND*%
G36*
X64756061Y-34751097D02*
G01*
X64766635Y-34752138D01*
X64884069Y-34763704D01*
X64907897Y-34768443D01*
X65025140Y-34804008D01*
X65047589Y-34813308D01*
X65155630Y-34871057D01*
X65175840Y-34884561D01*
X65270535Y-34962274D01*
X65287725Y-34979464D01*
X65365438Y-35074159D01*
X65378942Y-35094369D01*
X65436690Y-35202407D01*
X65445993Y-35224865D01*
X65481554Y-35342093D01*
X65486296Y-35365935D01*
X65498903Y-35493938D01*
X65499500Y-35506092D01*
X65499500Y-61747293D01*
X65499382Y-61752702D01*
X65482614Y-62136750D01*
X65481671Y-62147526D01*
X65431849Y-62525957D01*
X65429971Y-62536610D01*
X65347354Y-62909272D01*
X65344554Y-62919721D01*
X65229775Y-63283755D01*
X65226075Y-63293921D01*
X65080002Y-63646572D01*
X65075430Y-63656376D01*
X64899183Y-63994942D01*
X64893775Y-64004310D01*
X64688681Y-64326244D01*
X64682476Y-64335105D01*
X64450110Y-64637930D01*
X64443156Y-64646217D01*
X64185284Y-64927635D01*
X64177635Y-64935284D01*
X63896217Y-65193156D01*
X63887930Y-65200110D01*
X63585105Y-65432476D01*
X63576244Y-65438681D01*
X63254310Y-65643775D01*
X63244942Y-65649183D01*
X62906376Y-65825430D01*
X62896572Y-65830002D01*
X62543921Y-65976075D01*
X62533755Y-65979775D01*
X62169721Y-66094554D01*
X62159272Y-66097354D01*
X61786610Y-66179971D01*
X61775957Y-66181849D01*
X61397526Y-66231671D01*
X61386750Y-66232614D01*
X61002703Y-66249382D01*
X60997294Y-66249500D01*
X36502706Y-66249500D01*
X36497297Y-66249382D01*
X36113249Y-66232614D01*
X36102473Y-66231671D01*
X35724042Y-66181849D01*
X35713389Y-66179971D01*
X35340727Y-66097354D01*
X35330278Y-66094554D01*
X34966244Y-65979775D01*
X34956078Y-65976075D01*
X34603427Y-65830002D01*
X34593623Y-65825430D01*
X34255057Y-65649183D01*
X34245689Y-65643775D01*
X33923755Y-65438681D01*
X33914894Y-65432476D01*
X33612069Y-65200110D01*
X33603782Y-65193156D01*
X33322364Y-64935284D01*
X33314715Y-64927635D01*
X33056843Y-64646217D01*
X33049889Y-64637930D01*
X32817523Y-64335105D01*
X32811318Y-64326244D01*
X32606224Y-64004310D01*
X32600816Y-63994942D01*
X32473924Y-63751185D01*
X32424566Y-63656369D01*
X32419997Y-63646572D01*
X32273920Y-63293911D01*
X32270224Y-63283755D01*
X32260752Y-63253712D01*
X32155442Y-62919710D01*
X32152648Y-62909284D01*
X32070025Y-62536597D01*
X32068152Y-62525971D01*
X32018326Y-62147506D01*
X32017386Y-62136771D01*
X32000618Y-61752702D01*
X32000500Y-61747293D01*
X32000500Y-57378711D01*
X34649500Y-57378711D01*
X34649500Y-57621288D01*
X34681161Y-57861785D01*
X34743947Y-58096104D01*
X34836773Y-58320205D01*
X34836776Y-58320212D01*
X34958064Y-58530289D01*
X34958066Y-58530292D01*
X34958067Y-58530293D01*
X35105733Y-58722736D01*
X35105739Y-58722743D01*
X35277256Y-58894260D01*
X35277262Y-58894265D01*
X35469711Y-59041936D01*
X35679788Y-59163224D01*
X35903900Y-59256054D01*
X36138211Y-59318838D01*
X36318586Y-59342584D01*
X36378711Y-59350500D01*
X36378712Y-59350500D01*
X36621289Y-59350500D01*
X36669388Y-59344167D01*
X36861789Y-59318838D01*
X37096100Y-59256054D01*
X37320212Y-59163224D01*
X37530289Y-59041936D01*
X37722738Y-58894265D01*
X37894265Y-58722738D01*
X38041936Y-58530289D01*
X38163224Y-58320212D01*
X38256054Y-58096100D01*
X38318838Y-57861789D01*
X38350500Y-57621288D01*
X38350500Y-57378712D01*
X38318838Y-57138211D01*
X38256054Y-56903900D01*
X38163224Y-56679788D01*
X38041936Y-56469711D01*
X37894265Y-56277262D01*
X37894260Y-56277256D01*
X37722743Y-56105739D01*
X37722736Y-56105733D01*
X37530293Y-55958067D01*
X37530292Y-55958066D01*
X37530289Y-55958064D01*
X37320212Y-55836776D01*
X37320205Y-55836773D01*
X37096104Y-55743947D01*
X36861785Y-55681161D01*
X36621289Y-55649500D01*
X36621288Y-55649500D01*
X36378712Y-55649500D01*
X36378711Y-55649500D01*
X36138214Y-55681161D01*
X35903895Y-55743947D01*
X35679794Y-55836773D01*
X35679785Y-55836777D01*
X35469706Y-55958067D01*
X35277263Y-56105733D01*
X35277256Y-56105739D01*
X35105739Y-56277256D01*
X35105733Y-56277263D01*
X34958067Y-56469706D01*
X34836777Y-56679785D01*
X34836773Y-56679794D01*
X34743947Y-56903895D01*
X34681161Y-57138214D01*
X34649500Y-57378711D01*
X32000500Y-57378711D01*
X32000500Y-46801759D01*
X32020185Y-46734720D01*
X32072989Y-46688965D01*
X32142147Y-46679021D01*
X32205703Y-46708046D01*
X32226428Y-46731143D01*
X32246174Y-46759645D01*
X32246178Y-46759650D01*
X32246181Y-46759654D01*
X32405346Y-46918819D01*
X32405350Y-46918822D01*
X32405354Y-46918825D01*
X32463983Y-46959443D01*
X32590374Y-47047007D01*
X32795317Y-47140096D01*
X32795321Y-47140097D01*
X33013579Y-47195094D01*
X33013581Y-47195094D01*
X33013588Y-47195096D01*
X33145783Y-47205500D01*
X35770663Y-47205499D01*
X35837702Y-47225184D01*
X35858344Y-47241818D01*
X40713181Y-52096655D01*
X40746666Y-52157978D01*
X40749500Y-52184336D01*
X40749500Y-60930663D01*
X40729815Y-60997702D01*
X40713181Y-61018344D01*
X40243344Y-61488181D01*
X40182021Y-61521666D01*
X40155663Y-61524500D01*
X39335791Y-61524500D01*
X39335776Y-61524501D01*
X39203586Y-61534904D01*
X39203579Y-61534905D01*
X38985321Y-61589902D01*
X38985318Y-61589903D01*
X38780377Y-61682991D01*
X38780367Y-61682997D01*
X38595354Y-61811174D01*
X38595342Y-61811184D01*
X38436184Y-61970342D01*
X38436174Y-61970354D01*
X38307997Y-62155367D01*
X38307991Y-62155377D01*
X38214903Y-62360318D01*
X38214902Y-62360321D01*
X38159905Y-62578579D01*
X38159904Y-62578586D01*
X38149500Y-62710777D01*
X38149500Y-64289208D01*
X38149501Y-64289223D01*
X38159904Y-64421413D01*
X38159905Y-64421420D01*
X38214902Y-64639678D01*
X38214903Y-64639681D01*
X38307991Y-64844622D01*
X38307997Y-64844632D01*
X38436174Y-65029645D01*
X38436178Y-65029650D01*
X38436181Y-65029654D01*
X38595346Y-65188819D01*
X38595350Y-65188822D01*
X38595354Y-65188825D01*
X38734603Y-65285297D01*
X38780374Y-65317007D01*
X38985317Y-65410096D01*
X38985321Y-65410097D01*
X39203579Y-65465094D01*
X39203581Y-65465094D01*
X39203588Y-65465096D01*
X39335783Y-65475500D01*
X40664216Y-65475499D01*
X40796412Y-65465096D01*
X41014683Y-65410096D01*
X41219626Y-65317007D01*
X41404654Y-65188819D01*
X41563819Y-65029654D01*
X41689801Y-64847809D01*
X41744159Y-64803913D01*
X41813621Y-64796374D01*
X41848024Y-64807942D01*
X41981775Y-64876092D01*
X41981779Y-64876094D01*
X42183871Y-64941757D01*
X42250000Y-64952231D01*
X42250000Y-63904145D01*
X42316657Y-63942630D01*
X42437465Y-63975000D01*
X42562535Y-63975000D01*
X42683343Y-63942630D01*
X42750000Y-63904145D01*
X42750000Y-64952230D01*
X42816126Y-64941757D01*
X42816129Y-64941757D01*
X43018217Y-64876095D01*
X43207554Y-64779622D01*
X43331924Y-64689262D01*
X43397730Y-64665782D01*
X43465784Y-64681607D01*
X43503186Y-64714094D01*
X43605733Y-64847736D01*
X43605739Y-64847743D01*
X43777256Y-65019260D01*
X43777263Y-65019266D01*
X43825485Y-65056268D01*
X43969711Y-65166936D01*
X44179788Y-65288224D01*
X44403900Y-65381054D01*
X44638211Y-65443838D01*
X44818586Y-65467584D01*
X44878711Y-65475500D01*
X44878712Y-65475500D01*
X45121289Y-65475500D01*
X45169388Y-65469167D01*
X45361789Y-65443838D01*
X45596100Y-65381054D01*
X45820212Y-65288224D01*
X46030289Y-65166936D01*
X46174516Y-65056266D01*
X46239683Y-65031074D01*
X46308127Y-65045112D01*
X46325476Y-65056261D01*
X46469711Y-65166936D01*
X46679788Y-65288224D01*
X46903900Y-65381054D01*
X47138211Y-65443838D01*
X47318586Y-65467584D01*
X47378711Y-65475500D01*
X47378712Y-65475500D01*
X47621289Y-65475500D01*
X47669388Y-65469167D01*
X47861789Y-65443838D01*
X48096100Y-65381054D01*
X48320212Y-65288224D01*
X48530289Y-65166936D01*
X48722738Y-65019265D01*
X48894265Y-64847738D01*
X48996813Y-64714093D01*
X49053240Y-64672891D01*
X49122986Y-64668736D01*
X49168074Y-64689262D01*
X49292442Y-64779620D01*
X49481782Y-64876095D01*
X49683871Y-64941757D01*
X49750000Y-64952231D01*
X49750000Y-63904145D01*
X49816657Y-63942630D01*
X49937465Y-63975000D01*
X50062535Y-63975000D01*
X50183343Y-63942630D01*
X50250000Y-63904145D01*
X50250000Y-64952230D01*
X50316126Y-64941757D01*
X50316129Y-64941757D01*
X50518217Y-64876095D01*
X50707554Y-64779622D01*
X50831924Y-64689262D01*
X50897730Y-64665782D01*
X50965784Y-64681607D01*
X51003186Y-64714094D01*
X51105733Y-64847736D01*
X51105739Y-64847743D01*
X51277256Y-65019260D01*
X51277263Y-65019266D01*
X51325485Y-65056268D01*
X51469711Y-65166936D01*
X51679788Y-65288224D01*
X51903900Y-65381054D01*
X52138211Y-65443838D01*
X52318586Y-65467584D01*
X52378711Y-65475500D01*
X52378712Y-65475500D01*
X52621289Y-65475500D01*
X52669388Y-65469167D01*
X52861789Y-65443838D01*
X53096100Y-65381054D01*
X53320212Y-65288224D01*
X53530289Y-65166936D01*
X53674516Y-65056266D01*
X53739683Y-65031074D01*
X53808127Y-65045112D01*
X53825476Y-65056261D01*
X53969711Y-65166936D01*
X54179788Y-65288224D01*
X54403900Y-65381054D01*
X54638211Y-65443838D01*
X54818586Y-65467584D01*
X54878711Y-65475500D01*
X54878712Y-65475500D01*
X55121289Y-65475500D01*
X55169388Y-65469167D01*
X55361789Y-65443838D01*
X55596100Y-65381054D01*
X55820212Y-65288224D01*
X56030289Y-65166936D01*
X56174516Y-65056266D01*
X56239683Y-65031074D01*
X56308127Y-65045112D01*
X56325476Y-65056261D01*
X56469711Y-65166936D01*
X56679788Y-65288224D01*
X56903900Y-65381054D01*
X57138211Y-65443838D01*
X57318586Y-65467584D01*
X57378711Y-65475500D01*
X57378712Y-65475500D01*
X57621289Y-65475500D01*
X57669388Y-65469167D01*
X57861789Y-65443838D01*
X58096100Y-65381054D01*
X58320212Y-65288224D01*
X58530289Y-65166936D01*
X58722738Y-65019265D01*
X58894265Y-64847738D01*
X59041936Y-64655289D01*
X59163224Y-64445212D01*
X59256054Y-64221100D01*
X59318838Y-63986789D01*
X59350500Y-63746288D01*
X59350500Y-63253712D01*
X59318838Y-63013211D01*
X59256054Y-62778900D01*
X59163224Y-62554788D01*
X59041936Y-62344711D01*
X58894265Y-62152262D01*
X58894260Y-62152256D01*
X58722743Y-61980739D01*
X58722736Y-61980733D01*
X58530293Y-61833067D01*
X58530292Y-61833066D01*
X58530289Y-61833064D01*
X58320212Y-61711776D01*
X58320205Y-61711773D01*
X58096104Y-61618947D01*
X57861785Y-61556161D01*
X57621289Y-61524500D01*
X57621288Y-61524500D01*
X57378712Y-61524500D01*
X57378711Y-61524500D01*
X57138214Y-61556161D01*
X56903895Y-61618947D01*
X56679794Y-61711773D01*
X56679785Y-61711777D01*
X56469706Y-61833067D01*
X56449986Y-61848199D01*
X56384816Y-61873393D01*
X56316371Y-61859354D01*
X56266382Y-61810540D01*
X56250500Y-61749823D01*
X56250500Y-57378711D01*
X59149500Y-57378711D01*
X59149500Y-57621288D01*
X59181161Y-57861785D01*
X59243947Y-58096104D01*
X59336773Y-58320205D01*
X59336776Y-58320212D01*
X59458064Y-58530289D01*
X59458066Y-58530292D01*
X59458067Y-58530293D01*
X59605733Y-58722736D01*
X59605739Y-58722743D01*
X59777256Y-58894260D01*
X59777262Y-58894265D01*
X59969711Y-59041936D01*
X60179788Y-59163224D01*
X60403900Y-59256054D01*
X60638211Y-59318838D01*
X60818586Y-59342584D01*
X60878711Y-59350500D01*
X60878712Y-59350500D01*
X61121289Y-59350500D01*
X61169388Y-59344167D01*
X61361789Y-59318838D01*
X61596100Y-59256054D01*
X61820212Y-59163224D01*
X62030289Y-59041936D01*
X62222738Y-58894265D01*
X62394265Y-58722738D01*
X62541936Y-58530289D01*
X62663224Y-58320212D01*
X62756054Y-58096100D01*
X62818838Y-57861789D01*
X62850500Y-57621288D01*
X62850500Y-57378712D01*
X62818838Y-57138211D01*
X62756054Y-56903900D01*
X62663224Y-56679788D01*
X62541936Y-56469711D01*
X62394265Y-56277262D01*
X62394260Y-56277256D01*
X62222743Y-56105739D01*
X62222736Y-56105733D01*
X62030293Y-55958067D01*
X62030292Y-55958066D01*
X62030289Y-55958064D01*
X61820212Y-55836776D01*
X61820205Y-55836773D01*
X61596104Y-55743947D01*
X61361785Y-55681161D01*
X61121289Y-55649500D01*
X61121288Y-55649500D01*
X60878712Y-55649500D01*
X60878711Y-55649500D01*
X60638214Y-55681161D01*
X60403895Y-55743947D01*
X60179794Y-55836773D01*
X60179785Y-55836777D01*
X59969706Y-55958067D01*
X59777263Y-56105733D01*
X59777256Y-56105739D01*
X59605739Y-56277256D01*
X59605733Y-56277263D01*
X59458067Y-56469706D01*
X59336777Y-56679785D01*
X59336773Y-56679794D01*
X59243947Y-56903895D01*
X59181161Y-57138214D01*
X59149500Y-57378711D01*
X56250500Y-57378711D01*
X56250500Y-56633758D01*
X56270185Y-56566719D01*
X56286819Y-56546077D01*
X58396811Y-54436085D01*
X60613828Y-52219068D01*
X60729524Y-52059827D01*
X60818884Y-51884448D01*
X60879709Y-51697248D01*
X60887674Y-51646960D01*
X60910500Y-51502844D01*
X60910500Y-49699889D01*
X60930185Y-49632850D01*
X60940206Y-49619361D01*
X60987238Y-49564295D01*
X61121747Y-49344797D01*
X61220262Y-49106960D01*
X61280359Y-48856640D01*
X61300557Y-48600000D01*
X61280359Y-48343360D01*
X61220262Y-48093040D01*
X61150423Y-47924433D01*
X61121749Y-47855206D01*
X61121747Y-47855203D01*
X60987240Y-47635707D01*
X60987236Y-47635702D01*
X60927066Y-47565253D01*
X60820049Y-47439951D01*
X60713030Y-47348548D01*
X60624297Y-47272763D01*
X60624292Y-47272759D01*
X60404796Y-47138252D01*
X60404793Y-47138250D01*
X60166964Y-47039739D01*
X59916641Y-46979641D01*
X59660000Y-46959443D01*
X59403358Y-46979641D01*
X59153035Y-47039739D01*
X58915206Y-47138250D01*
X58915203Y-47138252D01*
X58695707Y-47272759D01*
X58695702Y-47272763D01*
X58499951Y-47439951D01*
X58332763Y-47635702D01*
X58332759Y-47635707D01*
X58198252Y-47855202D01*
X58174442Y-47912686D01*
X58130600Y-47967090D01*
X58094422Y-47979130D01*
X57501000Y-48572552D01*
X57501000Y-48549840D01*
X57475036Y-48452939D01*
X57424876Y-48366060D01*
X57353940Y-48295124D01*
X57267061Y-48244964D01*
X57170160Y-48219000D01*
X57147447Y-48219000D01*
X57726110Y-47640335D01*
X57628080Y-47579637D01*
X57628079Y-47579636D01*
X57431936Y-47503651D01*
X57225171Y-47465000D01*
X57014829Y-47465000D01*
X56808064Y-47503651D01*
X56808063Y-47503651D01*
X56611922Y-47579636D01*
X56611916Y-47579638D01*
X56513889Y-47640334D01*
X56513888Y-47640335D01*
X57092554Y-48219000D01*
X57069840Y-48219000D01*
X56972939Y-48244964D01*
X56886060Y-48295124D01*
X56815124Y-48366060D01*
X56764964Y-48452939D01*
X56739000Y-48549840D01*
X56739000Y-48572554D01*
X56145996Y-47979550D01*
X56120465Y-47973941D01*
X56071163Y-47924433D01*
X56065557Y-47912684D01*
X56041749Y-47855206D01*
X56041747Y-47855203D01*
X55907240Y-47635707D01*
X55907236Y-47635702D01*
X55847066Y-47565253D01*
X55740049Y-47439951D01*
X55633030Y-47348548D01*
X55544297Y-47272763D01*
X55544292Y-47272759D01*
X55324796Y-47138252D01*
X55324793Y-47138250D01*
X55086964Y-47039739D01*
X54836641Y-46979641D01*
X54580000Y-46959443D01*
X54323358Y-46979641D01*
X54073035Y-47039739D01*
X53835206Y-47138250D01*
X53835203Y-47138252D01*
X53615707Y-47272759D01*
X53615702Y-47272763D01*
X53419951Y-47439951D01*
X53252763Y-47635702D01*
X53252759Y-47635707D01*
X53118252Y-47855202D01*
X53094442Y-47912686D01*
X53050600Y-47967090D01*
X53014422Y-47979130D01*
X52421000Y-48572553D01*
X52421000Y-48549840D01*
X52395036Y-48452939D01*
X52344876Y-48366060D01*
X52273940Y-48295124D01*
X52187061Y-48244964D01*
X52090160Y-48219000D01*
X52067447Y-48219000D01*
X52646110Y-47640335D01*
X52548080Y-47579637D01*
X52548079Y-47579636D01*
X52351936Y-47503651D01*
X52145171Y-47465000D01*
X51934829Y-47465000D01*
X51728064Y-47503651D01*
X51728063Y-47503651D01*
X51531922Y-47579636D01*
X51531916Y-47579638D01*
X51433889Y-47640334D01*
X51433888Y-47640335D01*
X52012554Y-48219000D01*
X51989840Y-48219000D01*
X51892939Y-48244964D01*
X51806060Y-48295124D01*
X51735124Y-48366060D01*
X51684964Y-48452939D01*
X51659000Y-48549840D01*
X51659000Y-48572554D01*
X51077545Y-47991099D01*
X51077544Y-47991099D01*
X51070873Y-47999935D01*
X51070868Y-47999942D01*
X50977111Y-48188230D01*
X50919545Y-48390555D01*
X50900138Y-48599999D01*
X50900138Y-48600000D01*
X50919545Y-48809444D01*
X50977111Y-49011769D01*
X51070870Y-49200059D01*
X51077545Y-49208899D01*
X51659000Y-48627445D01*
X51659000Y-48650160D01*
X51684964Y-48747061D01*
X51735124Y-48833940D01*
X51806060Y-48904876D01*
X51892939Y-48955036D01*
X51989840Y-48981000D01*
X52012553Y-48981000D01*
X51433888Y-49559663D01*
X51436420Y-49581484D01*
X51442255Y-49587993D01*
X51453362Y-49656974D01*
X51425411Y-49721009D01*
X51418026Y-49729077D01*
X51271169Y-49875935D01*
X51271167Y-49875938D01*
X51187324Y-49991336D01*
X51131994Y-50034002D01*
X51064223Y-50040339D01*
X50875172Y-50005000D01*
X50664829Y-50005000D01*
X50458064Y-50043651D01*
X50458063Y-50043651D01*
X50261922Y-50119636D01*
X50261916Y-50119638D01*
X50163889Y-50180334D01*
X50163888Y-50180335D01*
X50742553Y-50759000D01*
X50719840Y-50759000D01*
X50622939Y-50784964D01*
X50536060Y-50835124D01*
X50465124Y-50906060D01*
X50414964Y-50992939D01*
X50389000Y-51089840D01*
X50389000Y-51112554D01*
X49807545Y-50531099D01*
X49807544Y-50531099D01*
X49800873Y-50539935D01*
X49800868Y-50539942D01*
X49707111Y-50728230D01*
X49649545Y-50930555D01*
X49630138Y-51139999D01*
X49630138Y-51140000D01*
X49649545Y-51349444D01*
X49707111Y-51551769D01*
X49800870Y-51740059D01*
X49807545Y-51748899D01*
X50389000Y-51167445D01*
X50389000Y-51190160D01*
X50414964Y-51287061D01*
X50465124Y-51373940D01*
X50536060Y-51444876D01*
X50622939Y-51495036D01*
X50719840Y-51521000D01*
X50742552Y-51521000D01*
X50163888Y-52099663D01*
X50163889Y-52099664D01*
X50261919Y-52160362D01*
X50261920Y-52160363D01*
X50458063Y-52236348D01*
X50664829Y-52275000D01*
X50850500Y-52275000D01*
X50917539Y-52294685D01*
X50963294Y-52347489D01*
X50974500Y-52399000D01*
X50974500Y-52955664D01*
X50954815Y-53022703D01*
X50938181Y-53043345D01*
X46546174Y-57435351D01*
X46546173Y-57435352D01*
X46474818Y-57533564D01*
X46419487Y-57576229D01*
X46349874Y-57582208D01*
X46288079Y-57549602D01*
X46253722Y-57488763D01*
X46250500Y-57460678D01*
X46250500Y-50556577D01*
X46219709Y-50362177D01*
X46219709Y-50362176D01*
X46219709Y-50362174D01*
X46197176Y-50292826D01*
X46158884Y-50174974D01*
X46158884Y-50174973D01*
X46113352Y-50085613D01*
X46069524Y-49999595D01*
X45953828Y-49840354D01*
X42952456Y-46838982D01*
X42918971Y-46777659D01*
X42923955Y-46707967D01*
X42965827Y-46652034D01*
X43008044Y-46631526D01*
X43130027Y-46598841D01*
X43381927Y-46494500D01*
X43381937Y-46494496D01*
X43618066Y-46358168D01*
X43834382Y-46192181D01*
X43834391Y-46192174D01*
X44027174Y-45999391D01*
X44027181Y-45999382D01*
X44193168Y-45783066D01*
X44329496Y-45546937D01*
X44329500Y-45546927D01*
X44433840Y-45295029D01*
X44504411Y-45031655D01*
X44540000Y-44761330D01*
X44540000Y-44405000D01*
X43276480Y-44405000D01*
X43277335Y-44402936D01*
X43310000Y-44238718D01*
X43310000Y-44071282D01*
X43277335Y-43907064D01*
X43276480Y-43905000D01*
X44540000Y-43905000D01*
X44540000Y-43548669D01*
X44504411Y-43278344D01*
X44433840Y-43014970D01*
X44329500Y-42763072D01*
X44329496Y-42763062D01*
X44193168Y-42526933D01*
X44027181Y-42310617D01*
X44027174Y-42310609D01*
X43966561Y-42249996D01*
X46589576Y-42249996D01*
X46589576Y-42250003D01*
X46609255Y-42587880D01*
X46609256Y-42587891D01*
X46668024Y-42921180D01*
X46668026Y-42921188D01*
X46765096Y-43245425D01*
X46899146Y-43556187D01*
X46899152Y-43556200D01*
X47068376Y-43849305D01*
X47270474Y-44120769D01*
X47270479Y-44120775D01*
X47270486Y-44120784D01*
X47502746Y-44366966D01*
X47502752Y-44366971D01*
X47502754Y-44366973D01*
X47762007Y-44584513D01*
X47762010Y-44584515D01*
X47762015Y-44584519D01*
X48044788Y-44770501D01*
X48044794Y-44770504D01*
X48044796Y-44770505D01*
X48347232Y-44922394D01*
X48347233Y-44922395D01*
X48347236Y-44922396D01*
X48347240Y-44922398D01*
X48665281Y-45038156D01*
X48994610Y-45116208D01*
X49330774Y-45155500D01*
X49330781Y-45155500D01*
X49669219Y-45155500D01*
X49669226Y-45155500D01*
X50005390Y-45116208D01*
X50334719Y-45038156D01*
X50652760Y-44922398D01*
X50955212Y-44770501D01*
X51237985Y-44584519D01*
X51497254Y-44366966D01*
X51729514Y-44120784D01*
X51931624Y-43849304D01*
X52100850Y-43556196D01*
X52234904Y-43245424D01*
X52331973Y-42921190D01*
X52359856Y-42763062D01*
X52390743Y-42587891D01*
X52390742Y-42587891D01*
X52390745Y-42587880D01*
X52410424Y-42250000D01*
X52410424Y-42249996D01*
X58019576Y-42249996D01*
X58019576Y-42250003D01*
X58039255Y-42587880D01*
X58039256Y-42587891D01*
X58098024Y-42921180D01*
X58098026Y-42921188D01*
X58195096Y-43245425D01*
X58329146Y-43556187D01*
X58329152Y-43556200D01*
X58498376Y-43849305D01*
X58700474Y-44120769D01*
X58700479Y-44120775D01*
X58700486Y-44120784D01*
X58932746Y-44366966D01*
X58932752Y-44366971D01*
X58932754Y-44366973D01*
X59192007Y-44584513D01*
X59192010Y-44584515D01*
X59192015Y-44584519D01*
X59474788Y-44770501D01*
X59474794Y-44770504D01*
X59474796Y-44770505D01*
X59777232Y-44922394D01*
X59777233Y-44922395D01*
X59777236Y-44922396D01*
X59777240Y-44922398D01*
X60095281Y-45038156D01*
X60424610Y-45116208D01*
X60760774Y-45155500D01*
X60760781Y-45155500D01*
X61099219Y-45155500D01*
X61099226Y-45155500D01*
X61435390Y-45116208D01*
X61764719Y-45038156D01*
X62082760Y-44922398D01*
X62385212Y-44770501D01*
X62667985Y-44584519D01*
X62927254Y-44366966D01*
X63159514Y-44120784D01*
X63361624Y-43849304D01*
X63530850Y-43556196D01*
X63664904Y-43245424D01*
X63761973Y-42921190D01*
X63789856Y-42763062D01*
X63820743Y-42587891D01*
X63820742Y-42587891D01*
X63820745Y-42587880D01*
X63840424Y-42250000D01*
X63820745Y-41912120D01*
X63775445Y-41655213D01*
X63761975Y-41578819D01*
X63761973Y-41578811D01*
X63761786Y-41578187D01*
X63664904Y-41254576D01*
X63530850Y-40943804D01*
X63361624Y-40650696D01*
X63361623Y-40650694D01*
X63159525Y-40379230D01*
X63159521Y-40379225D01*
X63159514Y-40379216D01*
X62927254Y-40133034D01*
X62927247Y-40133028D01*
X62927245Y-40133026D01*
X62667992Y-39915486D01*
X62667987Y-39915482D01*
X62667985Y-39915481D01*
X62385212Y-39729499D01*
X62385208Y-39729497D01*
X62385205Y-39729495D01*
X62385203Y-39729494D01*
X62082767Y-39577605D01*
X62082766Y-39577604D01*
X61764716Y-39461843D01*
X61583777Y-39418960D01*
X61435390Y-39383792D01*
X61099226Y-39344500D01*
X60760774Y-39344500D01*
X60424610Y-39383792D01*
X60095283Y-39461843D01*
X59777233Y-39577604D01*
X59777232Y-39577605D01*
X59474796Y-39729494D01*
X59474794Y-39729495D01*
X59192007Y-39915486D01*
X58932754Y-40133026D01*
X58932744Y-40133036D01*
X58700489Y-40379213D01*
X58700474Y-40379230D01*
X58498376Y-40650694D01*
X58329152Y-40943799D01*
X58329146Y-40943812D01*
X58195096Y-41254574D01*
X58098026Y-41578811D01*
X58098024Y-41578819D01*
X58039256Y-41912108D01*
X58039255Y-41912119D01*
X58019576Y-42249996D01*
X52410424Y-42249996D01*
X52390745Y-41912120D01*
X52345445Y-41655213D01*
X52331975Y-41578819D01*
X52331973Y-41578811D01*
X52331786Y-41578187D01*
X52234904Y-41254576D01*
X52100850Y-40943804D01*
X51931624Y-40650696D01*
X51931623Y-40650694D01*
X51729525Y-40379230D01*
X51729521Y-40379225D01*
X51729514Y-40379216D01*
X51497254Y-40133034D01*
X51497247Y-40133028D01*
X51497245Y-40133026D01*
X51237992Y-39915486D01*
X51237987Y-39915482D01*
X51237985Y-39915481D01*
X50955212Y-39729499D01*
X50955208Y-39729497D01*
X50955205Y-39729495D01*
X50955203Y-39729494D01*
X50652767Y-39577605D01*
X50652766Y-39577604D01*
X50334716Y-39461843D01*
X50153777Y-39418960D01*
X50005390Y-39383792D01*
X49669226Y-39344500D01*
X49330774Y-39344500D01*
X48994610Y-39383792D01*
X48665283Y-39461843D01*
X48347233Y-39577604D01*
X48347232Y-39577605D01*
X48044796Y-39729494D01*
X48044794Y-39729495D01*
X47762007Y-39915486D01*
X47502754Y-40133026D01*
X47502744Y-40133036D01*
X47270489Y-40379213D01*
X47270474Y-40379230D01*
X47068376Y-40650694D01*
X46899152Y-40943799D01*
X46899146Y-40943812D01*
X46765096Y-41254574D01*
X46668026Y-41578811D01*
X46668024Y-41578819D01*
X46609256Y-41912108D01*
X46609255Y-41912119D01*
X46589576Y-42249996D01*
X43966561Y-42249996D01*
X43834391Y-42117826D01*
X43834382Y-42117818D01*
X43618066Y-41951831D01*
X43381937Y-41815503D01*
X43381927Y-41815499D01*
X43130029Y-41711159D01*
X42866655Y-41640588D01*
X42710000Y-41619963D01*
X42710000Y-43338519D01*
X42707936Y-43337665D01*
X42543718Y-43305000D01*
X42376282Y-43305000D01*
X42212064Y-43337665D01*
X42210000Y-43338519D01*
X42210000Y-41619963D01*
X42209999Y-41619963D01*
X42053344Y-41640588D01*
X41789970Y-41711159D01*
X41538072Y-41815499D01*
X41538062Y-41815503D01*
X41301933Y-41951831D01*
X41085617Y-42117818D01*
X41085609Y-42117825D01*
X40892823Y-42310612D01*
X40892815Y-42310622D01*
X40886555Y-42318779D01*
X40830124Y-42359977D01*
X40760377Y-42364127D01*
X40699460Y-42329910D01*
X40683191Y-42309257D01*
X40645955Y-42249996D01*
X40607871Y-42189386D01*
X40427161Y-41962783D01*
X40222217Y-41757839D01*
X39995614Y-41577129D01*
X39750203Y-41422927D01*
X39750200Y-41422925D01*
X39489072Y-41297172D01*
X39215501Y-41201446D01*
X39215499Y-41201445D01*
X38997425Y-41151671D01*
X38932931Y-41136951D01*
X38932928Y-41136950D01*
X38932916Y-41136948D01*
X38644924Y-41104500D01*
X38644918Y-41104500D01*
X38355082Y-41104500D01*
X38355075Y-41104500D01*
X38067083Y-41136948D01*
X38067069Y-41136951D01*
X37784500Y-41201445D01*
X37784498Y-41201446D01*
X37510927Y-41297172D01*
X37249799Y-41422925D01*
X37001440Y-41578980D01*
X37000941Y-41578187D01*
X36938665Y-41599616D01*
X36870794Y-41583022D01*
X36838779Y-41553467D01*
X36837392Y-41554626D01*
X36833822Y-41550350D01*
X36833819Y-41550346D01*
X36674654Y-41391181D01*
X36674650Y-41391178D01*
X36674645Y-41391174D01*
X36489632Y-41262997D01*
X36489630Y-41262995D01*
X36489626Y-41262993D01*
X36471095Y-41254576D01*
X36284681Y-41169903D01*
X36284678Y-41169902D01*
X36066420Y-41114905D01*
X36066413Y-41114904D01*
X36022347Y-41111436D01*
X35934217Y-41104500D01*
X35934215Y-41104500D01*
X33145791Y-41104500D01*
X33145776Y-41104501D01*
X33013586Y-41114904D01*
X33013579Y-41114905D01*
X32795321Y-41169902D01*
X32795318Y-41169903D01*
X32590377Y-41262991D01*
X32590367Y-41262997D01*
X32405354Y-41391174D01*
X32405342Y-41391184D01*
X32246184Y-41550342D01*
X32246172Y-41550357D01*
X32226427Y-41578857D01*
X32172068Y-41622753D01*
X32102606Y-41630292D01*
X32040096Y-41599080D01*
X32004383Y-41539027D01*
X32000500Y-41508240D01*
X32000500Y-35506092D01*
X32001097Y-35493939D01*
X32002015Y-35484614D01*
X32013704Y-35365928D01*
X32018442Y-35342104D01*
X32054010Y-35224855D01*
X32063306Y-35202413D01*
X32121061Y-35094363D01*
X32134556Y-35074165D01*
X32212279Y-34979458D01*
X32229458Y-34962279D01*
X32324165Y-34884556D01*
X32344363Y-34871061D01*
X32452413Y-34813306D01*
X32474855Y-34804010D01*
X32592104Y-34768442D01*
X32615928Y-34763704D01*
X32734614Y-34752015D01*
X32743939Y-34751097D01*
X32756092Y-34750500D01*
X32815892Y-34750500D01*
X64684108Y-34750500D01*
X64743908Y-34750500D01*
X64756061Y-34751097D01*
G37*
%TD.AperFunction*%
%TA.AperFunction,Conductor*%
G36*
X51978834Y-55642154D02*
G01*
X52034767Y-55684026D01*
X52059184Y-55749490D01*
X52059500Y-55758336D01*
X52059500Y-57120664D01*
X52039815Y-57187703D01*
X52023181Y-57208345D01*
X51546174Y-57685351D01*
X51546174Y-57685352D01*
X51546172Y-57685354D01*
X51496485Y-57753741D01*
X51430476Y-57844594D01*
X51341117Y-58019971D01*
X51292361Y-58170026D01*
X51292361Y-58170027D01*
X51280290Y-58207175D01*
X51249500Y-58401577D01*
X51249500Y-61957134D01*
X51229815Y-62024173D01*
X51213181Y-62044815D01*
X51105739Y-62152256D01*
X51003186Y-62285906D01*
X50946758Y-62327108D01*
X50877012Y-62331263D01*
X50831925Y-62310737D01*
X50707557Y-62220379D01*
X50518215Y-62123903D01*
X50316124Y-62058241D01*
X50250000Y-62047768D01*
X50250000Y-63095854D01*
X50183343Y-63057370D01*
X50062535Y-63025000D01*
X49937465Y-63025000D01*
X49816657Y-63057370D01*
X49750000Y-63095854D01*
X49750000Y-62047768D01*
X49749999Y-62047768D01*
X49683875Y-62058241D01*
X49481784Y-62123903D01*
X49292442Y-62220379D01*
X49168074Y-62310737D01*
X49102267Y-62334217D01*
X49034214Y-62318391D01*
X48996813Y-62285905D01*
X48894266Y-62152263D01*
X48894260Y-62152256D01*
X48786819Y-62044815D01*
X48753334Y-61983492D01*
X48750500Y-61957134D01*
X48750500Y-58819336D01*
X48770185Y-58752297D01*
X48786819Y-58731655D01*
X51847819Y-55670655D01*
X51909142Y-55637170D01*
X51978834Y-55642154D01*
G37*
%TD.AperFunction*%
%TA.AperFunction,Conductor*%
G36*
X39618453Y-47041927D02*
G01*
X43713181Y-51136655D01*
X43746666Y-51197978D01*
X43749500Y-51224336D01*
X43749500Y-61957134D01*
X43729815Y-62024173D01*
X43713181Y-62044815D01*
X43605739Y-62152256D01*
X43503186Y-62285906D01*
X43446758Y-62327108D01*
X43377012Y-62331263D01*
X43331925Y-62310737D01*
X43207555Y-62220377D01*
X43182175Y-62207445D01*
X43131379Y-62159470D01*
X43114585Y-62091649D01*
X43127987Y-62040665D01*
X43158881Y-61980032D01*
X43158881Y-61980031D01*
X43158884Y-61980026D01*
X43219709Y-61792826D01*
X43232546Y-61711776D01*
X43250500Y-61598422D01*
X43250500Y-51516577D01*
X43224028Y-51349444D01*
X43219709Y-51322174D01*
X43219708Y-51322170D01*
X43219708Y-51322169D01*
X43160391Y-51139612D01*
X43159329Y-51135847D01*
X43093452Y-51006557D01*
X43069524Y-50959595D01*
X42953828Y-50800354D01*
X39389511Y-47236037D01*
X39356026Y-47174714D01*
X39361010Y-47105022D01*
X39402882Y-47049089D01*
X39436233Y-47031316D01*
X39489071Y-47012828D01*
X39489075Y-47012825D01*
X39489818Y-47012566D01*
X39559597Y-47009005D01*
X39618453Y-47041927D01*
G37*
%TD.AperFunction*%
%TA.AperFunction,Conductor*%
G36*
X55494964Y-51287061D02*
G01*
X55545124Y-51373940D01*
X55616060Y-51444876D01*
X55702939Y-51495036D01*
X55799840Y-51521000D01*
X55822553Y-51521000D01*
X55243889Y-52099663D01*
X55243889Y-52099664D01*
X55341919Y-52160362D01*
X55341920Y-52160363D01*
X55538063Y-52236348D01*
X55744829Y-52275000D01*
X55955171Y-52275000D01*
X56161935Y-52236348D01*
X56161936Y-52236348D01*
X56358079Y-52160362D01*
X56358083Y-52160360D01*
X56456109Y-52099663D01*
X55877447Y-51521000D01*
X55900160Y-51521000D01*
X55997061Y-51495036D01*
X56083940Y-51444876D01*
X56154876Y-51373940D01*
X56205036Y-51287061D01*
X56214832Y-51250500D01*
X56262692Y-51250500D01*
X56329731Y-51270185D01*
X56350373Y-51286819D01*
X56823999Y-51760445D01*
X56849533Y-51766056D01*
X56898836Y-51815564D01*
X56904441Y-51827311D01*
X56928252Y-51884797D01*
X57060658Y-52100863D01*
X57078903Y-52168309D01*
X57057787Y-52234911D01*
X57042612Y-52253334D01*
X54772181Y-54523766D01*
X54710858Y-54557251D01*
X54641166Y-54552267D01*
X54585233Y-54510395D01*
X54560816Y-54444931D01*
X54560500Y-54436085D01*
X54560500Y-52239889D01*
X54580185Y-52172850D01*
X54590206Y-52159361D01*
X54637238Y-52104295D01*
X54771747Y-51884797D01*
X54795557Y-51827313D01*
X54839396Y-51772910D01*
X54875578Y-51760866D01*
X55349627Y-51286819D01*
X55410950Y-51253334D01*
X55437308Y-51250500D01*
X55485168Y-51250500D01*
X55494964Y-51287061D01*
G37*
%TD.AperFunction*%
%TD*%
M02*
