%TF.GenerationSoftware,KiCad,Pcbnew,8.0.5*%
%TF.CreationDate,2024-12-09T20:19:28-08:00*%
%TF.ProjectId,Motor_Adapt_M,4d6f746f-725f-4416-9461-70745f4d2e6b,rev?*%
%TF.SameCoordinates,Original*%
%TF.FileFunction,Copper,L2,Bot*%
%TF.FilePolarity,Positive*%
%FSLAX46Y46*%
G04 Gerber Fmt 4.6, Leading zero omitted, Abs format (unit mm)*
G04 Created by KiCad (PCBNEW 8.0.5) date 2024-12-09 20:19:28*
%MOMM*%
%LPD*%
G01*
G04 APERTURE LIST*
G04 Aperture macros list*
%AMRoundRect*
0 Rectangle with rounded corners*
0 $1 Rounding radius*
0 $2 $3 $4 $5 $6 $7 $8 $9 X,Y pos of 4 corners*
0 Add a 4 corners polygon primitive as box body*
4,1,4,$2,$3,$4,$5,$6,$7,$8,$9,$2,$3,0*
0 Add four circle primitives for the rounded corners*
1,1,$1+$1,$2,$3*
1,1,$1+$1,$4,$5*
1,1,$1+$1,$6,$7*
1,1,$1+$1,$8,$9*
0 Add four rect primitives between the rounded corners*
20,1,$1+$1,$2,$3,$4,$5,0*
20,1,$1+$1,$4,$5,$6,$7,0*
20,1,$1+$1,$6,$7,$8,$9,0*
20,1,$1+$1,$8,$9,$2,$3,0*%
G04 Aperture macros list end*
%TA.AperFunction,ComponentPad*%
%ADD10RoundRect,0.250000X-0.600000X-0.725000X0.600000X-0.725000X0.600000X0.725000X-0.600000X0.725000X0*%
%TD*%
%TA.AperFunction,ComponentPad*%
%ADD11O,1.700000X1.950000*%
%TD*%
%TA.AperFunction,ComponentPad*%
%ADD12RoundRect,0.250000X-1.330000X-1.800000X1.330000X-1.800000X1.330000X1.800000X-1.330000X1.800000X0*%
%TD*%
%TA.AperFunction,ComponentPad*%
%ADD13O,3.160000X4.100000*%
%TD*%
%TA.AperFunction,ViaPad*%
%ADD14C,0.600000*%
%TD*%
G04 APERTURE END LIST*
D10*
%TO.P,J1,1,Pin_1*%
%TO.N,/Sin*%
X40750000Y-55500000D03*
D11*
%TO.P,J1,2,Pin_2*%
%TO.N,GND*%
X43250000Y-55500000D03*
%TO.P,J1,3,Pin_3*%
%TO.N,/Cos*%
X45750000Y-55500000D03*
%TO.P,J1,4,Pin_4*%
%TO.N,+5V*%
X48250000Y-55500000D03*
%TO.P,J1,5,Pin_5*%
%TO.N,GND*%
X50750000Y-55500000D03*
%TO.P,J1,6,Pin_6*%
%TO.N,/C_A*%
X53250000Y-55500000D03*
%TO.P,J1,7,Pin_7*%
%TO.N,/C_B*%
X55750000Y-55500000D03*
%TO.P,J1,8,Pin_8*%
%TO.N,/C_I*%
X58250000Y-55500000D03*
%TD*%
D12*
%TO.P,J3,1,Pin_1*%
%TO.N,/Sin*%
X34540000Y-44155000D03*
D13*
%TO.P,J3,2,Pin_2*%
%TO.N,/Cos*%
X38500000Y-44155000D03*
%TO.P,J3,3,Pin_3*%
%TO.N,GND*%
X42460000Y-44155000D03*
%TD*%
D14*
%TO.N,GND*%
X37000000Y-49750000D03*
X52750000Y-37750000D03*
X60500000Y-37750000D03*
X39250000Y-52500000D03*
X62000000Y-50750000D03*
X41250000Y-38750000D03*
X62000000Y-56250000D03*
X64750000Y-51750000D03*
X61000000Y-46500000D03*
X55000000Y-47250000D03*
X53000000Y-47250000D03*
X34500000Y-38500000D03*
X43000000Y-52750000D03*
X50750000Y-53000000D03*
X59070000Y-47570000D03*
X57000000Y-44500000D03*
X57000000Y-47250000D03*
X48500000Y-45500000D03*
X33750000Y-56250000D03*
X40750000Y-50500000D03*
%TD*%
%TA.AperFunction,Conductor*%
%TO.N,GND*%
G36*
X65006061Y-34751097D02*
G01*
X65016635Y-34752138D01*
X65134069Y-34763704D01*
X65157897Y-34768443D01*
X65275140Y-34804008D01*
X65297589Y-34813308D01*
X65405630Y-34871057D01*
X65425840Y-34884561D01*
X65520535Y-34962274D01*
X65537725Y-34979464D01*
X65615438Y-35074159D01*
X65628942Y-35094369D01*
X65686690Y-35202407D01*
X65695993Y-35224865D01*
X65731554Y-35342093D01*
X65736296Y-35365935D01*
X65748903Y-35493938D01*
X65749500Y-35506092D01*
X65749500Y-57493907D01*
X65748903Y-57506061D01*
X65736296Y-57634064D01*
X65731554Y-57657906D01*
X65695993Y-57775134D01*
X65686690Y-57797592D01*
X65628942Y-57905630D01*
X65615438Y-57925840D01*
X65537725Y-58020535D01*
X65520535Y-58037725D01*
X65425840Y-58115438D01*
X65405630Y-58128942D01*
X65297592Y-58186690D01*
X65275134Y-58195993D01*
X65157906Y-58231554D01*
X65134064Y-58236296D01*
X65006062Y-58248903D01*
X64993908Y-58249500D01*
X32756092Y-58249500D01*
X32743938Y-58248903D01*
X32615935Y-58236296D01*
X32592095Y-58231554D01*
X32474864Y-58195992D01*
X32452407Y-58186690D01*
X32344369Y-58128942D01*
X32324159Y-58115438D01*
X32229464Y-58037725D01*
X32212274Y-58020535D01*
X32134561Y-57925840D01*
X32121057Y-57905630D01*
X32063308Y-57797589D01*
X32054008Y-57775140D01*
X32018443Y-57657897D01*
X32013704Y-57634069D01*
X32001097Y-57506060D01*
X32000500Y-57493907D01*
X32000500Y-54710777D01*
X38899500Y-54710777D01*
X38899500Y-56289208D01*
X38899501Y-56289223D01*
X38909904Y-56421413D01*
X38909905Y-56421420D01*
X38964902Y-56639678D01*
X38964903Y-56639681D01*
X39057991Y-56844622D01*
X39057997Y-56844632D01*
X39186174Y-57029645D01*
X39186178Y-57029650D01*
X39186181Y-57029654D01*
X39345346Y-57188819D01*
X39345350Y-57188822D01*
X39345354Y-57188825D01*
X39484603Y-57285297D01*
X39530374Y-57317007D01*
X39735317Y-57410096D01*
X39735321Y-57410097D01*
X39953579Y-57465094D01*
X39953581Y-57465094D01*
X39953588Y-57465096D01*
X40085783Y-57475500D01*
X41414216Y-57475499D01*
X41546412Y-57465096D01*
X41764683Y-57410096D01*
X41969626Y-57317007D01*
X42154654Y-57188819D01*
X42313819Y-57029654D01*
X42439801Y-56847809D01*
X42494159Y-56803913D01*
X42563621Y-56796374D01*
X42598024Y-56807942D01*
X42731775Y-56876092D01*
X42731779Y-56876094D01*
X42933871Y-56941757D01*
X43000000Y-56952231D01*
X43000000Y-55904145D01*
X43066657Y-55942630D01*
X43187465Y-55975000D01*
X43312535Y-55975000D01*
X43433343Y-55942630D01*
X43500000Y-55904145D01*
X43500000Y-56952230D01*
X43566126Y-56941757D01*
X43566129Y-56941757D01*
X43768217Y-56876095D01*
X43957554Y-56779622D01*
X44081924Y-56689262D01*
X44147730Y-56665782D01*
X44215784Y-56681607D01*
X44253186Y-56714094D01*
X44355733Y-56847736D01*
X44355739Y-56847743D01*
X44527256Y-57019260D01*
X44527263Y-57019266D01*
X44575485Y-57056268D01*
X44719711Y-57166936D01*
X44929788Y-57288224D01*
X45153900Y-57381054D01*
X45388211Y-57443838D01*
X45568586Y-57467584D01*
X45628711Y-57475500D01*
X45628712Y-57475500D01*
X45871289Y-57475500D01*
X45919388Y-57469167D01*
X46111789Y-57443838D01*
X46346100Y-57381054D01*
X46570212Y-57288224D01*
X46780289Y-57166936D01*
X46924516Y-57056266D01*
X46989683Y-57031074D01*
X47058127Y-57045112D01*
X47075476Y-57056261D01*
X47219711Y-57166936D01*
X47429788Y-57288224D01*
X47653900Y-57381054D01*
X47888211Y-57443838D01*
X48068586Y-57467584D01*
X48128711Y-57475500D01*
X48128712Y-57475500D01*
X48371289Y-57475500D01*
X48419388Y-57469167D01*
X48611789Y-57443838D01*
X48846100Y-57381054D01*
X49070212Y-57288224D01*
X49280289Y-57166936D01*
X49472738Y-57019265D01*
X49644265Y-56847738D01*
X49746813Y-56714093D01*
X49803240Y-56672891D01*
X49872986Y-56668736D01*
X49918074Y-56689262D01*
X50042442Y-56779620D01*
X50231782Y-56876095D01*
X50433871Y-56941757D01*
X50500000Y-56952231D01*
X50500000Y-55904145D01*
X50566657Y-55942630D01*
X50687465Y-55975000D01*
X50812535Y-55975000D01*
X50933343Y-55942630D01*
X51000000Y-55904145D01*
X51000000Y-56952230D01*
X51066126Y-56941757D01*
X51066129Y-56941757D01*
X51268217Y-56876095D01*
X51457554Y-56779622D01*
X51581924Y-56689262D01*
X51647730Y-56665782D01*
X51715784Y-56681607D01*
X51753186Y-56714094D01*
X51855733Y-56847736D01*
X51855739Y-56847743D01*
X52027256Y-57019260D01*
X52027263Y-57019266D01*
X52075485Y-57056268D01*
X52219711Y-57166936D01*
X52429788Y-57288224D01*
X52653900Y-57381054D01*
X52888211Y-57443838D01*
X53068586Y-57467584D01*
X53128711Y-57475500D01*
X53128712Y-57475500D01*
X53371289Y-57475500D01*
X53419388Y-57469167D01*
X53611789Y-57443838D01*
X53846100Y-57381054D01*
X54070212Y-57288224D01*
X54280289Y-57166936D01*
X54424516Y-57056266D01*
X54489683Y-57031074D01*
X54558127Y-57045112D01*
X54575476Y-57056261D01*
X54719711Y-57166936D01*
X54929788Y-57288224D01*
X55153900Y-57381054D01*
X55388211Y-57443838D01*
X55568586Y-57467584D01*
X55628711Y-57475500D01*
X55628712Y-57475500D01*
X55871289Y-57475500D01*
X55919388Y-57469167D01*
X56111789Y-57443838D01*
X56346100Y-57381054D01*
X56570212Y-57288224D01*
X56780289Y-57166936D01*
X56924516Y-57056266D01*
X56989683Y-57031074D01*
X57058127Y-57045112D01*
X57075476Y-57056261D01*
X57219711Y-57166936D01*
X57429788Y-57288224D01*
X57653900Y-57381054D01*
X57888211Y-57443838D01*
X58068586Y-57467584D01*
X58128711Y-57475500D01*
X58128712Y-57475500D01*
X58371289Y-57475500D01*
X58419388Y-57469167D01*
X58611789Y-57443838D01*
X58846100Y-57381054D01*
X59070212Y-57288224D01*
X59280289Y-57166936D01*
X59472738Y-57019265D01*
X59644265Y-56847738D01*
X59791936Y-56655289D01*
X59913224Y-56445212D01*
X60006054Y-56221100D01*
X60068838Y-55986789D01*
X60100500Y-55746288D01*
X60100500Y-55253712D01*
X60068838Y-55013211D01*
X60006054Y-54778900D01*
X59913224Y-54554788D01*
X59791936Y-54344711D01*
X59684697Y-54204954D01*
X59644266Y-54152263D01*
X59644260Y-54152256D01*
X59472743Y-53980739D01*
X59472736Y-53980733D01*
X59280293Y-53833067D01*
X59280292Y-53833066D01*
X59280289Y-53833064D01*
X59070212Y-53711776D01*
X59070205Y-53711773D01*
X58846104Y-53618947D01*
X58611785Y-53556161D01*
X58371289Y-53524500D01*
X58371288Y-53524500D01*
X58128712Y-53524500D01*
X58128711Y-53524500D01*
X57888214Y-53556161D01*
X57653895Y-53618947D01*
X57429794Y-53711773D01*
X57429785Y-53711777D01*
X57219706Y-53833067D01*
X57075486Y-53943731D01*
X57010317Y-53968925D01*
X56941872Y-53954887D01*
X56924514Y-53943731D01*
X56780293Y-53833067D01*
X56780292Y-53833066D01*
X56780289Y-53833064D01*
X56570212Y-53711776D01*
X56570205Y-53711773D01*
X56346104Y-53618947D01*
X56111785Y-53556161D01*
X55871289Y-53524500D01*
X55871288Y-53524500D01*
X55628712Y-53524500D01*
X55628711Y-53524500D01*
X55388214Y-53556161D01*
X55153895Y-53618947D01*
X54929794Y-53711773D01*
X54929785Y-53711777D01*
X54719706Y-53833067D01*
X54575486Y-53943731D01*
X54510317Y-53968925D01*
X54441872Y-53954887D01*
X54424514Y-53943731D01*
X54280293Y-53833067D01*
X54280292Y-53833066D01*
X54280289Y-53833064D01*
X54070212Y-53711776D01*
X54070205Y-53711773D01*
X53846104Y-53618947D01*
X53611785Y-53556161D01*
X53371289Y-53524500D01*
X53371288Y-53524500D01*
X53128712Y-53524500D01*
X53128711Y-53524500D01*
X52888214Y-53556161D01*
X52653895Y-53618947D01*
X52429794Y-53711773D01*
X52429785Y-53711777D01*
X52219706Y-53833067D01*
X52027263Y-53980733D01*
X52027256Y-53980739D01*
X51855739Y-54152256D01*
X51753186Y-54285906D01*
X51696758Y-54327108D01*
X51627012Y-54331263D01*
X51581925Y-54310737D01*
X51457557Y-54220379D01*
X51268215Y-54123903D01*
X51066124Y-54058241D01*
X51000000Y-54047768D01*
X51000000Y-55095854D01*
X50933343Y-55057370D01*
X50812535Y-55025000D01*
X50687465Y-55025000D01*
X50566657Y-55057370D01*
X50500000Y-55095854D01*
X50500000Y-54047768D01*
X50499999Y-54047768D01*
X50433875Y-54058241D01*
X50231784Y-54123903D01*
X50042442Y-54220379D01*
X49918074Y-54310737D01*
X49852267Y-54334217D01*
X49784214Y-54318391D01*
X49746813Y-54285905D01*
X49644266Y-54152263D01*
X49644260Y-54152256D01*
X49472743Y-53980739D01*
X49472736Y-53980733D01*
X49280293Y-53833067D01*
X49280292Y-53833066D01*
X49280289Y-53833064D01*
X49070212Y-53711776D01*
X49070205Y-53711773D01*
X48846104Y-53618947D01*
X48611785Y-53556161D01*
X48371289Y-53524500D01*
X48371288Y-53524500D01*
X48128712Y-53524500D01*
X48128711Y-53524500D01*
X47888214Y-53556161D01*
X47653895Y-53618947D01*
X47429794Y-53711773D01*
X47429785Y-53711777D01*
X47219706Y-53833067D01*
X47075486Y-53943731D01*
X47010317Y-53968925D01*
X46941872Y-53954887D01*
X46924514Y-53943731D01*
X46780293Y-53833067D01*
X46780292Y-53833066D01*
X46780289Y-53833064D01*
X46570212Y-53711776D01*
X46570205Y-53711773D01*
X46346104Y-53618947D01*
X46111785Y-53556161D01*
X45871289Y-53524500D01*
X45871288Y-53524500D01*
X45628712Y-53524500D01*
X45628711Y-53524500D01*
X45388214Y-53556161D01*
X45153895Y-53618947D01*
X44929794Y-53711773D01*
X44929785Y-53711777D01*
X44719706Y-53833067D01*
X44527263Y-53980733D01*
X44527256Y-53980739D01*
X44355739Y-54152256D01*
X44253186Y-54285906D01*
X44196758Y-54327108D01*
X44127012Y-54331263D01*
X44081925Y-54310737D01*
X43957557Y-54220379D01*
X43768215Y-54123903D01*
X43566124Y-54058241D01*
X43500000Y-54047768D01*
X43500000Y-55095854D01*
X43433343Y-55057370D01*
X43312535Y-55025000D01*
X43187465Y-55025000D01*
X43066657Y-55057370D01*
X43000000Y-55095854D01*
X43000000Y-54047768D01*
X42999999Y-54047768D01*
X42933875Y-54058241D01*
X42731784Y-54123903D01*
X42598024Y-54192058D01*
X42529355Y-54204954D01*
X42464614Y-54178678D01*
X42439801Y-54152189D01*
X42313825Y-53970354D01*
X42313822Y-53970350D01*
X42313819Y-53970346D01*
X42154654Y-53811181D01*
X42154650Y-53811178D01*
X42154645Y-53811174D01*
X41969632Y-53682997D01*
X41969630Y-53682995D01*
X41969626Y-53682993D01*
X41828621Y-53618946D01*
X41764681Y-53589903D01*
X41764678Y-53589902D01*
X41546420Y-53534905D01*
X41546413Y-53534904D01*
X41502347Y-53531436D01*
X41414217Y-53524500D01*
X41414215Y-53524500D01*
X40085791Y-53524500D01*
X40085776Y-53524501D01*
X39953586Y-53534904D01*
X39953579Y-53534905D01*
X39735321Y-53589902D01*
X39735318Y-53589903D01*
X39530377Y-53682991D01*
X39530367Y-53682997D01*
X39345354Y-53811174D01*
X39345342Y-53811184D01*
X39186184Y-53970342D01*
X39186174Y-53970354D01*
X39057997Y-54155367D01*
X39057991Y-54155377D01*
X38964903Y-54360318D01*
X38964902Y-54360321D01*
X38909905Y-54578579D01*
X38909904Y-54578586D01*
X38899500Y-54710777D01*
X32000500Y-54710777D01*
X32000500Y-46801759D01*
X32020185Y-46734720D01*
X32072989Y-46688965D01*
X32142147Y-46679021D01*
X32205703Y-46708046D01*
X32226428Y-46731143D01*
X32246174Y-46759645D01*
X32246178Y-46759650D01*
X32246181Y-46759654D01*
X32405346Y-46918819D01*
X32405350Y-46918822D01*
X32405354Y-46918825D01*
X32541038Y-47012827D01*
X32590374Y-47047007D01*
X32795317Y-47140096D01*
X32795321Y-47140097D01*
X33013579Y-47195094D01*
X33013581Y-47195094D01*
X33013588Y-47195096D01*
X33145783Y-47205500D01*
X35934216Y-47205499D01*
X36066412Y-47195096D01*
X36284683Y-47140096D01*
X36489626Y-47047007D01*
X36674654Y-46918819D01*
X36833819Y-46759654D01*
X36837388Y-46755379D01*
X36839315Y-46756988D01*
X36885349Y-46719769D01*
X36954806Y-46712188D01*
X37001079Y-46731593D01*
X37001440Y-46731020D01*
X37004386Y-46732871D01*
X37249797Y-46887073D01*
X37510929Y-47012828D01*
X37784500Y-47108554D01*
X38067069Y-47173049D01*
X38067078Y-47173050D01*
X38067083Y-47173051D01*
X38259077Y-47194683D01*
X38355076Y-47205499D01*
X38355079Y-47205500D01*
X38355082Y-47205500D01*
X38644921Y-47205500D01*
X38644922Y-47205499D01*
X38792111Y-47188915D01*
X38932916Y-47173051D01*
X38932919Y-47173050D01*
X38932931Y-47173049D01*
X39215500Y-47108554D01*
X39489071Y-47012828D01*
X39750203Y-46887073D01*
X39995614Y-46732871D01*
X40222217Y-46552161D01*
X40427161Y-46347217D01*
X40607871Y-46120614D01*
X40683192Y-46000740D01*
X40735525Y-45954450D01*
X40804578Y-45943801D01*
X40868427Y-45972176D01*
X40886561Y-45991227D01*
X40892821Y-45999385D01*
X40892826Y-45999391D01*
X41085609Y-46192174D01*
X41085617Y-46192181D01*
X41301933Y-46358168D01*
X41538062Y-46494496D01*
X41538072Y-46494500D01*
X41789970Y-46598840D01*
X42053344Y-46669411D01*
X42210000Y-46690034D01*
X42210000Y-44971480D01*
X42212064Y-44972335D01*
X42376282Y-45005000D01*
X42543718Y-45005000D01*
X42707936Y-44972335D01*
X42710000Y-44971480D01*
X42710000Y-46690033D01*
X42866655Y-46669411D01*
X43130029Y-46598840D01*
X43381927Y-46494500D01*
X43381937Y-46494496D01*
X43618066Y-46358168D01*
X43834382Y-46192181D01*
X43834391Y-46192174D01*
X44027174Y-45999391D01*
X44027181Y-45999382D01*
X44193168Y-45783066D01*
X44329496Y-45546937D01*
X44329500Y-45546927D01*
X44433840Y-45295029D01*
X44504411Y-45031655D01*
X44540000Y-44761330D01*
X44540000Y-44405000D01*
X43276480Y-44405000D01*
X43277335Y-44402936D01*
X43310000Y-44238718D01*
X43310000Y-44071282D01*
X43277335Y-43907064D01*
X43276480Y-43905000D01*
X44540000Y-43905000D01*
X44540000Y-43548669D01*
X44504411Y-43278344D01*
X44433840Y-43014970D01*
X44329500Y-42763072D01*
X44329496Y-42763062D01*
X44193168Y-42526933D01*
X44027181Y-42310617D01*
X44027174Y-42310609D01*
X43834391Y-42117826D01*
X43834382Y-42117818D01*
X43618066Y-41951831D01*
X43381937Y-41815503D01*
X43381927Y-41815499D01*
X43130029Y-41711159D01*
X42866655Y-41640588D01*
X42710000Y-41619963D01*
X42710000Y-43338519D01*
X42707936Y-43337665D01*
X42543718Y-43305000D01*
X42376282Y-43305000D01*
X42212064Y-43337665D01*
X42210000Y-43338519D01*
X42210000Y-41619963D01*
X42209999Y-41619963D01*
X42053344Y-41640588D01*
X41789970Y-41711159D01*
X41538072Y-41815499D01*
X41538062Y-41815503D01*
X41301933Y-41951831D01*
X41085617Y-42117818D01*
X41085609Y-42117825D01*
X40892823Y-42310612D01*
X40892815Y-42310622D01*
X40886555Y-42318779D01*
X40830124Y-42359977D01*
X40760377Y-42364127D01*
X40699460Y-42329910D01*
X40683191Y-42309257D01*
X40632449Y-42228502D01*
X40607871Y-42189386D01*
X40427161Y-41962783D01*
X40222217Y-41757839D01*
X39995614Y-41577129D01*
X39750203Y-41422927D01*
X39750200Y-41422925D01*
X39489072Y-41297172D01*
X39215501Y-41201446D01*
X39215499Y-41201445D01*
X38997425Y-41151671D01*
X38932931Y-41136951D01*
X38932928Y-41136950D01*
X38932916Y-41136948D01*
X38644924Y-41104500D01*
X38644918Y-41104500D01*
X38355082Y-41104500D01*
X38355075Y-41104500D01*
X38067083Y-41136948D01*
X38067069Y-41136951D01*
X37784500Y-41201445D01*
X37784498Y-41201446D01*
X37510927Y-41297172D01*
X37249799Y-41422925D01*
X37001440Y-41578980D01*
X37000941Y-41578187D01*
X36938665Y-41599616D01*
X36870794Y-41583022D01*
X36838779Y-41553467D01*
X36837392Y-41554626D01*
X36833822Y-41550350D01*
X36833819Y-41550346D01*
X36674654Y-41391181D01*
X36674650Y-41391178D01*
X36674645Y-41391174D01*
X36489632Y-41262997D01*
X36489630Y-41262995D01*
X36489626Y-41262993D01*
X36354125Y-41201446D01*
X36284681Y-41169903D01*
X36284678Y-41169902D01*
X36066420Y-41114905D01*
X36066413Y-41114904D01*
X36022347Y-41111436D01*
X35934217Y-41104500D01*
X35934215Y-41104500D01*
X33145791Y-41104500D01*
X33145776Y-41104501D01*
X33013586Y-41114904D01*
X33013579Y-41114905D01*
X32795321Y-41169902D01*
X32795318Y-41169903D01*
X32590377Y-41262991D01*
X32590367Y-41262997D01*
X32405354Y-41391174D01*
X32405342Y-41391184D01*
X32246184Y-41550342D01*
X32246172Y-41550357D01*
X32226427Y-41578857D01*
X32172068Y-41622753D01*
X32102606Y-41630292D01*
X32040096Y-41599080D01*
X32004383Y-41539027D01*
X32000500Y-41508240D01*
X32000500Y-40300441D01*
X47249500Y-40300441D01*
X47249500Y-40549558D01*
X47249501Y-40549575D01*
X47282017Y-40796561D01*
X47346498Y-41037207D01*
X47441830Y-41267361D01*
X47441837Y-41267376D01*
X47566400Y-41483126D01*
X47718060Y-41680774D01*
X47718066Y-41680781D01*
X47894218Y-41856933D01*
X47894225Y-41856939D01*
X48091873Y-42008599D01*
X48307623Y-42133162D01*
X48307638Y-42133169D01*
X48406825Y-42174253D01*
X48537793Y-42228502D01*
X48778435Y-42292982D01*
X49025435Y-42325500D01*
X49025442Y-42325500D01*
X49274558Y-42325500D01*
X49274565Y-42325500D01*
X49521565Y-42292982D01*
X49762207Y-42228502D01*
X49992373Y-42133164D01*
X50208127Y-42008599D01*
X50405776Y-41856938D01*
X50581938Y-41680776D01*
X50733599Y-41483127D01*
X50858164Y-41267373D01*
X50953502Y-41037207D01*
X51017982Y-40796565D01*
X51050500Y-40549565D01*
X51050500Y-40300441D01*
X59949500Y-40300441D01*
X59949500Y-40549558D01*
X59949501Y-40549575D01*
X59982017Y-40796561D01*
X60046498Y-41037207D01*
X60141830Y-41267361D01*
X60141837Y-41267376D01*
X60266400Y-41483126D01*
X60418060Y-41680774D01*
X60418066Y-41680781D01*
X60594218Y-41856933D01*
X60594225Y-41856939D01*
X60791873Y-42008599D01*
X61007623Y-42133162D01*
X61007638Y-42133169D01*
X61106825Y-42174253D01*
X61237793Y-42228502D01*
X61478435Y-42292982D01*
X61725435Y-42325500D01*
X61725442Y-42325500D01*
X61974558Y-42325500D01*
X61974565Y-42325500D01*
X62221565Y-42292982D01*
X62462207Y-42228502D01*
X62692373Y-42133164D01*
X62908127Y-42008599D01*
X63105776Y-41856938D01*
X63281938Y-41680776D01*
X63433599Y-41483127D01*
X63558164Y-41267373D01*
X63653502Y-41037207D01*
X63717982Y-40796565D01*
X63750500Y-40549565D01*
X63750500Y-40300435D01*
X63717982Y-40053435D01*
X63653502Y-39812793D01*
X63558164Y-39582627D01*
X63433599Y-39366873D01*
X63281938Y-39169224D01*
X63281933Y-39169218D01*
X63105781Y-38993066D01*
X63105774Y-38993060D01*
X62908126Y-38841400D01*
X62692376Y-38716837D01*
X62692361Y-38716830D01*
X62462207Y-38621498D01*
X62221561Y-38557017D01*
X61974575Y-38524501D01*
X61974570Y-38524500D01*
X61974565Y-38524500D01*
X61725435Y-38524500D01*
X61725429Y-38524500D01*
X61725424Y-38524501D01*
X61478438Y-38557017D01*
X61237792Y-38621498D01*
X61007638Y-38716830D01*
X61007623Y-38716837D01*
X60791873Y-38841400D01*
X60594225Y-38993060D01*
X60594218Y-38993066D01*
X60418066Y-39169218D01*
X60418060Y-39169225D01*
X60266400Y-39366873D01*
X60141837Y-39582623D01*
X60141830Y-39582638D01*
X60046498Y-39812792D01*
X59982017Y-40053438D01*
X59949501Y-40300424D01*
X59949500Y-40300441D01*
X51050500Y-40300441D01*
X51050500Y-40300435D01*
X51017982Y-40053435D01*
X50953502Y-39812793D01*
X50858164Y-39582627D01*
X50733599Y-39366873D01*
X50581938Y-39169224D01*
X50581933Y-39169218D01*
X50405781Y-38993066D01*
X50405774Y-38993060D01*
X50208126Y-38841400D01*
X49992376Y-38716837D01*
X49992361Y-38716830D01*
X49762207Y-38621498D01*
X49521561Y-38557017D01*
X49274575Y-38524501D01*
X49274570Y-38524500D01*
X49274565Y-38524500D01*
X49025435Y-38524500D01*
X49025429Y-38524500D01*
X49025424Y-38524501D01*
X48778438Y-38557017D01*
X48537792Y-38621498D01*
X48307638Y-38716830D01*
X48307623Y-38716837D01*
X48091873Y-38841400D01*
X47894225Y-38993060D01*
X47894218Y-38993066D01*
X47718066Y-39169218D01*
X47718060Y-39169225D01*
X47566400Y-39366873D01*
X47441837Y-39582623D01*
X47441830Y-39582638D01*
X47346498Y-39812792D01*
X47282017Y-40053438D01*
X47249501Y-40300424D01*
X47249500Y-40300441D01*
X32000500Y-40300441D01*
X32000500Y-35506092D01*
X32001097Y-35493939D01*
X32002015Y-35484614D01*
X32013704Y-35365928D01*
X32018442Y-35342104D01*
X32054010Y-35224855D01*
X32063306Y-35202413D01*
X32121061Y-35094363D01*
X32134556Y-35074165D01*
X32212279Y-34979458D01*
X32229458Y-34962279D01*
X32324165Y-34884556D01*
X32344363Y-34871061D01*
X32452413Y-34813306D01*
X32474855Y-34804010D01*
X32592104Y-34768442D01*
X32615928Y-34763704D01*
X32734614Y-34752015D01*
X32743939Y-34751097D01*
X32756092Y-34750500D01*
X32815892Y-34750500D01*
X64934108Y-34750500D01*
X64993908Y-34750500D01*
X65006061Y-34751097D01*
G37*
%TD.AperFunction*%
%TD*%
M02*
