%TF.GenerationSoftware,KiCad,Pcbnew,8.0.5*%
%TF.CreationDate,2024-12-09T20:19:28-08:00*%
%TF.ProjectId,Motor_Adapt_M,4d6f746f-725f-4416-9461-70745f4d2e6b,rev?*%
%TF.SameCoordinates,Original*%
%TF.FileFunction,Soldermask,Top*%
%TF.FilePolarity,Negative*%
%FSLAX46Y46*%
G04 Gerber Fmt 4.6, Leading zero omitted, Abs format (unit mm)*
G04 Created by KiCad (PCBNEW 8.0.5) date 2024-12-09 20:19:28*
%MOMM*%
%LPD*%
G01*
G04 APERTURE LIST*
G04 Aperture macros list*
%AMRoundRect*
0 Rectangle with rounded corners*
0 $1 Rounding radius*
0 $2 $3 $4 $5 $6 $7 $8 $9 X,Y pos of 4 corners*
0 Add a 4 corners polygon primitive as box body*
4,1,4,$2,$3,$4,$5,$6,$7,$8,$9,$2,$3,0*
0 Add four circle primitives for the rounded corners*
1,1,$1+$1,$2,$3*
1,1,$1+$1,$4,$5*
1,1,$1+$1,$6,$7*
1,1,$1+$1,$8,$9*
0 Add four rect primitives between the rounded corners*
20,1,$1+$1,$2,$3,$4,$5,0*
20,1,$1+$1,$4,$5,$6,$7,0*
20,1,$1+$1,$6,$7,$8,$9,0*
20,1,$1+$1,$8,$9,$2,$3,0*%
G04 Aperture macros list end*
%ADD10C,0.010000*%
%ADD11C,3.300000*%
%ADD12RoundRect,0.102000X0.305000X1.525000X-0.305000X1.525000X-0.305000X-1.525000X0.305000X-1.525000X0*%
%ADD13RoundRect,0.250000X-0.600000X-0.725000X0.600000X-0.725000X0.600000X0.725000X-0.600000X0.725000X0*%
%ADD14O,1.700000X1.950000*%
%ADD15RoundRect,0.250000X-1.330000X-1.800000X1.330000X-1.800000X1.330000X1.800000X-1.330000X1.800000X0*%
%ADD16O,3.160000X4.100000*%
G04 APERTURE END LIST*
D10*
%TO.C,J2*%
X48190000Y-39210000D02*
X48145000Y-39245000D01*
X48109000Y-39275000D01*
X48074000Y-39306000D01*
X48040000Y-39338000D01*
X48007000Y-39371000D01*
X47975000Y-39406000D01*
X47944000Y-39441000D01*
X47915000Y-39477000D01*
X47886000Y-39514000D01*
X47859000Y-39552000D01*
X47833000Y-39591000D01*
X47808000Y-39631000D01*
X47785000Y-39671000D01*
X47763000Y-39713000D01*
X47742000Y-39755000D01*
X47722000Y-39797000D01*
X47704000Y-39840000D01*
X47688000Y-39884000D01*
X47672000Y-39928000D01*
X47658000Y-39973000D01*
X47646000Y-40018000D01*
X47635000Y-40063000D01*
X47625000Y-40109000D01*
X47617000Y-40155000D01*
X47611000Y-40202000D01*
X47606000Y-40248000D01*
X47602000Y-40295000D01*
X47600000Y-40342000D01*
X47599000Y-40388000D01*
X47600000Y-40425000D01*
X47599000Y-40462000D01*
X47600000Y-40508000D01*
X47602000Y-40555000D01*
X47606000Y-40602000D01*
X47611000Y-40648000D01*
X47617000Y-40695000D01*
X47625000Y-40741000D01*
X47635000Y-40787000D01*
X47646000Y-40832000D01*
X47658000Y-40877000D01*
X47672000Y-40922000D01*
X47688000Y-40966000D01*
X47704000Y-41010000D01*
X47722000Y-41053000D01*
X47742000Y-41095000D01*
X47763000Y-41137000D01*
X47785000Y-41179000D01*
X47808000Y-41219000D01*
X47833000Y-41259000D01*
X47859000Y-41298000D01*
X47886000Y-41336000D01*
X47915000Y-41373000D01*
X47944000Y-41409000D01*
X47975000Y-41444000D01*
X48007000Y-41479000D01*
X48040000Y-41512000D01*
X48074000Y-41544000D01*
X48109000Y-41575000D01*
X48145000Y-41605000D01*
X48190000Y-41640000D01*
X48190000Y-42475000D01*
X45490000Y-42475000D01*
X45490000Y-38375000D01*
X48190000Y-38375000D01*
X48190000Y-39210000D01*
G36*
X48190000Y-39210000D02*
G01*
X48145000Y-39245000D01*
X48109000Y-39275000D01*
X48074000Y-39306000D01*
X48040000Y-39338000D01*
X48007000Y-39371000D01*
X47975000Y-39406000D01*
X47944000Y-39441000D01*
X47915000Y-39477000D01*
X47886000Y-39514000D01*
X47859000Y-39552000D01*
X47833000Y-39591000D01*
X47808000Y-39631000D01*
X47785000Y-39671000D01*
X47763000Y-39713000D01*
X47742000Y-39755000D01*
X47722000Y-39797000D01*
X47704000Y-39840000D01*
X47688000Y-39884000D01*
X47672000Y-39928000D01*
X47658000Y-39973000D01*
X47646000Y-40018000D01*
X47635000Y-40063000D01*
X47625000Y-40109000D01*
X47617000Y-40155000D01*
X47611000Y-40202000D01*
X47606000Y-40248000D01*
X47602000Y-40295000D01*
X47600000Y-40342000D01*
X47599000Y-40388000D01*
X47600000Y-40425000D01*
X47599000Y-40462000D01*
X47600000Y-40508000D01*
X47602000Y-40555000D01*
X47606000Y-40602000D01*
X47611000Y-40648000D01*
X47617000Y-40695000D01*
X47625000Y-40741000D01*
X47635000Y-40787000D01*
X47646000Y-40832000D01*
X47658000Y-40877000D01*
X47672000Y-40922000D01*
X47688000Y-40966000D01*
X47704000Y-41010000D01*
X47722000Y-41053000D01*
X47742000Y-41095000D01*
X47763000Y-41137000D01*
X47785000Y-41179000D01*
X47808000Y-41219000D01*
X47833000Y-41259000D01*
X47859000Y-41298000D01*
X47886000Y-41336000D01*
X47915000Y-41373000D01*
X47944000Y-41409000D01*
X47975000Y-41444000D01*
X48007000Y-41479000D01*
X48040000Y-41512000D01*
X48074000Y-41544000D01*
X48109000Y-41575000D01*
X48145000Y-41605000D01*
X48190000Y-41640000D01*
X48190000Y-42475000D01*
X45490000Y-42475000D01*
X45490000Y-38375000D01*
X48190000Y-38375000D01*
X48190000Y-39210000D01*
G37*
X65510000Y-42475000D02*
X62810000Y-42475000D01*
X62810000Y-41640000D01*
X62855000Y-41605000D01*
X62891000Y-41575000D01*
X62926000Y-41544000D01*
X62960000Y-41512000D01*
X62993000Y-41479000D01*
X63025000Y-41444000D01*
X63056000Y-41409000D01*
X63085000Y-41373000D01*
X63114000Y-41336000D01*
X63141000Y-41298000D01*
X63167000Y-41259000D01*
X63192000Y-41219000D01*
X63215000Y-41179000D01*
X63237000Y-41137000D01*
X63258000Y-41095000D01*
X63278000Y-41053000D01*
X63296000Y-41010000D01*
X63312000Y-40966000D01*
X63328000Y-40922000D01*
X63342000Y-40877000D01*
X63354000Y-40832000D01*
X63365000Y-40787000D01*
X63375000Y-40741000D01*
X63383000Y-40695000D01*
X63389000Y-40648000D01*
X63394000Y-40602000D01*
X63398000Y-40555000D01*
X63400000Y-40508000D01*
X63401000Y-40462000D01*
X63400000Y-40425000D01*
X63401000Y-40388000D01*
X63400000Y-40342000D01*
X63398000Y-40295000D01*
X63394000Y-40248000D01*
X63389000Y-40202000D01*
X63383000Y-40155000D01*
X63375000Y-40109000D01*
X63365000Y-40063000D01*
X63354000Y-40018000D01*
X63342000Y-39973000D01*
X63328000Y-39928000D01*
X63312000Y-39884000D01*
X63296000Y-39840000D01*
X63278000Y-39797000D01*
X63258000Y-39755000D01*
X63237000Y-39713000D01*
X63215000Y-39671000D01*
X63192000Y-39631000D01*
X63167000Y-39591000D01*
X63141000Y-39552000D01*
X63114000Y-39514000D01*
X63085000Y-39477000D01*
X63056000Y-39441000D01*
X63025000Y-39406000D01*
X62993000Y-39371000D01*
X62960000Y-39338000D01*
X62926000Y-39306000D01*
X62891000Y-39275000D01*
X62855000Y-39245000D01*
X62810000Y-39210000D01*
X62810000Y-38375000D01*
X65510000Y-38375000D01*
X65510000Y-42475000D01*
G36*
X65510000Y-42475000D02*
G01*
X62810000Y-42475000D01*
X62810000Y-41640000D01*
X62855000Y-41605000D01*
X62891000Y-41575000D01*
X62926000Y-41544000D01*
X62960000Y-41512000D01*
X62993000Y-41479000D01*
X63025000Y-41444000D01*
X63056000Y-41409000D01*
X63085000Y-41373000D01*
X63114000Y-41336000D01*
X63141000Y-41298000D01*
X63167000Y-41259000D01*
X63192000Y-41219000D01*
X63215000Y-41179000D01*
X63237000Y-41137000D01*
X63258000Y-41095000D01*
X63278000Y-41053000D01*
X63296000Y-41010000D01*
X63312000Y-40966000D01*
X63328000Y-40922000D01*
X63342000Y-40877000D01*
X63354000Y-40832000D01*
X63365000Y-40787000D01*
X63375000Y-40741000D01*
X63383000Y-40695000D01*
X63389000Y-40648000D01*
X63394000Y-40602000D01*
X63398000Y-40555000D01*
X63400000Y-40508000D01*
X63401000Y-40462000D01*
X63400000Y-40425000D01*
X63401000Y-40388000D01*
X63400000Y-40342000D01*
X63398000Y-40295000D01*
X63394000Y-40248000D01*
X63389000Y-40202000D01*
X63383000Y-40155000D01*
X63375000Y-40109000D01*
X63365000Y-40063000D01*
X63354000Y-40018000D01*
X63342000Y-39973000D01*
X63328000Y-39928000D01*
X63312000Y-39884000D01*
X63296000Y-39840000D01*
X63278000Y-39797000D01*
X63258000Y-39755000D01*
X63237000Y-39713000D01*
X63215000Y-39671000D01*
X63192000Y-39631000D01*
X63167000Y-39591000D01*
X63141000Y-39552000D01*
X63114000Y-39514000D01*
X63085000Y-39477000D01*
X63056000Y-39441000D01*
X63025000Y-39406000D01*
X62993000Y-39371000D01*
X62960000Y-39338000D01*
X62926000Y-39306000D01*
X62891000Y-39275000D01*
X62855000Y-39245000D01*
X62810000Y-39210000D01*
X62810000Y-38375000D01*
X65510000Y-38375000D01*
X65510000Y-42475000D01*
G37*
%TD*%
D11*
%TO.C,J2*%
X61850000Y-40425000D03*
X49150000Y-40425000D03*
D12*
X51930000Y-50405000D03*
X52950000Y-50405000D03*
X53970000Y-50405000D03*
X54990000Y-50405000D03*
X56010000Y-50405000D03*
X57030000Y-50405000D03*
X58050000Y-50405000D03*
X59070000Y-50405000D03*
%TD*%
D13*
%TO.C,J1*%
X40750000Y-55500000D03*
D14*
X43250000Y-55500000D03*
X45750000Y-55500000D03*
X48250000Y-55500000D03*
X50750000Y-55500000D03*
X53250000Y-55500000D03*
X55750000Y-55500000D03*
X58250000Y-55500000D03*
%TD*%
D15*
%TO.C,J3*%
X34540000Y-44155000D03*
D16*
X38500000Y-44155000D03*
X42460000Y-44155000D03*
%TD*%
M02*
