%TF.GenerationSoftware,KiCad,Pcbnew,8.0.8*%
%TF.CreationDate,2025-02-10T21:19:23-08:00*%
%TF.ProjectId,Motor_Adapt_M,4d6f746f-725f-4416-9461-70745f4d2e6b,rev?*%
%TF.SameCoordinates,Original*%
%TF.FileFunction,Legend,Top*%
%TF.FilePolarity,Positive*%
%FSLAX46Y46*%
G04 Gerber Fmt 4.6, Leading zero omitted, Abs format (unit mm)*
G04 Created by KiCad (PCBNEW 8.0.8) date 2025-02-10 21:19:23*
%MOMM*%
%LPD*%
G01*
G04 APERTURE LIST*
%ADD10C,0.250000*%
%ADD11C,0.150000*%
%ADD12C,0.152400*%
%ADD13C,0.508000*%
%ADD14C,0.120000*%
G04 APERTURE END LIST*
D10*
X42837761Y-47926377D02*
X42885380Y-47831139D01*
X42885380Y-47831139D02*
X42885380Y-47688282D01*
X42885380Y-47688282D02*
X42837761Y-47545425D01*
X42837761Y-47545425D02*
X42742523Y-47450187D01*
X42742523Y-47450187D02*
X42647285Y-47402568D01*
X42647285Y-47402568D02*
X42456809Y-47354949D01*
X42456809Y-47354949D02*
X42313952Y-47354949D01*
X42313952Y-47354949D02*
X42123476Y-47402568D01*
X42123476Y-47402568D02*
X42028238Y-47450187D01*
X42028238Y-47450187D02*
X41933000Y-47545425D01*
X41933000Y-47545425D02*
X41885380Y-47688282D01*
X41885380Y-47688282D02*
X41885380Y-47783520D01*
X41885380Y-47783520D02*
X41933000Y-47926377D01*
X41933000Y-47926377D02*
X41980619Y-47973996D01*
X41980619Y-47973996D02*
X42313952Y-47973996D01*
X42313952Y-47973996D02*
X42313952Y-47783520D01*
X41885380Y-48402568D02*
X42885380Y-48402568D01*
X42885380Y-48402568D02*
X41885380Y-48973996D01*
X41885380Y-48973996D02*
X42885380Y-48973996D01*
X41885380Y-49450187D02*
X42885380Y-49450187D01*
X42885380Y-49450187D02*
X42885380Y-49688282D01*
X42885380Y-49688282D02*
X42837761Y-49831139D01*
X42837761Y-49831139D02*
X42742523Y-49926377D01*
X42742523Y-49926377D02*
X42647285Y-49973996D01*
X42647285Y-49973996D02*
X42456809Y-50021615D01*
X42456809Y-50021615D02*
X42313952Y-50021615D01*
X42313952Y-50021615D02*
X42123476Y-49973996D01*
X42123476Y-49973996D02*
X42028238Y-49926377D01*
X42028238Y-49926377D02*
X41933000Y-49831139D01*
X41933000Y-49831139D02*
X41885380Y-49688282D01*
X41885380Y-49688282D02*
X41885380Y-49450187D01*
X40317000Y-60895050D02*
X40364619Y-60752193D01*
X40364619Y-60752193D02*
X40364619Y-60514098D01*
X40364619Y-60514098D02*
X40317000Y-60418860D01*
X40317000Y-60418860D02*
X40269380Y-60371241D01*
X40269380Y-60371241D02*
X40174142Y-60323622D01*
X40174142Y-60323622D02*
X40078904Y-60323622D01*
X40078904Y-60323622D02*
X39983666Y-60371241D01*
X39983666Y-60371241D02*
X39936047Y-60418860D01*
X39936047Y-60418860D02*
X39888428Y-60514098D01*
X39888428Y-60514098D02*
X39840809Y-60704574D01*
X39840809Y-60704574D02*
X39793190Y-60799812D01*
X39793190Y-60799812D02*
X39745571Y-60847431D01*
X39745571Y-60847431D02*
X39650333Y-60895050D01*
X39650333Y-60895050D02*
X39555095Y-60895050D01*
X39555095Y-60895050D02*
X39459857Y-60847431D01*
X39459857Y-60847431D02*
X39412238Y-60799812D01*
X39412238Y-60799812D02*
X39364619Y-60704574D01*
X39364619Y-60704574D02*
X39364619Y-60466479D01*
X39364619Y-60466479D02*
X39412238Y-60323622D01*
X40364619Y-59895050D02*
X39364619Y-59895050D01*
X40364619Y-59418860D02*
X39364619Y-59418860D01*
X39364619Y-59418860D02*
X40364619Y-58847432D01*
X40364619Y-58847432D02*
X39364619Y-58847432D01*
X54840809Y-60514098D02*
X54888428Y-60371241D01*
X54888428Y-60371241D02*
X54936047Y-60323622D01*
X54936047Y-60323622D02*
X55031285Y-60276003D01*
X55031285Y-60276003D02*
X55174142Y-60276003D01*
X55174142Y-60276003D02*
X55269380Y-60323622D01*
X55269380Y-60323622D02*
X55317000Y-60371241D01*
X55317000Y-60371241D02*
X55364619Y-60466479D01*
X55364619Y-60466479D02*
X55364619Y-60847431D01*
X55364619Y-60847431D02*
X54364619Y-60847431D01*
X54364619Y-60847431D02*
X54364619Y-60514098D01*
X54364619Y-60514098D02*
X54412238Y-60418860D01*
X54412238Y-60418860D02*
X54459857Y-60371241D01*
X54459857Y-60371241D02*
X54555095Y-60323622D01*
X54555095Y-60323622D02*
X54650333Y-60323622D01*
X54650333Y-60323622D02*
X54745571Y-60371241D01*
X54745571Y-60371241D02*
X54793190Y-60418860D01*
X54793190Y-60418860D02*
X54840809Y-60514098D01*
X54840809Y-60514098D02*
X54840809Y-60847431D01*
X45269380Y-60526003D02*
X45317000Y-60573622D01*
X45317000Y-60573622D02*
X45364619Y-60716479D01*
X45364619Y-60716479D02*
X45364619Y-60811717D01*
X45364619Y-60811717D02*
X45317000Y-60954574D01*
X45317000Y-60954574D02*
X45221761Y-61049812D01*
X45221761Y-61049812D02*
X45126523Y-61097431D01*
X45126523Y-61097431D02*
X44936047Y-61145050D01*
X44936047Y-61145050D02*
X44793190Y-61145050D01*
X44793190Y-61145050D02*
X44602714Y-61097431D01*
X44602714Y-61097431D02*
X44507476Y-61049812D01*
X44507476Y-61049812D02*
X44412238Y-60954574D01*
X44412238Y-60954574D02*
X44364619Y-60811717D01*
X44364619Y-60811717D02*
X44364619Y-60716479D01*
X44364619Y-60716479D02*
X44412238Y-60573622D01*
X44412238Y-60573622D02*
X44459857Y-60526003D01*
X44364619Y-59906955D02*
X44364619Y-59716479D01*
X44364619Y-59716479D02*
X44412238Y-59621241D01*
X44412238Y-59621241D02*
X44507476Y-59526003D01*
X44507476Y-59526003D02*
X44697952Y-59478384D01*
X44697952Y-59478384D02*
X45031285Y-59478384D01*
X45031285Y-59478384D02*
X45221761Y-59526003D01*
X45221761Y-59526003D02*
X45317000Y-59621241D01*
X45317000Y-59621241D02*
X45364619Y-59716479D01*
X45364619Y-59716479D02*
X45364619Y-59906955D01*
X45364619Y-59906955D02*
X45317000Y-60002193D01*
X45317000Y-60002193D02*
X45221761Y-60097431D01*
X45221761Y-60097431D02*
X45031285Y-60145050D01*
X45031285Y-60145050D02*
X44697952Y-60145050D01*
X44697952Y-60145050D02*
X44507476Y-60097431D01*
X44507476Y-60097431D02*
X44412238Y-60002193D01*
X44412238Y-60002193D02*
X44364619Y-59906955D01*
X45317000Y-59097431D02*
X45364619Y-58954574D01*
X45364619Y-58954574D02*
X45364619Y-58716479D01*
X45364619Y-58716479D02*
X45317000Y-58621241D01*
X45317000Y-58621241D02*
X45269380Y-58573622D01*
X45269380Y-58573622D02*
X45174142Y-58526003D01*
X45174142Y-58526003D02*
X45078904Y-58526003D01*
X45078904Y-58526003D02*
X44983666Y-58573622D01*
X44983666Y-58573622D02*
X44936047Y-58621241D01*
X44936047Y-58621241D02*
X44888428Y-58716479D01*
X44888428Y-58716479D02*
X44840809Y-58906955D01*
X44840809Y-58906955D02*
X44793190Y-59002193D01*
X44793190Y-59002193D02*
X44745571Y-59049812D01*
X44745571Y-59049812D02*
X44650333Y-59097431D01*
X44650333Y-59097431D02*
X44555095Y-59097431D01*
X44555095Y-59097431D02*
X44459857Y-59049812D01*
X44459857Y-59049812D02*
X44412238Y-59002193D01*
X44412238Y-59002193D02*
X44364619Y-58906955D01*
X44364619Y-58906955D02*
X44364619Y-58668860D01*
X44364619Y-58668860D02*
X44412238Y-58526003D01*
X57864619Y-60597431D02*
X56864619Y-60597431D01*
X37730619Y-47973996D02*
X37683000Y-47926377D01*
X37683000Y-47926377D02*
X37635380Y-47783520D01*
X37635380Y-47783520D02*
X37635380Y-47688282D01*
X37635380Y-47688282D02*
X37683000Y-47545425D01*
X37683000Y-47545425D02*
X37778238Y-47450187D01*
X37778238Y-47450187D02*
X37873476Y-47402568D01*
X37873476Y-47402568D02*
X38063952Y-47354949D01*
X38063952Y-47354949D02*
X38206809Y-47354949D01*
X38206809Y-47354949D02*
X38397285Y-47402568D01*
X38397285Y-47402568D02*
X38492523Y-47450187D01*
X38492523Y-47450187D02*
X38587761Y-47545425D01*
X38587761Y-47545425D02*
X38635380Y-47688282D01*
X38635380Y-47688282D02*
X38635380Y-47783520D01*
X38635380Y-47783520D02*
X38587761Y-47926377D01*
X38587761Y-47926377D02*
X38540142Y-47973996D01*
X38635380Y-48593044D02*
X38635380Y-48783520D01*
X38635380Y-48783520D02*
X38587761Y-48878758D01*
X38587761Y-48878758D02*
X38492523Y-48973996D01*
X38492523Y-48973996D02*
X38302047Y-49021615D01*
X38302047Y-49021615D02*
X37968714Y-49021615D01*
X37968714Y-49021615D02*
X37778238Y-48973996D01*
X37778238Y-48973996D02*
X37683000Y-48878758D01*
X37683000Y-48878758D02*
X37635380Y-48783520D01*
X37635380Y-48783520D02*
X37635380Y-48593044D01*
X37635380Y-48593044D02*
X37683000Y-48497806D01*
X37683000Y-48497806D02*
X37778238Y-48402568D01*
X37778238Y-48402568D02*
X37968714Y-48354949D01*
X37968714Y-48354949D02*
X38302047Y-48354949D01*
X38302047Y-48354949D02*
X38492523Y-48402568D01*
X38492523Y-48402568D02*
X38587761Y-48497806D01*
X38587761Y-48497806D02*
X38635380Y-48593044D01*
X37683000Y-49402568D02*
X37635380Y-49545425D01*
X37635380Y-49545425D02*
X37635380Y-49783520D01*
X37635380Y-49783520D02*
X37683000Y-49878758D01*
X37683000Y-49878758D02*
X37730619Y-49926377D01*
X37730619Y-49926377D02*
X37825857Y-49973996D01*
X37825857Y-49973996D02*
X37921095Y-49973996D01*
X37921095Y-49973996D02*
X38016333Y-49926377D01*
X38016333Y-49926377D02*
X38063952Y-49878758D01*
X38063952Y-49878758D02*
X38111571Y-49783520D01*
X38111571Y-49783520D02*
X38159190Y-49593044D01*
X38159190Y-49593044D02*
X38206809Y-49497806D01*
X38206809Y-49497806D02*
X38254428Y-49450187D01*
X38254428Y-49450187D02*
X38349666Y-49402568D01*
X38349666Y-49402568D02*
X38444904Y-49402568D01*
X38444904Y-49402568D02*
X38540142Y-49450187D01*
X38540142Y-49450187D02*
X38587761Y-49497806D01*
X38587761Y-49497806D02*
X38635380Y-49593044D01*
X38635380Y-49593044D02*
X38635380Y-49831139D01*
X38635380Y-49831139D02*
X38587761Y-49973996D01*
X42162238Y-60573622D02*
X42114619Y-60668860D01*
X42114619Y-60668860D02*
X42114619Y-60811717D01*
X42114619Y-60811717D02*
X42162238Y-60954574D01*
X42162238Y-60954574D02*
X42257476Y-61049812D01*
X42257476Y-61049812D02*
X42352714Y-61097431D01*
X42352714Y-61097431D02*
X42543190Y-61145050D01*
X42543190Y-61145050D02*
X42686047Y-61145050D01*
X42686047Y-61145050D02*
X42876523Y-61097431D01*
X42876523Y-61097431D02*
X42971761Y-61049812D01*
X42971761Y-61049812D02*
X43067000Y-60954574D01*
X43067000Y-60954574D02*
X43114619Y-60811717D01*
X43114619Y-60811717D02*
X43114619Y-60716479D01*
X43114619Y-60716479D02*
X43067000Y-60573622D01*
X43067000Y-60573622D02*
X43019380Y-60526003D01*
X43019380Y-60526003D02*
X42686047Y-60526003D01*
X42686047Y-60526003D02*
X42686047Y-60716479D01*
X43114619Y-60097431D02*
X42114619Y-60097431D01*
X42114619Y-60097431D02*
X43114619Y-59526003D01*
X43114619Y-59526003D02*
X42114619Y-59526003D01*
X43114619Y-59049812D02*
X42114619Y-59049812D01*
X42114619Y-59049812D02*
X42114619Y-58811717D01*
X42114619Y-58811717D02*
X42162238Y-58668860D01*
X42162238Y-58668860D02*
X42257476Y-58573622D01*
X42257476Y-58573622D02*
X42352714Y-58526003D01*
X42352714Y-58526003D02*
X42543190Y-58478384D01*
X42543190Y-58478384D02*
X42686047Y-58478384D01*
X42686047Y-58478384D02*
X42876523Y-58526003D01*
X42876523Y-58526003D02*
X42971761Y-58573622D01*
X42971761Y-58573622D02*
X43067000Y-58668860D01*
X43067000Y-58668860D02*
X43114619Y-58811717D01*
X43114619Y-58811717D02*
X43114619Y-59049812D01*
X34183000Y-47604949D02*
X34135380Y-47747806D01*
X34135380Y-47747806D02*
X34135380Y-47985901D01*
X34135380Y-47985901D02*
X34183000Y-48081139D01*
X34183000Y-48081139D02*
X34230619Y-48128758D01*
X34230619Y-48128758D02*
X34325857Y-48176377D01*
X34325857Y-48176377D02*
X34421095Y-48176377D01*
X34421095Y-48176377D02*
X34516333Y-48128758D01*
X34516333Y-48128758D02*
X34563952Y-48081139D01*
X34563952Y-48081139D02*
X34611571Y-47985901D01*
X34611571Y-47985901D02*
X34659190Y-47795425D01*
X34659190Y-47795425D02*
X34706809Y-47700187D01*
X34706809Y-47700187D02*
X34754428Y-47652568D01*
X34754428Y-47652568D02*
X34849666Y-47604949D01*
X34849666Y-47604949D02*
X34944904Y-47604949D01*
X34944904Y-47604949D02*
X35040142Y-47652568D01*
X35040142Y-47652568D02*
X35087761Y-47700187D01*
X35087761Y-47700187D02*
X35135380Y-47795425D01*
X35135380Y-47795425D02*
X35135380Y-48033520D01*
X35135380Y-48033520D02*
X35087761Y-48176377D01*
X34135380Y-48604949D02*
X35135380Y-48604949D01*
X34135380Y-49081139D02*
X35135380Y-49081139D01*
X35135380Y-49081139D02*
X34135380Y-49652567D01*
X34135380Y-49652567D02*
X35135380Y-49652567D01*
X52578904Y-60895050D02*
X52578904Y-60418860D01*
X52864619Y-60990288D02*
X51864619Y-60656955D01*
X51864619Y-60656955D02*
X52864619Y-60323622D01*
D11*
X55548333Y-44141180D02*
X55548333Y-43426895D01*
X55548333Y-43426895D02*
X55595952Y-43284038D01*
X55595952Y-43284038D02*
X55691190Y-43188800D01*
X55691190Y-43188800D02*
X55834047Y-43141180D01*
X55834047Y-43141180D02*
X55929285Y-43141180D01*
X54643571Y-43807847D02*
X54643571Y-43141180D01*
X54881666Y-44188800D02*
X55119761Y-43474514D01*
X55119761Y-43474514D02*
X54500714Y-43474514D01*
X31988095Y-54704819D02*
X31988095Y-53704819D01*
X31988095Y-54181009D02*
X32559523Y-54181009D01*
X32559523Y-54704819D02*
X32559523Y-53704819D01*
X32988095Y-53800057D02*
X33035714Y-53752438D01*
X33035714Y-53752438D02*
X33130952Y-53704819D01*
X33130952Y-53704819D02*
X33369047Y-53704819D01*
X33369047Y-53704819D02*
X33464285Y-53752438D01*
X33464285Y-53752438D02*
X33511904Y-53800057D01*
X33511904Y-53800057D02*
X33559523Y-53895295D01*
X33559523Y-53895295D02*
X33559523Y-53990533D01*
X33559523Y-53990533D02*
X33511904Y-54133390D01*
X33511904Y-54133390D02*
X32940476Y-54704819D01*
X32940476Y-54704819D02*
X33559523Y-54704819D01*
X63238095Y-54204819D02*
X63238095Y-53204819D01*
X63238095Y-53681009D02*
X63809523Y-53681009D01*
X63809523Y-54204819D02*
X63809523Y-53204819D01*
X64809523Y-54204819D02*
X64238095Y-54204819D01*
X64523809Y-54204819D02*
X64523809Y-53204819D01*
X64523809Y-53204819D02*
X64428571Y-53347676D01*
X64428571Y-53347676D02*
X64333333Y-53442914D01*
X64333333Y-53442914D02*
X64238095Y-53490533D01*
X35416666Y-62954819D02*
X35416666Y-63669104D01*
X35416666Y-63669104D02*
X35369047Y-63811961D01*
X35369047Y-63811961D02*
X35273809Y-63907200D01*
X35273809Y-63907200D02*
X35130952Y-63954819D01*
X35130952Y-63954819D02*
X35035714Y-63954819D01*
X36416666Y-63954819D02*
X35845238Y-63954819D01*
X36130952Y-63954819D02*
X36130952Y-62954819D01*
X36130952Y-62954819D02*
X36035714Y-63097676D01*
X36035714Y-63097676D02*
X35940476Y-63192914D01*
X35940476Y-63192914D02*
X35845238Y-63240533D01*
X32666666Y-47454819D02*
X32666666Y-48169104D01*
X32666666Y-48169104D02*
X32619047Y-48311961D01*
X32619047Y-48311961D02*
X32523809Y-48407200D01*
X32523809Y-48407200D02*
X32380952Y-48454819D01*
X32380952Y-48454819D02*
X32285714Y-48454819D01*
X33047619Y-47454819D02*
X33666666Y-47454819D01*
X33666666Y-47454819D02*
X33333333Y-47835771D01*
X33333333Y-47835771D02*
X33476190Y-47835771D01*
X33476190Y-47835771D02*
X33571428Y-47883390D01*
X33571428Y-47883390D02*
X33619047Y-47931009D01*
X33619047Y-47931009D02*
X33666666Y-48026247D01*
X33666666Y-48026247D02*
X33666666Y-48264342D01*
X33666666Y-48264342D02*
X33619047Y-48359580D01*
X33619047Y-48359580D02*
X33571428Y-48407200D01*
X33571428Y-48407200D02*
X33476190Y-48454819D01*
X33476190Y-48454819D02*
X33190476Y-48454819D01*
X33190476Y-48454819D02*
X33095238Y-48407200D01*
X33095238Y-48407200D02*
X33047619Y-48359580D01*
D12*
%TO.C,J4*%
X47315600Y-34502800D02*
X47315600Y-38030328D01*
X47315600Y-39001672D02*
X47315600Y-52689200D01*
X47315600Y-52689200D02*
X63114400Y-52689200D01*
X63114400Y-34502800D02*
X47315600Y-34502800D01*
X63114400Y-38030328D02*
X63114400Y-34502800D01*
X63114400Y-52689200D02*
X63114400Y-39001672D01*
D13*
X65121000Y-48346000D02*
G75*
G02*
X64359000Y-48346000I-381000J0D01*
G01*
X64359000Y-48346000D02*
G75*
G02*
X65121000Y-48346000I381000J0D01*
G01*
D14*
%TO.C,J1*%
X37090000Y-63610000D02*
X37090000Y-66110000D01*
X37090000Y-66110000D02*
X39590000Y-66110000D01*
X37390000Y-61790000D02*
X37390000Y-65810000D01*
X37390000Y-63500000D02*
X37890000Y-63500000D01*
X37390000Y-64310000D02*
X38390000Y-64310000D01*
X37390000Y-65810000D02*
X60110000Y-65810000D01*
X37890000Y-62290000D02*
X59610000Y-62290000D01*
X37890000Y-63500000D02*
X37890000Y-62290000D01*
X38390000Y-64310000D02*
X38390000Y-65810000D01*
X59110000Y-64310000D02*
X59110000Y-65810000D01*
X59610000Y-62290000D02*
X59610000Y-63500000D01*
X59610000Y-63500000D02*
X60110000Y-63500000D01*
X60110000Y-61790000D02*
X37390000Y-61790000D01*
X60110000Y-64310000D02*
X59110000Y-64310000D01*
X60110000Y-65810000D02*
X60110000Y-61790000D01*
%TO.C,J3*%
X32235000Y-42155000D02*
X32235000Y-46155000D01*
X32525000Y-35335000D02*
X44475000Y-35335000D01*
X32525000Y-38855000D02*
X32525000Y-35335000D01*
X33740000Y-35335000D02*
X33740000Y-35935000D01*
X33740000Y-35935000D02*
X35340000Y-35935000D01*
X35340000Y-35935000D02*
X35340000Y-35335000D01*
X37700000Y-35335000D02*
X37700000Y-35935000D01*
X37700000Y-35935000D02*
X39300000Y-35935000D01*
X39300000Y-35935000D02*
X39300000Y-35335000D01*
X41660000Y-35335000D02*
X41660000Y-35935000D01*
X41660000Y-35935000D02*
X43260000Y-35935000D01*
X43260000Y-35935000D02*
X43260000Y-35335000D01*
X44475000Y-35335000D02*
X44475000Y-38855000D01*
X44475000Y-38855000D02*
X32525000Y-38855000D01*
%TD*%
M02*
