M48
; DRILL file {KiCad 8.0.8} date 2025-02-10T21:19:24-0800
; FORMAT={-:-/ absolute / inch / decimal}
; #@! TF.CreationDate,2025-02-10T21:19:24-08:00
; #@! TF.GenerationSoftware,Kicad,Pcbnew,8.0.8
; #@! TF.FileFunction,Plated,1,2,PTH
FMAT,2
INCH
; #@! TA.AperFunction,Plated,PTH,ViaDrill
T1C0.0118
; #@! TA.AperFunction,Plated,PTH,ComponentDrill
T2C0.0300
; #@! TA.AperFunction,Plated,PTH,ComponentDrill
T3C0.0374
; #@! TA.AperFunction,Plated,PTH,ComponentDrill
T4C0.0669
; #@! TA.AperFunction,Plated,PTH,ComponentDrill
T5C0.1300
%
G90
G05
T1
X1.3287Y-2.2146
X1.3386Y-2.5394
X1.3583Y-1.5157
X1.4567Y-1.9587
X1.5453Y-2.0669
X1.624Y-1.5256
X1.7126Y-2.1161
X1.7126Y-2.2441
X1.8209Y-1.8504
X1.9094Y-1.7913
X1.939Y-2.1654
X1.9587Y-2.3524
X1.9783Y-2.1063
X2.0768Y-1.4862
X2.2244Y-2.0866
X2.2441Y-1.752
X2.3819Y-1.4862
X2.4016Y-1.8307
X2.4409Y-1.998
X2.4705Y-2.5492
X2.5394Y-2.313
X2.5492Y-2.0374
X2.5591Y-1.7717
T2
X1.9988Y-2.0134
X2.0488Y-1.9134
X2.0988Y-2.0134
X2.1488Y-1.9134
X2.1988Y-2.0134
X2.2488Y-1.9134
X2.2988Y-2.0134
X2.3488Y-1.9134
T3
X1.5748Y-2.5
X1.6732Y-2.5
X1.7717Y-2.5
X1.8701Y-2.5
X1.9685Y-2.5
X2.0669Y-2.5
X2.1654Y-2.5
X2.2638Y-2.5
T4
X1.3598Y-1.7384
X1.5157Y-1.7384
X1.6717Y-1.7384
T5
X1.9488Y-1.6634
X2.3988Y-1.6634
M30
