%TF.GenerationSoftware,KiCad,Pcbnew,8.0.5*%
%TF.CreationDate,2024-12-09T20:19:28-08:00*%
%TF.ProjectId,Motor_Adapt_M,4d6f746f-725f-4416-9461-70745f4d2e6b,rev?*%
%TF.SameCoordinates,Original*%
%TF.FileFunction,Legend,Top*%
%TF.FilePolarity,Positive*%
%FSLAX46Y46*%
G04 Gerber Fmt 4.6, Leading zero omitted, Abs format (unit mm)*
G04 Created by KiCad (PCBNEW 8.0.5) date 2024-12-09 20:19:28*
%MOMM*%
%LPD*%
G01*
G04 APERTURE LIST*
%ADD10C,0.250000*%
%ADD11C,0.150000*%
%ADD12C,0.127000*%
%ADD13C,0.200000*%
%ADD14C,0.120000*%
G04 APERTURE END LIST*
D10*
X42837761Y-47926377D02*
X42885380Y-47831139D01*
X42885380Y-47831139D02*
X42885380Y-47688282D01*
X42885380Y-47688282D02*
X42837761Y-47545425D01*
X42837761Y-47545425D02*
X42742523Y-47450187D01*
X42742523Y-47450187D02*
X42647285Y-47402568D01*
X42647285Y-47402568D02*
X42456809Y-47354949D01*
X42456809Y-47354949D02*
X42313952Y-47354949D01*
X42313952Y-47354949D02*
X42123476Y-47402568D01*
X42123476Y-47402568D02*
X42028238Y-47450187D01*
X42028238Y-47450187D02*
X41933000Y-47545425D01*
X41933000Y-47545425D02*
X41885380Y-47688282D01*
X41885380Y-47688282D02*
X41885380Y-47783520D01*
X41885380Y-47783520D02*
X41933000Y-47926377D01*
X41933000Y-47926377D02*
X41980619Y-47973996D01*
X41980619Y-47973996D02*
X42313952Y-47973996D01*
X42313952Y-47973996D02*
X42313952Y-47783520D01*
X41885380Y-48402568D02*
X42885380Y-48402568D01*
X42885380Y-48402568D02*
X41885380Y-48973996D01*
X41885380Y-48973996D02*
X42885380Y-48973996D01*
X41885380Y-49450187D02*
X42885380Y-49450187D01*
X42885380Y-49450187D02*
X42885380Y-49688282D01*
X42885380Y-49688282D02*
X42837761Y-49831139D01*
X42837761Y-49831139D02*
X42742523Y-49926377D01*
X42742523Y-49926377D02*
X42647285Y-49973996D01*
X42647285Y-49973996D02*
X42456809Y-50021615D01*
X42456809Y-50021615D02*
X42313952Y-50021615D01*
X42313952Y-50021615D02*
X42123476Y-49973996D01*
X42123476Y-49973996D02*
X42028238Y-49926377D01*
X42028238Y-49926377D02*
X41933000Y-49831139D01*
X41933000Y-49831139D02*
X41885380Y-49688282D01*
X41885380Y-49688282D02*
X41885380Y-49450187D01*
X41067000Y-53145050D02*
X41114619Y-53002193D01*
X41114619Y-53002193D02*
X41114619Y-52764098D01*
X41114619Y-52764098D02*
X41067000Y-52668860D01*
X41067000Y-52668860D02*
X41019380Y-52621241D01*
X41019380Y-52621241D02*
X40924142Y-52573622D01*
X40924142Y-52573622D02*
X40828904Y-52573622D01*
X40828904Y-52573622D02*
X40733666Y-52621241D01*
X40733666Y-52621241D02*
X40686047Y-52668860D01*
X40686047Y-52668860D02*
X40638428Y-52764098D01*
X40638428Y-52764098D02*
X40590809Y-52954574D01*
X40590809Y-52954574D02*
X40543190Y-53049812D01*
X40543190Y-53049812D02*
X40495571Y-53097431D01*
X40495571Y-53097431D02*
X40400333Y-53145050D01*
X40400333Y-53145050D02*
X40305095Y-53145050D01*
X40305095Y-53145050D02*
X40209857Y-53097431D01*
X40209857Y-53097431D02*
X40162238Y-53049812D01*
X40162238Y-53049812D02*
X40114619Y-52954574D01*
X40114619Y-52954574D02*
X40114619Y-52716479D01*
X40114619Y-52716479D02*
X40162238Y-52573622D01*
X41114619Y-52145050D02*
X40114619Y-52145050D01*
X41114619Y-51668860D02*
X40114619Y-51668860D01*
X40114619Y-51668860D02*
X41114619Y-51097432D01*
X41114619Y-51097432D02*
X40114619Y-51097432D01*
X55340809Y-52764098D02*
X55388428Y-52621241D01*
X55388428Y-52621241D02*
X55436047Y-52573622D01*
X55436047Y-52573622D02*
X55531285Y-52526003D01*
X55531285Y-52526003D02*
X55674142Y-52526003D01*
X55674142Y-52526003D02*
X55769380Y-52573622D01*
X55769380Y-52573622D02*
X55817000Y-52621241D01*
X55817000Y-52621241D02*
X55864619Y-52716479D01*
X55864619Y-52716479D02*
X55864619Y-53097431D01*
X55864619Y-53097431D02*
X54864619Y-53097431D01*
X54864619Y-53097431D02*
X54864619Y-52764098D01*
X54864619Y-52764098D02*
X54912238Y-52668860D01*
X54912238Y-52668860D02*
X54959857Y-52621241D01*
X54959857Y-52621241D02*
X55055095Y-52573622D01*
X55055095Y-52573622D02*
X55150333Y-52573622D01*
X55150333Y-52573622D02*
X55245571Y-52621241D01*
X55245571Y-52621241D02*
X55293190Y-52668860D01*
X55293190Y-52668860D02*
X55340809Y-52764098D01*
X55340809Y-52764098D02*
X55340809Y-53097431D01*
X46269380Y-52526003D02*
X46317000Y-52573622D01*
X46317000Y-52573622D02*
X46364619Y-52716479D01*
X46364619Y-52716479D02*
X46364619Y-52811717D01*
X46364619Y-52811717D02*
X46317000Y-52954574D01*
X46317000Y-52954574D02*
X46221761Y-53049812D01*
X46221761Y-53049812D02*
X46126523Y-53097431D01*
X46126523Y-53097431D02*
X45936047Y-53145050D01*
X45936047Y-53145050D02*
X45793190Y-53145050D01*
X45793190Y-53145050D02*
X45602714Y-53097431D01*
X45602714Y-53097431D02*
X45507476Y-53049812D01*
X45507476Y-53049812D02*
X45412238Y-52954574D01*
X45412238Y-52954574D02*
X45364619Y-52811717D01*
X45364619Y-52811717D02*
X45364619Y-52716479D01*
X45364619Y-52716479D02*
X45412238Y-52573622D01*
X45412238Y-52573622D02*
X45459857Y-52526003D01*
X45364619Y-51906955D02*
X45364619Y-51716479D01*
X45364619Y-51716479D02*
X45412238Y-51621241D01*
X45412238Y-51621241D02*
X45507476Y-51526003D01*
X45507476Y-51526003D02*
X45697952Y-51478384D01*
X45697952Y-51478384D02*
X46031285Y-51478384D01*
X46031285Y-51478384D02*
X46221761Y-51526003D01*
X46221761Y-51526003D02*
X46317000Y-51621241D01*
X46317000Y-51621241D02*
X46364619Y-51716479D01*
X46364619Y-51716479D02*
X46364619Y-51906955D01*
X46364619Y-51906955D02*
X46317000Y-52002193D01*
X46317000Y-52002193D02*
X46221761Y-52097431D01*
X46221761Y-52097431D02*
X46031285Y-52145050D01*
X46031285Y-52145050D02*
X45697952Y-52145050D01*
X45697952Y-52145050D02*
X45507476Y-52097431D01*
X45507476Y-52097431D02*
X45412238Y-52002193D01*
X45412238Y-52002193D02*
X45364619Y-51906955D01*
X46317000Y-51097431D02*
X46364619Y-50954574D01*
X46364619Y-50954574D02*
X46364619Y-50716479D01*
X46364619Y-50716479D02*
X46317000Y-50621241D01*
X46317000Y-50621241D02*
X46269380Y-50573622D01*
X46269380Y-50573622D02*
X46174142Y-50526003D01*
X46174142Y-50526003D02*
X46078904Y-50526003D01*
X46078904Y-50526003D02*
X45983666Y-50573622D01*
X45983666Y-50573622D02*
X45936047Y-50621241D01*
X45936047Y-50621241D02*
X45888428Y-50716479D01*
X45888428Y-50716479D02*
X45840809Y-50906955D01*
X45840809Y-50906955D02*
X45793190Y-51002193D01*
X45793190Y-51002193D02*
X45745571Y-51049812D01*
X45745571Y-51049812D02*
X45650333Y-51097431D01*
X45650333Y-51097431D02*
X45555095Y-51097431D01*
X45555095Y-51097431D02*
X45459857Y-51049812D01*
X45459857Y-51049812D02*
X45412238Y-51002193D01*
X45412238Y-51002193D02*
X45364619Y-50906955D01*
X45364619Y-50906955D02*
X45364619Y-50668860D01*
X45364619Y-50668860D02*
X45412238Y-50526003D01*
X58364619Y-53097431D02*
X57364619Y-53097431D01*
X37730619Y-47973996D02*
X37683000Y-47926377D01*
X37683000Y-47926377D02*
X37635380Y-47783520D01*
X37635380Y-47783520D02*
X37635380Y-47688282D01*
X37635380Y-47688282D02*
X37683000Y-47545425D01*
X37683000Y-47545425D02*
X37778238Y-47450187D01*
X37778238Y-47450187D02*
X37873476Y-47402568D01*
X37873476Y-47402568D02*
X38063952Y-47354949D01*
X38063952Y-47354949D02*
X38206809Y-47354949D01*
X38206809Y-47354949D02*
X38397285Y-47402568D01*
X38397285Y-47402568D02*
X38492523Y-47450187D01*
X38492523Y-47450187D02*
X38587761Y-47545425D01*
X38587761Y-47545425D02*
X38635380Y-47688282D01*
X38635380Y-47688282D02*
X38635380Y-47783520D01*
X38635380Y-47783520D02*
X38587761Y-47926377D01*
X38587761Y-47926377D02*
X38540142Y-47973996D01*
X38635380Y-48593044D02*
X38635380Y-48783520D01*
X38635380Y-48783520D02*
X38587761Y-48878758D01*
X38587761Y-48878758D02*
X38492523Y-48973996D01*
X38492523Y-48973996D02*
X38302047Y-49021615D01*
X38302047Y-49021615D02*
X37968714Y-49021615D01*
X37968714Y-49021615D02*
X37778238Y-48973996D01*
X37778238Y-48973996D02*
X37683000Y-48878758D01*
X37683000Y-48878758D02*
X37635380Y-48783520D01*
X37635380Y-48783520D02*
X37635380Y-48593044D01*
X37635380Y-48593044D02*
X37683000Y-48497806D01*
X37683000Y-48497806D02*
X37778238Y-48402568D01*
X37778238Y-48402568D02*
X37968714Y-48354949D01*
X37968714Y-48354949D02*
X38302047Y-48354949D01*
X38302047Y-48354949D02*
X38492523Y-48402568D01*
X38492523Y-48402568D02*
X38587761Y-48497806D01*
X38587761Y-48497806D02*
X38635380Y-48593044D01*
X37683000Y-49402568D02*
X37635380Y-49545425D01*
X37635380Y-49545425D02*
X37635380Y-49783520D01*
X37635380Y-49783520D02*
X37683000Y-49878758D01*
X37683000Y-49878758D02*
X37730619Y-49926377D01*
X37730619Y-49926377D02*
X37825857Y-49973996D01*
X37825857Y-49973996D02*
X37921095Y-49973996D01*
X37921095Y-49973996D02*
X38016333Y-49926377D01*
X38016333Y-49926377D02*
X38063952Y-49878758D01*
X38063952Y-49878758D02*
X38111571Y-49783520D01*
X38111571Y-49783520D02*
X38159190Y-49593044D01*
X38159190Y-49593044D02*
X38206809Y-49497806D01*
X38206809Y-49497806D02*
X38254428Y-49450187D01*
X38254428Y-49450187D02*
X38349666Y-49402568D01*
X38349666Y-49402568D02*
X38444904Y-49402568D01*
X38444904Y-49402568D02*
X38540142Y-49450187D01*
X38540142Y-49450187D02*
X38587761Y-49497806D01*
X38587761Y-49497806D02*
X38635380Y-49593044D01*
X38635380Y-49593044D02*
X38635380Y-49831139D01*
X38635380Y-49831139D02*
X38587761Y-49973996D01*
X42662238Y-52573622D02*
X42614619Y-52668860D01*
X42614619Y-52668860D02*
X42614619Y-52811717D01*
X42614619Y-52811717D02*
X42662238Y-52954574D01*
X42662238Y-52954574D02*
X42757476Y-53049812D01*
X42757476Y-53049812D02*
X42852714Y-53097431D01*
X42852714Y-53097431D02*
X43043190Y-53145050D01*
X43043190Y-53145050D02*
X43186047Y-53145050D01*
X43186047Y-53145050D02*
X43376523Y-53097431D01*
X43376523Y-53097431D02*
X43471761Y-53049812D01*
X43471761Y-53049812D02*
X43567000Y-52954574D01*
X43567000Y-52954574D02*
X43614619Y-52811717D01*
X43614619Y-52811717D02*
X43614619Y-52716479D01*
X43614619Y-52716479D02*
X43567000Y-52573622D01*
X43567000Y-52573622D02*
X43519380Y-52526003D01*
X43519380Y-52526003D02*
X43186047Y-52526003D01*
X43186047Y-52526003D02*
X43186047Y-52716479D01*
X43614619Y-52097431D02*
X42614619Y-52097431D01*
X42614619Y-52097431D02*
X43614619Y-51526003D01*
X43614619Y-51526003D02*
X42614619Y-51526003D01*
X43614619Y-51049812D02*
X42614619Y-51049812D01*
X42614619Y-51049812D02*
X42614619Y-50811717D01*
X42614619Y-50811717D02*
X42662238Y-50668860D01*
X42662238Y-50668860D02*
X42757476Y-50573622D01*
X42757476Y-50573622D02*
X42852714Y-50526003D01*
X42852714Y-50526003D02*
X43043190Y-50478384D01*
X43043190Y-50478384D02*
X43186047Y-50478384D01*
X43186047Y-50478384D02*
X43376523Y-50526003D01*
X43376523Y-50526003D02*
X43471761Y-50573622D01*
X43471761Y-50573622D02*
X43567000Y-50668860D01*
X43567000Y-50668860D02*
X43614619Y-50811717D01*
X43614619Y-50811717D02*
X43614619Y-51049812D01*
X34183000Y-47604949D02*
X34135380Y-47747806D01*
X34135380Y-47747806D02*
X34135380Y-47985901D01*
X34135380Y-47985901D02*
X34183000Y-48081139D01*
X34183000Y-48081139D02*
X34230619Y-48128758D01*
X34230619Y-48128758D02*
X34325857Y-48176377D01*
X34325857Y-48176377D02*
X34421095Y-48176377D01*
X34421095Y-48176377D02*
X34516333Y-48128758D01*
X34516333Y-48128758D02*
X34563952Y-48081139D01*
X34563952Y-48081139D02*
X34611571Y-47985901D01*
X34611571Y-47985901D02*
X34659190Y-47795425D01*
X34659190Y-47795425D02*
X34706809Y-47700187D01*
X34706809Y-47700187D02*
X34754428Y-47652568D01*
X34754428Y-47652568D02*
X34849666Y-47604949D01*
X34849666Y-47604949D02*
X34944904Y-47604949D01*
X34944904Y-47604949D02*
X35040142Y-47652568D01*
X35040142Y-47652568D02*
X35087761Y-47700187D01*
X35087761Y-47700187D02*
X35135380Y-47795425D01*
X35135380Y-47795425D02*
X35135380Y-48033520D01*
X35135380Y-48033520D02*
X35087761Y-48176377D01*
X34135380Y-48604949D02*
X35135380Y-48604949D01*
X34135380Y-49081139D02*
X35135380Y-49081139D01*
X35135380Y-49081139D02*
X34135380Y-49652567D01*
X34135380Y-49652567D02*
X35135380Y-49652567D01*
X53328904Y-53145050D02*
X53328904Y-52668860D01*
X53614619Y-53240288D02*
X52614619Y-52906955D01*
X52614619Y-52906955D02*
X53614619Y-52573622D01*
D11*
X62916666Y-52954819D02*
X62916666Y-53669104D01*
X62916666Y-53669104D02*
X62869047Y-53811961D01*
X62869047Y-53811961D02*
X62773809Y-53907200D01*
X62773809Y-53907200D02*
X62630952Y-53954819D01*
X62630952Y-53954819D02*
X62535714Y-53954819D01*
X63345238Y-53050057D02*
X63392857Y-53002438D01*
X63392857Y-53002438D02*
X63488095Y-52954819D01*
X63488095Y-52954819D02*
X63726190Y-52954819D01*
X63726190Y-52954819D02*
X63821428Y-53002438D01*
X63821428Y-53002438D02*
X63869047Y-53050057D01*
X63869047Y-53050057D02*
X63916666Y-53145295D01*
X63916666Y-53145295D02*
X63916666Y-53240533D01*
X63916666Y-53240533D02*
X63869047Y-53383390D01*
X63869047Y-53383390D02*
X63297619Y-53954819D01*
X63297619Y-53954819D02*
X63916666Y-53954819D01*
X36166666Y-54954819D02*
X36166666Y-55669104D01*
X36166666Y-55669104D02*
X36119047Y-55811961D01*
X36119047Y-55811961D02*
X36023809Y-55907200D01*
X36023809Y-55907200D02*
X35880952Y-55954819D01*
X35880952Y-55954819D02*
X35785714Y-55954819D01*
X37166666Y-55954819D02*
X36595238Y-55954819D01*
X36880952Y-55954819D02*
X36880952Y-54954819D01*
X36880952Y-54954819D02*
X36785714Y-55097676D01*
X36785714Y-55097676D02*
X36690476Y-55192914D01*
X36690476Y-55192914D02*
X36595238Y-55240533D01*
X32666666Y-47454819D02*
X32666666Y-48169104D01*
X32666666Y-48169104D02*
X32619047Y-48311961D01*
X32619047Y-48311961D02*
X32523809Y-48407200D01*
X32523809Y-48407200D02*
X32380952Y-48454819D01*
X32380952Y-48454819D02*
X32285714Y-48454819D01*
X33047619Y-47454819D02*
X33666666Y-47454819D01*
X33666666Y-47454819D02*
X33333333Y-47835771D01*
X33333333Y-47835771D02*
X33476190Y-47835771D01*
X33476190Y-47835771D02*
X33571428Y-47883390D01*
X33571428Y-47883390D02*
X33619047Y-47931009D01*
X33619047Y-47931009D02*
X33666666Y-48026247D01*
X33666666Y-48026247D02*
X33666666Y-48264342D01*
X33666666Y-48264342D02*
X33619047Y-48359580D01*
X33619047Y-48359580D02*
X33571428Y-48407200D01*
X33571428Y-48407200D02*
X33476190Y-48454819D01*
X33476190Y-48454819D02*
X33190476Y-48454819D01*
X33190476Y-48454819D02*
X33095238Y-48407200D01*
X33095238Y-48407200D02*
X33047619Y-48359580D01*
D12*
%TO.C,J2*%
X47370000Y-35145000D02*
X47370000Y-38155000D01*
X47370000Y-42695000D02*
X47370000Y-50765000D01*
X47370000Y-50765000D02*
X50800000Y-50765000D01*
X60200000Y-50765000D02*
X63630000Y-50765000D01*
X63630000Y-35145000D02*
X47370000Y-35145000D01*
X63630000Y-35145000D02*
X63630000Y-38155000D01*
X63630000Y-50765000D02*
X63630000Y-42695000D01*
D13*
X52030000Y-52930000D02*
G75*
G02*
X51830000Y-52930000I-100000J0D01*
G01*
X51830000Y-52930000D02*
G75*
G02*
X52030000Y-52930000I100000J0D01*
G01*
D14*
%TO.C,J1*%
X37840000Y-55610000D02*
X37840000Y-58110000D01*
X37840000Y-58110000D02*
X40340000Y-58110000D01*
X38140000Y-53790000D02*
X38140000Y-57810000D01*
X38140000Y-55500000D02*
X38640000Y-55500000D01*
X38140000Y-56310000D02*
X39140000Y-56310000D01*
X38140000Y-57810000D02*
X60860000Y-57810000D01*
X38640000Y-54290000D02*
X60360000Y-54290000D01*
X38640000Y-55500000D02*
X38640000Y-54290000D01*
X39140000Y-56310000D02*
X39140000Y-57810000D01*
X59860000Y-56310000D02*
X59860000Y-57810000D01*
X60360000Y-54290000D02*
X60360000Y-55500000D01*
X60360000Y-55500000D02*
X60860000Y-55500000D01*
X60860000Y-53790000D02*
X38140000Y-53790000D01*
X60860000Y-56310000D02*
X59860000Y-56310000D01*
X60860000Y-57810000D02*
X60860000Y-53790000D01*
%TO.C,J3*%
X32235000Y-42155000D02*
X32235000Y-46155000D01*
X32525000Y-35335000D02*
X44475000Y-35335000D01*
X32525000Y-38855000D02*
X32525000Y-35335000D01*
X33740000Y-35335000D02*
X33740000Y-35935000D01*
X33740000Y-35935000D02*
X35340000Y-35935000D01*
X35340000Y-35935000D02*
X35340000Y-35335000D01*
X37700000Y-35335000D02*
X37700000Y-35935000D01*
X37700000Y-35935000D02*
X39300000Y-35935000D01*
X39300000Y-35935000D02*
X39300000Y-35335000D01*
X41660000Y-35335000D02*
X41660000Y-35935000D01*
X41660000Y-35935000D02*
X43260000Y-35935000D01*
X43260000Y-35935000D02*
X43260000Y-35335000D01*
X44475000Y-35335000D02*
X44475000Y-38855000D01*
X44475000Y-38855000D02*
X32525000Y-38855000D01*
%TD*%
M02*
