%TF.GenerationSoftware,KiCad,Pcbnew,9.0.0*%
%TF.CreationDate,2025-04-07T00:56:54-07:00*%
%TF.ProjectId,Motor_quick_connect,4d6f746f-725f-4717-9569-636b5f636f6e,rev?*%
%TF.SameCoordinates,Original*%
%TF.FileFunction,Copper,L1,Top*%
%TF.FilePolarity,Positive*%
%FSLAX46Y46*%
G04 Gerber Fmt 4.6, Leading zero omitted, Abs format (unit mm)*
G04 Created by KiCad (PCBNEW 9.0.0) date 2025-04-07 00:56:54*
%MOMM*%
%LPD*%
G01*
G04 APERTURE LIST*
G04 Aperture macros list*
%AMRoundRect*
0 Rectangle with rounded corners*
0 $1 Rounding radius*
0 $2 $3 $4 $5 $6 $7 $8 $9 X,Y pos of 4 corners*
0 Add a 4 corners polygon primitive as box body*
4,1,4,$2,$3,$4,$5,$6,$7,$8,$9,$2,$3,0*
0 Add four circle primitives for the rounded corners*
1,1,$1+$1,$2,$3*
1,1,$1+$1,$4,$5*
1,1,$1+$1,$6,$7*
1,1,$1+$1,$8,$9*
0 Add four rect primitives between the rounded corners*
20,1,$1+$1,$2,$3,$4,$5,0*
20,1,$1+$1,$4,$5,$6,$7,0*
20,1,$1+$1,$6,$7,$8,$9,0*
20,1,$1+$1,$8,$9,$2,$3,0*%
G04 Aperture macros list end*
%TA.AperFunction,ComponentPad*%
%ADD10C,3.600000*%
%TD*%
%TA.AperFunction,ConnectorPad*%
%ADD11C,6.400000*%
%TD*%
%TA.AperFunction,ComponentPad*%
%ADD12RoundRect,0.250000X-1.330000X-1.800000X1.330000X-1.800000X1.330000X1.800000X-1.330000X1.800000X0*%
%TD*%
%TA.AperFunction,ComponentPad*%
%ADD13O,3.160000X4.100000*%
%TD*%
%TA.AperFunction,ComponentPad*%
%ADD14C,1.270000*%
%TD*%
%TA.AperFunction,ComponentPad*%
%ADD15C,3.810000*%
%TD*%
%TA.AperFunction,ComponentPad*%
%ADD16RoundRect,0.250000X1.330000X1.800000X-1.330000X1.800000X-1.330000X-1.800000X1.330000X-1.800000X0*%
%TD*%
%TA.AperFunction,ViaPad*%
%ADD17C,0.600000*%
%TD*%
%TA.AperFunction,Conductor*%
%ADD18C,0.500000*%
%TD*%
G04 APERTURE END LIST*
D10*
%TO.P,H2,1,1*%
%TO.N,GND*%
X75750000Y-57750000D03*
D11*
X75750000Y-57750000D03*
%TD*%
D12*
%TO.P,J3,1,Pin_1*%
%TO.N,/Sin0*%
X44530000Y-48675000D03*
D13*
%TO.P,J3,2,Pin_2*%
%TO.N,/Cos0*%
X48490000Y-48675000D03*
%TO.P,J3,3,Pin_3*%
%TO.N,GND*%
X52450000Y-48675000D03*
%TD*%
D14*
%TO.P,J4,1,1*%
%TO.N,+5V*%
X59837700Y-65461300D03*
%TO.P,J4,2,2*%
%TO.N,/C_A0*%
X61107700Y-62921300D03*
%TO.P,J4,3,3*%
%TO.N,/C_B0*%
X62377700Y-65461300D03*
%TO.P,J4,4,4*%
%TO.N,/C_I0*%
X63647700Y-62921300D03*
%TO.P,J4,5,5*%
%TO.N,/SEA_I0*%
X64917700Y-65461300D03*
%TO.P,J4,6,6*%
%TO.N,/SEA_A0*%
X66187700Y-62921300D03*
%TO.P,J4,7,7*%
%TO.N,/SEA_B0*%
X67457700Y-65461300D03*
%TO.P,J4,8,8*%
%TO.N,GND*%
X68727700Y-62921300D03*
D15*
%TO.P,J4,9*%
%TO.N,N/C*%
X58567700Y-71811300D03*
%TO.P,J4,10*%
X69997700Y-71811300D03*
%TD*%
D16*
%TO.P,J11,1,Pin_1*%
%TO.N,/Sin0*%
X52280000Y-66500000D03*
D13*
%TO.P,J11,2,Pin_2*%
%TO.N,/Cos0*%
X48320000Y-66500000D03*
%TO.P,J11,3,Pin_3*%
%TO.N,GND*%
X44360000Y-66500000D03*
%TD*%
D10*
%TO.P,H1,1,1*%
%TO.N,GND*%
X42000000Y-58000000D03*
D11*
X42000000Y-58000000D03*
%TD*%
D14*
%TO.P,J6,1,1*%
%TO.N,+5V*%
X68730000Y-49100000D03*
%TO.P,J6,2,2*%
%TO.N,/C_A0*%
X67460000Y-51640000D03*
%TO.P,J6,3,3*%
%TO.N,/C_B0*%
X66190000Y-49100000D03*
%TO.P,J6,4,4*%
%TO.N,/C_I0*%
X64920000Y-51640000D03*
%TO.P,J6,5,5*%
%TO.N,/SEA_I0*%
X63650000Y-49100000D03*
%TO.P,J6,6,6*%
%TO.N,/SEA_A0*%
X62380000Y-51640000D03*
%TO.P,J6,7,7*%
%TO.N,/SEA_B0*%
X61110000Y-49100000D03*
%TO.P,J6,8,8*%
%TO.N,GND*%
X59840000Y-51640000D03*
D15*
%TO.P,J6,9*%
%TO.N,N/C*%
X70000000Y-42750000D03*
%TO.P,J6,10*%
X58570000Y-42750000D03*
%TD*%
D17*
%TO.N,/C_A0*%
X67500000Y-54250000D03*
%TO.N,/C_B0*%
X67250000Y-56000000D03*
%TO.N,/C_I0*%
X67250000Y-57000000D03*
%TO.N,/SEA_A0*%
X67750000Y-60250000D03*
%TO.N,/SEA_I0*%
X67310662Y-58750000D03*
%TD*%
D18*
%TO.N,/C_A0*%
X67460000Y-51640000D02*
X67460000Y-52960000D01*
X67750000Y-53250000D02*
X67750000Y-54000000D01*
X67460000Y-52960000D02*
X67750000Y-53250000D01*
X67750000Y-54000000D02*
X67500000Y-54250000D01*
%TO.N,/C_B0*%
X67250000Y-56000000D02*
X66190000Y-54940000D01*
X66190000Y-54940000D02*
X66190000Y-49100000D01*
%TO.N,/C_I0*%
X66250000Y-57250000D02*
X64920000Y-55920000D01*
X67250000Y-57000000D02*
X67000000Y-57250000D01*
X67000000Y-57250000D02*
X66250000Y-57250000D01*
X64920000Y-55920000D02*
X64920000Y-51640000D01*
%TO.N,/Cos0*%
X48490000Y-48675000D02*
X48490000Y-66330000D01*
X48490000Y-66330000D02*
X48320000Y-66500000D01*
%TO.N,/SEA_A0*%
X62380000Y-57380000D02*
X62380000Y-51640000D01*
X67000000Y-59500000D02*
X64500000Y-59500000D01*
X67750000Y-60250000D02*
X67000000Y-59500000D01*
X64500000Y-59500000D02*
X62380000Y-57380000D01*
%TO.N,/SEA_B0*%
X67457700Y-61542300D02*
X67457700Y-65461300D01*
X61110000Y-58110000D02*
X61110000Y-49100000D01*
X67500000Y-61500000D02*
X66500000Y-60500000D01*
X67500000Y-61500000D02*
X67457700Y-61542300D01*
X63500000Y-60500000D02*
X61110000Y-58110000D01*
X66500000Y-60500000D02*
X63500000Y-60500000D01*
%TO.N,/SEA_I0*%
X63650000Y-56900000D02*
X63650000Y-49100000D01*
X66810662Y-58250000D02*
X65000000Y-58250000D01*
X65000000Y-58250000D02*
X63650000Y-56900000D01*
X67310662Y-58750000D02*
X66810662Y-58250000D01*
%TD*%
%TA.AperFunction,Conductor*%
%TO.N,GND*%
G36*
X76253032Y-34750648D02*
G01*
X76586929Y-34767052D01*
X76599037Y-34768245D01*
X76702146Y-34783539D01*
X76926699Y-34816849D01*
X76938617Y-34819219D01*
X77259951Y-34899709D01*
X77271588Y-34903240D01*
X77342806Y-34928722D01*
X77583467Y-35014832D01*
X77594688Y-35019479D01*
X77894163Y-35161120D01*
X77904871Y-35166844D01*
X78188988Y-35337137D01*
X78199106Y-35343897D01*
X78465170Y-35541224D01*
X78474576Y-35548944D01*
X78720013Y-35771395D01*
X78728604Y-35779986D01*
X78915755Y-35986475D01*
X78951055Y-36025423D01*
X78958775Y-36034829D01*
X79156102Y-36300893D01*
X79162862Y-36311011D01*
X79291776Y-36526092D01*
X79333148Y-36595116D01*
X79338885Y-36605848D01*
X79480514Y-36905297D01*
X79485170Y-36916540D01*
X79596759Y-37228411D01*
X79600292Y-37240055D01*
X79680777Y-37561369D01*
X79683151Y-37573305D01*
X79731754Y-37900962D01*
X79732947Y-37913071D01*
X79749351Y-38246966D01*
X79749500Y-38253051D01*
X79749500Y-76496948D01*
X79749351Y-76503033D01*
X79732947Y-76836928D01*
X79731754Y-76849037D01*
X79683151Y-77176694D01*
X79680777Y-77188630D01*
X79600292Y-77509944D01*
X79596759Y-77521588D01*
X79485170Y-77833459D01*
X79480514Y-77844702D01*
X79338885Y-78144151D01*
X79333148Y-78154883D01*
X79162862Y-78438988D01*
X79156102Y-78449106D01*
X78958775Y-78715170D01*
X78951055Y-78724576D01*
X78728611Y-78970006D01*
X78720006Y-78978611D01*
X78474576Y-79201055D01*
X78465170Y-79208775D01*
X78199106Y-79406102D01*
X78188988Y-79412862D01*
X77904883Y-79583148D01*
X77894151Y-79588885D01*
X77594702Y-79730514D01*
X77583459Y-79735170D01*
X77271588Y-79846759D01*
X77259944Y-79850292D01*
X76938630Y-79930777D01*
X76926694Y-79933151D01*
X76599037Y-79981754D01*
X76586928Y-79982947D01*
X76271989Y-79998419D01*
X76253031Y-79999351D01*
X76246949Y-79999500D01*
X41503051Y-79999500D01*
X41496968Y-79999351D01*
X41476900Y-79998365D01*
X41163071Y-79982947D01*
X41150962Y-79981754D01*
X40823305Y-79933151D01*
X40811369Y-79930777D01*
X40490055Y-79850292D01*
X40478411Y-79846759D01*
X40166540Y-79735170D01*
X40155301Y-79730515D01*
X39855844Y-79588883D01*
X39845121Y-79583150D01*
X39561011Y-79412862D01*
X39550893Y-79406102D01*
X39284829Y-79208775D01*
X39275423Y-79201055D01*
X39236475Y-79165755D01*
X39029986Y-78978604D01*
X39021395Y-78970013D01*
X38798944Y-78724576D01*
X38791224Y-78715170D01*
X38593897Y-78449106D01*
X38587137Y-78438988D01*
X38416844Y-78154871D01*
X38411120Y-78144163D01*
X38269479Y-77844688D01*
X38264829Y-77833459D01*
X38153240Y-77521588D01*
X38149707Y-77509944D01*
X38140958Y-77475015D01*
X38069219Y-77188617D01*
X38066848Y-77176694D01*
X38018245Y-76849037D01*
X38017052Y-76836927D01*
X38000649Y-76503032D01*
X38000500Y-76496948D01*
X38000500Y-71662165D01*
X55912200Y-71662165D01*
X55912200Y-71960434D01*
X55945593Y-72256801D01*
X55945595Y-72256813D01*
X56011964Y-72547597D01*
X56110472Y-72829118D01*
X56239880Y-73097836D01*
X56239882Y-73097839D01*
X56398566Y-73350383D01*
X56584527Y-73583571D01*
X56795429Y-73794473D01*
X57028617Y-73980434D01*
X57281161Y-74139118D01*
X57549883Y-74268528D01*
X57831402Y-74367035D01*
X57831404Y-74367035D01*
X57831405Y-74367036D01*
X58122186Y-74433405D01*
X58418565Y-74466799D01*
X58418566Y-74466800D01*
X58418570Y-74466800D01*
X58716834Y-74466800D01*
X58716834Y-74466799D01*
X59013214Y-74433405D01*
X59303995Y-74367036D01*
X59585517Y-74268528D01*
X59854239Y-74139118D01*
X60106783Y-73980434D01*
X60339971Y-73794473D01*
X60550873Y-73583571D01*
X60736834Y-73350383D01*
X60895518Y-73097839D01*
X61024928Y-72829117D01*
X61123436Y-72547595D01*
X61189805Y-72256814D01*
X61223200Y-71960430D01*
X61223200Y-71662170D01*
X61223199Y-71662165D01*
X67342200Y-71662165D01*
X67342200Y-71960434D01*
X67375593Y-72256801D01*
X67375595Y-72256813D01*
X67441964Y-72547597D01*
X67540472Y-72829118D01*
X67669880Y-73097836D01*
X67669882Y-73097839D01*
X67828566Y-73350383D01*
X68014527Y-73583571D01*
X68225429Y-73794473D01*
X68458617Y-73980434D01*
X68711161Y-74139118D01*
X68979883Y-74268528D01*
X69261402Y-74367035D01*
X69261404Y-74367035D01*
X69261405Y-74367036D01*
X69552186Y-74433405D01*
X69848565Y-74466799D01*
X69848566Y-74466800D01*
X69848570Y-74466800D01*
X70146834Y-74466800D01*
X70146834Y-74466799D01*
X70443214Y-74433405D01*
X70733995Y-74367036D01*
X71015517Y-74268528D01*
X71284239Y-74139118D01*
X71536783Y-73980434D01*
X71769971Y-73794473D01*
X71980873Y-73583571D01*
X72166834Y-73350383D01*
X72325518Y-73097839D01*
X72454928Y-72829117D01*
X72553436Y-72547595D01*
X72619805Y-72256814D01*
X72653200Y-71960430D01*
X72653200Y-71662170D01*
X72619805Y-71365786D01*
X72553436Y-71075005D01*
X72454928Y-70793483D01*
X72325518Y-70524761D01*
X72166834Y-70272217D01*
X71980873Y-70039029D01*
X71769971Y-69828127D01*
X71536783Y-69642166D01*
X71284239Y-69483482D01*
X71284236Y-69483480D01*
X71015518Y-69354072D01*
X70733996Y-69255564D01*
X70733998Y-69255564D01*
X70515909Y-69205787D01*
X70443214Y-69189195D01*
X70443210Y-69189194D01*
X70443201Y-69189193D01*
X70146834Y-69155800D01*
X70146830Y-69155800D01*
X69848570Y-69155800D01*
X69848566Y-69155800D01*
X69552198Y-69189193D01*
X69552186Y-69189195D01*
X69261402Y-69255564D01*
X68979881Y-69354072D01*
X68711163Y-69483480D01*
X68458618Y-69642165D01*
X68225429Y-69828126D01*
X68014526Y-70039029D01*
X67828565Y-70272218D01*
X67669880Y-70524763D01*
X67540472Y-70793481D01*
X67441964Y-71075002D01*
X67375595Y-71365786D01*
X67375593Y-71365798D01*
X67342200Y-71662165D01*
X61223199Y-71662165D01*
X61189805Y-71365786D01*
X61123436Y-71075005D01*
X61024928Y-70793483D01*
X60895518Y-70524761D01*
X60736834Y-70272217D01*
X60550873Y-70039029D01*
X60339971Y-69828127D01*
X60106783Y-69642166D01*
X59854239Y-69483482D01*
X59854236Y-69483480D01*
X59585518Y-69354072D01*
X59303996Y-69255564D01*
X59303998Y-69255564D01*
X59085909Y-69205787D01*
X59013214Y-69189195D01*
X59013210Y-69189194D01*
X59013201Y-69189193D01*
X58716834Y-69155800D01*
X58716830Y-69155800D01*
X58418570Y-69155800D01*
X58418566Y-69155800D01*
X58122198Y-69189193D01*
X58122186Y-69189195D01*
X57831402Y-69255564D01*
X57549881Y-69354072D01*
X57281163Y-69483480D01*
X57028618Y-69642165D01*
X56795429Y-69828126D01*
X56584526Y-70039029D01*
X56398565Y-70272218D01*
X56239880Y-70524763D01*
X56110472Y-70793481D01*
X56011964Y-71075002D01*
X55945595Y-71365786D01*
X55945593Y-71365798D01*
X55912200Y-71662165D01*
X38000500Y-71662165D01*
X38000500Y-57818234D01*
X38300000Y-57818234D01*
X38300000Y-58181765D01*
X38335632Y-58543556D01*
X38406550Y-58900090D01*
X38406553Y-58900101D01*
X38512086Y-59247997D01*
X38651207Y-59583864D01*
X38651209Y-59583869D01*
X38822570Y-59904462D01*
X38822581Y-59904480D01*
X39024551Y-60206750D01*
X39211678Y-60434765D01*
X39211679Y-60434766D01*
X40705747Y-58940697D01*
X40779588Y-59042330D01*
X40957670Y-59220412D01*
X41059301Y-59294251D01*
X39565232Y-60788319D01*
X39565233Y-60788320D01*
X39793249Y-60975448D01*
X40095519Y-61177418D01*
X40095537Y-61177429D01*
X40416130Y-61348790D01*
X40416135Y-61348792D01*
X40752002Y-61487913D01*
X41099898Y-61593446D01*
X41099909Y-61593449D01*
X41456443Y-61664367D01*
X41818234Y-61700000D01*
X42181766Y-61700000D01*
X42543556Y-61664367D01*
X42900090Y-61593449D01*
X42900101Y-61593446D01*
X43247997Y-61487913D01*
X43583864Y-61348792D01*
X43583869Y-61348790D01*
X43904462Y-61177429D01*
X43904480Y-61177418D01*
X44206736Y-60975457D01*
X44206750Y-60975447D01*
X44434765Y-60788320D01*
X44434766Y-60788319D01*
X42940698Y-59294251D01*
X43042330Y-59220412D01*
X43220412Y-59042330D01*
X43294251Y-58940698D01*
X44788319Y-60434766D01*
X44788320Y-60434765D01*
X44975447Y-60206750D01*
X44975457Y-60206736D01*
X45177418Y-59904480D01*
X45177429Y-59904462D01*
X45348790Y-59583869D01*
X45348792Y-59583864D01*
X45487913Y-59247997D01*
X45593446Y-58900101D01*
X45593449Y-58900090D01*
X45664367Y-58543556D01*
X45700000Y-58181765D01*
X45700000Y-57818234D01*
X45664367Y-57456443D01*
X45593449Y-57099909D01*
X45593446Y-57099898D01*
X45487913Y-56752002D01*
X45348792Y-56416135D01*
X45348790Y-56416130D01*
X45177429Y-56095537D01*
X45177418Y-56095519D01*
X44975448Y-55793249D01*
X44788320Y-55565233D01*
X44788319Y-55565232D01*
X43294251Y-57059300D01*
X43220412Y-56957670D01*
X43042330Y-56779588D01*
X42940698Y-56705748D01*
X44434766Y-55211679D01*
X44434765Y-55211678D01*
X44206750Y-55024551D01*
X43904480Y-54822581D01*
X43904462Y-54822570D01*
X43583869Y-54651209D01*
X43583864Y-54651207D01*
X43247997Y-54512086D01*
X42900101Y-54406553D01*
X42900090Y-54406550D01*
X42543556Y-54335632D01*
X42181766Y-54300000D01*
X41818234Y-54300000D01*
X41456443Y-54335632D01*
X41099909Y-54406550D01*
X41099898Y-54406553D01*
X40752002Y-54512086D01*
X40416135Y-54651207D01*
X40416130Y-54651209D01*
X40095537Y-54822570D01*
X40095519Y-54822581D01*
X39793258Y-55024545D01*
X39793254Y-55024548D01*
X39565233Y-55211679D01*
X39565233Y-55211680D01*
X41059301Y-56705748D01*
X40957670Y-56779588D01*
X40779588Y-56957670D01*
X40705748Y-57059301D01*
X39211680Y-55565233D01*
X39211679Y-55565233D01*
X39024548Y-55793254D01*
X39024545Y-55793258D01*
X38822581Y-56095519D01*
X38822570Y-56095537D01*
X38651209Y-56416130D01*
X38651207Y-56416135D01*
X38512086Y-56752002D01*
X38406553Y-57099898D01*
X38406550Y-57099909D01*
X38335632Y-57456443D01*
X38300000Y-57818234D01*
X38000500Y-57818234D01*
X38000500Y-46816966D01*
X42199500Y-46816966D01*
X42199500Y-50533028D01*
X42199501Y-50533034D01*
X42210113Y-50652415D01*
X42266089Y-50848045D01*
X42266090Y-50848048D01*
X42266091Y-50848049D01*
X42360302Y-51028407D01*
X42394977Y-51070933D01*
X42488890Y-51186109D01*
X42533635Y-51222593D01*
X42646593Y-51314698D01*
X42826951Y-51408909D01*
X43022582Y-51464886D01*
X43141963Y-51475500D01*
X45918036Y-51475499D01*
X46037418Y-51464886D01*
X46233049Y-51408909D01*
X46413407Y-51314698D01*
X46571109Y-51186109D01*
X46699698Y-51028407D01*
X46751176Y-50929856D01*
X46799660Y-50879552D01*
X46867648Y-50863444D01*
X46933551Y-50886650D01*
X46948764Y-50899589D01*
X46950092Y-50900917D01*
X46950099Y-50900923D01*
X47092483Y-51010178D01*
X47192466Y-51086897D01*
X47427502Y-51222595D01*
X47475716Y-51273160D01*
X47489500Y-51329980D01*
X47489500Y-63768635D01*
X47469815Y-63835674D01*
X47417011Y-63881429D01*
X47412953Y-63883196D01*
X47287039Y-63935351D01*
X47287027Y-63935357D01*
X47049851Y-64072292D01*
X47029083Y-64084283D01*
X47022461Y-64088106D01*
X46780099Y-64274076D01*
X46780092Y-64274082D01*
X46564082Y-64490092D01*
X46564076Y-64490099D01*
X46378104Y-64732464D01*
X46302530Y-64863359D01*
X46251963Y-64911574D01*
X46183356Y-64924796D01*
X46118491Y-64898828D01*
X46096192Y-64874730D01*
X46095640Y-64875155D01*
X45927181Y-64655617D01*
X45927174Y-64655609D01*
X45734391Y-64462826D01*
X45734382Y-64462818D01*
X45518066Y-64296831D01*
X45281937Y-64160503D01*
X45281927Y-64160499D01*
X45030029Y-64056159D01*
X44766655Y-63985588D01*
X44610000Y-63964963D01*
X44610000Y-65683519D01*
X44607936Y-65682665D01*
X44443718Y-65650000D01*
X44276282Y-65650000D01*
X44112064Y-65682665D01*
X44110000Y-65683519D01*
X44110000Y-63964963D01*
X44109999Y-63964963D01*
X43953344Y-63985588D01*
X43689970Y-64056159D01*
X43438072Y-64160499D01*
X43438062Y-64160503D01*
X43201933Y-64296831D01*
X42985617Y-64462818D01*
X42792818Y-64655617D01*
X42626831Y-64871933D01*
X42490503Y-65108062D01*
X42490499Y-65108072D01*
X42386159Y-65359970D01*
X42315588Y-65623344D01*
X42280000Y-65893669D01*
X42280000Y-66250000D01*
X43543520Y-66250000D01*
X43542665Y-66252064D01*
X43510000Y-66416282D01*
X43510000Y-66583718D01*
X43542665Y-66747936D01*
X43543520Y-66750000D01*
X42280000Y-66750000D01*
X42280000Y-67106330D01*
X42315588Y-67376655D01*
X42386159Y-67640029D01*
X42490499Y-67891927D01*
X42490503Y-67891937D01*
X42626831Y-68128066D01*
X42792818Y-68344382D01*
X42792826Y-68344391D01*
X42985609Y-68537174D01*
X42985617Y-68537181D01*
X43201933Y-68703168D01*
X43438062Y-68839496D01*
X43438072Y-68839500D01*
X43689970Y-68943840D01*
X43953344Y-69014411D01*
X44110000Y-69035034D01*
X44110000Y-67316480D01*
X44112064Y-67317335D01*
X44276282Y-67350000D01*
X44443718Y-67350000D01*
X44607936Y-67317335D01*
X44610000Y-67316480D01*
X44610000Y-69035033D01*
X44766655Y-69014411D01*
X45030029Y-68943840D01*
X45281927Y-68839500D01*
X45281937Y-68839496D01*
X45518066Y-68703168D01*
X45734382Y-68537181D01*
X45734391Y-68537174D01*
X45927174Y-68344391D01*
X45927181Y-68344382D01*
X46095640Y-68124845D01*
X46096832Y-68125760D01*
X46145613Y-68084963D01*
X46214934Y-68076230D01*
X46277973Y-68106362D01*
X46302531Y-68136640D01*
X46378103Y-68267534D01*
X46378106Y-68267539D01*
X46378108Y-68267541D01*
X46564076Y-68509900D01*
X46564082Y-68509907D01*
X46780092Y-68725917D01*
X46780098Y-68725922D01*
X47022466Y-68911897D01*
X47192506Y-69010070D01*
X47287027Y-69064642D01*
X47287032Y-69064644D01*
X47287035Y-69064646D01*
X47287039Y-69064647D01*
X47287044Y-69064650D01*
X47376555Y-69101726D01*
X47569278Y-69181555D01*
X47864367Y-69260624D01*
X48086623Y-69289885D01*
X48167235Y-69300498D01*
X48167251Y-69300500D01*
X48167258Y-69300500D01*
X48472742Y-69300500D01*
X48472749Y-69300500D01*
X48775633Y-69260624D01*
X49070722Y-69181555D01*
X49352965Y-69064646D01*
X49617534Y-68911897D01*
X49859902Y-68725922D01*
X49861228Y-68724595D01*
X49861720Y-68724326D01*
X49862946Y-68723252D01*
X49863121Y-68723452D01*
X49863123Y-68723451D01*
X49863140Y-68723473D01*
X49863186Y-68723526D01*
X49922543Y-68691106D01*
X49992236Y-68696082D01*
X50048174Y-68737947D01*
X50058821Y-68754852D01*
X50103036Y-68839496D01*
X50110302Y-68853407D01*
X50238890Y-69011109D01*
X50304544Y-69064642D01*
X50396593Y-69139698D01*
X50576951Y-69233909D01*
X50772582Y-69289886D01*
X50891963Y-69300500D01*
X53668036Y-69300499D01*
X53787418Y-69289886D01*
X53983049Y-69233909D01*
X54163407Y-69139698D01*
X54321109Y-69011109D01*
X54449698Y-68853407D01*
X54543909Y-68673049D01*
X54599886Y-68477418D01*
X54610500Y-68358037D01*
X54610499Y-65352259D01*
X58452200Y-65352259D01*
X58452200Y-65570340D01*
X58486316Y-65785739D01*
X58553708Y-65993151D01*
X58606813Y-66097374D01*
X58652714Y-66187460D01*
X58780900Y-66363893D01*
X58935107Y-66518100D01*
X59111540Y-66646286D01*
X59203345Y-66693063D01*
X59305848Y-66745291D01*
X59305850Y-66745291D01*
X59305853Y-66745293D01*
X59513261Y-66812684D01*
X59728659Y-66846800D01*
X59728660Y-66846800D01*
X59946740Y-66846800D01*
X59946741Y-66846800D01*
X60162139Y-66812684D01*
X60369547Y-66745293D01*
X60563860Y-66646286D01*
X60740293Y-66518100D01*
X60894500Y-66363893D01*
X61007382Y-66208523D01*
X61062712Y-66165858D01*
X61132325Y-66159879D01*
X61194120Y-66192485D01*
X61208017Y-66208523D01*
X61320900Y-66363893D01*
X61475107Y-66518100D01*
X61651540Y-66646286D01*
X61743345Y-66693063D01*
X61845848Y-66745291D01*
X61845850Y-66745291D01*
X61845853Y-66745293D01*
X62053261Y-66812684D01*
X62268659Y-66846800D01*
X62268660Y-66846800D01*
X62486740Y-66846800D01*
X62486741Y-66846800D01*
X62702139Y-66812684D01*
X62909547Y-66745293D01*
X63103860Y-66646286D01*
X63280293Y-66518100D01*
X63434500Y-66363893D01*
X63547382Y-66208523D01*
X63602712Y-66165858D01*
X63672325Y-66159879D01*
X63734120Y-66192485D01*
X63748017Y-66208523D01*
X63860900Y-66363893D01*
X64015107Y-66518100D01*
X64191540Y-66646286D01*
X64283345Y-66693063D01*
X64385848Y-66745291D01*
X64385850Y-66745291D01*
X64385853Y-66745293D01*
X64593261Y-66812684D01*
X64808659Y-66846800D01*
X64808660Y-66846800D01*
X65026740Y-66846800D01*
X65026741Y-66846800D01*
X65242139Y-66812684D01*
X65449547Y-66745293D01*
X65643860Y-66646286D01*
X65820293Y-66518100D01*
X65974500Y-66363893D01*
X66087382Y-66208523D01*
X66142712Y-66165858D01*
X66212325Y-66159879D01*
X66274120Y-66192485D01*
X66288017Y-66208523D01*
X66400900Y-66363893D01*
X66555107Y-66518100D01*
X66731540Y-66646286D01*
X66823345Y-66693063D01*
X66925848Y-66745291D01*
X66925850Y-66745291D01*
X66925853Y-66745293D01*
X67133261Y-66812684D01*
X67348659Y-66846800D01*
X67348660Y-66846800D01*
X67566740Y-66846800D01*
X67566741Y-66846800D01*
X67782139Y-66812684D01*
X67989547Y-66745293D01*
X68183860Y-66646286D01*
X68360293Y-66518100D01*
X68514500Y-66363893D01*
X68642686Y-66187460D01*
X68741693Y-65993147D01*
X68809084Y-65785739D01*
X68843200Y-65570341D01*
X68843200Y-65352259D01*
X68809084Y-65136861D01*
X68741693Y-64929453D01*
X68741691Y-64929450D01*
X68741691Y-64929448D01*
X68689463Y-64826945D01*
X68642686Y-64735140D01*
X68514500Y-64558707D01*
X68494519Y-64538726D01*
X68461034Y-64477403D01*
X68458200Y-64451045D01*
X68458200Y-64172949D01*
X68477885Y-64105910D01*
X68530689Y-64060155D01*
X68599847Y-64050211D01*
X68601598Y-64050476D01*
X68638369Y-64056300D01*
X68817031Y-64056300D01*
X68993480Y-64028353D01*
X69163393Y-63973144D01*
X69322567Y-63892039D01*
X69322572Y-63892037D01*
X69335494Y-63882648D01*
X68755146Y-63302300D01*
X68777860Y-63302300D01*
X68874761Y-63276336D01*
X68961640Y-63226176D01*
X69032576Y-63155240D01*
X69082736Y-63068361D01*
X69108700Y-62971460D01*
X69108700Y-62948746D01*
X69689048Y-63529094D01*
X69698437Y-63516172D01*
X69698439Y-63516167D01*
X69779544Y-63356993D01*
X69834753Y-63187080D01*
X69862700Y-63010631D01*
X69862700Y-62831968D01*
X69834753Y-62655519D01*
X69779544Y-62485606D01*
X69698438Y-62326429D01*
X69689047Y-62313505D01*
X69108700Y-62893852D01*
X69108700Y-62871140D01*
X69082736Y-62774239D01*
X69032576Y-62687360D01*
X68961640Y-62616424D01*
X68874761Y-62566264D01*
X68777860Y-62540300D01*
X68755146Y-62540300D01*
X69335494Y-61959951D01*
X69322569Y-61950560D01*
X69163393Y-61869455D01*
X68993480Y-61814246D01*
X68817031Y-61786300D01*
X68638362Y-61786300D01*
X68633165Y-61787123D01*
X68563872Y-61778161D01*
X68510425Y-61733159D01*
X68489792Y-61666405D01*
X68492162Y-61640462D01*
X68500501Y-61598541D01*
X68500501Y-61401460D01*
X68500501Y-61401457D01*
X68500500Y-61401455D01*
X68497552Y-61386635D01*
X68462052Y-61208165D01*
X68439694Y-61154190D01*
X68432226Y-61084721D01*
X68463501Y-61022242D01*
X68466547Y-61019084D01*
X68565977Y-60919655D01*
X68680941Y-60747598D01*
X68760130Y-60556420D01*
X68800500Y-60353465D01*
X68800500Y-60146535D01*
X68760130Y-59943580D01*
X68680941Y-59752402D01*
X68565977Y-59580345D01*
X68565975Y-59580342D01*
X68419657Y-59434024D01*
X68304333Y-59356968D01*
X68259527Y-59303355D01*
X68250820Y-59234031D01*
X68258660Y-59206418D01*
X68320792Y-59056420D01*
X68361162Y-58853465D01*
X68361162Y-58646535D01*
X68320792Y-58443580D01*
X68241603Y-58252402D01*
X68126639Y-58080345D01*
X68126637Y-58080342D01*
X67978644Y-57932349D01*
X67945159Y-57871026D01*
X67950143Y-57801334D01*
X67978643Y-57756988D01*
X68065977Y-57669655D01*
X68133744Y-57568234D01*
X72050000Y-57568234D01*
X72050000Y-57931765D01*
X72085632Y-58293556D01*
X72156550Y-58650090D01*
X72156553Y-58650101D01*
X72262086Y-58997997D01*
X72401207Y-59333864D01*
X72401209Y-59333869D01*
X72572570Y-59654462D01*
X72572581Y-59654480D01*
X72774551Y-59956750D01*
X72961678Y-60184765D01*
X72961679Y-60184766D01*
X74455747Y-58690697D01*
X74529588Y-58792330D01*
X74707670Y-58970412D01*
X74809301Y-59044251D01*
X73315232Y-60538319D01*
X73315233Y-60538320D01*
X73543249Y-60725448D01*
X73845519Y-60927418D01*
X73845537Y-60927429D01*
X74166130Y-61098790D01*
X74166135Y-61098792D01*
X74502002Y-61237913D01*
X74849898Y-61343446D01*
X74849909Y-61343449D01*
X75206443Y-61414367D01*
X75568234Y-61450000D01*
X75931766Y-61450000D01*
X76293556Y-61414367D01*
X76650090Y-61343449D01*
X76650101Y-61343446D01*
X76997997Y-61237913D01*
X77333864Y-61098792D01*
X77333869Y-61098790D01*
X77654462Y-60927429D01*
X77654480Y-60927418D01*
X77956736Y-60725457D01*
X77956750Y-60725447D01*
X78184765Y-60538320D01*
X78184766Y-60538319D01*
X76690698Y-59044251D01*
X76792330Y-58970412D01*
X76970412Y-58792330D01*
X77044251Y-58690698D01*
X78538319Y-60184766D01*
X78538320Y-60184765D01*
X78725447Y-59956750D01*
X78725457Y-59956736D01*
X78927418Y-59654480D01*
X78927429Y-59654462D01*
X79098790Y-59333869D01*
X79098792Y-59333864D01*
X79237913Y-58997997D01*
X79343446Y-58650101D01*
X79343449Y-58650090D01*
X79414367Y-58293556D01*
X79450000Y-57931765D01*
X79450000Y-57568234D01*
X79414367Y-57206443D01*
X79343449Y-56849909D01*
X79343446Y-56849898D01*
X79237913Y-56502002D01*
X79098792Y-56166135D01*
X79098790Y-56166130D01*
X78927429Y-55845537D01*
X78927418Y-55845519D01*
X78725448Y-55543249D01*
X78538320Y-55315233D01*
X78538319Y-55315232D01*
X77044251Y-56809300D01*
X76970412Y-56707670D01*
X76792330Y-56529588D01*
X76690698Y-56455748D01*
X78184766Y-54961679D01*
X78184765Y-54961678D01*
X77956750Y-54774551D01*
X77654480Y-54572581D01*
X77654462Y-54572570D01*
X77333869Y-54401209D01*
X77333864Y-54401207D01*
X76997997Y-54262086D01*
X76650101Y-54156553D01*
X76650090Y-54156550D01*
X76293556Y-54085632D01*
X75931766Y-54050000D01*
X75568234Y-54050000D01*
X75206443Y-54085632D01*
X74849909Y-54156550D01*
X74849898Y-54156553D01*
X74502002Y-54262086D01*
X74166135Y-54401207D01*
X74166130Y-54401209D01*
X73845537Y-54572570D01*
X73845519Y-54572581D01*
X73543258Y-54774545D01*
X73543254Y-54774548D01*
X73315233Y-54961679D01*
X73315233Y-54961680D01*
X74809301Y-56455748D01*
X74707670Y-56529588D01*
X74529588Y-56707670D01*
X74455748Y-56809301D01*
X72961680Y-55315233D01*
X72961679Y-55315233D01*
X72774548Y-55543254D01*
X72774545Y-55543258D01*
X72572581Y-55845519D01*
X72572570Y-55845537D01*
X72401209Y-56166130D01*
X72401207Y-56166135D01*
X72262086Y-56502002D01*
X72156553Y-56849898D01*
X72156550Y-56849909D01*
X72085632Y-57206443D01*
X72050000Y-57568234D01*
X68133744Y-57568234D01*
X68180941Y-57497598D01*
X68260130Y-57306420D01*
X68300500Y-57103465D01*
X68300500Y-56896535D01*
X68260130Y-56693580D01*
X68199600Y-56547450D01*
X68192132Y-56477984D01*
X68199598Y-56452554D01*
X68260130Y-56306420D01*
X68300500Y-56103465D01*
X68300500Y-55896535D01*
X68260130Y-55693580D01*
X68180941Y-55502402D01*
X68065977Y-55330345D01*
X68065975Y-55330342D01*
X68055867Y-55320234D01*
X68022382Y-55258911D01*
X68027366Y-55189219D01*
X68069238Y-55133286D01*
X68074637Y-55129465D01*
X68169655Y-55065977D01*
X68211087Y-55024545D01*
X68312820Y-54922813D01*
X68315974Y-54919658D01*
X68315975Y-54919657D01*
X68315977Y-54919655D01*
X68430941Y-54747598D01*
X68431128Y-54747146D01*
X68431399Y-54746740D01*
X68433814Y-54742223D01*
X68434258Y-54742460D01*
X68458009Y-54706910D01*
X68527139Y-54637782D01*
X68611126Y-54512086D01*
X68636631Y-54473916D01*
X68636636Y-54473906D01*
X68712049Y-54291839D01*
X68712051Y-54291835D01*
X68750500Y-54098541D01*
X68750500Y-53151459D01*
X68750500Y-53151456D01*
X68712052Y-52958170D01*
X68712051Y-52958169D01*
X68712051Y-52958165D01*
X68712049Y-52958160D01*
X68636635Y-52776092D01*
X68636628Y-52776079D01*
X68545965Y-52640393D01*
X68525087Y-52573716D01*
X68543571Y-52506335D01*
X68548736Y-52498636D01*
X68644986Y-52366160D01*
X68743993Y-52171847D01*
X68811384Y-51964439D01*
X68845500Y-51749041D01*
X68845500Y-51530959D01*
X68811384Y-51315561D01*
X68743993Y-51108153D01*
X68743991Y-51108150D01*
X68743991Y-51108148D01*
X68644985Y-50913839D01*
X68635601Y-50900923D01*
X68516800Y-50737407D01*
X68467738Y-50688345D01*
X68434253Y-50627022D01*
X68439237Y-50557330D01*
X68481109Y-50501397D01*
X68546573Y-50476980D01*
X68574810Y-50478190D01*
X68620959Y-50485500D01*
X68620961Y-50485500D01*
X68839040Y-50485500D01*
X68839041Y-50485500D01*
X69054439Y-50451384D01*
X69261847Y-50383993D01*
X69456160Y-50284986D01*
X69632593Y-50156800D01*
X69786800Y-50002593D01*
X69914986Y-49826160D01*
X70013993Y-49631847D01*
X70081384Y-49424439D01*
X70115500Y-49209041D01*
X70115500Y-48990959D01*
X70081384Y-48775561D01*
X70013993Y-48568153D01*
X70013991Y-48568150D01*
X70013991Y-48568148D01*
X69941053Y-48425000D01*
X69914986Y-48373840D01*
X69786800Y-48197407D01*
X69632593Y-48043200D01*
X69456160Y-47915014D01*
X69261851Y-47816008D01*
X69054439Y-47748616D01*
X68839041Y-47714500D01*
X68620959Y-47714500D01*
X68513260Y-47731558D01*
X68405560Y-47748616D01*
X68198148Y-47816008D01*
X68003839Y-47915014D01*
X67827404Y-48043202D01*
X67673202Y-48197404D01*
X67560318Y-48352776D01*
X67504988Y-48395441D01*
X67435375Y-48401420D01*
X67373580Y-48368814D01*
X67359682Y-48352776D01*
X67246800Y-48197407D01*
X67092593Y-48043200D01*
X66916160Y-47915014D01*
X66721851Y-47816008D01*
X66514439Y-47748616D01*
X66299041Y-47714500D01*
X66080959Y-47714500D01*
X65973260Y-47731558D01*
X65865560Y-47748616D01*
X65658148Y-47816008D01*
X65463839Y-47915014D01*
X65287404Y-48043202D01*
X65133202Y-48197404D01*
X65020318Y-48352776D01*
X64964988Y-48395441D01*
X64895375Y-48401420D01*
X64833580Y-48368814D01*
X64819682Y-48352776D01*
X64706800Y-48197407D01*
X64552593Y-48043200D01*
X64376160Y-47915014D01*
X64181851Y-47816008D01*
X63974439Y-47748616D01*
X63759041Y-47714500D01*
X63540959Y-47714500D01*
X63433260Y-47731558D01*
X63325560Y-47748616D01*
X63118148Y-47816008D01*
X62923839Y-47915014D01*
X62747404Y-48043202D01*
X62593202Y-48197404D01*
X62480318Y-48352776D01*
X62424988Y-48395441D01*
X62355375Y-48401420D01*
X62293580Y-48368814D01*
X62279682Y-48352776D01*
X62166800Y-48197407D01*
X62012593Y-48043200D01*
X61836160Y-47915014D01*
X61641851Y-47816008D01*
X61434439Y-47748616D01*
X61219041Y-47714500D01*
X61000959Y-47714500D01*
X60893260Y-47731558D01*
X60785560Y-47748616D01*
X60578148Y-47816008D01*
X60383839Y-47915014D01*
X60207404Y-48043202D01*
X60053202Y-48197404D01*
X59925014Y-48373839D01*
X59826008Y-48568148D01*
X59758616Y-48775560D01*
X59724500Y-48990959D01*
X59724500Y-49209040D01*
X59758616Y-49424439D01*
X59826008Y-49631851D01*
X59910961Y-49798579D01*
X59925014Y-49826160D01*
X60053200Y-50002593D01*
X60053202Y-50002595D01*
X60073181Y-50022574D01*
X60106666Y-50083897D01*
X60109500Y-50110255D01*
X60109500Y-50388350D01*
X60089815Y-50455389D01*
X60037011Y-50501144D01*
X59967853Y-50511088D01*
X59966105Y-50510824D01*
X59929329Y-50505000D01*
X59750669Y-50505000D01*
X59574219Y-50532946D01*
X59404306Y-50588155D01*
X59245127Y-50669262D01*
X59232205Y-50678651D01*
X59232204Y-50678651D01*
X59812553Y-51259000D01*
X59789840Y-51259000D01*
X59692939Y-51284964D01*
X59606060Y-51335124D01*
X59535124Y-51406060D01*
X59484964Y-51492939D01*
X59459000Y-51589840D01*
X59459000Y-51612553D01*
X58878651Y-51032204D01*
X58878651Y-51032205D01*
X58869262Y-51045127D01*
X58788155Y-51204306D01*
X58732946Y-51374219D01*
X58705000Y-51550668D01*
X58705000Y-51729331D01*
X58732946Y-51905780D01*
X58788155Y-52075693D01*
X58869260Y-52234869D01*
X58878651Y-52247793D01*
X58878652Y-52247794D01*
X59459000Y-51667446D01*
X59459000Y-51690160D01*
X59484964Y-51787061D01*
X59535124Y-51873940D01*
X59606060Y-51944876D01*
X59692939Y-51995036D01*
X59789840Y-52021000D01*
X59812552Y-52021000D01*
X59232205Y-52601347D01*
X59232205Y-52601348D01*
X59245129Y-52610738D01*
X59404306Y-52691844D01*
X59574219Y-52747053D01*
X59750669Y-52775000D01*
X59929331Y-52775000D01*
X59966102Y-52769176D01*
X60035395Y-52778130D01*
X60088847Y-52823127D01*
X60109487Y-52889878D01*
X60109500Y-52891649D01*
X60109500Y-58208541D01*
X60109500Y-58208543D01*
X60109499Y-58208543D01*
X60147947Y-58401829D01*
X60147950Y-58401839D01*
X60223364Y-58583907D01*
X60223371Y-58583920D01*
X60332859Y-58747780D01*
X60332860Y-58747781D01*
X60332861Y-58747782D01*
X60472218Y-58887139D01*
X60472219Y-58887139D01*
X60479286Y-58894206D01*
X60479285Y-58894206D01*
X60479288Y-58894208D01*
X62722860Y-61137781D01*
X62722861Y-61137782D01*
X62793243Y-61208164D01*
X62862219Y-61277140D01*
X62961458Y-61343449D01*
X63026086Y-61386632D01*
X63026092Y-61386634D01*
X63026093Y-61386635D01*
X63098467Y-61416613D01*
X63152871Y-61460454D01*
X63174936Y-61526748D01*
X63157657Y-61594447D01*
X63107310Y-61641659D01*
X62921539Y-61736314D01*
X62745104Y-61864502D01*
X62590902Y-62018704D01*
X62478018Y-62174076D01*
X62422688Y-62216741D01*
X62353075Y-62222720D01*
X62291280Y-62190114D01*
X62277382Y-62174076D01*
X62164500Y-62018707D01*
X62010293Y-61864500D01*
X61833860Y-61736314D01*
X61827668Y-61733159D01*
X61639551Y-61637308D01*
X61432139Y-61569916D01*
X61325696Y-61553057D01*
X61216741Y-61535800D01*
X60998659Y-61535800D01*
X60890960Y-61552858D01*
X60783260Y-61569916D01*
X60575848Y-61637308D01*
X60381539Y-61736314D01*
X60205104Y-61864502D01*
X60050902Y-62018704D01*
X59922714Y-62195139D01*
X59823708Y-62389448D01*
X59756316Y-62596860D01*
X59756316Y-62596861D01*
X59722200Y-62812259D01*
X59722200Y-63030341D01*
X59756316Y-63245739D01*
X59823708Y-63453151D01*
X59908661Y-63619879D01*
X59922714Y-63647460D01*
X60050900Y-63823893D01*
X60050902Y-63823895D01*
X60099961Y-63872954D01*
X60133446Y-63934277D01*
X60128462Y-64003969D01*
X60086590Y-64059902D01*
X60021126Y-64084319D01*
X59992883Y-64083108D01*
X59946741Y-64075800D01*
X59728659Y-64075800D01*
X59651007Y-64088099D01*
X59513260Y-64109916D01*
X59305848Y-64177308D01*
X59111539Y-64276314D01*
X58935104Y-64404502D01*
X58780902Y-64558704D01*
X58652714Y-64735139D01*
X58553708Y-64929448D01*
X58486316Y-65136860D01*
X58452200Y-65352259D01*
X54610499Y-65352259D01*
X54610499Y-64641964D01*
X54599886Y-64522582D01*
X54543909Y-64326951D01*
X54449698Y-64146593D01*
X54371109Y-64050211D01*
X54321109Y-63988890D01*
X54163409Y-63860304D01*
X54163410Y-63860304D01*
X54163407Y-63860302D01*
X53983049Y-63766091D01*
X53983048Y-63766090D01*
X53983045Y-63766089D01*
X53865829Y-63732550D01*
X53787418Y-63710114D01*
X53787415Y-63710113D01*
X53787413Y-63710113D01*
X53721102Y-63704217D01*
X53668037Y-63699500D01*
X53668032Y-63699500D01*
X50891971Y-63699500D01*
X50891965Y-63699500D01*
X50891964Y-63699501D01*
X50880316Y-63700536D01*
X50772584Y-63710113D01*
X50576954Y-63766089D01*
X50486772Y-63813196D01*
X50396593Y-63860302D01*
X50396591Y-63860303D01*
X50396590Y-63860304D01*
X50238890Y-63988890D01*
X50110302Y-64146593D01*
X50110300Y-64146595D01*
X50058824Y-64245141D01*
X50010337Y-64295448D01*
X49942350Y-64311555D01*
X49876447Y-64288348D01*
X49861235Y-64275410D01*
X49859907Y-64274082D01*
X49859900Y-64274076D01*
X49617542Y-64088109D01*
X49617538Y-64088106D01*
X49617534Y-64088103D01*
X49596225Y-64075800D01*
X49552498Y-64050553D01*
X49504283Y-63999985D01*
X49490500Y-63943167D01*
X49490500Y-51329980D01*
X49510185Y-51262941D01*
X49552497Y-51222595D01*
X49787534Y-51086897D01*
X50029902Y-50900922D01*
X50245922Y-50684902D01*
X50431897Y-50442534D01*
X50507470Y-50311636D01*
X50558033Y-50263425D01*
X50626640Y-50250201D01*
X50691505Y-50276169D01*
X50713811Y-50300266D01*
X50714360Y-50299845D01*
X50882818Y-50519382D01*
X50882826Y-50519391D01*
X51075609Y-50712174D01*
X51075617Y-50712181D01*
X51291933Y-50878168D01*
X51528062Y-51014496D01*
X51528072Y-51014500D01*
X51779970Y-51118840D01*
X52043344Y-51189411D01*
X52200000Y-51210034D01*
X52200000Y-49491480D01*
X52202064Y-49492335D01*
X52366282Y-49525000D01*
X52533718Y-49525000D01*
X52697936Y-49492335D01*
X52700000Y-49491480D01*
X52700000Y-51210033D01*
X52856655Y-51189411D01*
X53120029Y-51118840D01*
X53371927Y-51014500D01*
X53371937Y-51014496D01*
X53608066Y-50878168D01*
X53824382Y-50712181D01*
X53824391Y-50712174D01*
X54017174Y-50519391D01*
X54017181Y-50519382D01*
X54183168Y-50303066D01*
X54319496Y-50066937D01*
X54319500Y-50066927D01*
X54423840Y-49815029D01*
X54494411Y-49551655D01*
X54530000Y-49281330D01*
X54530000Y-48925000D01*
X53266480Y-48925000D01*
X53267335Y-48922936D01*
X53300000Y-48758718D01*
X53300000Y-48591282D01*
X53267335Y-48427064D01*
X53266480Y-48425000D01*
X54530000Y-48425000D01*
X54530000Y-48068669D01*
X54494411Y-47798344D01*
X54423840Y-47534970D01*
X54319500Y-47283072D01*
X54319496Y-47283062D01*
X54183168Y-47046933D01*
X54017181Y-46830617D01*
X54017174Y-46830609D01*
X53824391Y-46637826D01*
X53824382Y-46637818D01*
X53608066Y-46471831D01*
X53371937Y-46335503D01*
X53371927Y-46335499D01*
X53120029Y-46231159D01*
X52856655Y-46160588D01*
X52700000Y-46139963D01*
X52700000Y-47858519D01*
X52697936Y-47857665D01*
X52533718Y-47825000D01*
X52366282Y-47825000D01*
X52202064Y-47857665D01*
X52200000Y-47858519D01*
X52200000Y-46139963D01*
X52199999Y-46139963D01*
X52043344Y-46160588D01*
X51779970Y-46231159D01*
X51528072Y-46335499D01*
X51528062Y-46335503D01*
X51291933Y-46471831D01*
X51075617Y-46637818D01*
X50882818Y-46830617D01*
X50714360Y-47050155D01*
X50713185Y-47049253D01*
X50664292Y-47090077D01*
X50594963Y-47098753D01*
X50531950Y-47068570D01*
X50507470Y-47038363D01*
X50431897Y-46907466D01*
X50245922Y-46665098D01*
X50245917Y-46665092D01*
X50029907Y-46449082D01*
X50029900Y-46449076D01*
X49787538Y-46263106D01*
X49787537Y-46263105D01*
X49787534Y-46263103D01*
X49682050Y-46202202D01*
X49522972Y-46110357D01*
X49522955Y-46110349D01*
X49240722Y-45993445D01*
X48945630Y-45914375D01*
X48642756Y-45874500D01*
X48642749Y-45874500D01*
X48337251Y-45874500D01*
X48337243Y-45874500D01*
X48034369Y-45914375D01*
X47739277Y-45993445D01*
X47457044Y-46110349D01*
X47457027Y-46110357D01*
X47192461Y-46263106D01*
X46950099Y-46449076D01*
X46950095Y-46449079D01*
X46948754Y-46450421D01*
X46948256Y-46450692D01*
X46947045Y-46451755D01*
X46946807Y-46451483D01*
X46887427Y-46483898D01*
X46817736Y-46478906D01*
X46761807Y-46437028D01*
X46751177Y-46420145D01*
X46699698Y-46321593D01*
X46625959Y-46231159D01*
X46571109Y-46163890D01*
X46413409Y-46035304D01*
X46413410Y-46035304D01*
X46413407Y-46035302D01*
X46233049Y-45941091D01*
X46233048Y-45941090D01*
X46233045Y-45941089D01*
X46115829Y-45907550D01*
X46037418Y-45885114D01*
X46037415Y-45885113D01*
X46037413Y-45885113D01*
X45971102Y-45879217D01*
X45918037Y-45874500D01*
X45918032Y-45874500D01*
X43141971Y-45874500D01*
X43141965Y-45874500D01*
X43141964Y-45874501D01*
X43130316Y-45875536D01*
X43022584Y-45885113D01*
X42826954Y-45941089D01*
X42736772Y-45988196D01*
X42646593Y-46035302D01*
X42646591Y-46035303D01*
X42646590Y-46035304D01*
X42488890Y-46163890D01*
X42360304Y-46321590D01*
X42266089Y-46501954D01*
X42210114Y-46697583D01*
X42210113Y-46697586D01*
X42199500Y-46816966D01*
X38000500Y-46816966D01*
X38000500Y-42600865D01*
X55914500Y-42600865D01*
X55914500Y-42899134D01*
X55947893Y-43195501D01*
X55947895Y-43195513D01*
X56014264Y-43486297D01*
X56112772Y-43767818D01*
X56242180Y-44036536D01*
X56242182Y-44036539D01*
X56400866Y-44289083D01*
X56586827Y-44522271D01*
X56797729Y-44733173D01*
X57030917Y-44919134D01*
X57283461Y-45077818D01*
X57552183Y-45207228D01*
X57833702Y-45305735D01*
X57833704Y-45305735D01*
X57833705Y-45305736D01*
X58124486Y-45372105D01*
X58420865Y-45405499D01*
X58420866Y-45405500D01*
X58420870Y-45405500D01*
X58719134Y-45405500D01*
X58719134Y-45405499D01*
X59015514Y-45372105D01*
X59306295Y-45305736D01*
X59587817Y-45207228D01*
X59856539Y-45077818D01*
X60109083Y-44919134D01*
X60342271Y-44733173D01*
X60553173Y-44522271D01*
X60739134Y-44289083D01*
X60897818Y-44036539D01*
X61027228Y-43767817D01*
X61125736Y-43486295D01*
X61192105Y-43195514D01*
X61225500Y-42899130D01*
X61225500Y-42600870D01*
X61225499Y-42600865D01*
X67344500Y-42600865D01*
X67344500Y-42899134D01*
X67377893Y-43195501D01*
X67377895Y-43195513D01*
X67444264Y-43486297D01*
X67542772Y-43767818D01*
X67672180Y-44036536D01*
X67672182Y-44036539D01*
X67830866Y-44289083D01*
X68016827Y-44522271D01*
X68227729Y-44733173D01*
X68460917Y-44919134D01*
X68713461Y-45077818D01*
X68982183Y-45207228D01*
X69263702Y-45305735D01*
X69263704Y-45305735D01*
X69263705Y-45305736D01*
X69554486Y-45372105D01*
X69850865Y-45405499D01*
X69850866Y-45405500D01*
X69850870Y-45405500D01*
X70149134Y-45405500D01*
X70149134Y-45405499D01*
X70445514Y-45372105D01*
X70736295Y-45305736D01*
X71017817Y-45207228D01*
X71286539Y-45077818D01*
X71539083Y-44919134D01*
X71772271Y-44733173D01*
X71983173Y-44522271D01*
X72169134Y-44289083D01*
X72327818Y-44036539D01*
X72457228Y-43767817D01*
X72555736Y-43486295D01*
X72622105Y-43195514D01*
X72655500Y-42899130D01*
X72655500Y-42600870D01*
X72622105Y-42304486D01*
X72555736Y-42013705D01*
X72457228Y-41732183D01*
X72327818Y-41463461D01*
X72169134Y-41210917D01*
X71983173Y-40977729D01*
X71772271Y-40766827D01*
X71539083Y-40580866D01*
X71286539Y-40422182D01*
X71286536Y-40422180D01*
X71017818Y-40292772D01*
X70736296Y-40194264D01*
X70736298Y-40194264D01*
X70518209Y-40144487D01*
X70445514Y-40127895D01*
X70445510Y-40127894D01*
X70445501Y-40127893D01*
X70149134Y-40094500D01*
X70149130Y-40094500D01*
X69850870Y-40094500D01*
X69850866Y-40094500D01*
X69554498Y-40127893D01*
X69554486Y-40127895D01*
X69263702Y-40194264D01*
X68982181Y-40292772D01*
X68713463Y-40422180D01*
X68460918Y-40580865D01*
X68227729Y-40766826D01*
X68016826Y-40977729D01*
X67830865Y-41210918D01*
X67672180Y-41463463D01*
X67542772Y-41732181D01*
X67444264Y-42013702D01*
X67377895Y-42304486D01*
X67377893Y-42304498D01*
X67344500Y-42600865D01*
X61225499Y-42600865D01*
X61192105Y-42304486D01*
X61125736Y-42013705D01*
X61027228Y-41732183D01*
X60897818Y-41463461D01*
X60739134Y-41210917D01*
X60553173Y-40977729D01*
X60342271Y-40766827D01*
X60109083Y-40580866D01*
X59856539Y-40422182D01*
X59856536Y-40422180D01*
X59587818Y-40292772D01*
X59306296Y-40194264D01*
X59306298Y-40194264D01*
X59088209Y-40144487D01*
X59015514Y-40127895D01*
X59015510Y-40127894D01*
X59015501Y-40127893D01*
X58719134Y-40094500D01*
X58719130Y-40094500D01*
X58420870Y-40094500D01*
X58420866Y-40094500D01*
X58124498Y-40127893D01*
X58124486Y-40127895D01*
X57833702Y-40194264D01*
X57552181Y-40292772D01*
X57283463Y-40422180D01*
X57030918Y-40580865D01*
X56797729Y-40766826D01*
X56586826Y-40977729D01*
X56400865Y-41210918D01*
X56242180Y-41463463D01*
X56112772Y-41732181D01*
X56014264Y-42013702D01*
X55947895Y-42304486D01*
X55947893Y-42304498D01*
X55914500Y-42600865D01*
X38000500Y-42600865D01*
X38000500Y-38253051D01*
X38000649Y-38246967D01*
X38017052Y-37913072D01*
X38018245Y-37900962D01*
X38066849Y-37573296D01*
X38069218Y-37561385D01*
X38149710Y-37240043D01*
X38153240Y-37228411D01*
X38264835Y-36916525D01*
X38269476Y-36905318D01*
X38411124Y-36605828D01*
X38416840Y-36595136D01*
X38587145Y-36310998D01*
X38593888Y-36300905D01*
X38791232Y-36034818D01*
X38798935Y-36025433D01*
X39021405Y-35779975D01*
X39029975Y-35771405D01*
X39275433Y-35548935D01*
X39284818Y-35541232D01*
X39550905Y-35343888D01*
X39560998Y-35337145D01*
X39845136Y-35166840D01*
X39855828Y-35161124D01*
X40155318Y-35019476D01*
X40166525Y-35014835D01*
X40478412Y-34903239D01*
X40490043Y-34899710D01*
X40811385Y-34819218D01*
X40823296Y-34816849D01*
X41150962Y-34768244D01*
X41163068Y-34767052D01*
X41496967Y-34750648D01*
X41503051Y-34750500D01*
X41565892Y-34750500D01*
X76184108Y-34750500D01*
X76246949Y-34750500D01*
X76253032Y-34750648D01*
G37*
%TD.AperFunction*%
%TD*%
M02*
