M48
; DRILL file {KiCad 9.0.0} date 2025-04-07T00:56:56-0700
; FORMAT={-:-/ absolute / inch / decimal}
; #@! TF.CreationDate,2025-04-07T00:56:56-07:00
; #@! TF.GenerationSoftware,Kicad,Pcbnew,9.0.0
; #@! TF.FileFunction,Plated,1,2,PTH
FMAT,2
INCH
; #@! TA.AperFunction,Plated,PTH,ViaDrill
T1C0.0118
; #@! TA.AperFunction,Plated,PTH,ComponentDrill
T2C0.0300
; #@! TA.AperFunction,Plated,PTH,ComponentDrill
T3C0.0669
; #@! TA.AperFunction,Plated,PTH,ComponentDrill
T4C0.1260
; #@! TA.AperFunction,Plated,PTH,ComponentDrill
T5C0.1300
%
G90
G05
T1
X2.6476Y-2.2047
X2.6476Y-2.2441
X2.65Y-2.313
X2.6575Y-2.1358
X2.6673Y-2.372
T2
X2.3558Y-2.5772
X2.3559Y-2.0331
X2.4058Y-2.4772
X2.4059Y-1.9331
X2.4558Y-2.5772
X2.4559Y-2.0331
X2.5058Y-2.4772
X2.5059Y-1.9331
X2.5558Y-2.5772
X2.5559Y-2.0331
X2.6058Y-2.4772
X2.6059Y-1.9331
X2.6558Y-2.5772
X2.6559Y-2.0331
X2.7058Y-2.4772
X2.7059Y-1.9331
T3
X1.7465Y-2.6181
X1.7531Y-1.9163
X1.9024Y-2.6181
X1.9091Y-1.9163
X2.0583Y-2.6181
X2.065Y-1.9163
T4
X1.6535Y-2.2835
X2.9823Y-2.2736
T5
X2.3058Y-2.8272
X2.3059Y-1.6831
X2.7558Y-2.8272
X2.7559Y-1.6831
M30
