M48
; DRILL file {KiCad 8.0.5} date 2024-09-21T15:40:59-0700
; FORMAT={-:-/ absolute / inch / decimal}
; #@! TF.CreationDate,2024-09-21T15:40:59-07:00
; #@! TF.GenerationSoftware,Kicad,Pcbnew,8.0.5
; #@! TF.FileFunction,Plated,1,2,PTH
FMAT,2
INCH
; #@! TA.AperFunction,Plated,PTH,ViaDrill
T1C0.0118
; #@! TA.AperFunction,Plated,PTH,ComponentDrill
T2C0.0472
; #@! TA.AperFunction,Plated,PTH,ComponentDrill
T3C0.1063
; #@! TA.AperFunction,Plated,PTH,ComponentDrill
T4C0.1772
%
G90
G05
T1
X2.0276Y-3.0118
X2.2835Y-3.1496
X3.3465Y-2.9921
X3.6417Y-3.1496
X4.7047Y-3.0118
X5.0Y-3.1496
X6.4567Y-2.4606
X6.5354Y-1.9488
T3
X1.5945Y-1.9291
X1.5945Y-2.126
X2.0079Y-1.9291
X2.0079Y-2.126
X2.4213Y-1.9291
X2.4213Y-2.126
X2.9331Y-1.9291
X2.9331Y-2.126
X3.3465Y-1.9291
X3.3465Y-2.126
X3.7598Y-1.9291
X3.7598Y-2.126
X4.2913Y-1.9291
X4.2913Y-2.126
X4.685Y-1.9291
X4.685Y-2.126
X5.0984Y-1.9291
X5.0984Y-2.126
T4
X6.1811Y-1.8858
X6.1811Y-2.1693
X6.1811Y-2.6929
X6.1811Y-2.9764
T2
G00X2.0079Y-2.4882
M15
G01X2.0079Y-2.7087
M16
G05
G00X2.4213Y-2.4882
M15
G01X2.4213Y-2.7087
M16
G05
G00X3.3465Y-2.4882
M15
G01X3.3465Y-2.7087
M16
G05
G00X3.7598Y-2.4882
M15
G01X3.7598Y-2.7087
M16
G05
G00X4.685Y-2.4882
M15
G01X4.685Y-2.7087
M16
G05
G00X5.0984Y-2.4882
M15
G01X5.0984Y-2.7087
M16
G05
G00X5.7795Y-2.3425
M15
G01X5.5591Y-2.3425
M16
G05
G00X5.7795Y-2.7559
M15
G01X5.5591Y-2.7559
M16
G05
M30
