%TF.GenerationSoftware,KiCad,Pcbnew,9.0.0*%
%TF.CreationDate,2025-04-07T00:55:53-07:00*%
%TF.ProjectId,Motor_reroute,4d6f746f-725f-4726-9572-6f7574652e6b,rev?*%
%TF.SameCoordinates,Original*%
%TF.FileFunction,Copper,L1,Top*%
%TF.FilePolarity,Positive*%
%FSLAX46Y46*%
G04 Gerber Fmt 4.6, Leading zero omitted, Abs format (unit mm)*
G04 Created by KiCad (PCBNEW 9.0.0) date 2025-04-07 00:55:53*
%MOMM*%
%LPD*%
G01*
G04 APERTURE LIST*
G04 Aperture macros list*
%AMRoundRect*
0 Rectangle with rounded corners*
0 $1 Rounding radius*
0 $2 $3 $4 $5 $6 $7 $8 $9 X,Y pos of 4 corners*
0 Add a 4 corners polygon primitive as box body*
4,1,4,$2,$3,$4,$5,$6,$7,$8,$9,$2,$3,0*
0 Add four circle primitives for the rounded corners*
1,1,$1+$1,$2,$3*
1,1,$1+$1,$4,$5*
1,1,$1+$1,$6,$7*
1,1,$1+$1,$8,$9*
0 Add four rect primitives between the rounded corners*
20,1,$1+$1,$2,$3,$4,$5,0*
20,1,$1+$1,$4,$5,$6,$7,0*
20,1,$1+$1,$6,$7,$8,$9,0*
20,1,$1+$1,$8,$9,$2,$3,0*%
%AMFreePoly0*
4,1,80,1.253536,1.953536,1.255000,1.950000,1.255000,-1.950000,1.253536,-1.953536,1.250000,-1.955000,-1.250000,-1.955000,-1.253536,-1.953536,-1.255000,-1.950000,-1.255000,-1.265000,-1.253536,-1.261464,-1.253263,-1.261211,-1.217323,-1.230262,-1.181415,-1.197347,-1.147534,-1.164462,-1.113644,-1.129576,-1.081744,-1.094685,-1.049831,-1.057786,-1.019926,-1.020902,-0.991025,-0.983033,-0.963090,-0.944123,
-0.936176,-0.904251,-0.910234,-0.864339,-0.885327,-0.823492,-0.862416,-0.781654,-0.840483,-0.738786,-0.819524,-0.695870,-0.799592,-0.652019,-0.781646,-0.608151,-0.764700,-0.563295,-0.748748,-0.517434,-0.733786,-0.471549,-0.720837,-0.425729,-0.709863,-0.379837,-0.709862,-0.379837,-0.698894,-0.332976,-0.689921,-0.286113,-0.681948,-0.238277,-0.675965,-0.191410,-0.670983,-0.143581,-0.667995,-0.095768,
-0.665997,-0.047832,-0.665001,0.000000,-0.665997,0.047832,-0.667996,0.095792,-0.670983,0.143581,-0.675965,0.191410,-0.681948,0.238277,-0.689921,0.286113,-0.698894,0.332976,-0.709862,0.379837,-0.709863,0.379837,-0.720837,0.425729,-0.733786,0.471549,-0.748754,0.517450,-0.764700,0.563295,-0.781646,0.608151,-0.799592,0.652019,-0.819524,0.695870,-0.840493,0.738806,-0.862416,0.781654,
-0.885327,0.823492,-0.910234,0.864339,-0.936176,0.904251,-0.963090,0.944123,-0.991025,0.983033,-1.019926,1.020902,-1.049831,1.057786,-1.081744,1.094685,-1.113644,1.129576,-1.147534,1.164462,-1.181415,1.197347,-1.217323,1.230262,-1.253263,1.261211,-1.254986,1.264628,-1.255000,1.265000,-1.255000,1.950000,-1.253536,1.953536,-1.250000,1.955000,1.250000,1.955000,1.253536,1.953536,
1.253536,1.953536,$1*%
%AMFreePoly1*
4,1,80,1.253536,1.953536,1.255000,1.950000,1.255000,1.265000,1.253536,1.261464,1.253263,1.261211,1.217323,1.230262,1.181415,1.197347,1.147534,1.164462,1.113644,1.129576,1.081744,1.094685,1.049831,1.057786,1.019926,1.020902,0.991025,0.983033,0.963090,0.944123,0.936176,0.904251,0.910234,0.864339,0.885327,0.823492,0.862416,0.781654,0.840493,0.738806,0.819524,0.695870,
0.799592,0.652019,0.781646,0.608151,0.764700,0.563295,0.748754,0.517450,0.733786,0.471549,0.720837,0.425729,0.709863,0.379837,0.709862,0.379837,0.698894,0.332976,0.689921,0.286113,0.681948,0.238277,0.675965,0.191410,0.670983,0.143581,0.667996,0.095792,0.665997,0.047832,0.665001,0.000000,0.665997,-0.047832,0.667995,-0.095768,0.670983,-0.143581,0.675965,-0.191410,
0.681948,-0.238277,0.689921,-0.286113,0.698894,-0.332976,0.709862,-0.379837,0.709863,-0.379837,0.720837,-0.425729,0.733786,-0.471549,0.748748,-0.517434,0.764700,-0.563295,0.781646,-0.608151,0.799592,-0.652019,0.819524,-0.695870,0.840483,-0.738786,0.862416,-0.781654,0.885327,-0.823492,0.910234,-0.864339,0.936176,-0.904251,0.963090,-0.944123,0.991025,-0.983033,1.019926,-1.020902,
1.049831,-1.057786,1.081744,-1.094685,1.113644,-1.129576,1.147534,-1.164462,1.181415,-1.197347,1.217323,-1.230262,1.253263,-1.261211,1.254986,-1.264628,1.255000,-1.265000,1.255000,-1.950000,1.253536,-1.953536,1.250000,-1.955000,-1.250000,-1.955000,-1.253536,-1.953536,-1.255000,-1.950000,-1.255000,1.950000,-1.253536,1.953536,-1.250000,1.955000,1.250000,1.955000,1.253536,1.953536,
1.253536,1.953536,$1*%
G04 Aperture macros list end*
%TA.AperFunction,ComponentPad*%
%ADD10C,3.600000*%
%TD*%
%TA.AperFunction,ConnectorPad*%
%ADD11C,6.400000*%
%TD*%
%TA.AperFunction,SMDPad,CuDef*%
%ADD12R,0.850000X2.650000*%
%TD*%
%TA.AperFunction,SMDPad,CuDef*%
%ADD13R,0.850000X3.550000*%
%TD*%
%TA.AperFunction,SMDPad,CuDef*%
%ADD14RoundRect,0.250000X-0.475000X0.337500X-0.475000X-0.337500X0.475000X-0.337500X0.475000X0.337500X0*%
%TD*%
%TA.AperFunction,SMDPad,CuDef*%
%ADD15RoundRect,0.150000X-0.512500X-0.150000X0.512500X-0.150000X0.512500X0.150000X-0.512500X0.150000X0*%
%TD*%
%TA.AperFunction,SMDPad,CuDef*%
%ADD16R,0.610000X3.050000*%
%TD*%
%TA.AperFunction,SMDPad,CuDef*%
%ADD17FreePoly0,0.000000*%
%TD*%
%TA.AperFunction,SMDPad,CuDef*%
%ADD18FreePoly1,0.000000*%
%TD*%
%TA.AperFunction,SMDPad,CuDef*%
%ADD19FreePoly0,180.000000*%
%TD*%
%TA.AperFunction,SMDPad,CuDef*%
%ADD20FreePoly1,180.000000*%
%TD*%
%TA.AperFunction,ComponentPad*%
%ADD21RoundRect,0.250000X-1.330000X-1.800000X1.330000X-1.800000X1.330000X1.800000X-1.330000X1.800000X0*%
%TD*%
%TA.AperFunction,ComponentPad*%
%ADD22O,3.160000X4.100000*%
%TD*%
%TA.AperFunction,SMDPad,CuDef*%
%ADD23RoundRect,0.250000X-0.337500X-0.475000X0.337500X-0.475000X0.337500X0.475000X-0.337500X0.475000X0*%
%TD*%
%TA.AperFunction,ViaPad*%
%ADD24C,0.600000*%
%TD*%
%TA.AperFunction,Conductor*%
%ADD25C,0.300000*%
%TD*%
%TA.AperFunction,Conductor*%
%ADD26C,0.500000*%
%TD*%
G04 APERTURE END LIST*
D10*
%TO.P,H2,1,1*%
%TO.N,GND*%
X115000000Y-74000000D03*
D11*
X115000000Y-74000000D03*
%TD*%
D12*
%TO.P,J17,1_1,1*%
%TO.N,/Sin0*%
X54990000Y-69220000D03*
D13*
%TO.P,J17,1_2,1*%
X54990000Y-73120000D03*
D12*
%TO.P,J17,2_1,2*%
%TO.N,GND*%
X56490000Y-69220000D03*
D13*
%TO.P,J17,2_2,2*%
X56490000Y-73120000D03*
D12*
%TO.P,J17,3_1,3*%
%TO.N,/Cos0*%
X57990000Y-69220000D03*
D13*
%TO.P,J17,3_2,3*%
X57990000Y-73120000D03*
D12*
%TO.P,J17,4_1,4*%
%TO.N,+5V*%
X59490000Y-69220000D03*
D13*
%TO.P,J17,4_2,4*%
X59490000Y-73120000D03*
D12*
%TO.P,J17,5_1,5*%
%TO.N,GND*%
X60990000Y-69220000D03*
D13*
%TO.P,J17,5_2,5*%
X60990000Y-73120000D03*
D12*
%TO.P,J17,6_1,6*%
%TO.N,/MC_A0*%
X62490000Y-69220000D03*
D13*
%TO.P,J17,6_2,6*%
X62490000Y-73120000D03*
D12*
%TO.P,J17,7_1,7*%
%TO.N,/MC_B0*%
X63990000Y-69220000D03*
D13*
%TO.P,J17,7_2,7*%
X63990000Y-73120000D03*
D12*
%TO.P,J17,8_1,8*%
%TO.N,/MC_I0*%
X65490000Y-69220000D03*
D13*
%TO.P,J17,8_2,8*%
X65490000Y-73120000D03*
%TD*%
D14*
%TO.P,R1,1*%
%TO.N,/C_I0*%
X64990000Y-56082500D03*
%TO.P,R1,2*%
%TO.N,/MC_I_LP0*%
X64990000Y-58157500D03*
%TD*%
D15*
%TO.P,U1,1,NC*%
%TO.N,unconnected-(U1-NC-Pad1)*%
X64852500Y-63570000D03*
%TO.P,U1,2,A*%
%TO.N,/MC_I_LP0*%
X64852500Y-64520000D03*
%TO.P,U1,3,GND*%
%TO.N,GND*%
X64852500Y-65470000D03*
%TO.P,U1,4,Y*%
%TO.N,/MC_I0*%
X67127500Y-65470000D03*
%TO.P,U1,5,VCC*%
%TO.N,+5V*%
X67127500Y-63570000D03*
%TD*%
%TO.P,U5,1,NC*%
%TO.N,unconnected-(U5-NC-Pad1)*%
X97852500Y-63070000D03*
%TO.P,U5,2,A*%
%TO.N,/MC_B_LP1*%
X97852500Y-64020000D03*
%TO.P,U5,3,GND*%
%TO.N,GND*%
X97852500Y-64970000D03*
%TO.P,U5,4,Y*%
%TO.N,/MC_B1*%
X100127500Y-64970000D03*
%TO.P,U5,5,VCC*%
%TO.N,+5V*%
X100127500Y-63070000D03*
%TD*%
D14*
%TO.P,R4,1*%
%TO.N,/C_A1*%
X93490000Y-55982500D03*
%TO.P,R4,2*%
%TO.N,/MC_A_LP1*%
X93490000Y-58057500D03*
%TD*%
%TO.P,R5,1*%
%TO.N,/C_B1*%
X97990000Y-55982500D03*
%TO.P,R5,2*%
%TO.N,/MC_B_LP1*%
X97990000Y-58057500D03*
%TD*%
D16*
%TO.P,J15,1,1*%
%TO.N,/SEA_B1*%
X83160000Y-63270000D03*
%TO.P,J15,2,2*%
%TO.N,/SEA_A1*%
X82140000Y-63270000D03*
%TO.P,J15,3,3*%
%TO.N,/SEA_I1*%
X81120000Y-63270000D03*
%TO.P,J15,4,4*%
%TO.N,+5V*%
X80100000Y-63270000D03*
%TO.P,J15,5,5*%
%TO.N,/SEA_I0*%
X79080000Y-63270000D03*
%TO.P,J15,6,6*%
%TO.N,/SEA_B0*%
X78060000Y-63270000D03*
%TO.P,J15,7,7*%
%TO.N,/SEA_A0*%
X77040000Y-63270000D03*
%TO.P,J15,8,8*%
%TO.N,GND*%
X76020000Y-63270000D03*
D17*
%TO.P,J15,SH1,SHIELD*%
X88250000Y-73250000D03*
D18*
%TO.P,J15,SH2,SHIELD__1*%
X70930000Y-73250000D03*
%TD*%
D15*
%TO.P,U2,1,NC*%
%TO.N,unconnected-(U2-NC-Pad1)*%
X60352500Y-63570000D03*
%TO.P,U2,2,A*%
%TO.N,/MC_B_LP0*%
X60352500Y-64520000D03*
%TO.P,U2,3,GND*%
%TO.N,GND*%
X60352500Y-65470000D03*
%TO.P,U2,4,Y*%
%TO.N,/MC_B0*%
X62627500Y-65470000D03*
%TO.P,U2,5,VCC*%
%TO.N,+5V*%
X62627500Y-63570000D03*
%TD*%
D16*
%TO.P,J2,1,1*%
%TO.N,+5V*%
X61960000Y-50500000D03*
%TO.P,J2,2,2*%
%TO.N,/C_A0*%
X62980000Y-50500000D03*
%TO.P,J2,3,3*%
%TO.N,/C_B0*%
X64000000Y-50500000D03*
%TO.P,J2,4,4*%
%TO.N,/C_I0*%
X65020000Y-50500000D03*
%TO.P,J2,5,5*%
%TO.N,/SEA_I0*%
X66040000Y-50500000D03*
%TO.P,J2,6,6*%
%TO.N,/SEA_A0*%
X67060000Y-50500000D03*
%TO.P,J2,7,7*%
%TO.N,/SEA_B0*%
X68080000Y-50500000D03*
%TO.P,J2,8,8*%
%TO.N,GND*%
X69100000Y-50500000D03*
D19*
%TO.P,J2,SH1,SHIELD*%
X56870000Y-40520000D03*
D20*
%TO.P,J2,SH2,SHIELD__1*%
X74190000Y-40520000D03*
%TD*%
D21*
%TO.P,J3,1,Pin_1*%
%TO.N,/Sin0*%
X44530000Y-48675000D03*
D22*
%TO.P,J3,2,Pin_2*%
%TO.N,/Cos0*%
X48490000Y-48675000D03*
%TO.P,J3,3,Pin_3*%
%TO.N,GND*%
X52450000Y-48675000D03*
%TD*%
D12*
%TO.P,J18,1_1,1*%
%TO.N,/Sin1*%
X92490000Y-69020000D03*
D13*
%TO.P,J18,1_2,1*%
X92490000Y-72920000D03*
D12*
%TO.P,J18,2_1,2*%
%TO.N,GND*%
X93990000Y-69020000D03*
D13*
%TO.P,J18,2_2,2*%
X93990000Y-72920000D03*
D12*
%TO.P,J18,3_1,3*%
%TO.N,/Cos1*%
X95490000Y-69020000D03*
D13*
%TO.P,J18,3_2,3*%
X95490000Y-72920000D03*
D12*
%TO.P,J18,4_1,4*%
%TO.N,+5V*%
X96990000Y-69020000D03*
D13*
%TO.P,J18,4_2,4*%
X96990000Y-72920000D03*
D12*
%TO.P,J18,5_1,5*%
%TO.N,GND*%
X98490000Y-69020000D03*
D13*
%TO.P,J18,5_2,5*%
X98490000Y-72920000D03*
D12*
%TO.P,J18,6_1,6*%
%TO.N,/MC_A1*%
X99990000Y-69020000D03*
D13*
%TO.P,J18,6_2,6*%
X99990000Y-72920000D03*
D12*
%TO.P,J18,7_1,7*%
%TO.N,/MC_B1*%
X101490000Y-69020000D03*
D13*
%TO.P,J18,7_2,7*%
X101490000Y-72920000D03*
D12*
%TO.P,J18,8_1,8*%
%TO.N,/MC_I1*%
X102990000Y-69020000D03*
D13*
%TO.P,J18,8_2,8*%
X102990000Y-72920000D03*
%TD*%
D23*
%TO.P,C4,1*%
%TO.N,/MC_A_LP1*%
X93490000Y-60020000D03*
%TO.P,C4,2*%
%TO.N,GND*%
X95565000Y-60020000D03*
%TD*%
D14*
%TO.P,R3,1*%
%TO.N,/C_A0*%
X55990000Y-55982500D03*
%TO.P,R3,2*%
%TO.N,/MC_A_LP0*%
X55990000Y-58057500D03*
%TD*%
D10*
%TO.P,H1,1,1*%
%TO.N,GND*%
X115000000Y-39000000D03*
D11*
X115000000Y-39000000D03*
%TD*%
D23*
%TO.P,C6,1*%
%TO.N,/MC_I_LP1*%
X102452500Y-60020000D03*
%TO.P,C6,2*%
%TO.N,GND*%
X104527500Y-60020000D03*
%TD*%
D16*
%TO.P,J14,1,1*%
%TO.N,+5V*%
X96920000Y-50500000D03*
%TO.P,J14,2,2*%
%TO.N,/C_A1*%
X97940000Y-50500000D03*
%TO.P,J14,3,3*%
%TO.N,/C_B1*%
X98960000Y-50500000D03*
%TO.P,J14,4,4*%
%TO.N,/C_I1*%
X99980000Y-50500000D03*
%TO.P,J14,5,5*%
%TO.N,/SEA_I1*%
X101000000Y-50500000D03*
%TO.P,J14,6,6*%
%TO.N,/SEA_A1*%
X102020000Y-50500000D03*
%TO.P,J14,7,7*%
%TO.N,/SEA_B1*%
X103040000Y-50500000D03*
%TO.P,J14,8,8*%
%TO.N,GND*%
X104060000Y-50500000D03*
D19*
%TO.P,J14,SH1,SHIELD*%
X91830000Y-40520000D03*
D20*
%TO.P,J14,SH2,SHIELD__1*%
X109150000Y-40520000D03*
%TD*%
D23*
%TO.P,C3,1*%
%TO.N,/MC_A_LP0*%
X55952500Y-60020000D03*
%TO.P,C3,2*%
%TO.N,GND*%
X58027500Y-60020000D03*
%TD*%
D14*
%TO.P,R2,1*%
%TO.N,/C_B0*%
X60490000Y-55982500D03*
%TO.P,R2,2*%
%TO.N,/MC_B_LP0*%
X60490000Y-58057500D03*
%TD*%
D23*
%TO.P,C2,1*%
%TO.N,/MC_B_LP0*%
X60452500Y-60020000D03*
%TO.P,C2,2*%
%TO.N,GND*%
X62527500Y-60020000D03*
%TD*%
%TO.P,C5,1*%
%TO.N,/MC_B_LP1*%
X97952500Y-60020000D03*
%TO.P,C5,2*%
%TO.N,GND*%
X100027500Y-60020000D03*
%TD*%
D10*
%TO.P,H3,1,1*%
%TO.N,GND*%
X37000000Y-74000000D03*
D11*
X37000000Y-74000000D03*
%TD*%
D21*
%TO.P,J11,1,Pin_1*%
%TO.N,/Sin1*%
X79530000Y-48675000D03*
D22*
%TO.P,J11,2,Pin_2*%
%TO.N,/Cos1*%
X83490000Y-48675000D03*
%TO.P,J11,3,Pin_3*%
%TO.N,GND*%
X87450000Y-48675000D03*
%TD*%
D15*
%TO.P,U6,1,NC*%
%TO.N,unconnected-(U6-NC-Pad1)*%
X93352500Y-63070000D03*
%TO.P,U6,2,A*%
%TO.N,/MC_A_LP1*%
X93352500Y-64020000D03*
%TO.P,U6,3,GND*%
%TO.N,GND*%
X93352500Y-64970000D03*
%TO.P,U6,4,Y*%
%TO.N,/MC_A1*%
X95627500Y-64970000D03*
%TO.P,U6,5,VCC*%
%TO.N,+5V*%
X95627500Y-63070000D03*
%TD*%
%TO.P,U3,1,NC*%
%TO.N,unconnected-(U3-NC-Pad1)*%
X55852500Y-63570000D03*
%TO.P,U3,2,A*%
%TO.N,/MC_A_LP0*%
X55852500Y-64520000D03*
%TO.P,U3,3,GND*%
%TO.N,GND*%
X55852500Y-65470000D03*
%TO.P,U3,4,Y*%
%TO.N,/MC_A0*%
X58127500Y-65470000D03*
%TO.P,U3,5,VCC*%
%TO.N,+5V*%
X58127500Y-63570000D03*
%TD*%
D23*
%TO.P,C1,1*%
%TO.N,/MC_I_LP0*%
X64952500Y-60120000D03*
%TO.P,C1,2*%
%TO.N,GND*%
X67027500Y-60120000D03*
%TD*%
D14*
%TO.P,R6,1*%
%TO.N,/C_I1*%
X102490000Y-55982500D03*
%TO.P,R6,2*%
%TO.N,/MC_I_LP1*%
X102490000Y-58057500D03*
%TD*%
D15*
%TO.P,U4,1,NC*%
%TO.N,unconnected-(U4-NC-Pad1)*%
X102352500Y-63070000D03*
%TO.P,U4,2,A*%
%TO.N,/MC_I_LP1*%
X102352500Y-64020000D03*
%TO.P,U4,3,GND*%
%TO.N,GND*%
X102352500Y-64970000D03*
%TO.P,U4,4,Y*%
%TO.N,/MC_I1*%
X104627500Y-64970000D03*
%TO.P,U4,5,VCC*%
%TO.N,+5V*%
X104627500Y-63070000D03*
%TD*%
D10*
%TO.P,H4,1,1*%
%TO.N,GND*%
X37000000Y-39000000D03*
D11*
X37000000Y-39000000D03*
%TD*%
D24*
%TO.N,GND*%
X100000000Y-40000000D03*
X65000000Y-45000000D03*
X40000000Y-70000000D03*
X35000000Y-45000000D03*
X40000000Y-55000000D03*
X110000000Y-75000000D03*
X35000000Y-50000000D03*
X45000000Y-70000000D03*
X105000000Y-75000000D03*
X95000000Y-45000000D03*
X115000000Y-55000000D03*
X45000000Y-75000000D03*
X91500000Y-64000000D03*
X56500000Y-76000000D03*
X94000000Y-75500000D03*
X90000000Y-75000000D03*
X70000000Y-45000000D03*
X100000000Y-55000000D03*
X45000000Y-45000000D03*
X100000000Y-64000000D03*
X62500000Y-64500000D03*
X110000000Y-45000000D03*
X85000000Y-70000000D03*
X100000000Y-45000000D03*
X40000000Y-45000000D03*
X94000000Y-66500000D03*
X90000000Y-45000000D03*
X56500000Y-67000000D03*
X75000000Y-50000000D03*
X40000000Y-65000000D03*
X48000000Y-61500000D03*
X115000000Y-45000000D03*
X70000000Y-70000000D03*
X61000000Y-76000000D03*
X115000000Y-65000000D03*
X90000000Y-70000000D03*
X85000000Y-45000000D03*
X45000000Y-40000000D03*
X65000000Y-40000000D03*
X95500000Y-54500000D03*
X58000000Y-58000000D03*
X62500000Y-58000000D03*
X50000000Y-45000000D03*
X50000000Y-40000000D03*
X35000000Y-55000000D03*
X110000000Y-50000000D03*
X40000000Y-60000000D03*
X115000000Y-50000000D03*
X115000000Y-60000000D03*
X50000000Y-70000000D03*
X62500000Y-56000000D03*
X105000000Y-45000000D03*
X50000000Y-75000000D03*
X60000000Y-45000000D03*
X52500000Y-65500000D03*
X75000000Y-45000000D03*
X35000000Y-60000000D03*
X98500000Y-75500000D03*
X80000000Y-40000000D03*
X110000000Y-70000000D03*
X85000000Y-40000000D03*
X54000000Y-61500000D03*
X35000000Y-65000000D03*
X58000000Y-56000000D03*
X61000000Y-67500000D03*
X80000000Y-45000000D03*
X98500000Y-67000000D03*
X40000000Y-50000000D03*
X110000000Y-65000000D03*
X45000000Y-65000000D03*
%TO.N,+5V*%
X62627500Y-62627500D03*
X91000000Y-58500000D03*
X67000000Y-62500000D03*
X96000000Y-62000000D03*
X62000000Y-47500000D03*
X105000000Y-62000000D03*
X100500000Y-62000000D03*
X58000000Y-62500000D03*
X80100000Y-66000000D03*
%TO.N,/C_A0*%
X56000000Y-52500000D03*
%TO.N,/C_B0*%
X63500000Y-53000000D03*
%TO.N,/C_I0*%
X65000000Y-52500000D03*
%TO.N,/C_A1*%
X93500000Y-52500000D03*
%TO.N,/C_B1*%
X99500000Y-53500000D03*
%TO.N,/C_I1*%
X101000000Y-54000000D03*
%TO.N,/Cos0*%
X58000000Y-76000000D03*
X57990000Y-67010000D03*
%TO.N,/Sin0*%
X55000000Y-76000000D03*
X53000000Y-69000000D03*
%TO.N,/SEA_A0*%
X77000000Y-58500000D03*
X77000000Y-60250000D03*
%TO.N,/SEA_B0*%
X78000000Y-60750000D03*
X78000000Y-57750000D03*
%TO.N,/SEA_I1*%
X88500000Y-57000000D03*
X105750000Y-55250000D03*
%TO.N,/SEA_A1*%
X108000000Y-56500000D03*
X90000000Y-57500000D03*
%TO.N,/SEA_B1*%
X92000000Y-59500000D03*
X110000000Y-58500000D03*
%TO.N,/Sin1*%
X92500000Y-67000000D03*
X92490000Y-75490000D03*
%TO.N,/Cos1*%
X95500000Y-67000000D03*
X95500000Y-75500000D03*
%TD*%
D25*
%TO.N,/MC_I_LP0*%
X65514999Y-64520000D02*
X64852500Y-64520000D01*
X64990000Y-60082500D02*
X64952500Y-60120000D01*
X65866000Y-64168999D02*
X65514999Y-64520000D01*
X65866000Y-61033500D02*
X65866000Y-64168999D01*
X64952500Y-60120000D02*
X65866000Y-61033500D01*
X64990000Y-58157500D02*
X64990000Y-60082500D01*
D26*
%TO.N,GND*%
X98500000Y-67000000D02*
X98500000Y-69010000D01*
D25*
X54000000Y-64279999D02*
X54000000Y-61500000D01*
X102352500Y-64970000D02*
X101502678Y-64970000D01*
X62500000Y-64500000D02*
X63457322Y-64500000D01*
D26*
X60990000Y-69220000D02*
X60990000Y-67510000D01*
D25*
X92500000Y-65000000D02*
X93322500Y-65000000D01*
X60352500Y-65470000D02*
X61030000Y-65470000D01*
X62000000Y-64500000D02*
X62500000Y-64500000D01*
D26*
X98500000Y-69010000D02*
X98490000Y-69020000D01*
X56500000Y-67000000D02*
X56500000Y-69210000D01*
X98500000Y-72930000D02*
X98490000Y-72920000D01*
D25*
X91500000Y-64000000D02*
X92500000Y-65000000D01*
X100532678Y-64000000D02*
X100000000Y-64000000D01*
X100000000Y-64000000D02*
X99500000Y-64000000D01*
X99500000Y-64000000D02*
X98530000Y-64970000D01*
D26*
X98500000Y-75500000D02*
X98500000Y-72930000D01*
D25*
X61030000Y-65470000D02*
X62000000Y-64500000D01*
X93352500Y-64970000D02*
X94000000Y-65617500D01*
X93322500Y-65000000D02*
X93352500Y-64970000D01*
X94000000Y-65617500D02*
X94000000Y-66500000D01*
X98530000Y-64970000D02*
X97852500Y-64970000D01*
D26*
X60990000Y-75990000D02*
X61000000Y-76000000D01*
D25*
X55190001Y-65470000D02*
X54000000Y-64279999D01*
X64427322Y-65470000D02*
X64852500Y-65470000D01*
D26*
X56500000Y-69210000D02*
X56490000Y-69220000D01*
X60990000Y-67510000D02*
X61000000Y-67500000D01*
X56490000Y-75990000D02*
X56500000Y-76000000D01*
D25*
X55852500Y-65470000D02*
X55190001Y-65470000D01*
D26*
X60990000Y-73120000D02*
X60990000Y-75990000D01*
D25*
X63457322Y-64500000D02*
X64427322Y-65470000D01*
D26*
X56490000Y-73120000D02*
X56490000Y-75990000D01*
D25*
X101502678Y-64970000D02*
X100532678Y-64000000D01*
%TO.N,/MC_B_LP0*%
X60490000Y-59982500D02*
X60452500Y-60020000D01*
X60490000Y-58057500D02*
X60490000Y-59982500D01*
X60452500Y-60020000D02*
X61366000Y-60933500D01*
X61366000Y-60933500D02*
X61366000Y-64168999D01*
X61014999Y-64520000D02*
X60352500Y-64520000D01*
X61366000Y-64168999D02*
X61014999Y-64520000D01*
%TO.N,/MC_A_LP0*%
X56866000Y-60933500D02*
X56866000Y-64168999D01*
X55952500Y-60020000D02*
X56866000Y-60933500D01*
X56514999Y-64520000D02*
X55852500Y-64520000D01*
X55990000Y-59982500D02*
X55952500Y-60020000D01*
X55990000Y-58057500D02*
X55990000Y-59982500D01*
X56866000Y-64168999D02*
X56514999Y-64520000D01*
%TO.N,/MC_A_LP1*%
X93490000Y-58057500D02*
X93490000Y-60020000D01*
X93777678Y-64020000D02*
X94366000Y-63431678D01*
X93352500Y-64020000D02*
X93777678Y-64020000D01*
X94366000Y-63431678D02*
X94366000Y-60896000D01*
X94366000Y-60896000D02*
X93490000Y-60020000D01*
%TO.N,/MC_B_LP1*%
X97990000Y-58057500D02*
X97990000Y-59982500D01*
X98866000Y-60933500D02*
X98866000Y-63668999D01*
X97990000Y-59982500D02*
X97952500Y-60020000D01*
X98514999Y-64020000D02*
X97852500Y-64020000D01*
X98866000Y-63668999D02*
X98514999Y-64020000D01*
X97952500Y-60020000D02*
X98866000Y-60933500D01*
%TO.N,/MC_I_LP1*%
X102452500Y-60020000D02*
X103366000Y-60933500D01*
X103366000Y-63668999D02*
X103014999Y-64020000D01*
X102490000Y-59982500D02*
X102452500Y-60020000D01*
X103366000Y-60933500D02*
X103366000Y-63668999D01*
X103014999Y-64020000D02*
X102352500Y-64020000D01*
X102490000Y-58057500D02*
X102490000Y-59982500D01*
%TO.N,+5V*%
X105000000Y-62697500D02*
X105000000Y-62000000D01*
D26*
X96990000Y-74510000D02*
X97000000Y-74520000D01*
D25*
X96000000Y-62697500D02*
X96000000Y-62000000D01*
X104627500Y-63070000D02*
X105000000Y-62697500D01*
D26*
X106500000Y-63750000D02*
X105820000Y-63070000D01*
D25*
X60066000Y-69796000D02*
X60066000Y-72544000D01*
D26*
X80000000Y-75500000D02*
X80490000Y-75990000D01*
D25*
X96990000Y-69020000D02*
X97566000Y-69596000D01*
D26*
X82500000Y-78000000D02*
X80490000Y-75990000D01*
X91000000Y-58500000D02*
X91000000Y-53500000D01*
D25*
X95627500Y-63070000D02*
X96000000Y-62697500D01*
D26*
X61960000Y-50500000D02*
X61960000Y-47540000D01*
D25*
X100127500Y-63070000D02*
X100500000Y-62697500D01*
D26*
X77500000Y-75500000D02*
X80000000Y-75500000D01*
D25*
X67127500Y-63570000D02*
X67127500Y-62627500D01*
D26*
X80100000Y-66000000D02*
X80100000Y-63270000D01*
X97000000Y-77000000D02*
X96000000Y-78000000D01*
D25*
X67127500Y-62627500D02*
X67000000Y-62500000D01*
D26*
X96000000Y-78000000D02*
X104250000Y-78000000D01*
D25*
X100500000Y-62697500D02*
X100500000Y-62000000D01*
X60066000Y-72544000D02*
X59490000Y-73120000D01*
D26*
X97000000Y-74520000D02*
X97000000Y-77000000D01*
X91000000Y-53500000D02*
X94000000Y-50500000D01*
D25*
X97566000Y-72344000D02*
X96990000Y-72920000D01*
D26*
X80100000Y-66000000D02*
X80100000Y-75600000D01*
X105820000Y-63070000D02*
X104627500Y-63070000D01*
D25*
X62627500Y-63570000D02*
X62627500Y-62627500D01*
D26*
X104250000Y-78000000D02*
X106500000Y-75750000D01*
X75500000Y-77500000D02*
X77500000Y-75500000D01*
X96000000Y-78000000D02*
X82500000Y-78000000D01*
X61960000Y-47540000D02*
X62000000Y-47500000D01*
D25*
X59490000Y-69220000D02*
X60066000Y-69796000D01*
D26*
X94000000Y-50500000D02*
X96920000Y-50500000D01*
X60500000Y-77500000D02*
X75500000Y-77500000D01*
X80100000Y-75600000D02*
X80490000Y-75990000D01*
X59490000Y-73120000D02*
X59490000Y-76490000D01*
X59490000Y-76490000D02*
X60500000Y-77500000D01*
D25*
X97566000Y-69596000D02*
X97566000Y-72344000D01*
X58127500Y-63570000D02*
X58127500Y-62627500D01*
D26*
X96990000Y-72920000D02*
X96990000Y-74510000D01*
D25*
X58127500Y-62627500D02*
X58000000Y-62500000D01*
D26*
X106500000Y-75750000D02*
X106500000Y-63750000D01*
D25*
%TO.N,/C_A0*%
X56000000Y-52500000D02*
X55990000Y-52510000D01*
X62980000Y-52325000D02*
X62305000Y-53000000D01*
X62980000Y-50500000D02*
X62980000Y-52325000D01*
X56500000Y-53000000D02*
X56000000Y-52500000D01*
X55990000Y-52510000D02*
X55990000Y-55982500D01*
X62305000Y-53000000D02*
X61500000Y-53000000D01*
X61500000Y-53000000D02*
X56500000Y-53000000D01*
%TO.N,/C_B0*%
X64000000Y-52500000D02*
X63500000Y-53000000D01*
X60490000Y-55010000D02*
X60490000Y-55982500D01*
X64000000Y-50500000D02*
X64000000Y-52500000D01*
X62000000Y-54500000D02*
X61000000Y-54500000D01*
X63500000Y-53000000D02*
X62000000Y-54500000D01*
X61000000Y-54500000D02*
X60490000Y-55010000D01*
%TO.N,/C_I0*%
X65020000Y-50500000D02*
X65020000Y-52480000D01*
X65020000Y-52480000D02*
X65000000Y-52500000D01*
X64990000Y-52510000D02*
X64990000Y-56082500D01*
X65000000Y-52500000D02*
X64990000Y-52510000D01*
%TO.N,/C_A1*%
X97265000Y-53000000D02*
X96500000Y-53000000D01*
X97940000Y-52325000D02*
X97265000Y-53000000D01*
X93500000Y-52500000D02*
X93500000Y-53000000D01*
X93490000Y-53010000D02*
X93490000Y-55982500D01*
X97940000Y-50500000D02*
X97940000Y-52325000D01*
X96500000Y-53000000D02*
X94000000Y-53000000D01*
X93500000Y-53000000D02*
X93490000Y-53010000D01*
X94000000Y-53000000D02*
X93500000Y-52500000D01*
%TO.N,/C_B1*%
X98960000Y-50500000D02*
X98960000Y-52960000D01*
X98960000Y-52960000D02*
X99500000Y-53500000D01*
X97990000Y-55010000D02*
X97990000Y-55982500D01*
X99500000Y-53500000D02*
X97990000Y-55010000D01*
%TO.N,/C_I1*%
X99980000Y-52480000D02*
X99980000Y-50500000D01*
X101000000Y-54000000D02*
X100500000Y-53500000D01*
X102490000Y-55490000D02*
X102490000Y-55982500D01*
X100500000Y-53000000D02*
X99980000Y-52480000D01*
X100500000Y-53500000D02*
X100500000Y-53000000D01*
X101000000Y-54000000D02*
X102490000Y-55490000D01*
%TO.N,/Cos0*%
X57990000Y-75990000D02*
X58000000Y-76000000D01*
D26*
X57990000Y-69220000D02*
X57990000Y-67010000D01*
D25*
X57990000Y-73120000D02*
X57990000Y-75990000D01*
D26*
%TO.N,/Sin0*%
X54990000Y-69220000D02*
X53220000Y-69220000D01*
X53220000Y-69220000D02*
X53000000Y-69000000D01*
D25*
X54990000Y-73120000D02*
X54990000Y-75990000D01*
X55000000Y-76000000D02*
X54990000Y-75990000D01*
%TO.N,/SEA_A0*%
X75500000Y-57000000D02*
X77000000Y-58500000D01*
X77000000Y-61250000D02*
X77040000Y-61290000D01*
X77040000Y-61290000D02*
X77040000Y-63270000D01*
X67060000Y-52325000D02*
X71735000Y-57000000D01*
X77000000Y-60250000D02*
X77000000Y-61250000D01*
X75250000Y-57000000D02*
X75500000Y-57000000D01*
X67060000Y-50500000D02*
X67060000Y-52325000D01*
X71735000Y-57000000D02*
X75250000Y-57000000D01*
%TO.N,/SEA_B0*%
X78000000Y-63210000D02*
X78060000Y-63270000D01*
X68080000Y-52580000D02*
X72000000Y-56500000D01*
X68080000Y-50500000D02*
X68080000Y-52580000D01*
X76750000Y-56500000D02*
X78000000Y-57750000D01*
X72000000Y-56500000D02*
X76750000Y-56500000D01*
X78000000Y-60750000D02*
X78000000Y-63210000D01*
%TO.N,/SEA_I0*%
X79080000Y-60580000D02*
X79080000Y-63270000D01*
X73250000Y-59250000D02*
X77750000Y-59250000D01*
X66040000Y-52040000D02*
X73250000Y-59250000D01*
X77750000Y-59250000D02*
X79080000Y-60580000D01*
X66040000Y-50500000D02*
X66040000Y-52040000D01*
%TO.N,/SEA_I1*%
X102675000Y-54000000D02*
X101000000Y-52325000D01*
X101000000Y-52325000D02*
X101000000Y-50500000D01*
X88500000Y-57000000D02*
X83500000Y-57000000D01*
X81120000Y-59380000D02*
X81120000Y-63270000D01*
X104500000Y-54000000D02*
X102675000Y-54000000D01*
X105750000Y-55250000D02*
X104500000Y-54000000D01*
X83500000Y-57000000D02*
X81120000Y-59380000D01*
%TO.N,/SEA_A1*%
X102020000Y-52325000D02*
X102020000Y-50500000D01*
X89000000Y-58500000D02*
X84000000Y-58500000D01*
X105500000Y-53500000D02*
X103195000Y-53500000D01*
X84000000Y-58500000D02*
X82140000Y-60360000D01*
X108000000Y-56000000D02*
X105500000Y-53500000D01*
X90000000Y-57500000D02*
X89000000Y-58500000D01*
X103195000Y-53500000D02*
X102020000Y-52325000D01*
X108000000Y-56500000D02*
X108000000Y-56000000D01*
X82140000Y-60360000D02*
X82140000Y-63270000D01*
%TO.N,/SEA_B1*%
X84250000Y-59500000D02*
X83160000Y-60590000D01*
X103040000Y-52325000D02*
X103715000Y-53000000D01*
X110151000Y-58349000D02*
X110000000Y-58500000D01*
X103715000Y-53000000D02*
X107629175Y-53000000D01*
X110151000Y-55521825D02*
X110151000Y-58349000D01*
X83160000Y-60590000D02*
X83160000Y-63270000D01*
X107629175Y-53000000D02*
X110151000Y-55521825D01*
X103040000Y-50500000D02*
X103040000Y-52325000D01*
X92000000Y-59500000D02*
X84250000Y-59500000D01*
D26*
%TO.N,/Sin1*%
X92490000Y-67010000D02*
X92500000Y-67000000D01*
X92490000Y-69020000D02*
X92490000Y-67010000D01*
D25*
X92490000Y-72920000D02*
X92490000Y-75490000D01*
D26*
%TO.N,/Cos1*%
X95490000Y-69020000D02*
X95490000Y-67010000D01*
X95490000Y-67010000D02*
X95500000Y-67000000D01*
D25*
X95490000Y-75490000D02*
X95500000Y-75500000D01*
X95490000Y-72920000D02*
X95490000Y-75490000D01*
%TO.N,/MC_I0*%
X66066000Y-69796000D02*
X66066000Y-72544000D01*
X65490000Y-69220000D02*
X66066000Y-69796000D01*
X66066000Y-72544000D02*
X65490000Y-73120000D01*
X67127500Y-65470000D02*
X65490000Y-67107500D01*
X65490000Y-67107500D02*
X65490000Y-69220000D01*
%TO.N,/MC_B0*%
X62627500Y-66127500D02*
X63990000Y-67490000D01*
X62627500Y-65470000D02*
X62627500Y-66127500D01*
X64566000Y-69796000D02*
X64566000Y-72544000D01*
X63990000Y-69220000D02*
X64566000Y-69796000D01*
X64566000Y-72544000D02*
X63990000Y-73120000D01*
X63990000Y-67490000D02*
X63990000Y-69220000D01*
%TO.N,/MC_A0*%
X61500000Y-66500000D02*
X62490000Y-67490000D01*
X63066000Y-69796000D02*
X63066000Y-72544000D01*
X58127500Y-65470000D02*
X59157500Y-66500000D01*
X62490000Y-69220000D02*
X63066000Y-69796000D01*
X63066000Y-72544000D02*
X62490000Y-73120000D01*
X59157500Y-66500000D02*
X61500000Y-66500000D01*
X62490000Y-67490000D02*
X62490000Y-69220000D01*
%TO.N,/MC_I1*%
X104000000Y-70030000D02*
X104000000Y-71910000D01*
X104000000Y-71910000D02*
X102990000Y-72920000D01*
X102990000Y-66607500D02*
X104627500Y-64970000D01*
X102990000Y-69020000D02*
X104000000Y-70030000D01*
X102990000Y-69020000D02*
X102990000Y-66607500D01*
%TO.N,/MC_B1*%
X102066000Y-69596000D02*
X102066000Y-72344000D01*
X100127500Y-64970000D02*
X100127500Y-65798750D01*
X101490000Y-69020000D02*
X102066000Y-69596000D01*
X101490000Y-67161250D02*
X101490000Y-69020000D01*
X100127500Y-65798750D02*
X101490000Y-67161250D01*
X102066000Y-72344000D02*
X101490000Y-72920000D01*
%TO.N,/MC_A1*%
X100566000Y-72344000D02*
X99990000Y-72920000D01*
X99500000Y-66000000D02*
X99990000Y-66490000D01*
X100566000Y-69596000D02*
X100566000Y-72344000D01*
X96657500Y-66000000D02*
X99500000Y-66000000D01*
X95627500Y-64970000D02*
X96657500Y-66000000D01*
X99990000Y-69020000D02*
X100566000Y-69596000D01*
X99990000Y-66490000D02*
X99990000Y-69020000D01*
%TD*%
%TA.AperFunction,Conductor*%
%TO.N,GND*%
G36*
X115002702Y-34500617D02*
G01*
X115386771Y-34517386D01*
X115397506Y-34518326D01*
X115775971Y-34568152D01*
X115786597Y-34570025D01*
X116159284Y-34652648D01*
X116169710Y-34655442D01*
X116533765Y-34770227D01*
X116543911Y-34773920D01*
X116896578Y-34920000D01*
X116906369Y-34924566D01*
X117244942Y-35100816D01*
X117254310Y-35106224D01*
X117576244Y-35311318D01*
X117585105Y-35317523D01*
X117887930Y-35549889D01*
X117896217Y-35556843D01*
X118177635Y-35814715D01*
X118185284Y-35822364D01*
X118443156Y-36103782D01*
X118450110Y-36112069D01*
X118682476Y-36414894D01*
X118688681Y-36423755D01*
X118893775Y-36745689D01*
X118899183Y-36755057D01*
X119075430Y-37093623D01*
X119080002Y-37103427D01*
X119226075Y-37456078D01*
X119229775Y-37466244D01*
X119344554Y-37830278D01*
X119347354Y-37840727D01*
X119429971Y-38213389D01*
X119431849Y-38224042D01*
X119481671Y-38602473D01*
X119482614Y-38613249D01*
X119499382Y-38997297D01*
X119499500Y-39002706D01*
X119499500Y-73997293D01*
X119499382Y-74002702D01*
X119482614Y-74386750D01*
X119481671Y-74397526D01*
X119431849Y-74775957D01*
X119429971Y-74786610D01*
X119347354Y-75159272D01*
X119344554Y-75169721D01*
X119229775Y-75533755D01*
X119226075Y-75543921D01*
X119080002Y-75896572D01*
X119075430Y-75906376D01*
X118899183Y-76244942D01*
X118893775Y-76254310D01*
X118688681Y-76576244D01*
X118682476Y-76585105D01*
X118450110Y-76887930D01*
X118443156Y-76896217D01*
X118185284Y-77177635D01*
X118177635Y-77185284D01*
X117896217Y-77443156D01*
X117887930Y-77450110D01*
X117585105Y-77682476D01*
X117576244Y-77688681D01*
X117254310Y-77893775D01*
X117244942Y-77899183D01*
X116906376Y-78075430D01*
X116896572Y-78080002D01*
X116543921Y-78226075D01*
X116533755Y-78229775D01*
X116169721Y-78344554D01*
X116159272Y-78347354D01*
X115786610Y-78429971D01*
X115775957Y-78431849D01*
X115397526Y-78481671D01*
X115386750Y-78482614D01*
X115002703Y-78499382D01*
X114997294Y-78499500D01*
X105464782Y-78499500D01*
X105397743Y-78479815D01*
X105351988Y-78427011D01*
X105342044Y-78357853D01*
X105371069Y-78294297D01*
X105377101Y-78287819D01*
X107013098Y-76651824D01*
X107277137Y-76387784D01*
X107277137Y-76387783D01*
X107277140Y-76387781D01*
X107386632Y-76223914D01*
X107462052Y-76041835D01*
X107500501Y-75848540D01*
X107500501Y-75651459D01*
X107500501Y-75646349D01*
X107500500Y-75646323D01*
X107500500Y-73818234D01*
X111300000Y-73818234D01*
X111300000Y-74181765D01*
X111335632Y-74543556D01*
X111406550Y-74900090D01*
X111406553Y-74900101D01*
X111512086Y-75247997D01*
X111651207Y-75583864D01*
X111651209Y-75583869D01*
X111822570Y-75904462D01*
X111822581Y-75904480D01*
X112024551Y-76206750D01*
X112211678Y-76434765D01*
X112211679Y-76434766D01*
X113705747Y-74940697D01*
X113779588Y-75042330D01*
X113957670Y-75220412D01*
X114059301Y-75294251D01*
X112565232Y-76788319D01*
X112565233Y-76788320D01*
X112793249Y-76975448D01*
X113095519Y-77177418D01*
X113095537Y-77177429D01*
X113416130Y-77348790D01*
X113416135Y-77348792D01*
X113752002Y-77487913D01*
X114099898Y-77593446D01*
X114099909Y-77593449D01*
X114456443Y-77664367D01*
X114818234Y-77700000D01*
X115181766Y-77700000D01*
X115543556Y-77664367D01*
X115900090Y-77593449D01*
X115900101Y-77593446D01*
X116247997Y-77487913D01*
X116583864Y-77348792D01*
X116583869Y-77348790D01*
X116904462Y-77177429D01*
X116904480Y-77177418D01*
X117206736Y-76975457D01*
X117206750Y-76975447D01*
X117434765Y-76788320D01*
X117434766Y-76788319D01*
X115940698Y-75294251D01*
X116042330Y-75220412D01*
X116220412Y-75042330D01*
X116294251Y-74940698D01*
X117788319Y-76434766D01*
X117788320Y-76434765D01*
X117975447Y-76206750D01*
X117975457Y-76206736D01*
X118177418Y-75904480D01*
X118177429Y-75904462D01*
X118348790Y-75583869D01*
X118348792Y-75583864D01*
X118487913Y-75247997D01*
X118593446Y-74900101D01*
X118593449Y-74900090D01*
X118664367Y-74543556D01*
X118700000Y-74181765D01*
X118700000Y-73818234D01*
X118664367Y-73456443D01*
X118593449Y-73099909D01*
X118593446Y-73099898D01*
X118487913Y-72752002D01*
X118348792Y-72416135D01*
X118348790Y-72416130D01*
X118177429Y-72095537D01*
X118177418Y-72095519D01*
X117975448Y-71793249D01*
X117788320Y-71565233D01*
X117788319Y-71565232D01*
X116294251Y-73059300D01*
X116220412Y-72957670D01*
X116042330Y-72779588D01*
X115940698Y-72705748D01*
X117434766Y-71211679D01*
X117434765Y-71211678D01*
X117206750Y-71024551D01*
X116904480Y-70822581D01*
X116904462Y-70822570D01*
X116583869Y-70651209D01*
X116583864Y-70651207D01*
X116247997Y-70512086D01*
X115900101Y-70406553D01*
X115900090Y-70406550D01*
X115543556Y-70335632D01*
X115181766Y-70300000D01*
X114818234Y-70300000D01*
X114456443Y-70335632D01*
X114099909Y-70406550D01*
X114099898Y-70406553D01*
X113752002Y-70512086D01*
X113416135Y-70651207D01*
X113416130Y-70651209D01*
X113095537Y-70822570D01*
X113095519Y-70822581D01*
X112793258Y-71024545D01*
X112793254Y-71024548D01*
X112565233Y-71211679D01*
X112565233Y-71211680D01*
X114059301Y-72705748D01*
X113957670Y-72779588D01*
X113779588Y-72957670D01*
X113705748Y-73059301D01*
X112211680Y-71565233D01*
X112211679Y-71565233D01*
X112024548Y-71793254D01*
X112024545Y-71793258D01*
X111822581Y-72095519D01*
X111822570Y-72095537D01*
X111651209Y-72416130D01*
X111651207Y-72416135D01*
X111512086Y-72752002D01*
X111406553Y-73099898D01*
X111406550Y-73099909D01*
X111335632Y-73456443D01*
X111300000Y-73818234D01*
X107500500Y-73818234D01*
X107500500Y-63651456D01*
X107479907Y-63547932D01*
X107475282Y-63524680D01*
X107462051Y-63458164D01*
X107423831Y-63365894D01*
X107386632Y-63276086D01*
X107386628Y-63276080D01*
X107277139Y-63112217D01*
X107134686Y-62969764D01*
X107134655Y-62969735D01*
X106601479Y-62436559D01*
X106601459Y-62436537D01*
X106457785Y-62292863D01*
X106457781Y-62292860D01*
X106293920Y-62183371D01*
X106293907Y-62183364D01*
X106149292Y-62123464D01*
X106139514Y-62119413D01*
X106127042Y-62114247D01*
X106093758Y-62087422D01*
X106072642Y-62070405D01*
X106072640Y-62070403D01*
X106055244Y-62018127D01*
X106050579Y-62004110D01*
X106050500Y-61999688D01*
X106050500Y-61896534D01*
X106050499Y-61896530D01*
X106033590Y-61811523D01*
X106010130Y-61693580D01*
X105930941Y-61502402D01*
X105815977Y-61330345D01*
X105815975Y-61330342D01*
X105669655Y-61184022D01*
X105522317Y-61085575D01*
X105477512Y-61031963D01*
X105468805Y-60962638D01*
X105485670Y-60917376D01*
X105549353Y-60814130D01*
X105549358Y-60814119D01*
X105604505Y-60647697D01*
X105604506Y-60647690D01*
X105614999Y-60544986D01*
X105615000Y-60544973D01*
X105615000Y-60270000D01*
X104651500Y-60270000D01*
X104584461Y-60250315D01*
X104538706Y-60197511D01*
X104527500Y-60146000D01*
X104527500Y-60020000D01*
X104401500Y-60020000D01*
X104334461Y-60000315D01*
X104288706Y-59947511D01*
X104277500Y-59896000D01*
X104277500Y-59770000D01*
X104777500Y-59770000D01*
X105614999Y-59770000D01*
X105614999Y-59495028D01*
X105614998Y-59495013D01*
X105604505Y-59392302D01*
X105549358Y-59225880D01*
X105549356Y-59225875D01*
X105457315Y-59076654D01*
X105333345Y-58952684D01*
X105184124Y-58860643D01*
X105184119Y-58860641D01*
X105017697Y-58805494D01*
X105017690Y-58805493D01*
X104914986Y-58795000D01*
X104777500Y-58795000D01*
X104777500Y-59770000D01*
X104277500Y-59770000D01*
X104277500Y-58795000D01*
X104140027Y-58795000D01*
X104140010Y-58795001D01*
X104065904Y-58802572D01*
X103997212Y-58789802D01*
X103946327Y-58741921D01*
X103929407Y-58674131D01*
X103934086Y-58645107D01*
X103954886Y-58572418D01*
X103965500Y-58453037D01*
X103965499Y-57661964D01*
X103954886Y-57542582D01*
X103898909Y-57346951D01*
X103804698Y-57166593D01*
X103749061Y-57098359D01*
X103721952Y-57033966D01*
X103733961Y-56965136D01*
X103749061Y-56941640D01*
X103804698Y-56873407D01*
X103898909Y-56693049D01*
X103954886Y-56497418D01*
X103965500Y-56378037D01*
X103965499Y-55586964D01*
X103954886Y-55467582D01*
X103906366Y-55298013D01*
X103898910Y-55271954D01*
X103898909Y-55271952D01*
X103898909Y-55271951D01*
X103804698Y-55091593D01*
X103804695Y-55091589D01*
X103801786Y-55086020D01*
X103803171Y-55085296D01*
X103802588Y-55083390D01*
X103796194Y-55076011D01*
X103792530Y-55050534D01*
X103784996Y-55025920D01*
X103787639Y-55016519D01*
X103786250Y-55006853D01*
X103796943Y-54983437D01*
X103803912Y-54958659D01*
X103811218Y-54952180D01*
X103815275Y-54943297D01*
X103836931Y-54929379D01*
X103856189Y-54912303D01*
X103867404Y-54909795D01*
X103874053Y-54905523D01*
X103908988Y-54900500D01*
X104075638Y-54900500D01*
X104142677Y-54920185D01*
X104163319Y-54936819D01*
X104702582Y-55476082D01*
X104736067Y-55537405D01*
X104736518Y-55539572D01*
X104739867Y-55556413D01*
X104739869Y-55556418D01*
X104811372Y-55729039D01*
X104819059Y-55747598D01*
X104854432Y-55800538D01*
X104934024Y-55919657D01*
X105080342Y-56065975D01*
X105080345Y-56065977D01*
X105252402Y-56180941D01*
X105443580Y-56260130D01*
X105645982Y-56300390D01*
X105646530Y-56300499D01*
X105646534Y-56300500D01*
X105646535Y-56300500D01*
X105853466Y-56300500D01*
X105853467Y-56300499D01*
X106056420Y-56260130D01*
X106247598Y-56180941D01*
X106419655Y-56065977D01*
X106518386Y-55967245D01*
X106579707Y-55933762D01*
X106649399Y-55938746D01*
X106693747Y-55967247D01*
X106931424Y-56204924D01*
X106964909Y-56266247D01*
X106965361Y-56316795D01*
X106953180Y-56378037D01*
X106949500Y-56396536D01*
X106949500Y-56603469D01*
X106989868Y-56806412D01*
X106989870Y-56806420D01*
X107059039Y-56973409D01*
X107069059Y-56997598D01*
X107098487Y-57041640D01*
X107184024Y-57169657D01*
X107330342Y-57315975D01*
X107330345Y-57315977D01*
X107502402Y-57430941D01*
X107693580Y-57510130D01*
X107896530Y-57550499D01*
X107896534Y-57550500D01*
X107896535Y-57550500D01*
X108103466Y-57550500D01*
X108103467Y-57550499D01*
X108306420Y-57510130D01*
X108497598Y-57430941D01*
X108669655Y-57315977D01*
X108815977Y-57169655D01*
X108930941Y-56997598D01*
X109010130Y-56806420D01*
X109010130Y-56806418D01*
X109011939Y-56802052D01*
X109055780Y-56747649D01*
X109122074Y-56725584D01*
X109189773Y-56742863D01*
X109237384Y-56794000D01*
X109250500Y-56849505D01*
X109250500Y-57712505D01*
X109230815Y-57779544D01*
X109214181Y-57800186D01*
X109184025Y-57830341D01*
X109184024Y-57830342D01*
X109069058Y-58002403D01*
X108989870Y-58193579D01*
X108989868Y-58193587D01*
X108949500Y-58396530D01*
X108949500Y-58603469D01*
X108989868Y-58806412D01*
X108989870Y-58806420D01*
X109067735Y-58994403D01*
X109069059Y-58997598D01*
X109116136Y-59068054D01*
X109184024Y-59169657D01*
X109330342Y-59315975D01*
X109330345Y-59315977D01*
X109502402Y-59430941D01*
X109693580Y-59510130D01*
X109896530Y-59550499D01*
X109896534Y-59550500D01*
X109896535Y-59550500D01*
X110103466Y-59550500D01*
X110103467Y-59550499D01*
X110306420Y-59510130D01*
X110497598Y-59430941D01*
X110669655Y-59315977D01*
X110815977Y-59169655D01*
X110930941Y-58997598D01*
X111010130Y-58806420D01*
X111050500Y-58603465D01*
X111050500Y-58453939D01*
X111051097Y-58441787D01*
X111051500Y-58437694D01*
X111051500Y-55433134D01*
X111045170Y-55401309D01*
X111045170Y-55401307D01*
X111045170Y-55401306D01*
X111019440Y-55271954D01*
X111016895Y-55259159D01*
X110982953Y-55177218D01*
X110949013Y-55095278D01*
X110876887Y-54987334D01*
X110850464Y-54947789D01*
X110850463Y-54947787D01*
X108203213Y-52300537D01*
X108175279Y-52281872D01*
X108108622Y-52237334D01*
X108055722Y-52201987D01*
X107959155Y-52161988D01*
X107954724Y-52160152D01*
X107954717Y-52160149D01*
X107891841Y-52134105D01*
X107891833Y-52134103D01*
X107717871Y-52099500D01*
X107717867Y-52099500D01*
X107717866Y-52099500D01*
X104989000Y-52099500D01*
X104921961Y-52079815D01*
X104876206Y-52027011D01*
X104865000Y-51975500D01*
X104865000Y-50750000D01*
X104219500Y-50750000D01*
X104152461Y-50730315D01*
X104106706Y-50677511D01*
X104095500Y-50626000D01*
X104095499Y-50334861D01*
X104115183Y-50267822D01*
X104167987Y-50222067D01*
X104237146Y-50212123D01*
X104300701Y-50241148D01*
X104307180Y-50247180D01*
X104310000Y-50250000D01*
X104865000Y-50250000D01*
X104865000Y-48927172D01*
X104864999Y-48927155D01*
X104858598Y-48867627D01*
X104858596Y-48867620D01*
X104808354Y-48732913D01*
X104808350Y-48732906D01*
X104722190Y-48617812D01*
X104722187Y-48617809D01*
X104607093Y-48531649D01*
X104607086Y-48531645D01*
X104472379Y-48481403D01*
X104472372Y-48481401D01*
X104412844Y-48475000D01*
X104310000Y-48475000D01*
X104310000Y-48732786D01*
X104290315Y-48799825D01*
X104237511Y-48845580D01*
X104168353Y-48855524D01*
X104104797Y-48826499D01*
X104068294Y-48771791D01*
X104055411Y-48732913D01*
X104029814Y-48655666D01*
X103937712Y-48506344D01*
X103813656Y-48382288D01*
X103664334Y-48290186D01*
X103497797Y-48235001D01*
X103497795Y-48235000D01*
X103395010Y-48224500D01*
X102684998Y-48224500D01*
X102684980Y-48224501D01*
X102582203Y-48235000D01*
X102582201Y-48235001D01*
X102569002Y-48239375D01*
X102499173Y-48241775D01*
X102490998Y-48239375D01*
X102477797Y-48235001D01*
X102375010Y-48224500D01*
X101664998Y-48224500D01*
X101664980Y-48224501D01*
X101562203Y-48235000D01*
X101562201Y-48235001D01*
X101549002Y-48239375D01*
X101479173Y-48241775D01*
X101470998Y-48239375D01*
X101457797Y-48235001D01*
X101355010Y-48224500D01*
X100644998Y-48224500D01*
X100644980Y-48224501D01*
X100542203Y-48235000D01*
X100542201Y-48235001D01*
X100529002Y-48239375D01*
X100459173Y-48241775D01*
X100450998Y-48239375D01*
X100437797Y-48235001D01*
X100335010Y-48224500D01*
X99624998Y-48224500D01*
X99624980Y-48224501D01*
X99522203Y-48235000D01*
X99522201Y-48235001D01*
X99509002Y-48239375D01*
X99439173Y-48241775D01*
X99430998Y-48239375D01*
X99417797Y-48235001D01*
X99315010Y-48224500D01*
X98604998Y-48224500D01*
X98604980Y-48224501D01*
X98502203Y-48235000D01*
X98502201Y-48235001D01*
X98489002Y-48239375D01*
X98419173Y-48241775D01*
X98410998Y-48239375D01*
X98397797Y-48235001D01*
X98295010Y-48224500D01*
X97584998Y-48224500D01*
X97584980Y-48224501D01*
X97482203Y-48235000D01*
X97482201Y-48235001D01*
X97469002Y-48239375D01*
X97399173Y-48241775D01*
X97390998Y-48239375D01*
X97377797Y-48235001D01*
X97275010Y-48224500D01*
X96564998Y-48224500D01*
X96564980Y-48224501D01*
X96462203Y-48235000D01*
X96462200Y-48235001D01*
X96295668Y-48290185D01*
X96295663Y-48290187D01*
X96146342Y-48382289D01*
X96022289Y-48506342D01*
X95930187Y-48655663D01*
X95930185Y-48655668D01*
X95919500Y-48687914D01*
X95875001Y-48822203D01*
X95875001Y-48822204D01*
X95875000Y-48822204D01*
X95864500Y-48924983D01*
X95864500Y-49375500D01*
X95844815Y-49442539D01*
X95792011Y-49488294D01*
X95740500Y-49499500D01*
X93901454Y-49499500D01*
X93869391Y-49505876D01*
X93869392Y-49505877D01*
X93708170Y-49537946D01*
X93708164Y-49537948D01*
X93526088Y-49613366D01*
X93526079Y-49613371D01*
X93362219Y-49722859D01*
X93362215Y-49722862D01*
X91109579Y-51975500D01*
X90362220Y-52722859D01*
X90362218Y-52722861D01*
X90292538Y-52792540D01*
X90222859Y-52862219D01*
X90113371Y-53026079D01*
X90113364Y-53026092D01*
X90068625Y-53134105D01*
X90056243Y-53163999D01*
X90037949Y-53208164D01*
X90034501Y-53225500D01*
X89999500Y-53401456D01*
X89999500Y-56327254D01*
X89979815Y-56394293D01*
X89927011Y-56440048D01*
X89899691Y-56448871D01*
X89693587Y-56489868D01*
X89693575Y-56489871D01*
X89575332Y-56538849D01*
X89505863Y-56546318D01*
X89443384Y-56515043D01*
X89424780Y-56493182D01*
X89315977Y-56330345D01*
X89315975Y-56330342D01*
X89169657Y-56184024D01*
X89043156Y-56099500D01*
X88997598Y-56069059D01*
X88997593Y-56069057D01*
X88806420Y-55989870D01*
X88806412Y-55989868D01*
X88603469Y-55949500D01*
X88603465Y-55949500D01*
X88396535Y-55949500D01*
X88396530Y-55949500D01*
X88193587Y-55989868D01*
X88193579Y-55989870D01*
X88002405Y-56069057D01*
X88002402Y-56069058D01*
X88002402Y-56069059D01*
X87988117Y-56078603D01*
X87921441Y-56099480D01*
X87919229Y-56099500D01*
X83411306Y-56099500D01*
X83328891Y-56115894D01*
X83328890Y-56115894D01*
X83237341Y-56134103D01*
X83237332Y-56134106D01*
X83073459Y-56201983D01*
X83073447Y-56201990D01*
X82926183Y-56300390D01*
X82925959Y-56300540D01*
X80420540Y-58805958D01*
X80420537Y-58805961D01*
X80401876Y-58833891D01*
X80321990Y-58953447D01*
X80321983Y-58953460D01*
X80303702Y-58997597D01*
X80303702Y-58997598D01*
X80254105Y-59117333D01*
X80254103Y-59117341D01*
X80220857Y-59284479D01*
X80220858Y-59284480D01*
X80219500Y-59291307D01*
X80219500Y-60433847D01*
X80199815Y-60500886D01*
X80147011Y-60546641D01*
X80077853Y-60556585D01*
X80014297Y-60527560D01*
X79976523Y-60468782D01*
X79973883Y-60458038D01*
X79954275Y-60359464D01*
X79945895Y-60317334D01*
X79895858Y-60196536D01*
X79878013Y-60153453D01*
X79807560Y-60048013D01*
X79779464Y-60005964D01*
X79779462Y-60005961D01*
X79779461Y-60005960D01*
X78578567Y-58805067D01*
X78545082Y-58743744D01*
X78550066Y-58674052D01*
X78591938Y-58618119D01*
X78597333Y-58614300D01*
X78669655Y-58565977D01*
X78815977Y-58419655D01*
X78930941Y-58247598D01*
X79010130Y-58056420D01*
X79050500Y-57853465D01*
X79050500Y-57646535D01*
X79010130Y-57443580D01*
X78930941Y-57252402D01*
X78815977Y-57080345D01*
X78815975Y-57080342D01*
X78669657Y-56934024D01*
X78543164Y-56849505D01*
X78497598Y-56819059D01*
X78306420Y-56739870D01*
X78306418Y-56739869D01*
X78306413Y-56739867D01*
X78289572Y-56736518D01*
X78227661Y-56704133D01*
X78226082Y-56702582D01*
X77324039Y-55800538D01*
X77324038Y-55800537D01*
X77301015Y-55785154D01*
X77229447Y-55737334D01*
X77176547Y-55701987D01*
X77094606Y-55668046D01*
X77012666Y-55634105D01*
X77012658Y-55634103D01*
X76838696Y-55599500D01*
X76838692Y-55599500D01*
X76838691Y-55599500D01*
X72424362Y-55599500D01*
X72357323Y-55579815D01*
X72336681Y-55563181D01*
X69488373Y-52714873D01*
X69454888Y-52653550D01*
X69459872Y-52583858D01*
X69501744Y-52527925D01*
X69532721Y-52511010D01*
X69647086Y-52468354D01*
X69647093Y-52468350D01*
X69762187Y-52382190D01*
X69762190Y-52382187D01*
X69848350Y-52267093D01*
X69848354Y-52267086D01*
X69898596Y-52132379D01*
X69898598Y-52132372D01*
X69904999Y-52072844D01*
X69905000Y-52072827D01*
X69905000Y-50750000D01*
X69259500Y-50750000D01*
X69192461Y-50730315D01*
X69146706Y-50677511D01*
X69135500Y-50626000D01*
X69135499Y-50334861D01*
X69155183Y-50267822D01*
X69207987Y-50222067D01*
X69277146Y-50212123D01*
X69340701Y-50241148D01*
X69347180Y-50247180D01*
X69350000Y-50250000D01*
X69905000Y-50250000D01*
X69905000Y-48927172D01*
X69904999Y-48927155D01*
X69898598Y-48867627D01*
X69898596Y-48867620D01*
X69848354Y-48732913D01*
X69848350Y-48732906D01*
X69762190Y-48617812D01*
X69762187Y-48617809D01*
X69647093Y-48531649D01*
X69647086Y-48531645D01*
X69512379Y-48481403D01*
X69512372Y-48481401D01*
X69452844Y-48475000D01*
X69350000Y-48475000D01*
X69350000Y-48732786D01*
X69330315Y-48799825D01*
X69277511Y-48845580D01*
X69208353Y-48855524D01*
X69144797Y-48826499D01*
X69108294Y-48771791D01*
X69095411Y-48732913D01*
X69069814Y-48655666D01*
X68977712Y-48506344D01*
X68853656Y-48382288D01*
X68704334Y-48290186D01*
X68537797Y-48235001D01*
X68537795Y-48235000D01*
X68435010Y-48224500D01*
X67724998Y-48224500D01*
X67724980Y-48224501D01*
X67622203Y-48235000D01*
X67622201Y-48235001D01*
X67609002Y-48239375D01*
X67539173Y-48241775D01*
X67530998Y-48239375D01*
X67517797Y-48235001D01*
X67415010Y-48224500D01*
X66704998Y-48224500D01*
X66704980Y-48224501D01*
X66602203Y-48235000D01*
X66602201Y-48235001D01*
X66589002Y-48239375D01*
X66519173Y-48241775D01*
X66510998Y-48239375D01*
X66497797Y-48235001D01*
X66395010Y-48224500D01*
X65684998Y-48224500D01*
X65684980Y-48224501D01*
X65582203Y-48235000D01*
X65582201Y-48235001D01*
X65569002Y-48239375D01*
X65499173Y-48241775D01*
X65490998Y-48239375D01*
X65477797Y-48235001D01*
X65375010Y-48224500D01*
X64664998Y-48224500D01*
X64664980Y-48224501D01*
X64562203Y-48235000D01*
X64562201Y-48235001D01*
X64549002Y-48239375D01*
X64479173Y-48241775D01*
X64470998Y-48239375D01*
X64457797Y-48235001D01*
X64355010Y-48224500D01*
X63644998Y-48224500D01*
X63644980Y-48224501D01*
X63542203Y-48235000D01*
X63542201Y-48235001D01*
X63529002Y-48239375D01*
X63459173Y-48241775D01*
X63450998Y-48239375D01*
X63437797Y-48235001D01*
X63335016Y-48224500D01*
X63335009Y-48224500D01*
X63084500Y-48224500D01*
X63075814Y-48221949D01*
X63066853Y-48223238D01*
X63042812Y-48212259D01*
X63017461Y-48204815D01*
X63011533Y-48197974D01*
X63003297Y-48194213D01*
X62989007Y-48171978D01*
X62971706Y-48152011D01*
X62969418Y-48141496D01*
X62965523Y-48135435D01*
X62960500Y-48100500D01*
X62960500Y-47950901D01*
X62969939Y-47903448D01*
X62988903Y-47857665D01*
X63010130Y-47806420D01*
X63050500Y-47603465D01*
X63050500Y-47396535D01*
X63010130Y-47193580D01*
X62930941Y-47002402D01*
X62930940Y-47002400D01*
X62930940Y-47002399D01*
X62851231Y-46883106D01*
X62851229Y-46883104D01*
X62815975Y-46830342D01*
X62802599Y-46816966D01*
X77199500Y-46816966D01*
X77199500Y-50533028D01*
X77199501Y-50533034D01*
X77210113Y-50652415D01*
X77266089Y-50848045D01*
X77266090Y-50848048D01*
X77266091Y-50848049D01*
X77360302Y-51028407D01*
X77360304Y-51028409D01*
X77488890Y-51186109D01*
X77554544Y-51239642D01*
X77646593Y-51314698D01*
X77826951Y-51408909D01*
X78022582Y-51464886D01*
X78141963Y-51475500D01*
X80918036Y-51475499D01*
X81037418Y-51464886D01*
X81233049Y-51408909D01*
X81413407Y-51314698D01*
X81571109Y-51186109D01*
X81699698Y-51028407D01*
X81751176Y-50929856D01*
X81799660Y-50879552D01*
X81867648Y-50863444D01*
X81933551Y-50886650D01*
X81948764Y-50899589D01*
X81950092Y-50900917D01*
X81950099Y-50900923D01*
X82092483Y-51010178D01*
X82192466Y-51086897D01*
X82362506Y-51185070D01*
X82457027Y-51239642D01*
X82457032Y-51239644D01*
X82457035Y-51239646D01*
X82457039Y-51239647D01*
X82457044Y-51239650D01*
X82546555Y-51276726D01*
X82739278Y-51356555D01*
X83034367Y-51435624D01*
X83256623Y-51464885D01*
X83337235Y-51475498D01*
X83337251Y-51475500D01*
X83337258Y-51475500D01*
X83642742Y-51475500D01*
X83642749Y-51475500D01*
X83945633Y-51435624D01*
X84240722Y-51356555D01*
X84522965Y-51239646D01*
X84787534Y-51086897D01*
X85029902Y-50900922D01*
X85245922Y-50684902D01*
X85431897Y-50442534D01*
X85507470Y-50311636D01*
X85558033Y-50263425D01*
X85626640Y-50250201D01*
X85691505Y-50276169D01*
X85713811Y-50300266D01*
X85714360Y-50299845D01*
X85882818Y-50519382D01*
X85882826Y-50519391D01*
X86075609Y-50712174D01*
X86075617Y-50712181D01*
X86291933Y-50878168D01*
X86528062Y-51014496D01*
X86528072Y-51014500D01*
X86779970Y-51118840D01*
X87043344Y-51189411D01*
X87200000Y-51210034D01*
X87200000Y-49491480D01*
X87202064Y-49492335D01*
X87366282Y-49525000D01*
X87533718Y-49525000D01*
X87697936Y-49492335D01*
X87700000Y-49491480D01*
X87700000Y-51210033D01*
X87856655Y-51189411D01*
X88120029Y-51118840D01*
X88371927Y-51014500D01*
X88371937Y-51014496D01*
X88608066Y-50878168D01*
X88824382Y-50712181D01*
X88824391Y-50712174D01*
X89017174Y-50519391D01*
X89017181Y-50519382D01*
X89183168Y-50303066D01*
X89319496Y-50066937D01*
X89319500Y-50066927D01*
X89423840Y-49815029D01*
X89494411Y-49551655D01*
X89530000Y-49281330D01*
X89530000Y-48925000D01*
X88266480Y-48925000D01*
X88267335Y-48922936D01*
X88300000Y-48758718D01*
X88300000Y-48591282D01*
X88267335Y-48427064D01*
X88266480Y-48425000D01*
X89530000Y-48425000D01*
X89530000Y-48068669D01*
X89494411Y-47798344D01*
X89423840Y-47534970D01*
X89319500Y-47283072D01*
X89319496Y-47283062D01*
X89183168Y-47046933D01*
X89017181Y-46830617D01*
X89017174Y-46830609D01*
X88824391Y-46637826D01*
X88824382Y-46637818D01*
X88608066Y-46471831D01*
X88371937Y-46335503D01*
X88371927Y-46335499D01*
X88120029Y-46231159D01*
X87856655Y-46160588D01*
X87700000Y-46139963D01*
X87700000Y-47858519D01*
X87697936Y-47857665D01*
X87533718Y-47825000D01*
X87366282Y-47825000D01*
X87202064Y-47857665D01*
X87200000Y-47858519D01*
X87200000Y-46139963D01*
X87199999Y-46139963D01*
X87043344Y-46160588D01*
X86779970Y-46231159D01*
X86528072Y-46335499D01*
X86528062Y-46335503D01*
X86291933Y-46471831D01*
X86075617Y-46637818D01*
X85882818Y-46830617D01*
X85714360Y-47050155D01*
X85713185Y-47049253D01*
X85664292Y-47090077D01*
X85594963Y-47098753D01*
X85531950Y-47068570D01*
X85507470Y-47038363D01*
X85431897Y-46907466D01*
X85270848Y-46697582D01*
X85245923Y-46665099D01*
X85245917Y-46665092D01*
X85029907Y-46449082D01*
X85029900Y-46449076D01*
X84787538Y-46263106D01*
X84787537Y-46263105D01*
X84787534Y-46263103D01*
X84682050Y-46202202D01*
X84522972Y-46110357D01*
X84522955Y-46110349D01*
X84240722Y-45993445D01*
X83945630Y-45914375D01*
X83642756Y-45874500D01*
X83642749Y-45874500D01*
X83337251Y-45874500D01*
X83337243Y-45874500D01*
X83034369Y-45914375D01*
X82739277Y-45993445D01*
X82457044Y-46110349D01*
X82457027Y-46110357D01*
X82192461Y-46263106D01*
X81950099Y-46449076D01*
X81950095Y-46449079D01*
X81948754Y-46450421D01*
X81948256Y-46450692D01*
X81947045Y-46451755D01*
X81946807Y-46451483D01*
X81887427Y-46483898D01*
X81817736Y-46478906D01*
X81761807Y-46437028D01*
X81751177Y-46420145D01*
X81699698Y-46321593D01*
X81625959Y-46231159D01*
X81571109Y-46163890D01*
X81413409Y-46035304D01*
X81413410Y-46035304D01*
X81413407Y-46035302D01*
X81233049Y-45941091D01*
X81233048Y-45941090D01*
X81233045Y-45941089D01*
X81115829Y-45907550D01*
X81037418Y-45885114D01*
X81037415Y-45885113D01*
X81037413Y-45885113D01*
X80971102Y-45879217D01*
X80918037Y-45874500D01*
X80918032Y-45874500D01*
X78141971Y-45874500D01*
X78141965Y-45874500D01*
X78141964Y-45874501D01*
X78130316Y-45875536D01*
X78022584Y-45885113D01*
X77826954Y-45941089D01*
X77736772Y-45988196D01*
X77646593Y-46035302D01*
X77646591Y-46035303D01*
X77646590Y-46035304D01*
X77488890Y-46163890D01*
X77360304Y-46321590D01*
X77266089Y-46501954D01*
X77227212Y-46637826D01*
X77213994Y-46684024D01*
X77210114Y-46697583D01*
X77210113Y-46697586D01*
X77199500Y-46816966D01*
X62802599Y-46816966D01*
X62669657Y-46684024D01*
X62517386Y-46582281D01*
X62497598Y-46569059D01*
X62306420Y-46489870D01*
X62306412Y-46489868D01*
X62103469Y-46449500D01*
X62103465Y-46449500D01*
X61896535Y-46449500D01*
X61896530Y-46449500D01*
X61693587Y-46489868D01*
X61693579Y-46489870D01*
X61502403Y-46569058D01*
X61330342Y-46684024D01*
X61184024Y-46830342D01*
X61069058Y-47002403D01*
X60989870Y-47193579D01*
X60989868Y-47193587D01*
X60949500Y-47396530D01*
X60949500Y-47603466D01*
X60957117Y-47641756D01*
X60959500Y-47665949D01*
X60959500Y-48667904D01*
X60953206Y-48706908D01*
X60915001Y-48822203D01*
X60915000Y-48822204D01*
X60904500Y-48924983D01*
X60904500Y-48924996D01*
X60904501Y-51975500D01*
X60884816Y-52042539D01*
X60832012Y-52088294D01*
X60780501Y-52099500D01*
X57054015Y-52099500D01*
X56986976Y-52079815D01*
X56941221Y-52027011D01*
X56939454Y-52022954D01*
X56930941Y-52002402D01*
X56930938Y-52002397D01*
X56930937Y-52002395D01*
X56815977Y-51830344D01*
X56669657Y-51684024D01*
X56580572Y-51624500D01*
X56497598Y-51569059D01*
X56379606Y-51520185D01*
X56306420Y-51489870D01*
X56306412Y-51489868D01*
X56103469Y-51449500D01*
X56103465Y-51449500D01*
X55896535Y-51449500D01*
X55896530Y-51449500D01*
X55693587Y-51489868D01*
X55693579Y-51489870D01*
X55502403Y-51569058D01*
X55330342Y-51684024D01*
X55184024Y-51830342D01*
X55069058Y-52002403D01*
X54989870Y-52193579D01*
X54989868Y-52193587D01*
X54949500Y-52396530D01*
X54949500Y-52603469D01*
X54989868Y-52806412D01*
X54989870Y-52806420D01*
X55069058Y-52997596D01*
X55071928Y-53002965D01*
X55070700Y-53003621D01*
X55089480Y-53063583D01*
X55089500Y-53065804D01*
X55089500Y-54663363D01*
X55069815Y-54730402D01*
X55022912Y-54773271D01*
X54961595Y-54805300D01*
X54961593Y-54805302D01*
X54803890Y-54933890D01*
X54679846Y-55086020D01*
X54675302Y-55091593D01*
X54630575Y-55177218D01*
X54581089Y-55271954D01*
X54525114Y-55467583D01*
X54525113Y-55467586D01*
X54524358Y-55476082D01*
X54516615Y-55563181D01*
X54514500Y-55586966D01*
X54514500Y-56378028D01*
X54514501Y-56378034D01*
X54525113Y-56497415D01*
X54581089Y-56693045D01*
X54581090Y-56693048D01*
X54581091Y-56693049D01*
X54646912Y-56819058D01*
X54675303Y-56873408D01*
X54730938Y-56941640D01*
X54758046Y-57006036D01*
X54746036Y-57074866D01*
X54730938Y-57098360D01*
X54675303Y-57166591D01*
X54581089Y-57346954D01*
X54525114Y-57542583D01*
X54525113Y-57542586D01*
X54514500Y-57661966D01*
X54514500Y-58453028D01*
X54514501Y-58453034D01*
X54525113Y-58572415D01*
X54581089Y-58768045D01*
X54581090Y-58768047D01*
X54581091Y-58768049D01*
X54675302Y-58948407D01*
X54685277Y-58960641D01*
X54698360Y-58976685D01*
X54725469Y-59041081D01*
X54713460Y-59109911D01*
X54712168Y-59112455D01*
X54681089Y-59171953D01*
X54625114Y-59367583D01*
X54625113Y-59367586D01*
X54614500Y-59486966D01*
X54614500Y-60553028D01*
X54614501Y-60553034D01*
X54625113Y-60672415D01*
X54681089Y-60868045D01*
X54681090Y-60868048D01*
X54681091Y-60868049D01*
X54775302Y-61048407D01*
X54805609Y-61085575D01*
X54903890Y-61206109D01*
X54982123Y-61269899D01*
X55061593Y-61334698D01*
X55241951Y-61428909D01*
X55437582Y-61484886D01*
X55556963Y-61495500D01*
X55841501Y-61495499D01*
X55908539Y-61515183D01*
X55954294Y-61567987D01*
X55965500Y-61619499D01*
X55965500Y-62395500D01*
X55945815Y-62462539D01*
X55893011Y-62508294D01*
X55841500Y-62519500D01*
X55276989Y-62519500D01*
X55276970Y-62519501D01*
X55198356Y-62525687D01*
X55015512Y-62574680D01*
X54846853Y-62660614D01*
X54699743Y-62779743D01*
X54580614Y-62926853D01*
X54494680Y-63095512D01*
X54445687Y-63278356D01*
X54445687Y-63278357D01*
X54439500Y-63356973D01*
X54439500Y-63783010D01*
X54439501Y-63783029D01*
X54445687Y-63861645D01*
X54486217Y-64012908D01*
X54486217Y-64077092D01*
X54445688Y-64228353D01*
X54445687Y-64228357D01*
X54439500Y-64306973D01*
X54439500Y-64733010D01*
X54439501Y-64733029D01*
X54445687Y-64811643D01*
X54469998Y-64902372D01*
X54494680Y-64994488D01*
X54508706Y-65022015D01*
X54580614Y-65163146D01*
X54592931Y-65178356D01*
X54699743Y-65310257D01*
X54786113Y-65380198D01*
X54846853Y-65429385D01*
X54957016Y-65485515D01*
X55007813Y-65533489D01*
X55024608Y-65601310D01*
X55002071Y-65667445D01*
X54947356Y-65710897D01*
X54900722Y-65720000D01*
X54692705Y-65720000D01*
X54692704Y-65720001D01*
X54692899Y-65722486D01*
X54738718Y-65880198D01*
X54822314Y-66021552D01*
X54822321Y-66021561D01*
X54938438Y-66137678D01*
X54938447Y-66137685D01*
X55079803Y-66221282D01*
X55079806Y-66221283D01*
X55237504Y-66267099D01*
X55237510Y-66267100D01*
X55274350Y-66269999D01*
X55274366Y-66270000D01*
X55602500Y-66270000D01*
X55602500Y-65694499D01*
X55622185Y-65627460D01*
X55674989Y-65581705D01*
X55726497Y-65570499D01*
X55978501Y-65570499D01*
X56045539Y-65590184D01*
X56091294Y-65642988D01*
X56102500Y-65694499D01*
X56102500Y-66270000D01*
X56430634Y-66270000D01*
X56430649Y-66269999D01*
X56467489Y-66267100D01*
X56467495Y-66267099D01*
X56625193Y-66221283D01*
X56625196Y-66221282D01*
X56748082Y-66148608D01*
X56775909Y-66141547D01*
X56802852Y-66131621D01*
X56809352Y-66133062D01*
X56815806Y-66131425D01*
X56843037Y-66140531D01*
X56871065Y-66146747D01*
X56877348Y-66152006D01*
X56882068Y-66153585D01*
X56899235Y-66168011D01*
X56903636Y-66172447D01*
X56974743Y-66260257D01*
X57056105Y-66326142D01*
X57060858Y-66330934D01*
X57074400Y-66355972D01*
X57090573Y-66379385D01*
X57090803Y-66386300D01*
X57094097Y-66392390D01*
X57091952Y-66420770D01*
X57092901Y-66449215D01*
X57089174Y-66457545D01*
X57088833Y-66462062D01*
X57084710Y-66467522D01*
X57075930Y-66487151D01*
X57059058Y-66512401D01*
X56979870Y-66703579D01*
X56979868Y-66703587D01*
X56939500Y-66906530D01*
X56939500Y-67113469D01*
X56966023Y-67246809D01*
X56959796Y-67316401D01*
X56916933Y-67371578D01*
X56851043Y-67394822D01*
X56844406Y-67395000D01*
X56740000Y-67395000D01*
X56740000Y-70421000D01*
X56720315Y-70488039D01*
X56667511Y-70533794D01*
X56616000Y-70545000D01*
X56364000Y-70545000D01*
X56296961Y-70525315D01*
X56251206Y-70472511D01*
X56240000Y-70421000D01*
X56240000Y-67395000D01*
X56027730Y-67395000D01*
X55960691Y-67375315D01*
X55940049Y-67358681D01*
X55883657Y-67302289D01*
X55883656Y-67302288D01*
X55790888Y-67245069D01*
X55734336Y-67210187D01*
X55734331Y-67210185D01*
X55732862Y-67209698D01*
X55567797Y-67155001D01*
X55567795Y-67155000D01*
X55465010Y-67144500D01*
X54514998Y-67144500D01*
X54514980Y-67144501D01*
X54412203Y-67155000D01*
X54412200Y-67155001D01*
X54245668Y-67210185D01*
X54245663Y-67210187D01*
X54096342Y-67302289D01*
X53972289Y-67426342D01*
X53880187Y-67575663D01*
X53880185Y-67575668D01*
X53857217Y-67644981D01*
X53825001Y-67742203D01*
X53825001Y-67742204D01*
X53825000Y-67742204D01*
X53814500Y-67844983D01*
X53814500Y-68048817D01*
X53794815Y-68115856D01*
X53742011Y-68161611D01*
X53672853Y-68171555D01*
X53621610Y-68151920D01*
X53542915Y-68099338D01*
X53497598Y-68069059D01*
X53306420Y-67989870D01*
X53306412Y-67989868D01*
X53103469Y-67949500D01*
X53103465Y-67949500D01*
X52896535Y-67949500D01*
X52896530Y-67949500D01*
X52693587Y-67989868D01*
X52693579Y-67989870D01*
X52502403Y-68069058D01*
X52330342Y-68184024D01*
X52184024Y-68330342D01*
X52069058Y-68502403D01*
X51989870Y-68693579D01*
X51989868Y-68693587D01*
X51949500Y-68896530D01*
X51949500Y-69103469D01*
X51989868Y-69306412D01*
X51989870Y-69306420D01*
X52039628Y-69426547D01*
X52069059Y-69497598D01*
X52184022Y-69669653D01*
X52184024Y-69669656D01*
X52184025Y-69669658D01*
X52330342Y-69815975D01*
X52330345Y-69815977D01*
X52502402Y-69930941D01*
X52502408Y-69930943D01*
X52502411Y-69930945D01*
X52502862Y-69931132D01*
X52503267Y-69931402D01*
X52507773Y-69933811D01*
X52507535Y-69934254D01*
X52543089Y-69958011D01*
X52582214Y-69997136D01*
X52582218Y-69997139D01*
X52746079Y-70106628D01*
X52746092Y-70106635D01*
X52874833Y-70159961D01*
X52917744Y-70177735D01*
X52928164Y-70182051D01*
X53024812Y-70201275D01*
X53073135Y-70210887D01*
X53121458Y-70220500D01*
X53121459Y-70220500D01*
X53121460Y-70220500D01*
X53318540Y-70220500D01*
X53690501Y-70220500D01*
X53757540Y-70240185D01*
X53803295Y-70292989D01*
X53814501Y-70344500D01*
X53814501Y-70595018D01*
X53825000Y-70697796D01*
X53825001Y-70697799D01*
X53880186Y-70864333D01*
X53880186Y-70864334D01*
X53889791Y-70879907D01*
X53908229Y-70947300D01*
X53889791Y-71010093D01*
X53880186Y-71025665D01*
X53880186Y-71025666D01*
X53825001Y-71192203D01*
X53825001Y-71192204D01*
X53825000Y-71192204D01*
X53814500Y-71294983D01*
X53814500Y-74945001D01*
X53814501Y-74945018D01*
X53825000Y-75047796D01*
X53825001Y-75047799D01*
X53880185Y-75214331D01*
X53880187Y-75214336D01*
X53972289Y-75363657D01*
X54022766Y-75414134D01*
X54056251Y-75475457D01*
X54051267Y-75545149D01*
X54049646Y-75549268D01*
X53989870Y-75693579D01*
X53989868Y-75693587D01*
X53949500Y-75896530D01*
X53949500Y-76103469D01*
X53989868Y-76306412D01*
X53989870Y-76306420D01*
X54043032Y-76434765D01*
X54069059Y-76497598D01*
X54097724Y-76540499D01*
X54184024Y-76669657D01*
X54330342Y-76815975D01*
X54330345Y-76815977D01*
X54502402Y-76930941D01*
X54693580Y-77010130D01*
X54896530Y-77050499D01*
X54896534Y-77050500D01*
X54896535Y-77050500D01*
X55103466Y-77050500D01*
X55103467Y-77050499D01*
X55306420Y-77010130D01*
X55497598Y-76930941D01*
X55669655Y-76815977D01*
X55815977Y-76669655D01*
X55930941Y-76497598D01*
X56010130Y-76306420D01*
X56050500Y-76103465D01*
X56050500Y-75896535D01*
X56010130Y-75693580D01*
X55957472Y-75566453D01*
X55950003Y-75496983D01*
X55981278Y-75434504D01*
X56041367Y-75398852D01*
X56072033Y-75395000D01*
X56240000Y-75395000D01*
X56240000Y-71469000D01*
X56259685Y-71401961D01*
X56312489Y-71356206D01*
X56364000Y-71345000D01*
X56616000Y-71345000D01*
X56683039Y-71364685D01*
X56728794Y-71417489D01*
X56740000Y-71469000D01*
X56740000Y-75395000D01*
X56927967Y-75395000D01*
X56995006Y-75414685D01*
X57040761Y-75467489D01*
X57050705Y-75536647D01*
X57042528Y-75566453D01*
X56989870Y-75693579D01*
X56989868Y-75693587D01*
X56949500Y-75896530D01*
X56949500Y-76103469D01*
X56989868Y-76306412D01*
X56989870Y-76306420D01*
X57043032Y-76434765D01*
X57069059Y-76497598D01*
X57097724Y-76540499D01*
X57184024Y-76669657D01*
X57330342Y-76815975D01*
X57330345Y-76815977D01*
X57502402Y-76930941D01*
X57693580Y-77010130D01*
X57896530Y-77050499D01*
X57896534Y-77050500D01*
X57896535Y-77050500D01*
X58103466Y-77050500D01*
X58103467Y-77050499D01*
X58306420Y-77010130D01*
X58469166Y-76942718D01*
X58538635Y-76935249D01*
X58601115Y-76966524D01*
X58619720Y-76988387D01*
X58712861Y-77127782D01*
X58852218Y-77267139D01*
X58852220Y-77267140D01*
X58859286Y-77274206D01*
X58859285Y-77274206D01*
X58859289Y-77274209D01*
X59862216Y-78277138D01*
X59865273Y-78279647D01*
X59866443Y-78281365D01*
X59866526Y-78281448D01*
X59866510Y-78281463D01*
X59904607Y-78337393D01*
X59906478Y-78407238D01*
X59870290Y-78467006D01*
X59807534Y-78497722D01*
X59786608Y-78499500D01*
X37002706Y-78499500D01*
X36997297Y-78499382D01*
X36613249Y-78482614D01*
X36602473Y-78481671D01*
X36224042Y-78431849D01*
X36213389Y-78429971D01*
X35840727Y-78347354D01*
X35830278Y-78344554D01*
X35466244Y-78229775D01*
X35456078Y-78226075D01*
X35103427Y-78080002D01*
X35093623Y-78075430D01*
X34755057Y-77899183D01*
X34745689Y-77893775D01*
X34423755Y-77688681D01*
X34414894Y-77682476D01*
X34112069Y-77450110D01*
X34103782Y-77443156D01*
X33822364Y-77185284D01*
X33814715Y-77177635D01*
X33556843Y-76896217D01*
X33549889Y-76887930D01*
X33493921Y-76814991D01*
X33317523Y-76585105D01*
X33311318Y-76576244D01*
X33269199Y-76510131D01*
X33106223Y-76254309D01*
X33100816Y-76244942D01*
X33089873Y-76223920D01*
X32924566Y-75906369D01*
X32919997Y-75896572D01*
X32919982Y-75896535D01*
X32773920Y-75543911D01*
X32770224Y-75533755D01*
X32765572Y-75519000D01*
X32655442Y-75169710D01*
X32652648Y-75159284D01*
X32570025Y-74786597D01*
X32568152Y-74775971D01*
X32518326Y-74397506D01*
X32517386Y-74386771D01*
X32500618Y-74002702D01*
X32500500Y-73997293D01*
X32500500Y-73818234D01*
X33300000Y-73818234D01*
X33300000Y-74181765D01*
X33335632Y-74543556D01*
X33406550Y-74900090D01*
X33406553Y-74900101D01*
X33512086Y-75247997D01*
X33651207Y-75583864D01*
X33651209Y-75583869D01*
X33822570Y-75904462D01*
X33822581Y-75904480D01*
X34024551Y-76206750D01*
X34211678Y-76434765D01*
X34211679Y-76434766D01*
X35705747Y-74940697D01*
X35779588Y-75042330D01*
X35957670Y-75220412D01*
X36059301Y-75294251D01*
X34565232Y-76788319D01*
X34565233Y-76788320D01*
X34793249Y-76975448D01*
X35095519Y-77177418D01*
X35095537Y-77177429D01*
X35416130Y-77348790D01*
X35416135Y-77348792D01*
X35752002Y-77487913D01*
X36099898Y-77593446D01*
X36099909Y-77593449D01*
X36456443Y-77664367D01*
X36818234Y-77700000D01*
X37181766Y-77700000D01*
X37543556Y-77664367D01*
X37900090Y-77593449D01*
X37900101Y-77593446D01*
X38247997Y-77487913D01*
X38583864Y-77348792D01*
X38583869Y-77348790D01*
X38904462Y-77177429D01*
X38904480Y-77177418D01*
X39206736Y-76975457D01*
X39206750Y-76975447D01*
X39434765Y-76788320D01*
X39434766Y-76788319D01*
X37940698Y-75294251D01*
X38042330Y-75220412D01*
X38220412Y-75042330D01*
X38294251Y-74940698D01*
X39788319Y-76434766D01*
X39788320Y-76434765D01*
X39975447Y-76206750D01*
X39975457Y-76206736D01*
X40177418Y-75904480D01*
X40177429Y-75904462D01*
X40348790Y-75583869D01*
X40348792Y-75583864D01*
X40487913Y-75247997D01*
X40593446Y-74900101D01*
X40593449Y-74900090D01*
X40664367Y-74543556D01*
X40700000Y-74181765D01*
X40700000Y-73818234D01*
X40664367Y-73456443D01*
X40593449Y-73099909D01*
X40593446Y-73099898D01*
X40487913Y-72752002D01*
X40348792Y-72416135D01*
X40348790Y-72416130D01*
X40177429Y-72095537D01*
X40177418Y-72095519D01*
X39975448Y-71793249D01*
X39788320Y-71565233D01*
X39788319Y-71565232D01*
X38294251Y-73059300D01*
X38220412Y-72957670D01*
X38042330Y-72779588D01*
X37940698Y-72705748D01*
X39434766Y-71211679D01*
X39434765Y-71211678D01*
X39206750Y-71024551D01*
X38904480Y-70822581D01*
X38904462Y-70822570D01*
X38583869Y-70651209D01*
X38583864Y-70651207D01*
X38247997Y-70512086D01*
X37900101Y-70406553D01*
X37900090Y-70406550D01*
X37543556Y-70335632D01*
X37181766Y-70300000D01*
X36818234Y-70300000D01*
X36456443Y-70335632D01*
X36099909Y-70406550D01*
X36099898Y-70406553D01*
X35752002Y-70512086D01*
X35416135Y-70651207D01*
X35416130Y-70651209D01*
X35095537Y-70822570D01*
X35095519Y-70822581D01*
X34793258Y-71024545D01*
X34793254Y-71024548D01*
X34565233Y-71211679D01*
X34565233Y-71211680D01*
X36059301Y-72705748D01*
X35957670Y-72779588D01*
X35779588Y-72957670D01*
X35705748Y-73059301D01*
X34211680Y-71565233D01*
X34211679Y-71565233D01*
X34024548Y-71793254D01*
X34024545Y-71793258D01*
X33822581Y-72095519D01*
X33822570Y-72095537D01*
X33651209Y-72416130D01*
X33651207Y-72416135D01*
X33512086Y-72752002D01*
X33406553Y-73099898D01*
X33406550Y-73099909D01*
X33335632Y-73456443D01*
X33300000Y-73818234D01*
X32500500Y-73818234D01*
X32500500Y-46816966D01*
X42199500Y-46816966D01*
X42199500Y-50533028D01*
X42199501Y-50533034D01*
X42210113Y-50652415D01*
X42266089Y-50848045D01*
X42266090Y-50848048D01*
X42266091Y-50848049D01*
X42360302Y-51028407D01*
X42360304Y-51028409D01*
X42488890Y-51186109D01*
X42554544Y-51239642D01*
X42646593Y-51314698D01*
X42826951Y-51408909D01*
X43022582Y-51464886D01*
X43141963Y-51475500D01*
X45918036Y-51475499D01*
X46037418Y-51464886D01*
X46233049Y-51408909D01*
X46413407Y-51314698D01*
X46571109Y-51186109D01*
X46699698Y-51028407D01*
X46751176Y-50929856D01*
X46799660Y-50879552D01*
X46867648Y-50863444D01*
X46933551Y-50886650D01*
X46948764Y-50899589D01*
X46950092Y-50900917D01*
X46950099Y-50900923D01*
X47092483Y-51010178D01*
X47192466Y-51086897D01*
X47362506Y-51185070D01*
X47457027Y-51239642D01*
X47457032Y-51239644D01*
X47457035Y-51239646D01*
X47457039Y-51239647D01*
X47457044Y-51239650D01*
X47546555Y-51276726D01*
X47739278Y-51356555D01*
X48034367Y-51435624D01*
X48256623Y-51464885D01*
X48337235Y-51475498D01*
X48337251Y-51475500D01*
X48337258Y-51475500D01*
X48642742Y-51475500D01*
X48642749Y-51475500D01*
X48945633Y-51435624D01*
X49240722Y-51356555D01*
X49522965Y-51239646D01*
X49787534Y-51086897D01*
X50029902Y-50900922D01*
X50245922Y-50684902D01*
X50431897Y-50442534D01*
X50507470Y-50311636D01*
X50558033Y-50263425D01*
X50626640Y-50250201D01*
X50691505Y-50276169D01*
X50713811Y-50300266D01*
X50714360Y-50299845D01*
X50882818Y-50519382D01*
X50882826Y-50519391D01*
X51075609Y-50712174D01*
X51075617Y-50712181D01*
X51291933Y-50878168D01*
X51528062Y-51014496D01*
X51528072Y-51014500D01*
X51779970Y-51118840D01*
X52043344Y-51189411D01*
X52200000Y-51210034D01*
X52200000Y-49491480D01*
X52202064Y-49492335D01*
X52366282Y-49525000D01*
X52533718Y-49525000D01*
X52697936Y-49492335D01*
X52700000Y-49491480D01*
X52700000Y-51210033D01*
X52856655Y-51189411D01*
X53120029Y-51118840D01*
X53371927Y-51014500D01*
X53371937Y-51014496D01*
X53608066Y-50878168D01*
X53824382Y-50712181D01*
X53824391Y-50712174D01*
X54017174Y-50519391D01*
X54017181Y-50519382D01*
X54183168Y-50303066D01*
X54319496Y-50066937D01*
X54319500Y-50066927D01*
X54423840Y-49815029D01*
X54494411Y-49551655D01*
X54530000Y-49281330D01*
X54530000Y-48925000D01*
X53266480Y-48925000D01*
X53267335Y-48922936D01*
X53300000Y-48758718D01*
X53300000Y-48591282D01*
X53267335Y-48427064D01*
X53266480Y-48425000D01*
X54530000Y-48425000D01*
X54530000Y-48068669D01*
X54494411Y-47798344D01*
X54423840Y-47534970D01*
X54319500Y-47283072D01*
X54319496Y-47283062D01*
X54183168Y-47046933D01*
X54017181Y-46830617D01*
X54017174Y-46830609D01*
X53824391Y-46637826D01*
X53824382Y-46637818D01*
X53608066Y-46471831D01*
X53371937Y-46335503D01*
X53371927Y-46335499D01*
X53120029Y-46231159D01*
X52856655Y-46160588D01*
X52700000Y-46139963D01*
X52700000Y-47858519D01*
X52697936Y-47857665D01*
X52533718Y-47825000D01*
X52366282Y-47825000D01*
X52202064Y-47857665D01*
X52200000Y-47858519D01*
X52200000Y-46139963D01*
X52199999Y-46139963D01*
X52043344Y-46160588D01*
X51779970Y-46231159D01*
X51528072Y-46335499D01*
X51528062Y-46335503D01*
X51291933Y-46471831D01*
X51075617Y-46637818D01*
X50882818Y-46830617D01*
X50714360Y-47050155D01*
X50713185Y-47049253D01*
X50664292Y-47090077D01*
X50594963Y-47098753D01*
X50531950Y-47068570D01*
X50507470Y-47038363D01*
X50431897Y-46907466D01*
X50270848Y-46697582D01*
X50245923Y-46665099D01*
X50245917Y-46665092D01*
X50029907Y-46449082D01*
X50029900Y-46449076D01*
X49787538Y-46263106D01*
X49787537Y-46263105D01*
X49787534Y-46263103D01*
X49682050Y-46202202D01*
X49522972Y-46110357D01*
X49522955Y-46110349D01*
X49240722Y-45993445D01*
X48945630Y-45914375D01*
X48642756Y-45874500D01*
X48642749Y-45874500D01*
X48337251Y-45874500D01*
X48337243Y-45874500D01*
X48034369Y-45914375D01*
X47739277Y-45993445D01*
X47457044Y-46110349D01*
X47457027Y-46110357D01*
X47192461Y-46263106D01*
X46950099Y-46449076D01*
X46950095Y-46449079D01*
X46948754Y-46450421D01*
X46948256Y-46450692D01*
X46947045Y-46451755D01*
X46946807Y-46451483D01*
X46887427Y-46483898D01*
X46817736Y-46478906D01*
X46761807Y-46437028D01*
X46751177Y-46420145D01*
X46699698Y-46321593D01*
X46625959Y-46231159D01*
X46571109Y-46163890D01*
X46413409Y-46035304D01*
X46413410Y-46035304D01*
X46413407Y-46035302D01*
X46233049Y-45941091D01*
X46233048Y-45941090D01*
X46233045Y-45941089D01*
X46115829Y-45907550D01*
X46037418Y-45885114D01*
X46037415Y-45885113D01*
X46037413Y-45885113D01*
X45971102Y-45879217D01*
X45918037Y-45874500D01*
X45918032Y-45874500D01*
X43141971Y-45874500D01*
X43141965Y-45874500D01*
X43141964Y-45874501D01*
X43130316Y-45875536D01*
X43022584Y-45885113D01*
X42826954Y-45941089D01*
X42736772Y-45988196D01*
X42646593Y-46035302D01*
X42646591Y-46035303D01*
X42646590Y-46035304D01*
X42488890Y-46163890D01*
X42360304Y-46321590D01*
X42266089Y-46501954D01*
X42227212Y-46637826D01*
X42213994Y-46684024D01*
X42210114Y-46697583D01*
X42210113Y-46697586D01*
X42199500Y-46816966D01*
X32500500Y-46816966D01*
X32500500Y-39002706D01*
X32500618Y-38997297D01*
X32508436Y-38818234D01*
X33300000Y-38818234D01*
X33300000Y-39181765D01*
X33335632Y-39543556D01*
X33406550Y-39900090D01*
X33406553Y-39900101D01*
X33512086Y-40247997D01*
X33651207Y-40583864D01*
X33651209Y-40583869D01*
X33822570Y-40904462D01*
X33822581Y-40904480D01*
X34024551Y-41206750D01*
X34211678Y-41434765D01*
X34211679Y-41434766D01*
X35705747Y-39940697D01*
X35779588Y-40042330D01*
X35957670Y-40220412D01*
X36059301Y-40294251D01*
X34565232Y-41788319D01*
X34565233Y-41788320D01*
X34793249Y-41975448D01*
X35095519Y-42177418D01*
X35095537Y-42177429D01*
X35416130Y-42348790D01*
X35416135Y-42348792D01*
X35752002Y-42487913D01*
X36099898Y-42593446D01*
X36099909Y-42593449D01*
X36456443Y-42664367D01*
X36818234Y-42700000D01*
X37181766Y-42700000D01*
X37543556Y-42664367D01*
X37900090Y-42593449D01*
X37900101Y-42593446D01*
X38247997Y-42487913D01*
X38291238Y-42470002D01*
X55105000Y-42470002D01*
X55107893Y-42523988D01*
X55143442Y-42663259D01*
X55146371Y-42670330D01*
X55198106Y-42765076D01*
X55296049Y-42870277D01*
X55296051Y-42870278D01*
X55419672Y-42943629D01*
X55426732Y-42946554D01*
X55477728Y-42964544D01*
X55620001Y-42984999D01*
X55620003Y-42985000D01*
X56745000Y-42985000D01*
X56995000Y-42985000D01*
X58120002Y-42985000D01*
X58173988Y-42982106D01*
X58313259Y-42946557D01*
X58320330Y-42943628D01*
X58415076Y-42891893D01*
X58520277Y-42793950D01*
X58520278Y-42793948D01*
X58593629Y-42670327D01*
X58596554Y-42663267D01*
X58614544Y-42612271D01*
X58614544Y-42612270D01*
X58632905Y-42484564D01*
X58661929Y-42421008D01*
X58720707Y-42383233D01*
X58787737Y-42382436D01*
X58808435Y-42387982D01*
X59055435Y-42420500D01*
X59055442Y-42420500D01*
X59304558Y-42420500D01*
X59304565Y-42420500D01*
X59551565Y-42387982D01*
X59792207Y-42323502D01*
X60022373Y-42228164D01*
X60238127Y-42103599D01*
X60435776Y-41951938D01*
X60611938Y-41775776D01*
X60763599Y-41578127D01*
X60888164Y-41362373D01*
X60983502Y-41132207D01*
X61047982Y-40891565D01*
X61080500Y-40644565D01*
X61080500Y-40395441D01*
X69979500Y-40395441D01*
X69979500Y-40644558D01*
X69979501Y-40644575D01*
X70012017Y-40891561D01*
X70076498Y-41132207D01*
X70171830Y-41362361D01*
X70171837Y-41362376D01*
X70296400Y-41578126D01*
X70448060Y-41775774D01*
X70448066Y-41775781D01*
X70624218Y-41951933D01*
X70624225Y-41951939D01*
X70821873Y-42103599D01*
X71037623Y-42228162D01*
X71037638Y-42228169D01*
X71136825Y-42269253D01*
X71267793Y-42323502D01*
X71508435Y-42387982D01*
X71755435Y-42420500D01*
X71755442Y-42420500D01*
X72004558Y-42420500D01*
X72004565Y-42420500D01*
X72251565Y-42387982D01*
X72270482Y-42382913D01*
X72340330Y-42384576D01*
X72398192Y-42423738D01*
X72425697Y-42487966D01*
X72426396Y-42496049D01*
X72427893Y-42523988D01*
X72463442Y-42663259D01*
X72466371Y-42670330D01*
X72518106Y-42765076D01*
X72616049Y-42870277D01*
X72616051Y-42870278D01*
X72739672Y-42943629D01*
X72746732Y-42946554D01*
X72797728Y-42964544D01*
X72940001Y-42984999D01*
X72940003Y-42985000D01*
X74065000Y-42985000D01*
X74315000Y-42985000D01*
X75440002Y-42985000D01*
X75493988Y-42982106D01*
X75633259Y-42946557D01*
X75640330Y-42943628D01*
X75735076Y-42891893D01*
X75840277Y-42793950D01*
X75840278Y-42793948D01*
X75913629Y-42670327D01*
X75916554Y-42663267D01*
X75934544Y-42612271D01*
X75954998Y-42470002D01*
X90065000Y-42470002D01*
X90067893Y-42523988D01*
X90103442Y-42663259D01*
X90106371Y-42670330D01*
X90158106Y-42765076D01*
X90256049Y-42870277D01*
X90256051Y-42870278D01*
X90379672Y-42943629D01*
X90386732Y-42946554D01*
X90437728Y-42964544D01*
X90580001Y-42984999D01*
X90580003Y-42985000D01*
X91705000Y-42985000D01*
X91955000Y-42985000D01*
X93080002Y-42985000D01*
X93133988Y-42982106D01*
X93273259Y-42946557D01*
X93280330Y-42943628D01*
X93375076Y-42891893D01*
X93480277Y-42793950D01*
X93480278Y-42793948D01*
X93553629Y-42670327D01*
X93556554Y-42663267D01*
X93574544Y-42612271D01*
X93574544Y-42612270D01*
X93592905Y-42484564D01*
X93621929Y-42421008D01*
X93680707Y-42383233D01*
X93747737Y-42382436D01*
X93768435Y-42387982D01*
X94015435Y-42420500D01*
X94015442Y-42420500D01*
X94264558Y-42420500D01*
X94264565Y-42420500D01*
X94511565Y-42387982D01*
X94752207Y-42323502D01*
X94982373Y-42228164D01*
X95198127Y-42103599D01*
X95395776Y-41951938D01*
X95571938Y-41775776D01*
X95723599Y-41578127D01*
X95848164Y-41362373D01*
X95943502Y-41132207D01*
X96007982Y-40891565D01*
X96040500Y-40644565D01*
X96040500Y-40395441D01*
X104939500Y-40395441D01*
X104939500Y-40644558D01*
X104939501Y-40644575D01*
X104972017Y-40891561D01*
X105036498Y-41132207D01*
X105131830Y-41362361D01*
X105131837Y-41362376D01*
X105256400Y-41578126D01*
X105408060Y-41775774D01*
X105408066Y-41775781D01*
X105584218Y-41951933D01*
X105584225Y-41951939D01*
X105781873Y-42103599D01*
X105997623Y-42228162D01*
X105997638Y-42228169D01*
X106096825Y-42269253D01*
X106227793Y-42323502D01*
X106468435Y-42387982D01*
X106715435Y-42420500D01*
X106715442Y-42420500D01*
X106964558Y-42420500D01*
X106964565Y-42420500D01*
X107211565Y-42387982D01*
X107230482Y-42382913D01*
X107300330Y-42384576D01*
X107358192Y-42423738D01*
X107385697Y-42487966D01*
X107386396Y-42496049D01*
X107387893Y-42523988D01*
X107423442Y-42663259D01*
X107426371Y-42670330D01*
X107478106Y-42765076D01*
X107576049Y-42870277D01*
X107576051Y-42870278D01*
X107699672Y-42943629D01*
X107706732Y-42946554D01*
X107757728Y-42964544D01*
X107900001Y-42984999D01*
X107900003Y-42985000D01*
X109025000Y-42985000D01*
X109275000Y-42985000D01*
X110400002Y-42985000D01*
X110453988Y-42982106D01*
X110593259Y-42946557D01*
X110600330Y-42943628D01*
X110695076Y-42891893D01*
X110800277Y-42793950D01*
X110800278Y-42793948D01*
X110873629Y-42670327D01*
X110876554Y-42663267D01*
X110894544Y-42612271D01*
X110914999Y-42469998D01*
X110915000Y-42469997D01*
X110915000Y-40645000D01*
X109275000Y-40645000D01*
X109275000Y-42985000D01*
X109025000Y-42985000D01*
X109025000Y-40395000D01*
X109275000Y-40395000D01*
X110915000Y-40395000D01*
X110915000Y-38818234D01*
X111300000Y-38818234D01*
X111300000Y-39181765D01*
X111335632Y-39543556D01*
X111406550Y-39900090D01*
X111406553Y-39900101D01*
X111512086Y-40247997D01*
X111651207Y-40583864D01*
X111651209Y-40583869D01*
X111822570Y-40904462D01*
X111822581Y-40904480D01*
X112024551Y-41206750D01*
X112211678Y-41434765D01*
X112211679Y-41434766D01*
X113705747Y-39940697D01*
X113779588Y-40042330D01*
X113957670Y-40220412D01*
X114059301Y-40294251D01*
X112565232Y-41788319D01*
X112565233Y-41788320D01*
X112793249Y-41975448D01*
X113095519Y-42177418D01*
X113095537Y-42177429D01*
X113416130Y-42348790D01*
X113416135Y-42348792D01*
X113752002Y-42487913D01*
X114099898Y-42593446D01*
X114099909Y-42593449D01*
X114456443Y-42664367D01*
X114818234Y-42700000D01*
X115181766Y-42700000D01*
X115543556Y-42664367D01*
X115900090Y-42593449D01*
X115900101Y-42593446D01*
X116247997Y-42487913D01*
X116583864Y-42348792D01*
X116583869Y-42348790D01*
X116904462Y-42177429D01*
X116904480Y-42177418D01*
X117206736Y-41975457D01*
X117206750Y-41975447D01*
X117434765Y-41788320D01*
X117434766Y-41788319D01*
X115940698Y-40294251D01*
X116042330Y-40220412D01*
X116220412Y-40042330D01*
X116294251Y-39940698D01*
X117788319Y-41434766D01*
X117788320Y-41434765D01*
X117975447Y-41206750D01*
X117975457Y-41206736D01*
X118177418Y-40904480D01*
X118177429Y-40904462D01*
X118348790Y-40583869D01*
X118348792Y-40583864D01*
X118487913Y-40247997D01*
X118593446Y-39900101D01*
X118593449Y-39900090D01*
X118664367Y-39543556D01*
X118700000Y-39181765D01*
X118700000Y-38818234D01*
X118664367Y-38456443D01*
X118593449Y-38099909D01*
X118593446Y-38099898D01*
X118487913Y-37752002D01*
X118348792Y-37416135D01*
X118348790Y-37416130D01*
X118177429Y-37095537D01*
X118177418Y-37095519D01*
X117975448Y-36793249D01*
X117788320Y-36565233D01*
X117788319Y-36565232D01*
X116294251Y-38059300D01*
X116220412Y-37957670D01*
X116042330Y-37779588D01*
X115940698Y-37705748D01*
X117434766Y-36211679D01*
X117434765Y-36211678D01*
X117206750Y-36024551D01*
X116904480Y-35822581D01*
X116904462Y-35822570D01*
X116583869Y-35651209D01*
X116583864Y-35651207D01*
X116247997Y-35512086D01*
X115900101Y-35406553D01*
X115900090Y-35406550D01*
X115543556Y-35335632D01*
X115181766Y-35300000D01*
X114818234Y-35300000D01*
X114456443Y-35335632D01*
X114099909Y-35406550D01*
X114099898Y-35406553D01*
X113752002Y-35512086D01*
X113416135Y-35651207D01*
X113416130Y-35651209D01*
X113095537Y-35822570D01*
X113095519Y-35822581D01*
X112793258Y-36024545D01*
X112793254Y-36024548D01*
X112565233Y-36211679D01*
X112565233Y-36211680D01*
X114059301Y-37705748D01*
X113957670Y-37779588D01*
X113779588Y-37957670D01*
X113705748Y-38059301D01*
X112211680Y-36565233D01*
X112211679Y-36565233D01*
X112024548Y-36793254D01*
X112024545Y-36793258D01*
X111822581Y-37095519D01*
X111822570Y-37095537D01*
X111651209Y-37416130D01*
X111651207Y-37416135D01*
X111512086Y-37752002D01*
X111406553Y-38099898D01*
X111406550Y-38099909D01*
X111335632Y-38456443D01*
X111300000Y-38818234D01*
X110915000Y-38818234D01*
X110915000Y-38569997D01*
X110912106Y-38516011D01*
X110876557Y-38376740D01*
X110873628Y-38369669D01*
X110821893Y-38274923D01*
X110723950Y-38169722D01*
X110723948Y-38169721D01*
X110600327Y-38096370D01*
X110593267Y-38093445D01*
X110542271Y-38075455D01*
X110399998Y-38055000D01*
X109275000Y-38055000D01*
X109275000Y-40395000D01*
X109025000Y-40395000D01*
X109025000Y-38055000D01*
X107899998Y-38055000D01*
X107846011Y-38057893D01*
X107706740Y-38093442D01*
X107699669Y-38096371D01*
X107604923Y-38148106D01*
X107499722Y-38246049D01*
X107499721Y-38246051D01*
X107426370Y-38369672D01*
X107423445Y-38376732D01*
X107405455Y-38427728D01*
X107387094Y-38555435D01*
X107358069Y-38618991D01*
X107299291Y-38656765D01*
X107232265Y-38657564D01*
X107211569Y-38652019D01*
X107211561Y-38652017D01*
X106964575Y-38619501D01*
X106964570Y-38619500D01*
X106964565Y-38619500D01*
X106715435Y-38619500D01*
X106715429Y-38619500D01*
X106715424Y-38619501D01*
X106468438Y-38652017D01*
X106227792Y-38716498D01*
X105997638Y-38811830D01*
X105997623Y-38811837D01*
X105781873Y-38936400D01*
X105584225Y-39088060D01*
X105584218Y-39088066D01*
X105408066Y-39264218D01*
X105408060Y-39264225D01*
X105256400Y-39461873D01*
X105131837Y-39677623D01*
X105131830Y-39677638D01*
X105036498Y-39907792D01*
X104972017Y-40148438D01*
X104939501Y-40395424D01*
X104939500Y-40395441D01*
X96040500Y-40395441D01*
X96040500Y-40395435D01*
X96007982Y-40148435D01*
X95943502Y-39907793D01*
X95848164Y-39677627D01*
X95770758Y-39543556D01*
X95723599Y-39461873D01*
X95571939Y-39264225D01*
X95571933Y-39264218D01*
X95395781Y-39088066D01*
X95395774Y-39088060D01*
X95198126Y-38936400D01*
X94982376Y-38811837D01*
X94982361Y-38811830D01*
X94752207Y-38716498D01*
X94511580Y-38652022D01*
X94511565Y-38652018D01*
X94511564Y-38652017D01*
X94511561Y-38652017D01*
X94264575Y-38619501D01*
X94264570Y-38619500D01*
X94264565Y-38619500D01*
X94015435Y-38619500D01*
X94015429Y-38619500D01*
X94015424Y-38619501D01*
X93768438Y-38652017D01*
X93768416Y-38652022D01*
X93749516Y-38657086D01*
X93679667Y-38655422D01*
X93621805Y-38616259D01*
X93594302Y-38552030D01*
X93593603Y-38543946D01*
X93592106Y-38516011D01*
X93556557Y-38376740D01*
X93553628Y-38369669D01*
X93501893Y-38274923D01*
X93403950Y-38169722D01*
X93403948Y-38169721D01*
X93280327Y-38096370D01*
X93273267Y-38093445D01*
X93222271Y-38075455D01*
X93079998Y-38055000D01*
X91955000Y-38055000D01*
X91955000Y-42985000D01*
X91705000Y-42985000D01*
X91705000Y-40645000D01*
X90065000Y-40645000D01*
X90065000Y-42470002D01*
X75954998Y-42470002D01*
X75954999Y-42469998D01*
X75955000Y-42469997D01*
X75955000Y-40645000D01*
X74315000Y-40645000D01*
X74315000Y-42985000D01*
X74065000Y-42985000D01*
X74065000Y-40395000D01*
X74315000Y-40395000D01*
X75955000Y-40395000D01*
X75955000Y-38570006D01*
X75955000Y-38570001D01*
X90065000Y-38570001D01*
X90065000Y-40395000D01*
X91705000Y-40395000D01*
X91705000Y-38055000D01*
X90579998Y-38055000D01*
X90526011Y-38057893D01*
X90386740Y-38093442D01*
X90379669Y-38096371D01*
X90284923Y-38148106D01*
X90179722Y-38246049D01*
X90179721Y-38246051D01*
X90106370Y-38369672D01*
X90103445Y-38376732D01*
X90085455Y-38427728D01*
X90065000Y-38570001D01*
X75955000Y-38570001D01*
X75954999Y-38569988D01*
X75952106Y-38516011D01*
X75916557Y-38376740D01*
X75913628Y-38369669D01*
X75861893Y-38274923D01*
X75763950Y-38169722D01*
X75763948Y-38169721D01*
X75640327Y-38096370D01*
X75633267Y-38093445D01*
X75582271Y-38075455D01*
X75439998Y-38055000D01*
X74315000Y-38055000D01*
X74315000Y-40395000D01*
X74065000Y-40395000D01*
X74065000Y-38055000D01*
X72939998Y-38055000D01*
X72886011Y-38057893D01*
X72746740Y-38093442D01*
X72739669Y-38096371D01*
X72644923Y-38148106D01*
X72539722Y-38246049D01*
X72539721Y-38246051D01*
X72466370Y-38369672D01*
X72463445Y-38376732D01*
X72445455Y-38427728D01*
X72427094Y-38555435D01*
X72398069Y-38618991D01*
X72339291Y-38656765D01*
X72272265Y-38657564D01*
X72251569Y-38652019D01*
X72251561Y-38652017D01*
X72004575Y-38619501D01*
X72004570Y-38619500D01*
X72004565Y-38619500D01*
X71755435Y-38619500D01*
X71755429Y-38619500D01*
X71755424Y-38619501D01*
X71508438Y-38652017D01*
X71267792Y-38716498D01*
X71037638Y-38811830D01*
X71037623Y-38811837D01*
X70821873Y-38936400D01*
X70624225Y-39088060D01*
X70624218Y-39088066D01*
X70448066Y-39264218D01*
X70448060Y-39264225D01*
X70296400Y-39461873D01*
X70171837Y-39677623D01*
X70171830Y-39677638D01*
X70076498Y-39907792D01*
X70012017Y-40148438D01*
X69979501Y-40395424D01*
X69979500Y-40395441D01*
X61080500Y-40395441D01*
X61080500Y-40395435D01*
X61047982Y-40148435D01*
X60983502Y-39907793D01*
X60888164Y-39677627D01*
X60810758Y-39543556D01*
X60763599Y-39461873D01*
X60611939Y-39264225D01*
X60611933Y-39264218D01*
X60435781Y-39088066D01*
X60435774Y-39088060D01*
X60238126Y-38936400D01*
X60022376Y-38811837D01*
X60022361Y-38811830D01*
X59792207Y-38716498D01*
X59551580Y-38652022D01*
X59551565Y-38652018D01*
X59551564Y-38652017D01*
X59551561Y-38652017D01*
X59304575Y-38619501D01*
X59304570Y-38619500D01*
X59304565Y-38619500D01*
X59055435Y-38619500D01*
X59055429Y-38619500D01*
X59055424Y-38619501D01*
X58808438Y-38652017D01*
X58808416Y-38652022D01*
X58789516Y-38657086D01*
X58719667Y-38655422D01*
X58661805Y-38616259D01*
X58634302Y-38552030D01*
X58633603Y-38543946D01*
X58632106Y-38516011D01*
X58596557Y-38376740D01*
X58593628Y-38369669D01*
X58541893Y-38274923D01*
X58443950Y-38169722D01*
X58443948Y-38169721D01*
X58320327Y-38096370D01*
X58313267Y-38093445D01*
X58262271Y-38075455D01*
X58119998Y-38055000D01*
X56995000Y-38055000D01*
X56995000Y-42985000D01*
X56745000Y-42985000D01*
X56745000Y-40645000D01*
X55105000Y-40645000D01*
X55105000Y-42470002D01*
X38291238Y-42470002D01*
X38583864Y-42348792D01*
X38583869Y-42348790D01*
X38904462Y-42177429D01*
X38904480Y-42177418D01*
X39206736Y-41975457D01*
X39206750Y-41975447D01*
X39434765Y-41788320D01*
X39434766Y-41788319D01*
X37940698Y-40294251D01*
X38042330Y-40220412D01*
X38220412Y-40042330D01*
X38294251Y-39940698D01*
X39788319Y-41434766D01*
X39788320Y-41434765D01*
X39975447Y-41206750D01*
X39975457Y-41206736D01*
X40177418Y-40904480D01*
X40177429Y-40904462D01*
X40348790Y-40583869D01*
X40348792Y-40583864D01*
X40364400Y-40546185D01*
X40487913Y-40247997D01*
X40593446Y-39900101D01*
X40593449Y-39900090D01*
X40664367Y-39543556D01*
X40700000Y-39181765D01*
X40700000Y-38818234D01*
X40676312Y-38577725D01*
X40675551Y-38570001D01*
X55105000Y-38570001D01*
X55105000Y-40395000D01*
X56745000Y-40395000D01*
X56745000Y-38055000D01*
X55619998Y-38055000D01*
X55566011Y-38057893D01*
X55426740Y-38093442D01*
X55419669Y-38096371D01*
X55324923Y-38148106D01*
X55219722Y-38246049D01*
X55219721Y-38246051D01*
X55146370Y-38369672D01*
X55143445Y-38376732D01*
X55125455Y-38427728D01*
X55105000Y-38570001D01*
X40675551Y-38570001D01*
X40664367Y-38456443D01*
X40593449Y-38099909D01*
X40593446Y-38099898D01*
X40487913Y-37752002D01*
X40348792Y-37416135D01*
X40348790Y-37416130D01*
X40177429Y-37095537D01*
X40177418Y-37095519D01*
X39975448Y-36793249D01*
X39788320Y-36565233D01*
X39788319Y-36565232D01*
X38294251Y-38059300D01*
X38220412Y-37957670D01*
X38042330Y-37779588D01*
X37940698Y-37705748D01*
X39434766Y-36211679D01*
X39434765Y-36211678D01*
X39206750Y-36024551D01*
X38904480Y-35822581D01*
X38904462Y-35822570D01*
X38583869Y-35651209D01*
X38583864Y-35651207D01*
X38247997Y-35512086D01*
X37900101Y-35406553D01*
X37900090Y-35406550D01*
X37543556Y-35335632D01*
X37181766Y-35300000D01*
X36818234Y-35300000D01*
X36456443Y-35335632D01*
X36099909Y-35406550D01*
X36099898Y-35406553D01*
X35752002Y-35512086D01*
X35416135Y-35651207D01*
X35416130Y-35651209D01*
X35095537Y-35822570D01*
X35095519Y-35822581D01*
X34793258Y-36024545D01*
X34793254Y-36024548D01*
X34565233Y-36211679D01*
X34565233Y-36211680D01*
X36059301Y-37705748D01*
X35957670Y-37779588D01*
X35779588Y-37957670D01*
X35705748Y-38059301D01*
X34211680Y-36565233D01*
X34211679Y-36565233D01*
X34024548Y-36793254D01*
X34024545Y-36793258D01*
X33822581Y-37095519D01*
X33822570Y-37095537D01*
X33651209Y-37416130D01*
X33651207Y-37416135D01*
X33512086Y-37752002D01*
X33406553Y-38099898D01*
X33406550Y-38099909D01*
X33335632Y-38456443D01*
X33300000Y-38818234D01*
X32508436Y-38818234D01*
X32508715Y-38811836D01*
X32517386Y-38613228D01*
X32518326Y-38602495D01*
X32568152Y-38224025D01*
X32570025Y-38213405D01*
X32652649Y-37840709D01*
X32655440Y-37830295D01*
X32770230Y-37466227D01*
X32773917Y-37456095D01*
X32920003Y-37103412D01*
X32924561Y-37093638D01*
X33100822Y-36755045D01*
X33106217Y-36745700D01*
X33311325Y-36423744D01*
X33317515Y-36414905D01*
X33549896Y-36112060D01*
X33556834Y-36103791D01*
X33814726Y-35822352D01*
X33822352Y-35814726D01*
X34103791Y-35556834D01*
X34112060Y-35549896D01*
X34414905Y-35317515D01*
X34423744Y-35311325D01*
X34745700Y-35106217D01*
X34755045Y-35100822D01*
X35093638Y-34924561D01*
X35103412Y-34920003D01*
X35456095Y-34773917D01*
X35466227Y-34770230D01*
X35830295Y-34655440D01*
X35840709Y-34652649D01*
X36213405Y-34570025D01*
X36224025Y-34568152D01*
X36602495Y-34518326D01*
X36613226Y-34517386D01*
X36997297Y-34500617D01*
X37002706Y-34500500D01*
X37065892Y-34500500D01*
X114934108Y-34500500D01*
X114997294Y-34500500D01*
X115002702Y-34500617D01*
G37*
%TD.AperFunction*%
%TA.AperFunction,Conductor*%
G36*
X91437373Y-60405827D02*
G01*
X91456281Y-60406165D01*
X91484501Y-60419666D01*
X91486268Y-60420185D01*
X91488091Y-60421379D01*
X91502402Y-60430941D01*
X91693580Y-60510130D01*
X91896530Y-60550499D01*
X91896534Y-60550500D01*
X92038310Y-60550500D01*
X92105349Y-60570185D01*
X92151104Y-60622989D01*
X92161823Y-60663520D01*
X92162613Y-60672415D01*
X92218589Y-60868045D01*
X92218590Y-60868048D01*
X92218591Y-60868049D01*
X92312802Y-61048407D01*
X92343109Y-61085575D01*
X92441390Y-61206109D01*
X92519623Y-61269899D01*
X92599093Y-61334698D01*
X92779451Y-61428909D01*
X92975082Y-61484886D01*
X93094463Y-61495500D01*
X93341501Y-61495499D01*
X93408539Y-61515183D01*
X93454294Y-61567987D01*
X93465500Y-61619499D01*
X93465500Y-61895500D01*
X93445815Y-61962539D01*
X93393011Y-62008294D01*
X93341500Y-62019500D01*
X92776989Y-62019500D01*
X92776970Y-62019501D01*
X92698356Y-62025687D01*
X92515512Y-62074680D01*
X92346853Y-62160614D01*
X92199743Y-62279743D01*
X92080614Y-62426853D01*
X91994680Y-62595512D01*
X91945687Y-62778356D01*
X91945687Y-62778357D01*
X91939500Y-62856973D01*
X91939500Y-63283010D01*
X91939501Y-63283029D01*
X91945687Y-63361645D01*
X91986217Y-63512908D01*
X91986217Y-63577092D01*
X91945688Y-63728353D01*
X91945687Y-63728357D01*
X91939500Y-63806973D01*
X91939500Y-64233010D01*
X91939501Y-64233029D01*
X91945687Y-64311643D01*
X91945688Y-64311645D01*
X91994680Y-64494488D01*
X92007679Y-64520000D01*
X92080614Y-64663146D01*
X92129859Y-64723958D01*
X92199743Y-64810257D01*
X92242667Y-64845016D01*
X92346853Y-64929385D01*
X92457016Y-64985515D01*
X92507813Y-65033489D01*
X92524608Y-65101310D01*
X92502071Y-65167445D01*
X92447356Y-65210897D01*
X92400722Y-65220000D01*
X92192705Y-65220000D01*
X92192704Y-65220001D01*
X92192899Y-65222486D01*
X92238718Y-65380198D01*
X92322314Y-65521552D01*
X92322321Y-65521561D01*
X92438438Y-65637678D01*
X92438447Y-65637685D01*
X92575551Y-65718768D01*
X92623235Y-65769837D01*
X92635738Y-65838579D01*
X92609093Y-65903168D01*
X92551757Y-65943098D01*
X92512430Y-65949500D01*
X92396530Y-65949500D01*
X92193587Y-65989868D01*
X92193579Y-65989870D01*
X92002403Y-66069058D01*
X91830342Y-66184024D01*
X91684024Y-66330342D01*
X91569058Y-66502403D01*
X91489870Y-66693579D01*
X91489868Y-66693587D01*
X91449500Y-66896530D01*
X91449500Y-66896534D01*
X91449500Y-66896535D01*
X91449500Y-67103465D01*
X91463943Y-67176077D01*
X91464030Y-67176512D01*
X91457802Y-67246104D01*
X91447951Y-67265799D01*
X91380190Y-67375659D01*
X91380185Y-67375668D01*
X91363393Y-67426344D01*
X91325001Y-67542203D01*
X91325001Y-67542204D01*
X91325000Y-67542204D01*
X91314500Y-67644983D01*
X91314500Y-70395001D01*
X91314501Y-70395018D01*
X91325000Y-70497796D01*
X91325001Y-70497799D01*
X91380186Y-70664333D01*
X91380186Y-70664334D01*
X91389791Y-70679907D01*
X91408229Y-70747300D01*
X91389791Y-70810093D01*
X91380186Y-70825665D01*
X91362809Y-70878106D01*
X91325001Y-70992203D01*
X91325001Y-70992204D01*
X91325000Y-70992204D01*
X91314500Y-71094983D01*
X91314500Y-74745001D01*
X91314501Y-74745018D01*
X91325000Y-74847796D01*
X91325001Y-74847799D01*
X91380185Y-75014331D01*
X91380189Y-75014340D01*
X91455430Y-75136325D01*
X91473870Y-75203717D01*
X91471509Y-75225611D01*
X91461964Y-75273600D01*
X91442412Y-75371898D01*
X91439500Y-75386536D01*
X91439500Y-75593469D01*
X91479868Y-75796412D01*
X91479870Y-75796420D01*
X91525415Y-75906376D01*
X91559059Y-75987598D01*
X91595299Y-76041835D01*
X91674024Y-76159657D01*
X91820342Y-76305975D01*
X91820345Y-76305977D01*
X91992402Y-76420941D01*
X92183580Y-76500130D01*
X92368029Y-76536819D01*
X92386530Y-76540499D01*
X92386534Y-76540500D01*
X92386535Y-76540500D01*
X92593466Y-76540500D01*
X92593467Y-76540499D01*
X92796420Y-76500130D01*
X92987598Y-76420941D01*
X93159655Y-76305977D01*
X93305977Y-76159655D01*
X93420941Y-75987598D01*
X93500130Y-75796420D01*
X93540500Y-75593465D01*
X93540500Y-75386535D01*
X93540500Y-75386532D01*
X93540499Y-75386530D01*
X93531879Y-75343191D01*
X93538106Y-75273600D01*
X93580969Y-75218422D01*
X93646859Y-75195178D01*
X93653496Y-75195000D01*
X93740000Y-75195000D01*
X93740000Y-71269000D01*
X93759685Y-71201961D01*
X93812489Y-71156206D01*
X93864000Y-71145000D01*
X94116000Y-71145000D01*
X94183039Y-71164685D01*
X94228794Y-71217489D01*
X94240000Y-71269000D01*
X94240000Y-75195000D01*
X94338493Y-75195000D01*
X94405532Y-75214685D01*
X94451287Y-75267489D01*
X94461231Y-75336647D01*
X94460110Y-75343191D01*
X94449500Y-75396530D01*
X94449500Y-75603469D01*
X94489868Y-75806412D01*
X94489870Y-75806420D01*
X94569058Y-75997596D01*
X94684024Y-76169657D01*
X94830342Y-76315975D01*
X94830345Y-76315977D01*
X95002402Y-76430941D01*
X95193580Y-76510130D01*
X95396530Y-76550499D01*
X95396534Y-76550500D01*
X95396535Y-76550500D01*
X95603466Y-76550500D01*
X95603466Y-76550499D01*
X95709402Y-76529428D01*
X95740708Y-76523201D01*
X95810299Y-76529428D01*
X95865477Y-76572291D01*
X95888721Y-76638181D01*
X95872653Y-76706178D01*
X95852580Y-76732499D01*
X95621899Y-76963181D01*
X95560576Y-76996666D01*
X95534218Y-76999500D01*
X82965783Y-76999500D01*
X82898744Y-76979815D01*
X82878102Y-76963181D01*
X81274210Y-75359290D01*
X81267141Y-75352221D01*
X81267140Y-75352219D01*
X81136816Y-75221895D01*
X81103334Y-75160575D01*
X81100500Y-75134217D01*
X81100500Y-73125441D01*
X84039500Y-73125441D01*
X84039500Y-73374558D01*
X84039501Y-73374575D01*
X84072017Y-73621561D01*
X84136498Y-73862207D01*
X84231830Y-74092361D01*
X84231837Y-74092376D01*
X84356400Y-74308126D01*
X84508060Y-74505774D01*
X84508066Y-74505781D01*
X84684218Y-74681933D01*
X84684225Y-74681939D01*
X84881873Y-74833599D01*
X85097623Y-74958162D01*
X85097638Y-74958169D01*
X85196825Y-74999253D01*
X85327793Y-75053502D01*
X85568435Y-75117982D01*
X85815435Y-75150500D01*
X85815442Y-75150500D01*
X86064558Y-75150500D01*
X86064565Y-75150500D01*
X86311565Y-75117982D01*
X86330482Y-75112913D01*
X86400330Y-75114576D01*
X86458192Y-75153738D01*
X86485697Y-75217966D01*
X86486396Y-75226049D01*
X86487893Y-75253988D01*
X86523442Y-75393259D01*
X86526371Y-75400330D01*
X86578106Y-75495076D01*
X86676049Y-75600277D01*
X86676051Y-75600278D01*
X86799672Y-75673629D01*
X86806732Y-75676554D01*
X86857728Y-75694544D01*
X87000001Y-75714999D01*
X87000003Y-75715000D01*
X88125000Y-75715000D01*
X88375000Y-75715000D01*
X89500002Y-75715000D01*
X89553988Y-75712106D01*
X89693259Y-75676557D01*
X89700330Y-75673628D01*
X89795076Y-75621893D01*
X89900277Y-75523950D01*
X89900278Y-75523948D01*
X89973629Y-75400327D01*
X89976554Y-75393267D01*
X89994544Y-75342271D01*
X90014999Y-75199998D01*
X90015000Y-75199997D01*
X90015000Y-73375000D01*
X88375000Y-73375000D01*
X88375000Y-75715000D01*
X88125000Y-75715000D01*
X88125000Y-73125000D01*
X88375000Y-73125000D01*
X90015000Y-73125000D01*
X90015000Y-71299997D01*
X90012106Y-71246011D01*
X89976557Y-71106740D01*
X89973628Y-71099669D01*
X89921893Y-71004923D01*
X89823950Y-70899722D01*
X89823948Y-70899721D01*
X89700327Y-70826370D01*
X89693267Y-70823445D01*
X89642271Y-70805455D01*
X89499998Y-70785000D01*
X88375000Y-70785000D01*
X88375000Y-73125000D01*
X88125000Y-73125000D01*
X88125000Y-70785000D01*
X86999998Y-70785000D01*
X86946011Y-70787893D01*
X86806740Y-70823442D01*
X86799669Y-70826371D01*
X86704923Y-70878106D01*
X86599722Y-70976049D01*
X86599721Y-70976051D01*
X86526370Y-71099672D01*
X86523445Y-71106732D01*
X86505455Y-71157728D01*
X86487094Y-71285435D01*
X86458069Y-71348991D01*
X86399291Y-71386765D01*
X86332265Y-71387564D01*
X86311569Y-71382019D01*
X86311561Y-71382017D01*
X86064575Y-71349501D01*
X86064570Y-71349500D01*
X86064565Y-71349500D01*
X85815435Y-71349500D01*
X85815429Y-71349500D01*
X85815424Y-71349501D01*
X85568438Y-71382017D01*
X85327792Y-71446498D01*
X85097638Y-71541830D01*
X85097623Y-71541837D01*
X84881873Y-71666400D01*
X84684225Y-71818060D01*
X84684218Y-71818066D01*
X84508066Y-71994218D01*
X84508060Y-71994225D01*
X84356400Y-72191873D01*
X84231837Y-72407623D01*
X84231830Y-72407638D01*
X84136498Y-72637792D01*
X84072017Y-72878438D01*
X84039501Y-73125424D01*
X84039500Y-73125441D01*
X81100500Y-73125441D01*
X81100500Y-66354334D01*
X81108842Y-66312397D01*
X81108361Y-66312251D01*
X81109845Y-66307357D01*
X81109941Y-66306877D01*
X81110128Y-66306424D01*
X81110130Y-66306420D01*
X81150500Y-66103465D01*
X81150500Y-65896535D01*
X81115880Y-65722486D01*
X81110152Y-65693690D01*
X81116379Y-65624099D01*
X81159242Y-65568921D01*
X81225132Y-65545677D01*
X81231769Y-65545499D01*
X81475002Y-65545499D01*
X81475008Y-65545499D01*
X81577797Y-65534999D01*
X81590993Y-65530625D01*
X81660819Y-65528221D01*
X81668988Y-65530619D01*
X81682203Y-65534999D01*
X81784991Y-65545500D01*
X82495008Y-65545499D01*
X82495016Y-65545498D01*
X82495019Y-65545498D01*
X82518896Y-65543058D01*
X82597797Y-65534999D01*
X82610993Y-65530625D01*
X82680819Y-65528221D01*
X82688988Y-65530619D01*
X82702203Y-65534999D01*
X82804991Y-65545500D01*
X83515008Y-65545499D01*
X83515016Y-65545498D01*
X83515019Y-65545498D01*
X83571302Y-65539748D01*
X83617797Y-65534999D01*
X83784334Y-65479814D01*
X83933656Y-65387712D01*
X84057712Y-65263656D01*
X84149814Y-65114334D01*
X84204999Y-64947797D01*
X84215500Y-64845009D01*
X84215499Y-61694992D01*
X84215355Y-61693587D01*
X84204999Y-61592203D01*
X84204998Y-61592200D01*
X84149814Y-61425666D01*
X84132450Y-61397515D01*
X84078961Y-61310794D01*
X84060500Y-61245698D01*
X84060500Y-61014361D01*
X84080185Y-60947322D01*
X84096819Y-60926680D01*
X84586680Y-60436819D01*
X84648003Y-60403334D01*
X84674361Y-60400500D01*
X91419229Y-60400500D01*
X91437373Y-60405827D01*
G37*
%TD.AperFunction*%
%TA.AperFunction,Conductor*%
G36*
X105413257Y-65999426D02*
G01*
X105471119Y-66038589D01*
X105498623Y-66102817D01*
X105499500Y-66117538D01*
X105499500Y-75284217D01*
X105479815Y-75351256D01*
X105463181Y-75371898D01*
X103871899Y-76963181D01*
X103810576Y-76996666D01*
X103784218Y-76999500D01*
X98124500Y-76999500D01*
X98057461Y-76979815D01*
X98011706Y-76927011D01*
X98000500Y-76875500D01*
X98000500Y-75319000D01*
X98020185Y-75251961D01*
X98072989Y-75206206D01*
X98124500Y-75195000D01*
X98240000Y-75195000D01*
X98240000Y-72993432D01*
X98245355Y-72975192D01*
X98245726Y-72956187D01*
X98257112Y-72935153D01*
X98259685Y-72926393D01*
X98261010Y-72924374D01*
X98264844Y-72918655D01*
X98265464Y-72918036D01*
X98323413Y-72831309D01*
X98364013Y-72770547D01*
X98415566Y-72646086D01*
X98431895Y-72606666D01*
X98466500Y-72432692D01*
X98466500Y-72255308D01*
X98466500Y-71269000D01*
X98469050Y-71260314D01*
X98467762Y-71251353D01*
X98478740Y-71227312D01*
X98486185Y-71201961D01*
X98493025Y-71196033D01*
X98496787Y-71187797D01*
X98519021Y-71173507D01*
X98538989Y-71156206D01*
X98549503Y-71153918D01*
X98555565Y-71150023D01*
X98590500Y-71145000D01*
X98616000Y-71145000D01*
X98683039Y-71164685D01*
X98728794Y-71217489D01*
X98740000Y-71269000D01*
X98740000Y-75195000D01*
X98952270Y-75195000D01*
X99019309Y-75214685D01*
X99039951Y-75231319D01*
X99096344Y-75287712D01*
X99245666Y-75379814D01*
X99412203Y-75434999D01*
X99514991Y-75445500D01*
X100465008Y-75445499D01*
X100465016Y-75445498D01*
X100465019Y-75445498D01*
X100521302Y-75439748D01*
X100567797Y-75434999D01*
X100700996Y-75390860D01*
X100770824Y-75388459D01*
X100779000Y-75390859D01*
X100912203Y-75434999D01*
X101014991Y-75445500D01*
X101965008Y-75445499D01*
X101965016Y-75445498D01*
X101965019Y-75445498D01*
X102021302Y-75439748D01*
X102067797Y-75434999D01*
X102200996Y-75390860D01*
X102270824Y-75388459D01*
X102279000Y-75390859D01*
X102412203Y-75434999D01*
X102514991Y-75445500D01*
X103465008Y-75445499D01*
X103465016Y-75445498D01*
X103465019Y-75445498D01*
X103521302Y-75439748D01*
X103567797Y-75434999D01*
X103734334Y-75379814D01*
X103883656Y-75287712D01*
X104007712Y-75163656D01*
X104099814Y-75014334D01*
X104154999Y-74847797D01*
X104165500Y-74745009D01*
X104165499Y-73069360D01*
X104185184Y-73002322D01*
X104201818Y-72981680D01*
X104699461Y-72484038D01*
X104699464Y-72484035D01*
X104724821Y-72446086D01*
X104750511Y-72407638D01*
X104798013Y-72336547D01*
X104846066Y-72220536D01*
X104865895Y-72172666D01*
X104900500Y-71998691D01*
X104900500Y-71821308D01*
X104900500Y-69941309D01*
X104899009Y-69933811D01*
X104892383Y-69900499D01*
X104892383Y-69900498D01*
X104879048Y-69833460D01*
X104865895Y-69767334D01*
X104800339Y-69609071D01*
X104798695Y-69604474D01*
X104699465Y-69455966D01*
X104670045Y-69426546D01*
X104574035Y-69330536D01*
X104201818Y-68958318D01*
X104168333Y-68896995D01*
X104165499Y-68870637D01*
X104165499Y-67644998D01*
X104165498Y-67644981D01*
X104154999Y-67542203D01*
X104154998Y-67542200D01*
X104116606Y-67426342D01*
X104099814Y-67375666D01*
X104007712Y-67226344D01*
X103926819Y-67145451D01*
X103912115Y-67118523D01*
X103895523Y-67092705D01*
X103894631Y-67086504D01*
X103893334Y-67084128D01*
X103890500Y-67057770D01*
X103890500Y-67031860D01*
X103910185Y-66964821D01*
X103926815Y-66944183D01*
X104814180Y-66056817D01*
X104875503Y-66023333D01*
X104901861Y-66020499D01*
X105203011Y-66020499D01*
X105203020Y-66020499D01*
X105281645Y-66014312D01*
X105343407Y-65997763D01*
X105413257Y-65999426D01*
G37*
%TD.AperFunction*%
%TA.AperFunction,Conductor*%
G36*
X66095703Y-53369648D02*
G01*
X66102181Y-53375680D01*
X72550536Y-59824035D01*
X72622501Y-59896000D01*
X72675966Y-59949465D01*
X72823446Y-60048009D01*
X72823450Y-60048011D01*
X72823453Y-60048013D01*
X72870753Y-60067605D01*
X72870754Y-60067606D01*
X72870755Y-60067606D01*
X72987334Y-60115895D01*
X73138685Y-60146000D01*
X73161303Y-60150499D01*
X73161307Y-60150500D01*
X73161308Y-60150500D01*
X73161309Y-60150500D01*
X75825500Y-60150500D01*
X75892539Y-60170185D01*
X75938294Y-60222989D01*
X75949500Y-60274500D01*
X75949500Y-60353469D01*
X75989868Y-60556412D01*
X75989870Y-60556420D01*
X76034232Y-60663520D01*
X76069059Y-60747598D01*
X76069120Y-60747690D01*
X76078601Y-60761878D01*
X76099480Y-60828555D01*
X76099500Y-60830770D01*
X76099500Y-61310548D01*
X76089664Y-61358948D01*
X76085985Y-61367625D01*
X76050186Y-61425666D01*
X76010125Y-61546560D01*
X76008164Y-61551187D01*
X75989075Y-61574477D01*
X75971933Y-61599236D01*
X75967154Y-61601222D01*
X75963874Y-61605225D01*
X75935227Y-61614496D01*
X75907417Y-61626059D01*
X75902321Y-61625146D01*
X75897399Y-61626740D01*
X75868287Y-61619052D01*
X75838641Y-61613744D01*
X75834848Y-61610222D01*
X75829845Y-61608901D01*
X75809508Y-61586691D01*
X75787442Y-61566201D01*
X75786023Y-61561044D01*
X75782660Y-61557371D01*
X75778739Y-61534563D01*
X75770000Y-61502787D01*
X75770000Y-61245000D01*
X75667155Y-61245000D01*
X75607627Y-61251401D01*
X75607620Y-61251403D01*
X75472913Y-61301645D01*
X75472906Y-61301649D01*
X75357812Y-61387809D01*
X75357809Y-61387812D01*
X75271649Y-61502906D01*
X75271645Y-61502913D01*
X75221403Y-61637620D01*
X75221401Y-61637627D01*
X75215000Y-61697155D01*
X75215000Y-63020000D01*
X75769999Y-63020000D01*
X75772818Y-63017181D01*
X75834140Y-62983695D01*
X75903832Y-62988679D01*
X75959766Y-63030549D01*
X75984184Y-63096013D01*
X75984500Y-63104861D01*
X75984500Y-63435138D01*
X75964815Y-63502177D01*
X75912011Y-63547932D01*
X75842853Y-63557876D01*
X75779297Y-63528851D01*
X75772819Y-63522819D01*
X75770000Y-63520000D01*
X75215000Y-63520000D01*
X75215000Y-64842844D01*
X75221401Y-64902372D01*
X75221403Y-64902379D01*
X75271645Y-65037086D01*
X75271649Y-65037093D01*
X75357809Y-65152187D01*
X75357812Y-65152190D01*
X75472906Y-65238350D01*
X75472913Y-65238354D01*
X75607620Y-65288596D01*
X75607627Y-65288598D01*
X75667155Y-65294999D01*
X75667172Y-65295000D01*
X75770000Y-65295000D01*
X75770000Y-65037213D01*
X75789685Y-64970174D01*
X75842489Y-64924419D01*
X75911647Y-64914475D01*
X75975203Y-64943500D01*
X76011705Y-64998208D01*
X76050186Y-65114334D01*
X76142288Y-65263656D01*
X76266344Y-65387712D01*
X76415666Y-65479814D01*
X76582203Y-65534999D01*
X76684991Y-65545500D01*
X77395008Y-65545499D01*
X77395016Y-65545498D01*
X77395019Y-65545498D01*
X77418896Y-65543058D01*
X77497797Y-65534999D01*
X77510993Y-65530625D01*
X77580819Y-65528221D01*
X77588988Y-65530619D01*
X77602203Y-65534999D01*
X77704991Y-65545500D01*
X78415008Y-65545499D01*
X78415016Y-65545498D01*
X78415019Y-65545498D01*
X78438896Y-65543058D01*
X78517797Y-65534999D01*
X78530993Y-65530625D01*
X78600819Y-65528221D01*
X78608988Y-65530619D01*
X78622203Y-65534999D01*
X78724991Y-65545500D01*
X78968230Y-65545499D01*
X79035269Y-65565183D01*
X79081024Y-65617987D01*
X79090968Y-65687146D01*
X79089847Y-65693690D01*
X79049500Y-65896530D01*
X79049500Y-66103469D01*
X79089868Y-66306413D01*
X79089871Y-66306424D01*
X79090059Y-66306877D01*
X79090154Y-66307357D01*
X79091639Y-66312251D01*
X79091157Y-66312397D01*
X79099500Y-66354334D01*
X79099500Y-74375500D01*
X79079815Y-74442539D01*
X79027011Y-74488294D01*
X78975500Y-74499500D01*
X77401458Y-74499500D01*
X77385683Y-74502638D01*
X77369908Y-74505776D01*
X77369907Y-74505776D01*
X77208171Y-74537947D01*
X77208159Y-74537950D01*
X77157199Y-74559058D01*
X77157200Y-74559059D01*
X77026089Y-74613366D01*
X77026080Y-74613371D01*
X76862219Y-74722859D01*
X76809122Y-74775957D01*
X76722861Y-74862218D01*
X76722858Y-74862221D01*
X75908523Y-75676557D01*
X75121899Y-76463181D01*
X75060576Y-76496666D01*
X75034218Y-76499500D01*
X60965783Y-76499500D01*
X60898744Y-76479815D01*
X60878102Y-76463181D01*
X60526819Y-76111898D01*
X60493334Y-76050575D01*
X60490500Y-76024217D01*
X60490500Y-75519000D01*
X60510185Y-75451961D01*
X60562989Y-75406206D01*
X60614500Y-75395000D01*
X60740000Y-75395000D01*
X60740000Y-73193432D01*
X60745355Y-73175192D01*
X60745726Y-73156187D01*
X60757112Y-73135153D01*
X60759685Y-73126393D01*
X60761010Y-73124374D01*
X60764844Y-73118655D01*
X60765464Y-73118036D01*
X60823413Y-73031309D01*
X60864013Y-72970547D01*
X60921687Y-72831309D01*
X60931895Y-72806666D01*
X60966500Y-72632692D01*
X60966500Y-72455308D01*
X60966500Y-71469000D01*
X60969050Y-71460314D01*
X60967762Y-71451353D01*
X60978740Y-71427312D01*
X60986185Y-71401961D01*
X60993025Y-71396033D01*
X60996787Y-71387797D01*
X61019021Y-71373507D01*
X61038989Y-71356206D01*
X61049503Y-71353918D01*
X61055565Y-71350023D01*
X61090500Y-71345000D01*
X61116000Y-71345000D01*
X61183039Y-71364685D01*
X61228794Y-71417489D01*
X61240000Y-71469000D01*
X61240000Y-75395000D01*
X61452270Y-75395000D01*
X61519309Y-75414685D01*
X61539951Y-75431319D01*
X61596344Y-75487712D01*
X61745666Y-75579814D01*
X61912203Y-75634999D01*
X62014991Y-75645500D01*
X62965008Y-75645499D01*
X62965016Y-75645498D01*
X62965019Y-75645498D01*
X63021302Y-75639748D01*
X63067797Y-75634999D01*
X63200996Y-75590860D01*
X63270824Y-75588459D01*
X63279000Y-75590859D01*
X63412203Y-75634999D01*
X63514991Y-75645500D01*
X64465008Y-75645499D01*
X64465016Y-75645498D01*
X64465019Y-75645498D01*
X64521302Y-75639748D01*
X64567797Y-75634999D01*
X64700996Y-75590860D01*
X64770824Y-75588459D01*
X64779000Y-75590859D01*
X64912203Y-75634999D01*
X65014991Y-75645500D01*
X65965008Y-75645499D01*
X65965016Y-75645498D01*
X65965019Y-75645498D01*
X66021302Y-75639748D01*
X66067797Y-75634999D01*
X66234334Y-75579814D01*
X66383656Y-75487712D01*
X66507712Y-75363656D01*
X66599814Y-75214334D01*
X66604563Y-75200002D01*
X69165000Y-75200002D01*
X69167893Y-75253988D01*
X69203442Y-75393259D01*
X69206371Y-75400330D01*
X69258106Y-75495076D01*
X69356049Y-75600277D01*
X69356051Y-75600278D01*
X69479672Y-75673629D01*
X69486732Y-75676554D01*
X69537728Y-75694544D01*
X69680001Y-75714999D01*
X69680003Y-75715000D01*
X70805000Y-75715000D01*
X71055000Y-75715000D01*
X72180002Y-75715000D01*
X72233988Y-75712106D01*
X72373259Y-75676557D01*
X72380330Y-75673628D01*
X72475076Y-75621893D01*
X72580277Y-75523950D01*
X72580278Y-75523948D01*
X72653629Y-75400327D01*
X72656554Y-75393267D01*
X72674544Y-75342271D01*
X72674544Y-75342270D01*
X72692905Y-75214564D01*
X72721929Y-75151008D01*
X72780707Y-75113233D01*
X72847737Y-75112436D01*
X72868435Y-75117982D01*
X73115435Y-75150500D01*
X73115442Y-75150500D01*
X73364558Y-75150500D01*
X73364565Y-75150500D01*
X73611565Y-75117982D01*
X73852207Y-75053502D01*
X74082373Y-74958164D01*
X74298127Y-74833599D01*
X74495776Y-74681938D01*
X74671938Y-74505776D01*
X74823599Y-74308127D01*
X74948164Y-74092373D01*
X75043502Y-73862207D01*
X75107982Y-73621565D01*
X75140500Y-73374565D01*
X75140500Y-73125435D01*
X75107982Y-72878435D01*
X75043502Y-72637793D01*
X74967914Y-72455308D01*
X74948169Y-72407638D01*
X74948162Y-72407623D01*
X74823599Y-72191873D01*
X74671939Y-71994225D01*
X74671933Y-71994218D01*
X74495781Y-71818066D01*
X74495774Y-71818060D01*
X74298126Y-71666400D01*
X74082376Y-71541837D01*
X74082361Y-71541830D01*
X73852207Y-71446498D01*
X73685993Y-71401961D01*
X73611565Y-71382018D01*
X73611564Y-71382017D01*
X73611561Y-71382017D01*
X73364575Y-71349501D01*
X73364570Y-71349500D01*
X73364565Y-71349500D01*
X73115435Y-71349500D01*
X73115429Y-71349500D01*
X73115424Y-71349501D01*
X72868438Y-71382017D01*
X72868416Y-71382022D01*
X72849516Y-71387086D01*
X72779667Y-71385422D01*
X72721805Y-71346259D01*
X72694302Y-71282030D01*
X72693603Y-71273946D01*
X72692106Y-71246011D01*
X72656557Y-71106740D01*
X72653628Y-71099669D01*
X72601893Y-71004923D01*
X72503950Y-70899722D01*
X72503948Y-70899721D01*
X72380327Y-70826370D01*
X72373267Y-70823445D01*
X72322271Y-70805455D01*
X72179998Y-70785000D01*
X71055000Y-70785000D01*
X71055000Y-75715000D01*
X70805000Y-75715000D01*
X70805000Y-73375000D01*
X69165000Y-73375000D01*
X69165000Y-75200002D01*
X66604563Y-75200002D01*
X66654999Y-75047797D01*
X66665500Y-74945009D01*
X66665499Y-73269361D01*
X66685184Y-73202323D01*
X66701812Y-73181687D01*
X66765464Y-73118036D01*
X66797988Y-73069361D01*
X66823413Y-73031310D01*
X66823413Y-73031309D01*
X66864013Y-72970547D01*
X66921687Y-72831309D01*
X66931895Y-72806666D01*
X66966500Y-72632692D01*
X66966500Y-72455308D01*
X66966500Y-71300001D01*
X69165000Y-71300001D01*
X69165000Y-73125000D01*
X70805000Y-73125000D01*
X70805000Y-70785000D01*
X69679998Y-70785000D01*
X69626011Y-70787893D01*
X69486740Y-70823442D01*
X69479669Y-70826371D01*
X69384923Y-70878106D01*
X69279722Y-70976049D01*
X69279721Y-70976051D01*
X69206370Y-71099672D01*
X69203445Y-71106732D01*
X69185455Y-71157728D01*
X69165000Y-71300001D01*
X66966500Y-71300001D01*
X66966500Y-69707309D01*
X66959010Y-69669655D01*
X66931895Y-69533334D01*
X66887662Y-69426547D01*
X66887662Y-69426546D01*
X66864016Y-69369459D01*
X66864009Y-69369446D01*
X66772161Y-69231987D01*
X66765464Y-69221964D01*
X66765461Y-69221961D01*
X66765459Y-69221958D01*
X66701818Y-69158317D01*
X66668333Y-69096994D01*
X66665499Y-69070636D01*
X66665499Y-67844998D01*
X66665498Y-67844981D01*
X66654999Y-67742203D01*
X66654998Y-67742200D01*
X66622783Y-67644983D01*
X66599814Y-67575666D01*
X66535125Y-67470788D01*
X66516686Y-67403398D01*
X66537609Y-67336735D01*
X66552979Y-67318018D01*
X67314180Y-66556818D01*
X67375503Y-66523333D01*
X67401861Y-66520499D01*
X67703011Y-66520499D01*
X67703020Y-66520499D01*
X67781645Y-66514312D01*
X67964488Y-66465320D01*
X68093008Y-66399835D01*
X68133146Y-66379385D01*
X68133147Y-66379383D01*
X68133149Y-66379383D01*
X68280257Y-66260257D01*
X68399383Y-66113149D01*
X68404316Y-66103469D01*
X68437373Y-66038589D01*
X68485320Y-65944488D01*
X68534312Y-65761645D01*
X68540500Y-65683021D01*
X68540499Y-65256980D01*
X68534312Y-65178355D01*
X68485320Y-64995512D01*
X68408639Y-64845016D01*
X68399385Y-64826853D01*
X68323407Y-64733029D01*
X68280257Y-64679743D01*
X68201990Y-64616363D01*
X68162281Y-64558879D01*
X68159953Y-64489048D01*
X68195748Y-64429044D01*
X68201976Y-64423647D01*
X68280257Y-64360257D01*
X68399383Y-64213149D01*
X68485320Y-64044488D01*
X68534312Y-63861645D01*
X68540500Y-63783021D01*
X68540499Y-63356980D01*
X68534312Y-63278355D01*
X68485320Y-63095512D01*
X68430886Y-62988679D01*
X68399385Y-62926853D01*
X68366554Y-62886311D01*
X68280257Y-62779743D01*
X68161964Y-62683951D01*
X68133147Y-62660615D01*
X68118203Y-62653001D01*
X68067408Y-62605025D01*
X68050500Y-62542517D01*
X68050500Y-62396534D01*
X68050499Y-62396530D01*
X68050294Y-62395500D01*
X68010130Y-62193580D01*
X67930941Y-62002402D01*
X67815977Y-61830345D01*
X67815975Y-61830342D01*
X67669657Y-61684024D01*
X67497592Y-61569055D01*
X67492224Y-61566186D01*
X67492992Y-61564747D01*
X67444726Y-61525853D01*
X67422661Y-61459559D01*
X67439940Y-61391859D01*
X67491077Y-61344248D01*
X67511425Y-61337107D01*
X67511269Y-61336636D01*
X67684119Y-61279358D01*
X67684124Y-61279356D01*
X67833345Y-61187315D01*
X67957315Y-61063345D01*
X68049356Y-60914124D01*
X68049358Y-60914119D01*
X68104505Y-60747697D01*
X68104506Y-60747690D01*
X68114999Y-60644986D01*
X68115000Y-60644973D01*
X68115000Y-60370000D01*
X67151500Y-60370000D01*
X67084461Y-60350315D01*
X67038706Y-60297511D01*
X67027500Y-60246000D01*
X67027500Y-60120000D01*
X66901500Y-60120000D01*
X66834461Y-60100315D01*
X66788706Y-60047511D01*
X66777500Y-59996000D01*
X66777500Y-59870000D01*
X67277500Y-59870000D01*
X68114999Y-59870000D01*
X68114999Y-59595028D01*
X68114998Y-59595013D01*
X68104505Y-59492302D01*
X68049358Y-59325880D01*
X68049356Y-59325875D01*
X67957315Y-59176654D01*
X67833345Y-59052684D01*
X67684124Y-58960643D01*
X67684119Y-58960641D01*
X67517697Y-58905494D01*
X67517690Y-58905493D01*
X67414986Y-58895000D01*
X67277500Y-58895000D01*
X67277500Y-59870000D01*
X66777500Y-59870000D01*
X66777500Y-58895000D01*
X66640027Y-58895000D01*
X66640010Y-58895001D01*
X66565904Y-58902572D01*
X66497212Y-58889802D01*
X66446327Y-58841921D01*
X66429407Y-58774131D01*
X66434086Y-58745107D01*
X66454886Y-58672418D01*
X66465500Y-58553037D01*
X66465499Y-57761964D01*
X66454886Y-57642582D01*
X66398909Y-57446951D01*
X66304698Y-57266593D01*
X66249061Y-57198359D01*
X66221952Y-57133966D01*
X66233961Y-57065136D01*
X66249061Y-57041640D01*
X66304698Y-56973407D01*
X66398909Y-56793049D01*
X66454886Y-56597418D01*
X66465500Y-56478037D01*
X66465499Y-55686964D01*
X66454886Y-55567582D01*
X66398909Y-55371951D01*
X66304698Y-55191593D01*
X66252684Y-55127803D01*
X66176109Y-55033890D01*
X66070513Y-54947789D01*
X66018407Y-54905302D01*
X66018404Y-54905300D01*
X65957088Y-54873271D01*
X65906781Y-54824784D01*
X65890500Y-54763363D01*
X65890500Y-53463361D01*
X65910185Y-53396322D01*
X65962989Y-53350567D01*
X66032147Y-53340623D01*
X66095703Y-53369648D01*
G37*
%TD.AperFunction*%
%TA.AperFunction,Conductor*%
G36*
X61183039Y-69239685D02*
G01*
X61228794Y-69292489D01*
X61240000Y-69344000D01*
X61240000Y-70421000D01*
X61237449Y-70429685D01*
X61238738Y-70438647D01*
X61227759Y-70462687D01*
X61220315Y-70488039D01*
X61213474Y-70493966D01*
X61209713Y-70502203D01*
X61187478Y-70516492D01*
X61167511Y-70533794D01*
X61156996Y-70536081D01*
X61150935Y-70539977D01*
X61116000Y-70545000D01*
X61090500Y-70545000D01*
X61023461Y-70525315D01*
X60977706Y-70472511D01*
X60966500Y-70421000D01*
X60966500Y-69707309D01*
X60959010Y-69669655D01*
X60931895Y-69533334D01*
X60887662Y-69426547D01*
X60873124Y-69391451D01*
X60865657Y-69321982D01*
X60896933Y-69259503D01*
X60957022Y-69223851D01*
X60987687Y-69220000D01*
X61116000Y-69220000D01*
X61183039Y-69239685D01*
G37*
%TD.AperFunction*%
%TA.AperFunction,Conductor*%
G36*
X93545539Y-65090184D02*
G01*
X93591294Y-65142988D01*
X93602500Y-65194499D01*
X93602500Y-65770000D01*
X93930634Y-65770000D01*
X93930649Y-65769999D01*
X93967489Y-65767100D01*
X93967495Y-65767099D01*
X94125193Y-65721283D01*
X94125196Y-65721282D01*
X94248082Y-65648608D01*
X94315806Y-65631425D01*
X94382068Y-65653585D01*
X94407568Y-65677303D01*
X94474743Y-65760257D01*
X94561765Y-65830726D01*
X94621853Y-65879385D01*
X94790514Y-65965321D01*
X94796581Y-65967650D01*
X94795914Y-65969385D01*
X94847909Y-66001071D01*
X94878444Y-66063915D01*
X94870156Y-66133291D01*
X94834830Y-66180342D01*
X94830339Y-66184027D01*
X94684024Y-66330342D01*
X94569058Y-66502403D01*
X94489870Y-66693579D01*
X94489868Y-66693587D01*
X94449500Y-66896530D01*
X94449500Y-67071000D01*
X94429815Y-67138039D01*
X94377011Y-67183794D01*
X94325500Y-67195000D01*
X94240000Y-67195000D01*
X94240000Y-70221000D01*
X94220315Y-70288039D01*
X94167511Y-70333794D01*
X94116000Y-70345000D01*
X93864000Y-70345000D01*
X93796961Y-70325315D01*
X93751206Y-70272511D01*
X93740000Y-70221000D01*
X93740000Y-67195000D01*
X93674500Y-67195000D01*
X93607461Y-67175315D01*
X93561706Y-67122511D01*
X93550500Y-67071000D01*
X93550500Y-66896534D01*
X93550499Y-66896530D01*
X93540216Y-66844834D01*
X93510130Y-66693580D01*
X93430941Y-66502402D01*
X93315977Y-66330345D01*
X93315975Y-66330342D01*
X93169657Y-66184024D01*
X92997596Y-66069057D01*
X92851544Y-66008561D01*
X92797141Y-65964720D01*
X92775076Y-65898426D01*
X92792355Y-65830726D01*
X92843493Y-65783116D01*
X92898997Y-65770000D01*
X93102500Y-65770000D01*
X93102500Y-65194499D01*
X93122185Y-65127460D01*
X93174989Y-65081705D01*
X93226497Y-65070499D01*
X93478501Y-65070499D01*
X93545539Y-65090184D01*
G37*
%TD.AperFunction*%
%TA.AperFunction,Conductor*%
G36*
X99032539Y-66920185D02*
G01*
X99078294Y-66972989D01*
X99089500Y-67024500D01*
X99089500Y-67057768D01*
X99080855Y-67087208D01*
X99074332Y-67117195D01*
X99070577Y-67122210D01*
X99069815Y-67124807D01*
X99053181Y-67145449D01*
X99039949Y-67158681D01*
X98978626Y-67192166D01*
X98952268Y-67195000D01*
X98740000Y-67195000D01*
X98740000Y-70221000D01*
X98737449Y-70229685D01*
X98738738Y-70238647D01*
X98727759Y-70262687D01*
X98720315Y-70288039D01*
X98713474Y-70293966D01*
X98709713Y-70302203D01*
X98687478Y-70316492D01*
X98667511Y-70333794D01*
X98656996Y-70336081D01*
X98650935Y-70339977D01*
X98616000Y-70345000D01*
X98590500Y-70345000D01*
X98523461Y-70325315D01*
X98477706Y-70272511D01*
X98466500Y-70221000D01*
X98466500Y-69507307D01*
X98466499Y-69507303D01*
X98464568Y-69497596D01*
X98431895Y-69333334D01*
X98385764Y-69221965D01*
X98364013Y-69169453D01*
X98304936Y-69081040D01*
X98265464Y-69021964D01*
X98262079Y-69016897D01*
X98264044Y-69015583D01*
X98240831Y-68960900D01*
X98240000Y-68946567D01*
X98240000Y-67195000D01*
X98027730Y-67195000D01*
X97998289Y-67186355D01*
X97968303Y-67179832D01*
X97963287Y-67176077D01*
X97960691Y-67175315D01*
X97940049Y-67158681D01*
X97893549Y-67112181D01*
X97860064Y-67050858D01*
X97865048Y-66981166D01*
X97906920Y-66925233D01*
X97972384Y-66900816D01*
X97981230Y-66900500D01*
X98965500Y-66900500D01*
X99032539Y-66920185D01*
G37*
%TD.AperFunction*%
%TA.AperFunction,Conductor*%
G36*
X65045539Y-65590184D02*
G01*
X65091294Y-65642988D01*
X65102500Y-65694499D01*
X65102500Y-66170137D01*
X65082815Y-66237176D01*
X65066181Y-66257818D01*
X64790536Y-66533463D01*
X64763809Y-66573464D01*
X64763787Y-66573496D01*
X64763428Y-66574035D01*
X64691987Y-66680953D01*
X64689024Y-66688105D01*
X64682727Y-66697759D01*
X64664550Y-66713292D01*
X64649541Y-66731900D01*
X64638476Y-66735576D01*
X64629612Y-66743152D01*
X64605922Y-66746393D01*
X64583235Y-66753932D01*
X64571940Y-66751043D01*
X64560387Y-66752624D01*
X64538704Y-66742542D01*
X64515545Y-66736619D01*
X64500029Y-66724560D01*
X64497031Y-66723166D01*
X64495864Y-66721322D01*
X64491190Y-66717690D01*
X64255181Y-66481681D01*
X64221696Y-66420358D01*
X64226680Y-66350666D01*
X64268552Y-66294733D01*
X64334016Y-66270316D01*
X64342862Y-66270000D01*
X64602500Y-66270000D01*
X64602500Y-65694499D01*
X64622185Y-65627460D01*
X64674989Y-65581705D01*
X64726497Y-65570499D01*
X64978501Y-65570499D01*
X65045539Y-65590184D01*
G37*
%TD.AperFunction*%
%TA.AperFunction,Conductor*%
G36*
X102545539Y-65090184D02*
G01*
X102591294Y-65142988D01*
X102602500Y-65194499D01*
X102602500Y-65670137D01*
X102582815Y-65737176D01*
X102566181Y-65757818D01*
X102290538Y-66033461D01*
X102290532Y-66033469D01*
X102262548Y-66075350D01*
X102262540Y-66075362D01*
X102260071Y-66079059D01*
X102191987Y-66180953D01*
X102166864Y-66241606D01*
X102163908Y-66248740D01*
X102163905Y-66248747D01*
X102143273Y-66298556D01*
X102099431Y-66352959D01*
X102033136Y-66375022D01*
X101965437Y-66357741D01*
X101941032Y-66338782D01*
X101560085Y-65957835D01*
X101526600Y-65896512D01*
X101531584Y-65826820D01*
X101573456Y-65770887D01*
X101638920Y-65746470D01*
X101682362Y-65751078D01*
X101737507Y-65767099D01*
X101737510Y-65767100D01*
X101774350Y-65769999D01*
X101774366Y-65770000D01*
X102102500Y-65770000D01*
X102102500Y-65194499D01*
X102122185Y-65127460D01*
X102174989Y-65081705D01*
X102226497Y-65070499D01*
X102478501Y-65070499D01*
X102545539Y-65090184D01*
G37*
%TD.AperFunction*%
%TA.AperFunction,Conductor*%
G36*
X63989552Y-53957442D02*
G01*
X63991824Y-53957279D01*
X64020641Y-53973004D01*
X64049996Y-53987698D01*
X64051158Y-53989656D01*
X64053156Y-53990747D01*
X64068897Y-54019555D01*
X64085648Y-54047787D01*
X64086043Y-54050932D01*
X64086659Y-54052060D01*
X64086487Y-54054469D01*
X64089500Y-54078453D01*
X64089500Y-54763363D01*
X64069815Y-54830402D01*
X64022912Y-54873271D01*
X63961595Y-54905300D01*
X63961593Y-54905302D01*
X63803890Y-55033890D01*
X63687023Y-55177218D01*
X63675302Y-55191593D01*
X63640009Y-55259158D01*
X63581089Y-55371954D01*
X63553727Y-55467583D01*
X63526374Y-55563181D01*
X63525114Y-55567583D01*
X63525113Y-55567586D01*
X63514500Y-55686966D01*
X63514500Y-56478028D01*
X63514501Y-56478034D01*
X63525113Y-56597415D01*
X63581089Y-56793045D01*
X63581090Y-56793048D01*
X63581091Y-56793049D01*
X63658708Y-56941640D01*
X63675303Y-56973408D01*
X63730938Y-57041640D01*
X63758046Y-57106036D01*
X63746036Y-57174866D01*
X63730938Y-57198360D01*
X63675303Y-57266591D01*
X63581089Y-57446954D01*
X63525114Y-57642583D01*
X63525113Y-57642586D01*
X63514500Y-57761966D01*
X63514500Y-58553028D01*
X63514500Y-58553033D01*
X63514501Y-58553036D01*
X63516224Y-58572413D01*
X63525113Y-58672415D01*
X63582570Y-58873220D01*
X63582087Y-58943088D01*
X63543907Y-59001603D01*
X63480152Y-59030188D01*
X63411064Y-59019766D01*
X63375673Y-58995012D01*
X63333345Y-58952684D01*
X63184124Y-58860643D01*
X63184119Y-58860641D01*
X63017697Y-58805494D01*
X63017690Y-58805493D01*
X62914986Y-58795000D01*
X62777500Y-58795000D01*
X62777500Y-61244999D01*
X62914972Y-61244999D01*
X62914986Y-61244998D01*
X63017697Y-61234505D01*
X63184119Y-61179358D01*
X63184124Y-61179356D01*
X63333345Y-61087315D01*
X63457316Y-60963344D01*
X63462675Y-60954656D01*
X63514621Y-60907930D01*
X63583583Y-60896705D01*
X63647666Y-60924546D01*
X63675992Y-60963617D01*
X63678180Y-60962475D01*
X63681090Y-60968046D01*
X63681091Y-60968049D01*
X63775302Y-61148407D01*
X63800538Y-61179356D01*
X63903890Y-61306109D01*
X63968693Y-61358948D01*
X64061593Y-61434698D01*
X64241951Y-61528909D01*
X64437582Y-61584886D01*
X64556963Y-61595500D01*
X64841501Y-61595499D01*
X64908539Y-61615183D01*
X64954294Y-61667987D01*
X64965500Y-61719499D01*
X64965500Y-62395500D01*
X64945815Y-62462539D01*
X64893011Y-62508294D01*
X64841500Y-62519500D01*
X64276989Y-62519500D01*
X64276970Y-62519501D01*
X64198356Y-62525687D01*
X64015511Y-62574680D01*
X63858294Y-62654785D01*
X63789625Y-62667681D01*
X63724884Y-62641404D01*
X63684628Y-62584297D01*
X63678000Y-62544300D01*
X63678000Y-62524034D01*
X63677999Y-62524030D01*
X63659737Y-62432221D01*
X63637630Y-62321080D01*
X63558441Y-62129902D01*
X63443477Y-61957845D01*
X63443475Y-61957842D01*
X63297157Y-61811524D01*
X63159430Y-61719499D01*
X63125098Y-61696559D01*
X63121329Y-61694998D01*
X62933920Y-61617370D01*
X62933912Y-61617368D01*
X62730969Y-61577000D01*
X62730965Y-61577000D01*
X62524035Y-61577000D01*
X62524030Y-61577000D01*
X62414691Y-61598749D01*
X62393707Y-61596871D01*
X62372853Y-61599870D01*
X62359605Y-61593820D01*
X62345099Y-61592522D01*
X62328461Y-61579596D01*
X62309297Y-61570845D01*
X62301422Y-61558592D01*
X62289922Y-61549658D01*
X62282913Y-61529790D01*
X62271523Y-61512067D01*
X62267988Y-61487483D01*
X62266678Y-61483769D01*
X62266500Y-61477132D01*
X62266500Y-61307361D01*
X62277500Y-61269899D01*
X62277500Y-58795000D01*
X62140027Y-58795000D01*
X62140010Y-58795001D01*
X62065904Y-58802572D01*
X61997212Y-58789802D01*
X61946327Y-58741921D01*
X61929407Y-58674131D01*
X61934086Y-58645107D01*
X61954886Y-58572418D01*
X61965500Y-58453037D01*
X61965499Y-57661964D01*
X61954886Y-57542582D01*
X61898909Y-57346951D01*
X61804698Y-57166593D01*
X61749061Y-57098359D01*
X61721952Y-57033966D01*
X61733961Y-56965136D01*
X61749061Y-56941640D01*
X61804698Y-56873407D01*
X61898909Y-56693049D01*
X61954886Y-56497418D01*
X61965500Y-56378037D01*
X61965499Y-55586964D01*
X61960922Y-55535479D01*
X61974593Y-55466960D01*
X62023139Y-55416710D01*
X62084435Y-55400500D01*
X62088693Y-55400500D01*
X62088694Y-55400499D01*
X62262666Y-55365895D01*
X62344606Y-55331953D01*
X62426547Y-55298013D01*
X62532325Y-55227334D01*
X62574036Y-55199464D01*
X63726082Y-54047415D01*
X63770394Y-54018929D01*
X63779759Y-54015432D01*
X63806420Y-54010130D01*
X63920075Y-53963052D01*
X63922133Y-53962284D01*
X63954870Y-53959932D01*
X63987516Y-53956423D01*
X63989552Y-53957442D01*
G37*
%TD.AperFunction*%
%TA.AperFunction,Conductor*%
G36*
X60093677Y-53920185D02*
G01*
X60139432Y-53972989D01*
X60149376Y-54042147D01*
X60120351Y-54105703D01*
X60114319Y-54112181D01*
X59790538Y-54435960D01*
X59790537Y-54435961D01*
X59753978Y-54490676D01*
X59753973Y-54490683D01*
X59751063Y-54495040D01*
X59691987Y-54583453D01*
X59662304Y-54655114D01*
X59659651Y-54661518D01*
X59659647Y-54661526D01*
X59655566Y-54671378D01*
X59611722Y-54725779D01*
X59598419Y-54733828D01*
X59461596Y-54805299D01*
X59303890Y-54933890D01*
X59179846Y-55086020D01*
X59175302Y-55091593D01*
X59130575Y-55177218D01*
X59081089Y-55271954D01*
X59025114Y-55467583D01*
X59025113Y-55467586D01*
X59024358Y-55476082D01*
X59016615Y-55563181D01*
X59014500Y-55586966D01*
X59014500Y-56378028D01*
X59014501Y-56378034D01*
X59025113Y-56497415D01*
X59081089Y-56693045D01*
X59081090Y-56693048D01*
X59081091Y-56693049D01*
X59146912Y-56819058D01*
X59175303Y-56873408D01*
X59230938Y-56941640D01*
X59258046Y-57006036D01*
X59246036Y-57074866D01*
X59230938Y-57098360D01*
X59175303Y-57166591D01*
X59081089Y-57346954D01*
X59025114Y-57542583D01*
X59025113Y-57542586D01*
X59014500Y-57661966D01*
X59014500Y-58453028D01*
X59014501Y-58453034D01*
X59025113Y-58572415D01*
X59081089Y-58768045D01*
X59081090Y-58768047D01*
X59081091Y-58768049D01*
X59175302Y-58948407D01*
X59185277Y-58960641D01*
X59198360Y-58976685D01*
X59205819Y-58994403D01*
X59217620Y-59009576D01*
X59219094Y-59025938D01*
X59225469Y-59041081D01*
X59222164Y-59060018D01*
X59223890Y-59079164D01*
X59213849Y-59107680D01*
X59213460Y-59109911D01*
X59212168Y-59112455D01*
X59206400Y-59123498D01*
X59157915Y-59173806D01*
X59089928Y-59189915D01*
X59024024Y-59166710D01*
X58990951Y-59131186D01*
X58957315Y-59076654D01*
X58833345Y-58952684D01*
X58684124Y-58860643D01*
X58684119Y-58860641D01*
X58517697Y-58805494D01*
X58517690Y-58805493D01*
X58414986Y-58795000D01*
X58277500Y-58795000D01*
X58277500Y-59896000D01*
X58257815Y-59963039D01*
X58205011Y-60008794D01*
X58153500Y-60020000D01*
X57901500Y-60020000D01*
X57834461Y-60000315D01*
X57788706Y-59947511D01*
X57777500Y-59896000D01*
X57777500Y-58795000D01*
X57640027Y-58795000D01*
X57640010Y-58795001D01*
X57565904Y-58802572D01*
X57497212Y-58789802D01*
X57446327Y-58741921D01*
X57429407Y-58674131D01*
X57434086Y-58645107D01*
X57454886Y-58572418D01*
X57465500Y-58453037D01*
X57465499Y-57661964D01*
X57454886Y-57542582D01*
X57398909Y-57346951D01*
X57304698Y-57166593D01*
X57249061Y-57098359D01*
X57221952Y-57033966D01*
X57233961Y-56965136D01*
X57249061Y-56941640D01*
X57304698Y-56873407D01*
X57398909Y-56693049D01*
X57454886Y-56497418D01*
X57465500Y-56378037D01*
X57465499Y-55586964D01*
X57454886Y-55467582D01*
X57406366Y-55298013D01*
X57398910Y-55271954D01*
X57398909Y-55271952D01*
X57398909Y-55271951D01*
X57304698Y-55091593D01*
X57219686Y-54987334D01*
X57176109Y-54933890D01*
X57089239Y-54863057D01*
X57018407Y-54805302D01*
X57018404Y-54805300D01*
X56957088Y-54773271D01*
X56906781Y-54724784D01*
X56890500Y-54663363D01*
X56890500Y-54024500D01*
X56910185Y-53957461D01*
X56962989Y-53911706D01*
X57014500Y-53900500D01*
X60026638Y-53900500D01*
X60093677Y-53920185D01*
G37*
%TD.AperFunction*%
%TA.AperFunction,Conductor*%
G36*
X97660833Y-53901244D02*
G01*
X97690427Y-53964537D01*
X97681104Y-54033782D01*
X97655533Y-54070965D01*
X97294273Y-54432225D01*
X97294268Y-54432231D01*
X97290536Y-54435964D01*
X97251063Y-54495040D01*
X97250621Y-54495700D01*
X97250600Y-54495732D01*
X97191985Y-54583455D01*
X97162304Y-54655113D01*
X97162302Y-54655118D01*
X97155566Y-54671378D01*
X97111722Y-54725779D01*
X97098419Y-54733828D01*
X96961596Y-54805299D01*
X96803890Y-54933890D01*
X96679846Y-55086020D01*
X96675302Y-55091593D01*
X96630575Y-55177218D01*
X96581089Y-55271954D01*
X96525114Y-55467583D01*
X96525113Y-55467586D01*
X96524358Y-55476082D01*
X96516615Y-55563181D01*
X96514500Y-55586966D01*
X96514500Y-56378028D01*
X96514501Y-56378034D01*
X96525113Y-56497415D01*
X96581089Y-56693045D01*
X96581090Y-56693048D01*
X96581091Y-56693049D01*
X96646912Y-56819058D01*
X96675303Y-56873408D01*
X96730938Y-56941640D01*
X96758046Y-57006036D01*
X96746036Y-57074866D01*
X96730938Y-57098360D01*
X96675303Y-57166591D01*
X96581089Y-57346954D01*
X96525114Y-57542583D01*
X96525113Y-57542586D01*
X96514500Y-57661966D01*
X96514500Y-58453028D01*
X96514501Y-58453034D01*
X96525113Y-58572415D01*
X96581090Y-58768047D01*
X96638176Y-58877333D01*
X96651767Y-58945868D01*
X96626148Y-59010871D01*
X96569452Y-59051705D01*
X96499681Y-59055404D01*
X96440586Y-59022425D01*
X96370845Y-58952684D01*
X96221624Y-58860643D01*
X96221619Y-58860641D01*
X96055197Y-58805494D01*
X96055190Y-58805493D01*
X95952486Y-58795000D01*
X95815000Y-58795000D01*
X95815000Y-59896000D01*
X95795315Y-59963039D01*
X95742511Y-60008794D01*
X95691000Y-60020000D01*
X95439000Y-60020000D01*
X95371961Y-60000315D01*
X95326206Y-59947511D01*
X95315000Y-59896000D01*
X95315000Y-58795000D01*
X95177527Y-58795000D01*
X95177512Y-58795001D01*
X95068069Y-58806182D01*
X95067851Y-58804049D01*
X95008314Y-58799578D01*
X94952530Y-58757508D01*
X94928347Y-58691957D01*
X94932845Y-58649446D01*
X94954886Y-58572418D01*
X94965500Y-58453037D01*
X94965499Y-57661964D01*
X94954886Y-57542582D01*
X94898909Y-57346951D01*
X94804698Y-57166593D01*
X94749061Y-57098359D01*
X94721952Y-57033966D01*
X94733961Y-56965136D01*
X94749061Y-56941640D01*
X94804698Y-56873407D01*
X94898909Y-56693049D01*
X94954886Y-56497418D01*
X94965500Y-56378037D01*
X94965499Y-55586964D01*
X94954886Y-55467582D01*
X94906366Y-55298013D01*
X94898910Y-55271954D01*
X94898909Y-55271952D01*
X94898909Y-55271951D01*
X94804698Y-55091593D01*
X94719686Y-54987334D01*
X94676109Y-54933890D01*
X94589239Y-54863057D01*
X94518407Y-54805302D01*
X94518404Y-54805300D01*
X94457088Y-54773271D01*
X94406781Y-54724784D01*
X94390500Y-54663363D01*
X94390500Y-54024500D01*
X94410185Y-53957461D01*
X94462989Y-53911706D01*
X94514500Y-53900500D01*
X97353693Y-53900500D01*
X97353694Y-53900499D01*
X97527666Y-53865895D01*
X97527670Y-53865893D01*
X97531852Y-53864625D01*
X97601719Y-53863998D01*
X97660833Y-53901244D01*
G37*
%TD.AperFunction*%
%TA.AperFunction,Conductor*%
G36*
X99990719Y-54454048D02*
G01*
X99994134Y-54453681D01*
X100022533Y-54467896D01*
X100051635Y-54480564D01*
X100054734Y-54484014D01*
X100056613Y-54484955D01*
X100075220Y-54506820D01*
X100184022Y-54669655D01*
X100330342Y-54815975D01*
X100330345Y-54815977D01*
X100502402Y-54930941D01*
X100693580Y-55010130D01*
X100710426Y-55013480D01*
X100772337Y-55045864D01*
X100773917Y-55047417D01*
X101011090Y-55284590D01*
X101044575Y-55345913D01*
X101042625Y-55406381D01*
X101025114Y-55467579D01*
X101025113Y-55467586D01*
X101024358Y-55476082D01*
X101016615Y-55563181D01*
X101014500Y-55586966D01*
X101014500Y-56378028D01*
X101014501Y-56378034D01*
X101025113Y-56497415D01*
X101081089Y-56693045D01*
X101081090Y-56693048D01*
X101081091Y-56693049D01*
X101146912Y-56819058D01*
X101175303Y-56873408D01*
X101230938Y-56941640D01*
X101258046Y-57006036D01*
X101246036Y-57074866D01*
X101230938Y-57098360D01*
X101175303Y-57166591D01*
X101081089Y-57346954D01*
X101025114Y-57542583D01*
X101025113Y-57542586D01*
X101014500Y-57661966D01*
X101014500Y-58453028D01*
X101014501Y-58453034D01*
X101025113Y-58572415D01*
X101081089Y-58768045D01*
X101081090Y-58768047D01*
X101081091Y-58768049D01*
X101175302Y-58948407D01*
X101185277Y-58960641D01*
X101198360Y-58976685D01*
X101205819Y-58994403D01*
X101217620Y-59009576D01*
X101219094Y-59025938D01*
X101225469Y-59041081D01*
X101222164Y-59060018D01*
X101223890Y-59079164D01*
X101213849Y-59107680D01*
X101213460Y-59109911D01*
X101212168Y-59112455D01*
X101206400Y-59123498D01*
X101157915Y-59173806D01*
X101089928Y-59189915D01*
X101024024Y-59166710D01*
X100990951Y-59131186D01*
X100957315Y-59076654D01*
X100833345Y-58952684D01*
X100684124Y-58860643D01*
X100684119Y-58860641D01*
X100517697Y-58805494D01*
X100517690Y-58805493D01*
X100414986Y-58795000D01*
X100277500Y-58795000D01*
X100277500Y-59896000D01*
X100257815Y-59963039D01*
X100205011Y-60008794D01*
X100153500Y-60020000D01*
X99901500Y-60020000D01*
X99834461Y-60000315D01*
X99788706Y-59947511D01*
X99777500Y-59896000D01*
X99777500Y-58795000D01*
X99640027Y-58795000D01*
X99640010Y-58795001D01*
X99565904Y-58802572D01*
X99497212Y-58789802D01*
X99446327Y-58741921D01*
X99429407Y-58674131D01*
X99434086Y-58645107D01*
X99454886Y-58572418D01*
X99465500Y-58453037D01*
X99465499Y-57661964D01*
X99454886Y-57542582D01*
X99398909Y-57346951D01*
X99304698Y-57166593D01*
X99249061Y-57098359D01*
X99221952Y-57033966D01*
X99233961Y-56965136D01*
X99249061Y-56941640D01*
X99304698Y-56873407D01*
X99398909Y-56693049D01*
X99454886Y-56497418D01*
X99465500Y-56378037D01*
X99465499Y-55586964D01*
X99454886Y-55467582D01*
X99398909Y-55271951D01*
X99304721Y-55091638D01*
X99291131Y-55023104D01*
X99316750Y-54958101D01*
X99326942Y-54946555D01*
X99726082Y-54547415D01*
X99787403Y-54513932D01*
X99789526Y-54513490D01*
X99806420Y-54510130D01*
X99924668Y-54461149D01*
X99956239Y-54457755D01*
X99987572Y-54452678D01*
X99990719Y-54454048D01*
G37*
%TD.AperFunction*%
%TD*%
M02*
