%TF.GenerationSoftware,KiCad,Pcbnew,9.0.0*%
%TF.CreationDate,2025-04-07T00:55:53-07:00*%
%TF.ProjectId,Motor_reroute,4d6f746f-725f-4726-9572-6f7574652e6b,rev?*%
%TF.SameCoordinates,Original*%
%TF.FileFunction,Copper,L2,Bot*%
%TF.FilePolarity,Positive*%
%FSLAX46Y46*%
G04 Gerber Fmt 4.6, Leading zero omitted, Abs format (unit mm)*
G04 Created by KiCad (PCBNEW 9.0.0) date 2025-04-07 00:55:53*
%MOMM*%
%LPD*%
G01*
G04 APERTURE LIST*
G04 Aperture macros list*
%AMRoundRect*
0 Rectangle with rounded corners*
0 $1 Rounding radius*
0 $2 $3 $4 $5 $6 $7 $8 $9 X,Y pos of 4 corners*
0 Add a 4 corners polygon primitive as box body*
4,1,4,$2,$3,$4,$5,$6,$7,$8,$9,$2,$3,0*
0 Add four circle primitives for the rounded corners*
1,1,$1+$1,$2,$3*
1,1,$1+$1,$4,$5*
1,1,$1+$1,$6,$7*
1,1,$1+$1,$8,$9*
0 Add four rect primitives between the rounded corners*
20,1,$1+$1,$2,$3,$4,$5,0*
20,1,$1+$1,$4,$5,$6,$7,0*
20,1,$1+$1,$6,$7,$8,$9,0*
20,1,$1+$1,$8,$9,$2,$3,0*%
G04 Aperture macros list end*
%TA.AperFunction,ComponentPad*%
%ADD10C,3.600000*%
%TD*%
%TA.AperFunction,ConnectorPad*%
%ADD11C,6.400000*%
%TD*%
%TA.AperFunction,ComponentPad*%
%ADD12RoundRect,0.250000X-1.330000X-1.800000X1.330000X-1.800000X1.330000X1.800000X-1.330000X1.800000X0*%
%TD*%
%TA.AperFunction,ComponentPad*%
%ADD13O,3.160000X4.100000*%
%TD*%
%TA.AperFunction,SMDPad,CuDef*%
%ADD14RoundRect,0.250000X0.300000X-0.300000X0.300000X0.300000X-0.300000X0.300000X-0.300000X-0.300000X0*%
%TD*%
%TA.AperFunction,ViaPad*%
%ADD15C,0.600000*%
%TD*%
%TA.AperFunction,Conductor*%
%ADD16C,0.500000*%
%TD*%
%TA.AperFunction,Conductor*%
%ADD17C,0.300000*%
%TD*%
G04 APERTURE END LIST*
D10*
%TO.P,H2,1,1*%
%TO.N,GND*%
X115000000Y-74000000D03*
D11*
X115000000Y-74000000D03*
%TD*%
D12*
%TO.P,J3,1,Pin_1*%
%TO.N,/Sin0*%
X44530000Y-48675000D03*
D13*
%TO.P,J3,2,Pin_2*%
%TO.N,/Cos0*%
X48490000Y-48675000D03*
%TO.P,J3,3,Pin_3*%
%TO.N,GND*%
X52450000Y-48675000D03*
%TD*%
D10*
%TO.P,H1,1,1*%
%TO.N,GND*%
X115000000Y-39000000D03*
D11*
X115000000Y-39000000D03*
%TD*%
D10*
%TO.P,H3,1,1*%
%TO.N,GND*%
X37000000Y-74000000D03*
D11*
X37000000Y-74000000D03*
%TD*%
D12*
%TO.P,J11,1,Pin_1*%
%TO.N,/Sin1*%
X79530000Y-48675000D03*
D13*
%TO.P,J11,2,Pin_2*%
%TO.N,/Cos1*%
X83490000Y-48675000D03*
%TO.P,J11,3,Pin_3*%
%TO.N,GND*%
X87450000Y-48675000D03*
%TD*%
D10*
%TO.P,H4,1,1*%
%TO.N,GND*%
X37000000Y-39000000D03*
D11*
X37000000Y-39000000D03*
%TD*%
D14*
%TO.P,D1,1,A1*%
%TO.N,/C_A0*%
X55990000Y-53920000D03*
%TO.P,D1,2,A2*%
%TO.N,GND*%
X55990000Y-51120000D03*
%TD*%
%TO.P,D2,1,A1*%
%TO.N,/C_B0*%
X60490000Y-53920000D03*
%TO.P,D2,2,A2*%
%TO.N,GND*%
X60490000Y-51120000D03*
%TD*%
%TO.P,D3,1,A1*%
%TO.N,/C_I0*%
X64990000Y-54020000D03*
%TO.P,D3,2,A2*%
%TO.N,GND*%
X64990000Y-51220000D03*
%TD*%
%TO.P,D5,1,A1*%
%TO.N,/C_B1*%
X97990000Y-53920000D03*
%TO.P,D5,2,A2*%
%TO.N,GND*%
X97990000Y-51120000D03*
%TD*%
%TO.P,D4,1,A1*%
%TO.N,/C_A1*%
X93490000Y-53920000D03*
%TO.P,D4,2,A2*%
%TO.N,GND*%
X93490000Y-51120000D03*
%TD*%
%TO.P,D6,1,A1*%
%TO.N,/C_I1*%
X102490000Y-53920000D03*
%TO.P,D6,2,A2*%
%TO.N,GND*%
X102490000Y-51120000D03*
%TD*%
D15*
%TO.N,GND*%
X100000000Y-40000000D03*
X65000000Y-45000000D03*
X40000000Y-70000000D03*
X35000000Y-45000000D03*
X40000000Y-55000000D03*
X110000000Y-75000000D03*
X35000000Y-50000000D03*
X45000000Y-70000000D03*
X105000000Y-75000000D03*
X95000000Y-45000000D03*
X115000000Y-55000000D03*
X45000000Y-75000000D03*
X91500000Y-64000000D03*
X56500000Y-76000000D03*
X94000000Y-75500000D03*
X90000000Y-75000000D03*
X70000000Y-45000000D03*
X100000000Y-55000000D03*
X45000000Y-45000000D03*
X100000000Y-64000000D03*
X62500000Y-64500000D03*
X110000000Y-45000000D03*
X85000000Y-70000000D03*
X100000000Y-45000000D03*
X40000000Y-45000000D03*
X94000000Y-66500000D03*
X90000000Y-45000000D03*
X56500000Y-67000000D03*
X75000000Y-50000000D03*
X40000000Y-65000000D03*
X48000000Y-61500000D03*
X115000000Y-45000000D03*
X70000000Y-70000000D03*
X61000000Y-76000000D03*
X115000000Y-65000000D03*
X90000000Y-70000000D03*
X85000000Y-45000000D03*
X45000000Y-40000000D03*
X65000000Y-40000000D03*
X95500000Y-54500000D03*
X58000000Y-58000000D03*
X62500000Y-58000000D03*
X50000000Y-45000000D03*
X50000000Y-40000000D03*
X35000000Y-55000000D03*
X110000000Y-50000000D03*
X40000000Y-60000000D03*
X115000000Y-50000000D03*
X115000000Y-60000000D03*
X50000000Y-70000000D03*
X62500000Y-56000000D03*
X105000000Y-45000000D03*
X50000000Y-75000000D03*
X60000000Y-45000000D03*
X52500000Y-65500000D03*
X75000000Y-45000000D03*
X35000000Y-60000000D03*
X98500000Y-75500000D03*
X80000000Y-40000000D03*
X110000000Y-70000000D03*
X85000000Y-40000000D03*
X54000000Y-61500000D03*
X35000000Y-65000000D03*
X58000000Y-56000000D03*
X61000000Y-67500000D03*
X80000000Y-45000000D03*
X98500000Y-67000000D03*
X40000000Y-50000000D03*
X110000000Y-65000000D03*
X45000000Y-65000000D03*
%TO.N,+5V*%
X62627500Y-62627500D03*
X91000000Y-58500000D03*
X67000000Y-62500000D03*
X96000000Y-62000000D03*
X62000000Y-47500000D03*
X105000000Y-62000000D03*
X100500000Y-62000000D03*
X58000000Y-62500000D03*
X80100000Y-66000000D03*
%TO.N,/C_A0*%
X56000000Y-52500000D03*
%TO.N,/C_B0*%
X63500000Y-53000000D03*
%TO.N,/C_I0*%
X65000000Y-52500000D03*
%TO.N,/C_A1*%
X93500000Y-52500000D03*
%TO.N,/C_B1*%
X99500000Y-53500000D03*
%TO.N,/C_I1*%
X101000000Y-54000000D03*
%TO.N,/Cos0*%
X58000000Y-76000000D03*
X57990000Y-67010000D03*
%TO.N,/Sin0*%
X55000000Y-76000000D03*
X53000000Y-69000000D03*
%TO.N,/SEA_A0*%
X77000000Y-58500000D03*
X77000000Y-60250000D03*
%TO.N,/SEA_B0*%
X78000000Y-60750000D03*
X78000000Y-57750000D03*
%TO.N,/SEA_I1*%
X88500000Y-57000000D03*
X105750000Y-55250000D03*
%TO.N,/SEA_A1*%
X108000000Y-56500000D03*
X90000000Y-57500000D03*
%TO.N,/SEA_B1*%
X92000000Y-59500000D03*
X110000000Y-58500000D03*
%TO.N,/Sin1*%
X92500000Y-67000000D03*
X92490000Y-75490000D03*
%TO.N,/Cos1*%
X95500000Y-67000000D03*
X95500000Y-75500000D03*
%TD*%
D16*
%TO.N,+5V*%
X69000000Y-47500000D02*
X71000000Y-49500000D01*
D17*
X67000000Y-62500000D02*
X62755000Y-62500000D01*
D16*
X80100000Y-66000000D02*
X76100000Y-70000000D01*
X62000000Y-47500000D02*
X69000000Y-47500000D01*
D17*
X62627500Y-62627500D02*
X58127500Y-62627500D01*
D16*
X75000000Y-70000000D02*
X71000000Y-66000000D01*
X91000000Y-59562075D02*
X93437925Y-62000000D01*
D17*
X62755000Y-62500000D02*
X62627500Y-62627500D01*
X58127500Y-62627500D02*
X58000000Y-62500000D01*
D16*
X93437925Y-62000000D02*
X105000000Y-62000000D01*
X71000000Y-66000000D02*
X67500000Y-62500000D01*
X67500000Y-62500000D02*
X67000000Y-62500000D01*
X71000000Y-49500000D02*
X71000000Y-66000000D01*
X76100000Y-70000000D02*
X75000000Y-70000000D01*
X91000000Y-58500000D02*
X91000000Y-59562075D01*
D17*
%TO.N,/C_A0*%
X56000000Y-53910000D02*
X55990000Y-53920000D01*
X56000000Y-52500000D02*
X56000000Y-53910000D01*
%TO.N,/C_B0*%
X62580000Y-53920000D02*
X60490000Y-53920000D01*
X63500000Y-53000000D02*
X62580000Y-53920000D01*
%TO.N,/C_I0*%
X65000000Y-52500000D02*
X65000000Y-54010000D01*
X65000000Y-54010000D02*
X64990000Y-54020000D01*
%TO.N,/C_A1*%
X93500000Y-53910000D02*
X93490000Y-53920000D01*
X93500000Y-52500000D02*
X93500000Y-53910000D01*
%TO.N,/C_B1*%
X99500000Y-53500000D02*
X98410000Y-53500000D01*
X98410000Y-53500000D02*
X97990000Y-53920000D01*
%TO.N,/C_I1*%
X101440000Y-53920000D02*
X102490000Y-53920000D01*
X101000000Y-54000000D02*
X101360000Y-54000000D01*
X101360000Y-54000000D02*
X101440000Y-53920000D01*
D16*
%TO.N,/Cos0*%
X57000000Y-65000000D02*
X58000000Y-66000000D01*
X54500000Y-65000000D02*
X57000000Y-65000000D01*
X57990000Y-75990000D02*
X58000000Y-76000000D01*
X48490000Y-48675000D02*
X48490000Y-58990000D01*
X48490000Y-58990000D02*
X54500000Y-65000000D01*
X57990000Y-66010000D02*
X57990000Y-67010000D01*
X57990000Y-67010000D02*
X57990000Y-75990000D01*
X58000000Y-66000000D02*
X57990000Y-66010000D01*
%TO.N,/Sin0*%
X45000000Y-61000000D02*
X45000000Y-49145000D01*
X53010000Y-68990000D02*
X52990000Y-68990000D01*
X54990000Y-75990000D02*
X55000000Y-76000000D01*
X45000000Y-49145000D02*
X44530000Y-48675000D01*
X52990000Y-68990000D02*
X45000000Y-61000000D01*
X54990000Y-70990000D02*
X54990000Y-75990000D01*
X53000000Y-69000000D02*
X54990000Y-70990000D01*
X53000000Y-69000000D02*
X53010000Y-68990000D01*
D17*
%TO.N,/SEA_A0*%
X77000000Y-60250000D02*
X77000000Y-58500000D01*
%TO.N,/SEA_B0*%
X78000000Y-57750000D02*
X78000000Y-60750000D01*
%TO.N,/SEA_I1*%
X104500000Y-56500000D02*
X105750000Y-55250000D01*
X89000000Y-56500000D02*
X104500000Y-56500000D01*
X88500000Y-57000000D02*
X89000000Y-56500000D01*
%TO.N,/SEA_A1*%
X107000000Y-57500000D02*
X108000000Y-56500000D01*
X90000000Y-57500000D02*
X107000000Y-57500000D01*
%TO.N,/SEA_B1*%
X92000000Y-59500000D02*
X93000000Y-58500000D01*
X93000000Y-58500000D02*
X110000000Y-58500000D01*
D16*
%TO.N,/Sin1*%
X91500000Y-67000000D02*
X92500000Y-67000000D01*
X79530000Y-48675000D02*
X79530000Y-55030000D01*
X92500000Y-67000000D02*
X92500000Y-75480000D01*
X92500000Y-75480000D02*
X92490000Y-75490000D01*
X79530000Y-55030000D02*
X91500000Y-67000000D01*
%TO.N,/Cos1*%
X83490000Y-53490000D02*
X83490000Y-48675000D01*
X95500000Y-67000000D02*
X95500000Y-65500000D01*
X95500000Y-67000000D02*
X95500000Y-75500000D01*
X95500000Y-65500000D02*
X83490000Y-53490000D01*
%TD*%
%TA.AperFunction,Conductor*%
%TO.N,GND*%
G36*
X115002702Y-34500617D02*
G01*
X115386771Y-34517386D01*
X115397506Y-34518326D01*
X115775971Y-34568152D01*
X115786597Y-34570025D01*
X116159284Y-34652648D01*
X116169710Y-34655442D01*
X116533765Y-34770227D01*
X116543911Y-34773920D01*
X116896578Y-34920000D01*
X116906369Y-34924566D01*
X117244942Y-35100816D01*
X117254310Y-35106224D01*
X117576244Y-35311318D01*
X117585105Y-35317523D01*
X117887930Y-35549889D01*
X117896217Y-35556843D01*
X118177635Y-35814715D01*
X118185284Y-35822364D01*
X118443156Y-36103782D01*
X118450110Y-36112069D01*
X118682476Y-36414894D01*
X118688681Y-36423755D01*
X118893775Y-36745689D01*
X118899183Y-36755057D01*
X119075430Y-37093623D01*
X119080002Y-37103427D01*
X119226075Y-37456078D01*
X119229775Y-37466244D01*
X119344554Y-37830278D01*
X119347354Y-37840727D01*
X119429971Y-38213389D01*
X119431849Y-38224042D01*
X119481671Y-38602473D01*
X119482614Y-38613249D01*
X119496119Y-38922574D01*
X119499382Y-38997297D01*
X119499500Y-39002706D01*
X119499500Y-73997293D01*
X119499382Y-74002702D01*
X119482614Y-74386750D01*
X119481671Y-74397526D01*
X119431849Y-74775957D01*
X119429971Y-74786610D01*
X119347354Y-75159272D01*
X119344554Y-75169721D01*
X119229775Y-75533755D01*
X119226075Y-75543921D01*
X119080002Y-75896572D01*
X119075430Y-75906376D01*
X118899183Y-76244942D01*
X118893775Y-76254310D01*
X118688681Y-76576244D01*
X118682476Y-76585105D01*
X118450110Y-76887930D01*
X118443156Y-76896217D01*
X118185284Y-77177635D01*
X118177635Y-77185284D01*
X117896217Y-77443156D01*
X117887930Y-77450110D01*
X117585105Y-77682476D01*
X117576244Y-77688681D01*
X117254310Y-77893775D01*
X117244942Y-77899183D01*
X116906376Y-78075430D01*
X116896572Y-78080002D01*
X116543921Y-78226075D01*
X116533755Y-78229775D01*
X116169721Y-78344554D01*
X116159272Y-78347354D01*
X115786610Y-78429971D01*
X115775957Y-78431849D01*
X115397526Y-78481671D01*
X115386750Y-78482614D01*
X115002703Y-78499382D01*
X114997294Y-78499500D01*
X37002706Y-78499500D01*
X36997297Y-78499382D01*
X36613249Y-78482614D01*
X36602473Y-78481671D01*
X36224042Y-78431849D01*
X36213389Y-78429971D01*
X35840727Y-78347354D01*
X35830278Y-78344554D01*
X35466244Y-78229775D01*
X35456078Y-78226075D01*
X35103427Y-78080002D01*
X35093623Y-78075430D01*
X34755057Y-77899183D01*
X34745689Y-77893775D01*
X34423755Y-77688681D01*
X34414894Y-77682476D01*
X34112069Y-77450110D01*
X34103782Y-77443156D01*
X33822364Y-77185284D01*
X33814715Y-77177635D01*
X33556843Y-76896217D01*
X33549889Y-76887930D01*
X33493921Y-76814991D01*
X33317523Y-76585105D01*
X33311318Y-76576244D01*
X33269199Y-76510131D01*
X33106223Y-76254309D01*
X33100816Y-76244942D01*
X32924566Y-75906369D01*
X32919997Y-75896572D01*
X32919982Y-75896535D01*
X32773920Y-75543911D01*
X32770224Y-75533755D01*
X32655442Y-75169710D01*
X32652648Y-75159284D01*
X32570025Y-74786597D01*
X32568152Y-74775971D01*
X32518326Y-74397506D01*
X32517386Y-74386771D01*
X32500618Y-74002702D01*
X32500500Y-73997293D01*
X32500500Y-73818234D01*
X33300000Y-73818234D01*
X33300000Y-74181765D01*
X33335632Y-74543556D01*
X33406550Y-74900090D01*
X33406553Y-74900101D01*
X33512086Y-75247997D01*
X33651207Y-75583864D01*
X33651209Y-75583869D01*
X33822570Y-75904462D01*
X33822581Y-75904480D01*
X34024551Y-76206750D01*
X34211678Y-76434765D01*
X34211679Y-76434766D01*
X35705747Y-74940697D01*
X35779588Y-75042330D01*
X35957670Y-75220412D01*
X36059301Y-75294251D01*
X34565232Y-76788319D01*
X34565233Y-76788320D01*
X34793249Y-76975448D01*
X35095519Y-77177418D01*
X35095537Y-77177429D01*
X35416130Y-77348790D01*
X35416135Y-77348792D01*
X35752002Y-77487913D01*
X36099898Y-77593446D01*
X36099909Y-77593449D01*
X36456443Y-77664367D01*
X36818234Y-77700000D01*
X37181766Y-77700000D01*
X37543556Y-77664367D01*
X37900090Y-77593449D01*
X37900101Y-77593446D01*
X38247997Y-77487913D01*
X38583864Y-77348792D01*
X38583869Y-77348790D01*
X38904462Y-77177429D01*
X38904480Y-77177418D01*
X39206736Y-76975457D01*
X39206750Y-76975447D01*
X39434765Y-76788320D01*
X39434766Y-76788319D01*
X37940698Y-75294251D01*
X38042330Y-75220412D01*
X38220412Y-75042330D01*
X38294251Y-74940698D01*
X39788319Y-76434766D01*
X39788320Y-76434765D01*
X39975447Y-76206750D01*
X39975457Y-76206736D01*
X40177418Y-75904480D01*
X40177429Y-75904462D01*
X40348790Y-75583869D01*
X40348792Y-75583864D01*
X40487913Y-75247997D01*
X40593446Y-74900101D01*
X40593449Y-74900090D01*
X40664367Y-74543556D01*
X40700000Y-74181765D01*
X40700000Y-73818234D01*
X40664367Y-73456443D01*
X40593449Y-73099909D01*
X40593446Y-73099898D01*
X40487913Y-72752002D01*
X40348792Y-72416135D01*
X40348790Y-72416130D01*
X40177429Y-72095537D01*
X40177418Y-72095519D01*
X39975448Y-71793249D01*
X39788320Y-71565233D01*
X39788319Y-71565232D01*
X38294251Y-73059300D01*
X38220412Y-72957670D01*
X38042330Y-72779588D01*
X37940698Y-72705748D01*
X39434766Y-71211679D01*
X39434765Y-71211678D01*
X39206750Y-71024551D01*
X38904480Y-70822581D01*
X38904462Y-70822570D01*
X38583869Y-70651209D01*
X38583864Y-70651207D01*
X38247997Y-70512086D01*
X37900101Y-70406553D01*
X37900090Y-70406550D01*
X37543556Y-70335632D01*
X37181766Y-70300000D01*
X36818234Y-70300000D01*
X36456443Y-70335632D01*
X36099909Y-70406550D01*
X36099898Y-70406553D01*
X35752002Y-70512086D01*
X35416135Y-70651207D01*
X35416130Y-70651209D01*
X35095537Y-70822570D01*
X35095519Y-70822581D01*
X34793258Y-71024545D01*
X34793254Y-71024548D01*
X34565233Y-71211679D01*
X34565233Y-71211680D01*
X36059301Y-72705748D01*
X35957670Y-72779588D01*
X35779588Y-72957670D01*
X35705748Y-73059301D01*
X34211680Y-71565233D01*
X34211679Y-71565233D01*
X34024548Y-71793254D01*
X34024545Y-71793258D01*
X33822581Y-72095519D01*
X33822570Y-72095537D01*
X33651209Y-72416130D01*
X33651207Y-72416135D01*
X33512086Y-72752002D01*
X33406553Y-73099898D01*
X33406550Y-73099909D01*
X33335632Y-73456443D01*
X33300000Y-73818234D01*
X32500500Y-73818234D01*
X32500500Y-46816966D01*
X42199500Y-46816966D01*
X42199500Y-50533028D01*
X42199501Y-50533034D01*
X42210113Y-50652415D01*
X42266089Y-50848045D01*
X42266090Y-50848048D01*
X42266091Y-50848049D01*
X42360302Y-51028407D01*
X42360304Y-51028409D01*
X42488890Y-51186109D01*
X42533635Y-51222593D01*
X42646593Y-51314698D01*
X42826951Y-51408909D01*
X43022582Y-51464886D01*
X43141963Y-51475500D01*
X43875500Y-51475499D01*
X43942539Y-51495183D01*
X43988294Y-51547987D01*
X43999500Y-51599499D01*
X43999500Y-61098542D01*
X44009835Y-61150499D01*
X44009835Y-61150500D01*
X44037947Y-61291828D01*
X44037950Y-61291840D01*
X44053900Y-61330346D01*
X44113364Y-61473907D01*
X44113371Y-61473920D01*
X44222859Y-61637780D01*
X44222860Y-61637781D01*
X44222861Y-61637782D01*
X44362218Y-61777139D01*
X44362219Y-61777139D01*
X44369286Y-61784206D01*
X44369285Y-61784206D01*
X44369289Y-61784209D01*
X52041988Y-69456909D01*
X52065750Y-69492469D01*
X52066192Y-69492233D01*
X52068586Y-69496712D01*
X52068865Y-69497130D01*
X52069057Y-69497594D01*
X52069063Y-69497605D01*
X52184022Y-69669655D01*
X52330342Y-69815975D01*
X52330345Y-69815977D01*
X52502402Y-69930941D01*
X52502857Y-69931129D01*
X52503270Y-69931405D01*
X52507776Y-69933814D01*
X52507538Y-69934257D01*
X52543092Y-69958012D01*
X53953181Y-71368101D01*
X53986666Y-71429424D01*
X53989500Y-71455782D01*
X53989500Y-75683229D01*
X53987117Y-75707420D01*
X53949500Y-75896531D01*
X53949500Y-76103469D01*
X53989868Y-76306412D01*
X53989870Y-76306420D01*
X54043032Y-76434765D01*
X54069059Y-76497598D01*
X54097724Y-76540499D01*
X54184024Y-76669657D01*
X54330342Y-76815975D01*
X54330345Y-76815977D01*
X54502402Y-76930941D01*
X54693580Y-77010130D01*
X54896530Y-77050499D01*
X54896534Y-77050500D01*
X54896535Y-77050500D01*
X55103466Y-77050500D01*
X55103467Y-77050499D01*
X55306420Y-77010130D01*
X55497598Y-76930941D01*
X55669655Y-76815977D01*
X55815977Y-76669655D01*
X55930941Y-76497598D01*
X56010130Y-76306420D01*
X56050500Y-76103465D01*
X56050500Y-75896535D01*
X56010130Y-75693580D01*
X55999938Y-75668974D01*
X55990500Y-75621523D01*
X55990500Y-70891456D01*
X55952052Y-70698170D01*
X55952051Y-70698169D01*
X55952051Y-70698165D01*
X55952049Y-70698160D01*
X55876635Y-70516092D01*
X55876628Y-70516079D01*
X55767139Y-70352218D01*
X55767136Y-70352214D01*
X55624686Y-70209764D01*
X55624655Y-70209735D01*
X53958012Y-68543092D01*
X53934257Y-68507538D01*
X53933814Y-68507776D01*
X53931405Y-68503270D01*
X53931129Y-68502857D01*
X53930941Y-68502402D01*
X53815977Y-68330345D01*
X53815975Y-68330342D01*
X53669655Y-68184022D01*
X53497605Y-68069063D01*
X53497594Y-68069057D01*
X53497130Y-68068865D01*
X53496712Y-68068586D01*
X53492233Y-68066192D01*
X53492469Y-68065750D01*
X53456909Y-68041988D01*
X46036819Y-60621898D01*
X46003334Y-60560575D01*
X46000500Y-60534217D01*
X46000500Y-51568945D01*
X46020185Y-51501906D01*
X46072989Y-51456151D01*
X46090383Y-51449730D01*
X46233049Y-51408909D01*
X46413407Y-51314698D01*
X46571109Y-51186109D01*
X46699698Y-51028407D01*
X46751176Y-50929856D01*
X46799660Y-50879552D01*
X46867648Y-50863444D01*
X46933551Y-50886650D01*
X46948764Y-50899589D01*
X46950092Y-50900917D01*
X46950099Y-50900923D01*
X47040122Y-50970000D01*
X47192466Y-51086897D01*
X47427502Y-51222595D01*
X47475716Y-51273160D01*
X47489500Y-51329980D01*
X47489500Y-59088544D01*
X47527947Y-59281833D01*
X47527949Y-59281836D01*
X47542089Y-59315975D01*
X47550038Y-59335164D01*
X47603366Y-59463911D01*
X47603371Y-59463920D01*
X47712859Y-59627780D01*
X47712860Y-59627781D01*
X47712861Y-59627782D01*
X47852218Y-59767139D01*
X47852219Y-59767139D01*
X47859286Y-59774206D01*
X47859285Y-59774206D01*
X47859289Y-59774209D01*
X53862215Y-65777137D01*
X53862219Y-65777140D01*
X54026079Y-65886628D01*
X54026088Y-65886633D01*
X54061884Y-65901460D01*
X54208165Y-65962052D01*
X54396428Y-65999500D01*
X54401455Y-66000500D01*
X54401458Y-66000501D01*
X54401460Y-66000501D01*
X54604655Y-66000501D01*
X54604675Y-66000500D01*
X56534218Y-66000500D01*
X56601257Y-66020185D01*
X56621899Y-66036819D01*
X56953181Y-66368101D01*
X56967884Y-66395028D01*
X56984477Y-66420847D01*
X56985368Y-66427047D01*
X56986666Y-66429424D01*
X56989500Y-66455782D01*
X56989500Y-66655666D01*
X56981157Y-66697607D01*
X56981638Y-66697753D01*
X56980159Y-66702628D01*
X56980062Y-66703116D01*
X56979871Y-66703576D01*
X56979868Y-66703587D01*
X56939500Y-66906530D01*
X56939500Y-67113469D01*
X56979868Y-67316413D01*
X56979871Y-67316424D01*
X56980059Y-67316877D01*
X56980154Y-67317357D01*
X56981639Y-67322251D01*
X56981157Y-67322397D01*
X56989500Y-67364334D01*
X56989500Y-75683229D01*
X56987117Y-75707420D01*
X56949500Y-75896531D01*
X56949500Y-76103469D01*
X56989868Y-76306412D01*
X56989870Y-76306420D01*
X57043032Y-76434765D01*
X57069059Y-76497598D01*
X57097724Y-76540499D01*
X57184024Y-76669657D01*
X57330342Y-76815975D01*
X57330345Y-76815977D01*
X57502402Y-76930941D01*
X57693580Y-77010130D01*
X57896530Y-77050499D01*
X57896534Y-77050500D01*
X57896535Y-77050500D01*
X58103466Y-77050500D01*
X58103467Y-77050499D01*
X58306420Y-77010130D01*
X58497598Y-76930941D01*
X58669655Y-76815977D01*
X58815977Y-76669655D01*
X58930941Y-76497598D01*
X59010130Y-76306420D01*
X59050500Y-76103465D01*
X59050500Y-75896535D01*
X59010130Y-75693580D01*
X58999938Y-75668974D01*
X58990500Y-75621523D01*
X58990500Y-73125441D01*
X71339500Y-73125441D01*
X71339500Y-73374558D01*
X71339501Y-73374575D01*
X71372017Y-73621561D01*
X71436498Y-73862207D01*
X71531830Y-74092361D01*
X71531837Y-74092376D01*
X71656400Y-74308126D01*
X71808060Y-74505774D01*
X71808066Y-74505781D01*
X71984218Y-74681933D01*
X71984225Y-74681939D01*
X72181873Y-74833599D01*
X72397623Y-74958162D01*
X72397638Y-74958169D01*
X72496825Y-74999253D01*
X72627793Y-75053502D01*
X72868435Y-75117982D01*
X73115435Y-75150500D01*
X73115442Y-75150500D01*
X73364558Y-75150500D01*
X73364565Y-75150500D01*
X73611565Y-75117982D01*
X73852207Y-75053502D01*
X74082373Y-74958164D01*
X74298127Y-74833599D01*
X74495776Y-74681938D01*
X74671938Y-74505776D01*
X74823599Y-74308127D01*
X74948164Y-74092373D01*
X75043502Y-73862207D01*
X75107982Y-73621565D01*
X75140500Y-73374565D01*
X75140500Y-73125441D01*
X84039500Y-73125441D01*
X84039500Y-73374558D01*
X84039501Y-73374575D01*
X84072017Y-73621561D01*
X84136498Y-73862207D01*
X84231830Y-74092361D01*
X84231837Y-74092376D01*
X84356400Y-74308126D01*
X84508060Y-74505774D01*
X84508066Y-74505781D01*
X84684218Y-74681933D01*
X84684225Y-74681939D01*
X84881873Y-74833599D01*
X85097623Y-74958162D01*
X85097638Y-74958169D01*
X85196825Y-74999253D01*
X85327793Y-75053502D01*
X85568435Y-75117982D01*
X85815435Y-75150500D01*
X85815442Y-75150500D01*
X86064558Y-75150500D01*
X86064565Y-75150500D01*
X86311565Y-75117982D01*
X86552207Y-75053502D01*
X86782373Y-74958164D01*
X86998127Y-74833599D01*
X87195776Y-74681938D01*
X87371938Y-74505776D01*
X87523599Y-74308127D01*
X87648164Y-74092373D01*
X87743502Y-73862207D01*
X87807982Y-73621565D01*
X87840500Y-73374565D01*
X87840500Y-73125435D01*
X87807982Y-72878435D01*
X87743502Y-72637793D01*
X87661324Y-72439397D01*
X87648169Y-72407638D01*
X87648162Y-72407623D01*
X87523599Y-72191873D01*
X87371939Y-71994225D01*
X87371933Y-71994218D01*
X87195781Y-71818066D01*
X87195774Y-71818060D01*
X86998126Y-71666400D01*
X86782376Y-71541837D01*
X86782361Y-71541830D01*
X86552207Y-71446498D01*
X86311561Y-71382017D01*
X86064575Y-71349501D01*
X86064570Y-71349500D01*
X86064565Y-71349500D01*
X85815435Y-71349500D01*
X85815429Y-71349500D01*
X85815424Y-71349501D01*
X85568438Y-71382017D01*
X85327792Y-71446498D01*
X85097638Y-71541830D01*
X85097623Y-71541837D01*
X84881873Y-71666400D01*
X84684225Y-71818060D01*
X84684218Y-71818066D01*
X84508066Y-71994218D01*
X84508060Y-71994225D01*
X84356400Y-72191873D01*
X84231837Y-72407623D01*
X84231830Y-72407638D01*
X84136498Y-72637792D01*
X84072017Y-72878438D01*
X84039501Y-73125424D01*
X84039500Y-73125441D01*
X75140500Y-73125441D01*
X75140500Y-73125435D01*
X75107982Y-72878435D01*
X75043502Y-72637793D01*
X74961324Y-72439397D01*
X74948169Y-72407638D01*
X74948162Y-72407623D01*
X74823599Y-72191873D01*
X74671939Y-71994225D01*
X74671933Y-71994218D01*
X74495781Y-71818066D01*
X74495774Y-71818060D01*
X74298126Y-71666400D01*
X74082376Y-71541837D01*
X74082361Y-71541830D01*
X73852207Y-71446498D01*
X73611561Y-71382017D01*
X73364575Y-71349501D01*
X73364570Y-71349500D01*
X73364565Y-71349500D01*
X73115435Y-71349500D01*
X73115429Y-71349500D01*
X73115424Y-71349501D01*
X72868438Y-71382017D01*
X72627792Y-71446498D01*
X72397638Y-71541830D01*
X72397623Y-71541837D01*
X72181873Y-71666400D01*
X71984225Y-71818060D01*
X71984218Y-71818066D01*
X71808066Y-71994218D01*
X71808060Y-71994225D01*
X71656400Y-72191873D01*
X71531837Y-72407623D01*
X71531830Y-72407638D01*
X71436498Y-72637792D01*
X71372017Y-72878438D01*
X71339501Y-73125424D01*
X71339500Y-73125441D01*
X58990500Y-73125441D01*
X58990500Y-67364334D01*
X58998842Y-67322397D01*
X58998361Y-67322251D01*
X58999845Y-67317357D01*
X58999941Y-67316877D01*
X59000128Y-67316424D01*
X59000130Y-67316420D01*
X59040500Y-67113465D01*
X59040500Y-66906535D01*
X59000130Y-66703580D01*
X58999938Y-66703116D01*
X58999840Y-66702628D01*
X58998362Y-66697753D01*
X58998842Y-66697607D01*
X58990500Y-66655666D01*
X58990500Y-66161030D01*
X58992883Y-66136837D01*
X58999522Y-66103465D01*
X59000501Y-66098541D01*
X59000501Y-65901460D01*
X59000501Y-65901457D01*
X59000500Y-65901455D01*
X58997552Y-65886633D01*
X58962052Y-65708165D01*
X58886632Y-65526086D01*
X58886631Y-65526085D01*
X58886628Y-65526079D01*
X58777140Y-65362219D01*
X58777137Y-65362215D01*
X57784209Y-64369289D01*
X57784206Y-64369285D01*
X57784206Y-64369286D01*
X57777139Y-64362219D01*
X57777139Y-64362218D01*
X57637782Y-64222861D01*
X57637781Y-64222860D01*
X57637780Y-64222859D01*
X57473920Y-64113371D01*
X57473911Y-64113366D01*
X57401315Y-64083296D01*
X57345165Y-64060038D01*
X57291836Y-64037949D01*
X57291832Y-64037948D01*
X57291828Y-64037946D01*
X57195188Y-64018724D01*
X57098544Y-63999500D01*
X57098541Y-63999500D01*
X54965783Y-63999500D01*
X54898744Y-63979815D01*
X54878102Y-63963181D01*
X53311451Y-62396530D01*
X56949500Y-62396530D01*
X56949500Y-62603469D01*
X56989868Y-62806412D01*
X56989870Y-62806420D01*
X57041448Y-62930941D01*
X57069059Y-62997598D01*
X57087524Y-63025233D01*
X57184024Y-63169657D01*
X57330342Y-63315975D01*
X57330345Y-63315977D01*
X57502402Y-63430941D01*
X57693580Y-63510130D01*
X57869744Y-63545171D01*
X57896530Y-63550499D01*
X57896534Y-63550500D01*
X57896535Y-63550500D01*
X58103466Y-63550500D01*
X58103466Y-63550499D01*
X58204601Y-63530382D01*
X58228792Y-63528000D01*
X62046729Y-63528000D01*
X62113768Y-63547685D01*
X62115591Y-63548879D01*
X62129902Y-63558441D01*
X62321080Y-63637630D01*
X62524030Y-63677999D01*
X62524034Y-63678000D01*
X62524035Y-63678000D01*
X62730966Y-63678000D01*
X62730967Y-63677999D01*
X62933920Y-63637630D01*
X63125098Y-63558441D01*
X63297155Y-63443477D01*
X63297158Y-63443474D01*
X63303814Y-63436819D01*
X63365137Y-63403334D01*
X63391495Y-63400500D01*
X66419229Y-63400500D01*
X66486268Y-63420185D01*
X66488091Y-63421379D01*
X66502402Y-63430941D01*
X66693580Y-63510130D01*
X66869744Y-63545171D01*
X66896530Y-63550499D01*
X66896534Y-63550500D01*
X67084218Y-63550500D01*
X67151257Y-63570185D01*
X67171899Y-63586819D01*
X70222860Y-66637781D01*
X70369283Y-66784204D01*
X70369288Y-66784208D01*
X74222860Y-70637781D01*
X74222861Y-70637782D01*
X74362218Y-70777139D01*
X74362219Y-70777140D01*
X74526079Y-70886628D01*
X74526092Y-70886635D01*
X74654833Y-70939961D01*
X74697744Y-70957735D01*
X74708164Y-70962051D01*
X74804812Y-70981275D01*
X74853135Y-70990887D01*
X74901458Y-71000500D01*
X74901459Y-71000500D01*
X76198542Y-71000500D01*
X76229566Y-70994328D01*
X76295188Y-70981275D01*
X76391836Y-70962051D01*
X76445165Y-70939961D01*
X76573914Y-70886632D01*
X76737782Y-70777139D01*
X76877139Y-70637782D01*
X76877139Y-70637780D01*
X76887347Y-70627573D01*
X76887348Y-70627570D01*
X80556909Y-66958009D01*
X80592461Y-66934259D01*
X80592223Y-66933814D01*
X80596747Y-66931395D01*
X80597150Y-66931126D01*
X80597598Y-66930941D01*
X80769655Y-66815977D01*
X80915977Y-66669655D01*
X81030941Y-66497598D01*
X81110130Y-66306420D01*
X81150500Y-66103465D01*
X81150500Y-65896535D01*
X81110130Y-65693580D01*
X81030941Y-65502402D01*
X80915977Y-65330345D01*
X80915975Y-65330342D01*
X80769657Y-65184024D01*
X80670724Y-65117920D01*
X80597598Y-65069059D01*
X80406420Y-64989870D01*
X80406412Y-64989868D01*
X80203469Y-64949500D01*
X80203465Y-64949500D01*
X79996535Y-64949500D01*
X79996530Y-64949500D01*
X79793587Y-64989868D01*
X79793579Y-64989870D01*
X79602403Y-65069058D01*
X79430342Y-65184024D01*
X79284024Y-65330342D01*
X79169056Y-65502407D01*
X79169052Y-65502413D01*
X79168862Y-65502874D01*
X79168584Y-65503288D01*
X79166185Y-65507778D01*
X79165742Y-65507541D01*
X79141988Y-65543089D01*
X75721899Y-68963181D01*
X75694971Y-68977884D01*
X75669153Y-68994477D01*
X75662952Y-68995368D01*
X75660576Y-68996666D01*
X75634218Y-68999500D01*
X75465783Y-68999500D01*
X75398744Y-68979815D01*
X75378102Y-68963181D01*
X72036819Y-65621898D01*
X72003334Y-65560575D01*
X72000500Y-65534217D01*
X72000500Y-58396530D01*
X75949500Y-58396530D01*
X75949500Y-58603469D01*
X75989868Y-58806412D01*
X75989870Y-58806420D01*
X76069058Y-58997596D01*
X76078601Y-59011878D01*
X76099480Y-59078555D01*
X76099500Y-59080770D01*
X76099500Y-59669228D01*
X76079815Y-59736267D01*
X76078604Y-59738117D01*
X76069057Y-59752404D01*
X75989870Y-59943579D01*
X75989868Y-59943587D01*
X75949500Y-60146530D01*
X75949500Y-60353469D01*
X75989868Y-60556412D01*
X75989870Y-60556420D01*
X76069058Y-60747596D01*
X76184024Y-60919657D01*
X76330342Y-61065975D01*
X76330345Y-61065977D01*
X76502402Y-61180941D01*
X76693580Y-61260130D01*
X76852938Y-61291828D01*
X76896530Y-61300499D01*
X76896534Y-61300500D01*
X77038127Y-61300500D01*
X77105166Y-61320185D01*
X77141229Y-61355609D01*
X77184024Y-61419657D01*
X77330342Y-61565975D01*
X77330345Y-61565977D01*
X77502402Y-61680941D01*
X77693580Y-61760130D01*
X77896530Y-61800499D01*
X77896534Y-61800500D01*
X77896535Y-61800500D01*
X78103466Y-61800500D01*
X78103467Y-61800499D01*
X78306420Y-61760130D01*
X78497598Y-61680941D01*
X78669655Y-61565977D01*
X78815977Y-61419655D01*
X78930941Y-61247598D01*
X79010130Y-61056420D01*
X79050500Y-60853465D01*
X79050500Y-60646535D01*
X79010130Y-60443580D01*
X78930941Y-60252402D01*
X78921395Y-60238116D01*
X78900520Y-60171439D01*
X78900500Y-60169228D01*
X78900500Y-58330770D01*
X78920185Y-58263731D01*
X78921399Y-58261878D01*
X78930941Y-58247598D01*
X79010130Y-58056420D01*
X79050500Y-57853465D01*
X79050500Y-57646535D01*
X79010130Y-57443580D01*
X78930941Y-57252402D01*
X78815977Y-57080345D01*
X78815975Y-57080342D01*
X78669657Y-56934024D01*
X78583626Y-56876541D01*
X78497598Y-56819059D01*
X78306420Y-56739870D01*
X78306412Y-56739868D01*
X78103469Y-56699500D01*
X78103465Y-56699500D01*
X77896535Y-56699500D01*
X77896530Y-56699500D01*
X77693587Y-56739868D01*
X77693579Y-56739870D01*
X77502403Y-56819058D01*
X77330342Y-56934024D01*
X77184024Y-57080342D01*
X77069058Y-57252403D01*
X77019125Y-57372953D01*
X76975284Y-57427356D01*
X76908990Y-57449421D01*
X76904564Y-57449500D01*
X76896530Y-57449500D01*
X76693587Y-57489868D01*
X76693579Y-57489870D01*
X76502403Y-57569058D01*
X76330342Y-57684024D01*
X76184024Y-57830342D01*
X76069058Y-58002403D01*
X75989870Y-58193579D01*
X75989868Y-58193587D01*
X75949500Y-58396530D01*
X72000500Y-58396530D01*
X72000500Y-49401456D01*
X71962052Y-49208170D01*
X71962051Y-49208169D01*
X71962051Y-49208165D01*
X71962049Y-49208160D01*
X71886635Y-49026092D01*
X71886628Y-49026079D01*
X71777139Y-48862218D01*
X71777136Y-48862214D01*
X71634686Y-48719764D01*
X71634655Y-48719735D01*
X69781479Y-46866559D01*
X69781459Y-46866537D01*
X69731888Y-46816966D01*
X77199500Y-46816966D01*
X77199500Y-50533028D01*
X77199501Y-50533034D01*
X77210113Y-50652415D01*
X77266089Y-50848045D01*
X77266090Y-50848048D01*
X77266091Y-50848049D01*
X77360302Y-51028407D01*
X77360304Y-51028409D01*
X77488890Y-51186109D01*
X77533635Y-51222593D01*
X77646593Y-51314698D01*
X77826951Y-51408909D01*
X78022582Y-51464886D01*
X78141963Y-51475500D01*
X78405501Y-51475499D01*
X78472539Y-51495183D01*
X78518294Y-51547987D01*
X78529500Y-51599499D01*
X78529500Y-55128544D01*
X78554437Y-55253910D01*
X78567946Y-55321827D01*
X78567949Y-55321837D01*
X78643364Y-55503907D01*
X78643371Y-55503920D01*
X78752859Y-55667780D01*
X78752860Y-55667781D01*
X78752861Y-55667782D01*
X78892218Y-55807139D01*
X78892219Y-55807139D01*
X78899286Y-55814206D01*
X78899285Y-55814206D01*
X78899288Y-55814208D01*
X90722860Y-67637781D01*
X90722861Y-67637782D01*
X90862218Y-67777139D01*
X91026086Y-67886632D01*
X91132745Y-67930811D01*
X91208164Y-67962051D01*
X91278301Y-67976002D01*
X91399691Y-68000149D01*
X91461602Y-68032534D01*
X91496176Y-68093250D01*
X91499500Y-68121766D01*
X91499500Y-75111523D01*
X91490062Y-75158974D01*
X91479870Y-75183580D01*
X91479868Y-75183587D01*
X91439500Y-75386530D01*
X91439500Y-75593469D01*
X91479868Y-75796412D01*
X91479870Y-75796420D01*
X91525415Y-75906376D01*
X91559059Y-75987598D01*
X91616541Y-76073626D01*
X91674024Y-76159657D01*
X91820342Y-76305975D01*
X91820345Y-76305977D01*
X91992402Y-76420941D01*
X92183580Y-76500130D01*
X92386530Y-76540499D01*
X92386534Y-76540500D01*
X92386535Y-76540500D01*
X92593466Y-76540500D01*
X92593467Y-76540499D01*
X92796420Y-76500130D01*
X92987598Y-76420941D01*
X93159655Y-76305977D01*
X93305977Y-76159655D01*
X93420941Y-75987598D01*
X93500130Y-75796420D01*
X93540500Y-75593465D01*
X93540500Y-75386535D01*
X93502883Y-75197420D01*
X93500500Y-75173229D01*
X93500500Y-67354334D01*
X93508842Y-67312397D01*
X93508361Y-67312251D01*
X93509845Y-67307357D01*
X93509941Y-67306877D01*
X93510128Y-67306424D01*
X93510130Y-67306420D01*
X93550500Y-67103465D01*
X93550500Y-66896535D01*
X93510130Y-66693580D01*
X93430941Y-66502402D01*
X93315977Y-66330345D01*
X93315975Y-66330342D01*
X93169657Y-66184024D01*
X93083626Y-66126541D01*
X92997598Y-66069059D01*
X92879606Y-66020185D01*
X92806420Y-65989870D01*
X92806412Y-65989868D01*
X92603469Y-65949500D01*
X92603465Y-65949500D01*
X92396535Y-65949500D01*
X92396530Y-65949500D01*
X92193587Y-65989868D01*
X92193576Y-65989871D01*
X92193116Y-65990062D01*
X92192628Y-65990159D01*
X92187753Y-65991638D01*
X92187607Y-65991157D01*
X92184940Y-65991688D01*
X92180601Y-65994477D01*
X92145666Y-65999500D01*
X91965783Y-65999500D01*
X91898744Y-65979815D01*
X91878102Y-65963181D01*
X80566819Y-54651898D01*
X80533334Y-54590575D01*
X80530500Y-54564217D01*
X80530500Y-51599499D01*
X80550185Y-51532460D01*
X80602989Y-51486705D01*
X80654500Y-51475499D01*
X80918028Y-51475499D01*
X80918036Y-51475499D01*
X81037418Y-51464886D01*
X81233049Y-51408909D01*
X81413407Y-51314698D01*
X81571109Y-51186109D01*
X81699698Y-51028407D01*
X81751176Y-50929856D01*
X81799660Y-50879552D01*
X81867648Y-50863444D01*
X81933551Y-50886650D01*
X81948764Y-50899589D01*
X81950092Y-50900917D01*
X81950099Y-50900923D01*
X82040122Y-50970000D01*
X82192466Y-51086897D01*
X82427502Y-51222595D01*
X82475716Y-51273160D01*
X82489500Y-51329980D01*
X82489500Y-53588541D01*
X82489500Y-53588543D01*
X82489499Y-53588543D01*
X82527947Y-53781829D01*
X82527950Y-53781839D01*
X82603364Y-53963907D01*
X82603371Y-53963920D01*
X82712860Y-54127781D01*
X82712863Y-54127785D01*
X82856537Y-54271459D01*
X82856559Y-54271479D01*
X94463181Y-65878101D01*
X94496666Y-65939424D01*
X94499500Y-65965782D01*
X94499500Y-66645666D01*
X94491157Y-66687607D01*
X94491638Y-66687753D01*
X94490159Y-66692628D01*
X94490062Y-66693116D01*
X94489871Y-66693576D01*
X94489868Y-66693587D01*
X94449500Y-66896530D01*
X94449500Y-67103469D01*
X94489868Y-67306413D01*
X94489871Y-67306424D01*
X94490059Y-67306877D01*
X94490154Y-67307357D01*
X94491639Y-67312251D01*
X94491157Y-67312397D01*
X94499500Y-67354334D01*
X94499500Y-75145666D01*
X94491157Y-75187607D01*
X94491638Y-75187753D01*
X94490159Y-75192628D01*
X94490062Y-75193116D01*
X94489871Y-75193576D01*
X94489868Y-75193587D01*
X94449500Y-75396530D01*
X94449500Y-75603469D01*
X94489868Y-75806412D01*
X94489870Y-75806420D01*
X94569058Y-75997596D01*
X94684024Y-76169657D01*
X94830342Y-76315975D01*
X94830345Y-76315977D01*
X95002402Y-76430941D01*
X95193580Y-76510130D01*
X95396530Y-76550499D01*
X95396534Y-76550500D01*
X95396535Y-76550500D01*
X95603466Y-76550500D01*
X95603467Y-76550499D01*
X95806420Y-76510130D01*
X95997598Y-76430941D01*
X96169655Y-76315977D01*
X96315977Y-76169655D01*
X96430941Y-75997598D01*
X96510130Y-75806420D01*
X96550500Y-75603465D01*
X96550500Y-75396535D01*
X96510130Y-75193580D01*
X96509938Y-75193116D01*
X96509840Y-75192628D01*
X96508362Y-75187753D01*
X96508842Y-75187607D01*
X96500500Y-75145666D01*
X96500500Y-73818234D01*
X111300000Y-73818234D01*
X111300000Y-74181765D01*
X111335632Y-74543556D01*
X111406550Y-74900090D01*
X111406553Y-74900101D01*
X111512086Y-75247997D01*
X111651207Y-75583864D01*
X111651209Y-75583869D01*
X111822570Y-75904462D01*
X111822581Y-75904480D01*
X112024551Y-76206750D01*
X112211678Y-76434765D01*
X112211679Y-76434766D01*
X113705747Y-74940697D01*
X113779588Y-75042330D01*
X113957670Y-75220412D01*
X114059301Y-75294251D01*
X112565232Y-76788319D01*
X112565233Y-76788320D01*
X112793249Y-76975448D01*
X113095519Y-77177418D01*
X113095537Y-77177429D01*
X113416130Y-77348790D01*
X113416135Y-77348792D01*
X113752002Y-77487913D01*
X114099898Y-77593446D01*
X114099909Y-77593449D01*
X114456443Y-77664367D01*
X114818234Y-77700000D01*
X115181766Y-77700000D01*
X115543556Y-77664367D01*
X115900090Y-77593449D01*
X115900101Y-77593446D01*
X116247997Y-77487913D01*
X116583864Y-77348792D01*
X116583869Y-77348790D01*
X116904462Y-77177429D01*
X116904480Y-77177418D01*
X117206736Y-76975457D01*
X117206750Y-76975447D01*
X117434765Y-76788320D01*
X117434766Y-76788319D01*
X115940698Y-75294251D01*
X116042330Y-75220412D01*
X116220412Y-75042330D01*
X116294251Y-74940698D01*
X117788319Y-76434766D01*
X117788320Y-76434765D01*
X117975447Y-76206750D01*
X117975457Y-76206736D01*
X118177418Y-75904480D01*
X118177429Y-75904462D01*
X118348790Y-75583869D01*
X118348792Y-75583864D01*
X118487913Y-75247997D01*
X118593446Y-74900101D01*
X118593449Y-74900090D01*
X118664367Y-74543556D01*
X118700000Y-74181765D01*
X118700000Y-73818234D01*
X118664367Y-73456443D01*
X118593449Y-73099909D01*
X118593446Y-73099898D01*
X118487913Y-72752002D01*
X118348792Y-72416135D01*
X118348790Y-72416130D01*
X118177429Y-72095537D01*
X118177418Y-72095519D01*
X117975448Y-71793249D01*
X117788320Y-71565233D01*
X117788319Y-71565232D01*
X116294251Y-73059300D01*
X116220412Y-72957670D01*
X116042330Y-72779588D01*
X115940698Y-72705748D01*
X117434766Y-71211679D01*
X117434765Y-71211678D01*
X117206750Y-71024551D01*
X116904480Y-70822581D01*
X116904462Y-70822570D01*
X116583869Y-70651209D01*
X116583864Y-70651207D01*
X116247997Y-70512086D01*
X115900101Y-70406553D01*
X115900090Y-70406550D01*
X115543556Y-70335632D01*
X115181766Y-70300000D01*
X114818234Y-70300000D01*
X114456443Y-70335632D01*
X114099909Y-70406550D01*
X114099898Y-70406553D01*
X113752002Y-70512086D01*
X113416135Y-70651207D01*
X113416130Y-70651209D01*
X113095537Y-70822570D01*
X113095519Y-70822581D01*
X112793258Y-71024545D01*
X112793254Y-71024548D01*
X112565233Y-71211679D01*
X112565233Y-71211680D01*
X114059301Y-72705748D01*
X113957670Y-72779588D01*
X113779588Y-72957670D01*
X113705748Y-73059301D01*
X112211680Y-71565233D01*
X112211679Y-71565233D01*
X112024548Y-71793254D01*
X112024545Y-71793258D01*
X111822581Y-72095519D01*
X111822570Y-72095537D01*
X111651209Y-72416130D01*
X111651207Y-72416135D01*
X111512086Y-72752002D01*
X111406553Y-73099898D01*
X111406550Y-73099909D01*
X111335632Y-73456443D01*
X111300000Y-73818234D01*
X96500500Y-73818234D01*
X96500500Y-67354334D01*
X96508842Y-67312397D01*
X96508361Y-67312251D01*
X96509845Y-67307357D01*
X96509941Y-67306877D01*
X96510128Y-67306424D01*
X96510130Y-67306420D01*
X96550500Y-67103465D01*
X96550500Y-66896535D01*
X96510130Y-66693580D01*
X96509938Y-66693116D01*
X96509840Y-66692628D01*
X96508362Y-66687753D01*
X96508842Y-66687607D01*
X96500500Y-66645666D01*
X96500500Y-65401456D01*
X96486354Y-65330342D01*
X96478694Y-65291835D01*
X96462051Y-65208164D01*
X96426927Y-65123368D01*
X96386632Y-65026086D01*
X96335459Y-64949500D01*
X96277139Y-64862217D01*
X96134686Y-64719764D01*
X96134655Y-64719735D01*
X94627101Y-63212181D01*
X94593616Y-63150858D01*
X94598600Y-63081166D01*
X94640472Y-63025233D01*
X94705936Y-63000816D01*
X94714782Y-63000500D01*
X95645666Y-63000500D01*
X95687607Y-63008842D01*
X95687753Y-63008362D01*
X95692628Y-63009840D01*
X95693116Y-63009938D01*
X95693580Y-63010130D01*
X95896530Y-63050499D01*
X95896534Y-63050500D01*
X95896535Y-63050500D01*
X96103466Y-63050500D01*
X96103467Y-63050499D01*
X96306420Y-63010130D01*
X96306884Y-63009938D01*
X96307371Y-63009840D01*
X96312247Y-63008362D01*
X96312392Y-63008842D01*
X96354334Y-63000500D01*
X100145666Y-63000500D01*
X100187607Y-63008842D01*
X100187753Y-63008362D01*
X100192628Y-63009840D01*
X100193116Y-63009938D01*
X100193580Y-63010130D01*
X100396530Y-63050499D01*
X100396534Y-63050500D01*
X100396535Y-63050500D01*
X100603466Y-63050500D01*
X100603467Y-63050499D01*
X100806420Y-63010130D01*
X100806884Y-63009938D01*
X100807371Y-63009840D01*
X100812247Y-63008362D01*
X100812392Y-63008842D01*
X100854334Y-63000500D01*
X104645666Y-63000500D01*
X104687607Y-63008842D01*
X104687753Y-63008362D01*
X104692628Y-63009840D01*
X104693116Y-63009938D01*
X104693580Y-63010130D01*
X104896530Y-63050499D01*
X104896534Y-63050500D01*
X104896535Y-63050500D01*
X105103466Y-63050500D01*
X105103467Y-63050499D01*
X105306420Y-63010130D01*
X105497598Y-62930941D01*
X105669655Y-62815977D01*
X105815977Y-62669655D01*
X105930941Y-62497598D01*
X106010130Y-62306420D01*
X106050500Y-62103465D01*
X106050500Y-61896535D01*
X106010130Y-61693580D01*
X105930941Y-61502402D01*
X105815977Y-61330345D01*
X105815975Y-61330342D01*
X105669657Y-61184024D01*
X105583626Y-61126541D01*
X105497598Y-61069059D01*
X105490157Y-61065977D01*
X105306420Y-60989870D01*
X105306412Y-60989868D01*
X105103469Y-60949500D01*
X105103465Y-60949500D01*
X104896535Y-60949500D01*
X104896530Y-60949500D01*
X104693587Y-60989868D01*
X104693576Y-60989871D01*
X104693116Y-60990062D01*
X104692628Y-60990159D01*
X104687753Y-60991638D01*
X104687607Y-60991157D01*
X104645666Y-60999500D01*
X100854334Y-60999500D01*
X100812392Y-60991157D01*
X100812247Y-60991638D01*
X100807371Y-60990159D01*
X100806884Y-60990062D01*
X100806423Y-60989871D01*
X100806421Y-60989870D01*
X100806420Y-60989870D01*
X100806417Y-60989869D01*
X100806412Y-60989868D01*
X100603469Y-60949500D01*
X100603465Y-60949500D01*
X100396535Y-60949500D01*
X100396530Y-60949500D01*
X100193587Y-60989868D01*
X100193576Y-60989871D01*
X100193116Y-60990062D01*
X100192628Y-60990159D01*
X100187753Y-60991638D01*
X100187607Y-60991157D01*
X100145666Y-60999500D01*
X96354334Y-60999500D01*
X96312392Y-60991157D01*
X96312247Y-60991638D01*
X96307371Y-60990159D01*
X96306884Y-60990062D01*
X96306423Y-60989871D01*
X96306421Y-60989870D01*
X96306420Y-60989870D01*
X96306417Y-60989869D01*
X96306412Y-60989868D01*
X96103469Y-60949500D01*
X96103465Y-60949500D01*
X95896535Y-60949500D01*
X95896530Y-60949500D01*
X95693587Y-60989868D01*
X95693576Y-60989871D01*
X95693116Y-60990062D01*
X95692628Y-60990159D01*
X95687753Y-60991638D01*
X95687607Y-60991157D01*
X95645666Y-60999500D01*
X93903708Y-60999500D01*
X93836669Y-60979815D01*
X93816027Y-60963181D01*
X92965950Y-60113104D01*
X92957102Y-60096901D01*
X92944186Y-60083713D01*
X92940706Y-60066873D01*
X92932465Y-60051781D01*
X92933781Y-60033367D01*
X92930046Y-60015289D01*
X92937186Y-59985758D01*
X92937449Y-59982089D01*
X92937907Y-59980882D01*
X92938457Y-59979450D01*
X93010130Y-59806420D01*
X93015555Y-59779141D01*
X93019374Y-59769221D01*
X93034400Y-59749577D01*
X93045863Y-59727663D01*
X93047361Y-59726137D01*
X93336680Y-59436819D01*
X93398003Y-59403334D01*
X93424361Y-59400500D01*
X109419229Y-59400500D01*
X109486268Y-59420185D01*
X109488091Y-59421379D01*
X109502402Y-59430941D01*
X109693580Y-59510130D01*
X109896530Y-59550499D01*
X109896534Y-59550500D01*
X109896535Y-59550500D01*
X110103466Y-59550500D01*
X110103467Y-59550499D01*
X110306420Y-59510130D01*
X110497598Y-59430941D01*
X110669655Y-59315977D01*
X110815977Y-59169655D01*
X110930941Y-58997598D01*
X111010130Y-58806420D01*
X111050500Y-58603465D01*
X111050500Y-58396535D01*
X111010130Y-58193580D01*
X110930941Y-58002402D01*
X110815977Y-57830345D01*
X110815975Y-57830342D01*
X110669657Y-57684024D01*
X110543156Y-57599500D01*
X110497598Y-57569059D01*
X110497593Y-57569057D01*
X110306420Y-57489870D01*
X110306412Y-57489868D01*
X110103469Y-57449500D01*
X110103465Y-57449500D01*
X109896535Y-57449500D01*
X109896530Y-57449500D01*
X109693587Y-57489868D01*
X109693579Y-57489870D01*
X109502405Y-57569057D01*
X109502402Y-57569058D01*
X109502402Y-57569059D01*
X109488117Y-57578603D01*
X109421441Y-57599480D01*
X109419229Y-57599500D01*
X108654106Y-57599500D01*
X108587067Y-57579815D01*
X108541312Y-57527011D01*
X108531368Y-57457853D01*
X108560393Y-57394297D01*
X108585216Y-57372398D01*
X108649140Y-57329684D01*
X108669655Y-57315977D01*
X108815977Y-57169655D01*
X108930941Y-56997598D01*
X109010130Y-56806420D01*
X109050500Y-56603465D01*
X109050500Y-56396535D01*
X109010130Y-56193580D01*
X108930941Y-56002402D01*
X108815977Y-55830345D01*
X108815975Y-55830342D01*
X108669657Y-55684024D01*
X108538915Y-55596666D01*
X108497598Y-55569059D01*
X108483407Y-55563181D01*
X108306420Y-55489870D01*
X108306412Y-55489868D01*
X108103469Y-55449500D01*
X108103465Y-55449500D01*
X107896535Y-55449500D01*
X107896530Y-55449500D01*
X107693587Y-55489868D01*
X107693579Y-55489870D01*
X107502403Y-55569058D01*
X107330342Y-55684024D01*
X107184024Y-55830342D01*
X107069058Y-56002403D01*
X106989869Y-56193581D01*
X106989868Y-56193585D01*
X106986518Y-56210428D01*
X106954132Y-56272339D01*
X106952582Y-56273917D01*
X106663319Y-56563181D01*
X106601996Y-56596666D01*
X106575638Y-56599500D01*
X105973361Y-56599500D01*
X105952115Y-56593261D01*
X105930028Y-56591682D01*
X105919244Y-56583609D01*
X105906322Y-56579815D01*
X105891823Y-56563083D01*
X105874094Y-56549811D01*
X105869386Y-56537188D01*
X105860567Y-56527011D01*
X105857415Y-56505095D01*
X105849677Y-56484347D01*
X105852539Y-56471185D01*
X105850623Y-56457853D01*
X105859821Y-56437711D01*
X105864528Y-56416074D01*
X105877799Y-56398345D01*
X105879648Y-56394297D01*
X105885660Y-56387838D01*
X105976084Y-56297414D01*
X106037403Y-56263932D01*
X106039519Y-56263491D01*
X106056420Y-56260130D01*
X106247598Y-56180941D01*
X106419655Y-56065977D01*
X106565977Y-55919655D01*
X106680941Y-55747598D01*
X106760130Y-55556420D01*
X106800500Y-55353465D01*
X106800500Y-55146535D01*
X106760130Y-54943580D01*
X106680941Y-54752402D01*
X106565977Y-54580345D01*
X106565975Y-54580342D01*
X106419657Y-54434024D01*
X106330428Y-54374404D01*
X106247598Y-54319059D01*
X106223166Y-54308939D01*
X106056420Y-54239870D01*
X106056412Y-54239868D01*
X105853469Y-54199500D01*
X105853465Y-54199500D01*
X105646535Y-54199500D01*
X105646530Y-54199500D01*
X105443587Y-54239868D01*
X105443579Y-54239870D01*
X105252403Y-54319058D01*
X105080342Y-54434024D01*
X104934024Y-54580342D01*
X104819058Y-54752403D01*
X104739869Y-54943581D01*
X104739868Y-54943584D01*
X104736518Y-54960428D01*
X104704132Y-55022339D01*
X104702582Y-55023916D01*
X104163319Y-55563181D01*
X104101996Y-55596666D01*
X104075638Y-55599500D01*
X88911303Y-55599500D01*
X88737341Y-55634103D01*
X88737333Y-55634105D01*
X88641006Y-55674005D01*
X88641000Y-55674008D01*
X88634871Y-55676547D01*
X88573453Y-55701987D01*
X88505192Y-55747598D01*
X88500590Y-55750672D01*
X88500588Y-55750674D01*
X88425965Y-55800535D01*
X88273917Y-55952583D01*
X88212594Y-55986067D01*
X88210428Y-55986518D01*
X88193585Y-55989868D01*
X88193581Y-55989869D01*
X88002403Y-56069058D01*
X87830344Y-56184023D01*
X87802323Y-56212044D01*
X87740999Y-56245528D01*
X87671308Y-56240542D01*
X87626962Y-56212042D01*
X84976886Y-53561966D01*
X92189500Y-53561966D01*
X92189500Y-54278028D01*
X92189501Y-54278034D01*
X92200113Y-54397415D01*
X92256089Y-54593045D01*
X92256090Y-54593048D01*
X92256091Y-54593049D01*
X92350302Y-54773407D01*
X92384977Y-54815933D01*
X92478890Y-54931109D01*
X92560091Y-54997319D01*
X92636593Y-55059698D01*
X92816951Y-55153909D01*
X93012582Y-55209886D01*
X93131963Y-55220500D01*
X93848036Y-55220499D01*
X93967418Y-55209886D01*
X94163049Y-55153909D01*
X94343407Y-55059698D01*
X94501109Y-54931109D01*
X94629698Y-54773407D01*
X94723909Y-54593049D01*
X94779886Y-54397418D01*
X94790500Y-54278037D01*
X94790499Y-53561966D01*
X96689500Y-53561966D01*
X96689500Y-54278028D01*
X96689501Y-54278034D01*
X96700113Y-54397415D01*
X96756089Y-54593045D01*
X96756090Y-54593048D01*
X96756091Y-54593049D01*
X96850302Y-54773407D01*
X96884977Y-54815933D01*
X96978890Y-54931109D01*
X97060091Y-54997319D01*
X97136593Y-55059698D01*
X97316951Y-55153909D01*
X97512582Y-55209886D01*
X97631963Y-55220500D01*
X98348036Y-55220499D01*
X98467418Y-55209886D01*
X98663049Y-55153909D01*
X98843407Y-55059698D01*
X99001109Y-54931109D01*
X99129698Y-54773407D01*
X99217289Y-54605721D01*
X99265772Y-54555418D01*
X99333760Y-54539310D01*
X99351378Y-54541517D01*
X99396535Y-54550500D01*
X99603466Y-54550500D01*
X99603467Y-54550499D01*
X99806420Y-54510130D01*
X99924668Y-54461149D01*
X99994134Y-54453681D01*
X100056613Y-54484955D01*
X100075220Y-54506820D01*
X100184022Y-54669655D01*
X100330342Y-54815975D01*
X100330345Y-54815977D01*
X100502402Y-54930941D01*
X100693580Y-55010130D01*
X100896530Y-55050499D01*
X100896534Y-55050500D01*
X100896535Y-55050500D01*
X101103466Y-55050500D01*
X101103467Y-55050499D01*
X101306420Y-55010130D01*
X101416638Y-54964475D01*
X101486105Y-54957007D01*
X101542449Y-54982935D01*
X101636587Y-55059694D01*
X101636590Y-55059695D01*
X101636593Y-55059698D01*
X101816951Y-55153909D01*
X102012582Y-55209886D01*
X102131963Y-55220500D01*
X102848036Y-55220499D01*
X102967418Y-55209886D01*
X103163049Y-55153909D01*
X103343407Y-55059698D01*
X103501109Y-54931109D01*
X103629698Y-54773407D01*
X103723909Y-54593049D01*
X103779886Y-54397418D01*
X103790500Y-54278037D01*
X103790499Y-53561964D01*
X103779886Y-53442582D01*
X103723909Y-53246951D01*
X103629698Y-53066593D01*
X103567929Y-52990839D01*
X103501109Y-52908890D01*
X103343409Y-52780304D01*
X103343410Y-52780304D01*
X103343407Y-52780302D01*
X103163049Y-52686091D01*
X103163048Y-52686090D01*
X103163045Y-52686089D01*
X103045829Y-52652550D01*
X102967418Y-52630114D01*
X102967415Y-52630113D01*
X102967413Y-52630113D01*
X102901102Y-52624217D01*
X102848037Y-52619500D01*
X102848032Y-52619500D01*
X102131971Y-52619500D01*
X102131965Y-52619500D01*
X102131964Y-52619501D01*
X102120316Y-52620536D01*
X102012584Y-52630113D01*
X101816954Y-52686089D01*
X101802604Y-52693585D01*
X101636593Y-52780302D01*
X101636591Y-52780303D01*
X101636590Y-52780304D01*
X101478890Y-52908891D01*
X101444291Y-52951323D01*
X101386670Y-52990839D01*
X101316831Y-52992930D01*
X101312195Y-52991622D01*
X101306413Y-52989868D01*
X101103469Y-52949500D01*
X101103465Y-52949500D01*
X100896535Y-52949500D01*
X100896530Y-52949500D01*
X100693587Y-52989868D01*
X100693575Y-52989871D01*
X100575332Y-53038849D01*
X100505863Y-53046318D01*
X100443384Y-53015043D01*
X100424780Y-52993182D01*
X100315977Y-52830345D01*
X100315975Y-52830342D01*
X100169657Y-52684024D01*
X100069524Y-52617118D01*
X99997598Y-52569059D01*
X99997593Y-52569057D01*
X99806420Y-52489870D01*
X99806412Y-52489868D01*
X99603469Y-52449500D01*
X99603465Y-52449500D01*
X99396535Y-52449500D01*
X99396530Y-52449500D01*
X99193587Y-52489868D01*
X99193579Y-52489870D01*
X99002405Y-52569057D01*
X99002402Y-52569058D01*
X99002402Y-52569059D01*
X98988117Y-52578603D01*
X98921441Y-52599480D01*
X98919229Y-52599500D01*
X98498692Y-52599500D01*
X98321309Y-52599500D01*
X98262455Y-52611206D01*
X98232734Y-52617118D01*
X98208544Y-52619500D01*
X97631971Y-52619500D01*
X97631965Y-52619500D01*
X97631964Y-52619501D01*
X97620316Y-52620536D01*
X97512584Y-52630113D01*
X97316954Y-52686089D01*
X97302604Y-52693585D01*
X97136593Y-52780302D01*
X97136591Y-52780303D01*
X97136590Y-52780304D01*
X96978890Y-52908890D01*
X96850304Y-53066590D01*
X96756089Y-53246954D01*
X96700114Y-53442583D01*
X96700113Y-53442586D01*
X96689500Y-53561966D01*
X94790499Y-53561966D01*
X94790499Y-53561964D01*
X94779886Y-53442582D01*
X94723909Y-53246951D01*
X94629698Y-53066593D01*
X94525742Y-52939101D01*
X94498634Y-52874707D01*
X94507286Y-52813284D01*
X94510130Y-52806420D01*
X94550500Y-52603465D01*
X94550500Y-52396535D01*
X94510130Y-52193580D01*
X94430941Y-52002402D01*
X94413314Y-51976022D01*
X94392438Y-51909346D01*
X94410880Y-51842036D01*
X94474353Y-51739130D01*
X94474358Y-51739119D01*
X94529505Y-51572697D01*
X94529506Y-51572690D01*
X94539999Y-51469986D01*
X96940001Y-51469986D01*
X96950494Y-51572697D01*
X97005641Y-51739119D01*
X97005643Y-51739124D01*
X97097684Y-51888345D01*
X97221654Y-52012315D01*
X97370875Y-52104356D01*
X97370880Y-52104358D01*
X97537302Y-52159505D01*
X97537309Y-52159506D01*
X97640019Y-52169999D01*
X98240000Y-52169999D01*
X98339972Y-52169999D01*
X98339986Y-52169998D01*
X98442697Y-52159505D01*
X98609119Y-52104358D01*
X98609124Y-52104356D01*
X98758345Y-52012315D01*
X98882315Y-51888345D01*
X98974356Y-51739124D01*
X98974358Y-51739119D01*
X99029505Y-51572697D01*
X99029506Y-51572690D01*
X99039999Y-51469986D01*
X101440001Y-51469986D01*
X101450494Y-51572697D01*
X101505641Y-51739119D01*
X101505643Y-51739124D01*
X101597684Y-51888345D01*
X101721654Y-52012315D01*
X101870875Y-52104356D01*
X101870880Y-52104358D01*
X102037302Y-52159505D01*
X102037309Y-52159506D01*
X102140019Y-52169999D01*
X102740000Y-52169999D01*
X102839972Y-52169999D01*
X102839986Y-52169998D01*
X102942697Y-52159505D01*
X103109119Y-52104358D01*
X103109124Y-52104356D01*
X103258345Y-52012315D01*
X103382315Y-51888345D01*
X103474356Y-51739124D01*
X103474358Y-51739119D01*
X103529505Y-51572697D01*
X103529506Y-51572690D01*
X103539999Y-51469986D01*
X103540000Y-51469973D01*
X103540000Y-51370000D01*
X102740000Y-51370000D01*
X102740000Y-52169999D01*
X102140019Y-52169999D01*
X102240000Y-52169998D01*
X102240000Y-51370000D01*
X101440001Y-51370000D01*
X101440001Y-51469986D01*
X99039999Y-51469986D01*
X99040000Y-51469973D01*
X99040000Y-51370000D01*
X98240000Y-51370000D01*
X98240000Y-52169999D01*
X97640019Y-52169999D01*
X97740000Y-52169998D01*
X97740000Y-51370000D01*
X96940001Y-51370000D01*
X96940001Y-51469986D01*
X94539999Y-51469986D01*
X94540000Y-51469973D01*
X94540000Y-51370000D01*
X92440001Y-51370000D01*
X92440001Y-51469986D01*
X92450494Y-51572697D01*
X92505641Y-51739119D01*
X92505643Y-51739124D01*
X92578720Y-51857600D01*
X92597160Y-51924993D01*
X92576288Y-51991580D01*
X92569060Y-52002398D01*
X92569059Y-52002400D01*
X92489870Y-52193579D01*
X92489868Y-52193587D01*
X92449500Y-52396530D01*
X92449500Y-52603469D01*
X92489868Y-52806414D01*
X92490383Y-52808111D01*
X92490391Y-52809043D01*
X92491058Y-52812395D01*
X92490422Y-52812521D01*
X92491004Y-52877978D01*
X92467823Y-52922463D01*
X92350305Y-53066587D01*
X92256089Y-53246954D01*
X92200114Y-53442583D01*
X92200113Y-53442586D01*
X92189500Y-53561966D01*
X84976886Y-53561966D01*
X84526819Y-53111899D01*
X84493334Y-53050576D01*
X84490500Y-53024218D01*
X84490500Y-51329980D01*
X84510185Y-51262941D01*
X84552497Y-51222595D01*
X84787534Y-51086897D01*
X85029902Y-50900922D01*
X85245922Y-50684902D01*
X85431897Y-50442534D01*
X85507470Y-50311636D01*
X85558033Y-50263425D01*
X85626640Y-50250201D01*
X85691505Y-50276169D01*
X85713811Y-50300266D01*
X85714360Y-50299845D01*
X85882818Y-50519382D01*
X85882826Y-50519391D01*
X86075609Y-50712174D01*
X86075617Y-50712181D01*
X86291933Y-50878168D01*
X86528062Y-51014496D01*
X86528072Y-51014500D01*
X86779970Y-51118840D01*
X87043344Y-51189411D01*
X87200000Y-51210034D01*
X87200000Y-49491480D01*
X87202064Y-49492335D01*
X87366282Y-49525000D01*
X87533718Y-49525000D01*
X87697936Y-49492335D01*
X87700000Y-49491480D01*
X87700000Y-51210033D01*
X87856655Y-51189411D01*
X88120029Y-51118840D01*
X88371927Y-51014500D01*
X88371937Y-51014496D01*
X88608066Y-50878168D01*
X88749015Y-50770013D01*
X92440000Y-50770013D01*
X92440000Y-50870000D01*
X93240000Y-50870000D01*
X93740000Y-50870000D01*
X94539999Y-50870000D01*
X94539999Y-50770029D01*
X94539998Y-50770013D01*
X96940000Y-50770013D01*
X96940000Y-50870000D01*
X97740000Y-50870000D01*
X98240000Y-50870000D01*
X99039999Y-50870000D01*
X99039999Y-50770029D01*
X99039998Y-50770013D01*
X101440000Y-50770013D01*
X101440000Y-50870000D01*
X102240000Y-50870000D01*
X102740000Y-50870000D01*
X103539999Y-50870000D01*
X103539999Y-50770028D01*
X103539998Y-50770013D01*
X103529505Y-50667302D01*
X103474358Y-50500880D01*
X103474356Y-50500875D01*
X103382315Y-50351654D01*
X103258345Y-50227684D01*
X103109124Y-50135643D01*
X103109119Y-50135641D01*
X102942697Y-50080494D01*
X102942690Y-50080493D01*
X102839986Y-50070000D01*
X102740000Y-50070000D01*
X102740000Y-50870000D01*
X102240000Y-50870000D01*
X102240000Y-50069999D01*
X102140028Y-50070000D01*
X102140012Y-50070001D01*
X102037302Y-50080494D01*
X101870880Y-50135641D01*
X101870875Y-50135643D01*
X101721654Y-50227684D01*
X101597684Y-50351654D01*
X101505643Y-50500875D01*
X101505641Y-50500880D01*
X101450494Y-50667302D01*
X101450493Y-50667309D01*
X101440000Y-50770013D01*
X99039998Y-50770013D01*
X99039998Y-50770012D01*
X99029505Y-50667302D01*
X98974358Y-50500880D01*
X98974356Y-50500875D01*
X98882315Y-50351654D01*
X98758345Y-50227684D01*
X98609124Y-50135643D01*
X98609119Y-50135641D01*
X98442697Y-50080494D01*
X98442690Y-50080493D01*
X98339986Y-50070000D01*
X98240000Y-50070000D01*
X98240000Y-50870000D01*
X97740000Y-50870000D01*
X97740000Y-50069999D01*
X97640028Y-50070000D01*
X97640012Y-50070001D01*
X97537302Y-50080494D01*
X97370880Y-50135641D01*
X97370875Y-50135643D01*
X97221654Y-50227684D01*
X97097684Y-50351654D01*
X97005643Y-50500875D01*
X97005641Y-50500880D01*
X96950494Y-50667302D01*
X96950493Y-50667309D01*
X96940000Y-50770013D01*
X94539998Y-50770013D01*
X94539998Y-50770012D01*
X94529505Y-50667302D01*
X94474358Y-50500880D01*
X94474356Y-50500875D01*
X94382315Y-50351654D01*
X94258345Y-50227684D01*
X94109124Y-50135643D01*
X94109119Y-50135641D01*
X93942697Y-50080494D01*
X93942690Y-50080493D01*
X93839986Y-50070000D01*
X93740000Y-50070000D01*
X93740000Y-50870000D01*
X93240000Y-50870000D01*
X93240000Y-50069999D01*
X93140028Y-50070000D01*
X93140012Y-50070001D01*
X93037302Y-50080494D01*
X92870880Y-50135641D01*
X92870875Y-50135643D01*
X92721654Y-50227684D01*
X92597684Y-50351654D01*
X92505643Y-50500875D01*
X92505641Y-50500880D01*
X92450494Y-50667302D01*
X92450493Y-50667309D01*
X92440000Y-50770013D01*
X88749015Y-50770013D01*
X88824382Y-50712181D01*
X88824391Y-50712174D01*
X89017174Y-50519391D01*
X89017181Y-50519382D01*
X89183168Y-50303066D01*
X89319496Y-50066937D01*
X89319500Y-50066927D01*
X89423840Y-49815029D01*
X89494411Y-49551655D01*
X89530000Y-49281330D01*
X89530000Y-48925000D01*
X88266480Y-48925000D01*
X88267335Y-48922936D01*
X88300000Y-48758718D01*
X88300000Y-48591282D01*
X88267335Y-48427064D01*
X88266480Y-48425000D01*
X89530000Y-48425000D01*
X89530000Y-48068669D01*
X89494411Y-47798344D01*
X89423840Y-47534970D01*
X89319500Y-47283072D01*
X89319496Y-47283062D01*
X89183168Y-47046933D01*
X89017181Y-46830617D01*
X89017174Y-46830609D01*
X88824391Y-46637826D01*
X88824382Y-46637818D01*
X88608066Y-46471831D01*
X88371937Y-46335503D01*
X88371927Y-46335499D01*
X88120029Y-46231159D01*
X87856655Y-46160588D01*
X87700000Y-46139963D01*
X87700000Y-47858519D01*
X87697936Y-47857665D01*
X87533718Y-47825000D01*
X87366282Y-47825000D01*
X87202064Y-47857665D01*
X87200000Y-47858519D01*
X87200000Y-46139963D01*
X87199999Y-46139963D01*
X87043344Y-46160588D01*
X86779970Y-46231159D01*
X86528072Y-46335499D01*
X86528062Y-46335503D01*
X86291933Y-46471831D01*
X86075617Y-46637818D01*
X85882818Y-46830617D01*
X85714360Y-47050155D01*
X85713185Y-47049253D01*
X85664292Y-47090077D01*
X85594963Y-47098753D01*
X85531950Y-47068570D01*
X85507470Y-47038363D01*
X85431897Y-46907466D01*
X85270848Y-46697582D01*
X85245923Y-46665099D01*
X85245917Y-46665092D01*
X85029907Y-46449082D01*
X85029900Y-46449076D01*
X84787538Y-46263106D01*
X84787537Y-46263105D01*
X84787534Y-46263103D01*
X84682050Y-46202202D01*
X84522972Y-46110357D01*
X84522955Y-46110349D01*
X84240722Y-45993445D01*
X83945630Y-45914375D01*
X83642756Y-45874500D01*
X83642749Y-45874500D01*
X83337251Y-45874500D01*
X83337243Y-45874500D01*
X83034369Y-45914375D01*
X82739277Y-45993445D01*
X82457044Y-46110349D01*
X82457027Y-46110357D01*
X82192461Y-46263106D01*
X81950099Y-46449076D01*
X81950095Y-46449079D01*
X81948754Y-46450421D01*
X81948256Y-46450692D01*
X81947045Y-46451755D01*
X81946807Y-46451483D01*
X81887427Y-46483898D01*
X81817736Y-46478906D01*
X81761807Y-46437028D01*
X81751177Y-46420145D01*
X81699698Y-46321593D01*
X81625959Y-46231159D01*
X81571109Y-46163890D01*
X81413409Y-46035304D01*
X81413410Y-46035304D01*
X81413407Y-46035302D01*
X81233049Y-45941091D01*
X81233048Y-45941090D01*
X81233045Y-45941089D01*
X81115829Y-45907550D01*
X81037418Y-45885114D01*
X81037415Y-45885113D01*
X81037413Y-45885113D01*
X80971102Y-45879217D01*
X80918037Y-45874500D01*
X80918032Y-45874500D01*
X78141971Y-45874500D01*
X78141965Y-45874500D01*
X78141964Y-45874501D01*
X78130316Y-45875536D01*
X78022584Y-45885113D01*
X77826954Y-45941089D01*
X77736772Y-45988196D01*
X77646593Y-46035302D01*
X77646591Y-46035303D01*
X77646590Y-46035304D01*
X77488890Y-46163890D01*
X77360304Y-46321590D01*
X77266089Y-46501954D01*
X77227212Y-46637826D01*
X77213994Y-46684024D01*
X77210114Y-46697583D01*
X77210113Y-46697586D01*
X77199500Y-46816966D01*
X69731888Y-46816966D01*
X69637785Y-46722863D01*
X69637781Y-46722860D01*
X69473920Y-46613371D01*
X69473911Y-46613366D01*
X69366943Y-46569059D01*
X69345165Y-46560038D01*
X69291836Y-46537949D01*
X69291832Y-46537948D01*
X69291828Y-46537946D01*
X69195188Y-46518724D01*
X69098544Y-46499500D01*
X69098541Y-46499500D01*
X62354334Y-46499500D01*
X62312392Y-46491157D01*
X62312247Y-46491638D01*
X62307371Y-46490159D01*
X62306884Y-46490062D01*
X62306423Y-46489871D01*
X62306421Y-46489870D01*
X62306420Y-46489870D01*
X62306417Y-46489869D01*
X62306412Y-46489868D01*
X62103469Y-46449500D01*
X62103465Y-46449500D01*
X61896535Y-46449500D01*
X61896530Y-46449500D01*
X61693587Y-46489868D01*
X61693579Y-46489870D01*
X61502403Y-46569058D01*
X61330342Y-46684024D01*
X61184024Y-46830342D01*
X61069058Y-47002403D01*
X60989870Y-47193579D01*
X60989868Y-47193587D01*
X60949500Y-47396530D01*
X60949500Y-47603469D01*
X60989868Y-47806412D01*
X60989870Y-47806420D01*
X61069058Y-47997596D01*
X61184024Y-48169657D01*
X61330342Y-48315975D01*
X61330345Y-48315977D01*
X61502402Y-48430941D01*
X61693580Y-48510130D01*
X61827756Y-48536819D01*
X61896530Y-48550499D01*
X61896534Y-48550500D01*
X61896535Y-48550500D01*
X62103466Y-48550500D01*
X62103467Y-48550499D01*
X62306420Y-48510130D01*
X62306884Y-48509938D01*
X62307371Y-48509840D01*
X62312247Y-48508362D01*
X62312392Y-48508842D01*
X62354334Y-48500500D01*
X68534218Y-48500500D01*
X68601257Y-48520185D01*
X68621899Y-48536819D01*
X69963181Y-49878101D01*
X69996666Y-49939424D01*
X69999500Y-49965782D01*
X69999500Y-63285217D01*
X69979815Y-63352256D01*
X69927011Y-63398011D01*
X69857853Y-63407955D01*
X69794297Y-63378930D01*
X69787819Y-63372898D01*
X68284209Y-61869289D01*
X68284206Y-61869285D01*
X68284206Y-61869286D01*
X68277139Y-61862219D01*
X68277139Y-61862218D01*
X68137782Y-61722861D01*
X68137781Y-61722860D01*
X68137780Y-61722859D01*
X67973920Y-61613371D01*
X67973907Y-61613364D01*
X67824502Y-61551479D01*
X67824496Y-61551477D01*
X67816132Y-61548013D01*
X67791836Y-61537949D01*
X67695188Y-61518724D01*
X67687139Y-61517122D01*
X67598544Y-61499500D01*
X67598541Y-61499500D01*
X67354334Y-61499500D01*
X67312392Y-61491157D01*
X67312247Y-61491638D01*
X67307371Y-61490159D01*
X67306884Y-61490062D01*
X67306423Y-61489871D01*
X67306421Y-61489870D01*
X67306420Y-61489870D01*
X67306417Y-61489869D01*
X67306412Y-61489868D01*
X67103469Y-61449500D01*
X67103465Y-61449500D01*
X66896535Y-61449500D01*
X66896530Y-61449500D01*
X66693587Y-61489868D01*
X66693579Y-61489870D01*
X66502405Y-61569057D01*
X66502402Y-61569058D01*
X66502402Y-61569059D01*
X66488117Y-61578603D01*
X66421441Y-61599480D01*
X66419229Y-61599500D01*
X62856292Y-61599500D01*
X62832101Y-61597117D01*
X62788469Y-61588438D01*
X62730966Y-61577000D01*
X62730965Y-61577000D01*
X62524035Y-61577000D01*
X62524030Y-61577000D01*
X62321087Y-61617368D01*
X62321079Y-61617370D01*
X62129905Y-61696557D01*
X62129902Y-61696558D01*
X62129902Y-61696559D01*
X62115617Y-61706103D01*
X62048941Y-61726980D01*
X62046729Y-61727000D01*
X58763995Y-61727000D01*
X58696956Y-61707315D01*
X58676314Y-61690681D01*
X58669657Y-61684024D01*
X58563916Y-61613371D01*
X58497598Y-61569059D01*
X58497593Y-61569057D01*
X58306420Y-61489870D01*
X58306412Y-61489868D01*
X58103469Y-61449500D01*
X58103465Y-61449500D01*
X57896535Y-61449500D01*
X57896530Y-61449500D01*
X57693587Y-61489868D01*
X57693579Y-61489870D01*
X57502403Y-61569058D01*
X57330342Y-61684024D01*
X57184024Y-61830342D01*
X57069058Y-62002403D01*
X56989870Y-62193579D01*
X56989868Y-62193587D01*
X56949500Y-62396530D01*
X53311451Y-62396530D01*
X49526819Y-58611898D01*
X49493334Y-58550575D01*
X49490500Y-58524217D01*
X49490500Y-53561966D01*
X54689500Y-53561966D01*
X54689500Y-54278028D01*
X54689501Y-54278034D01*
X54700113Y-54397415D01*
X54756089Y-54593045D01*
X54756090Y-54593048D01*
X54756091Y-54593049D01*
X54850302Y-54773407D01*
X54884977Y-54815933D01*
X54978890Y-54931109D01*
X55060091Y-54997319D01*
X55136593Y-55059698D01*
X55316951Y-55153909D01*
X55512582Y-55209886D01*
X55631963Y-55220500D01*
X56348036Y-55220499D01*
X56467418Y-55209886D01*
X56663049Y-55153909D01*
X56843407Y-55059698D01*
X57001109Y-54931109D01*
X57129698Y-54773407D01*
X57223909Y-54593049D01*
X57279886Y-54397418D01*
X57290500Y-54278037D01*
X57290499Y-53561966D01*
X59189500Y-53561966D01*
X59189500Y-54278028D01*
X59189501Y-54278034D01*
X59200113Y-54397415D01*
X59256089Y-54593045D01*
X59256090Y-54593048D01*
X59256091Y-54593049D01*
X59350302Y-54773407D01*
X59384977Y-54815933D01*
X59478890Y-54931109D01*
X59560091Y-54997319D01*
X59636593Y-55059698D01*
X59816951Y-55153909D01*
X60012582Y-55209886D01*
X60131963Y-55220500D01*
X60848036Y-55220499D01*
X60967418Y-55209886D01*
X61163049Y-55153909D01*
X61343407Y-55059698D01*
X61501109Y-54931109D01*
X61554085Y-54866138D01*
X61611706Y-54826622D01*
X61650187Y-54820500D01*
X62668693Y-54820500D01*
X62668694Y-54820499D01*
X62842666Y-54785895D01*
X62924606Y-54751953D01*
X63006547Y-54718013D01*
X63094959Y-54658936D01*
X63154036Y-54619464D01*
X63477931Y-54295566D01*
X63539252Y-54262084D01*
X63608943Y-54267068D01*
X63664877Y-54308939D01*
X63689294Y-54374404D01*
X63689487Y-54377727D01*
X63689500Y-54378021D01*
X63700113Y-54497415D01*
X63756089Y-54693045D01*
X63756090Y-54693048D01*
X63756091Y-54693049D01*
X63850302Y-54873407D01*
X63850304Y-54873409D01*
X63978890Y-55031109D01*
X64072803Y-55107684D01*
X64136593Y-55159698D01*
X64316951Y-55253909D01*
X64512582Y-55309886D01*
X64631963Y-55320500D01*
X65348036Y-55320499D01*
X65467418Y-55309886D01*
X65663049Y-55253909D01*
X65843407Y-55159698D01*
X66001109Y-55031109D01*
X66129698Y-54873407D01*
X66223909Y-54693049D01*
X66279886Y-54497418D01*
X66290500Y-54378037D01*
X66290499Y-53661964D01*
X66279886Y-53542582D01*
X66223909Y-53346951D01*
X66129698Y-53166593D01*
X66013607Y-53024218D01*
X65998275Y-53005415D01*
X65971166Y-52941018D01*
X65979817Y-52879600D01*
X66010128Y-52806425D01*
X66010128Y-52806424D01*
X66010130Y-52806420D01*
X66050500Y-52603465D01*
X66050500Y-52396535D01*
X66010130Y-52193580D01*
X65932186Y-52005409D01*
X65924718Y-51935942D01*
X65941211Y-51892859D01*
X65974354Y-51839127D01*
X65974358Y-51839119D01*
X66029505Y-51672697D01*
X66029506Y-51672690D01*
X66039999Y-51569986D01*
X66040000Y-51569973D01*
X66040000Y-51470000D01*
X65218737Y-51470000D01*
X65194546Y-51467617D01*
X65136902Y-51456151D01*
X65103466Y-51449500D01*
X65103465Y-51449500D01*
X64896535Y-51449500D01*
X64896534Y-51449500D01*
X64863098Y-51456151D01*
X64805453Y-51467617D01*
X64781263Y-51470000D01*
X63940001Y-51470000D01*
X63940001Y-51569986D01*
X63950494Y-51672697D01*
X64005642Y-51839123D01*
X64005701Y-51839248D01*
X64005715Y-51839341D01*
X64007914Y-51845977D01*
X64006779Y-51846352D01*
X64016189Y-51908326D01*
X63987666Y-51972108D01*
X63929188Y-52010345D01*
X63859320Y-52010896D01*
X63845863Y-52006208D01*
X63806420Y-51989870D01*
X63806412Y-51989868D01*
X63603469Y-51949500D01*
X63603465Y-51949500D01*
X63396535Y-51949500D01*
X63396530Y-51949500D01*
X63193587Y-51989868D01*
X63193579Y-51989870D01*
X63002403Y-52069058D01*
X62830342Y-52184024D01*
X62684024Y-52330342D01*
X62569058Y-52502403D01*
X62489869Y-52693581D01*
X62489868Y-52693585D01*
X62486518Y-52710428D01*
X62454132Y-52772339D01*
X62452582Y-52773917D01*
X62243319Y-52983181D01*
X62181996Y-53016666D01*
X62155638Y-53019500D01*
X61650187Y-53019500D01*
X61583148Y-52999815D01*
X61554085Y-52973861D01*
X61501109Y-52908890D01*
X61343409Y-52780304D01*
X61343410Y-52780304D01*
X61343407Y-52780302D01*
X61163049Y-52686091D01*
X61163048Y-52686090D01*
X61163045Y-52686089D01*
X61045829Y-52652550D01*
X60967418Y-52630114D01*
X60967415Y-52630113D01*
X60967413Y-52630113D01*
X60901102Y-52624217D01*
X60848037Y-52619500D01*
X60848032Y-52619500D01*
X60131971Y-52619500D01*
X60131965Y-52619500D01*
X60131964Y-52619501D01*
X60120316Y-52620536D01*
X60012584Y-52630113D01*
X59816954Y-52686089D01*
X59802604Y-52693585D01*
X59636593Y-52780302D01*
X59636591Y-52780303D01*
X59636590Y-52780304D01*
X59478890Y-52908890D01*
X59350304Y-53066590D01*
X59256089Y-53246954D01*
X59200114Y-53442583D01*
X59200113Y-53442586D01*
X59189500Y-53561966D01*
X57290499Y-53561966D01*
X57290499Y-53561964D01*
X57279886Y-53442582D01*
X57223909Y-53246951D01*
X57129698Y-53066593D01*
X57025742Y-52939101D01*
X56998634Y-52874707D01*
X57007286Y-52813284D01*
X57010130Y-52806420D01*
X57050500Y-52603465D01*
X57050500Y-52396535D01*
X57010130Y-52193580D01*
X56930941Y-52002402D01*
X56913314Y-51976022D01*
X56892438Y-51909346D01*
X56910880Y-51842036D01*
X56974353Y-51739130D01*
X56974358Y-51739119D01*
X57029505Y-51572697D01*
X57029506Y-51572690D01*
X57039999Y-51469986D01*
X59440001Y-51469986D01*
X59450494Y-51572697D01*
X59505641Y-51739119D01*
X59505643Y-51739124D01*
X59597684Y-51888345D01*
X59721654Y-52012315D01*
X59870875Y-52104356D01*
X59870880Y-52104358D01*
X60037302Y-52159505D01*
X60037309Y-52159506D01*
X60140019Y-52169999D01*
X60740000Y-52169999D01*
X60839972Y-52169999D01*
X60839986Y-52169998D01*
X60942697Y-52159505D01*
X61109119Y-52104358D01*
X61109124Y-52104356D01*
X61258345Y-52012315D01*
X61382315Y-51888345D01*
X61474356Y-51739124D01*
X61474358Y-51739119D01*
X61529505Y-51572697D01*
X61529506Y-51572690D01*
X61539999Y-51469986D01*
X61540000Y-51469973D01*
X61540000Y-51370000D01*
X60740000Y-51370000D01*
X60740000Y-52169999D01*
X60140019Y-52169999D01*
X60240000Y-52169998D01*
X60240000Y-51370000D01*
X59440001Y-51370000D01*
X59440001Y-51469986D01*
X57039999Y-51469986D01*
X57040000Y-51469973D01*
X57040000Y-51370000D01*
X54940001Y-51370000D01*
X54940001Y-51469986D01*
X54950494Y-51572697D01*
X55005641Y-51739119D01*
X55005643Y-51739124D01*
X55078720Y-51857600D01*
X55097160Y-51924993D01*
X55076288Y-51991580D01*
X55069060Y-52002398D01*
X55069059Y-52002400D01*
X54989870Y-52193579D01*
X54989868Y-52193587D01*
X54949500Y-52396530D01*
X54949500Y-52603469D01*
X54989868Y-52806414D01*
X54990383Y-52808111D01*
X54990391Y-52809043D01*
X54991058Y-52812395D01*
X54990422Y-52812521D01*
X54991004Y-52877978D01*
X54967823Y-52922463D01*
X54850305Y-53066587D01*
X54756089Y-53246954D01*
X54700114Y-53442583D01*
X54700113Y-53442586D01*
X54689500Y-53561966D01*
X49490500Y-53561966D01*
X49490500Y-51329980D01*
X49510185Y-51262941D01*
X49552497Y-51222595D01*
X49787534Y-51086897D01*
X50029902Y-50900922D01*
X50245922Y-50684902D01*
X50431897Y-50442534D01*
X50507470Y-50311636D01*
X50558033Y-50263425D01*
X50626640Y-50250201D01*
X50691505Y-50276169D01*
X50713811Y-50300266D01*
X50714360Y-50299845D01*
X50882818Y-50519382D01*
X50882826Y-50519391D01*
X51075609Y-50712174D01*
X51075617Y-50712181D01*
X51291933Y-50878168D01*
X51528062Y-51014496D01*
X51528072Y-51014500D01*
X51779970Y-51118840D01*
X52043344Y-51189411D01*
X52200000Y-51210034D01*
X52200000Y-49491480D01*
X52202064Y-49492335D01*
X52366282Y-49525000D01*
X52533718Y-49525000D01*
X52697936Y-49492335D01*
X52700000Y-49491480D01*
X52700000Y-51210033D01*
X52856655Y-51189411D01*
X53120029Y-51118840D01*
X53371927Y-51014500D01*
X53371937Y-51014496D01*
X53608066Y-50878168D01*
X53618694Y-50870013D01*
X63940000Y-50870013D01*
X63940000Y-50970000D01*
X64740000Y-50970000D01*
X65240000Y-50970000D01*
X66039999Y-50970000D01*
X66039999Y-50870028D01*
X66039998Y-50870013D01*
X66029505Y-50767302D01*
X65974358Y-50600880D01*
X65974356Y-50600875D01*
X65882315Y-50451654D01*
X65758345Y-50327684D01*
X65609124Y-50235643D01*
X65609119Y-50235641D01*
X65442697Y-50180494D01*
X65442690Y-50180493D01*
X65339986Y-50170000D01*
X65240000Y-50170000D01*
X65240000Y-50970000D01*
X64740000Y-50970000D01*
X64740000Y-50169999D01*
X64640028Y-50170000D01*
X64640012Y-50170001D01*
X64537302Y-50180494D01*
X64370880Y-50235641D01*
X64370875Y-50235643D01*
X64221654Y-50327684D01*
X64097684Y-50451654D01*
X64005643Y-50600875D01*
X64005641Y-50600880D01*
X63950494Y-50767302D01*
X63950493Y-50767309D01*
X63940000Y-50870013D01*
X53618694Y-50870013D01*
X53749015Y-50770013D01*
X54940000Y-50770013D01*
X54940000Y-50870000D01*
X55740000Y-50870000D01*
X56240000Y-50870000D01*
X57039999Y-50870000D01*
X57039999Y-50770029D01*
X57039998Y-50770013D01*
X59440000Y-50770013D01*
X59440000Y-50870000D01*
X60240000Y-50870000D01*
X60740000Y-50870000D01*
X61539999Y-50870000D01*
X61539999Y-50770028D01*
X61539998Y-50770013D01*
X61529505Y-50667302D01*
X61474358Y-50500880D01*
X61474356Y-50500875D01*
X61382315Y-50351654D01*
X61258345Y-50227684D01*
X61109124Y-50135643D01*
X61109119Y-50135641D01*
X60942697Y-50080494D01*
X60942690Y-50080493D01*
X60839986Y-50070000D01*
X60740000Y-50070000D01*
X60740000Y-50870000D01*
X60240000Y-50870000D01*
X60240000Y-50069999D01*
X60140028Y-50070000D01*
X60140012Y-50070001D01*
X60037302Y-50080494D01*
X59870880Y-50135641D01*
X59870875Y-50135643D01*
X59721654Y-50227684D01*
X59597684Y-50351654D01*
X59505643Y-50500875D01*
X59505641Y-50500880D01*
X59450494Y-50667302D01*
X59450493Y-50667309D01*
X59440000Y-50770013D01*
X57039998Y-50770013D01*
X57039998Y-50770012D01*
X57029505Y-50667302D01*
X56974358Y-50500880D01*
X56974356Y-50500875D01*
X56882315Y-50351654D01*
X56758345Y-50227684D01*
X56609124Y-50135643D01*
X56609119Y-50135641D01*
X56442697Y-50080494D01*
X56442690Y-50080493D01*
X56339986Y-50070000D01*
X56240000Y-50070000D01*
X56240000Y-50870000D01*
X55740000Y-50870000D01*
X55740000Y-50069999D01*
X55640028Y-50070000D01*
X55640012Y-50070001D01*
X55537302Y-50080494D01*
X55370880Y-50135641D01*
X55370875Y-50135643D01*
X55221654Y-50227684D01*
X55097684Y-50351654D01*
X55005643Y-50500875D01*
X55005641Y-50500880D01*
X54950494Y-50667302D01*
X54950493Y-50667309D01*
X54940000Y-50770013D01*
X53749015Y-50770013D01*
X53824382Y-50712181D01*
X53824391Y-50712174D01*
X54017174Y-50519391D01*
X54017181Y-50519382D01*
X54183168Y-50303066D01*
X54319496Y-50066937D01*
X54319500Y-50066927D01*
X54423840Y-49815029D01*
X54494411Y-49551655D01*
X54530000Y-49281330D01*
X54530000Y-48925000D01*
X53266480Y-48925000D01*
X53267335Y-48922936D01*
X53300000Y-48758718D01*
X53300000Y-48591282D01*
X53267335Y-48427064D01*
X53266480Y-48425000D01*
X54530000Y-48425000D01*
X54530000Y-48068669D01*
X54494411Y-47798344D01*
X54423840Y-47534970D01*
X54319500Y-47283072D01*
X54319496Y-47283062D01*
X54183168Y-47046933D01*
X54017181Y-46830617D01*
X54017174Y-46830609D01*
X53824391Y-46637826D01*
X53824382Y-46637818D01*
X53608066Y-46471831D01*
X53371937Y-46335503D01*
X53371927Y-46335499D01*
X53120029Y-46231159D01*
X52856655Y-46160588D01*
X52700000Y-46139963D01*
X52700000Y-47858519D01*
X52697936Y-47857665D01*
X52533718Y-47825000D01*
X52366282Y-47825000D01*
X52202064Y-47857665D01*
X52200000Y-47858519D01*
X52200000Y-46139963D01*
X52199999Y-46139963D01*
X52043344Y-46160588D01*
X51779970Y-46231159D01*
X51528072Y-46335499D01*
X51528062Y-46335503D01*
X51291933Y-46471831D01*
X51075617Y-46637818D01*
X50882818Y-46830617D01*
X50714360Y-47050155D01*
X50713185Y-47049253D01*
X50664292Y-47090077D01*
X50594963Y-47098753D01*
X50531950Y-47068570D01*
X50507470Y-47038363D01*
X50431897Y-46907466D01*
X50270848Y-46697582D01*
X50245923Y-46665099D01*
X50245917Y-46665092D01*
X50029907Y-46449082D01*
X50029900Y-46449076D01*
X49787538Y-46263106D01*
X49787537Y-46263105D01*
X49787534Y-46263103D01*
X49682050Y-46202202D01*
X49522972Y-46110357D01*
X49522955Y-46110349D01*
X49240722Y-45993445D01*
X48945630Y-45914375D01*
X48642756Y-45874500D01*
X48642749Y-45874500D01*
X48337251Y-45874500D01*
X48337243Y-45874500D01*
X48034369Y-45914375D01*
X47739277Y-45993445D01*
X47457044Y-46110349D01*
X47457027Y-46110357D01*
X47192461Y-46263106D01*
X46950099Y-46449076D01*
X46950095Y-46449079D01*
X46948754Y-46450421D01*
X46948256Y-46450692D01*
X46947045Y-46451755D01*
X46946807Y-46451483D01*
X46887427Y-46483898D01*
X46817736Y-46478906D01*
X46761807Y-46437028D01*
X46751177Y-46420145D01*
X46699698Y-46321593D01*
X46625959Y-46231159D01*
X46571109Y-46163890D01*
X46413409Y-46035304D01*
X46413410Y-46035304D01*
X46413407Y-46035302D01*
X46233049Y-45941091D01*
X46233048Y-45941090D01*
X46233045Y-45941089D01*
X46115829Y-45907550D01*
X46037418Y-45885114D01*
X46037415Y-45885113D01*
X46037413Y-45885113D01*
X45971102Y-45879217D01*
X45918037Y-45874500D01*
X45918032Y-45874500D01*
X43141971Y-45874500D01*
X43141965Y-45874500D01*
X43141964Y-45874501D01*
X43130316Y-45875536D01*
X43022584Y-45885113D01*
X42826954Y-45941089D01*
X42736772Y-45988196D01*
X42646593Y-46035302D01*
X42646591Y-46035303D01*
X42646590Y-46035304D01*
X42488890Y-46163890D01*
X42360304Y-46321590D01*
X42266089Y-46501954D01*
X42227212Y-46637826D01*
X42213994Y-46684024D01*
X42210114Y-46697583D01*
X42210113Y-46697586D01*
X42199500Y-46816966D01*
X32500500Y-46816966D01*
X32500500Y-39002706D01*
X32500618Y-38997297D01*
X32503880Y-38922575D01*
X32508435Y-38818234D01*
X33300000Y-38818234D01*
X33300000Y-39181765D01*
X33335632Y-39543556D01*
X33406550Y-39900090D01*
X33406553Y-39900101D01*
X33512086Y-40247997D01*
X33651207Y-40583864D01*
X33651209Y-40583869D01*
X33822570Y-40904462D01*
X33822581Y-40904480D01*
X34024551Y-41206750D01*
X34211678Y-41434765D01*
X34211679Y-41434766D01*
X35705747Y-39940697D01*
X35779588Y-40042330D01*
X35957670Y-40220412D01*
X36059301Y-40294251D01*
X34565232Y-41788319D01*
X34565233Y-41788320D01*
X34793249Y-41975448D01*
X35095519Y-42177418D01*
X35095537Y-42177429D01*
X35416130Y-42348790D01*
X35416135Y-42348792D01*
X35752002Y-42487913D01*
X36099898Y-42593446D01*
X36099909Y-42593449D01*
X36456443Y-42664367D01*
X36818234Y-42700000D01*
X37181766Y-42700000D01*
X37543556Y-42664367D01*
X37900090Y-42593449D01*
X37900101Y-42593446D01*
X38247997Y-42487913D01*
X38583864Y-42348792D01*
X38583869Y-42348790D01*
X38904462Y-42177429D01*
X38904480Y-42177418D01*
X39206736Y-41975457D01*
X39206750Y-41975447D01*
X39434765Y-41788320D01*
X39434766Y-41788319D01*
X37940698Y-40294251D01*
X38042330Y-40220412D01*
X38220412Y-40042330D01*
X38294251Y-39940698D01*
X39788319Y-41434766D01*
X39788320Y-41434765D01*
X39975447Y-41206750D01*
X39975457Y-41206736D01*
X40177418Y-40904480D01*
X40177429Y-40904462D01*
X40348790Y-40583869D01*
X40348792Y-40583864D01*
X40426840Y-40395441D01*
X57279500Y-40395441D01*
X57279500Y-40644558D01*
X57279501Y-40644575D01*
X57312017Y-40891561D01*
X57376498Y-41132207D01*
X57471830Y-41362361D01*
X57471837Y-41362376D01*
X57596400Y-41578126D01*
X57748060Y-41775774D01*
X57748066Y-41775781D01*
X57924218Y-41951933D01*
X57924225Y-41951939D01*
X58121873Y-42103599D01*
X58337623Y-42228162D01*
X58337638Y-42228169D01*
X58436825Y-42269253D01*
X58567793Y-42323502D01*
X58808435Y-42387982D01*
X59055435Y-42420500D01*
X59055442Y-42420500D01*
X59304558Y-42420500D01*
X59304565Y-42420500D01*
X59551565Y-42387982D01*
X59792207Y-42323502D01*
X60022373Y-42228164D01*
X60238127Y-42103599D01*
X60435776Y-41951938D01*
X60611938Y-41775776D01*
X60763599Y-41578127D01*
X60888164Y-41362373D01*
X60983502Y-41132207D01*
X61047982Y-40891565D01*
X61080500Y-40644565D01*
X61080500Y-40395441D01*
X69979500Y-40395441D01*
X69979500Y-40644558D01*
X69979501Y-40644575D01*
X70012017Y-40891561D01*
X70076498Y-41132207D01*
X70171830Y-41362361D01*
X70171837Y-41362376D01*
X70296400Y-41578126D01*
X70448060Y-41775774D01*
X70448066Y-41775781D01*
X70624218Y-41951933D01*
X70624225Y-41951939D01*
X70821873Y-42103599D01*
X71037623Y-42228162D01*
X71037638Y-42228169D01*
X71136825Y-42269253D01*
X71267793Y-42323502D01*
X71508435Y-42387982D01*
X71755435Y-42420500D01*
X71755442Y-42420500D01*
X72004558Y-42420500D01*
X72004565Y-42420500D01*
X72251565Y-42387982D01*
X72492207Y-42323502D01*
X72722373Y-42228164D01*
X72938127Y-42103599D01*
X73135776Y-41951938D01*
X73311938Y-41775776D01*
X73463599Y-41578127D01*
X73588164Y-41362373D01*
X73683502Y-41132207D01*
X73747982Y-40891565D01*
X73780500Y-40644565D01*
X73780500Y-40395441D01*
X92239500Y-40395441D01*
X92239500Y-40644558D01*
X92239501Y-40644575D01*
X92272017Y-40891561D01*
X92336498Y-41132207D01*
X92431830Y-41362361D01*
X92431837Y-41362376D01*
X92556400Y-41578126D01*
X92708060Y-41775774D01*
X92708066Y-41775781D01*
X92884218Y-41951933D01*
X92884225Y-41951939D01*
X93081873Y-42103599D01*
X93297623Y-42228162D01*
X93297638Y-42228169D01*
X93396825Y-42269253D01*
X93527793Y-42323502D01*
X93768435Y-42387982D01*
X94015435Y-42420500D01*
X94015442Y-42420500D01*
X94264558Y-42420500D01*
X94264565Y-42420500D01*
X94511565Y-42387982D01*
X94752207Y-42323502D01*
X94982373Y-42228164D01*
X95198127Y-42103599D01*
X95395776Y-41951938D01*
X95571938Y-41775776D01*
X95723599Y-41578127D01*
X95848164Y-41362373D01*
X95943502Y-41132207D01*
X96007982Y-40891565D01*
X96040500Y-40644565D01*
X96040500Y-40395441D01*
X104939500Y-40395441D01*
X104939500Y-40644558D01*
X104939501Y-40644575D01*
X104972017Y-40891561D01*
X105036498Y-41132207D01*
X105131830Y-41362361D01*
X105131837Y-41362376D01*
X105256400Y-41578126D01*
X105408060Y-41775774D01*
X105408066Y-41775781D01*
X105584218Y-41951933D01*
X105584225Y-41951939D01*
X105781873Y-42103599D01*
X105997623Y-42228162D01*
X105997638Y-42228169D01*
X106096825Y-42269253D01*
X106227793Y-42323502D01*
X106468435Y-42387982D01*
X106715435Y-42420500D01*
X106715442Y-42420500D01*
X106964558Y-42420500D01*
X106964565Y-42420500D01*
X107211565Y-42387982D01*
X107452207Y-42323502D01*
X107682373Y-42228164D01*
X107898127Y-42103599D01*
X108095776Y-41951938D01*
X108271938Y-41775776D01*
X108423599Y-41578127D01*
X108548164Y-41362373D01*
X108643502Y-41132207D01*
X108707982Y-40891565D01*
X108740500Y-40644565D01*
X108740500Y-40395435D01*
X108707982Y-40148435D01*
X108643502Y-39907793D01*
X108548164Y-39677627D01*
X108470758Y-39543556D01*
X108423599Y-39461873D01*
X108271939Y-39264225D01*
X108271933Y-39264218D01*
X108095781Y-39088066D01*
X108095774Y-39088060D01*
X107898128Y-38936401D01*
X107882621Y-38927448D01*
X107874178Y-38922574D01*
X107693456Y-38818234D01*
X111300000Y-38818234D01*
X111300000Y-39181765D01*
X111335632Y-39543556D01*
X111406550Y-39900090D01*
X111406553Y-39900101D01*
X111512086Y-40247997D01*
X111651207Y-40583864D01*
X111651209Y-40583869D01*
X111822570Y-40904462D01*
X111822581Y-40904480D01*
X112024551Y-41206750D01*
X112211678Y-41434765D01*
X112211679Y-41434766D01*
X113705747Y-39940697D01*
X113779588Y-40042330D01*
X113957670Y-40220412D01*
X114059301Y-40294251D01*
X112565232Y-41788319D01*
X112565233Y-41788320D01*
X112793249Y-41975448D01*
X113095519Y-42177418D01*
X113095537Y-42177429D01*
X113416130Y-42348790D01*
X113416135Y-42348792D01*
X113752002Y-42487913D01*
X114099898Y-42593446D01*
X114099909Y-42593449D01*
X114456443Y-42664367D01*
X114818234Y-42700000D01*
X115181766Y-42700000D01*
X115543556Y-42664367D01*
X115900090Y-42593449D01*
X115900101Y-42593446D01*
X116247997Y-42487913D01*
X116583864Y-42348792D01*
X116583869Y-42348790D01*
X116904462Y-42177429D01*
X116904480Y-42177418D01*
X117206736Y-41975457D01*
X117206750Y-41975447D01*
X117434765Y-41788320D01*
X117434766Y-41788319D01*
X115940698Y-40294251D01*
X116042330Y-40220412D01*
X116220412Y-40042330D01*
X116294251Y-39940698D01*
X117788319Y-41434766D01*
X117788320Y-41434765D01*
X117975447Y-41206750D01*
X117975457Y-41206736D01*
X118177418Y-40904480D01*
X118177429Y-40904462D01*
X118348790Y-40583869D01*
X118348792Y-40583864D01*
X118487913Y-40247997D01*
X118593446Y-39900101D01*
X118593449Y-39900090D01*
X118664367Y-39543556D01*
X118700000Y-39181765D01*
X118700000Y-38818234D01*
X118664367Y-38456443D01*
X118593449Y-38099909D01*
X118593446Y-38099898D01*
X118487913Y-37752002D01*
X118348792Y-37416135D01*
X118348790Y-37416130D01*
X118177429Y-37095537D01*
X118177418Y-37095519D01*
X117975448Y-36793249D01*
X117788320Y-36565233D01*
X117788319Y-36565232D01*
X116294251Y-38059300D01*
X116220412Y-37957670D01*
X116042330Y-37779588D01*
X115940698Y-37705748D01*
X117434766Y-36211679D01*
X117434765Y-36211678D01*
X117206750Y-36024551D01*
X116904480Y-35822581D01*
X116904462Y-35822570D01*
X116583869Y-35651209D01*
X116583864Y-35651207D01*
X116247997Y-35512086D01*
X115900101Y-35406553D01*
X115900090Y-35406550D01*
X115543556Y-35335632D01*
X115181766Y-35300000D01*
X114818234Y-35300000D01*
X114456443Y-35335632D01*
X114099909Y-35406550D01*
X114099898Y-35406553D01*
X113752002Y-35512086D01*
X113416135Y-35651207D01*
X113416130Y-35651209D01*
X113095537Y-35822570D01*
X113095519Y-35822581D01*
X112793258Y-36024545D01*
X112793254Y-36024548D01*
X112565233Y-36211679D01*
X112565233Y-36211680D01*
X114059301Y-37705748D01*
X113957670Y-37779588D01*
X113779588Y-37957670D01*
X113705748Y-38059301D01*
X112211680Y-36565233D01*
X112211679Y-36565233D01*
X112024548Y-36793254D01*
X112024545Y-36793258D01*
X111822581Y-37095519D01*
X111822570Y-37095537D01*
X111651209Y-37416130D01*
X111651207Y-37416135D01*
X111512086Y-37752002D01*
X111406553Y-38099898D01*
X111406550Y-38099909D01*
X111335632Y-38456443D01*
X111300000Y-38818234D01*
X107693456Y-38818234D01*
X107682376Y-38811837D01*
X107682361Y-38811830D01*
X107452207Y-38716498D01*
X107211561Y-38652017D01*
X106964575Y-38619501D01*
X106964570Y-38619500D01*
X106964565Y-38619500D01*
X106715435Y-38619500D01*
X106715429Y-38619500D01*
X106715424Y-38619501D01*
X106468438Y-38652017D01*
X106227792Y-38716498D01*
X105997638Y-38811830D01*
X105997623Y-38811837D01*
X105781873Y-38936400D01*
X105584225Y-39088060D01*
X105584218Y-39088066D01*
X105408066Y-39264218D01*
X105408060Y-39264225D01*
X105256400Y-39461873D01*
X105131837Y-39677623D01*
X105131830Y-39677638D01*
X105036498Y-39907792D01*
X104972017Y-40148438D01*
X104939501Y-40395424D01*
X104939500Y-40395441D01*
X96040500Y-40395441D01*
X96040500Y-40395435D01*
X96007982Y-40148435D01*
X95943502Y-39907793D01*
X95848164Y-39677627D01*
X95770758Y-39543556D01*
X95723599Y-39461873D01*
X95571939Y-39264225D01*
X95571933Y-39264218D01*
X95395781Y-39088066D01*
X95395774Y-39088060D01*
X95198126Y-38936400D01*
X94982376Y-38811837D01*
X94982361Y-38811830D01*
X94752207Y-38716498D01*
X94511561Y-38652017D01*
X94264575Y-38619501D01*
X94264570Y-38619500D01*
X94264565Y-38619500D01*
X94015435Y-38619500D01*
X94015429Y-38619500D01*
X94015424Y-38619501D01*
X93768438Y-38652017D01*
X93527792Y-38716498D01*
X93297638Y-38811830D01*
X93297623Y-38811837D01*
X93081873Y-38936400D01*
X92884225Y-39088060D01*
X92884218Y-39088066D01*
X92708066Y-39264218D01*
X92708060Y-39264225D01*
X92556400Y-39461873D01*
X92431837Y-39677623D01*
X92431830Y-39677638D01*
X92336498Y-39907792D01*
X92272017Y-40148438D01*
X92239501Y-40395424D01*
X92239500Y-40395441D01*
X73780500Y-40395441D01*
X73780500Y-40395435D01*
X73747982Y-40148435D01*
X73683502Y-39907793D01*
X73588164Y-39677627D01*
X73510758Y-39543556D01*
X73463599Y-39461873D01*
X73311939Y-39264225D01*
X73311933Y-39264218D01*
X73135781Y-39088066D01*
X73135774Y-39088060D01*
X72938126Y-38936400D01*
X72722376Y-38811837D01*
X72722361Y-38811830D01*
X72492207Y-38716498D01*
X72251561Y-38652017D01*
X72004575Y-38619501D01*
X72004570Y-38619500D01*
X72004565Y-38619500D01*
X71755435Y-38619500D01*
X71755429Y-38619500D01*
X71755424Y-38619501D01*
X71508438Y-38652017D01*
X71267792Y-38716498D01*
X71037638Y-38811830D01*
X71037623Y-38811837D01*
X70821873Y-38936400D01*
X70624225Y-39088060D01*
X70624218Y-39088066D01*
X70448066Y-39264218D01*
X70448060Y-39264225D01*
X70296400Y-39461873D01*
X70171837Y-39677623D01*
X70171830Y-39677638D01*
X70076498Y-39907792D01*
X70012017Y-40148438D01*
X69979501Y-40395424D01*
X69979500Y-40395441D01*
X61080500Y-40395441D01*
X61080500Y-40395435D01*
X61047982Y-40148435D01*
X60983502Y-39907793D01*
X60888164Y-39677627D01*
X60810758Y-39543556D01*
X60763599Y-39461873D01*
X60611939Y-39264225D01*
X60611933Y-39264218D01*
X60435781Y-39088066D01*
X60435774Y-39088060D01*
X60238126Y-38936400D01*
X60022376Y-38811837D01*
X60022361Y-38811830D01*
X59792207Y-38716498D01*
X59551561Y-38652017D01*
X59304575Y-38619501D01*
X59304570Y-38619500D01*
X59304565Y-38619500D01*
X59055435Y-38619500D01*
X59055429Y-38619500D01*
X59055424Y-38619501D01*
X58808438Y-38652017D01*
X58567792Y-38716498D01*
X58337638Y-38811830D01*
X58337623Y-38811837D01*
X58121873Y-38936400D01*
X57924225Y-39088060D01*
X57924218Y-39088066D01*
X57748066Y-39264218D01*
X57748060Y-39264225D01*
X57596400Y-39461873D01*
X57471837Y-39677623D01*
X57471830Y-39677638D01*
X57376498Y-39907792D01*
X57312017Y-40148438D01*
X57279501Y-40395424D01*
X57279500Y-40395441D01*
X40426840Y-40395441D01*
X40448180Y-40343923D01*
X40448180Y-40343921D01*
X40487912Y-40248001D01*
X40593446Y-39900101D01*
X40593449Y-39900090D01*
X40664367Y-39543556D01*
X40700000Y-39181765D01*
X40700000Y-38818234D01*
X40664367Y-38456443D01*
X40593449Y-38099909D01*
X40593446Y-38099898D01*
X40487913Y-37752002D01*
X40348792Y-37416135D01*
X40348790Y-37416130D01*
X40177429Y-37095537D01*
X40177418Y-37095519D01*
X39975448Y-36793249D01*
X39788320Y-36565233D01*
X39788319Y-36565232D01*
X38294251Y-38059300D01*
X38220412Y-37957670D01*
X38042330Y-37779588D01*
X37940698Y-37705748D01*
X39434766Y-36211679D01*
X39434765Y-36211678D01*
X39206750Y-36024551D01*
X38904480Y-35822581D01*
X38904462Y-35822570D01*
X38583869Y-35651209D01*
X38583864Y-35651207D01*
X38247997Y-35512086D01*
X37900101Y-35406553D01*
X37900090Y-35406550D01*
X37543556Y-35335632D01*
X37181766Y-35300000D01*
X36818234Y-35300000D01*
X36456443Y-35335632D01*
X36099909Y-35406550D01*
X36099898Y-35406553D01*
X35752002Y-35512086D01*
X35416135Y-35651207D01*
X35416130Y-35651209D01*
X35095537Y-35822570D01*
X35095519Y-35822581D01*
X34793258Y-36024545D01*
X34793254Y-36024548D01*
X34565233Y-36211679D01*
X34565233Y-36211680D01*
X36059301Y-37705748D01*
X35957670Y-37779588D01*
X35779588Y-37957670D01*
X35705748Y-38059301D01*
X34211680Y-36565233D01*
X34211679Y-36565233D01*
X34024548Y-36793254D01*
X34024545Y-36793258D01*
X33822581Y-37095519D01*
X33822570Y-37095537D01*
X33651209Y-37416130D01*
X33651207Y-37416135D01*
X33512086Y-37752002D01*
X33406553Y-38099898D01*
X33406550Y-38099909D01*
X33335632Y-38456443D01*
X33300000Y-38818234D01*
X32508435Y-38818234D01*
X32517386Y-38613228D01*
X32518326Y-38602495D01*
X32568152Y-38224025D01*
X32570025Y-38213405D01*
X32652649Y-37840709D01*
X32655440Y-37830295D01*
X32770230Y-37466227D01*
X32773917Y-37456095D01*
X32920003Y-37103412D01*
X32924561Y-37093638D01*
X33100822Y-36755045D01*
X33106217Y-36745700D01*
X33311325Y-36423744D01*
X33317515Y-36414905D01*
X33549896Y-36112060D01*
X33556834Y-36103791D01*
X33814726Y-35822352D01*
X33822352Y-35814726D01*
X34103791Y-35556834D01*
X34112060Y-35549896D01*
X34414905Y-35317515D01*
X34423744Y-35311325D01*
X34745700Y-35106217D01*
X34755045Y-35100822D01*
X35093638Y-34924561D01*
X35103412Y-34920003D01*
X35456095Y-34773917D01*
X35466227Y-34770230D01*
X35830295Y-34655440D01*
X35840709Y-34652649D01*
X36213405Y-34570025D01*
X36224025Y-34568152D01*
X36602495Y-34518326D01*
X36613226Y-34517386D01*
X36997297Y-34500617D01*
X37002706Y-34500500D01*
X37065892Y-34500500D01*
X114934108Y-34500500D01*
X114997294Y-34500500D01*
X115002702Y-34500617D01*
G37*
%TD.AperFunction*%
%TD*%
M02*
