M48
; DRILL file {KiCad 9.0.0} date 2025-04-07T00:55:56-0700
; FORMAT={-:-/ absolute / inch / decimal}
; #@! TF.CreationDate,2025-04-07T00:55:56-07:00
; #@! TF.GenerationSoftware,Kicad,Pcbnew,9.0.0
; #@! TF.FileFunction,Plated,1,2,PTH
FMAT,2
INCH
; #@! TA.AperFunction,Plated,PTH,ViaDrill
T1C0.0118
; #@! TA.AperFunction,Plated,PTH,ComponentDrill
T2C0.0669
; #@! TA.AperFunction,Plated,PTH,ComponentDrill
T3C0.1260
%
G90
G05
T1
X1.378Y-1.7717
X1.378Y-1.9685
X1.378Y-2.1654
X1.378Y-2.3622
X1.378Y-2.5591
X1.5748Y-1.7717
X1.5748Y-1.9685
X1.5748Y-2.1654
X1.5748Y-2.3622
X1.5748Y-2.5591
X1.5748Y-2.7559
X1.7717Y-1.5748
X1.7717Y-1.7717
X1.7717Y-2.5591
X1.7717Y-2.7559
X1.7717Y-2.9528
X1.8898Y-2.4213
X1.9685Y-1.5748
X1.9685Y-1.7717
X1.9685Y-2.7559
X1.9685Y-2.9528
X2.0669Y-2.5787
X2.0866Y-2.7165
X2.126Y-2.4213
X2.1654Y-2.9921
X2.2047Y-2.0669
X2.2244Y-2.6378
X2.2244Y-2.9921
X2.2831Y-2.6382
X2.2835Y-2.2047
X2.2835Y-2.2835
X2.2835Y-2.4606
X2.2835Y-2.9921
X2.3622Y-1.7717
X2.4016Y-2.6575
X2.4016Y-2.9921
X2.4409Y-1.8701
X2.4606Y-2.2047
X2.4606Y-2.2835
X2.4606Y-2.5394
X2.4656Y-2.4656
X2.5Y-2.0866
X2.5591Y-1.5748
X2.5591Y-1.7717
X2.5591Y-2.0669
X2.6378Y-2.4606
X2.7559Y-1.7717
X2.7559Y-2.7559
X2.9528Y-1.7717
X2.9528Y-1.9685
X3.0315Y-2.3031
X3.0315Y-2.372
X3.0709Y-2.2736
X3.0709Y-2.3917
X3.1496Y-1.5748
X3.1496Y-1.7717
X3.1535Y-2.5984
X3.3465Y-1.5748
X3.3465Y-1.7717
X3.3465Y-2.7559
X3.4843Y-2.2441
X3.5433Y-1.7717
X3.5433Y-2.2638
X3.5433Y-2.7559
X3.5433Y-2.9528
X3.5827Y-2.3031
X3.6024Y-2.5197
X3.622Y-2.3425
X3.6413Y-2.972
X3.6417Y-2.6378
X3.6811Y-2.0669
X3.7008Y-2.6181
X3.7008Y-2.9724
X3.7402Y-1.7717
X3.7598Y-2.1457
X3.7598Y-2.6378
X3.7598Y-2.9724
X3.7795Y-2.4409
X3.878Y-2.6378
X3.878Y-2.9724
X3.9173Y-2.1063
X3.937Y-1.5748
X3.937Y-1.7717
X3.937Y-2.1654
X3.937Y-2.5197
X3.9567Y-2.4409
X3.9764Y-2.126
X4.1339Y-1.7717
X4.1339Y-2.4409
X4.1339Y-2.9528
X4.1634Y-2.1752
X4.252Y-2.2244
X4.3307Y-1.7717
X4.3307Y-1.9685
X4.3307Y-2.3031
X4.3307Y-2.5591
X4.3307Y-2.7559
X4.3307Y-2.9528
X4.5276Y-1.7717
X4.5276Y-1.9685
X4.5276Y-2.1654
X4.5276Y-2.3622
X4.5276Y-2.5591
T2
X1.7531Y-1.9163
X1.9091Y-1.9163
X2.065Y-1.9163
X3.1311Y-1.9163
X3.287Y-1.9163
X3.4429Y-1.9163
T3
X1.4567Y-1.5354
X1.4567Y-2.9134
X4.5276Y-1.5354
X4.5276Y-2.9134
M30
