%TF.GenerationSoftware,KiCad,Pcbnew,9.0.0*%
%TF.CreationDate,2025-03-17T17:37:44-07:00*%
%TF.ProjectId,Motor_reroute,4d6f746f-725f-4726-9572-6f7574652e6b,rev?*%
%TF.SameCoordinates,Original*%
%TF.FileFunction,Soldermask,Bot*%
%TF.FilePolarity,Negative*%
%FSLAX46Y46*%
G04 Gerber Fmt 4.6, Leading zero omitted, Abs format (unit mm)*
G04 Created by KiCad (PCBNEW 9.0.0) date 2025-03-17 17:37:44*
%MOMM*%
%LPD*%
G01*
G04 APERTURE LIST*
G04 Aperture macros list*
%AMRoundRect*
0 Rectangle with rounded corners*
0 $1 Rounding radius*
0 $2 $3 $4 $5 $6 $7 $8 $9 X,Y pos of 4 corners*
0 Add a 4 corners polygon primitive as box body*
4,1,4,$2,$3,$4,$5,$6,$7,$8,$9,$2,$3,0*
0 Add four circle primitives for the rounded corners*
1,1,$1+$1,$2,$3*
1,1,$1+$1,$4,$5*
1,1,$1+$1,$6,$7*
1,1,$1+$1,$8,$9*
0 Add four rect primitives between the rounded corners*
20,1,$1+$1,$2,$3,$4,$5,0*
20,1,$1+$1,$4,$5,$6,$7,0*
20,1,$1+$1,$6,$7,$8,$9,0*
20,1,$1+$1,$8,$9,$2,$3,0*%
G04 Aperture macros list end*
%ADD10C,3.600000*%
%ADD11C,6.400000*%
%ADD12C,3.300000*%
%ADD13RoundRect,0.250000X-1.330000X-1.800000X1.330000X-1.800000X1.330000X1.800000X-1.330000X1.800000X0*%
%ADD14O,3.160000X4.100000*%
%ADD15RoundRect,0.250000X-0.600000X-0.725000X0.600000X-0.725000X0.600000X0.725000X-0.600000X0.725000X0*%
%ADD16O,1.700000X1.950000*%
%ADD17RoundRect,0.250000X0.300000X-0.300000X0.300000X0.300000X-0.300000X0.300000X-0.300000X-0.300000X0*%
G04 APERTURE END LIST*
D10*
%TO.C,H2*%
X115000000Y-74000000D03*
D11*
X115000000Y-74000000D03*
%TD*%
D12*
%TO.C,J2*%
X71880000Y-40520000D03*
X59180000Y-40520000D03*
%TD*%
D13*
%TO.C,J3*%
X44530000Y-48675000D03*
D14*
X48490000Y-48675000D03*
X52450000Y-48675000D03*
%TD*%
D10*
%TO.C,H1*%
X115000000Y-39000000D03*
D11*
X115000000Y-39000000D03*
%TD*%
D15*
%TO.C,J7*%
X72990000Y-63020000D03*
D16*
X75490000Y-63020000D03*
X77990000Y-63020000D03*
X80490000Y-63020000D03*
X82990000Y-63020000D03*
%TD*%
D15*
%TO.C,J8*%
X72990000Y-74070000D03*
D16*
X75490000Y-74070000D03*
X77990000Y-74070000D03*
X80490000Y-74070000D03*
X82990000Y-74070000D03*
%TD*%
D12*
%TO.C,J14*%
X106840000Y-40520000D03*
X94140000Y-40520000D03*
%TD*%
D10*
%TO.C,H3*%
X37000000Y-74000000D03*
D11*
X37000000Y-74000000D03*
%TD*%
D13*
%TO.C,J11*%
X79530000Y-48675000D03*
D14*
X83490000Y-48675000D03*
X87450000Y-48675000D03*
%TD*%
D10*
%TO.C,H4*%
X37000000Y-39000000D03*
D11*
X37000000Y-39000000D03*
%TD*%
D17*
%TO.C,D1*%
X55990000Y-53920000D03*
X55990000Y-51120000D03*
%TD*%
%TO.C,D2*%
X60490000Y-53920000D03*
X60490000Y-51120000D03*
%TD*%
%TO.C,D3*%
X64990000Y-54020000D03*
X64990000Y-51220000D03*
%TD*%
%TO.C,D5*%
X97990000Y-53920000D03*
X97990000Y-51120000D03*
%TD*%
%TO.C,D4*%
X93490000Y-53920000D03*
X93490000Y-51120000D03*
%TD*%
%TO.C,D6*%
X102490000Y-53920000D03*
X102490000Y-51120000D03*
%TD*%
M02*
