%TF.GenerationSoftware,KiCad,Pcbnew,9.0.0*%
%TF.CreationDate,2025-04-07T00:55:53-07:00*%
%TF.ProjectId,Motor_reroute,4d6f746f-725f-4726-9572-6f7574652e6b,rev?*%
%TF.SameCoordinates,Original*%
%TF.FileFunction,Legend,Top*%
%TF.FilePolarity,Positive*%
%FSLAX46Y46*%
G04 Gerber Fmt 4.6, Leading zero omitted, Abs format (unit mm)*
G04 Created by KiCad (PCBNEW 9.0.0) date 2025-04-07 00:55:53*
%MOMM*%
%LPD*%
G01*
G04 APERTURE LIST*
%ADD10C,0.150000*%
%ADD11C,0.127000*%
%ADD12C,0.120000*%
%ADD13C,0.200000*%
G04 APERTURE END LIST*
D10*
X114238095Y-70254819D02*
X114238095Y-69254819D01*
X114238095Y-69731009D02*
X114809523Y-69731009D01*
X114809523Y-70254819D02*
X114809523Y-69254819D01*
X115238095Y-69350057D02*
X115285714Y-69302438D01*
X115285714Y-69302438D02*
X115380952Y-69254819D01*
X115380952Y-69254819D02*
X115619047Y-69254819D01*
X115619047Y-69254819D02*
X115714285Y-69302438D01*
X115714285Y-69302438D02*
X115761904Y-69350057D01*
X115761904Y-69350057D02*
X115809523Y-69445295D01*
X115809523Y-69445295D02*
X115809523Y-69540533D01*
X115809523Y-69540533D02*
X115761904Y-69683390D01*
X115761904Y-69683390D02*
X115190476Y-70254819D01*
X115190476Y-70254819D02*
X115809523Y-70254819D01*
X65680476Y-76574819D02*
X65680476Y-77289104D01*
X65680476Y-77289104D02*
X65632857Y-77431961D01*
X65632857Y-77431961D02*
X65537619Y-77527200D01*
X65537619Y-77527200D02*
X65394762Y-77574819D01*
X65394762Y-77574819D02*
X65299524Y-77574819D01*
X66680476Y-77574819D02*
X66109048Y-77574819D01*
X66394762Y-77574819D02*
X66394762Y-76574819D01*
X66394762Y-76574819D02*
X66299524Y-76717676D01*
X66299524Y-76717676D02*
X66204286Y-76812914D01*
X66204286Y-76812914D02*
X66109048Y-76860533D01*
X67013810Y-76574819D02*
X67680476Y-76574819D01*
X67680476Y-76574819D02*
X67251905Y-77574819D01*
X65444819Y-54036666D02*
X64968628Y-54369999D01*
X65444819Y-54608094D02*
X64444819Y-54608094D01*
X64444819Y-54608094D02*
X64444819Y-54227142D01*
X64444819Y-54227142D02*
X64492438Y-54131904D01*
X64492438Y-54131904D02*
X64540057Y-54084285D01*
X64540057Y-54084285D02*
X64635295Y-54036666D01*
X64635295Y-54036666D02*
X64778152Y-54036666D01*
X64778152Y-54036666D02*
X64873390Y-54084285D01*
X64873390Y-54084285D02*
X64921009Y-54131904D01*
X64921009Y-54131904D02*
X64968628Y-54227142D01*
X64968628Y-54227142D02*
X64968628Y-54608094D01*
X65444819Y-53084285D02*
X65444819Y-53655713D01*
X65444819Y-53369999D02*
X64444819Y-53369999D01*
X64444819Y-53369999D02*
X64587676Y-53465237D01*
X64587676Y-53465237D02*
X64682914Y-53560475D01*
X64682914Y-53560475D02*
X64730533Y-53655713D01*
X65228095Y-61574819D02*
X65228095Y-62384342D01*
X65228095Y-62384342D02*
X65275714Y-62479580D01*
X65275714Y-62479580D02*
X65323333Y-62527200D01*
X65323333Y-62527200D02*
X65418571Y-62574819D01*
X65418571Y-62574819D02*
X65609047Y-62574819D01*
X65609047Y-62574819D02*
X65704285Y-62527200D01*
X65704285Y-62527200D02*
X65751904Y-62479580D01*
X65751904Y-62479580D02*
X65799523Y-62384342D01*
X65799523Y-62384342D02*
X65799523Y-61574819D01*
X66799523Y-62574819D02*
X66228095Y-62574819D01*
X66513809Y-62574819D02*
X66513809Y-61574819D01*
X66513809Y-61574819D02*
X66418571Y-61717676D01*
X66418571Y-61717676D02*
X66323333Y-61812914D01*
X66323333Y-61812914D02*
X66228095Y-61860533D01*
X98228095Y-61074819D02*
X98228095Y-61884342D01*
X98228095Y-61884342D02*
X98275714Y-61979580D01*
X98275714Y-61979580D02*
X98323333Y-62027200D01*
X98323333Y-62027200D02*
X98418571Y-62074819D01*
X98418571Y-62074819D02*
X98609047Y-62074819D01*
X98609047Y-62074819D02*
X98704285Y-62027200D01*
X98704285Y-62027200D02*
X98751904Y-61979580D01*
X98751904Y-61979580D02*
X98799523Y-61884342D01*
X98799523Y-61884342D02*
X98799523Y-61074819D01*
X99751904Y-61074819D02*
X99275714Y-61074819D01*
X99275714Y-61074819D02*
X99228095Y-61551009D01*
X99228095Y-61551009D02*
X99275714Y-61503390D01*
X99275714Y-61503390D02*
X99370952Y-61455771D01*
X99370952Y-61455771D02*
X99609047Y-61455771D01*
X99609047Y-61455771D02*
X99704285Y-61503390D01*
X99704285Y-61503390D02*
X99751904Y-61551009D01*
X99751904Y-61551009D02*
X99799523Y-61646247D01*
X99799523Y-61646247D02*
X99799523Y-61884342D01*
X99799523Y-61884342D02*
X99751904Y-61979580D01*
X99751904Y-61979580D02*
X99704285Y-62027200D01*
X99704285Y-62027200D02*
X99609047Y-62074819D01*
X99609047Y-62074819D02*
X99370952Y-62074819D01*
X99370952Y-62074819D02*
X99275714Y-62027200D01*
X99275714Y-62027200D02*
X99228095Y-61979580D01*
X93944819Y-54186666D02*
X93468628Y-54519999D01*
X93944819Y-54758094D02*
X92944819Y-54758094D01*
X92944819Y-54758094D02*
X92944819Y-54377142D01*
X92944819Y-54377142D02*
X92992438Y-54281904D01*
X92992438Y-54281904D02*
X93040057Y-54234285D01*
X93040057Y-54234285D02*
X93135295Y-54186666D01*
X93135295Y-54186666D02*
X93278152Y-54186666D01*
X93278152Y-54186666D02*
X93373390Y-54234285D01*
X93373390Y-54234285D02*
X93421009Y-54281904D01*
X93421009Y-54281904D02*
X93468628Y-54377142D01*
X93468628Y-54377142D02*
X93468628Y-54758094D01*
X93278152Y-53329523D02*
X93944819Y-53329523D01*
X92897200Y-53567618D02*
X93611485Y-53805713D01*
X93611485Y-53805713D02*
X93611485Y-53186666D01*
X98444819Y-54166666D02*
X97968628Y-54499999D01*
X98444819Y-54738094D02*
X97444819Y-54738094D01*
X97444819Y-54738094D02*
X97444819Y-54357142D01*
X97444819Y-54357142D02*
X97492438Y-54261904D01*
X97492438Y-54261904D02*
X97540057Y-54214285D01*
X97540057Y-54214285D02*
X97635295Y-54166666D01*
X97635295Y-54166666D02*
X97778152Y-54166666D01*
X97778152Y-54166666D02*
X97873390Y-54214285D01*
X97873390Y-54214285D02*
X97921009Y-54261904D01*
X97921009Y-54261904D02*
X97968628Y-54357142D01*
X97968628Y-54357142D02*
X97968628Y-54738094D01*
X97444819Y-53261904D02*
X97444819Y-53738094D01*
X97444819Y-53738094D02*
X97921009Y-53785713D01*
X97921009Y-53785713D02*
X97873390Y-53738094D01*
X97873390Y-53738094D02*
X97825771Y-53642856D01*
X97825771Y-53642856D02*
X97825771Y-53404761D01*
X97825771Y-53404761D02*
X97873390Y-53309523D01*
X97873390Y-53309523D02*
X97921009Y-53261904D01*
X97921009Y-53261904D02*
X98016247Y-53214285D01*
X98016247Y-53214285D02*
X98254342Y-53214285D01*
X98254342Y-53214285D02*
X98349580Y-53261904D01*
X98349580Y-53261904D02*
X98397200Y-53309523D01*
X98397200Y-53309523D02*
X98444819Y-53404761D01*
X98444819Y-53404761D02*
X98444819Y-53642856D01*
X98444819Y-53642856D02*
X98397200Y-53738094D01*
X98397200Y-53738094D02*
X98349580Y-53785713D01*
X71795476Y-57524819D02*
X71795476Y-58239104D01*
X71795476Y-58239104D02*
X71747857Y-58381961D01*
X71747857Y-58381961D02*
X71652619Y-58477200D01*
X71652619Y-58477200D02*
X71509762Y-58524819D01*
X71509762Y-58524819D02*
X71414524Y-58524819D01*
X72795476Y-58524819D02*
X72224048Y-58524819D01*
X72509762Y-58524819D02*
X72509762Y-57524819D01*
X72509762Y-57524819D02*
X72414524Y-57667676D01*
X72414524Y-57667676D02*
X72319286Y-57762914D01*
X72319286Y-57762914D02*
X72224048Y-57810533D01*
X73700238Y-57524819D02*
X73224048Y-57524819D01*
X73224048Y-57524819D02*
X73176429Y-58001009D01*
X73176429Y-58001009D02*
X73224048Y-57953390D01*
X73224048Y-57953390D02*
X73319286Y-57905771D01*
X73319286Y-57905771D02*
X73557381Y-57905771D01*
X73557381Y-57905771D02*
X73652619Y-57953390D01*
X73652619Y-57953390D02*
X73700238Y-58001009D01*
X73700238Y-58001009D02*
X73747857Y-58096247D01*
X73747857Y-58096247D02*
X73747857Y-58334342D01*
X73747857Y-58334342D02*
X73700238Y-58429580D01*
X73700238Y-58429580D02*
X73652619Y-58477200D01*
X73652619Y-58477200D02*
X73557381Y-58524819D01*
X73557381Y-58524819D02*
X73319286Y-58524819D01*
X73319286Y-58524819D02*
X73224048Y-58477200D01*
X73224048Y-58477200D02*
X73176429Y-58429580D01*
X60728095Y-61574819D02*
X60728095Y-62384342D01*
X60728095Y-62384342D02*
X60775714Y-62479580D01*
X60775714Y-62479580D02*
X60823333Y-62527200D01*
X60823333Y-62527200D02*
X60918571Y-62574819D01*
X60918571Y-62574819D02*
X61109047Y-62574819D01*
X61109047Y-62574819D02*
X61204285Y-62527200D01*
X61204285Y-62527200D02*
X61251904Y-62479580D01*
X61251904Y-62479580D02*
X61299523Y-62384342D01*
X61299523Y-62384342D02*
X61299523Y-61574819D01*
X61728095Y-61670057D02*
X61775714Y-61622438D01*
X61775714Y-61622438D02*
X61870952Y-61574819D01*
X61870952Y-61574819D02*
X62109047Y-61574819D01*
X62109047Y-61574819D02*
X62204285Y-61622438D01*
X62204285Y-61622438D02*
X62251904Y-61670057D01*
X62251904Y-61670057D02*
X62299523Y-61765295D01*
X62299523Y-61765295D02*
X62299523Y-61860533D01*
X62299523Y-61860533D02*
X62251904Y-62003390D01*
X62251904Y-62003390D02*
X61680476Y-62574819D01*
X61680476Y-62574819D02*
X62299523Y-62574819D01*
X74444819Y-50853333D02*
X75159104Y-50853333D01*
X75159104Y-50853333D02*
X75301961Y-50900952D01*
X75301961Y-50900952D02*
X75397200Y-50996190D01*
X75397200Y-50996190D02*
X75444819Y-51139047D01*
X75444819Y-51139047D02*
X75444819Y-51234285D01*
X74540057Y-50424761D02*
X74492438Y-50377142D01*
X74492438Y-50377142D02*
X74444819Y-50281904D01*
X74444819Y-50281904D02*
X74444819Y-50043809D01*
X74444819Y-50043809D02*
X74492438Y-49948571D01*
X74492438Y-49948571D02*
X74540057Y-49900952D01*
X74540057Y-49900952D02*
X74635295Y-49853333D01*
X74635295Y-49853333D02*
X74730533Y-49853333D01*
X74730533Y-49853333D02*
X74873390Y-49900952D01*
X74873390Y-49900952D02*
X75444819Y-50472380D01*
X75444819Y-50472380D02*
X75444819Y-49853333D01*
X48156666Y-38219819D02*
X48156666Y-38934104D01*
X48156666Y-38934104D02*
X48109047Y-39076961D01*
X48109047Y-39076961D02*
X48013809Y-39172200D01*
X48013809Y-39172200D02*
X47870952Y-39219819D01*
X47870952Y-39219819D02*
X47775714Y-39219819D01*
X48537619Y-38219819D02*
X49156666Y-38219819D01*
X49156666Y-38219819D02*
X48823333Y-38600771D01*
X48823333Y-38600771D02*
X48966190Y-38600771D01*
X48966190Y-38600771D02*
X49061428Y-38648390D01*
X49061428Y-38648390D02*
X49109047Y-38696009D01*
X49109047Y-38696009D02*
X49156666Y-38791247D01*
X49156666Y-38791247D02*
X49156666Y-39029342D01*
X49156666Y-39029342D02*
X49109047Y-39124580D01*
X49109047Y-39124580D02*
X49061428Y-39172200D01*
X49061428Y-39172200D02*
X48966190Y-39219819D01*
X48966190Y-39219819D02*
X48680476Y-39219819D01*
X48680476Y-39219819D02*
X48585238Y-39172200D01*
X48585238Y-39172200D02*
X48537619Y-39124580D01*
X91680476Y-76374819D02*
X91680476Y-77089104D01*
X91680476Y-77089104D02*
X91632857Y-77231961D01*
X91632857Y-77231961D02*
X91537619Y-77327200D01*
X91537619Y-77327200D02*
X91394762Y-77374819D01*
X91394762Y-77374819D02*
X91299524Y-77374819D01*
X92680476Y-77374819D02*
X92109048Y-77374819D01*
X92394762Y-77374819D02*
X92394762Y-76374819D01*
X92394762Y-76374819D02*
X92299524Y-76517676D01*
X92299524Y-76517676D02*
X92204286Y-76612914D01*
X92204286Y-76612914D02*
X92109048Y-76660533D01*
X93251905Y-76803390D02*
X93156667Y-76755771D01*
X93156667Y-76755771D02*
X93109048Y-76708152D01*
X93109048Y-76708152D02*
X93061429Y-76612914D01*
X93061429Y-76612914D02*
X93061429Y-76565295D01*
X93061429Y-76565295D02*
X93109048Y-76470057D01*
X93109048Y-76470057D02*
X93156667Y-76422438D01*
X93156667Y-76422438D02*
X93251905Y-76374819D01*
X93251905Y-76374819D02*
X93442381Y-76374819D01*
X93442381Y-76374819D02*
X93537619Y-76422438D01*
X93537619Y-76422438D02*
X93585238Y-76470057D01*
X93585238Y-76470057D02*
X93632857Y-76565295D01*
X93632857Y-76565295D02*
X93632857Y-76612914D01*
X93632857Y-76612914D02*
X93585238Y-76708152D01*
X93585238Y-76708152D02*
X93537619Y-76755771D01*
X93537619Y-76755771D02*
X93442381Y-76803390D01*
X93442381Y-76803390D02*
X93251905Y-76803390D01*
X93251905Y-76803390D02*
X93156667Y-76851009D01*
X93156667Y-76851009D02*
X93109048Y-76898628D01*
X93109048Y-76898628D02*
X93061429Y-76993866D01*
X93061429Y-76993866D02*
X93061429Y-77184342D01*
X93061429Y-77184342D02*
X93109048Y-77279580D01*
X93109048Y-77279580D02*
X93156667Y-77327200D01*
X93156667Y-77327200D02*
X93251905Y-77374819D01*
X93251905Y-77374819D02*
X93442381Y-77374819D01*
X93442381Y-77374819D02*
X93537619Y-77327200D01*
X93537619Y-77327200D02*
X93585238Y-77279580D01*
X93585238Y-77279580D02*
X93632857Y-77184342D01*
X93632857Y-77184342D02*
X93632857Y-76993866D01*
X93632857Y-76993866D02*
X93585238Y-76898628D01*
X93585238Y-76898628D02*
X93537619Y-76851009D01*
X93537619Y-76851009D02*
X93442381Y-76803390D01*
X95323333Y-58379580D02*
X95275714Y-58427200D01*
X95275714Y-58427200D02*
X95132857Y-58474819D01*
X95132857Y-58474819D02*
X95037619Y-58474819D01*
X95037619Y-58474819D02*
X94894762Y-58427200D01*
X94894762Y-58427200D02*
X94799524Y-58331961D01*
X94799524Y-58331961D02*
X94751905Y-58236723D01*
X94751905Y-58236723D02*
X94704286Y-58046247D01*
X94704286Y-58046247D02*
X94704286Y-57903390D01*
X94704286Y-57903390D02*
X94751905Y-57712914D01*
X94751905Y-57712914D02*
X94799524Y-57617676D01*
X94799524Y-57617676D02*
X94894762Y-57522438D01*
X94894762Y-57522438D02*
X95037619Y-57474819D01*
X95037619Y-57474819D02*
X95132857Y-57474819D01*
X95132857Y-57474819D02*
X95275714Y-57522438D01*
X95275714Y-57522438D02*
X95323333Y-57570057D01*
X96180476Y-57808152D02*
X96180476Y-58474819D01*
X95942381Y-57427200D02*
X95704286Y-58141485D01*
X95704286Y-58141485D02*
X96323333Y-58141485D01*
X56444819Y-54186666D02*
X55968628Y-54519999D01*
X56444819Y-54758094D02*
X55444819Y-54758094D01*
X55444819Y-54758094D02*
X55444819Y-54377142D01*
X55444819Y-54377142D02*
X55492438Y-54281904D01*
X55492438Y-54281904D02*
X55540057Y-54234285D01*
X55540057Y-54234285D02*
X55635295Y-54186666D01*
X55635295Y-54186666D02*
X55778152Y-54186666D01*
X55778152Y-54186666D02*
X55873390Y-54234285D01*
X55873390Y-54234285D02*
X55921009Y-54281904D01*
X55921009Y-54281904D02*
X55968628Y-54377142D01*
X55968628Y-54377142D02*
X55968628Y-54758094D01*
X55444819Y-53853332D02*
X55444819Y-53234285D01*
X55444819Y-53234285D02*
X55825771Y-53567618D01*
X55825771Y-53567618D02*
X55825771Y-53424761D01*
X55825771Y-53424761D02*
X55873390Y-53329523D01*
X55873390Y-53329523D02*
X55921009Y-53281904D01*
X55921009Y-53281904D02*
X56016247Y-53234285D01*
X56016247Y-53234285D02*
X56254342Y-53234285D01*
X56254342Y-53234285D02*
X56349580Y-53281904D01*
X56349580Y-53281904D02*
X56397200Y-53329523D01*
X56397200Y-53329523D02*
X56444819Y-53424761D01*
X56444819Y-53424761D02*
X56444819Y-53710475D01*
X56444819Y-53710475D02*
X56397200Y-53805713D01*
X56397200Y-53805713D02*
X56349580Y-53853332D01*
X114238095Y-35254819D02*
X114238095Y-34254819D01*
X114238095Y-34731009D02*
X114809523Y-34731009D01*
X114809523Y-35254819D02*
X114809523Y-34254819D01*
X115809523Y-35254819D02*
X115238095Y-35254819D01*
X115523809Y-35254819D02*
X115523809Y-34254819D01*
X115523809Y-34254819D02*
X115428571Y-34397676D01*
X115428571Y-34397676D02*
X115333333Y-34492914D01*
X115333333Y-34492914D02*
X115238095Y-34540533D01*
X104323333Y-57879580D02*
X104275714Y-57927200D01*
X104275714Y-57927200D02*
X104132857Y-57974819D01*
X104132857Y-57974819D02*
X104037619Y-57974819D01*
X104037619Y-57974819D02*
X103894762Y-57927200D01*
X103894762Y-57927200D02*
X103799524Y-57831961D01*
X103799524Y-57831961D02*
X103751905Y-57736723D01*
X103751905Y-57736723D02*
X103704286Y-57546247D01*
X103704286Y-57546247D02*
X103704286Y-57403390D01*
X103704286Y-57403390D02*
X103751905Y-57212914D01*
X103751905Y-57212914D02*
X103799524Y-57117676D01*
X103799524Y-57117676D02*
X103894762Y-57022438D01*
X103894762Y-57022438D02*
X104037619Y-56974819D01*
X104037619Y-56974819D02*
X104132857Y-56974819D01*
X104132857Y-56974819D02*
X104275714Y-57022438D01*
X104275714Y-57022438D02*
X104323333Y-57070057D01*
X105180476Y-56974819D02*
X104990000Y-56974819D01*
X104990000Y-56974819D02*
X104894762Y-57022438D01*
X104894762Y-57022438D02*
X104847143Y-57070057D01*
X104847143Y-57070057D02*
X104751905Y-57212914D01*
X104751905Y-57212914D02*
X104704286Y-57403390D01*
X104704286Y-57403390D02*
X104704286Y-57784342D01*
X104704286Y-57784342D02*
X104751905Y-57879580D01*
X104751905Y-57879580D02*
X104799524Y-57927200D01*
X104799524Y-57927200D02*
X104894762Y-57974819D01*
X104894762Y-57974819D02*
X105085238Y-57974819D01*
X105085238Y-57974819D02*
X105180476Y-57927200D01*
X105180476Y-57927200D02*
X105228095Y-57879580D01*
X105228095Y-57879580D02*
X105275714Y-57784342D01*
X105275714Y-57784342D02*
X105275714Y-57546247D01*
X105275714Y-57546247D02*
X105228095Y-57451009D01*
X105228095Y-57451009D02*
X105180476Y-57403390D01*
X105180476Y-57403390D02*
X105085238Y-57355771D01*
X105085238Y-57355771D02*
X104894762Y-57355771D01*
X104894762Y-57355771D02*
X104799524Y-57403390D01*
X104799524Y-57403390D02*
X104751905Y-57451009D01*
X104751905Y-57451009D02*
X104704286Y-57546247D01*
X109444819Y-50829523D02*
X110159104Y-50829523D01*
X110159104Y-50829523D02*
X110301961Y-50877142D01*
X110301961Y-50877142D02*
X110397200Y-50972380D01*
X110397200Y-50972380D02*
X110444819Y-51115237D01*
X110444819Y-51115237D02*
X110444819Y-51210475D01*
X110444819Y-49829523D02*
X110444819Y-50400951D01*
X110444819Y-50115237D02*
X109444819Y-50115237D01*
X109444819Y-50115237D02*
X109587676Y-50210475D01*
X109587676Y-50210475D02*
X109682914Y-50305713D01*
X109682914Y-50305713D02*
X109730533Y-50400951D01*
X109778152Y-48972380D02*
X110444819Y-48972380D01*
X109397200Y-49210475D02*
X110111485Y-49448570D01*
X110111485Y-49448570D02*
X110111485Y-48829523D01*
X57823333Y-58379580D02*
X57775714Y-58427200D01*
X57775714Y-58427200D02*
X57632857Y-58474819D01*
X57632857Y-58474819D02*
X57537619Y-58474819D01*
X57537619Y-58474819D02*
X57394762Y-58427200D01*
X57394762Y-58427200D02*
X57299524Y-58331961D01*
X57299524Y-58331961D02*
X57251905Y-58236723D01*
X57251905Y-58236723D02*
X57204286Y-58046247D01*
X57204286Y-58046247D02*
X57204286Y-57903390D01*
X57204286Y-57903390D02*
X57251905Y-57712914D01*
X57251905Y-57712914D02*
X57299524Y-57617676D01*
X57299524Y-57617676D02*
X57394762Y-57522438D01*
X57394762Y-57522438D02*
X57537619Y-57474819D01*
X57537619Y-57474819D02*
X57632857Y-57474819D01*
X57632857Y-57474819D02*
X57775714Y-57522438D01*
X57775714Y-57522438D02*
X57823333Y-57570057D01*
X58156667Y-57474819D02*
X58775714Y-57474819D01*
X58775714Y-57474819D02*
X58442381Y-57855771D01*
X58442381Y-57855771D02*
X58585238Y-57855771D01*
X58585238Y-57855771D02*
X58680476Y-57903390D01*
X58680476Y-57903390D02*
X58728095Y-57951009D01*
X58728095Y-57951009D02*
X58775714Y-58046247D01*
X58775714Y-58046247D02*
X58775714Y-58284342D01*
X58775714Y-58284342D02*
X58728095Y-58379580D01*
X58728095Y-58379580D02*
X58680476Y-58427200D01*
X58680476Y-58427200D02*
X58585238Y-58474819D01*
X58585238Y-58474819D02*
X58299524Y-58474819D01*
X58299524Y-58474819D02*
X58204286Y-58427200D01*
X58204286Y-58427200D02*
X58156667Y-58379580D01*
X60944819Y-53936666D02*
X60468628Y-54269999D01*
X60944819Y-54508094D02*
X59944819Y-54508094D01*
X59944819Y-54508094D02*
X59944819Y-54127142D01*
X59944819Y-54127142D02*
X59992438Y-54031904D01*
X59992438Y-54031904D02*
X60040057Y-53984285D01*
X60040057Y-53984285D02*
X60135295Y-53936666D01*
X60135295Y-53936666D02*
X60278152Y-53936666D01*
X60278152Y-53936666D02*
X60373390Y-53984285D01*
X60373390Y-53984285D02*
X60421009Y-54031904D01*
X60421009Y-54031904D02*
X60468628Y-54127142D01*
X60468628Y-54127142D02*
X60468628Y-54508094D01*
X60040057Y-53555713D02*
X59992438Y-53508094D01*
X59992438Y-53508094D02*
X59944819Y-53412856D01*
X59944819Y-53412856D02*
X59944819Y-53174761D01*
X59944819Y-53174761D02*
X59992438Y-53079523D01*
X59992438Y-53079523D02*
X60040057Y-53031904D01*
X60040057Y-53031904D02*
X60135295Y-52984285D01*
X60135295Y-52984285D02*
X60230533Y-52984285D01*
X60230533Y-52984285D02*
X60373390Y-53031904D01*
X60373390Y-53031904D02*
X60944819Y-53603332D01*
X60944819Y-53603332D02*
X60944819Y-52984285D01*
X62323333Y-58379580D02*
X62275714Y-58427200D01*
X62275714Y-58427200D02*
X62132857Y-58474819D01*
X62132857Y-58474819D02*
X62037619Y-58474819D01*
X62037619Y-58474819D02*
X61894762Y-58427200D01*
X61894762Y-58427200D02*
X61799524Y-58331961D01*
X61799524Y-58331961D02*
X61751905Y-58236723D01*
X61751905Y-58236723D02*
X61704286Y-58046247D01*
X61704286Y-58046247D02*
X61704286Y-57903390D01*
X61704286Y-57903390D02*
X61751905Y-57712914D01*
X61751905Y-57712914D02*
X61799524Y-57617676D01*
X61799524Y-57617676D02*
X61894762Y-57522438D01*
X61894762Y-57522438D02*
X62037619Y-57474819D01*
X62037619Y-57474819D02*
X62132857Y-57474819D01*
X62132857Y-57474819D02*
X62275714Y-57522438D01*
X62275714Y-57522438D02*
X62323333Y-57570057D01*
X62704286Y-57570057D02*
X62751905Y-57522438D01*
X62751905Y-57522438D02*
X62847143Y-57474819D01*
X62847143Y-57474819D02*
X63085238Y-57474819D01*
X63085238Y-57474819D02*
X63180476Y-57522438D01*
X63180476Y-57522438D02*
X63228095Y-57570057D01*
X63228095Y-57570057D02*
X63275714Y-57665295D01*
X63275714Y-57665295D02*
X63275714Y-57760533D01*
X63275714Y-57760533D02*
X63228095Y-57903390D01*
X63228095Y-57903390D02*
X62656667Y-58474819D01*
X62656667Y-58474819D02*
X63275714Y-58474819D01*
X99823333Y-57879580D02*
X99775714Y-57927200D01*
X99775714Y-57927200D02*
X99632857Y-57974819D01*
X99632857Y-57974819D02*
X99537619Y-57974819D01*
X99537619Y-57974819D02*
X99394762Y-57927200D01*
X99394762Y-57927200D02*
X99299524Y-57831961D01*
X99299524Y-57831961D02*
X99251905Y-57736723D01*
X99251905Y-57736723D02*
X99204286Y-57546247D01*
X99204286Y-57546247D02*
X99204286Y-57403390D01*
X99204286Y-57403390D02*
X99251905Y-57212914D01*
X99251905Y-57212914D02*
X99299524Y-57117676D01*
X99299524Y-57117676D02*
X99394762Y-57022438D01*
X99394762Y-57022438D02*
X99537619Y-56974819D01*
X99537619Y-56974819D02*
X99632857Y-56974819D01*
X99632857Y-56974819D02*
X99775714Y-57022438D01*
X99775714Y-57022438D02*
X99823333Y-57070057D01*
X100728095Y-56974819D02*
X100251905Y-56974819D01*
X100251905Y-56974819D02*
X100204286Y-57451009D01*
X100204286Y-57451009D02*
X100251905Y-57403390D01*
X100251905Y-57403390D02*
X100347143Y-57355771D01*
X100347143Y-57355771D02*
X100585238Y-57355771D01*
X100585238Y-57355771D02*
X100680476Y-57403390D01*
X100680476Y-57403390D02*
X100728095Y-57451009D01*
X100728095Y-57451009D02*
X100775714Y-57546247D01*
X100775714Y-57546247D02*
X100775714Y-57784342D01*
X100775714Y-57784342D02*
X100728095Y-57879580D01*
X100728095Y-57879580D02*
X100680476Y-57927200D01*
X100680476Y-57927200D02*
X100585238Y-57974819D01*
X100585238Y-57974819D02*
X100347143Y-57974819D01*
X100347143Y-57974819D02*
X100251905Y-57927200D01*
X100251905Y-57927200D02*
X100204286Y-57879580D01*
X36238095Y-70254819D02*
X36238095Y-69254819D01*
X36238095Y-69731009D02*
X36809523Y-69731009D01*
X36809523Y-70254819D02*
X36809523Y-69254819D01*
X37190476Y-69254819D02*
X37809523Y-69254819D01*
X37809523Y-69254819D02*
X37476190Y-69635771D01*
X37476190Y-69635771D02*
X37619047Y-69635771D01*
X37619047Y-69635771D02*
X37714285Y-69683390D01*
X37714285Y-69683390D02*
X37761904Y-69731009D01*
X37761904Y-69731009D02*
X37809523Y-69826247D01*
X37809523Y-69826247D02*
X37809523Y-70064342D01*
X37809523Y-70064342D02*
X37761904Y-70159580D01*
X37761904Y-70159580D02*
X37714285Y-70207200D01*
X37714285Y-70207200D02*
X37619047Y-70254819D01*
X37619047Y-70254819D02*
X37333333Y-70254819D01*
X37333333Y-70254819D02*
X37238095Y-70207200D01*
X37238095Y-70207200D02*
X37190476Y-70159580D01*
X82680476Y-38219819D02*
X82680476Y-38934104D01*
X82680476Y-38934104D02*
X82632857Y-39076961D01*
X82632857Y-39076961D02*
X82537619Y-39172200D01*
X82537619Y-39172200D02*
X82394762Y-39219819D01*
X82394762Y-39219819D02*
X82299524Y-39219819D01*
X83680476Y-39219819D02*
X83109048Y-39219819D01*
X83394762Y-39219819D02*
X83394762Y-38219819D01*
X83394762Y-38219819D02*
X83299524Y-38362676D01*
X83299524Y-38362676D02*
X83204286Y-38457914D01*
X83204286Y-38457914D02*
X83109048Y-38505533D01*
X84632857Y-39219819D02*
X84061429Y-39219819D01*
X84347143Y-39219819D02*
X84347143Y-38219819D01*
X84347143Y-38219819D02*
X84251905Y-38362676D01*
X84251905Y-38362676D02*
X84156667Y-38457914D01*
X84156667Y-38457914D02*
X84061429Y-38505533D01*
X93728095Y-61074819D02*
X93728095Y-61884342D01*
X93728095Y-61884342D02*
X93775714Y-61979580D01*
X93775714Y-61979580D02*
X93823333Y-62027200D01*
X93823333Y-62027200D02*
X93918571Y-62074819D01*
X93918571Y-62074819D02*
X94109047Y-62074819D01*
X94109047Y-62074819D02*
X94204285Y-62027200D01*
X94204285Y-62027200D02*
X94251904Y-61979580D01*
X94251904Y-61979580D02*
X94299523Y-61884342D01*
X94299523Y-61884342D02*
X94299523Y-61074819D01*
X95204285Y-61074819D02*
X95013809Y-61074819D01*
X95013809Y-61074819D02*
X94918571Y-61122438D01*
X94918571Y-61122438D02*
X94870952Y-61170057D01*
X94870952Y-61170057D02*
X94775714Y-61312914D01*
X94775714Y-61312914D02*
X94728095Y-61503390D01*
X94728095Y-61503390D02*
X94728095Y-61884342D01*
X94728095Y-61884342D02*
X94775714Y-61979580D01*
X94775714Y-61979580D02*
X94823333Y-62027200D01*
X94823333Y-62027200D02*
X94918571Y-62074819D01*
X94918571Y-62074819D02*
X95109047Y-62074819D01*
X95109047Y-62074819D02*
X95204285Y-62027200D01*
X95204285Y-62027200D02*
X95251904Y-61979580D01*
X95251904Y-61979580D02*
X95299523Y-61884342D01*
X95299523Y-61884342D02*
X95299523Y-61646247D01*
X95299523Y-61646247D02*
X95251904Y-61551009D01*
X95251904Y-61551009D02*
X95204285Y-61503390D01*
X95204285Y-61503390D02*
X95109047Y-61455771D01*
X95109047Y-61455771D02*
X94918571Y-61455771D01*
X94918571Y-61455771D02*
X94823333Y-61503390D01*
X94823333Y-61503390D02*
X94775714Y-61551009D01*
X94775714Y-61551009D02*
X94728095Y-61646247D01*
X56228095Y-61574819D02*
X56228095Y-62384342D01*
X56228095Y-62384342D02*
X56275714Y-62479580D01*
X56275714Y-62479580D02*
X56323333Y-62527200D01*
X56323333Y-62527200D02*
X56418571Y-62574819D01*
X56418571Y-62574819D02*
X56609047Y-62574819D01*
X56609047Y-62574819D02*
X56704285Y-62527200D01*
X56704285Y-62527200D02*
X56751904Y-62479580D01*
X56751904Y-62479580D02*
X56799523Y-62384342D01*
X56799523Y-62384342D02*
X56799523Y-61574819D01*
X57180476Y-61574819D02*
X57799523Y-61574819D01*
X57799523Y-61574819D02*
X57466190Y-61955771D01*
X57466190Y-61955771D02*
X57609047Y-61955771D01*
X57609047Y-61955771D02*
X57704285Y-62003390D01*
X57704285Y-62003390D02*
X57751904Y-62051009D01*
X57751904Y-62051009D02*
X57799523Y-62146247D01*
X57799523Y-62146247D02*
X57799523Y-62384342D01*
X57799523Y-62384342D02*
X57751904Y-62479580D01*
X57751904Y-62479580D02*
X57704285Y-62527200D01*
X57704285Y-62527200D02*
X57609047Y-62574819D01*
X57609047Y-62574819D02*
X57323333Y-62574819D01*
X57323333Y-62574819D02*
X57228095Y-62527200D01*
X57228095Y-62527200D02*
X57180476Y-62479580D01*
X66823333Y-58379580D02*
X66775714Y-58427200D01*
X66775714Y-58427200D02*
X66632857Y-58474819D01*
X66632857Y-58474819D02*
X66537619Y-58474819D01*
X66537619Y-58474819D02*
X66394762Y-58427200D01*
X66394762Y-58427200D02*
X66299524Y-58331961D01*
X66299524Y-58331961D02*
X66251905Y-58236723D01*
X66251905Y-58236723D02*
X66204286Y-58046247D01*
X66204286Y-58046247D02*
X66204286Y-57903390D01*
X66204286Y-57903390D02*
X66251905Y-57712914D01*
X66251905Y-57712914D02*
X66299524Y-57617676D01*
X66299524Y-57617676D02*
X66394762Y-57522438D01*
X66394762Y-57522438D02*
X66537619Y-57474819D01*
X66537619Y-57474819D02*
X66632857Y-57474819D01*
X66632857Y-57474819D02*
X66775714Y-57522438D01*
X66775714Y-57522438D02*
X66823333Y-57570057D01*
X67775714Y-58474819D02*
X67204286Y-58474819D01*
X67490000Y-58474819D02*
X67490000Y-57474819D01*
X67490000Y-57474819D02*
X67394762Y-57617676D01*
X67394762Y-57617676D02*
X67299524Y-57712914D01*
X67299524Y-57712914D02*
X67204286Y-57760533D01*
X102944819Y-54186666D02*
X102468628Y-54519999D01*
X102944819Y-54758094D02*
X101944819Y-54758094D01*
X101944819Y-54758094D02*
X101944819Y-54377142D01*
X101944819Y-54377142D02*
X101992438Y-54281904D01*
X101992438Y-54281904D02*
X102040057Y-54234285D01*
X102040057Y-54234285D02*
X102135295Y-54186666D01*
X102135295Y-54186666D02*
X102278152Y-54186666D01*
X102278152Y-54186666D02*
X102373390Y-54234285D01*
X102373390Y-54234285D02*
X102421009Y-54281904D01*
X102421009Y-54281904D02*
X102468628Y-54377142D01*
X102468628Y-54377142D02*
X102468628Y-54758094D01*
X101944819Y-53329523D02*
X101944819Y-53519999D01*
X101944819Y-53519999D02*
X101992438Y-53615237D01*
X101992438Y-53615237D02*
X102040057Y-53662856D01*
X102040057Y-53662856D02*
X102182914Y-53758094D01*
X102182914Y-53758094D02*
X102373390Y-53805713D01*
X102373390Y-53805713D02*
X102754342Y-53805713D01*
X102754342Y-53805713D02*
X102849580Y-53758094D01*
X102849580Y-53758094D02*
X102897200Y-53710475D01*
X102897200Y-53710475D02*
X102944819Y-53615237D01*
X102944819Y-53615237D02*
X102944819Y-53424761D01*
X102944819Y-53424761D02*
X102897200Y-53329523D01*
X102897200Y-53329523D02*
X102849580Y-53281904D01*
X102849580Y-53281904D02*
X102754342Y-53234285D01*
X102754342Y-53234285D02*
X102516247Y-53234285D01*
X102516247Y-53234285D02*
X102421009Y-53281904D01*
X102421009Y-53281904D02*
X102373390Y-53329523D01*
X102373390Y-53329523D02*
X102325771Y-53424761D01*
X102325771Y-53424761D02*
X102325771Y-53615237D01*
X102325771Y-53615237D02*
X102373390Y-53710475D01*
X102373390Y-53710475D02*
X102421009Y-53758094D01*
X102421009Y-53758094D02*
X102516247Y-53805713D01*
X102728095Y-61074819D02*
X102728095Y-61884342D01*
X102728095Y-61884342D02*
X102775714Y-61979580D01*
X102775714Y-61979580D02*
X102823333Y-62027200D01*
X102823333Y-62027200D02*
X102918571Y-62074819D01*
X102918571Y-62074819D02*
X103109047Y-62074819D01*
X103109047Y-62074819D02*
X103204285Y-62027200D01*
X103204285Y-62027200D02*
X103251904Y-61979580D01*
X103251904Y-61979580D02*
X103299523Y-61884342D01*
X103299523Y-61884342D02*
X103299523Y-61074819D01*
X104204285Y-61408152D02*
X104204285Y-62074819D01*
X103966190Y-61027200D02*
X103728095Y-61741485D01*
X103728095Y-61741485D02*
X104347142Y-61741485D01*
X36238095Y-35254819D02*
X36238095Y-34254819D01*
X36238095Y-34731009D02*
X36809523Y-34731009D01*
X36809523Y-35254819D02*
X36809523Y-34254819D01*
X37714285Y-34588152D02*
X37714285Y-35254819D01*
X37476190Y-34207200D02*
X37238095Y-34921485D01*
X37238095Y-34921485D02*
X37857142Y-34921485D01*
D11*
%TO.C,J17*%
X52540000Y-68995000D02*
X52540000Y-69595000D01*
X52540000Y-69595000D02*
X53040000Y-69295000D01*
X53040000Y-69295000D02*
X52540000Y-68995000D01*
X53590000Y-76145000D02*
X53590000Y-68395000D01*
X53590000Y-76145000D02*
X66890000Y-76145000D01*
X54190000Y-68395000D02*
X53590000Y-68395000D01*
X66890000Y-68395000D02*
X66290000Y-68395000D01*
X66890000Y-76145000D02*
X66890000Y-68395000D01*
D12*
%TO.C,R1*%
X64255000Y-56858748D02*
X64255000Y-57381252D01*
X65725000Y-56858748D02*
X65725000Y-57381252D01*
%TO.C,U1*%
X65990000Y-62960000D02*
X65190000Y-62960000D01*
X65990000Y-62960000D02*
X66790000Y-62960000D01*
X65990000Y-66080000D02*
X65190000Y-66080000D01*
X65990000Y-66080000D02*
X66790000Y-66080000D01*
X64690000Y-63010000D02*
X64450000Y-62680000D01*
X64930000Y-62680000D01*
X64690000Y-63010000D01*
G36*
X64690000Y-63010000D02*
G01*
X64450000Y-62680000D01*
X64930000Y-62680000D01*
X64690000Y-63010000D01*
G37*
%TO.C,U5*%
X98990000Y-62460000D02*
X98190000Y-62460000D01*
X98990000Y-62460000D02*
X99790000Y-62460000D01*
X98990000Y-65580000D02*
X98190000Y-65580000D01*
X98990000Y-65580000D02*
X99790000Y-65580000D01*
X97690000Y-62510000D02*
X97450000Y-62180000D01*
X97930000Y-62180000D01*
X97690000Y-62510000D01*
G36*
X97690000Y-62510000D02*
G01*
X97450000Y-62180000D01*
X97930000Y-62180000D01*
X97690000Y-62510000D01*
G37*
%TO.C,R4*%
X92755000Y-56758748D02*
X92755000Y-57281252D01*
X94225000Y-56758748D02*
X94225000Y-57281252D01*
%TO.C,R5*%
X97255000Y-56758748D02*
X97255000Y-57281252D01*
X98725000Y-56758748D02*
X98725000Y-57281252D01*
D11*
%TO.C,J15*%
X71460000Y-62910000D02*
X71460000Y-70980000D01*
X71460000Y-78530000D02*
X71460000Y-75520000D01*
X71460000Y-78530000D02*
X87720000Y-78530000D01*
X74890000Y-62910000D02*
X71460000Y-62910000D01*
X87720000Y-62910000D02*
X84290000Y-62910000D01*
X87720000Y-70980000D02*
X87720000Y-62910000D01*
X87720000Y-78530000D02*
X87720000Y-75520000D01*
D13*
X83260000Y-60745000D02*
G75*
G02*
X83060000Y-60745000I-100000J0D01*
G01*
X83060000Y-60745000D02*
G75*
G02*
X83260000Y-60745000I100000J0D01*
G01*
D12*
%TO.C,U2*%
X61490000Y-62960000D02*
X60690000Y-62960000D01*
X61490000Y-62960000D02*
X62290000Y-62960000D01*
X61490000Y-66080000D02*
X60690000Y-66080000D01*
X61490000Y-66080000D02*
X62290000Y-66080000D01*
X60190000Y-63010000D02*
X59950000Y-62680000D01*
X60430000Y-62680000D01*
X60190000Y-63010000D01*
G36*
X60190000Y-63010000D02*
G01*
X59950000Y-62680000D01*
X60430000Y-62680000D01*
X60190000Y-63010000D01*
G37*
D11*
%TO.C,J2*%
X57400000Y-35240000D02*
X57400000Y-38250000D01*
X57400000Y-42790000D02*
X57400000Y-50860000D01*
X57400000Y-50860000D02*
X60830000Y-50860000D01*
X70230000Y-50860000D02*
X73660000Y-50860000D01*
X73660000Y-35240000D02*
X57400000Y-35240000D01*
X73660000Y-35240000D02*
X73660000Y-38250000D01*
X73660000Y-50860000D02*
X73660000Y-42790000D01*
D13*
X62060000Y-53025000D02*
G75*
G02*
X61860000Y-53025000I-100000J0D01*
G01*
X61860000Y-53025000D02*
G75*
G02*
X62060000Y-53025000I100000J0D01*
G01*
D12*
%TO.C,J3*%
X42225000Y-46675000D02*
X42225000Y-50675000D01*
X42515000Y-39855000D02*
X54465000Y-39855000D01*
X42515000Y-43375000D02*
X42515000Y-39855000D01*
X43730000Y-39855000D02*
X43730000Y-40455000D01*
X43730000Y-40455000D02*
X45330000Y-40455000D01*
X45330000Y-40455000D02*
X45330000Y-39855000D01*
X47690000Y-39855000D02*
X47690000Y-40455000D01*
X47690000Y-40455000D02*
X49290000Y-40455000D01*
X49290000Y-40455000D02*
X49290000Y-39855000D01*
X51650000Y-39855000D02*
X51650000Y-40455000D01*
X51650000Y-40455000D02*
X53250000Y-40455000D01*
X53250000Y-40455000D02*
X53250000Y-39855000D01*
X54465000Y-39855000D02*
X54465000Y-43375000D01*
X54465000Y-43375000D02*
X42515000Y-43375000D01*
D11*
%TO.C,J18*%
X90040000Y-68795000D02*
X90040000Y-69395000D01*
X90040000Y-69395000D02*
X90540000Y-69095000D01*
X90540000Y-69095000D02*
X90040000Y-68795000D01*
X91090000Y-75945000D02*
X91090000Y-68195000D01*
X91090000Y-75945000D02*
X104390000Y-75945000D01*
X91690000Y-68195000D02*
X91090000Y-68195000D01*
X104390000Y-68195000D02*
X103790000Y-68195000D01*
X104390000Y-75945000D02*
X104390000Y-68195000D01*
D12*
%TO.C,C4*%
X94266248Y-59285000D02*
X94788752Y-59285000D01*
X94266248Y-60755000D02*
X94788752Y-60755000D01*
%TO.C,R3*%
X55255000Y-56758748D02*
X55255000Y-57281252D01*
X56725000Y-56758748D02*
X56725000Y-57281252D01*
%TO.C,C6*%
X103228748Y-59285000D02*
X103751252Y-59285000D01*
X103228748Y-60755000D02*
X103751252Y-60755000D01*
D11*
%TO.C,J14*%
X92360000Y-35240000D02*
X92360000Y-38250000D01*
X92360000Y-42790000D02*
X92360000Y-50860000D01*
X92360000Y-50860000D02*
X95790000Y-50860000D01*
X105190000Y-50860000D02*
X108620000Y-50860000D01*
X108620000Y-35240000D02*
X92360000Y-35240000D01*
X108620000Y-35240000D02*
X108620000Y-38250000D01*
X108620000Y-50860000D02*
X108620000Y-42790000D01*
D13*
X97020000Y-53025000D02*
G75*
G02*
X96820000Y-53025000I-100000J0D01*
G01*
X96820000Y-53025000D02*
G75*
G02*
X97020000Y-53025000I100000J0D01*
G01*
D12*
%TO.C,C3*%
X56728748Y-59285000D02*
X57251252Y-59285000D01*
X56728748Y-60755000D02*
X57251252Y-60755000D01*
%TO.C,R2*%
X59755000Y-56758748D02*
X59755000Y-57281252D01*
X61225000Y-56758748D02*
X61225000Y-57281252D01*
%TO.C,C2*%
X61228748Y-59285000D02*
X61751252Y-59285000D01*
X61228748Y-60755000D02*
X61751252Y-60755000D01*
%TO.C,C5*%
X98728748Y-59285000D02*
X99251252Y-59285000D01*
X98728748Y-60755000D02*
X99251252Y-60755000D01*
%TO.C,J11*%
X77225000Y-46675000D02*
X77225000Y-50675000D01*
X77515000Y-39855000D02*
X89465000Y-39855000D01*
X77515000Y-43375000D02*
X77515000Y-39855000D01*
X78730000Y-39855000D02*
X78730000Y-40455000D01*
X78730000Y-40455000D02*
X80330000Y-40455000D01*
X80330000Y-40455000D02*
X80330000Y-39855000D01*
X82690000Y-39855000D02*
X82690000Y-40455000D01*
X82690000Y-40455000D02*
X84290000Y-40455000D01*
X84290000Y-40455000D02*
X84290000Y-39855000D01*
X86650000Y-39855000D02*
X86650000Y-40455000D01*
X86650000Y-40455000D02*
X88250000Y-40455000D01*
X88250000Y-40455000D02*
X88250000Y-39855000D01*
X89465000Y-39855000D02*
X89465000Y-43375000D01*
X89465000Y-43375000D02*
X77515000Y-43375000D01*
%TO.C,U6*%
X94490000Y-62460000D02*
X93690000Y-62460000D01*
X94490000Y-62460000D02*
X95290000Y-62460000D01*
X94490000Y-65580000D02*
X93690000Y-65580000D01*
X94490000Y-65580000D02*
X95290000Y-65580000D01*
X93190000Y-62510000D02*
X92950000Y-62180000D01*
X93430000Y-62180000D01*
X93190000Y-62510000D01*
G36*
X93190000Y-62510000D02*
G01*
X92950000Y-62180000D01*
X93430000Y-62180000D01*
X93190000Y-62510000D01*
G37*
%TO.C,U3*%
X56990000Y-62960000D02*
X56190000Y-62960000D01*
X56990000Y-62960000D02*
X57790000Y-62960000D01*
X56990000Y-66080000D02*
X56190000Y-66080000D01*
X56990000Y-66080000D02*
X57790000Y-66080000D01*
X55690000Y-63010000D02*
X55450000Y-62680000D01*
X55930000Y-62680000D01*
X55690000Y-63010000D01*
G36*
X55690000Y-63010000D02*
G01*
X55450000Y-62680000D01*
X55930000Y-62680000D01*
X55690000Y-63010000D01*
G37*
%TO.C,C1*%
X65728748Y-59385000D02*
X66251252Y-59385000D01*
X65728748Y-60855000D02*
X66251252Y-60855000D01*
%TO.C,R6*%
X101755000Y-56758748D02*
X101755000Y-57281252D01*
X103225000Y-56758748D02*
X103225000Y-57281252D01*
%TO.C,U4*%
X103490000Y-62460000D02*
X102690000Y-62460000D01*
X103490000Y-62460000D02*
X104290000Y-62460000D01*
X103490000Y-65580000D02*
X102690000Y-65580000D01*
X103490000Y-65580000D02*
X104290000Y-65580000D01*
X102190000Y-62510000D02*
X101950000Y-62180000D01*
X102430000Y-62180000D01*
X102190000Y-62510000D01*
G36*
X102190000Y-62510000D02*
G01*
X101950000Y-62180000D01*
X102430000Y-62180000D01*
X102190000Y-62510000D01*
G37*
%TD*%
M02*
