M48
; DRILL file {KiCad 8.0.8} date 2025-01-20T17:52:47-0800
; FORMAT={-:-/ absolute / inch / decimal}
; #@! TF.CreationDate,2025-01-20T17:52:47-08:00
; #@! TF.GenerationSoftware,Kicad,Pcbnew,8.0.8
; #@! TF.FileFunction,Plated,1,2,PTH
FMAT,2
INCH
; #@! TA.AperFunction,Plated,PTH,ViaDrill
T1C0.0118
; #@! TA.AperFunction,Plated,PTH,ComponentDrill
T2C0.0374
; #@! TA.AperFunction,Plated,PTH,ComponentDrill
T3C0.0669
%
G90
G05
T1
X1.1811Y-1.9685
X1.1811Y-2.3622
X1.1811Y-2.5591
X1.1811Y-2.7559
X1.1811Y-3.1496
X1.378Y-1.9685
X1.378Y-2.5591
X1.378Y-2.7559
X1.5748Y-1.9685
X1.5748Y-2.5591
X1.5748Y-2.7559
X1.5748Y-2.9528
X1.5748Y-3.1496
X1.6929Y-2.9232
X1.7913Y-2.7461
X1.8012Y-2.5394
X1.8012Y-3.1004
X1.8504Y-2.3622
X1.8701Y-2.9134
X1.9488Y-2.7461
X1.9587Y-2.2539
X1.9685Y-1.9685
X1.9685Y-2.1654
X1.9685Y-3.1004
X1.9783Y-2.5295
X2.0177Y-2.9134
X2.0374Y-2.2441
X2.1063Y-2.7461
X2.1063Y-3.1004
X2.1161Y-2.2441
X2.1161Y-2.5394
X2.1654Y-1.9685
X2.1654Y-2.1654
X2.1654Y-2.7559
X2.1949Y-2.2441
X2.3622Y-2.1654
X2.3622Y-2.3622
X2.3622Y-2.5591
X2.3622Y-2.7559
X2.3622Y-3.1496
T2
X1.437Y-3.2087
X1.5354Y-3.2087
X1.6339Y-3.2087
X1.7323Y-3.2087
X1.8307Y-3.2087
X1.9291Y-3.2087
X2.0276Y-3.2087
X2.126Y-3.2087
T3
X1.2358Y-2.1124
X1.3917Y-2.1124
X1.5476Y-2.1124
M30
