M48
; DRILL file {KiCad 8.0.5} date 2024-12-09T20:18:45-0800
; FORMAT={-:-/ absolute / inch / decimal}
; #@! TF.CreationDate,2024-12-09T20:18:45-08:00
; #@! TF.GenerationSoftware,Kicad,Pcbnew,8.0.5
; #@! TF.FileFunction,Plated,1,2,PTH
FMAT,2
INCH
; #@! TA.AperFunction,Plated,PTH,ViaDrill
T1C0.0118
; #@! TA.AperFunction,Plated,PTH,ComponentDrill
T2C0.0374
; #@! TA.AperFunction,Plated,PTH,ComponentDrill
T3C0.0669
%
G90
G05
T1
X1.2106Y-2.6181
X1.2106Y-2.7953
X1.2106Y-2.9429
X1.3878Y-1.8799
X1.5059Y-2.6181
X1.5059Y-2.7953
X1.5059Y-2.9429
X1.6732Y-2.8248
X1.8504Y-2.9331
X1.8898Y-1.8307
X1.8898Y-2.1063
X1.8898Y-2.7657
X1.9094Y-2.2638
X1.9587Y-2.2539
X2.0079Y-2.9134
X2.0374Y-2.2539
X2.0374Y-2.7657
X2.1161Y-2.2539
X2.1555Y-2.9331
X2.1949Y-1.8307
X2.1949Y-2.1161
X2.1949Y-2.2441
X2.3524Y-2.6181
X2.3524Y-2.7953
X2.3524Y-2.9429
T2
X1.4173Y-3.0512
X1.5157Y-3.0512
X1.6142Y-3.0512
X1.7126Y-3.0512
X1.811Y-3.0512
X1.9094Y-3.0512
X2.0079Y-3.0512
X2.1063Y-3.0512
T3
X1.2358Y-2.1124
X1.3917Y-2.1124
X1.5476Y-2.1124
M30
