%TF.GenerationSoftware,KiCad,Pcbnew,8.0.8*%
%TF.CreationDate,2025-01-20T17:52:45-08:00*%
%TF.ProjectId,Motor_Adapt_C,4d6f746f-725f-4416-9461-70745f432e6b,rev?*%
%TF.SameCoordinates,Original*%
%TF.FileFunction,Legend,Top*%
%TF.FilePolarity,Positive*%
%FSLAX46Y46*%
G04 Gerber Fmt 4.6, Leading zero omitted, Abs format (unit mm)*
G04 Created by KiCad (PCBNEW 8.0.8) date 2025-01-20 17:52:45*
%MOMM*%
%LPD*%
G01*
G04 APERTURE LIST*
%ADD10C,0.250000*%
%ADD11C,0.150000*%
%ADD12C,0.120000*%
%ADD13C,0.127000*%
%ADD14C,0.200000*%
G04 APERTURE END LIST*
D10*
X48828904Y-78895050D02*
X48828904Y-78418860D01*
X49114619Y-78990288D02*
X48114619Y-78656955D01*
X48114619Y-78656955D02*
X49114619Y-78323622D01*
X31433000Y-57354949D02*
X31385380Y-57497806D01*
X31385380Y-57497806D02*
X31385380Y-57735901D01*
X31385380Y-57735901D02*
X31433000Y-57831139D01*
X31433000Y-57831139D02*
X31480619Y-57878758D01*
X31480619Y-57878758D02*
X31575857Y-57926377D01*
X31575857Y-57926377D02*
X31671095Y-57926377D01*
X31671095Y-57926377D02*
X31766333Y-57878758D01*
X31766333Y-57878758D02*
X31813952Y-57831139D01*
X31813952Y-57831139D02*
X31861571Y-57735901D01*
X31861571Y-57735901D02*
X31909190Y-57545425D01*
X31909190Y-57545425D02*
X31956809Y-57450187D01*
X31956809Y-57450187D02*
X32004428Y-57402568D01*
X32004428Y-57402568D02*
X32099666Y-57354949D01*
X32099666Y-57354949D02*
X32194904Y-57354949D01*
X32194904Y-57354949D02*
X32290142Y-57402568D01*
X32290142Y-57402568D02*
X32337761Y-57450187D01*
X32337761Y-57450187D02*
X32385380Y-57545425D01*
X32385380Y-57545425D02*
X32385380Y-57783520D01*
X32385380Y-57783520D02*
X32337761Y-57926377D01*
X31385380Y-58354949D02*
X32385380Y-58354949D01*
X31385380Y-58831139D02*
X32385380Y-58831139D01*
X32385380Y-58831139D02*
X31385380Y-59402567D01*
X31385380Y-59402567D02*
X32385380Y-59402567D01*
X54364619Y-78847431D02*
X53364619Y-78847431D01*
X41769380Y-78276003D02*
X41817000Y-78323622D01*
X41817000Y-78323622D02*
X41864619Y-78466479D01*
X41864619Y-78466479D02*
X41864619Y-78561717D01*
X41864619Y-78561717D02*
X41817000Y-78704574D01*
X41817000Y-78704574D02*
X41721761Y-78799812D01*
X41721761Y-78799812D02*
X41626523Y-78847431D01*
X41626523Y-78847431D02*
X41436047Y-78895050D01*
X41436047Y-78895050D02*
X41293190Y-78895050D01*
X41293190Y-78895050D02*
X41102714Y-78847431D01*
X41102714Y-78847431D02*
X41007476Y-78799812D01*
X41007476Y-78799812D02*
X40912238Y-78704574D01*
X40912238Y-78704574D02*
X40864619Y-78561717D01*
X40864619Y-78561717D02*
X40864619Y-78466479D01*
X40864619Y-78466479D02*
X40912238Y-78323622D01*
X40912238Y-78323622D02*
X40959857Y-78276003D01*
X40864619Y-77656955D02*
X40864619Y-77466479D01*
X40864619Y-77466479D02*
X40912238Y-77371241D01*
X40912238Y-77371241D02*
X41007476Y-77276003D01*
X41007476Y-77276003D02*
X41197952Y-77228384D01*
X41197952Y-77228384D02*
X41531285Y-77228384D01*
X41531285Y-77228384D02*
X41721761Y-77276003D01*
X41721761Y-77276003D02*
X41817000Y-77371241D01*
X41817000Y-77371241D02*
X41864619Y-77466479D01*
X41864619Y-77466479D02*
X41864619Y-77656955D01*
X41864619Y-77656955D02*
X41817000Y-77752193D01*
X41817000Y-77752193D02*
X41721761Y-77847431D01*
X41721761Y-77847431D02*
X41531285Y-77895050D01*
X41531285Y-77895050D02*
X41197952Y-77895050D01*
X41197952Y-77895050D02*
X41007476Y-77847431D01*
X41007476Y-77847431D02*
X40912238Y-77752193D01*
X40912238Y-77752193D02*
X40864619Y-77656955D01*
X41817000Y-76847431D02*
X41864619Y-76704574D01*
X41864619Y-76704574D02*
X41864619Y-76466479D01*
X41864619Y-76466479D02*
X41817000Y-76371241D01*
X41817000Y-76371241D02*
X41769380Y-76323622D01*
X41769380Y-76323622D02*
X41674142Y-76276003D01*
X41674142Y-76276003D02*
X41578904Y-76276003D01*
X41578904Y-76276003D02*
X41483666Y-76323622D01*
X41483666Y-76323622D02*
X41436047Y-76371241D01*
X41436047Y-76371241D02*
X41388428Y-76466479D01*
X41388428Y-76466479D02*
X41340809Y-76656955D01*
X41340809Y-76656955D02*
X41293190Y-76752193D01*
X41293190Y-76752193D02*
X41245571Y-76799812D01*
X41245571Y-76799812D02*
X41150333Y-76847431D01*
X41150333Y-76847431D02*
X41055095Y-76847431D01*
X41055095Y-76847431D02*
X40959857Y-76799812D01*
X40959857Y-76799812D02*
X40912238Y-76752193D01*
X40912238Y-76752193D02*
X40864619Y-76656955D01*
X40864619Y-76656955D02*
X40864619Y-76418860D01*
X40864619Y-76418860D02*
X40912238Y-76276003D01*
X38412238Y-78073622D02*
X38364619Y-78168860D01*
X38364619Y-78168860D02*
X38364619Y-78311717D01*
X38364619Y-78311717D02*
X38412238Y-78454574D01*
X38412238Y-78454574D02*
X38507476Y-78549812D01*
X38507476Y-78549812D02*
X38602714Y-78597431D01*
X38602714Y-78597431D02*
X38793190Y-78645050D01*
X38793190Y-78645050D02*
X38936047Y-78645050D01*
X38936047Y-78645050D02*
X39126523Y-78597431D01*
X39126523Y-78597431D02*
X39221761Y-78549812D01*
X39221761Y-78549812D02*
X39317000Y-78454574D01*
X39317000Y-78454574D02*
X39364619Y-78311717D01*
X39364619Y-78311717D02*
X39364619Y-78216479D01*
X39364619Y-78216479D02*
X39317000Y-78073622D01*
X39317000Y-78073622D02*
X39269380Y-78026003D01*
X39269380Y-78026003D02*
X38936047Y-78026003D01*
X38936047Y-78026003D02*
X38936047Y-78216479D01*
X39364619Y-77597431D02*
X38364619Y-77597431D01*
X38364619Y-77597431D02*
X39364619Y-77026003D01*
X39364619Y-77026003D02*
X38364619Y-77026003D01*
X39364619Y-76549812D02*
X38364619Y-76549812D01*
X38364619Y-76549812D02*
X38364619Y-76311717D01*
X38364619Y-76311717D02*
X38412238Y-76168860D01*
X38412238Y-76168860D02*
X38507476Y-76073622D01*
X38507476Y-76073622D02*
X38602714Y-76026003D01*
X38602714Y-76026003D02*
X38793190Y-75978384D01*
X38793190Y-75978384D02*
X38936047Y-75978384D01*
X38936047Y-75978384D02*
X39126523Y-76026003D01*
X39126523Y-76026003D02*
X39221761Y-76073622D01*
X39221761Y-76073622D02*
X39317000Y-76168860D01*
X39317000Y-76168860D02*
X39364619Y-76311717D01*
X39364619Y-76311717D02*
X39364619Y-76549812D01*
X39837761Y-57676377D02*
X39885380Y-57581139D01*
X39885380Y-57581139D02*
X39885380Y-57438282D01*
X39885380Y-57438282D02*
X39837761Y-57295425D01*
X39837761Y-57295425D02*
X39742523Y-57200187D01*
X39742523Y-57200187D02*
X39647285Y-57152568D01*
X39647285Y-57152568D02*
X39456809Y-57104949D01*
X39456809Y-57104949D02*
X39313952Y-57104949D01*
X39313952Y-57104949D02*
X39123476Y-57152568D01*
X39123476Y-57152568D02*
X39028238Y-57200187D01*
X39028238Y-57200187D02*
X38933000Y-57295425D01*
X38933000Y-57295425D02*
X38885380Y-57438282D01*
X38885380Y-57438282D02*
X38885380Y-57533520D01*
X38885380Y-57533520D02*
X38933000Y-57676377D01*
X38933000Y-57676377D02*
X38980619Y-57723996D01*
X38980619Y-57723996D02*
X39313952Y-57723996D01*
X39313952Y-57723996D02*
X39313952Y-57533520D01*
X38885380Y-58152568D02*
X39885380Y-58152568D01*
X39885380Y-58152568D02*
X38885380Y-58723996D01*
X38885380Y-58723996D02*
X39885380Y-58723996D01*
X38885380Y-59200187D02*
X39885380Y-59200187D01*
X39885380Y-59200187D02*
X39885380Y-59438282D01*
X39885380Y-59438282D02*
X39837761Y-59581139D01*
X39837761Y-59581139D02*
X39742523Y-59676377D01*
X39742523Y-59676377D02*
X39647285Y-59723996D01*
X39647285Y-59723996D02*
X39456809Y-59771615D01*
X39456809Y-59771615D02*
X39313952Y-59771615D01*
X39313952Y-59771615D02*
X39123476Y-59723996D01*
X39123476Y-59723996D02*
X39028238Y-59676377D01*
X39028238Y-59676377D02*
X38933000Y-59581139D01*
X38933000Y-59581139D02*
X38885380Y-59438282D01*
X38885380Y-59438282D02*
X38885380Y-59200187D01*
X34980619Y-57723996D02*
X34933000Y-57676377D01*
X34933000Y-57676377D02*
X34885380Y-57533520D01*
X34885380Y-57533520D02*
X34885380Y-57438282D01*
X34885380Y-57438282D02*
X34933000Y-57295425D01*
X34933000Y-57295425D02*
X35028238Y-57200187D01*
X35028238Y-57200187D02*
X35123476Y-57152568D01*
X35123476Y-57152568D02*
X35313952Y-57104949D01*
X35313952Y-57104949D02*
X35456809Y-57104949D01*
X35456809Y-57104949D02*
X35647285Y-57152568D01*
X35647285Y-57152568D02*
X35742523Y-57200187D01*
X35742523Y-57200187D02*
X35837761Y-57295425D01*
X35837761Y-57295425D02*
X35885380Y-57438282D01*
X35885380Y-57438282D02*
X35885380Y-57533520D01*
X35885380Y-57533520D02*
X35837761Y-57676377D01*
X35837761Y-57676377D02*
X35790142Y-57723996D01*
X35885380Y-58343044D02*
X35885380Y-58533520D01*
X35885380Y-58533520D02*
X35837761Y-58628758D01*
X35837761Y-58628758D02*
X35742523Y-58723996D01*
X35742523Y-58723996D02*
X35552047Y-58771615D01*
X35552047Y-58771615D02*
X35218714Y-58771615D01*
X35218714Y-58771615D02*
X35028238Y-58723996D01*
X35028238Y-58723996D02*
X34933000Y-58628758D01*
X34933000Y-58628758D02*
X34885380Y-58533520D01*
X34885380Y-58533520D02*
X34885380Y-58343044D01*
X34885380Y-58343044D02*
X34933000Y-58247806D01*
X34933000Y-58247806D02*
X35028238Y-58152568D01*
X35028238Y-58152568D02*
X35218714Y-58104949D01*
X35218714Y-58104949D02*
X35552047Y-58104949D01*
X35552047Y-58104949D02*
X35742523Y-58152568D01*
X35742523Y-58152568D02*
X35837761Y-58247806D01*
X35837761Y-58247806D02*
X35885380Y-58343044D01*
X34933000Y-59152568D02*
X34885380Y-59295425D01*
X34885380Y-59295425D02*
X34885380Y-59533520D01*
X34885380Y-59533520D02*
X34933000Y-59628758D01*
X34933000Y-59628758D02*
X34980619Y-59676377D01*
X34980619Y-59676377D02*
X35075857Y-59723996D01*
X35075857Y-59723996D02*
X35171095Y-59723996D01*
X35171095Y-59723996D02*
X35266333Y-59676377D01*
X35266333Y-59676377D02*
X35313952Y-59628758D01*
X35313952Y-59628758D02*
X35361571Y-59533520D01*
X35361571Y-59533520D02*
X35409190Y-59343044D01*
X35409190Y-59343044D02*
X35456809Y-59247806D01*
X35456809Y-59247806D02*
X35504428Y-59200187D01*
X35504428Y-59200187D02*
X35599666Y-59152568D01*
X35599666Y-59152568D02*
X35694904Y-59152568D01*
X35694904Y-59152568D02*
X35790142Y-59200187D01*
X35790142Y-59200187D02*
X35837761Y-59247806D01*
X35837761Y-59247806D02*
X35885380Y-59343044D01*
X35885380Y-59343044D02*
X35885380Y-59581139D01*
X35885380Y-59581139D02*
X35837761Y-59723996D01*
X36817000Y-78395050D02*
X36864619Y-78252193D01*
X36864619Y-78252193D02*
X36864619Y-78014098D01*
X36864619Y-78014098D02*
X36817000Y-77918860D01*
X36817000Y-77918860D02*
X36769380Y-77871241D01*
X36769380Y-77871241D02*
X36674142Y-77823622D01*
X36674142Y-77823622D02*
X36578904Y-77823622D01*
X36578904Y-77823622D02*
X36483666Y-77871241D01*
X36483666Y-77871241D02*
X36436047Y-77918860D01*
X36436047Y-77918860D02*
X36388428Y-78014098D01*
X36388428Y-78014098D02*
X36340809Y-78204574D01*
X36340809Y-78204574D02*
X36293190Y-78299812D01*
X36293190Y-78299812D02*
X36245571Y-78347431D01*
X36245571Y-78347431D02*
X36150333Y-78395050D01*
X36150333Y-78395050D02*
X36055095Y-78395050D01*
X36055095Y-78395050D02*
X35959857Y-78347431D01*
X35959857Y-78347431D02*
X35912238Y-78299812D01*
X35912238Y-78299812D02*
X35864619Y-78204574D01*
X35864619Y-78204574D02*
X35864619Y-77966479D01*
X35864619Y-77966479D02*
X35912238Y-77823622D01*
X36864619Y-77395050D02*
X35864619Y-77395050D01*
X36864619Y-76918860D02*
X35864619Y-76918860D01*
X35864619Y-76918860D02*
X36864619Y-76347432D01*
X36864619Y-76347432D02*
X35864619Y-76347432D01*
X51340809Y-78764098D02*
X51388428Y-78621241D01*
X51388428Y-78621241D02*
X51436047Y-78573622D01*
X51436047Y-78573622D02*
X51531285Y-78526003D01*
X51531285Y-78526003D02*
X51674142Y-78526003D01*
X51674142Y-78526003D02*
X51769380Y-78573622D01*
X51769380Y-78573622D02*
X51817000Y-78621241D01*
X51817000Y-78621241D02*
X51864619Y-78716479D01*
X51864619Y-78716479D02*
X51864619Y-79097431D01*
X51864619Y-79097431D02*
X50864619Y-79097431D01*
X50864619Y-79097431D02*
X50864619Y-78764098D01*
X50864619Y-78764098D02*
X50912238Y-78668860D01*
X50912238Y-78668860D02*
X50959857Y-78621241D01*
X50959857Y-78621241D02*
X51055095Y-78573622D01*
X51055095Y-78573622D02*
X51150333Y-78573622D01*
X51150333Y-78573622D02*
X51245571Y-78621241D01*
X51245571Y-78621241D02*
X51293190Y-78668860D01*
X51293190Y-78668860D02*
X51340809Y-78764098D01*
X51340809Y-78764098D02*
X51340809Y-79097431D01*
D11*
X32738095Y-70254819D02*
X32738095Y-69254819D01*
X32738095Y-69731009D02*
X33309523Y-69731009D01*
X33309523Y-70254819D02*
X33309523Y-69254819D01*
X33738095Y-69350057D02*
X33785714Y-69302438D01*
X33785714Y-69302438D02*
X33880952Y-69254819D01*
X33880952Y-69254819D02*
X34119047Y-69254819D01*
X34119047Y-69254819D02*
X34214285Y-69302438D01*
X34214285Y-69302438D02*
X34261904Y-69350057D01*
X34261904Y-69350057D02*
X34309523Y-69445295D01*
X34309523Y-69445295D02*
X34309523Y-69540533D01*
X34309523Y-69540533D02*
X34261904Y-69683390D01*
X34261904Y-69683390D02*
X33690476Y-70254819D01*
X33690476Y-70254819D02*
X34309523Y-70254819D01*
X57238095Y-70254819D02*
X57238095Y-69254819D01*
X57238095Y-69731009D02*
X57809523Y-69731009D01*
X57809523Y-70254819D02*
X57809523Y-69254819D01*
X58809523Y-70254819D02*
X58238095Y-70254819D01*
X58523809Y-70254819D02*
X58523809Y-69254819D01*
X58523809Y-69254819D02*
X58428571Y-69397676D01*
X58428571Y-69397676D02*
X58333333Y-69492914D01*
X58333333Y-69492914D02*
X58238095Y-69540533D01*
X56109819Y-65111094D02*
X55109819Y-65111094D01*
X55109819Y-65111094D02*
X55109819Y-64872999D01*
X55109819Y-64872999D02*
X55157438Y-64730142D01*
X55157438Y-64730142D02*
X55252676Y-64634904D01*
X55252676Y-64634904D02*
X55347914Y-64587285D01*
X55347914Y-64587285D02*
X55538390Y-64539666D01*
X55538390Y-64539666D02*
X55681247Y-64539666D01*
X55681247Y-64539666D02*
X55871723Y-64587285D01*
X55871723Y-64587285D02*
X55966961Y-64634904D01*
X55966961Y-64634904D02*
X56062200Y-64730142D01*
X56062200Y-64730142D02*
X56109819Y-64872999D01*
X56109819Y-64872999D02*
X56109819Y-65111094D01*
X55109819Y-64206332D02*
X55109819Y-63587285D01*
X55109819Y-63587285D02*
X55490771Y-63920618D01*
X55490771Y-63920618D02*
X55490771Y-63777761D01*
X55490771Y-63777761D02*
X55538390Y-63682523D01*
X55538390Y-63682523D02*
X55586009Y-63634904D01*
X55586009Y-63634904D02*
X55681247Y-63587285D01*
X55681247Y-63587285D02*
X55919342Y-63587285D01*
X55919342Y-63587285D02*
X56014580Y-63634904D01*
X56014580Y-63634904D02*
X56062200Y-63682523D01*
X56062200Y-63682523D02*
X56109819Y-63777761D01*
X56109819Y-63777761D02*
X56109819Y-64063475D01*
X56109819Y-64063475D02*
X56062200Y-64158713D01*
X56062200Y-64158713D02*
X56014580Y-64206332D01*
X52454819Y-64988094D02*
X51454819Y-64988094D01*
X51454819Y-64988094D02*
X51454819Y-64749999D01*
X51454819Y-64749999D02*
X51502438Y-64607142D01*
X51502438Y-64607142D02*
X51597676Y-64511904D01*
X51597676Y-64511904D02*
X51692914Y-64464285D01*
X51692914Y-64464285D02*
X51883390Y-64416666D01*
X51883390Y-64416666D02*
X52026247Y-64416666D01*
X52026247Y-64416666D02*
X52216723Y-64464285D01*
X52216723Y-64464285D02*
X52311961Y-64511904D01*
X52311961Y-64511904D02*
X52407200Y-64607142D01*
X52407200Y-64607142D02*
X52454819Y-64749999D01*
X52454819Y-64749999D02*
X52454819Y-64988094D01*
X51550057Y-64035713D02*
X51502438Y-63988094D01*
X51502438Y-63988094D02*
X51454819Y-63892856D01*
X51454819Y-63892856D02*
X51454819Y-63654761D01*
X51454819Y-63654761D02*
X51502438Y-63559523D01*
X51502438Y-63559523D02*
X51550057Y-63511904D01*
X51550057Y-63511904D02*
X51645295Y-63464285D01*
X51645295Y-63464285D02*
X51740533Y-63464285D01*
X51740533Y-63464285D02*
X51883390Y-63511904D01*
X51883390Y-63511904D02*
X52454819Y-64083332D01*
X52454819Y-64083332D02*
X52454819Y-63464285D01*
X48109819Y-65111094D02*
X47109819Y-65111094D01*
X47109819Y-65111094D02*
X47109819Y-64872999D01*
X47109819Y-64872999D02*
X47157438Y-64730142D01*
X47157438Y-64730142D02*
X47252676Y-64634904D01*
X47252676Y-64634904D02*
X47347914Y-64587285D01*
X47347914Y-64587285D02*
X47538390Y-64539666D01*
X47538390Y-64539666D02*
X47681247Y-64539666D01*
X47681247Y-64539666D02*
X47871723Y-64587285D01*
X47871723Y-64587285D02*
X47966961Y-64634904D01*
X47966961Y-64634904D02*
X48062200Y-64730142D01*
X48062200Y-64730142D02*
X48109819Y-64872999D01*
X48109819Y-64872999D02*
X48109819Y-65111094D01*
X48109819Y-63587285D02*
X48109819Y-64158713D01*
X48109819Y-63872999D02*
X47109819Y-63872999D01*
X47109819Y-63872999D02*
X47252676Y-63968237D01*
X47252676Y-63968237D02*
X47347914Y-64063475D01*
X47347914Y-64063475D02*
X47395533Y-64158713D01*
X53333333Y-67954819D02*
X53000000Y-67478628D01*
X52761905Y-67954819D02*
X52761905Y-66954819D01*
X52761905Y-66954819D02*
X53142857Y-66954819D01*
X53142857Y-66954819D02*
X53238095Y-67002438D01*
X53238095Y-67002438D02*
X53285714Y-67050057D01*
X53285714Y-67050057D02*
X53333333Y-67145295D01*
X53333333Y-67145295D02*
X53333333Y-67288152D01*
X53333333Y-67288152D02*
X53285714Y-67383390D01*
X53285714Y-67383390D02*
X53238095Y-67431009D01*
X53238095Y-67431009D02*
X53142857Y-67478628D01*
X53142857Y-67478628D02*
X52761905Y-67478628D01*
X54285714Y-67954819D02*
X53714286Y-67954819D01*
X54000000Y-67954819D02*
X54000000Y-66954819D01*
X54000000Y-66954819D02*
X53904762Y-67097676D01*
X53904762Y-67097676D02*
X53809524Y-67192914D01*
X53809524Y-67192914D02*
X53714286Y-67240533D01*
X45333333Y-70392080D02*
X45285714Y-70439700D01*
X45285714Y-70439700D02*
X45142857Y-70487319D01*
X45142857Y-70487319D02*
X45047619Y-70487319D01*
X45047619Y-70487319D02*
X44904762Y-70439700D01*
X44904762Y-70439700D02*
X44809524Y-70344461D01*
X44809524Y-70344461D02*
X44761905Y-70249223D01*
X44761905Y-70249223D02*
X44714286Y-70058747D01*
X44714286Y-70058747D02*
X44714286Y-69915890D01*
X44714286Y-69915890D02*
X44761905Y-69725414D01*
X44761905Y-69725414D02*
X44809524Y-69630176D01*
X44809524Y-69630176D02*
X44904762Y-69534938D01*
X44904762Y-69534938D02*
X45047619Y-69487319D01*
X45047619Y-69487319D02*
X45142857Y-69487319D01*
X45142857Y-69487319D02*
X45285714Y-69534938D01*
X45285714Y-69534938D02*
X45333333Y-69582557D01*
X45666667Y-69487319D02*
X46285714Y-69487319D01*
X46285714Y-69487319D02*
X45952381Y-69868271D01*
X45952381Y-69868271D02*
X46095238Y-69868271D01*
X46095238Y-69868271D02*
X46190476Y-69915890D01*
X46190476Y-69915890D02*
X46238095Y-69963509D01*
X46238095Y-69963509D02*
X46285714Y-70058747D01*
X46285714Y-70058747D02*
X46285714Y-70296842D01*
X46285714Y-70296842D02*
X46238095Y-70392080D01*
X46238095Y-70392080D02*
X46190476Y-70439700D01*
X46190476Y-70439700D02*
X46095238Y-70487319D01*
X46095238Y-70487319D02*
X45809524Y-70487319D01*
X45809524Y-70487319D02*
X45714286Y-70439700D01*
X45714286Y-70439700D02*
X45666667Y-70392080D01*
X59916666Y-62204819D02*
X59916666Y-62919104D01*
X59916666Y-62919104D02*
X59869047Y-63061961D01*
X59869047Y-63061961D02*
X59773809Y-63157200D01*
X59773809Y-63157200D02*
X59630952Y-63204819D01*
X59630952Y-63204819D02*
X59535714Y-63204819D01*
X60345238Y-62300057D02*
X60392857Y-62252438D01*
X60392857Y-62252438D02*
X60488095Y-62204819D01*
X60488095Y-62204819D02*
X60726190Y-62204819D01*
X60726190Y-62204819D02*
X60821428Y-62252438D01*
X60821428Y-62252438D02*
X60869047Y-62300057D01*
X60869047Y-62300057D02*
X60916666Y-62395295D01*
X60916666Y-62395295D02*
X60916666Y-62490533D01*
X60916666Y-62490533D02*
X60869047Y-62633390D01*
X60869047Y-62633390D02*
X60297619Y-63204819D01*
X60297619Y-63204819D02*
X60916666Y-63204819D01*
X51675595Y-72817319D02*
X51675595Y-73626842D01*
X51675595Y-73626842D02*
X51723214Y-73722080D01*
X51723214Y-73722080D02*
X51770833Y-73769700D01*
X51770833Y-73769700D02*
X51866071Y-73817319D01*
X51866071Y-73817319D02*
X52056547Y-73817319D01*
X52056547Y-73817319D02*
X52151785Y-73769700D01*
X52151785Y-73769700D02*
X52199404Y-73722080D01*
X52199404Y-73722080D02*
X52247023Y-73626842D01*
X52247023Y-73626842D02*
X52247023Y-72817319D01*
X53247023Y-73817319D02*
X52675595Y-73817319D01*
X52961309Y-73817319D02*
X52961309Y-72817319D01*
X52961309Y-72817319D02*
X52866071Y-72960176D01*
X52866071Y-72960176D02*
X52770833Y-73055414D01*
X52770833Y-73055414D02*
X52675595Y-73103033D01*
X47925595Y-73067319D02*
X47925595Y-73876842D01*
X47925595Y-73876842D02*
X47973214Y-73972080D01*
X47973214Y-73972080D02*
X48020833Y-74019700D01*
X48020833Y-74019700D02*
X48116071Y-74067319D01*
X48116071Y-74067319D02*
X48306547Y-74067319D01*
X48306547Y-74067319D02*
X48401785Y-74019700D01*
X48401785Y-74019700D02*
X48449404Y-73972080D01*
X48449404Y-73972080D02*
X48497023Y-73876842D01*
X48497023Y-73876842D02*
X48497023Y-73067319D01*
X48925595Y-73162557D02*
X48973214Y-73114938D01*
X48973214Y-73114938D02*
X49068452Y-73067319D01*
X49068452Y-73067319D02*
X49306547Y-73067319D01*
X49306547Y-73067319D02*
X49401785Y-73114938D01*
X49401785Y-73114938D02*
X49449404Y-73162557D01*
X49449404Y-73162557D02*
X49497023Y-73257795D01*
X49497023Y-73257795D02*
X49497023Y-73353033D01*
X49497023Y-73353033D02*
X49449404Y-73495890D01*
X49449404Y-73495890D02*
X48877976Y-74067319D01*
X48877976Y-74067319D02*
X49497023Y-74067319D01*
X53583333Y-70392080D02*
X53535714Y-70439700D01*
X53535714Y-70439700D02*
X53392857Y-70487319D01*
X53392857Y-70487319D02*
X53297619Y-70487319D01*
X53297619Y-70487319D02*
X53154762Y-70439700D01*
X53154762Y-70439700D02*
X53059524Y-70344461D01*
X53059524Y-70344461D02*
X53011905Y-70249223D01*
X53011905Y-70249223D02*
X52964286Y-70058747D01*
X52964286Y-70058747D02*
X52964286Y-69915890D01*
X52964286Y-69915890D02*
X53011905Y-69725414D01*
X53011905Y-69725414D02*
X53059524Y-69630176D01*
X53059524Y-69630176D02*
X53154762Y-69534938D01*
X53154762Y-69534938D02*
X53297619Y-69487319D01*
X53297619Y-69487319D02*
X53392857Y-69487319D01*
X53392857Y-69487319D02*
X53535714Y-69534938D01*
X53535714Y-69534938D02*
X53583333Y-69582557D01*
X54535714Y-70487319D02*
X53964286Y-70487319D01*
X54250000Y-70487319D02*
X54250000Y-69487319D01*
X54250000Y-69487319D02*
X54154762Y-69630176D01*
X54154762Y-69630176D02*
X54059524Y-69725414D01*
X54059524Y-69725414D02*
X53964286Y-69773033D01*
X45333333Y-67954819D02*
X45000000Y-67478628D01*
X44761905Y-67954819D02*
X44761905Y-66954819D01*
X44761905Y-66954819D02*
X45142857Y-66954819D01*
X45142857Y-66954819D02*
X45238095Y-67002438D01*
X45238095Y-67002438D02*
X45285714Y-67050057D01*
X45285714Y-67050057D02*
X45333333Y-67145295D01*
X45333333Y-67145295D02*
X45333333Y-67288152D01*
X45333333Y-67288152D02*
X45285714Y-67383390D01*
X45285714Y-67383390D02*
X45238095Y-67431009D01*
X45238095Y-67431009D02*
X45142857Y-67478628D01*
X45142857Y-67478628D02*
X44761905Y-67478628D01*
X45666667Y-66954819D02*
X46285714Y-66954819D01*
X46285714Y-66954819D02*
X45952381Y-67335771D01*
X45952381Y-67335771D02*
X46095238Y-67335771D01*
X46095238Y-67335771D02*
X46190476Y-67383390D01*
X46190476Y-67383390D02*
X46238095Y-67431009D01*
X46238095Y-67431009D02*
X46285714Y-67526247D01*
X46285714Y-67526247D02*
X46285714Y-67764342D01*
X46285714Y-67764342D02*
X46238095Y-67859580D01*
X46238095Y-67859580D02*
X46190476Y-67907200D01*
X46190476Y-67907200D02*
X46095238Y-67954819D01*
X46095238Y-67954819D02*
X45809524Y-67954819D01*
X45809524Y-67954819D02*
X45714286Y-67907200D01*
X45714286Y-67907200D02*
X45666667Y-67859580D01*
X29166666Y-56954819D02*
X29166666Y-57669104D01*
X29166666Y-57669104D02*
X29119047Y-57811961D01*
X29119047Y-57811961D02*
X29023809Y-57907200D01*
X29023809Y-57907200D02*
X28880952Y-57954819D01*
X28880952Y-57954819D02*
X28785714Y-57954819D01*
X29547619Y-56954819D02*
X30166666Y-56954819D01*
X30166666Y-56954819D02*
X29833333Y-57335771D01*
X29833333Y-57335771D02*
X29976190Y-57335771D01*
X29976190Y-57335771D02*
X30071428Y-57383390D01*
X30071428Y-57383390D02*
X30119047Y-57431009D01*
X30119047Y-57431009D02*
X30166666Y-57526247D01*
X30166666Y-57526247D02*
X30166666Y-57764342D01*
X30166666Y-57764342D02*
X30119047Y-57859580D01*
X30119047Y-57859580D02*
X30071428Y-57907200D01*
X30071428Y-57907200D02*
X29976190Y-57954819D01*
X29976190Y-57954819D02*
X29690476Y-57954819D01*
X29690476Y-57954819D02*
X29595238Y-57907200D01*
X29595238Y-57907200D02*
X29547619Y-57859580D01*
X32166666Y-80954819D02*
X32166666Y-81669104D01*
X32166666Y-81669104D02*
X32119047Y-81811961D01*
X32119047Y-81811961D02*
X32023809Y-81907200D01*
X32023809Y-81907200D02*
X31880952Y-81954819D01*
X31880952Y-81954819D02*
X31785714Y-81954819D01*
X33166666Y-81954819D02*
X32595238Y-81954819D01*
X32880952Y-81954819D02*
X32880952Y-80954819D01*
X32880952Y-80954819D02*
X32785714Y-81097676D01*
X32785714Y-81097676D02*
X32690476Y-81192914D01*
X32690476Y-81192914D02*
X32595238Y-81240533D01*
X49333333Y-67954819D02*
X49000000Y-67478628D01*
X48761905Y-67954819D02*
X48761905Y-66954819D01*
X48761905Y-66954819D02*
X49142857Y-66954819D01*
X49142857Y-66954819D02*
X49238095Y-67002438D01*
X49238095Y-67002438D02*
X49285714Y-67050057D01*
X49285714Y-67050057D02*
X49333333Y-67145295D01*
X49333333Y-67145295D02*
X49333333Y-67288152D01*
X49333333Y-67288152D02*
X49285714Y-67383390D01*
X49285714Y-67383390D02*
X49238095Y-67431009D01*
X49238095Y-67431009D02*
X49142857Y-67478628D01*
X49142857Y-67478628D02*
X48761905Y-67478628D01*
X49714286Y-67050057D02*
X49761905Y-67002438D01*
X49761905Y-67002438D02*
X49857143Y-66954819D01*
X49857143Y-66954819D02*
X50095238Y-66954819D01*
X50095238Y-66954819D02*
X50190476Y-67002438D01*
X50190476Y-67002438D02*
X50238095Y-67050057D01*
X50238095Y-67050057D02*
X50285714Y-67145295D01*
X50285714Y-67145295D02*
X50285714Y-67240533D01*
X50285714Y-67240533D02*
X50238095Y-67383390D01*
X50238095Y-67383390D02*
X49666667Y-67954819D01*
X49666667Y-67954819D02*
X50285714Y-67954819D01*
X49333333Y-70392080D02*
X49285714Y-70439700D01*
X49285714Y-70439700D02*
X49142857Y-70487319D01*
X49142857Y-70487319D02*
X49047619Y-70487319D01*
X49047619Y-70487319D02*
X48904762Y-70439700D01*
X48904762Y-70439700D02*
X48809524Y-70344461D01*
X48809524Y-70344461D02*
X48761905Y-70249223D01*
X48761905Y-70249223D02*
X48714286Y-70058747D01*
X48714286Y-70058747D02*
X48714286Y-69915890D01*
X48714286Y-69915890D02*
X48761905Y-69725414D01*
X48761905Y-69725414D02*
X48809524Y-69630176D01*
X48809524Y-69630176D02*
X48904762Y-69534938D01*
X48904762Y-69534938D02*
X49047619Y-69487319D01*
X49047619Y-69487319D02*
X49142857Y-69487319D01*
X49142857Y-69487319D02*
X49285714Y-69534938D01*
X49285714Y-69534938D02*
X49333333Y-69582557D01*
X49714286Y-69582557D02*
X49761905Y-69534938D01*
X49761905Y-69534938D02*
X49857143Y-69487319D01*
X49857143Y-69487319D02*
X50095238Y-69487319D01*
X50095238Y-69487319D02*
X50190476Y-69534938D01*
X50190476Y-69534938D02*
X50238095Y-69582557D01*
X50238095Y-69582557D02*
X50285714Y-69677795D01*
X50285714Y-69677795D02*
X50285714Y-69773033D01*
X50285714Y-69773033D02*
X50238095Y-69915890D01*
X50238095Y-69915890D02*
X49666667Y-70487319D01*
X49666667Y-70487319D02*
X50285714Y-70487319D01*
X43925595Y-73067319D02*
X43925595Y-73876842D01*
X43925595Y-73876842D02*
X43973214Y-73972080D01*
X43973214Y-73972080D02*
X44020833Y-74019700D01*
X44020833Y-74019700D02*
X44116071Y-74067319D01*
X44116071Y-74067319D02*
X44306547Y-74067319D01*
X44306547Y-74067319D02*
X44401785Y-74019700D01*
X44401785Y-74019700D02*
X44449404Y-73972080D01*
X44449404Y-73972080D02*
X44497023Y-73876842D01*
X44497023Y-73876842D02*
X44497023Y-73067319D01*
X44877976Y-73067319D02*
X45497023Y-73067319D01*
X45497023Y-73067319D02*
X45163690Y-73448271D01*
X45163690Y-73448271D02*
X45306547Y-73448271D01*
X45306547Y-73448271D02*
X45401785Y-73495890D01*
X45401785Y-73495890D02*
X45449404Y-73543509D01*
X45449404Y-73543509D02*
X45497023Y-73638747D01*
X45497023Y-73638747D02*
X45497023Y-73876842D01*
X45497023Y-73876842D02*
X45449404Y-73972080D01*
X45449404Y-73972080D02*
X45401785Y-74019700D01*
X45401785Y-74019700D02*
X45306547Y-74067319D01*
X45306547Y-74067319D02*
X45020833Y-74067319D01*
X45020833Y-74067319D02*
X44925595Y-74019700D01*
X44925595Y-74019700D02*
X44877976Y-73972080D01*
D12*
%TO.C,D3*%
X54750000Y-62290000D02*
X52750000Y-62290000D01*
X54750000Y-62290000D02*
X54750000Y-66150000D01*
X52750000Y-62290000D02*
X52750000Y-66150000D01*
%TO.C,D2*%
X51250000Y-62290000D02*
X49250000Y-62290000D01*
X51250000Y-62290000D02*
X51250000Y-66150000D01*
X49250000Y-62290000D02*
X49250000Y-66150000D01*
%TO.C,D1*%
X46750000Y-62290000D02*
X44750000Y-62290000D01*
X46750000Y-62290000D02*
X46750000Y-66150000D01*
X44750000Y-62290000D02*
X44750000Y-66150000D01*
%TO.C,R1*%
X50765000Y-68488748D02*
X50765000Y-69011252D01*
X52235000Y-68488748D02*
X52235000Y-69011252D01*
%TO.C,C3*%
X44238748Y-70977500D02*
X44761252Y-70977500D01*
X44238748Y-72447500D02*
X44761252Y-72447500D01*
D13*
%TO.C,J2*%
X44220000Y-44720000D02*
X44220000Y-47730000D01*
X44220000Y-52270000D02*
X44220000Y-60340000D01*
X44220000Y-60340000D02*
X47650000Y-60340000D01*
X57050000Y-60340000D02*
X60480000Y-60340000D01*
X60480000Y-44720000D02*
X44220000Y-44720000D01*
X60480000Y-44720000D02*
X60480000Y-47730000D01*
X60480000Y-60340000D02*
X60480000Y-52270000D01*
D14*
X48880000Y-62505000D02*
G75*
G02*
X48680000Y-62505000I-100000J0D01*
G01*
X48680000Y-62505000D02*
G75*
G02*
X48880000Y-62505000I100000J0D01*
G01*
D12*
%TO.C,U1*%
X50927500Y-76350000D02*
X50927500Y-75550000D01*
X50927500Y-76350000D02*
X50927500Y-77150000D01*
X54047500Y-76350000D02*
X54047500Y-75550000D01*
X54047500Y-76350000D02*
X54047500Y-77150000D01*
X54327500Y-75290000D02*
X53997500Y-75050000D01*
X54327500Y-74810000D01*
X54327500Y-75290000D01*
G36*
X54327500Y-75290000D02*
G01*
X53997500Y-75050000D01*
X54327500Y-74810000D01*
X54327500Y-75290000D01*
G37*
%TO.C,U2*%
X47177500Y-76350000D02*
X47177500Y-75550000D01*
X47177500Y-76350000D02*
X47177500Y-77150000D01*
X50297500Y-76350000D02*
X50297500Y-75550000D01*
X50297500Y-76350000D02*
X50297500Y-77150000D01*
X50577500Y-75290000D02*
X50247500Y-75050000D01*
X50577500Y-74810000D01*
X50577500Y-75290000D01*
G36*
X50577500Y-75290000D02*
G01*
X50247500Y-75050000D01*
X50577500Y-74810000D01*
X50577500Y-75290000D01*
G37*
%TO.C,C1*%
X52238748Y-70977500D02*
X52761252Y-70977500D01*
X52238748Y-72447500D02*
X52761252Y-72447500D01*
%TO.C,R3*%
X42765000Y-68488748D02*
X42765000Y-69011252D01*
X44235000Y-68488748D02*
X44235000Y-69011252D01*
%TO.C,J3*%
X29085000Y-51655000D02*
X29085000Y-55655000D01*
X29375000Y-44835000D02*
X41325000Y-44835000D01*
X29375000Y-48355000D02*
X29375000Y-44835000D01*
X30590000Y-44835000D02*
X30590000Y-45435000D01*
X30590000Y-45435000D02*
X32190000Y-45435000D01*
X32190000Y-45435000D02*
X32190000Y-44835000D01*
X34550000Y-44835000D02*
X34550000Y-45435000D01*
X34550000Y-45435000D02*
X36150000Y-45435000D01*
X36150000Y-45435000D02*
X36150000Y-44835000D01*
X38510000Y-44835000D02*
X38510000Y-45435000D01*
X38510000Y-45435000D02*
X40110000Y-45435000D01*
X40110000Y-45435000D02*
X40110000Y-44835000D01*
X41325000Y-44835000D02*
X41325000Y-48355000D01*
X41325000Y-48355000D02*
X29375000Y-48355000D01*
%TO.C,J1*%
X33590000Y-81610000D02*
X33590000Y-84110000D01*
X33590000Y-84110000D02*
X36090000Y-84110000D01*
X33890000Y-79790000D02*
X33890000Y-83810000D01*
X33890000Y-81500000D02*
X34390000Y-81500000D01*
X33890000Y-82310000D02*
X34890000Y-82310000D01*
X33890000Y-83810000D02*
X56610000Y-83810000D01*
X34390000Y-80290000D02*
X56110000Y-80290000D01*
X34390000Y-81500000D02*
X34390000Y-80290000D01*
X34890000Y-82310000D02*
X34890000Y-83810000D01*
X55610000Y-82310000D02*
X55610000Y-83810000D01*
X56110000Y-80290000D02*
X56110000Y-81500000D01*
X56110000Y-81500000D02*
X56610000Y-81500000D01*
X56610000Y-79790000D02*
X33890000Y-79790000D01*
X56610000Y-82310000D02*
X55610000Y-82310000D01*
X56610000Y-83810000D02*
X56610000Y-79790000D01*
%TO.C,R2*%
X46765000Y-68451248D02*
X46765000Y-68973752D01*
X48235000Y-68451248D02*
X48235000Y-68973752D01*
%TO.C,C2*%
X48238748Y-70977500D02*
X48761252Y-70977500D01*
X48238748Y-72447500D02*
X48761252Y-72447500D01*
%TO.C,U3*%
X43240000Y-76362500D02*
X43240000Y-75562500D01*
X43240000Y-76362500D02*
X43240000Y-77162500D01*
X46360000Y-76362500D02*
X46360000Y-75562500D01*
X46360000Y-76362500D02*
X46360000Y-77162500D01*
X46640000Y-75302500D02*
X46310000Y-75062500D01*
X46640000Y-74822500D01*
X46640000Y-75302500D01*
G36*
X46640000Y-75302500D02*
G01*
X46310000Y-75062500D01*
X46640000Y-74822500D01*
X46640000Y-75302500D01*
G37*
%TD*%
M02*
