%TF.GenerationSoftware,KiCad,Pcbnew,8.0.8*%
%TF.CreationDate,2025-01-20T17:52:45-08:00*%
%TF.ProjectId,Motor_Adapt_C,4d6f746f-725f-4416-9461-70745f432e6b,rev?*%
%TF.SameCoordinates,Original*%
%TF.FileFunction,Soldermask,Top*%
%TF.FilePolarity,Negative*%
%FSLAX46Y46*%
G04 Gerber Fmt 4.6, Leading zero omitted, Abs format (unit mm)*
G04 Created by KiCad (PCBNEW 8.0.8) date 2025-01-20 17:52:45*
%MOMM*%
%LPD*%
G01*
G04 APERTURE LIST*
G04 Aperture macros list*
%AMRoundRect*
0 Rectangle with rounded corners*
0 $1 Rounding radius*
0 $2 $3 $4 $5 $6 $7 $8 $9 X,Y pos of 4 corners*
0 Add a 4 corners polygon primitive as box body*
4,1,4,$2,$3,$4,$5,$6,$7,$8,$9,$2,$3,0*
0 Add four circle primitives for the rounded corners*
1,1,$1+$1,$2,$3*
1,1,$1+$1,$4,$5*
1,1,$1+$1,$6,$7*
1,1,$1+$1,$8,$9*
0 Add four rect primitives between the rounded corners*
20,1,$1+$1,$2,$3,$4,$5,0*
20,1,$1+$1,$4,$5,$6,$7,0*
20,1,$1+$1,$6,$7,$8,$9,0*
20,1,$1+$1,$8,$9,$2,$3,0*%
G04 Aperture macros list end*
%ADD10C,0.010000*%
%ADD11C,3.200000*%
%ADD12RoundRect,0.250000X-0.300000X0.300000X-0.300000X-0.300000X0.300000X-0.300000X0.300000X0.300000X0*%
%ADD13RoundRect,0.250000X-0.475000X0.337500X-0.475000X-0.337500X0.475000X-0.337500X0.475000X0.337500X0*%
%ADD14RoundRect,0.250000X-0.337500X-0.475000X0.337500X-0.475000X0.337500X0.475000X-0.337500X0.475000X0*%
%ADD15C,3.300000*%
%ADD16RoundRect,0.102000X0.305000X1.525000X-0.305000X1.525000X-0.305000X-1.525000X0.305000X-1.525000X0*%
%ADD17RoundRect,0.150000X-0.150000X0.512500X-0.150000X-0.512500X0.150000X-0.512500X0.150000X0.512500X0*%
%ADD18RoundRect,0.250000X-1.330000X-1.800000X1.330000X-1.800000X1.330000X1.800000X-1.330000X1.800000X0*%
%ADD19O,3.160000X4.100000*%
%ADD20RoundRect,0.250000X-0.600000X-0.725000X0.600000X-0.725000X0.600000X0.725000X-0.600000X0.725000X0*%
%ADD21O,1.700000X1.950000*%
G04 APERTURE END LIST*
D10*
%TO.C,J2*%
X45040000Y-48785000D02*
X44995000Y-48820000D01*
X44959000Y-48850000D01*
X44924000Y-48881000D01*
X44890000Y-48913000D01*
X44857000Y-48946000D01*
X44825000Y-48981000D01*
X44794000Y-49016000D01*
X44765000Y-49052000D01*
X44736000Y-49089000D01*
X44709000Y-49127000D01*
X44683000Y-49166000D01*
X44658000Y-49206000D01*
X44635000Y-49246000D01*
X44613000Y-49288000D01*
X44592000Y-49330000D01*
X44572000Y-49372000D01*
X44554000Y-49415000D01*
X44538000Y-49459000D01*
X44522000Y-49503000D01*
X44508000Y-49548000D01*
X44496000Y-49593000D01*
X44485000Y-49638000D01*
X44475000Y-49684000D01*
X44467000Y-49730000D01*
X44461000Y-49777000D01*
X44456000Y-49823000D01*
X44452000Y-49870000D01*
X44450000Y-49917000D01*
X44449000Y-49963000D01*
X44450000Y-50000000D01*
X44449000Y-50037000D01*
X44450000Y-50083000D01*
X44452000Y-50130000D01*
X44456000Y-50177000D01*
X44461000Y-50223000D01*
X44467000Y-50270000D01*
X44475000Y-50316000D01*
X44485000Y-50362000D01*
X44496000Y-50407000D01*
X44508000Y-50452000D01*
X44522000Y-50497000D01*
X44538000Y-50541000D01*
X44554000Y-50585000D01*
X44572000Y-50628000D01*
X44592000Y-50670000D01*
X44613000Y-50712000D01*
X44635000Y-50754000D01*
X44658000Y-50794000D01*
X44683000Y-50834000D01*
X44709000Y-50873000D01*
X44736000Y-50911000D01*
X44765000Y-50948000D01*
X44794000Y-50984000D01*
X44825000Y-51019000D01*
X44857000Y-51054000D01*
X44890000Y-51087000D01*
X44924000Y-51119000D01*
X44959000Y-51150000D01*
X44995000Y-51180000D01*
X45040000Y-51215000D01*
X45040000Y-52050000D01*
X42340000Y-52050000D01*
X42340000Y-47950000D01*
X45040000Y-47950000D01*
X45040000Y-48785000D01*
G36*
X45040000Y-48785000D02*
G01*
X44995000Y-48820000D01*
X44959000Y-48850000D01*
X44924000Y-48881000D01*
X44890000Y-48913000D01*
X44857000Y-48946000D01*
X44825000Y-48981000D01*
X44794000Y-49016000D01*
X44765000Y-49052000D01*
X44736000Y-49089000D01*
X44709000Y-49127000D01*
X44683000Y-49166000D01*
X44658000Y-49206000D01*
X44635000Y-49246000D01*
X44613000Y-49288000D01*
X44592000Y-49330000D01*
X44572000Y-49372000D01*
X44554000Y-49415000D01*
X44538000Y-49459000D01*
X44522000Y-49503000D01*
X44508000Y-49548000D01*
X44496000Y-49593000D01*
X44485000Y-49638000D01*
X44475000Y-49684000D01*
X44467000Y-49730000D01*
X44461000Y-49777000D01*
X44456000Y-49823000D01*
X44452000Y-49870000D01*
X44450000Y-49917000D01*
X44449000Y-49963000D01*
X44450000Y-50000000D01*
X44449000Y-50037000D01*
X44450000Y-50083000D01*
X44452000Y-50130000D01*
X44456000Y-50177000D01*
X44461000Y-50223000D01*
X44467000Y-50270000D01*
X44475000Y-50316000D01*
X44485000Y-50362000D01*
X44496000Y-50407000D01*
X44508000Y-50452000D01*
X44522000Y-50497000D01*
X44538000Y-50541000D01*
X44554000Y-50585000D01*
X44572000Y-50628000D01*
X44592000Y-50670000D01*
X44613000Y-50712000D01*
X44635000Y-50754000D01*
X44658000Y-50794000D01*
X44683000Y-50834000D01*
X44709000Y-50873000D01*
X44736000Y-50911000D01*
X44765000Y-50948000D01*
X44794000Y-50984000D01*
X44825000Y-51019000D01*
X44857000Y-51054000D01*
X44890000Y-51087000D01*
X44924000Y-51119000D01*
X44959000Y-51150000D01*
X44995000Y-51180000D01*
X45040000Y-51215000D01*
X45040000Y-52050000D01*
X42340000Y-52050000D01*
X42340000Y-47950000D01*
X45040000Y-47950000D01*
X45040000Y-48785000D01*
G37*
X62360000Y-52050000D02*
X59660000Y-52050000D01*
X59660000Y-51215000D01*
X59705000Y-51180000D01*
X59741000Y-51150000D01*
X59776000Y-51119000D01*
X59810000Y-51087000D01*
X59843000Y-51054000D01*
X59875000Y-51019000D01*
X59906000Y-50984000D01*
X59935000Y-50948000D01*
X59964000Y-50911000D01*
X59991000Y-50873000D01*
X60017000Y-50834000D01*
X60042000Y-50794000D01*
X60065000Y-50754000D01*
X60087000Y-50712000D01*
X60108000Y-50670000D01*
X60128000Y-50628000D01*
X60146000Y-50585000D01*
X60162000Y-50541000D01*
X60178000Y-50497000D01*
X60192000Y-50452000D01*
X60204000Y-50407000D01*
X60215000Y-50362000D01*
X60225000Y-50316000D01*
X60233000Y-50270000D01*
X60239000Y-50223000D01*
X60244000Y-50177000D01*
X60248000Y-50130000D01*
X60250000Y-50083000D01*
X60251000Y-50037000D01*
X60250000Y-50000000D01*
X60251000Y-49963000D01*
X60250000Y-49917000D01*
X60248000Y-49870000D01*
X60244000Y-49823000D01*
X60239000Y-49777000D01*
X60233000Y-49730000D01*
X60225000Y-49684000D01*
X60215000Y-49638000D01*
X60204000Y-49593000D01*
X60192000Y-49548000D01*
X60178000Y-49503000D01*
X60162000Y-49459000D01*
X60146000Y-49415000D01*
X60128000Y-49372000D01*
X60108000Y-49330000D01*
X60087000Y-49288000D01*
X60065000Y-49246000D01*
X60042000Y-49206000D01*
X60017000Y-49166000D01*
X59991000Y-49127000D01*
X59964000Y-49089000D01*
X59935000Y-49052000D01*
X59906000Y-49016000D01*
X59875000Y-48981000D01*
X59843000Y-48946000D01*
X59810000Y-48913000D01*
X59776000Y-48881000D01*
X59741000Y-48850000D01*
X59705000Y-48820000D01*
X59660000Y-48785000D01*
X59660000Y-47950000D01*
X62360000Y-47950000D01*
X62360000Y-52050000D01*
G36*
X62360000Y-52050000D02*
G01*
X59660000Y-52050000D01*
X59660000Y-51215000D01*
X59705000Y-51180000D01*
X59741000Y-51150000D01*
X59776000Y-51119000D01*
X59810000Y-51087000D01*
X59843000Y-51054000D01*
X59875000Y-51019000D01*
X59906000Y-50984000D01*
X59935000Y-50948000D01*
X59964000Y-50911000D01*
X59991000Y-50873000D01*
X60017000Y-50834000D01*
X60042000Y-50794000D01*
X60065000Y-50754000D01*
X60087000Y-50712000D01*
X60108000Y-50670000D01*
X60128000Y-50628000D01*
X60146000Y-50585000D01*
X60162000Y-50541000D01*
X60178000Y-50497000D01*
X60192000Y-50452000D01*
X60204000Y-50407000D01*
X60215000Y-50362000D01*
X60225000Y-50316000D01*
X60233000Y-50270000D01*
X60239000Y-50223000D01*
X60244000Y-50177000D01*
X60248000Y-50130000D01*
X60250000Y-50083000D01*
X60251000Y-50037000D01*
X60250000Y-50000000D01*
X60251000Y-49963000D01*
X60250000Y-49917000D01*
X60248000Y-49870000D01*
X60244000Y-49823000D01*
X60239000Y-49777000D01*
X60233000Y-49730000D01*
X60225000Y-49684000D01*
X60215000Y-49638000D01*
X60204000Y-49593000D01*
X60192000Y-49548000D01*
X60178000Y-49503000D01*
X60162000Y-49459000D01*
X60146000Y-49415000D01*
X60128000Y-49372000D01*
X60108000Y-49330000D01*
X60087000Y-49288000D01*
X60065000Y-49246000D01*
X60042000Y-49206000D01*
X60017000Y-49166000D01*
X59991000Y-49127000D01*
X59964000Y-49089000D01*
X59935000Y-49052000D01*
X59906000Y-49016000D01*
X59875000Y-48981000D01*
X59843000Y-48946000D01*
X59810000Y-48913000D01*
X59776000Y-48881000D01*
X59741000Y-48850000D01*
X59705000Y-48820000D01*
X59660000Y-48785000D01*
X59660000Y-47950000D01*
X62360000Y-47950000D01*
X62360000Y-52050000D01*
G37*
%TD*%
D11*
%TO.C,H2*%
X33500000Y-74000000D03*
%TD*%
%TO.C,H1*%
X58000000Y-74000000D03*
%TD*%
D12*
%TO.C,D3*%
X53750000Y-63100000D03*
X53750000Y-65900000D03*
%TD*%
%TO.C,D2*%
X50250000Y-63100000D03*
X50250000Y-65900000D03*
%TD*%
%TO.C,D1*%
X45750000Y-63100000D03*
X45750000Y-65900000D03*
%TD*%
D13*
%TO.C,R1*%
X51500000Y-67712500D03*
X51500000Y-69787500D03*
%TD*%
D14*
%TO.C,C3*%
X43462500Y-71712500D03*
X45537500Y-71712500D03*
%TD*%
D15*
%TO.C,J2*%
X58700000Y-50000000D03*
X46000000Y-50000000D03*
D16*
X48780000Y-59980000D03*
X49800000Y-59980000D03*
X50820000Y-59980000D03*
X51840000Y-59980000D03*
X52860000Y-59980000D03*
X53880000Y-59980000D03*
X54900000Y-59980000D03*
X55920000Y-59980000D03*
%TD*%
D17*
%TO.C,U1*%
X53437500Y-75212500D03*
X52487500Y-75212500D03*
X51537500Y-75212500D03*
X51537500Y-77487500D03*
X53437500Y-77487500D03*
%TD*%
%TO.C,U2*%
X49687500Y-75212500D03*
X48737500Y-75212500D03*
X47787500Y-75212500D03*
X47787500Y-77487500D03*
X49687500Y-77487500D03*
%TD*%
D14*
%TO.C,C1*%
X51462500Y-71712500D03*
X53537500Y-71712500D03*
%TD*%
D13*
%TO.C,R3*%
X43500000Y-67712500D03*
X43500000Y-69787500D03*
%TD*%
D18*
%TO.C,J3*%
X31390000Y-53655000D03*
D19*
X35350000Y-53655000D03*
X39310000Y-53655000D03*
%TD*%
D20*
%TO.C,J1*%
X36500000Y-81500000D03*
D21*
X39000000Y-81500000D03*
X41500000Y-81500000D03*
X44000000Y-81500000D03*
X46500000Y-81500000D03*
X49000000Y-81500000D03*
X51500000Y-81500000D03*
X54000000Y-81500000D03*
%TD*%
D13*
%TO.C,R2*%
X47500000Y-67675000D03*
X47500000Y-69750000D03*
%TD*%
D14*
%TO.C,C2*%
X47462500Y-71712500D03*
X49537500Y-71712500D03*
%TD*%
D17*
%TO.C,U3*%
X45750000Y-75225000D03*
X44800000Y-75225000D03*
X43850000Y-75225000D03*
X43850000Y-77500000D03*
X45750000Y-77500000D03*
%TD*%
M02*
