%TF.GenerationSoftware,KiCad,Pcbnew,8.0.5*%
%TF.CreationDate,2024-12-09T20:18:44-08:00*%
%TF.ProjectId,Motor_Adapt_C,4d6f746f-725f-4416-9461-70745f432e6b,rev?*%
%TF.SameCoordinates,Original*%
%TF.FileFunction,Paste,Top*%
%TF.FilePolarity,Positive*%
%FSLAX46Y46*%
G04 Gerber Fmt 4.6, Leading zero omitted, Abs format (unit mm)*
G04 Created by KiCad (PCBNEW 8.0.5) date 2024-12-09 20:18:44*
%MOMM*%
%LPD*%
G01*
G04 APERTURE LIST*
G04 Aperture macros list*
%AMRoundRect*
0 Rectangle with rounded corners*
0 $1 Rounding radius*
0 $2 $3 $4 $5 $6 $7 $8 $9 X,Y pos of 4 corners*
0 Add a 4 corners polygon primitive as box body*
4,1,4,$2,$3,$4,$5,$6,$7,$8,$9,$2,$3,0*
0 Add four circle primitives for the rounded corners*
1,1,$1+$1,$2,$3*
1,1,$1+$1,$4,$5*
1,1,$1+$1,$6,$7*
1,1,$1+$1,$8,$9*
0 Add four rect primitives between the rounded corners*
20,1,$1+$1,$2,$3,$4,$5,0*
20,1,$1+$1,$4,$5,$6,$7,0*
20,1,$1+$1,$6,$7,$8,$9,0*
20,1,$1+$1,$8,$9,$2,$3,0*%
G04 Aperture macros list end*
%ADD10C,0.010000*%
%ADD11RoundRect,0.250000X-0.475000X0.337500X-0.475000X-0.337500X0.475000X-0.337500X0.475000X0.337500X0*%
%ADD12RoundRect,0.250000X-0.337500X-0.475000X0.337500X-0.475000X0.337500X0.475000X-0.337500X0.475000X0*%
%ADD13R,0.610000X3.050000*%
%ADD14RoundRect,0.150000X-0.150000X0.512500X-0.150000X-0.512500X0.150000X-0.512500X0.150000X0.512500X0*%
G04 APERTURE END LIST*
D10*
%TO.C,J2*%
X44940000Y-48735000D02*
X44904000Y-48766000D01*
X44868000Y-48799000D01*
X44834000Y-48832000D01*
X44800000Y-48867000D01*
X44768000Y-48902000D01*
X44736000Y-48939000D01*
X44706000Y-48976000D01*
X44677000Y-49014000D01*
X44649000Y-49053000D01*
X44622000Y-49093000D01*
X44596000Y-49133000D01*
X44571000Y-49174000D01*
X44548000Y-49216000D01*
X44526000Y-49259000D01*
X44505000Y-49302000D01*
X44485000Y-49346000D01*
X44467000Y-49390000D01*
X44450000Y-49435000D01*
X44434000Y-49481000D01*
X44419000Y-49527000D01*
X44406000Y-49573000D01*
X44395000Y-49619000D01*
X44384000Y-49666000D01*
X44375000Y-49713000D01*
X44367000Y-49761000D01*
X44361000Y-49808000D01*
X44356000Y-49856000D01*
X44353000Y-49904000D01*
X44351000Y-49952000D01*
X44350000Y-50000000D01*
X44351000Y-50048000D01*
X44353000Y-50096000D01*
X44356000Y-50144000D01*
X44361000Y-50192000D01*
X44367000Y-50239000D01*
X44375000Y-50287000D01*
X44384000Y-50334000D01*
X44395000Y-50381000D01*
X44406000Y-50427000D01*
X44419000Y-50473000D01*
X44434000Y-50519000D01*
X44450000Y-50565000D01*
X44467000Y-50610000D01*
X44485000Y-50654000D01*
X44505000Y-50698000D01*
X44526000Y-50741000D01*
X44548000Y-50784000D01*
X44571000Y-50826000D01*
X44596000Y-50867000D01*
X44622000Y-50907000D01*
X44649000Y-50947000D01*
X44677000Y-50986000D01*
X44706000Y-51024000D01*
X44736000Y-51061000D01*
X44768000Y-51098000D01*
X44800000Y-51133000D01*
X44834000Y-51168000D01*
X44868000Y-51201000D01*
X44904000Y-51234000D01*
X44940000Y-51265000D01*
X44940000Y-51950000D01*
X42440000Y-51950000D01*
X42440000Y-48050000D01*
X44940000Y-48050000D01*
X44940000Y-48735000D01*
G36*
X44940000Y-48735000D02*
G01*
X44904000Y-48766000D01*
X44868000Y-48799000D01*
X44834000Y-48832000D01*
X44800000Y-48867000D01*
X44768000Y-48902000D01*
X44736000Y-48939000D01*
X44706000Y-48976000D01*
X44677000Y-49014000D01*
X44649000Y-49053000D01*
X44622000Y-49093000D01*
X44596000Y-49133000D01*
X44571000Y-49174000D01*
X44548000Y-49216000D01*
X44526000Y-49259000D01*
X44505000Y-49302000D01*
X44485000Y-49346000D01*
X44467000Y-49390000D01*
X44450000Y-49435000D01*
X44434000Y-49481000D01*
X44419000Y-49527000D01*
X44406000Y-49573000D01*
X44395000Y-49619000D01*
X44384000Y-49666000D01*
X44375000Y-49713000D01*
X44367000Y-49761000D01*
X44361000Y-49808000D01*
X44356000Y-49856000D01*
X44353000Y-49904000D01*
X44351000Y-49952000D01*
X44350000Y-50000000D01*
X44351000Y-50048000D01*
X44353000Y-50096000D01*
X44356000Y-50144000D01*
X44361000Y-50192000D01*
X44367000Y-50239000D01*
X44375000Y-50287000D01*
X44384000Y-50334000D01*
X44395000Y-50381000D01*
X44406000Y-50427000D01*
X44419000Y-50473000D01*
X44434000Y-50519000D01*
X44450000Y-50565000D01*
X44467000Y-50610000D01*
X44485000Y-50654000D01*
X44505000Y-50698000D01*
X44526000Y-50741000D01*
X44548000Y-50784000D01*
X44571000Y-50826000D01*
X44596000Y-50867000D01*
X44622000Y-50907000D01*
X44649000Y-50947000D01*
X44677000Y-50986000D01*
X44706000Y-51024000D01*
X44736000Y-51061000D01*
X44768000Y-51098000D01*
X44800000Y-51133000D01*
X44834000Y-51168000D01*
X44868000Y-51201000D01*
X44904000Y-51234000D01*
X44940000Y-51265000D01*
X44940000Y-51950000D01*
X42440000Y-51950000D01*
X42440000Y-48050000D01*
X44940000Y-48050000D01*
X44940000Y-48735000D01*
G37*
X62260000Y-51950000D02*
X59760000Y-51950000D01*
X59760000Y-51265000D01*
X59796000Y-51234000D01*
X59832000Y-51201000D01*
X59866000Y-51168000D01*
X59900000Y-51133000D01*
X59932000Y-51098000D01*
X59964000Y-51061000D01*
X59994000Y-51024000D01*
X60023000Y-50986000D01*
X60051000Y-50947000D01*
X60078000Y-50907000D01*
X60104000Y-50867000D01*
X60129000Y-50826000D01*
X60152000Y-50784000D01*
X60174000Y-50741000D01*
X60195000Y-50698000D01*
X60215000Y-50654000D01*
X60233000Y-50610000D01*
X60250000Y-50565000D01*
X60266000Y-50519000D01*
X60281000Y-50473000D01*
X60294000Y-50427000D01*
X60305000Y-50381000D01*
X60316000Y-50334000D01*
X60325000Y-50287000D01*
X60333000Y-50239000D01*
X60339000Y-50192000D01*
X60344000Y-50144000D01*
X60347000Y-50096000D01*
X60349000Y-50048000D01*
X60350000Y-50000000D01*
X60349000Y-49952000D01*
X60347000Y-49904000D01*
X60344000Y-49856000D01*
X60339000Y-49808000D01*
X60333000Y-49761000D01*
X60325000Y-49713000D01*
X60316000Y-49666000D01*
X60305000Y-49619000D01*
X60294000Y-49573000D01*
X60281000Y-49527000D01*
X60266000Y-49481000D01*
X60250000Y-49435000D01*
X60233000Y-49390000D01*
X60215000Y-49346000D01*
X60195000Y-49302000D01*
X60174000Y-49259000D01*
X60152000Y-49216000D01*
X60129000Y-49174000D01*
X60104000Y-49133000D01*
X60078000Y-49093000D01*
X60051000Y-49053000D01*
X60023000Y-49014000D01*
X59994000Y-48976000D01*
X59964000Y-48939000D01*
X59932000Y-48902000D01*
X59900000Y-48867000D01*
X59866000Y-48832000D01*
X59832000Y-48799000D01*
X59796000Y-48766000D01*
X59760000Y-48735000D01*
X59760000Y-48050000D01*
X62260000Y-48050000D01*
X62260000Y-51950000D01*
G36*
X62260000Y-51950000D02*
G01*
X59760000Y-51950000D01*
X59760000Y-51265000D01*
X59796000Y-51234000D01*
X59832000Y-51201000D01*
X59866000Y-51168000D01*
X59900000Y-51133000D01*
X59932000Y-51098000D01*
X59964000Y-51061000D01*
X59994000Y-51024000D01*
X60023000Y-50986000D01*
X60051000Y-50947000D01*
X60078000Y-50907000D01*
X60104000Y-50867000D01*
X60129000Y-50826000D01*
X60152000Y-50784000D01*
X60174000Y-50741000D01*
X60195000Y-50698000D01*
X60215000Y-50654000D01*
X60233000Y-50610000D01*
X60250000Y-50565000D01*
X60266000Y-50519000D01*
X60281000Y-50473000D01*
X60294000Y-50427000D01*
X60305000Y-50381000D01*
X60316000Y-50334000D01*
X60325000Y-50287000D01*
X60333000Y-50239000D01*
X60339000Y-50192000D01*
X60344000Y-50144000D01*
X60347000Y-50096000D01*
X60349000Y-50048000D01*
X60350000Y-50000000D01*
X60349000Y-49952000D01*
X60347000Y-49904000D01*
X60344000Y-49856000D01*
X60339000Y-49808000D01*
X60333000Y-49761000D01*
X60325000Y-49713000D01*
X60316000Y-49666000D01*
X60305000Y-49619000D01*
X60294000Y-49573000D01*
X60281000Y-49527000D01*
X60266000Y-49481000D01*
X60250000Y-49435000D01*
X60233000Y-49390000D01*
X60215000Y-49346000D01*
X60195000Y-49302000D01*
X60174000Y-49259000D01*
X60152000Y-49216000D01*
X60129000Y-49174000D01*
X60104000Y-49133000D01*
X60078000Y-49093000D01*
X60051000Y-49053000D01*
X60023000Y-49014000D01*
X59994000Y-48976000D01*
X59964000Y-48939000D01*
X59932000Y-48902000D01*
X59900000Y-48867000D01*
X59866000Y-48832000D01*
X59832000Y-48799000D01*
X59796000Y-48766000D01*
X59760000Y-48735000D01*
X59760000Y-48050000D01*
X62260000Y-48050000D01*
X62260000Y-51950000D01*
G37*
%TD*%
D11*
%TO.C,R1*%
X53000000Y-64270000D03*
X53000000Y-66345000D03*
%TD*%
D12*
%TO.C,C3*%
X44962500Y-68270000D03*
X47037500Y-68270000D03*
%TD*%
D13*
%TO.C,J2*%
X48780000Y-59980000D03*
X49800000Y-59980000D03*
X50820000Y-59980000D03*
X51840000Y-59980000D03*
X52860000Y-59980000D03*
X53880000Y-59980000D03*
X54900000Y-59980000D03*
X55920000Y-59980000D03*
%TD*%
D14*
%TO.C,U1*%
X53887500Y-71775000D03*
X52937500Y-71775000D03*
X51987500Y-71775000D03*
X51987500Y-74050000D03*
X53887500Y-74050000D03*
%TD*%
%TO.C,U2*%
X50137500Y-71775000D03*
X49187500Y-71775000D03*
X48237500Y-71775000D03*
X48237500Y-74050000D03*
X50137500Y-74050000D03*
%TD*%
D12*
%TO.C,C1*%
X52962500Y-68270000D03*
X55037500Y-68270000D03*
%TD*%
D11*
%TO.C,R3*%
X45000000Y-64270000D03*
X45000000Y-66345000D03*
%TD*%
%TO.C,R2*%
X49000000Y-64232500D03*
X49000000Y-66307500D03*
%TD*%
D12*
%TO.C,C2*%
X48962500Y-68270000D03*
X51037500Y-68270000D03*
%TD*%
D14*
%TO.C,U3*%
X46200000Y-71787500D03*
X45250000Y-71787500D03*
X44300000Y-71787500D03*
X44300000Y-74062500D03*
X46200000Y-74062500D03*
%TD*%
M02*
