%TF.GenerationSoftware,KiCad,Pcbnew,8.0.8*%
%TF.CreationDate,2025-01-20T17:52:45-08:00*%
%TF.ProjectId,Motor_Adapt_C,4d6f746f-725f-4416-9461-70745f432e6b,rev?*%
%TF.SameCoordinates,Original*%
%TF.FileFunction,Copper,L2,Bot*%
%TF.FilePolarity,Positive*%
%FSLAX46Y46*%
G04 Gerber Fmt 4.6, Leading zero omitted, Abs format (unit mm)*
G04 Created by KiCad (PCBNEW 8.0.8) date 2025-01-20 17:52:45*
%MOMM*%
%LPD*%
G01*
G04 APERTURE LIST*
G04 Aperture macros list*
%AMRoundRect*
0 Rectangle with rounded corners*
0 $1 Rounding radius*
0 $2 $3 $4 $5 $6 $7 $8 $9 X,Y pos of 4 corners*
0 Add a 4 corners polygon primitive as box body*
4,1,4,$2,$3,$4,$5,$6,$7,$8,$9,$2,$3,0*
0 Add four circle primitives for the rounded corners*
1,1,$1+$1,$2,$3*
1,1,$1+$1,$4,$5*
1,1,$1+$1,$6,$7*
1,1,$1+$1,$8,$9*
0 Add four rect primitives between the rounded corners*
20,1,$1+$1,$2,$3,$4,$5,0*
20,1,$1+$1,$4,$5,$6,$7,0*
20,1,$1+$1,$6,$7,$8,$9,0*
20,1,$1+$1,$8,$9,$2,$3,0*%
G04 Aperture macros list end*
%TA.AperFunction,ComponentPad*%
%ADD10RoundRect,0.250000X-1.330000X-1.800000X1.330000X-1.800000X1.330000X1.800000X-1.330000X1.800000X0*%
%TD*%
%TA.AperFunction,ComponentPad*%
%ADD11O,3.160000X4.100000*%
%TD*%
%TA.AperFunction,ComponentPad*%
%ADD12RoundRect,0.250000X-0.600000X-0.725000X0.600000X-0.725000X0.600000X0.725000X-0.600000X0.725000X0*%
%TD*%
%TA.AperFunction,ComponentPad*%
%ADD13O,1.700000X1.950000*%
%TD*%
%TA.AperFunction,ViaPad*%
%ADD14C,0.600000*%
%TD*%
%TA.AperFunction,Conductor*%
%ADD15C,0.500000*%
%TD*%
G04 APERTURE END LIST*
D10*
%TO.P,J3,1,Pin_1*%
%TO.N,/Sin*%
X31390000Y-53655000D03*
D11*
%TO.P,J3,2,Pin_2*%
%TO.N,/Cos*%
X35350000Y-53655000D03*
%TO.P,J3,3,Pin_3*%
%TO.N,GND*%
X39310000Y-53655000D03*
%TD*%
D12*
%TO.P,J1,1,Pin_1*%
%TO.N,/Sin*%
X36500000Y-81500000D03*
D13*
%TO.P,J1,2,Pin_2*%
%TO.N,GND*%
X39000000Y-81500000D03*
%TO.P,J1,3,Pin_3*%
%TO.N,/Cos*%
X41500000Y-81500000D03*
%TO.P,J1,4,Pin_4*%
%TO.N,+5V*%
X44000000Y-81500000D03*
%TO.P,J1,5,Pin_5*%
%TO.N,GND*%
X46500000Y-81500000D03*
%TO.P,J1,6,Pin_6*%
%TO.N,/MC_A*%
X49000000Y-81500000D03*
%TO.P,J1,7,Pin_7*%
%TO.N,/MC_B*%
X51500000Y-81500000D03*
%TO.P,J1,8,Pin_8*%
%TO.N,/MC_I*%
X54000000Y-81500000D03*
%TD*%
D14*
%TO.N,GND*%
X51250000Y-74000000D03*
X47500000Y-74000000D03*
X43000000Y-74250000D03*
X49750000Y-57250000D03*
X51750000Y-57000000D03*
X53750000Y-57000000D03*
X55750000Y-57000000D03*
X53500000Y-69750000D03*
X49500000Y-69750000D03*
X45500000Y-69750000D03*
X60000000Y-80000000D03*
X40000000Y-80000000D03*
X30000000Y-80000000D03*
X40000000Y-75000000D03*
X40000000Y-50000000D03*
X35000000Y-50000000D03*
X30000000Y-50000000D03*
X30000000Y-60000000D03*
X30000000Y-65000000D03*
X30000000Y-70000000D03*
X35000000Y-70000000D03*
X35000000Y-65000000D03*
X40000000Y-65000000D03*
X40000000Y-70000000D03*
X55000000Y-70000000D03*
X60000000Y-70000000D03*
X60000000Y-65000000D03*
X60000000Y-60000000D03*
X60000000Y-55000000D03*
X55000000Y-55000000D03*
X50000000Y-55000000D03*
X50000000Y-50000000D03*
X55000000Y-50000000D03*
X45750000Y-64500000D03*
X50250000Y-64250000D03*
X53750000Y-64500000D03*
%TO.N,+5V*%
X47000000Y-60000000D03*
X53500000Y-78750000D03*
X50000000Y-78750000D03*
X45750000Y-78750000D03*
%TD*%
D15*
%TO.N,+5V*%
X44000000Y-63000000D02*
X47000000Y-60000000D01*
X44000000Y-81500000D02*
X44000000Y-63000000D01*
X53500000Y-78750000D02*
X45750000Y-78750000D01*
X44000000Y-81500000D02*
X44000000Y-80500000D01*
X44000000Y-80500000D02*
X45750000Y-78750000D01*
%TD*%
%TA.AperFunction,Conductor*%
%TO.N,GND*%
G36*
X61756061Y-44501097D02*
G01*
X61766635Y-44502138D01*
X61884069Y-44513704D01*
X61907897Y-44518443D01*
X62025140Y-44554008D01*
X62047589Y-44563308D01*
X62155630Y-44621057D01*
X62175840Y-44634561D01*
X62270535Y-44712274D01*
X62287725Y-44729464D01*
X62365438Y-44824159D01*
X62378942Y-44844369D01*
X62436690Y-44952407D01*
X62445993Y-44974865D01*
X62481554Y-45092093D01*
X62486296Y-45115935D01*
X62498903Y-45243938D01*
X62499500Y-45256092D01*
X62499500Y-79997293D01*
X62499382Y-80002702D01*
X62482614Y-80386750D01*
X62481671Y-80397526D01*
X62431849Y-80775957D01*
X62429971Y-80786610D01*
X62347354Y-81159272D01*
X62344554Y-81169721D01*
X62229775Y-81533755D01*
X62226075Y-81543921D01*
X62080002Y-81896572D01*
X62075430Y-81906376D01*
X61899183Y-82244942D01*
X61893775Y-82254310D01*
X61688681Y-82576244D01*
X61682476Y-82585105D01*
X61450110Y-82887930D01*
X61443156Y-82896217D01*
X61185284Y-83177635D01*
X61177635Y-83185284D01*
X60896217Y-83443156D01*
X60887930Y-83450110D01*
X60585105Y-83682476D01*
X60576244Y-83688681D01*
X60254310Y-83893775D01*
X60244942Y-83899183D01*
X59906376Y-84075430D01*
X59896572Y-84080002D01*
X59543921Y-84226075D01*
X59533755Y-84229775D01*
X59169721Y-84344554D01*
X59159272Y-84347354D01*
X58786610Y-84429971D01*
X58775957Y-84431849D01*
X58397526Y-84481671D01*
X58386750Y-84482614D01*
X58002703Y-84499382D01*
X57997294Y-84499500D01*
X33502706Y-84499500D01*
X33497297Y-84499382D01*
X33113249Y-84482614D01*
X33102473Y-84481671D01*
X32724042Y-84431849D01*
X32713389Y-84429971D01*
X32340727Y-84347354D01*
X32330278Y-84344554D01*
X31966244Y-84229775D01*
X31956078Y-84226075D01*
X31603427Y-84080002D01*
X31593623Y-84075430D01*
X31255057Y-83899183D01*
X31245689Y-83893775D01*
X30923755Y-83688681D01*
X30914894Y-83682476D01*
X30612069Y-83450110D01*
X30603782Y-83443156D01*
X30322364Y-83185284D01*
X30314715Y-83177635D01*
X30056843Y-82896217D01*
X30049889Y-82887930D01*
X29817523Y-82585105D01*
X29811318Y-82576244D01*
X29606224Y-82254310D01*
X29600816Y-82244942D01*
X29466430Y-81986789D01*
X29424566Y-81906369D01*
X29419997Y-81896572D01*
X29376540Y-81791657D01*
X29273920Y-81543911D01*
X29270224Y-81533755D01*
X29265788Y-81519685D01*
X29155442Y-81169710D01*
X29152648Y-81159284D01*
X29070025Y-80786597D01*
X29068152Y-80775971D01*
X29059569Y-80710777D01*
X34649500Y-80710777D01*
X34649500Y-82289208D01*
X34649501Y-82289223D01*
X34659904Y-82421413D01*
X34659905Y-82421420D01*
X34714902Y-82639678D01*
X34714903Y-82639681D01*
X34807991Y-82844622D01*
X34807997Y-82844632D01*
X34936174Y-83029645D01*
X34936178Y-83029650D01*
X34936181Y-83029654D01*
X35095346Y-83188819D01*
X35095350Y-83188822D01*
X35095354Y-83188825D01*
X35109963Y-83198946D01*
X35280374Y-83317007D01*
X35485317Y-83410096D01*
X35485321Y-83410097D01*
X35703579Y-83465094D01*
X35703581Y-83465094D01*
X35703588Y-83465096D01*
X35835783Y-83475500D01*
X37164216Y-83475499D01*
X37296412Y-83465096D01*
X37514683Y-83410096D01*
X37719626Y-83317007D01*
X37904654Y-83188819D01*
X38063819Y-83029654D01*
X38189801Y-82847809D01*
X38244159Y-82803913D01*
X38313621Y-82796374D01*
X38348024Y-82807942D01*
X38481775Y-82876092D01*
X38481779Y-82876094D01*
X38683871Y-82941757D01*
X38750000Y-82952231D01*
X38750000Y-81904145D01*
X38816657Y-81942630D01*
X38937465Y-81975000D01*
X39062535Y-81975000D01*
X39183343Y-81942630D01*
X39250000Y-81904145D01*
X39250000Y-82952230D01*
X39316126Y-82941757D01*
X39316129Y-82941757D01*
X39518217Y-82876095D01*
X39707554Y-82779622D01*
X39831924Y-82689262D01*
X39897730Y-82665782D01*
X39965784Y-82681607D01*
X40003186Y-82714094D01*
X40105733Y-82847736D01*
X40105739Y-82847743D01*
X40277256Y-83019260D01*
X40277263Y-83019266D01*
X40325485Y-83056268D01*
X40469711Y-83166936D01*
X40679788Y-83288224D01*
X40903900Y-83381054D01*
X41138211Y-83443838D01*
X41318586Y-83467584D01*
X41378711Y-83475500D01*
X41378712Y-83475500D01*
X41621289Y-83475500D01*
X41669388Y-83469167D01*
X41861789Y-83443838D01*
X42096100Y-83381054D01*
X42320212Y-83288224D01*
X42530289Y-83166936D01*
X42674516Y-83056266D01*
X42739683Y-83031074D01*
X42808127Y-83045112D01*
X42825476Y-83056261D01*
X42969711Y-83166936D01*
X43179788Y-83288224D01*
X43403900Y-83381054D01*
X43638211Y-83443838D01*
X43818586Y-83467584D01*
X43878711Y-83475500D01*
X43878712Y-83475500D01*
X44121289Y-83475500D01*
X44169388Y-83469167D01*
X44361789Y-83443838D01*
X44596100Y-83381054D01*
X44820212Y-83288224D01*
X45030289Y-83166936D01*
X45222738Y-83019265D01*
X45394265Y-82847738D01*
X45496813Y-82714093D01*
X45553240Y-82672891D01*
X45622986Y-82668736D01*
X45668074Y-82689262D01*
X45792442Y-82779620D01*
X45981782Y-82876095D01*
X46183871Y-82941757D01*
X46250000Y-82952231D01*
X46250000Y-81904145D01*
X46316657Y-81942630D01*
X46437465Y-81975000D01*
X46562535Y-81975000D01*
X46683343Y-81942630D01*
X46750000Y-81904145D01*
X46750000Y-82952230D01*
X46816126Y-82941757D01*
X46816129Y-82941757D01*
X47018217Y-82876095D01*
X47207554Y-82779622D01*
X47331924Y-82689262D01*
X47397730Y-82665782D01*
X47465784Y-82681607D01*
X47503186Y-82714094D01*
X47605733Y-82847736D01*
X47605739Y-82847743D01*
X47777256Y-83019260D01*
X47777263Y-83019266D01*
X47825485Y-83056268D01*
X47969711Y-83166936D01*
X48179788Y-83288224D01*
X48403900Y-83381054D01*
X48638211Y-83443838D01*
X48818586Y-83467584D01*
X48878711Y-83475500D01*
X48878712Y-83475500D01*
X49121289Y-83475500D01*
X49169388Y-83469167D01*
X49361789Y-83443838D01*
X49596100Y-83381054D01*
X49820212Y-83288224D01*
X50030289Y-83166936D01*
X50174516Y-83056266D01*
X50239683Y-83031074D01*
X50308127Y-83045112D01*
X50325476Y-83056261D01*
X50469711Y-83166936D01*
X50679788Y-83288224D01*
X50903900Y-83381054D01*
X51138211Y-83443838D01*
X51318586Y-83467584D01*
X51378711Y-83475500D01*
X51378712Y-83475500D01*
X51621289Y-83475500D01*
X51669388Y-83469167D01*
X51861789Y-83443838D01*
X52096100Y-83381054D01*
X52320212Y-83288224D01*
X52530289Y-83166936D01*
X52674516Y-83056266D01*
X52739683Y-83031074D01*
X52808127Y-83045112D01*
X52825476Y-83056261D01*
X52969711Y-83166936D01*
X53179788Y-83288224D01*
X53403900Y-83381054D01*
X53638211Y-83443838D01*
X53818586Y-83467584D01*
X53878711Y-83475500D01*
X53878712Y-83475500D01*
X54121289Y-83475500D01*
X54169388Y-83469167D01*
X54361789Y-83443838D01*
X54596100Y-83381054D01*
X54820212Y-83288224D01*
X55030289Y-83166936D01*
X55222738Y-83019265D01*
X55394265Y-82847738D01*
X55541936Y-82655289D01*
X55663224Y-82445212D01*
X55756054Y-82221100D01*
X55818838Y-81986789D01*
X55850500Y-81746288D01*
X55850500Y-81253712D01*
X55818838Y-81013211D01*
X55756054Y-80778900D01*
X55663224Y-80554788D01*
X55541936Y-80344711D01*
X55434697Y-80204954D01*
X55394266Y-80152263D01*
X55394260Y-80152256D01*
X55222743Y-79980739D01*
X55222736Y-79980733D01*
X55030293Y-79833067D01*
X55030292Y-79833066D01*
X55030289Y-79833064D01*
X54820212Y-79711776D01*
X54820205Y-79711773D01*
X54648202Y-79640527D01*
X54593799Y-79596686D01*
X54571734Y-79530392D01*
X54589013Y-79462693D01*
X54594070Y-79454858D01*
X54630568Y-79402734D01*
X54726739Y-79196496D01*
X54785635Y-78976692D01*
X54805468Y-78750000D01*
X54785635Y-78523308D01*
X54726739Y-78303504D01*
X54630568Y-78097266D01*
X54500047Y-77910861D01*
X54500045Y-77910858D01*
X54339141Y-77749954D01*
X54152734Y-77619432D01*
X54152732Y-77619431D01*
X53946497Y-77523261D01*
X53946488Y-77523258D01*
X53726697Y-77464366D01*
X53726693Y-77464365D01*
X53726692Y-77464365D01*
X53726691Y-77464364D01*
X53726686Y-77464364D01*
X53500002Y-77444532D01*
X53499998Y-77444532D01*
X53273313Y-77464364D01*
X53273302Y-77464366D01*
X53157950Y-77495275D01*
X53125857Y-77499500D01*
X50374143Y-77499500D01*
X50342050Y-77495275D01*
X50226697Y-77464366D01*
X50226693Y-77464365D01*
X50226692Y-77464365D01*
X50226691Y-77464364D01*
X50226686Y-77464364D01*
X50000002Y-77444532D01*
X49999998Y-77444532D01*
X49773313Y-77464364D01*
X49773302Y-77464366D01*
X49657950Y-77495275D01*
X49625857Y-77499500D01*
X46124143Y-77499500D01*
X46092050Y-77495275D01*
X45976697Y-77464366D01*
X45976693Y-77464365D01*
X45976692Y-77464365D01*
X45976691Y-77464364D01*
X45976686Y-77464364D01*
X45750002Y-77444532D01*
X45749998Y-77444532D01*
X45523313Y-77464364D01*
X45523302Y-77464366D01*
X45406593Y-77495638D01*
X45336743Y-77493975D01*
X45278881Y-77454812D01*
X45251377Y-77390583D01*
X45250500Y-77375863D01*
X45250500Y-73878711D01*
X56149500Y-73878711D01*
X56149500Y-74121288D01*
X56181161Y-74361785D01*
X56243947Y-74596104D01*
X56336773Y-74820205D01*
X56336776Y-74820212D01*
X56458064Y-75030289D01*
X56458066Y-75030292D01*
X56458067Y-75030293D01*
X56605733Y-75222736D01*
X56605739Y-75222743D01*
X56777256Y-75394260D01*
X56777262Y-75394265D01*
X56969711Y-75541936D01*
X57179788Y-75663224D01*
X57403900Y-75756054D01*
X57638211Y-75818838D01*
X57818586Y-75842584D01*
X57878711Y-75850500D01*
X57878712Y-75850500D01*
X58121289Y-75850500D01*
X58169388Y-75844167D01*
X58361789Y-75818838D01*
X58596100Y-75756054D01*
X58820212Y-75663224D01*
X59030289Y-75541936D01*
X59222738Y-75394265D01*
X59394265Y-75222738D01*
X59541936Y-75030289D01*
X59663224Y-74820212D01*
X59756054Y-74596100D01*
X59818838Y-74361789D01*
X59850500Y-74121288D01*
X59850500Y-73878712D01*
X59818838Y-73638211D01*
X59756054Y-73403900D01*
X59663224Y-73179788D01*
X59541936Y-72969711D01*
X59394265Y-72777262D01*
X59394260Y-72777256D01*
X59222743Y-72605739D01*
X59222736Y-72605733D01*
X59030293Y-72458067D01*
X59030292Y-72458066D01*
X59030289Y-72458064D01*
X58820212Y-72336776D01*
X58820205Y-72336773D01*
X58596104Y-72243947D01*
X58361785Y-72181161D01*
X58121289Y-72149500D01*
X58121288Y-72149500D01*
X57878712Y-72149500D01*
X57878711Y-72149500D01*
X57638214Y-72181161D01*
X57403895Y-72243947D01*
X57179794Y-72336773D01*
X57179785Y-72336777D01*
X56969706Y-72458067D01*
X56777263Y-72605733D01*
X56777256Y-72605739D01*
X56605739Y-72777256D01*
X56605733Y-72777263D01*
X56458067Y-72969706D01*
X56336777Y-73179785D01*
X56336773Y-73179794D01*
X56243947Y-73403895D01*
X56181161Y-73638214D01*
X56149500Y-73878711D01*
X45250500Y-73878711D01*
X45250500Y-63569335D01*
X45270185Y-63502296D01*
X45286814Y-63481659D01*
X47609490Y-61158982D01*
X47644762Y-61134285D01*
X47652734Y-61130568D01*
X47839139Y-61000047D01*
X48000047Y-60839139D01*
X48130568Y-60652734D01*
X48226739Y-60446496D01*
X48285635Y-60226692D01*
X48305468Y-60000000D01*
X48285635Y-59773308D01*
X48226739Y-59553504D01*
X48130568Y-59347266D01*
X48000047Y-59160861D01*
X48000045Y-59160858D01*
X47839141Y-58999954D01*
X47652734Y-58869432D01*
X47652732Y-58869431D01*
X47446497Y-58773261D01*
X47446488Y-58773258D01*
X47226697Y-58714366D01*
X47226693Y-58714365D01*
X47226692Y-58714365D01*
X47226691Y-58714364D01*
X47226686Y-58714364D01*
X47000002Y-58694532D01*
X46999998Y-58694532D01*
X46773313Y-58714364D01*
X46773302Y-58714366D01*
X46553511Y-58773258D01*
X46553502Y-58773261D01*
X46347267Y-58869431D01*
X46347265Y-58869432D01*
X46160858Y-58999954D01*
X45999954Y-59160858D01*
X45869432Y-59347264D01*
X45865712Y-59355242D01*
X45841015Y-59390509D01*
X43046174Y-62185351D01*
X43046172Y-62185354D01*
X42996485Y-62253741D01*
X42930476Y-62344594D01*
X42840669Y-62520851D01*
X42839608Y-62524612D01*
X42780291Y-62707169D01*
X42780291Y-62707172D01*
X42749500Y-62901577D01*
X42749500Y-79749823D01*
X42729815Y-79816862D01*
X42677011Y-79862617D01*
X42607853Y-79872561D01*
X42550014Y-79848199D01*
X42530293Y-79833067D01*
X42530292Y-79833066D01*
X42530289Y-79833064D01*
X42320212Y-79711776D01*
X42320205Y-79711773D01*
X42096104Y-79618947D01*
X41861785Y-79556161D01*
X41621289Y-79524500D01*
X41621288Y-79524500D01*
X41378712Y-79524500D01*
X41378711Y-79524500D01*
X41138214Y-79556161D01*
X40903895Y-79618947D01*
X40679794Y-79711773D01*
X40679785Y-79711777D01*
X40469706Y-79833067D01*
X40277263Y-79980733D01*
X40277256Y-79980739D01*
X40105739Y-80152256D01*
X40003186Y-80285906D01*
X39946758Y-80327108D01*
X39877012Y-80331263D01*
X39831925Y-80310737D01*
X39707557Y-80220379D01*
X39518215Y-80123903D01*
X39316124Y-80058241D01*
X39250000Y-80047768D01*
X39250000Y-81095854D01*
X39183343Y-81057370D01*
X39062535Y-81025000D01*
X38937465Y-81025000D01*
X38816657Y-81057370D01*
X38750000Y-81095854D01*
X38750000Y-80047768D01*
X38749999Y-80047768D01*
X38683875Y-80058241D01*
X38481784Y-80123903D01*
X38348024Y-80192058D01*
X38279355Y-80204954D01*
X38214614Y-80178678D01*
X38189801Y-80152189D01*
X38063825Y-79970354D01*
X38063822Y-79970350D01*
X38063819Y-79970346D01*
X37904654Y-79811181D01*
X37904650Y-79811178D01*
X37904645Y-79811174D01*
X37719632Y-79682997D01*
X37719630Y-79682995D01*
X37719626Y-79682993D01*
X37578621Y-79618946D01*
X37514681Y-79589903D01*
X37514678Y-79589902D01*
X37296420Y-79534905D01*
X37296413Y-79534904D01*
X37252347Y-79531436D01*
X37164217Y-79524500D01*
X37164215Y-79524500D01*
X35835791Y-79524500D01*
X35835776Y-79524501D01*
X35703586Y-79534904D01*
X35703579Y-79534905D01*
X35485321Y-79589902D01*
X35485318Y-79589903D01*
X35280377Y-79682991D01*
X35280367Y-79682997D01*
X35095354Y-79811174D01*
X35095342Y-79811184D01*
X34936184Y-79970342D01*
X34936174Y-79970354D01*
X34807997Y-80155367D01*
X34807991Y-80155377D01*
X34714903Y-80360318D01*
X34714902Y-80360321D01*
X34659905Y-80578579D01*
X34659904Y-80578586D01*
X34649500Y-80710777D01*
X29059569Y-80710777D01*
X29018326Y-80397506D01*
X29017386Y-80386771D01*
X29000618Y-80002702D01*
X29000500Y-79997293D01*
X29000500Y-73878711D01*
X31649500Y-73878711D01*
X31649500Y-74121288D01*
X31681161Y-74361785D01*
X31743947Y-74596104D01*
X31836773Y-74820205D01*
X31836776Y-74820212D01*
X31958064Y-75030289D01*
X31958066Y-75030292D01*
X31958067Y-75030293D01*
X32105733Y-75222736D01*
X32105739Y-75222743D01*
X32277256Y-75394260D01*
X32277262Y-75394265D01*
X32469711Y-75541936D01*
X32679788Y-75663224D01*
X32903900Y-75756054D01*
X33138211Y-75818838D01*
X33318586Y-75842584D01*
X33378711Y-75850500D01*
X33378712Y-75850500D01*
X33621289Y-75850500D01*
X33669388Y-75844167D01*
X33861789Y-75818838D01*
X34096100Y-75756054D01*
X34320212Y-75663224D01*
X34530289Y-75541936D01*
X34722738Y-75394265D01*
X34894265Y-75222738D01*
X35041936Y-75030289D01*
X35163224Y-74820212D01*
X35256054Y-74596100D01*
X35318838Y-74361789D01*
X35350500Y-74121288D01*
X35350500Y-73878712D01*
X35318838Y-73638211D01*
X35256054Y-73403900D01*
X35163224Y-73179788D01*
X35041936Y-72969711D01*
X34894265Y-72777262D01*
X34894260Y-72777256D01*
X34722743Y-72605739D01*
X34722736Y-72605733D01*
X34530293Y-72458067D01*
X34530292Y-72458066D01*
X34530289Y-72458064D01*
X34320212Y-72336776D01*
X34320205Y-72336773D01*
X34096104Y-72243947D01*
X33861785Y-72181161D01*
X33621289Y-72149500D01*
X33621288Y-72149500D01*
X33378712Y-72149500D01*
X33378711Y-72149500D01*
X33138214Y-72181161D01*
X32903895Y-72243947D01*
X32679794Y-72336773D01*
X32679785Y-72336777D01*
X32469706Y-72458067D01*
X32277263Y-72605733D01*
X32277256Y-72605739D01*
X32105739Y-72777256D01*
X32105733Y-72777263D01*
X31958067Y-72969706D01*
X31836777Y-73179785D01*
X31836773Y-73179794D01*
X31743947Y-73403895D01*
X31681161Y-73638214D01*
X31649500Y-73878711D01*
X29000500Y-73878711D01*
X29000500Y-56463335D01*
X29020185Y-56396296D01*
X29072989Y-56350541D01*
X29142147Y-56340597D01*
X29205703Y-56369622D01*
X29212181Y-56375654D01*
X29255346Y-56418819D01*
X29255350Y-56418822D01*
X29255354Y-56418825D01*
X29319601Y-56463335D01*
X29440374Y-56547007D01*
X29645317Y-56640096D01*
X29645321Y-56640097D01*
X29863579Y-56695094D01*
X29863581Y-56695094D01*
X29863588Y-56695096D01*
X29995783Y-56705500D01*
X32784216Y-56705499D01*
X32916412Y-56695096D01*
X33134683Y-56640096D01*
X33339626Y-56547007D01*
X33524654Y-56418819D01*
X33683819Y-56259654D01*
X33687388Y-56255379D01*
X33689315Y-56256988D01*
X33735349Y-56219769D01*
X33804806Y-56212188D01*
X33851079Y-56231593D01*
X33851440Y-56231020D01*
X33854386Y-56232871D01*
X34099797Y-56387073D01*
X34360929Y-56512828D01*
X34634500Y-56608554D01*
X34917069Y-56673049D01*
X34917078Y-56673050D01*
X34917083Y-56673051D01*
X35109077Y-56694683D01*
X35205076Y-56705499D01*
X35205079Y-56705500D01*
X35205082Y-56705500D01*
X35494921Y-56705500D01*
X35494922Y-56705499D01*
X35642111Y-56688915D01*
X35782916Y-56673051D01*
X35782919Y-56673050D01*
X35782931Y-56673049D01*
X36065500Y-56608554D01*
X36339071Y-56512828D01*
X36600203Y-56387073D01*
X36845614Y-56232871D01*
X37072217Y-56052161D01*
X37277161Y-55847217D01*
X37457871Y-55620614D01*
X37533192Y-55500740D01*
X37585525Y-55454450D01*
X37654578Y-55443801D01*
X37718427Y-55472176D01*
X37736561Y-55491227D01*
X37742821Y-55499385D01*
X37742826Y-55499391D01*
X37935609Y-55692174D01*
X37935617Y-55692181D01*
X38151933Y-55858168D01*
X38388062Y-55994496D01*
X38388072Y-55994500D01*
X38639970Y-56098840D01*
X38903344Y-56169411D01*
X39060000Y-56190034D01*
X39060000Y-54471480D01*
X39062064Y-54472335D01*
X39226282Y-54505000D01*
X39393718Y-54505000D01*
X39557936Y-54472335D01*
X39560000Y-54471480D01*
X39560000Y-56190033D01*
X39716655Y-56169411D01*
X39980029Y-56098840D01*
X40231927Y-55994500D01*
X40231937Y-55994496D01*
X40468066Y-55858168D01*
X40684382Y-55692181D01*
X40684391Y-55692174D01*
X40877174Y-55499391D01*
X40877181Y-55499382D01*
X41043168Y-55283066D01*
X41179496Y-55046937D01*
X41179500Y-55046927D01*
X41283840Y-54795029D01*
X41354411Y-54531655D01*
X41390000Y-54261330D01*
X41390000Y-53905000D01*
X40126480Y-53905000D01*
X40127335Y-53902936D01*
X40160000Y-53738718D01*
X40160000Y-53571282D01*
X40127335Y-53407064D01*
X40126480Y-53405000D01*
X41390000Y-53405000D01*
X41390000Y-53048669D01*
X41354411Y-52778344D01*
X41283840Y-52514970D01*
X41179500Y-52263072D01*
X41179496Y-52263062D01*
X41043168Y-52026933D01*
X40877181Y-51810617D01*
X40877174Y-51810609D01*
X40684391Y-51617826D01*
X40684382Y-51617818D01*
X40468066Y-51451831D01*
X40231937Y-51315503D01*
X40231927Y-51315499D01*
X39980029Y-51211159D01*
X39716655Y-51140588D01*
X39560000Y-51119963D01*
X39560000Y-52838519D01*
X39557936Y-52837665D01*
X39393718Y-52805000D01*
X39226282Y-52805000D01*
X39062064Y-52837665D01*
X39060000Y-52838519D01*
X39060000Y-51119963D01*
X39059999Y-51119963D01*
X38903344Y-51140588D01*
X38639970Y-51211159D01*
X38388072Y-51315499D01*
X38388062Y-51315503D01*
X38151933Y-51451831D01*
X37935617Y-51617818D01*
X37935609Y-51617825D01*
X37742823Y-51810612D01*
X37742815Y-51810622D01*
X37736555Y-51818779D01*
X37680124Y-51859977D01*
X37610377Y-51864127D01*
X37549460Y-51829910D01*
X37533191Y-51809257D01*
X37469673Y-51708169D01*
X37457871Y-51689386D01*
X37277161Y-51462783D01*
X37072217Y-51257839D01*
X37069636Y-51255781D01*
X36899326Y-51119963D01*
X36845614Y-51077129D01*
X36600203Y-50922927D01*
X36600200Y-50922925D01*
X36339072Y-50797172D01*
X36065501Y-50701446D01*
X36065499Y-50701445D01*
X35847425Y-50651671D01*
X35782931Y-50636951D01*
X35782928Y-50636950D01*
X35782916Y-50636948D01*
X35494924Y-50604500D01*
X35494918Y-50604500D01*
X35205082Y-50604500D01*
X35205075Y-50604500D01*
X34917083Y-50636948D01*
X34917069Y-50636951D01*
X34634500Y-50701445D01*
X34634498Y-50701446D01*
X34360927Y-50797172D01*
X34099799Y-50922925D01*
X33851440Y-51078980D01*
X33850941Y-51078187D01*
X33788665Y-51099616D01*
X33720794Y-51083022D01*
X33688779Y-51053467D01*
X33687392Y-51054626D01*
X33683822Y-51050350D01*
X33683819Y-51050346D01*
X33524654Y-50891181D01*
X33524650Y-50891178D01*
X33524645Y-50891174D01*
X33339632Y-50762997D01*
X33339630Y-50762995D01*
X33339626Y-50762993D01*
X33204125Y-50701446D01*
X33134681Y-50669903D01*
X33134678Y-50669902D01*
X32916420Y-50614905D01*
X32916413Y-50614904D01*
X32872347Y-50611436D01*
X32784217Y-50604500D01*
X32784215Y-50604500D01*
X29995791Y-50604500D01*
X29995776Y-50604501D01*
X29863586Y-50614904D01*
X29863579Y-50614905D01*
X29645321Y-50669902D01*
X29645318Y-50669903D01*
X29440377Y-50762991D01*
X29440367Y-50762997D01*
X29255354Y-50891174D01*
X29255342Y-50891184D01*
X29212181Y-50934346D01*
X29150858Y-50967831D01*
X29081166Y-50962847D01*
X29025233Y-50920975D01*
X29000816Y-50855511D01*
X29000500Y-50846665D01*
X29000500Y-49875441D01*
X44099500Y-49875441D01*
X44099500Y-50124558D01*
X44099501Y-50124575D01*
X44132017Y-50371561D01*
X44196498Y-50612207D01*
X44291830Y-50842361D01*
X44291837Y-50842376D01*
X44416400Y-51058126D01*
X44568060Y-51255774D01*
X44568066Y-51255781D01*
X44744218Y-51431933D01*
X44744225Y-51431939D01*
X44941873Y-51583599D01*
X45157623Y-51708162D01*
X45157638Y-51708169D01*
X45256825Y-51749253D01*
X45387793Y-51803502D01*
X45628435Y-51867982D01*
X45875435Y-51900500D01*
X45875442Y-51900500D01*
X46124558Y-51900500D01*
X46124565Y-51900500D01*
X46371565Y-51867982D01*
X46612207Y-51803502D01*
X46842373Y-51708164D01*
X47058127Y-51583599D01*
X47255776Y-51431938D01*
X47431938Y-51255776D01*
X47583599Y-51058127D01*
X47708164Y-50842373D01*
X47803502Y-50612207D01*
X47867982Y-50371565D01*
X47900500Y-50124565D01*
X47900500Y-49875441D01*
X56799500Y-49875441D01*
X56799500Y-50124558D01*
X56799501Y-50124575D01*
X56832017Y-50371561D01*
X56896498Y-50612207D01*
X56991830Y-50842361D01*
X56991837Y-50842376D01*
X57116400Y-51058126D01*
X57268060Y-51255774D01*
X57268066Y-51255781D01*
X57444218Y-51431933D01*
X57444225Y-51431939D01*
X57641873Y-51583599D01*
X57857623Y-51708162D01*
X57857638Y-51708169D01*
X57956825Y-51749253D01*
X58087793Y-51803502D01*
X58328435Y-51867982D01*
X58575435Y-51900500D01*
X58575442Y-51900500D01*
X58824558Y-51900500D01*
X58824565Y-51900500D01*
X59071565Y-51867982D01*
X59312207Y-51803502D01*
X59542373Y-51708164D01*
X59758127Y-51583599D01*
X59955776Y-51431938D01*
X60131938Y-51255776D01*
X60283599Y-51058127D01*
X60408164Y-50842373D01*
X60503502Y-50612207D01*
X60567982Y-50371565D01*
X60600500Y-50124565D01*
X60600500Y-49875435D01*
X60567982Y-49628435D01*
X60503502Y-49387793D01*
X60408164Y-49157627D01*
X60283599Y-48941873D01*
X60131938Y-48744224D01*
X60131933Y-48744218D01*
X59955781Y-48568066D01*
X59955774Y-48568060D01*
X59758126Y-48416400D01*
X59542376Y-48291837D01*
X59542361Y-48291830D01*
X59312207Y-48196498D01*
X59071561Y-48132017D01*
X58824575Y-48099501D01*
X58824570Y-48099500D01*
X58824565Y-48099500D01*
X58575435Y-48099500D01*
X58575429Y-48099500D01*
X58575424Y-48099501D01*
X58328438Y-48132017D01*
X58087792Y-48196498D01*
X57857638Y-48291830D01*
X57857623Y-48291837D01*
X57641873Y-48416400D01*
X57444225Y-48568060D01*
X57444218Y-48568066D01*
X57268066Y-48744218D01*
X57268060Y-48744225D01*
X57116400Y-48941873D01*
X56991837Y-49157623D01*
X56991830Y-49157638D01*
X56896498Y-49387792D01*
X56832017Y-49628438D01*
X56799501Y-49875424D01*
X56799500Y-49875441D01*
X47900500Y-49875441D01*
X47900500Y-49875435D01*
X47867982Y-49628435D01*
X47803502Y-49387793D01*
X47708164Y-49157627D01*
X47583599Y-48941873D01*
X47431938Y-48744224D01*
X47431933Y-48744218D01*
X47255781Y-48568066D01*
X47255774Y-48568060D01*
X47058126Y-48416400D01*
X46842376Y-48291837D01*
X46842361Y-48291830D01*
X46612207Y-48196498D01*
X46371561Y-48132017D01*
X46124575Y-48099501D01*
X46124570Y-48099500D01*
X46124565Y-48099500D01*
X45875435Y-48099500D01*
X45875429Y-48099500D01*
X45875424Y-48099501D01*
X45628438Y-48132017D01*
X45387792Y-48196498D01*
X45157638Y-48291830D01*
X45157623Y-48291837D01*
X44941873Y-48416400D01*
X44744225Y-48568060D01*
X44744218Y-48568066D01*
X44568066Y-48744218D01*
X44568060Y-48744225D01*
X44416400Y-48941873D01*
X44291837Y-49157623D01*
X44291830Y-49157638D01*
X44196498Y-49387792D01*
X44132017Y-49628438D01*
X44099501Y-49875424D01*
X44099500Y-49875441D01*
X29000500Y-49875441D01*
X29000500Y-45256092D01*
X29001097Y-45243939D01*
X29002015Y-45234614D01*
X29013704Y-45115928D01*
X29018442Y-45092104D01*
X29054010Y-44974855D01*
X29063306Y-44952413D01*
X29121061Y-44844363D01*
X29134556Y-44824165D01*
X29212279Y-44729458D01*
X29229458Y-44712279D01*
X29324165Y-44634556D01*
X29344363Y-44621061D01*
X29452413Y-44563306D01*
X29474855Y-44554010D01*
X29592104Y-44518442D01*
X29615928Y-44513704D01*
X29734614Y-44502015D01*
X29743939Y-44501097D01*
X29756092Y-44500500D01*
X29815892Y-44500500D01*
X61684108Y-44500500D01*
X61743908Y-44500500D01*
X61756061Y-44501097D01*
G37*
%TD.AperFunction*%
%TD*%
M02*
