%TF.GenerationSoftware,KiCad,Pcbnew,8.0.8*%
%TF.CreationDate,2025-01-20T17:52:45-08:00*%
%TF.ProjectId,Motor_Adapt_C,4d6f746f-725f-4416-9461-70745f432e6b,rev?*%
%TF.SameCoordinates,Original*%
%TF.FileFunction,Copper,L1,Top*%
%TF.FilePolarity,Positive*%
%FSLAX46Y46*%
G04 Gerber Fmt 4.6, Leading zero omitted, Abs format (unit mm)*
G04 Created by KiCad (PCBNEW 8.0.8) date 2025-01-20 17:52:45*
%MOMM*%
%LPD*%
G01*
G04 APERTURE LIST*
G04 Aperture macros list*
%AMRoundRect*
0 Rectangle with rounded corners*
0 $1 Rounding radius*
0 $2 $3 $4 $5 $6 $7 $8 $9 X,Y pos of 4 corners*
0 Add a 4 corners polygon primitive as box body*
4,1,4,$2,$3,$4,$5,$6,$7,$8,$9,$2,$3,0*
0 Add four circle primitives for the rounded corners*
1,1,$1+$1,$2,$3*
1,1,$1+$1,$4,$5*
1,1,$1+$1,$6,$7*
1,1,$1+$1,$8,$9*
0 Add four rect primitives between the rounded corners*
20,1,$1+$1,$2,$3,$4,$5,0*
20,1,$1+$1,$4,$5,$6,$7,0*
20,1,$1+$1,$6,$7,$8,$9,0*
20,1,$1+$1,$8,$9,$2,$3,0*%
%AMFreePoly0*
4,1,80,1.253536,1.953536,1.255000,1.950000,1.255000,-1.950000,1.253536,-1.953536,1.250000,-1.955000,-1.250000,-1.955000,-1.253536,-1.953536,-1.255000,-1.950000,-1.255000,-1.265000,-1.253536,-1.261464,-1.253263,-1.261211,-1.217323,-1.230262,-1.181415,-1.197347,-1.147534,-1.164462,-1.113644,-1.129576,-1.081744,-1.094685,-1.049831,-1.057786,-1.019926,-1.020902,-0.991025,-0.983033,-0.963090,-0.944123,
-0.936176,-0.904251,-0.910234,-0.864339,-0.885327,-0.823492,-0.862416,-0.781654,-0.840483,-0.738786,-0.819524,-0.695870,-0.799592,-0.652019,-0.781646,-0.608151,-0.764700,-0.563295,-0.748748,-0.517434,-0.733786,-0.471549,-0.720837,-0.425729,-0.709863,-0.379837,-0.709862,-0.379837,-0.698894,-0.332976,-0.689921,-0.286113,-0.681948,-0.238277,-0.675965,-0.191410,-0.670983,-0.143581,-0.667995,-0.095768,
-0.665997,-0.047832,-0.665001,0.000000,-0.665997,0.047832,-0.667996,0.095792,-0.670983,0.143581,-0.675965,0.191410,-0.681948,0.238277,-0.689921,0.286113,-0.698894,0.332976,-0.709862,0.379837,-0.709863,0.379837,-0.720837,0.425729,-0.733786,0.471549,-0.748754,0.517450,-0.764700,0.563295,-0.781646,0.608151,-0.799592,0.652019,-0.819524,0.695870,-0.840493,0.738806,-0.862416,0.781654,
-0.885327,0.823492,-0.910234,0.864339,-0.936176,0.904251,-0.963090,0.944123,-0.991025,0.983033,-1.019926,1.020902,-1.049831,1.057786,-1.081744,1.094685,-1.113644,1.129576,-1.147534,1.164462,-1.181415,1.197347,-1.217323,1.230262,-1.253263,1.261211,-1.254986,1.264628,-1.255000,1.265000,-1.255000,1.950000,-1.253536,1.953536,-1.250000,1.955000,1.250000,1.955000,1.253536,1.953536,
1.253536,1.953536,$1*%
%AMFreePoly1*
4,1,80,1.253536,1.953536,1.255000,1.950000,1.255000,1.265000,1.253536,1.261464,1.253263,1.261211,1.217323,1.230262,1.181415,1.197347,1.147534,1.164462,1.113644,1.129576,1.081744,1.094685,1.049831,1.057786,1.019926,1.020902,0.991025,0.983033,0.963090,0.944123,0.936176,0.904251,0.910234,0.864339,0.885327,0.823492,0.862416,0.781654,0.840493,0.738806,0.819524,0.695870,
0.799592,0.652019,0.781646,0.608151,0.764700,0.563295,0.748754,0.517450,0.733786,0.471549,0.720837,0.425729,0.709863,0.379837,0.709862,0.379837,0.698894,0.332976,0.689921,0.286113,0.681948,0.238277,0.675965,0.191410,0.670983,0.143581,0.667996,0.095792,0.665997,0.047832,0.665001,0.000000,0.665997,-0.047832,0.667995,-0.095768,0.670983,-0.143581,0.675965,-0.191410,
0.681948,-0.238277,0.689921,-0.286113,0.698894,-0.332976,0.709862,-0.379837,0.709863,-0.379837,0.720837,-0.425729,0.733786,-0.471549,0.748748,-0.517434,0.764700,-0.563295,0.781646,-0.608151,0.799592,-0.652019,0.819524,-0.695870,0.840483,-0.738786,0.862416,-0.781654,0.885327,-0.823492,0.910234,-0.864339,0.936176,-0.904251,0.963090,-0.944123,0.991025,-0.983033,1.019926,-1.020902,
1.049831,-1.057786,1.081744,-1.094685,1.113644,-1.129576,1.147534,-1.164462,1.181415,-1.197347,1.217323,-1.230262,1.253263,-1.261211,1.254986,-1.264628,1.255000,-1.265000,1.255000,-1.950000,1.253536,-1.953536,1.250000,-1.955000,-1.250000,-1.955000,-1.253536,-1.953536,-1.255000,-1.950000,-1.255000,1.950000,-1.253536,1.953536,-1.250000,1.955000,1.250000,1.955000,1.253536,1.953536,
1.253536,1.953536,$1*%
G04 Aperture macros list end*
%TA.AperFunction,SMDPad,CuDef*%
%ADD10RoundRect,0.250000X-0.300000X0.300000X-0.300000X-0.300000X0.300000X-0.300000X0.300000X0.300000X0*%
%TD*%
%TA.AperFunction,SMDPad,CuDef*%
%ADD11RoundRect,0.250000X-0.475000X0.337500X-0.475000X-0.337500X0.475000X-0.337500X0.475000X0.337500X0*%
%TD*%
%TA.AperFunction,SMDPad,CuDef*%
%ADD12RoundRect,0.250000X-0.337500X-0.475000X0.337500X-0.475000X0.337500X0.475000X-0.337500X0.475000X0*%
%TD*%
%TA.AperFunction,SMDPad,CuDef*%
%ADD13R,0.610000X3.050000*%
%TD*%
%TA.AperFunction,SMDPad,CuDef*%
%ADD14FreePoly0,180.000000*%
%TD*%
%TA.AperFunction,SMDPad,CuDef*%
%ADD15FreePoly1,180.000000*%
%TD*%
%TA.AperFunction,SMDPad,CuDef*%
%ADD16RoundRect,0.150000X-0.150000X0.512500X-0.150000X-0.512500X0.150000X-0.512500X0.150000X0.512500X0*%
%TD*%
%TA.AperFunction,ComponentPad*%
%ADD17RoundRect,0.250000X-1.330000X-1.800000X1.330000X-1.800000X1.330000X1.800000X-1.330000X1.800000X0*%
%TD*%
%TA.AperFunction,ComponentPad*%
%ADD18O,3.160000X4.100000*%
%TD*%
%TA.AperFunction,ComponentPad*%
%ADD19RoundRect,0.250000X-0.600000X-0.725000X0.600000X-0.725000X0.600000X0.725000X-0.600000X0.725000X0*%
%TD*%
%TA.AperFunction,ComponentPad*%
%ADD20O,1.700000X1.950000*%
%TD*%
%TA.AperFunction,ViaPad*%
%ADD21C,0.600000*%
%TD*%
%TA.AperFunction,Conductor*%
%ADD22C,0.500000*%
%TD*%
%TA.AperFunction,Conductor*%
%ADD23C,0.200000*%
%TD*%
G04 APERTURE END LIST*
D10*
%TO.P,D3,1,A1*%
%TO.N,/C_I*%
X53750000Y-63100000D03*
%TO.P,D3,2,A2*%
%TO.N,GND*%
X53750000Y-65900000D03*
%TD*%
%TO.P,D2,1,A1*%
%TO.N,/C_B*%
X50250000Y-63100000D03*
%TO.P,D2,2,A2*%
%TO.N,GND*%
X50250000Y-65900000D03*
%TD*%
%TO.P,D1,1,A1*%
%TO.N,/C_A*%
X45750000Y-63100000D03*
%TO.P,D1,2,A2*%
%TO.N,GND*%
X45750000Y-65900000D03*
%TD*%
D11*
%TO.P,R1,1*%
%TO.N,/C_I*%
X51500000Y-67712500D03*
%TO.P,R1,2*%
%TO.N,/MC_I_LP*%
X51500000Y-69787500D03*
%TD*%
D12*
%TO.P,C3,1*%
%TO.N,/MC_A_LP*%
X43462500Y-71712500D03*
%TO.P,C3,2*%
%TO.N,GND*%
X45537500Y-71712500D03*
%TD*%
D13*
%TO.P,J2,1,1*%
%TO.N,+5V*%
X48780000Y-59980000D03*
%TO.P,J2,2,2*%
%TO.N,GND*%
X49800000Y-59980000D03*
%TO.P,J2,3,3*%
%TO.N,/C_A*%
X50820000Y-59980000D03*
%TO.P,J2,4,4*%
%TO.N,GND*%
X51840000Y-59980000D03*
%TO.P,J2,5,5*%
%TO.N,/C_B*%
X52860000Y-59980000D03*
%TO.P,J2,6,6*%
%TO.N,GND*%
X53880000Y-59980000D03*
%TO.P,J2,7,7*%
%TO.N,/C_I*%
X54900000Y-59980000D03*
%TO.P,J2,8,8*%
%TO.N,GND*%
X55920000Y-59980000D03*
D14*
%TO.P,J2,SH1,SHIELD*%
X43690000Y-50000000D03*
D15*
%TO.P,J2,SH2,SHIELD__1*%
X61010000Y-50000000D03*
%TD*%
D16*
%TO.P,U1,1,NC*%
%TO.N,unconnected-(U1-NC-Pad1)*%
X53437500Y-75212500D03*
%TO.P,U1,2,A*%
%TO.N,/MC_I_LP*%
X52487500Y-75212500D03*
%TO.P,U1,3,GND*%
%TO.N,GND*%
X51537500Y-75212500D03*
%TO.P,U1,4,Y*%
%TO.N,/MC_I*%
X51537500Y-77487500D03*
%TO.P,U1,5,VCC*%
%TO.N,+5V*%
X53437500Y-77487500D03*
%TD*%
%TO.P,U2,1,NC*%
%TO.N,unconnected-(U2-NC-Pad1)*%
X49687500Y-75212500D03*
%TO.P,U2,2,A*%
%TO.N,/MC_B_LP*%
X48737500Y-75212500D03*
%TO.P,U2,3,GND*%
%TO.N,GND*%
X47787500Y-75212500D03*
%TO.P,U2,4,Y*%
%TO.N,/MC_B*%
X47787500Y-77487500D03*
%TO.P,U2,5,VCC*%
%TO.N,+5V*%
X49687500Y-77487500D03*
%TD*%
D12*
%TO.P,C1,1*%
%TO.N,/MC_I_LP*%
X51462500Y-71712500D03*
%TO.P,C1,2*%
%TO.N,GND*%
X53537500Y-71712500D03*
%TD*%
D11*
%TO.P,R3,1*%
%TO.N,/C_A*%
X43500000Y-67712500D03*
%TO.P,R3,2*%
%TO.N,/MC_A_LP*%
X43500000Y-69787500D03*
%TD*%
D17*
%TO.P,J3,1,Pin_1*%
%TO.N,/Sin*%
X31390000Y-53655000D03*
D18*
%TO.P,J3,2,Pin_2*%
%TO.N,/Cos*%
X35350000Y-53655000D03*
%TO.P,J3,3,Pin_3*%
%TO.N,GND*%
X39310000Y-53655000D03*
%TD*%
D19*
%TO.P,J1,1,Pin_1*%
%TO.N,/Sin*%
X36500000Y-81500000D03*
D20*
%TO.P,J1,2,Pin_2*%
%TO.N,GND*%
X39000000Y-81500000D03*
%TO.P,J1,3,Pin_3*%
%TO.N,/Cos*%
X41500000Y-81500000D03*
%TO.P,J1,4,Pin_4*%
%TO.N,+5V*%
X44000000Y-81500000D03*
%TO.P,J1,5,Pin_5*%
%TO.N,GND*%
X46500000Y-81500000D03*
%TO.P,J1,6,Pin_6*%
%TO.N,/MC_A*%
X49000000Y-81500000D03*
%TO.P,J1,7,Pin_7*%
%TO.N,/MC_B*%
X51500000Y-81500000D03*
%TO.P,J1,8,Pin_8*%
%TO.N,/MC_I*%
X54000000Y-81500000D03*
%TD*%
D11*
%TO.P,R2,1*%
%TO.N,/C_B*%
X47500000Y-67675000D03*
%TO.P,R2,2*%
%TO.N,/MC_B_LP*%
X47500000Y-69750000D03*
%TD*%
D12*
%TO.P,C2,1*%
%TO.N,/MC_B_LP*%
X47462500Y-71712500D03*
%TO.P,C2,2*%
%TO.N,GND*%
X49537500Y-71712500D03*
%TD*%
D16*
%TO.P,U3,1,NC*%
%TO.N,unconnected-(U3-NC-Pad1)*%
X45750000Y-75225000D03*
%TO.P,U3,2,A*%
%TO.N,/MC_A_LP*%
X44800000Y-75225000D03*
%TO.P,U3,3,GND*%
%TO.N,GND*%
X43850000Y-75225000D03*
%TO.P,U3,4,Y*%
%TO.N,/MC_A*%
X43850000Y-77500000D03*
%TO.P,U3,5,VCC*%
%TO.N,+5V*%
X45750000Y-77500000D03*
%TD*%
D21*
%TO.N,GND*%
X51250000Y-74000000D03*
X47500000Y-74000000D03*
X43000000Y-74250000D03*
X49750000Y-57250000D03*
X51750000Y-57000000D03*
X53750000Y-57000000D03*
X55750000Y-57000000D03*
X53500000Y-69750000D03*
X49500000Y-69750000D03*
X45500000Y-69750000D03*
X60000000Y-80000000D03*
X40000000Y-80000000D03*
X30000000Y-80000000D03*
X40000000Y-75000000D03*
X40000000Y-50000000D03*
X35000000Y-50000000D03*
X30000000Y-50000000D03*
X30000000Y-60000000D03*
X30000000Y-65000000D03*
X30000000Y-70000000D03*
X35000000Y-70000000D03*
X35000000Y-65000000D03*
X40000000Y-65000000D03*
X40000000Y-70000000D03*
X55000000Y-70000000D03*
X60000000Y-70000000D03*
X60000000Y-65000000D03*
X60000000Y-60000000D03*
X60000000Y-55000000D03*
X55000000Y-55000000D03*
X50000000Y-55000000D03*
X50000000Y-50000000D03*
X55000000Y-50000000D03*
X45750000Y-64500000D03*
X50250000Y-64250000D03*
X53750000Y-64500000D03*
%TO.N,+5V*%
X47000000Y-60000000D03*
X53500000Y-78750000D03*
X50000000Y-78750000D03*
X45750000Y-78750000D03*
%TD*%
D22*
%TO.N,GND*%
X43000000Y-74375000D02*
X43000000Y-74250000D01*
X43850000Y-75225000D02*
X43000000Y-74375000D01*
X47787500Y-74287500D02*
X47500000Y-74000000D01*
X47787500Y-75212500D02*
X47787500Y-74287500D01*
X51537500Y-74287500D02*
X51250000Y-74000000D01*
X51537500Y-75212500D02*
X51537500Y-74287500D01*
X49800000Y-57300000D02*
X49750000Y-57250000D01*
X49800000Y-59980000D02*
X49800000Y-57300000D01*
X55920000Y-59980000D02*
X55920000Y-57170000D01*
X55750000Y-57000000D02*
X55920000Y-57170000D01*
X51840000Y-57090000D02*
X51750000Y-57000000D01*
X51840000Y-59980000D02*
X51840000Y-57090000D01*
X53880000Y-57130000D02*
X53750000Y-57000000D01*
X53880000Y-59980000D02*
X53880000Y-57130000D01*
D23*
%TO.N,/C_I*%
X53750000Y-63100000D02*
X52400000Y-63100000D01*
X52400000Y-63100000D02*
X51750000Y-63750000D01*
X51750000Y-63750000D02*
X51750000Y-67462500D01*
X51750000Y-67462500D02*
X51500000Y-67712500D01*
D22*
%TO.N,GND*%
X50250000Y-64250000D02*
X50250000Y-65900000D01*
X45537500Y-71712500D02*
X45537500Y-69787500D01*
X45537500Y-69787500D02*
X45500000Y-69750000D01*
X49537500Y-71712500D02*
X49537500Y-69787500D01*
X49537500Y-69787500D02*
X49500000Y-69750000D01*
X53537500Y-71712500D02*
X53537500Y-69787500D01*
X53537500Y-69787500D02*
X53500000Y-69750000D01*
X45750000Y-64500000D02*
X45750000Y-65900000D01*
X53750000Y-64500000D02*
X53750000Y-65900000D01*
D23*
%TO.N,/C_B*%
X49750000Y-63100000D02*
X48400000Y-63100000D01*
X47500000Y-64000000D02*
X47500000Y-67675000D01*
X48400000Y-63100000D02*
X47500000Y-64000000D01*
D22*
%TO.N,+5V*%
X48780000Y-59980000D02*
X47020000Y-59980000D01*
X47020000Y-59980000D02*
X47000000Y-60000000D01*
D23*
X45750000Y-77500000D02*
X45750000Y-78750000D01*
%TO.N,/MC_B*%
X47787500Y-77487500D02*
X47787500Y-79037500D01*
X47787500Y-79037500D02*
X48500000Y-79750000D01*
X48500000Y-79750000D02*
X49750000Y-79750000D01*
X49750000Y-79750000D02*
X51500000Y-81500000D01*
%TO.N,+5V*%
X53437500Y-78687500D02*
X53500000Y-78750000D01*
X53437500Y-77487500D02*
X53437500Y-78687500D01*
X49687500Y-78437500D02*
X50000000Y-78750000D01*
X49687500Y-77487500D02*
X49687500Y-78437500D01*
%TO.N,/MC_A*%
X43850000Y-77500000D02*
X43850000Y-78600000D01*
X43850000Y-78600000D02*
X44750000Y-79500000D01*
X47000000Y-79500000D02*
X49000000Y-81500000D01*
X44750000Y-79500000D02*
X47000000Y-79500000D01*
D22*
%TO.N,/Sin*%
X36500000Y-81500000D02*
X36500000Y-64500000D01*
X36500000Y-64500000D02*
X31390000Y-59390000D01*
X31390000Y-59390000D02*
X31390000Y-53655000D01*
%TO.N,/Cos*%
X35350000Y-53655000D02*
X35350000Y-57600000D01*
X41500000Y-63750000D02*
X41500000Y-81500000D01*
X35350000Y-57600000D02*
X41500000Y-63750000D01*
D23*
%TO.N,/MC_I*%
X51537500Y-77487500D02*
X51537500Y-79037500D01*
X51537500Y-79037500D02*
X54000000Y-81500000D01*
%TO.N,/MC_I_LP*%
X51462500Y-71712500D02*
X52487500Y-72737500D01*
X52487500Y-72737500D02*
X52487500Y-75212500D01*
X51500000Y-69787500D02*
X51500000Y-71675000D01*
X51500000Y-71675000D02*
X51462500Y-71712500D01*
%TO.N,/MC_B_LP*%
X47462500Y-71712500D02*
X48737500Y-72987500D01*
X48737500Y-72987500D02*
X48737500Y-75212500D01*
X47500000Y-69750000D02*
X47500000Y-71675000D01*
X47500000Y-71675000D02*
X47462500Y-71712500D01*
%TO.N,/MC_A_LP*%
X43462500Y-71712500D02*
X44800000Y-73050000D01*
X44800000Y-73050000D02*
X44800000Y-75225000D01*
X43500000Y-69787500D02*
X43500000Y-71675000D01*
X43500000Y-71675000D02*
X43462500Y-71712500D01*
%TO.N,/C_A*%
X45750000Y-63100000D02*
X43500000Y-65350000D01*
X43500000Y-65350000D02*
X43500000Y-67712500D01*
X50820000Y-59980000D02*
X50820000Y-61705000D01*
X50275000Y-62250000D02*
X46600000Y-62250000D01*
X46600000Y-62250000D02*
X45750000Y-63100000D01*
X50820000Y-61705000D02*
X50275000Y-62250000D01*
%TO.N,/C_B*%
X52860000Y-59980000D02*
X52860000Y-61705000D01*
X51465000Y-63100000D02*
X49750000Y-63100000D01*
X52860000Y-61705000D02*
X51465000Y-63100000D01*
%TO.N,/C_I*%
X54900000Y-59980000D02*
X54900000Y-61950000D01*
X54900000Y-61950000D02*
X53750000Y-63100000D01*
%TD*%
%TA.AperFunction,Conductor*%
%TO.N,GND*%
G36*
X61756061Y-44501097D02*
G01*
X61766635Y-44502138D01*
X61884069Y-44513704D01*
X61907897Y-44518443D01*
X62025140Y-44554008D01*
X62047589Y-44563308D01*
X62155630Y-44621057D01*
X62175840Y-44634561D01*
X62270535Y-44712274D01*
X62287725Y-44729464D01*
X62365438Y-44824159D01*
X62378942Y-44844369D01*
X62436690Y-44952407D01*
X62445993Y-44974865D01*
X62481554Y-45092093D01*
X62486296Y-45115935D01*
X62498903Y-45243938D01*
X62499500Y-45256092D01*
X62499500Y-47426331D01*
X62479815Y-47493370D01*
X62427011Y-47539125D01*
X62357854Y-47549069D01*
X62260000Y-47535000D01*
X61135000Y-47535000D01*
X61135000Y-52465000D01*
X62260002Y-52465000D01*
X62313987Y-52462106D01*
X62344831Y-52454233D01*
X62414656Y-52456726D01*
X62472050Y-52496573D01*
X62498789Y-52561123D01*
X62499500Y-52574381D01*
X62499500Y-79997293D01*
X62499382Y-80002702D01*
X62482614Y-80386750D01*
X62481671Y-80397526D01*
X62431849Y-80775957D01*
X62429971Y-80786610D01*
X62347354Y-81159272D01*
X62344554Y-81169721D01*
X62229775Y-81533755D01*
X62226075Y-81543921D01*
X62080002Y-81896572D01*
X62075430Y-81906376D01*
X61899183Y-82244942D01*
X61893775Y-82254310D01*
X61688681Y-82576244D01*
X61682476Y-82585105D01*
X61450110Y-82887930D01*
X61443156Y-82896217D01*
X61185284Y-83177635D01*
X61177635Y-83185284D01*
X60896217Y-83443156D01*
X60887930Y-83450110D01*
X60585105Y-83682476D01*
X60576244Y-83688681D01*
X60254310Y-83893775D01*
X60244942Y-83899183D01*
X59906376Y-84075430D01*
X59896572Y-84080002D01*
X59543921Y-84226075D01*
X59533755Y-84229775D01*
X59169721Y-84344554D01*
X59159272Y-84347354D01*
X58786610Y-84429971D01*
X58775957Y-84431849D01*
X58397526Y-84481671D01*
X58386750Y-84482614D01*
X58002703Y-84499382D01*
X57997294Y-84499500D01*
X33502706Y-84499500D01*
X33497297Y-84499382D01*
X33113249Y-84482614D01*
X33102473Y-84481671D01*
X32724042Y-84431849D01*
X32713389Y-84429971D01*
X32340727Y-84347354D01*
X32330278Y-84344554D01*
X31966244Y-84229775D01*
X31956078Y-84226075D01*
X31603427Y-84080002D01*
X31593623Y-84075430D01*
X31255057Y-83899183D01*
X31245689Y-83893775D01*
X30923755Y-83688681D01*
X30914894Y-83682476D01*
X30612069Y-83450110D01*
X30603782Y-83443156D01*
X30322364Y-83185284D01*
X30314715Y-83177635D01*
X30056843Y-82896217D01*
X30049889Y-82887930D01*
X29817523Y-82585105D01*
X29811318Y-82576244D01*
X29606224Y-82254310D01*
X29600816Y-82244942D01*
X29466430Y-81986789D01*
X29424566Y-81906369D01*
X29419997Y-81896572D01*
X29376540Y-81791657D01*
X29273920Y-81543911D01*
X29270224Y-81533755D01*
X29265788Y-81519685D01*
X29155442Y-81169710D01*
X29152648Y-81159284D01*
X29070025Y-80786597D01*
X29068152Y-80775971D01*
X29018326Y-80397506D01*
X29017386Y-80386771D01*
X29000618Y-80002702D01*
X29000500Y-79997293D01*
X29000500Y-56463335D01*
X29020185Y-56396296D01*
X29072989Y-56350541D01*
X29142147Y-56340597D01*
X29205703Y-56369622D01*
X29212181Y-56375654D01*
X29255346Y-56418819D01*
X29255350Y-56418822D01*
X29255354Y-56418825D01*
X29308173Y-56455418D01*
X29440374Y-56547007D01*
X29645317Y-56640096D01*
X29645321Y-56640097D01*
X29863579Y-56695094D01*
X29863581Y-56695094D01*
X29863588Y-56695096D01*
X29995783Y-56705500D01*
X30015496Y-56705499D01*
X30082535Y-56725181D01*
X30128292Y-56777982D01*
X30139500Y-56829499D01*
X30139500Y-59488422D01*
X30170290Y-59682826D01*
X30231117Y-59870030D01*
X30320476Y-60045405D01*
X30436172Y-60204646D01*
X30436174Y-60204648D01*
X35213181Y-64981655D01*
X35246666Y-65042978D01*
X35249500Y-65069336D01*
X35249500Y-72874921D01*
X35229815Y-72941960D01*
X35177011Y-72987715D01*
X35107853Y-72997659D01*
X35044297Y-72968634D01*
X35027124Y-72950407D01*
X34894266Y-72777263D01*
X34894260Y-72777256D01*
X34722743Y-72605739D01*
X34722736Y-72605733D01*
X34530293Y-72458067D01*
X34530292Y-72458066D01*
X34530289Y-72458064D01*
X34358661Y-72358974D01*
X34320214Y-72336777D01*
X34320205Y-72336773D01*
X34096104Y-72243947D01*
X33861785Y-72181161D01*
X33621289Y-72149500D01*
X33621288Y-72149500D01*
X33378712Y-72149500D01*
X33378711Y-72149500D01*
X33138214Y-72181161D01*
X32903895Y-72243947D01*
X32679794Y-72336773D01*
X32679785Y-72336777D01*
X32469706Y-72458067D01*
X32277263Y-72605733D01*
X32277256Y-72605739D01*
X32105739Y-72777256D01*
X32105733Y-72777263D01*
X31958067Y-72969706D01*
X31836777Y-73179785D01*
X31836773Y-73179794D01*
X31743947Y-73403895D01*
X31681161Y-73638214D01*
X31649500Y-73878711D01*
X31649500Y-74121288D01*
X31681161Y-74361785D01*
X31743947Y-74596104D01*
X31762746Y-74641488D01*
X31836776Y-74820212D01*
X31958064Y-75030289D01*
X31958066Y-75030292D01*
X31958067Y-75030293D01*
X32105733Y-75222736D01*
X32105739Y-75222743D01*
X32277256Y-75394260D01*
X32277262Y-75394265D01*
X32469711Y-75541936D01*
X32679788Y-75663224D01*
X32903900Y-75756054D01*
X33138211Y-75818838D01*
X33318586Y-75842584D01*
X33378711Y-75850500D01*
X33378712Y-75850500D01*
X33621289Y-75850500D01*
X33669388Y-75844167D01*
X33861789Y-75818838D01*
X34096100Y-75756054D01*
X34320212Y-75663224D01*
X34530289Y-75541936D01*
X34722738Y-75394265D01*
X34894265Y-75222738D01*
X35027124Y-75049591D01*
X35083552Y-75008389D01*
X35153298Y-75004234D01*
X35214218Y-75038446D01*
X35246971Y-75100163D01*
X35249500Y-75125078D01*
X35249500Y-79639438D01*
X35229815Y-79706477D01*
X35196117Y-79741366D01*
X35095346Y-79811180D01*
X34936179Y-79970348D01*
X34936174Y-79970354D01*
X34807997Y-80155367D01*
X34807991Y-80155377D01*
X34714903Y-80360318D01*
X34714902Y-80360321D01*
X34659905Y-80578579D01*
X34659904Y-80578586D01*
X34649500Y-80710777D01*
X34649500Y-82289208D01*
X34649501Y-82289223D01*
X34659904Y-82421413D01*
X34659905Y-82421420D01*
X34714902Y-82639678D01*
X34714903Y-82639681D01*
X34807991Y-82844622D01*
X34807997Y-82844632D01*
X34936174Y-83029645D01*
X34936178Y-83029650D01*
X34936181Y-83029654D01*
X35095346Y-83188819D01*
X35095350Y-83188822D01*
X35095354Y-83188825D01*
X35109963Y-83198946D01*
X35280374Y-83317007D01*
X35485317Y-83410096D01*
X35485321Y-83410097D01*
X35703579Y-83465094D01*
X35703581Y-83465094D01*
X35703588Y-83465096D01*
X35835783Y-83475500D01*
X37164216Y-83475499D01*
X37296412Y-83465096D01*
X37514683Y-83410096D01*
X37719626Y-83317007D01*
X37904654Y-83188819D01*
X38063819Y-83029654D01*
X38189801Y-82847809D01*
X38244159Y-82803913D01*
X38313621Y-82796374D01*
X38348024Y-82807942D01*
X38481775Y-82876092D01*
X38481779Y-82876094D01*
X38683871Y-82941757D01*
X38750000Y-82952231D01*
X38750000Y-81904145D01*
X38816657Y-81942630D01*
X38937465Y-81975000D01*
X39062535Y-81975000D01*
X39183343Y-81942630D01*
X39250000Y-81904145D01*
X39250000Y-82952230D01*
X39316126Y-82941757D01*
X39316129Y-82941757D01*
X39518217Y-82876095D01*
X39707554Y-82779622D01*
X39831924Y-82689262D01*
X39897730Y-82665782D01*
X39965784Y-82681607D01*
X40003186Y-82714094D01*
X40105733Y-82847736D01*
X40105739Y-82847743D01*
X40277256Y-83019260D01*
X40277263Y-83019266D01*
X40325485Y-83056268D01*
X40469711Y-83166936D01*
X40679788Y-83288224D01*
X40903900Y-83381054D01*
X41138211Y-83443838D01*
X41318586Y-83467584D01*
X41378711Y-83475500D01*
X41378712Y-83475500D01*
X41621289Y-83475500D01*
X41669388Y-83469167D01*
X41861789Y-83443838D01*
X42096100Y-83381054D01*
X42320212Y-83288224D01*
X42530289Y-83166936D01*
X42674516Y-83056266D01*
X42739683Y-83031074D01*
X42808127Y-83045112D01*
X42825476Y-83056261D01*
X42969711Y-83166936D01*
X43179788Y-83288224D01*
X43403900Y-83381054D01*
X43638211Y-83443838D01*
X43818586Y-83467584D01*
X43878711Y-83475500D01*
X43878712Y-83475500D01*
X44121289Y-83475500D01*
X44169388Y-83469167D01*
X44361789Y-83443838D01*
X44596100Y-83381054D01*
X44820212Y-83288224D01*
X45030289Y-83166936D01*
X45222738Y-83019265D01*
X45394265Y-82847738D01*
X45496813Y-82714093D01*
X45553240Y-82672891D01*
X45622986Y-82668736D01*
X45668074Y-82689262D01*
X45792442Y-82779620D01*
X45981782Y-82876095D01*
X46183871Y-82941757D01*
X46250000Y-82952231D01*
X46250000Y-81904145D01*
X46316657Y-81942630D01*
X46437465Y-81975000D01*
X46562535Y-81975000D01*
X46683343Y-81942630D01*
X46750000Y-81904145D01*
X46750000Y-82952230D01*
X46816126Y-82941757D01*
X46816129Y-82941757D01*
X47018217Y-82876095D01*
X47207554Y-82779622D01*
X47331924Y-82689262D01*
X47397730Y-82665782D01*
X47465784Y-82681607D01*
X47503186Y-82714094D01*
X47605733Y-82847736D01*
X47605739Y-82847743D01*
X47777256Y-83019260D01*
X47777263Y-83019266D01*
X47825485Y-83056268D01*
X47969711Y-83166936D01*
X48179788Y-83288224D01*
X48403900Y-83381054D01*
X48638211Y-83443838D01*
X48818586Y-83467584D01*
X48878711Y-83475500D01*
X48878712Y-83475500D01*
X49121289Y-83475500D01*
X49169388Y-83469167D01*
X49361789Y-83443838D01*
X49596100Y-83381054D01*
X49820212Y-83288224D01*
X50030289Y-83166936D01*
X50174516Y-83056266D01*
X50239683Y-83031074D01*
X50308127Y-83045112D01*
X50325476Y-83056261D01*
X50469711Y-83166936D01*
X50679788Y-83288224D01*
X50903900Y-83381054D01*
X51138211Y-83443838D01*
X51318586Y-83467584D01*
X51378711Y-83475500D01*
X51378712Y-83475500D01*
X51621289Y-83475500D01*
X51669388Y-83469167D01*
X51861789Y-83443838D01*
X52096100Y-83381054D01*
X52320212Y-83288224D01*
X52530289Y-83166936D01*
X52674516Y-83056266D01*
X52739683Y-83031074D01*
X52808127Y-83045112D01*
X52825476Y-83056261D01*
X52969711Y-83166936D01*
X53179788Y-83288224D01*
X53403900Y-83381054D01*
X53638211Y-83443838D01*
X53818586Y-83467584D01*
X53878711Y-83475500D01*
X53878712Y-83475500D01*
X54121289Y-83475500D01*
X54169388Y-83469167D01*
X54361789Y-83443838D01*
X54596100Y-83381054D01*
X54820212Y-83288224D01*
X55030289Y-83166936D01*
X55222738Y-83019265D01*
X55394265Y-82847738D01*
X55541936Y-82655289D01*
X55663224Y-82445212D01*
X55756054Y-82221100D01*
X55818838Y-81986789D01*
X55850500Y-81746288D01*
X55850500Y-81253712D01*
X55818838Y-81013211D01*
X55756054Y-80778900D01*
X55663224Y-80554788D01*
X55541936Y-80344711D01*
X55434697Y-80204954D01*
X55394266Y-80152263D01*
X55394260Y-80152256D01*
X55222743Y-79980739D01*
X55222736Y-79980733D01*
X55030293Y-79833067D01*
X55030292Y-79833066D01*
X55030289Y-79833064D01*
X54820212Y-79711776D01*
X54820205Y-79711773D01*
X54648202Y-79640527D01*
X54593799Y-79596686D01*
X54571734Y-79530392D01*
X54589013Y-79462693D01*
X54594070Y-79454858D01*
X54630568Y-79402734D01*
X54726739Y-79196496D01*
X54785635Y-78976692D01*
X54805468Y-78750000D01*
X54800474Y-78692924D01*
X54785635Y-78523313D01*
X54785635Y-78523308D01*
X54726739Y-78303504D01*
X54725809Y-78301510D01*
X54725663Y-78300551D01*
X54724889Y-78298423D01*
X54725316Y-78298267D01*
X54715313Y-78232437D01*
X54717476Y-78220738D01*
X54731849Y-78159630D01*
X54738000Y-78071012D01*
X54738000Y-76903988D01*
X54731849Y-76815370D01*
X54731847Y-76815364D01*
X54731847Y-76815359D01*
X54683034Y-76607823D01*
X54683032Y-76607817D01*
X54683032Y-76607815D01*
X54596909Y-76412763D01*
X54596903Y-76412755D01*
X54595563Y-76410348D01*
X54595269Y-76409050D01*
X54594593Y-76407519D01*
X54594892Y-76407386D01*
X54580132Y-76342204D01*
X54594716Y-76292535D01*
X54594593Y-76292481D01*
X54595008Y-76291539D01*
X54595563Y-76289652D01*
X54596900Y-76287249D01*
X54596909Y-76287237D01*
X54683032Y-76092185D01*
X54712807Y-75965591D01*
X54731847Y-75884640D01*
X54731847Y-75884636D01*
X54731849Y-75884630D01*
X54738000Y-75796012D01*
X54738000Y-74628988D01*
X54736815Y-74611922D01*
X54735266Y-74589602D01*
X54731849Y-74540370D01*
X54731847Y-74540364D01*
X54731847Y-74540359D01*
X54683034Y-74332823D01*
X54683032Y-74332817D01*
X54683032Y-74332815D01*
X54596909Y-74137763D01*
X54476411Y-73961858D01*
X54476406Y-73961852D01*
X54393265Y-73878711D01*
X56149500Y-73878711D01*
X56149500Y-74121288D01*
X56181161Y-74361785D01*
X56243947Y-74596104D01*
X56262746Y-74641488D01*
X56336776Y-74820212D01*
X56458064Y-75030289D01*
X56458066Y-75030292D01*
X56458067Y-75030293D01*
X56605733Y-75222736D01*
X56605739Y-75222743D01*
X56777256Y-75394260D01*
X56777262Y-75394265D01*
X56969711Y-75541936D01*
X57179788Y-75663224D01*
X57403900Y-75756054D01*
X57638211Y-75818838D01*
X57818586Y-75842584D01*
X57878711Y-75850500D01*
X57878712Y-75850500D01*
X58121289Y-75850500D01*
X58169388Y-75844167D01*
X58361789Y-75818838D01*
X58596100Y-75756054D01*
X58820212Y-75663224D01*
X59030289Y-75541936D01*
X59222738Y-75394265D01*
X59394265Y-75222738D01*
X59541936Y-75030289D01*
X59663224Y-74820212D01*
X59756054Y-74596100D01*
X59818838Y-74361789D01*
X59850500Y-74121288D01*
X59850500Y-73878712D01*
X59818838Y-73638211D01*
X59756054Y-73403900D01*
X59663224Y-73179788D01*
X59541936Y-72969711D01*
X59466849Y-72871856D01*
X59394266Y-72777263D01*
X59394260Y-72777256D01*
X59222743Y-72605739D01*
X59222736Y-72605733D01*
X59030293Y-72458067D01*
X59030292Y-72458066D01*
X59030289Y-72458064D01*
X58858661Y-72358974D01*
X58820214Y-72336777D01*
X58820205Y-72336773D01*
X58596104Y-72243947D01*
X58361785Y-72181161D01*
X58121289Y-72149500D01*
X58121288Y-72149500D01*
X57878712Y-72149500D01*
X57878711Y-72149500D01*
X57638214Y-72181161D01*
X57403895Y-72243947D01*
X57179794Y-72336773D01*
X57179785Y-72336777D01*
X56969706Y-72458067D01*
X56777263Y-72605733D01*
X56777256Y-72605739D01*
X56605739Y-72777256D01*
X56605733Y-72777263D01*
X56458067Y-72969706D01*
X56336777Y-73179785D01*
X56336773Y-73179794D01*
X56243947Y-73403895D01*
X56181161Y-73638214D01*
X56149500Y-73878711D01*
X54393265Y-73878711D01*
X54325647Y-73811093D01*
X54325641Y-73811088D01*
X54167986Y-73703092D01*
X54149737Y-73690591D01*
X53954685Y-73604468D01*
X53954683Y-73604467D01*
X53954682Y-73604467D01*
X53954676Y-73604465D01*
X53747140Y-73555652D01*
X53747125Y-73555650D01*
X53703413Y-73552616D01*
X53637898Y-73528336D01*
X53595909Y-73472491D01*
X53588000Y-73428914D01*
X53588000Y-73061499D01*
X53607685Y-72994460D01*
X53660489Y-72948705D01*
X53712000Y-72937499D01*
X53924972Y-72937499D01*
X53924986Y-72937498D01*
X54027697Y-72927005D01*
X54194119Y-72871858D01*
X54194124Y-72871856D01*
X54343345Y-72779815D01*
X54467315Y-72655845D01*
X54559356Y-72506624D01*
X54559358Y-72506619D01*
X54614505Y-72340197D01*
X54614506Y-72340190D01*
X54624999Y-72237486D01*
X54625000Y-72237473D01*
X54625000Y-71962500D01*
X53661500Y-71962500D01*
X53594461Y-71942815D01*
X53548706Y-71890011D01*
X53537500Y-71838500D01*
X53537500Y-71712500D01*
X53411500Y-71712500D01*
X53344461Y-71692815D01*
X53298706Y-71640011D01*
X53287500Y-71588500D01*
X53287500Y-71462500D01*
X53787500Y-71462500D01*
X54624999Y-71462500D01*
X54624999Y-71187528D01*
X54624998Y-71187513D01*
X54614505Y-71084802D01*
X54559358Y-70918380D01*
X54559356Y-70918375D01*
X54467315Y-70769154D01*
X54343345Y-70645184D01*
X54194124Y-70553143D01*
X54194119Y-70553141D01*
X54027697Y-70497994D01*
X54027690Y-70497993D01*
X53924986Y-70487500D01*
X53787500Y-70487500D01*
X53787500Y-71462500D01*
X53287500Y-71462500D01*
X53287500Y-70487500D01*
X53268848Y-70468848D01*
X53265328Y-70467815D01*
X53219573Y-70415011D01*
X53209629Y-70345853D01*
X53212125Y-70333202D01*
X53212126Y-70333200D01*
X53215096Y-70321412D01*
X53225500Y-70189217D01*
X53225499Y-69385784D01*
X53215096Y-69253588D01*
X53205644Y-69216079D01*
X53160097Y-69035321D01*
X53160096Y-69035318D01*
X53143064Y-68997821D01*
X53067007Y-68830374D01*
X53060247Y-68820616D01*
X53038249Y-68754303D01*
X53055595Y-68686621D01*
X53060239Y-68679393D01*
X53067007Y-68669626D01*
X53160096Y-68464683D01*
X53215096Y-68246412D01*
X53225500Y-68114217D01*
X53225499Y-67310784D01*
X53215096Y-67178588D01*
X53205647Y-67141088D01*
X53194340Y-67096214D01*
X53197047Y-67026397D01*
X53237071Y-66969127D01*
X53301703Y-66942587D01*
X53327185Y-66942558D01*
X53400020Y-66949999D01*
X54000000Y-66949999D01*
X54099972Y-66949999D01*
X54099986Y-66949998D01*
X54202697Y-66939505D01*
X54369119Y-66884358D01*
X54369124Y-66884356D01*
X54518345Y-66792315D01*
X54642315Y-66668345D01*
X54734356Y-66519124D01*
X54734358Y-66519119D01*
X54789505Y-66352697D01*
X54789506Y-66352690D01*
X54799999Y-66249986D01*
X54800000Y-66249973D01*
X54800000Y-66150000D01*
X54000000Y-66150000D01*
X54000000Y-66949999D01*
X53400020Y-66949999D01*
X53500000Y-66949998D01*
X53500000Y-66024000D01*
X53519685Y-65956961D01*
X53572489Y-65911206D01*
X53624000Y-65900000D01*
X53750000Y-65900000D01*
X53750000Y-65774000D01*
X53769685Y-65706961D01*
X53822489Y-65661206D01*
X53874000Y-65650000D01*
X54799999Y-65650000D01*
X54799999Y-65550028D01*
X54799998Y-65550013D01*
X54789505Y-65447302D01*
X54734358Y-65280880D01*
X54734356Y-65280875D01*
X54642315Y-65131654D01*
X54518345Y-65007684D01*
X54369124Y-64915643D01*
X54369119Y-64915641D01*
X54247902Y-64875474D01*
X54190457Y-64835701D01*
X54163634Y-64771186D01*
X54175949Y-64702410D01*
X54223492Y-64651210D01*
X54256602Y-64637528D01*
X54464683Y-64585096D01*
X54669626Y-64492007D01*
X54854654Y-64363819D01*
X55013819Y-64204654D01*
X55142007Y-64019626D01*
X55235096Y-63814683D01*
X55290096Y-63596412D01*
X55300500Y-63464217D01*
X55300499Y-63157203D01*
X55320183Y-63090165D01*
X55336813Y-63069528D01*
X55739415Y-62666928D01*
X55798384Y-62585762D01*
X55798386Y-62585760D01*
X55841229Y-62526792D01*
X55841228Y-62526792D01*
X55841232Y-62526788D01*
X55919873Y-62372445D01*
X55923241Y-62362079D01*
X55931518Y-62336609D01*
X55952460Y-62272155D01*
X55973403Y-62207701D01*
X55976069Y-62190864D01*
X55980329Y-62163971D01*
X56006700Y-62105007D01*
X56048672Y-62053533D01*
X56050208Y-62054785D01*
X56096464Y-62015624D01*
X56146681Y-62005000D01*
X56272828Y-62005000D01*
X56272844Y-62004999D01*
X56332372Y-61998598D01*
X56332379Y-61998596D01*
X56467086Y-61948354D01*
X56467093Y-61948350D01*
X56582187Y-61862190D01*
X56582190Y-61862187D01*
X56668350Y-61747093D01*
X56668354Y-61747086D01*
X56718596Y-61612379D01*
X56718598Y-61612372D01*
X56724999Y-61552844D01*
X56725000Y-61552827D01*
X56725000Y-60230000D01*
X56329500Y-60230000D01*
X56262461Y-60210315D01*
X56216706Y-60157511D01*
X56205500Y-60106000D01*
X56205499Y-59854000D01*
X56225183Y-59786961D01*
X56277987Y-59741206D01*
X56329499Y-59730000D01*
X56725000Y-59730000D01*
X56725000Y-58407172D01*
X56724999Y-58407155D01*
X56718598Y-58347627D01*
X56718596Y-58347620D01*
X56668354Y-58212913D01*
X56668350Y-58212906D01*
X56582190Y-58097812D01*
X56582187Y-58097809D01*
X56467093Y-58011649D01*
X56467086Y-58011645D01*
X56332379Y-57961403D01*
X56332372Y-57961401D01*
X56272844Y-57955000D01*
X56146681Y-57955000D01*
X56079642Y-57935315D01*
X56049652Y-57905667D01*
X56048672Y-57906467D01*
X56044695Y-57901590D01*
X56020285Y-57871653D01*
X55916109Y-57743890D01*
X55800933Y-57649977D01*
X55758407Y-57615302D01*
X55578049Y-57521091D01*
X55578048Y-57521090D01*
X55578045Y-57521089D01*
X55460829Y-57487550D01*
X55382418Y-57465114D01*
X55382415Y-57465113D01*
X55382413Y-57465113D01*
X55316102Y-57459217D01*
X55263037Y-57454500D01*
X55263032Y-57454500D01*
X54536971Y-57454500D01*
X54536965Y-57454500D01*
X54536964Y-57454501D01*
X54525316Y-57455536D01*
X54417584Y-57465113D01*
X54221954Y-57521089D01*
X54041587Y-57615305D01*
X53958360Y-57683168D01*
X53893964Y-57710277D01*
X53825134Y-57698267D01*
X53801640Y-57683168D01*
X53718412Y-57615305D01*
X53718408Y-57615303D01*
X53718407Y-57615302D01*
X53538049Y-57521091D01*
X53538048Y-57521090D01*
X53538045Y-57521089D01*
X53420829Y-57487550D01*
X53342418Y-57465114D01*
X53342415Y-57465113D01*
X53342413Y-57465113D01*
X53276102Y-57459217D01*
X53223037Y-57454500D01*
X53223032Y-57454500D01*
X52496971Y-57454500D01*
X52496965Y-57454500D01*
X52496964Y-57454501D01*
X52485316Y-57455536D01*
X52377584Y-57465113D01*
X52181954Y-57521089D01*
X52001587Y-57615305D01*
X51918360Y-57683168D01*
X51853964Y-57710277D01*
X51785134Y-57698267D01*
X51761640Y-57683168D01*
X51678412Y-57615305D01*
X51678408Y-57615303D01*
X51678407Y-57615302D01*
X51498049Y-57521091D01*
X51498048Y-57521090D01*
X51498045Y-57521089D01*
X51380829Y-57487550D01*
X51302418Y-57465114D01*
X51302415Y-57465113D01*
X51302413Y-57465113D01*
X51236102Y-57459217D01*
X51183037Y-57454500D01*
X51183032Y-57454500D01*
X50456971Y-57454500D01*
X50456965Y-57454500D01*
X50456964Y-57454501D01*
X50445316Y-57455536D01*
X50337584Y-57465113D01*
X50141954Y-57521089D01*
X49961587Y-57615305D01*
X49878360Y-57683168D01*
X49813964Y-57710277D01*
X49745134Y-57698267D01*
X49721640Y-57683168D01*
X49638412Y-57615305D01*
X49638408Y-57615303D01*
X49638407Y-57615302D01*
X49458049Y-57521091D01*
X49458048Y-57521090D01*
X49458045Y-57521089D01*
X49340829Y-57487550D01*
X49262418Y-57465114D01*
X49262415Y-57465113D01*
X49262413Y-57465113D01*
X49196102Y-57459217D01*
X49143037Y-57454500D01*
X49143032Y-57454500D01*
X48416971Y-57454500D01*
X48416965Y-57454500D01*
X48416964Y-57454501D01*
X48405316Y-57455536D01*
X48297584Y-57465113D01*
X48101954Y-57521089D01*
X48011772Y-57568196D01*
X47921593Y-57615302D01*
X47921591Y-57615303D01*
X47921590Y-57615304D01*
X47763890Y-57743890D01*
X47635304Y-57901590D01*
X47541089Y-58081954D01*
X47485114Y-58277583D01*
X47485113Y-58277586D01*
X47474500Y-58396966D01*
X47474500Y-58605500D01*
X47454815Y-58672539D01*
X47402011Y-58718294D01*
X47350500Y-58729500D01*
X47299502Y-58729500D01*
X47267409Y-58725275D01*
X47226697Y-58714366D01*
X47226693Y-58714365D01*
X47226692Y-58714365D01*
X47226691Y-58714364D01*
X47226686Y-58714364D01*
X47000002Y-58694532D01*
X46999998Y-58694532D01*
X46773313Y-58714364D01*
X46773302Y-58714366D01*
X46553511Y-58773258D01*
X46553502Y-58773261D01*
X46347267Y-58869431D01*
X46347265Y-58869432D01*
X46160858Y-58999954D01*
X45999954Y-59160858D01*
X45869432Y-59347265D01*
X45869431Y-59347267D01*
X45773261Y-59553502D01*
X45773258Y-59553511D01*
X45714366Y-59773302D01*
X45714364Y-59773313D01*
X45694532Y-59999998D01*
X45694532Y-60000001D01*
X45714364Y-60226686D01*
X45714366Y-60226697D01*
X45773258Y-60446488D01*
X45773261Y-60446497D01*
X45869431Y-60652732D01*
X45869432Y-60652734D01*
X45999954Y-60839141D01*
X46160857Y-61000044D01*
X46160860Y-61000046D01*
X46160861Y-61000047D01*
X46189032Y-61019772D01*
X46232658Y-61074348D01*
X46239852Y-61143847D01*
X46208330Y-61206202D01*
X46174205Y-61231833D01*
X46023211Y-61308768D01*
X45934513Y-61373212D01*
X45934512Y-61373212D01*
X45883074Y-61410583D01*
X45780475Y-61513182D01*
X45719152Y-61546666D01*
X45692794Y-61549500D01*
X45385791Y-61549500D01*
X45385776Y-61549501D01*
X45253586Y-61559904D01*
X45253579Y-61559905D01*
X45035321Y-61614902D01*
X45035318Y-61614903D01*
X44830377Y-61707991D01*
X44830367Y-61707997D01*
X44645354Y-61836174D01*
X44645342Y-61836184D01*
X44486184Y-61995342D01*
X44486174Y-61995354D01*
X44357997Y-62180367D01*
X44357991Y-62180377D01*
X44264903Y-62385318D01*
X44264902Y-62385321D01*
X44209905Y-62603579D01*
X44209904Y-62603586D01*
X44199500Y-62735777D01*
X44199500Y-63042795D01*
X44179815Y-63109834D01*
X44163181Y-63130476D01*
X42962181Y-64331476D01*
X42900858Y-64364961D01*
X42831166Y-64359977D01*
X42775233Y-64318105D01*
X42750816Y-64252641D01*
X42750500Y-64243795D01*
X42750500Y-63651578D01*
X42725272Y-63492302D01*
X42725272Y-63492298D01*
X42720825Y-63464222D01*
X42719709Y-63457173D01*
X42677593Y-63327555D01*
X42658884Y-63269975D01*
X42658882Y-63269972D01*
X42658882Y-63269970D01*
X42587806Y-63130476D01*
X42569524Y-63094595D01*
X42453828Y-62935354D01*
X42314646Y-62796172D01*
X36636819Y-57118345D01*
X36603334Y-57057022D01*
X36600500Y-57030664D01*
X36600500Y-56455418D01*
X36620185Y-56388379D01*
X36658526Y-56350425D01*
X36845614Y-56232871D01*
X37072217Y-56052161D01*
X37277161Y-55847217D01*
X37457871Y-55620614D01*
X37533192Y-55500740D01*
X37585525Y-55454450D01*
X37654578Y-55443801D01*
X37718427Y-55472176D01*
X37736561Y-55491227D01*
X37742821Y-55499385D01*
X37742826Y-55499391D01*
X37935609Y-55692174D01*
X37935617Y-55692181D01*
X38151933Y-55858168D01*
X38388062Y-55994496D01*
X38388072Y-55994500D01*
X38639970Y-56098840D01*
X38903344Y-56169411D01*
X39060000Y-56190034D01*
X39060000Y-54471480D01*
X39062064Y-54472335D01*
X39226282Y-54505000D01*
X39393718Y-54505000D01*
X39557936Y-54472335D01*
X39560000Y-54471480D01*
X39560000Y-56190033D01*
X39716655Y-56169411D01*
X39980029Y-56098840D01*
X40231927Y-55994500D01*
X40231937Y-55994496D01*
X40468066Y-55858168D01*
X40684382Y-55692181D01*
X40684391Y-55692174D01*
X40877174Y-55499391D01*
X40877181Y-55499382D01*
X41043168Y-55283066D01*
X41179496Y-55046937D01*
X41179500Y-55046927D01*
X41283840Y-54795029D01*
X41354411Y-54531655D01*
X41390000Y-54261330D01*
X41390000Y-53905000D01*
X40126480Y-53905000D01*
X40127335Y-53902936D01*
X40160000Y-53738718D01*
X40160000Y-53571282D01*
X40127335Y-53407064D01*
X40126480Y-53405000D01*
X41390000Y-53405000D01*
X41390000Y-53048669D01*
X41354411Y-52778344D01*
X41283840Y-52514970D01*
X41179500Y-52263072D01*
X41179496Y-52263062D01*
X41043168Y-52026933D01*
X40984136Y-51950002D01*
X41925000Y-51950002D01*
X41927893Y-52003988D01*
X41963442Y-52143259D01*
X41966371Y-52150330D01*
X42018106Y-52245076D01*
X42116049Y-52350277D01*
X42116051Y-52350278D01*
X42239672Y-52423629D01*
X42246732Y-52426554D01*
X42297728Y-52444544D01*
X42440001Y-52464999D01*
X42440003Y-52465000D01*
X43565000Y-52465000D01*
X43815000Y-52465000D01*
X44940002Y-52465000D01*
X44993988Y-52462106D01*
X45133259Y-52426557D01*
X45140330Y-52423628D01*
X45235076Y-52371893D01*
X45340277Y-52273950D01*
X45340278Y-52273948D01*
X45413629Y-52150327D01*
X45416554Y-52143267D01*
X45434544Y-52092271D01*
X45434544Y-52092270D01*
X45452905Y-51964564D01*
X45481929Y-51901008D01*
X45540707Y-51863233D01*
X45607737Y-51862436D01*
X45628435Y-51867982D01*
X45875435Y-51900500D01*
X45875442Y-51900500D01*
X46124558Y-51900500D01*
X46124565Y-51900500D01*
X46371565Y-51867982D01*
X46612207Y-51803502D01*
X46842373Y-51708164D01*
X47058127Y-51583599D01*
X47255776Y-51431938D01*
X47431938Y-51255776D01*
X47583599Y-51058127D01*
X47708164Y-50842373D01*
X47803502Y-50612207D01*
X47867982Y-50371565D01*
X47900500Y-50124565D01*
X47900500Y-49875441D01*
X56799500Y-49875441D01*
X56799500Y-50124558D01*
X56799501Y-50124575D01*
X56832017Y-50371561D01*
X56896498Y-50612207D01*
X56991830Y-50842361D01*
X56991837Y-50842376D01*
X57116400Y-51058126D01*
X57268060Y-51255774D01*
X57268066Y-51255781D01*
X57444218Y-51431933D01*
X57444225Y-51431939D01*
X57641873Y-51583599D01*
X57857623Y-51708162D01*
X57857638Y-51708169D01*
X57956825Y-51749253D01*
X58087793Y-51803502D01*
X58328435Y-51867982D01*
X58575435Y-51900500D01*
X58575442Y-51900500D01*
X58824558Y-51900500D01*
X58824565Y-51900500D01*
X59071565Y-51867982D01*
X59090482Y-51862913D01*
X59160330Y-51864576D01*
X59218192Y-51903738D01*
X59245697Y-51967966D01*
X59246396Y-51976049D01*
X59247893Y-52003988D01*
X59283442Y-52143259D01*
X59286371Y-52150330D01*
X59338106Y-52245076D01*
X59436049Y-52350277D01*
X59436051Y-52350278D01*
X59559672Y-52423629D01*
X59566732Y-52426554D01*
X59617728Y-52444544D01*
X59760001Y-52464999D01*
X59760003Y-52465000D01*
X60885000Y-52465000D01*
X60885000Y-47535000D01*
X59759998Y-47535000D01*
X59706011Y-47537893D01*
X59566740Y-47573442D01*
X59559669Y-47576371D01*
X59464923Y-47628106D01*
X59359722Y-47726049D01*
X59359721Y-47726051D01*
X59286370Y-47849672D01*
X59283445Y-47856732D01*
X59265455Y-47907728D01*
X59247094Y-48035435D01*
X59218069Y-48098991D01*
X59159291Y-48136765D01*
X59092265Y-48137564D01*
X59071569Y-48132019D01*
X59071561Y-48132017D01*
X58824575Y-48099501D01*
X58824570Y-48099500D01*
X58824565Y-48099500D01*
X58575435Y-48099500D01*
X58575429Y-48099500D01*
X58575424Y-48099501D01*
X58328438Y-48132017D01*
X58087792Y-48196498D01*
X57857638Y-48291830D01*
X57857623Y-48291837D01*
X57641873Y-48416400D01*
X57444225Y-48568060D01*
X57444218Y-48568066D01*
X57268066Y-48744218D01*
X57268060Y-48744225D01*
X57116400Y-48941873D01*
X56991837Y-49157623D01*
X56991830Y-49157638D01*
X56896498Y-49387792D01*
X56832017Y-49628438D01*
X56799501Y-49875424D01*
X56799500Y-49875441D01*
X47900500Y-49875441D01*
X47900500Y-49875435D01*
X47867982Y-49628435D01*
X47803502Y-49387793D01*
X47708164Y-49157627D01*
X47583599Y-48941873D01*
X47431938Y-48744224D01*
X47431933Y-48744218D01*
X47255781Y-48568066D01*
X47255774Y-48568060D01*
X47058126Y-48416400D01*
X46842376Y-48291837D01*
X46842361Y-48291830D01*
X46612207Y-48196498D01*
X46371580Y-48132022D01*
X46371565Y-48132018D01*
X46371564Y-48132017D01*
X46371561Y-48132017D01*
X46124575Y-48099501D01*
X46124570Y-48099500D01*
X46124565Y-48099500D01*
X45875435Y-48099500D01*
X45875429Y-48099500D01*
X45875424Y-48099501D01*
X45628438Y-48132017D01*
X45628416Y-48132022D01*
X45609516Y-48137086D01*
X45539667Y-48135422D01*
X45481805Y-48096259D01*
X45454302Y-48032030D01*
X45453603Y-48023946D01*
X45452106Y-47996011D01*
X45416557Y-47856740D01*
X45413628Y-47849669D01*
X45361893Y-47754923D01*
X45263950Y-47649722D01*
X45263948Y-47649721D01*
X45140327Y-47576370D01*
X45133267Y-47573445D01*
X45082271Y-47555455D01*
X44939998Y-47535000D01*
X43815000Y-47535000D01*
X43815000Y-52465000D01*
X43565000Y-52465000D01*
X43565000Y-50125000D01*
X41925000Y-50125000D01*
X41925000Y-51950002D01*
X40984136Y-51950002D01*
X40877181Y-51810617D01*
X40877174Y-51810609D01*
X40684391Y-51617826D01*
X40684382Y-51617818D01*
X40468066Y-51451831D01*
X40231937Y-51315503D01*
X40231927Y-51315499D01*
X39980029Y-51211159D01*
X39716655Y-51140588D01*
X39560000Y-51119963D01*
X39560000Y-52838519D01*
X39557936Y-52837665D01*
X39393718Y-52805000D01*
X39226282Y-52805000D01*
X39062064Y-52837665D01*
X39060000Y-52838519D01*
X39060000Y-51119963D01*
X39059999Y-51119963D01*
X38903344Y-51140588D01*
X38639970Y-51211159D01*
X38388072Y-51315499D01*
X38388062Y-51315503D01*
X38151933Y-51451831D01*
X37935617Y-51617818D01*
X37935609Y-51617825D01*
X37742823Y-51810612D01*
X37742815Y-51810622D01*
X37736555Y-51818779D01*
X37680124Y-51859977D01*
X37610377Y-51864127D01*
X37549460Y-51829910D01*
X37533191Y-51809257D01*
X37469673Y-51708169D01*
X37457871Y-51689386D01*
X37277161Y-51462783D01*
X37072217Y-51257839D01*
X37069636Y-51255781D01*
X36899326Y-51119963D01*
X36845614Y-51077129D01*
X36600203Y-50922927D01*
X36600200Y-50922925D01*
X36339072Y-50797172D01*
X36065501Y-50701446D01*
X36065499Y-50701445D01*
X35847425Y-50651671D01*
X35782931Y-50636951D01*
X35782928Y-50636950D01*
X35782916Y-50636948D01*
X35494924Y-50604500D01*
X35494918Y-50604500D01*
X35205082Y-50604500D01*
X35205075Y-50604500D01*
X34917083Y-50636948D01*
X34917069Y-50636951D01*
X34634500Y-50701445D01*
X34634498Y-50701446D01*
X34360927Y-50797172D01*
X34099799Y-50922925D01*
X33851440Y-51078980D01*
X33850941Y-51078187D01*
X33788665Y-51099616D01*
X33720794Y-51083022D01*
X33688779Y-51053467D01*
X33687392Y-51054626D01*
X33683822Y-51050350D01*
X33683819Y-51050346D01*
X33524654Y-50891181D01*
X33524650Y-50891178D01*
X33524645Y-50891174D01*
X33339632Y-50762997D01*
X33339630Y-50762995D01*
X33339626Y-50762993D01*
X33204125Y-50701446D01*
X33134681Y-50669903D01*
X33134678Y-50669902D01*
X32916420Y-50614905D01*
X32916413Y-50614904D01*
X32872347Y-50611436D01*
X32784217Y-50604500D01*
X32784215Y-50604500D01*
X29995791Y-50604500D01*
X29995776Y-50604501D01*
X29863586Y-50614904D01*
X29863579Y-50614905D01*
X29645321Y-50669902D01*
X29645318Y-50669903D01*
X29440377Y-50762991D01*
X29440367Y-50762997D01*
X29255354Y-50891174D01*
X29255342Y-50891184D01*
X29212181Y-50934346D01*
X29150858Y-50967831D01*
X29081166Y-50962847D01*
X29025233Y-50920975D01*
X29000816Y-50855511D01*
X29000500Y-50846665D01*
X29000500Y-48050001D01*
X41925000Y-48050001D01*
X41925000Y-49875000D01*
X43565000Y-49875000D01*
X43565000Y-47535000D01*
X42439998Y-47535000D01*
X42386011Y-47537893D01*
X42246740Y-47573442D01*
X42239669Y-47576371D01*
X42144923Y-47628106D01*
X42039722Y-47726049D01*
X42039721Y-47726051D01*
X41966370Y-47849672D01*
X41963445Y-47856732D01*
X41945455Y-47907728D01*
X41925000Y-48050001D01*
X29000500Y-48050001D01*
X29000500Y-45256092D01*
X29001097Y-45243939D01*
X29002015Y-45234614D01*
X29013704Y-45115928D01*
X29018442Y-45092104D01*
X29054010Y-44974855D01*
X29063306Y-44952413D01*
X29121061Y-44844363D01*
X29134556Y-44824165D01*
X29212279Y-44729458D01*
X29229458Y-44712279D01*
X29324165Y-44634556D01*
X29344363Y-44621061D01*
X29452413Y-44563306D01*
X29474855Y-44554010D01*
X29592104Y-44518442D01*
X29615928Y-44513704D01*
X29734614Y-44502015D01*
X29743939Y-44501097D01*
X29756092Y-44500500D01*
X29815892Y-44500500D01*
X61684108Y-44500500D01*
X61743908Y-44500500D01*
X61756061Y-44501097D01*
G37*
%TD.AperFunction*%
%TA.AperFunction,Conductor*%
G36*
X33851079Y-56231593D02*
G01*
X33851440Y-56231020D01*
X33854386Y-56232871D01*
X34041473Y-56350425D01*
X34087763Y-56402758D01*
X34099500Y-56455418D01*
X34099500Y-57698422D01*
X34130290Y-57892826D01*
X34191117Y-58080030D01*
X34258825Y-58212913D01*
X34280476Y-58255405D01*
X34396172Y-58414646D01*
X34396174Y-58414648D01*
X40213181Y-64231655D01*
X40246666Y-64292978D01*
X40249500Y-64319336D01*
X40249500Y-79957134D01*
X40229815Y-80024173D01*
X40213181Y-80044815D01*
X40105739Y-80152256D01*
X40003186Y-80285906D01*
X39946758Y-80327108D01*
X39877012Y-80331263D01*
X39831925Y-80310737D01*
X39707557Y-80220379D01*
X39518215Y-80123903D01*
X39316124Y-80058241D01*
X39250000Y-80047768D01*
X39250000Y-81095854D01*
X39183343Y-81057370D01*
X39062535Y-81025000D01*
X38937465Y-81025000D01*
X38816657Y-81057370D01*
X38750000Y-81095854D01*
X38750000Y-80047768D01*
X38749999Y-80047768D01*
X38683875Y-80058241D01*
X38481784Y-80123903D01*
X38348024Y-80192058D01*
X38279355Y-80204954D01*
X38214614Y-80178678D01*
X38189801Y-80152189D01*
X38063825Y-79970354D01*
X38063820Y-79970348D01*
X38063819Y-79970346D01*
X37904654Y-79811181D01*
X37803883Y-79741366D01*
X37759987Y-79687007D01*
X37750500Y-79639438D01*
X37750500Y-64401577D01*
X37719710Y-64207178D01*
X37719710Y-64207177D01*
X37718891Y-64204658D01*
X37718887Y-64204645D01*
X37680535Y-64086610D01*
X37658885Y-64019977D01*
X37658883Y-64019974D01*
X37569523Y-63844594D01*
X37453828Y-63685354D01*
X37314646Y-63546172D01*
X32676819Y-58908345D01*
X32643334Y-58847022D01*
X32640500Y-58820664D01*
X32640500Y-56829499D01*
X32660185Y-56762460D01*
X32712989Y-56716705D01*
X32764500Y-56705499D01*
X32784208Y-56705499D01*
X32784216Y-56705499D01*
X32916412Y-56695096D01*
X33134683Y-56640096D01*
X33339626Y-56547007D01*
X33524654Y-56418819D01*
X33683819Y-56259654D01*
X33687388Y-56255379D01*
X33689315Y-56256988D01*
X33735349Y-56219769D01*
X33804806Y-56212188D01*
X33851079Y-56231593D01*
G37*
%TD.AperFunction*%
%TA.AperFunction,Conductor*%
G36*
X42904777Y-73421596D02*
G01*
X42928588Y-73427596D01*
X43060783Y-73438000D01*
X43575500Y-73437999D01*
X43642539Y-73457683D01*
X43688294Y-73510487D01*
X43699500Y-73561999D01*
X43699500Y-73943368D01*
X43679815Y-74010407D01*
X43627011Y-74056162D01*
X43603564Y-74063532D01*
X43603593Y-74063632D01*
X43599054Y-74064950D01*
X43597787Y-74065349D01*
X43597506Y-74065400D01*
X43439806Y-74111216D01*
X43439803Y-74111217D01*
X43298447Y-74194814D01*
X43298438Y-74194821D01*
X43182321Y-74310938D01*
X43182314Y-74310947D01*
X43098717Y-74452303D01*
X43098716Y-74452306D01*
X43052900Y-74610004D01*
X43052899Y-74610010D01*
X43050000Y-74646850D01*
X43050000Y-74975000D01*
X43375500Y-74975000D01*
X43442539Y-74994685D01*
X43488294Y-75047489D01*
X43499500Y-75099000D01*
X43499500Y-75351000D01*
X43479815Y-75418039D01*
X43427011Y-75463794D01*
X43375500Y-75475000D01*
X43050000Y-75475000D01*
X43050000Y-75803149D01*
X43052899Y-75839989D01*
X43052900Y-75839995D01*
X43075410Y-75917473D01*
X43075211Y-75987343D01*
X43037269Y-76046013D01*
X43026412Y-76054367D01*
X42961860Y-76098586D01*
X42957448Y-76102251D01*
X42956647Y-76101286D01*
X42900858Y-76131750D01*
X42831166Y-76126766D01*
X42775233Y-76084894D01*
X42750816Y-76019430D01*
X42750500Y-76010584D01*
X42750500Y-73541842D01*
X42770185Y-73474803D01*
X42822989Y-73429048D01*
X42892147Y-73419104D01*
X42904777Y-73421596D01*
G37*
%TD.AperFunction*%
%TA.AperFunction,Conductor*%
G36*
X46034674Y-72928650D02*
G01*
X46093483Y-72933048D01*
X46149281Y-72975100D01*
X46151702Y-72978472D01*
X46161181Y-72992154D01*
X46320346Y-73151319D01*
X46320350Y-73151322D01*
X46320354Y-73151325D01*
X46361434Y-73179785D01*
X46505374Y-73279507D01*
X46710317Y-73372596D01*
X46710321Y-73372597D01*
X46928579Y-73427594D01*
X46928581Y-73427594D01*
X46928588Y-73427596D01*
X47060783Y-73438000D01*
X47513000Y-73437999D01*
X47580039Y-73457683D01*
X47625794Y-73510487D01*
X47637000Y-73561999D01*
X47637000Y-73930868D01*
X47617315Y-73997907D01*
X47564511Y-74043662D01*
X47541064Y-74051032D01*
X47541093Y-74051132D01*
X47536554Y-74052450D01*
X47535287Y-74052849D01*
X47535006Y-74052900D01*
X47377306Y-74098716D01*
X47377303Y-74098717D01*
X47235947Y-74182314D01*
X47235942Y-74182318D01*
X47147242Y-74271018D01*
X47085918Y-74304502D01*
X47016227Y-74299518D01*
X46960293Y-74257646D01*
X46946126Y-74233421D01*
X46929083Y-74194821D01*
X46909409Y-74150263D01*
X46788911Y-73974358D01*
X46788906Y-73974352D01*
X46638147Y-73823593D01*
X46638141Y-73823588D01*
X46462238Y-73703092D01*
X46462239Y-73703092D01*
X46462237Y-73703091D01*
X46267185Y-73616968D01*
X46267183Y-73616967D01*
X46267182Y-73616967D01*
X46267176Y-73616965D01*
X46059640Y-73568152D01*
X46059625Y-73568150D01*
X46015913Y-73565116D01*
X45950398Y-73540836D01*
X45908409Y-73484991D01*
X45900500Y-73441414D01*
X45900500Y-73051977D01*
X45920185Y-72984938D01*
X45972989Y-72939183D01*
X46011903Y-72928619D01*
X46034436Y-72926318D01*
X46034674Y-72928650D01*
G37*
%TD.AperFunction*%
%TA.AperFunction,Conductor*%
G36*
X50034670Y-72928650D02*
G01*
X50093483Y-72933048D01*
X50149281Y-72975100D01*
X50151702Y-72978472D01*
X50161181Y-72992154D01*
X50320346Y-73151319D01*
X50320350Y-73151322D01*
X50320354Y-73151325D01*
X50361434Y-73179785D01*
X50505374Y-73279507D01*
X50710317Y-73372596D01*
X50710321Y-73372597D01*
X50928579Y-73427594D01*
X50928581Y-73427594D01*
X50928588Y-73427596D01*
X51060783Y-73438000D01*
X51263000Y-73437999D01*
X51330039Y-73457683D01*
X51375794Y-73510487D01*
X51387000Y-73561999D01*
X51387000Y-73930868D01*
X51367315Y-73997907D01*
X51314511Y-74043662D01*
X51291064Y-74051032D01*
X51291093Y-74051132D01*
X51286554Y-74052450D01*
X51285287Y-74052849D01*
X51285006Y-74052900D01*
X51127306Y-74098716D01*
X51127305Y-74098716D01*
X51008572Y-74168934D01*
X50940848Y-74186116D01*
X50874586Y-74163956D01*
X50843152Y-74132278D01*
X50726411Y-73961858D01*
X50726406Y-73961852D01*
X50575647Y-73811093D01*
X50575641Y-73811088D01*
X50417986Y-73703092D01*
X50399737Y-73690591D01*
X50204685Y-73604468D01*
X50204683Y-73604467D01*
X50204682Y-73604467D01*
X50204676Y-73604465D01*
X49997140Y-73555652D01*
X49997125Y-73555650D01*
X49953413Y-73552616D01*
X49887898Y-73528336D01*
X49845909Y-73472491D01*
X49838000Y-73428914D01*
X49838000Y-73058362D01*
X49857685Y-72991323D01*
X49910489Y-72945568D01*
X49949399Y-72935004D01*
X50034432Y-72926318D01*
X50034670Y-72928650D01*
G37*
%TD.AperFunction*%
%TA.AperFunction,Conductor*%
G36*
X45943039Y-65919685D02*
G01*
X45988794Y-65972489D01*
X46000000Y-66024000D01*
X46000000Y-66582397D01*
X45980315Y-66649436D01*
X45977929Y-66653013D01*
X45932992Y-66717875D01*
X45932991Y-66717877D01*
X45839903Y-66922818D01*
X45839902Y-66922821D01*
X45784905Y-67141079D01*
X45784904Y-67141086D01*
X45774500Y-67273277D01*
X45774500Y-68076708D01*
X45774501Y-68076723D01*
X45784904Y-68208913D01*
X45784905Y-68208920D01*
X45839902Y-68427178D01*
X45839903Y-68427181D01*
X45932991Y-68632122D01*
X45932997Y-68632132D01*
X45939753Y-68641884D01*
X45961750Y-68708201D01*
X45944402Y-68775882D01*
X45939753Y-68783116D01*
X45932997Y-68792867D01*
X45932991Y-68792877D01*
X45839903Y-68997818D01*
X45839902Y-68997821D01*
X45784905Y-69216079D01*
X45784904Y-69216086D01*
X45774500Y-69348277D01*
X45774500Y-70151708D01*
X45774501Y-70151723D01*
X45783603Y-70267387D01*
X45784904Y-70283912D01*
X45794354Y-70321413D01*
X45809210Y-70380371D01*
X45806502Y-70450188D01*
X45787500Y-70480845D01*
X45787500Y-71588500D01*
X45767815Y-71655539D01*
X45715011Y-71701294D01*
X45663500Y-71712500D01*
X45411500Y-71712500D01*
X45344461Y-71692815D01*
X45298706Y-71640011D01*
X45287500Y-71588500D01*
X45287500Y-70487500D01*
X45268848Y-70468848D01*
X45265328Y-70467815D01*
X45219573Y-70415011D01*
X45209629Y-70345853D01*
X45212125Y-70333202D01*
X45212126Y-70333200D01*
X45215096Y-70321412D01*
X45225500Y-70189217D01*
X45225499Y-69385784D01*
X45215096Y-69253588D01*
X45205644Y-69216079D01*
X45160097Y-69035321D01*
X45160096Y-69035318D01*
X45143064Y-68997821D01*
X45067007Y-68830374D01*
X45060247Y-68820616D01*
X45038249Y-68754303D01*
X45055595Y-68686621D01*
X45060239Y-68679393D01*
X45067007Y-68669626D01*
X45160096Y-68464683D01*
X45215096Y-68246412D01*
X45225500Y-68114217D01*
X45225499Y-67310784D01*
X45215096Y-67178588D01*
X45205647Y-67141088D01*
X45194340Y-67096214D01*
X45197047Y-67026397D01*
X45237071Y-66969127D01*
X45301703Y-66942587D01*
X45327185Y-66942558D01*
X45400020Y-66949999D01*
X45500000Y-66949998D01*
X45500000Y-66024000D01*
X45519685Y-65956961D01*
X45572489Y-65911206D01*
X45624000Y-65900000D01*
X45876000Y-65900000D01*
X45943039Y-65919685D01*
G37*
%TD.AperFunction*%
%TA.AperFunction,Conductor*%
G36*
X48997703Y-64220185D02*
G01*
X49018345Y-64236818D01*
X49145346Y-64363819D01*
X49145350Y-64363822D01*
X49145354Y-64363825D01*
X49146994Y-64364961D01*
X49330374Y-64492007D01*
X49535317Y-64585096D01*
X49535321Y-64585097D01*
X49743390Y-64637527D01*
X49803588Y-64672995D01*
X49835054Y-64735378D01*
X49827798Y-64804870D01*
X49784123Y-64859407D01*
X49752097Y-64875474D01*
X49630878Y-64915642D01*
X49630875Y-64915643D01*
X49481654Y-65007684D01*
X49357684Y-65131654D01*
X49265643Y-65280875D01*
X49265641Y-65280880D01*
X49210494Y-65447302D01*
X49210493Y-65447309D01*
X49200000Y-65550013D01*
X49200000Y-65650000D01*
X50126000Y-65650000D01*
X50193039Y-65669685D01*
X50238794Y-65722489D01*
X50250000Y-65774000D01*
X50250000Y-66026000D01*
X50230315Y-66093039D01*
X50177511Y-66138794D01*
X50126000Y-66150000D01*
X49200001Y-66150000D01*
X49200001Y-66249986D01*
X49210494Y-66352697D01*
X49265641Y-66519119D01*
X49265643Y-66519124D01*
X49357684Y-66668345D01*
X49481654Y-66792315D01*
X49630875Y-66884356D01*
X49630882Y-66884359D01*
X49732062Y-66917886D01*
X49789507Y-66957658D01*
X49816331Y-67022173D01*
X49813301Y-67065889D01*
X49784904Y-67178586D01*
X49774500Y-67310777D01*
X49774500Y-68114208D01*
X49774501Y-68114223D01*
X49784904Y-68246413D01*
X49784905Y-68246420D01*
X49839902Y-68464678D01*
X49839903Y-68464681D01*
X49932991Y-68669622D01*
X49932997Y-68669632D01*
X49939753Y-68679384D01*
X49961750Y-68745701D01*
X49944402Y-68813382D01*
X49939753Y-68820616D01*
X49932997Y-68830367D01*
X49932991Y-68830377D01*
X49839903Y-69035318D01*
X49839902Y-69035321D01*
X49784905Y-69253579D01*
X49784904Y-69253586D01*
X49774500Y-69385777D01*
X49774500Y-70189208D01*
X49774501Y-70189223D01*
X49784904Y-70321413D01*
X49801662Y-70387920D01*
X49798954Y-70457737D01*
X49787500Y-70476216D01*
X49787500Y-71588500D01*
X49767815Y-71655539D01*
X49715011Y-71701294D01*
X49663500Y-71712500D01*
X49411500Y-71712500D01*
X49344461Y-71692815D01*
X49298706Y-71640011D01*
X49287500Y-71588500D01*
X49287500Y-70487500D01*
X49272777Y-70472777D01*
X49255878Y-70467815D01*
X49210123Y-70415011D01*
X49200179Y-70345853D01*
X49202676Y-70333200D01*
X49205647Y-70321412D01*
X49215096Y-70283912D01*
X49225500Y-70151717D01*
X49225499Y-69348284D01*
X49215096Y-69216088D01*
X49160096Y-68997817D01*
X49067007Y-68792874D01*
X49060247Y-68783116D01*
X49038249Y-68716803D01*
X49055595Y-68649121D01*
X49060239Y-68641893D01*
X49067007Y-68632126D01*
X49160096Y-68427183D01*
X49215096Y-68208912D01*
X49225500Y-68076717D01*
X49225499Y-67273284D01*
X49215096Y-67141088D01*
X49196147Y-67065889D01*
X49160097Y-66922821D01*
X49160096Y-66922818D01*
X49142627Y-66884359D01*
X49067007Y-66717874D01*
X48938819Y-66532846D01*
X48779654Y-66373681D01*
X48779653Y-66373680D01*
X48779651Y-66373678D01*
X48653884Y-66286546D01*
X48609987Y-66232187D01*
X48600500Y-66184618D01*
X48600500Y-64507204D01*
X48620185Y-64440165D01*
X48636819Y-64419523D01*
X48819523Y-64236819D01*
X48880846Y-64203334D01*
X48907204Y-64200500D01*
X48930664Y-64200500D01*
X48997703Y-64220185D01*
G37*
%TD.AperFunction*%
%TD*%
M02*
